%FSLAX42Y42*%
%MOMM*%
G71*
G01*
G75*
G04 Layer_Color=65535*
%ADD10R,1.45X1.65*%
%ADD11R,1.65X1.45*%
%ADD12O,2.20X0.60*%
%ADD13R,1.30X1.80*%
%ADD14R,5.55X6.10*%
%ADD15R,1.55X0.60*%
%ADD16R,0.80X0.90*%
%ADD17R,0.90X0.80*%
%ADD18R,1.40X0.90*%
%ADD19R,0.90X1.40*%
%ADD20R,1.15X1.80*%
%ADD21R,1.80X1.15*%
%ADD22R,1.55X0.70*%
%ADD23R,0.70X1.55*%
%ADD24R,1.00X1.75*%
%ADD25R,1.75X1.00*%
%ADD26R,3.10X5.60*%
%ADD27C,0.29*%
%ADD28O,0.40X1.70*%
%ADD29R,1.65X2.00*%
G04:AMPARAMS|DCode=30|XSize=0.8mm|YSize=1.5mm|CornerRadius=0mm|HoleSize=0mm|Usage=FLASHONLY|Rotation=180.000|XOffset=0mm|YOffset=0mm|HoleType=Round|Shape=Octagon|*
%AMOCTAGOND30*
4,1,8,0.20,-0.75,-0.20,-0.75,-0.40,-0.55,-0.40,0.55,-0.20,0.75,0.20,0.75,0.40,0.55,0.40,-0.55,0.20,-0.75,0.0*
%
%ADD30OCTAGOND30*%

G04:AMPARAMS|DCode=31|XSize=0.8mm|YSize=1.5mm|CornerRadius=0mm|HoleSize=0mm|Usage=FLASHONLY|Rotation=90.000|XOffset=0mm|YOffset=0mm|HoleType=Round|Shape=Octagon|*
%AMOCTAGOND31*
4,1,8,-0.75,-0.20,-0.75,0.20,-0.55,0.40,0.55,0.40,0.75,0.20,0.75,-0.20,0.55,-0.40,-0.55,-0.40,-0.75,-0.20,0.0*
%
%ADD31OCTAGOND31*%

%ADD32O,1.35X0.55*%
%ADD33O,0.60X1.55*%
%ADD34R,1.10X0.60*%
%ADD35C,0.50*%
%ADD36C,0.30*%
%ADD37C,0.10*%
%ADD38C,1.00*%
%ADD39C,0.25*%
%ADD40C,0.15*%
%ADD41C,0.20*%
%ADD42C,1.70*%
%ADD43R,1.70X1.70*%
%ADD44R,1.70X1.70*%
%ADD45C,1.30*%
%ADD46R,1.30X1.30*%
%ADD47C,1.27*%
%ADD48C,0.40*%
%ADD49C,0.25*%
%ADD50C,0.60*%
%ADD51C,0.08*%
G36*
X265Y1887D02*
X267Y1887D01*
X269Y1887D01*
X271Y1887D01*
X273Y1886D01*
X277Y1885D01*
X280Y1884D01*
X282Y1883D01*
X285Y1881D01*
X287Y1880D01*
X289Y1878D01*
X291Y1876D01*
X292Y1876D01*
X292Y1876D01*
X292Y1875D01*
X293Y1874D01*
X294Y1873D01*
X295Y1872D01*
X296Y1870D01*
X297Y1868D01*
X298Y1866D01*
X299Y1864D01*
X300Y1861D01*
X301Y1859D01*
X302Y1856D01*
X302Y1853D01*
X302Y1849D01*
X302Y1846D01*
Y1846D01*
Y1845D01*
Y1844D01*
X302Y1843D01*
Y1842D01*
X302Y1840D01*
X302Y1838D01*
X301Y1836D01*
X300Y1831D01*
X299Y1826D01*
X296Y1821D01*
X295Y1819D01*
X293Y1817D01*
X293Y1817D01*
X293Y1816D01*
X292Y1816D01*
X291Y1815D01*
X290Y1814D01*
X289Y1813D01*
X287Y1811D01*
X286Y1810D01*
X283Y1809D01*
X281Y1808D01*
X279Y1806D01*
X276Y1805D01*
X273Y1805D01*
X270Y1804D01*
X267Y1803D01*
X263Y1803D01*
X262D01*
X260Y1803D01*
X257Y1804D01*
X254Y1805D01*
X251Y1805D01*
X248Y1807D01*
X244Y1808D01*
X244D01*
X244Y1809D01*
X243Y1809D01*
X241Y1811D01*
X240Y1812D01*
X237Y1815D01*
X235Y1817D01*
X233Y1821D01*
X231Y1825D01*
Y1824D01*
X231Y1824D01*
X230Y1823D01*
X229Y1821D01*
X228Y1819D01*
X227Y1817D01*
X225Y1815D01*
X222Y1813D01*
X220Y1811D01*
X220Y1810D01*
X219Y1810D01*
X217Y1809D01*
X215Y1809D01*
X213Y1808D01*
X210Y1807D01*
X208Y1807D01*
X204Y1806D01*
X203D01*
X202Y1807D01*
X201Y1807D01*
X200Y1807D01*
X196Y1808D01*
X193Y1809D01*
X189Y1811D01*
X187Y1812D01*
X185Y1813D01*
X183Y1815D01*
X181Y1816D01*
X181Y1817D01*
X181Y1817D01*
X180Y1817D01*
X179Y1818D01*
X179Y1819D01*
X178Y1821D01*
X177Y1822D01*
X176Y1824D01*
X175Y1826D01*
X174Y1828D01*
X174Y1830D01*
X173Y1833D01*
X172Y1835D01*
X172Y1838D01*
X172Y1841D01*
X171Y1845D01*
Y1845D01*
Y1846D01*
Y1847D01*
X172Y1848D01*
Y1849D01*
X172Y1851D01*
X172Y1853D01*
X173Y1855D01*
X174Y1860D01*
X175Y1864D01*
X177Y1867D01*
X178Y1869D01*
X179Y1871D01*
X181Y1873D01*
X181Y1873D01*
X181Y1873D01*
X182Y1874D01*
X183Y1875D01*
X184Y1876D01*
X185Y1876D01*
X187Y1878D01*
X191Y1880D01*
X195Y1882D01*
X199Y1883D01*
X202Y1883D01*
X204Y1883D01*
X206D01*
X208Y1883D01*
X210Y1883D01*
X212Y1882D01*
X215Y1881D01*
X218Y1880D01*
X220Y1879D01*
X221Y1878D01*
X222Y1878D01*
X223Y1877D01*
X224Y1875D01*
X226Y1873D01*
X228Y1871D01*
X229Y1869D01*
X231Y1866D01*
Y1866D01*
X231Y1866D01*
X231Y1867D01*
X232Y1867D01*
X233Y1869D01*
X234Y1872D01*
X236Y1874D01*
X238Y1877D01*
X241Y1880D01*
X243Y1882D01*
X244Y1882D01*
X245Y1883D01*
X247Y1884D01*
X249Y1885D01*
X252Y1886D01*
X255Y1887D01*
X259Y1887D01*
X263Y1887D01*
X264D01*
X265Y1887D01*
D02*
G37*
G36*
X192Y1987D02*
X192Y1987D01*
X193Y1986D01*
X193Y1985D01*
X195Y1984D01*
X196Y1983D01*
X197Y1982D01*
X199Y1980D01*
X201Y1979D01*
X203Y1977D01*
X206Y1975D01*
X208Y1974D01*
X211Y1972D01*
X214Y1970D01*
X218Y1968D01*
X221Y1966D01*
X221Y1965D01*
X222Y1965D01*
X223Y1965D01*
X224Y1964D01*
X226Y1963D01*
X228Y1962D01*
X231Y1961D01*
X233Y1960D01*
X236Y1958D01*
X239Y1957D01*
X243Y1956D01*
X246Y1954D01*
X254Y1952D01*
X262Y1949D01*
X262D01*
X263Y1949D01*
X264Y1949D01*
X265Y1949D01*
X267Y1948D01*
X269Y1948D01*
X272Y1947D01*
X275Y1947D01*
X277Y1946D01*
X280Y1946D01*
X287Y1945D01*
X294Y1944D01*
X300Y1944D01*
Y1920D01*
X299D01*
X297Y1921D01*
X295D01*
X293Y1921D01*
X290Y1921D01*
X287Y1922D01*
X283Y1922D01*
X279Y1923D01*
X275Y1923D01*
X271Y1924D01*
X266Y1925D01*
X261Y1926D01*
X256Y1928D01*
X251Y1929D01*
X246Y1931D01*
X246Y1931D01*
X245Y1932D01*
X243Y1932D01*
X241Y1933D01*
X239Y1934D01*
X236Y1935D01*
X233Y1937D01*
X229Y1938D01*
X226Y1940D01*
X222Y1942D01*
X218Y1945D01*
X213Y1947D01*
X205Y1953D01*
X197Y1959D01*
Y1903D01*
X174D01*
Y1987D01*
X192D01*
X192Y1987D01*
D02*
G37*
G36*
X260Y1790D02*
X261D01*
X263Y1790D01*
X265Y1790D01*
X267Y1790D01*
X271Y1788D01*
X276Y1787D01*
X278Y1786D01*
X281Y1784D01*
X283Y1783D01*
X285Y1781D01*
X286Y1781D01*
X286Y1781D01*
X287Y1780D01*
X288Y1779D01*
X289Y1778D01*
X291Y1776D01*
X292Y1774D01*
X294Y1772D01*
X295Y1770D01*
X297Y1767D01*
X298Y1765D01*
X299Y1762D01*
X301Y1758D01*
X301Y1755D01*
X302Y1751D01*
X302Y1747D01*
Y1747D01*
Y1746D01*
Y1745D01*
X302Y1744D01*
X302Y1742D01*
X302Y1740D01*
X301Y1739D01*
X301Y1736D01*
X300Y1732D01*
X298Y1727D01*
X297Y1725D01*
X296Y1722D01*
X294Y1720D01*
X293Y1718D01*
X292Y1718D01*
X292Y1717D01*
X292Y1717D01*
X291Y1716D01*
X290Y1715D01*
X289Y1714D01*
X287Y1713D01*
X286Y1712D01*
X282Y1710D01*
X278Y1708D01*
X273Y1706D01*
X270Y1705D01*
X267Y1704D01*
X264Y1729D01*
X265D01*
X266Y1729D01*
X267Y1730D01*
X269Y1730D01*
X271Y1731D01*
X274Y1732D01*
X276Y1733D01*
X278Y1735D01*
X278Y1735D01*
X279Y1736D01*
X279Y1737D01*
X280Y1739D01*
X281Y1740D01*
X282Y1742D01*
X282Y1744D01*
X282Y1747D01*
Y1747D01*
X282Y1748D01*
X282Y1750D01*
X282Y1751D01*
X281Y1754D01*
X280Y1756D01*
X279Y1758D01*
X276Y1760D01*
X276Y1760D01*
X275Y1761D01*
X274Y1762D01*
X272Y1763D01*
X269Y1764D01*
X266Y1765D01*
X262Y1765D01*
X258Y1765D01*
X256D01*
X254Y1765D01*
X251Y1765D01*
X248Y1764D01*
X245Y1763D01*
X242Y1762D01*
X240Y1760D01*
X240Y1760D01*
X239Y1759D01*
X238Y1758D01*
X237Y1756D01*
X236Y1754D01*
X235Y1752D01*
X234Y1749D01*
X234Y1746D01*
Y1746D01*
Y1746D01*
Y1745D01*
X234Y1744D01*
X235Y1742D01*
X235Y1740D01*
X236Y1737D01*
X238Y1734D01*
X239Y1732D01*
X240Y1731D01*
X242Y1729D01*
X243Y1727D01*
X240Y1708D01*
X174Y1720D01*
Y1785D01*
X197D01*
Y1739D01*
X219Y1735D01*
Y1735D01*
X218Y1735D01*
X218Y1736D01*
X217Y1738D01*
X216Y1740D01*
X216Y1742D01*
X215Y1745D01*
X215Y1748D01*
X214Y1751D01*
Y1752D01*
Y1752D01*
Y1753D01*
X215Y1754D01*
X215Y1756D01*
X215Y1757D01*
X215Y1759D01*
X216Y1761D01*
X217Y1765D01*
X218Y1768D01*
X220Y1770D01*
X221Y1772D01*
X222Y1775D01*
X224Y1777D01*
X226Y1779D01*
X227Y1779D01*
X227Y1780D01*
X228Y1780D01*
X228Y1781D01*
X230Y1782D01*
X231Y1783D01*
X233Y1784D01*
X235Y1785D01*
X237Y1786D01*
X239Y1787D01*
X242Y1788D01*
X244Y1789D01*
X247Y1790D01*
X250Y1790D01*
X254Y1790D01*
X257Y1791D01*
X259D01*
X260Y1790D01*
D02*
G37*
G36*
X300Y1560D02*
X275D01*
Y1585D01*
X300D01*
Y1560D01*
D02*
G37*
G36*
X192Y1688D02*
X192Y1688D01*
X193Y1688D01*
X193Y1687D01*
X195Y1686D01*
X196Y1685D01*
X197Y1683D01*
X199Y1682D01*
X201Y1680D01*
X203Y1679D01*
X206Y1677D01*
X208Y1675D01*
X211Y1673D01*
X214Y1671D01*
X218Y1669D01*
X221Y1667D01*
X221Y1667D01*
X222Y1667D01*
X223Y1666D01*
X224Y1665D01*
X226Y1665D01*
X228Y1664D01*
X231Y1662D01*
X233Y1661D01*
X236Y1660D01*
X239Y1658D01*
X243Y1657D01*
X246Y1656D01*
X254Y1653D01*
X262Y1651D01*
X262D01*
X263Y1651D01*
X264Y1650D01*
X265Y1650D01*
X267Y1650D01*
X269Y1649D01*
X272Y1649D01*
X275Y1648D01*
X277Y1648D01*
X280Y1647D01*
X287Y1646D01*
X294Y1646D01*
X300Y1646D01*
Y1622D01*
X299D01*
X297Y1622D01*
X295D01*
X293Y1622D01*
X290Y1623D01*
X287Y1623D01*
X283Y1623D01*
X279Y1624D01*
X275Y1625D01*
X271Y1626D01*
X266Y1627D01*
X261Y1628D01*
X256Y1629D01*
X251Y1631D01*
X246Y1633D01*
X246Y1633D01*
X245Y1633D01*
X243Y1634D01*
X241Y1635D01*
X239Y1636D01*
X236Y1637D01*
X233Y1638D01*
X229Y1640D01*
X226Y1642D01*
X222Y1644D01*
X218Y1646D01*
X213Y1649D01*
X205Y1654D01*
X197Y1660D01*
Y1605D01*
X174D01*
Y1689D01*
X192D01*
X192Y1688D01*
D02*
G37*
G36*
X243Y2334D02*
X246Y2334D01*
X249Y2334D01*
X253Y2333D01*
X257Y2333D01*
X266Y2331D01*
X270Y2330D01*
X274Y2329D01*
X278Y2328D01*
X282Y2326D01*
X286Y2324D01*
X289Y2322D01*
X289Y2321D01*
X290Y2321D01*
X290Y2320D01*
X291Y2320D01*
X292Y2319D01*
X293Y2317D01*
X294Y2316D01*
X296Y2314D01*
X297Y2312D01*
X298Y2310D01*
X299Y2308D01*
X300Y2305D01*
X301Y2302D01*
X302Y2299D01*
X302Y2296D01*
X302Y2293D01*
Y2293D01*
Y2292D01*
X302Y2291D01*
Y2290D01*
X302Y2288D01*
X301Y2286D01*
X301Y2284D01*
X300Y2282D01*
X300Y2280D01*
X299Y2277D01*
X298Y2274D01*
X296Y2272D01*
X294Y2270D01*
X293Y2267D01*
X290Y2265D01*
X288Y2262D01*
X288Y2262D01*
X287Y2262D01*
X286Y2261D01*
X285Y2261D01*
X283Y2260D01*
X281Y2259D01*
X279Y2258D01*
X276Y2257D01*
X273Y2256D01*
X269Y2255D01*
X265Y2254D01*
X260Y2253D01*
X255Y2252D01*
X249Y2252D01*
X243Y2251D01*
X237Y2251D01*
X233D01*
X231Y2251D01*
X228Y2251D01*
X224Y2252D01*
X221Y2252D01*
X216Y2253D01*
X208Y2254D01*
X204Y2255D01*
X199Y2256D01*
X195Y2258D01*
X191Y2259D01*
X188Y2261D01*
X185Y2264D01*
X184Y2264D01*
X184Y2264D01*
X183Y2265D01*
X182Y2266D01*
X181Y2267D01*
X180Y2268D01*
X179Y2270D01*
X178Y2271D01*
X177Y2273D01*
X176Y2275D01*
X174Y2278D01*
X173Y2280D01*
X173Y2283D01*
X172Y2286D01*
X172Y2289D01*
X171Y2293D01*
Y2293D01*
Y2293D01*
Y2294D01*
X172Y2296D01*
X172Y2297D01*
X172Y2299D01*
X173Y2301D01*
X173Y2303D01*
X174Y2306D01*
X175Y2308D01*
X176Y2310D01*
X177Y2313D01*
X179Y2315D01*
X180Y2318D01*
X182Y2320D01*
X185Y2322D01*
X185Y2322D01*
X185Y2322D01*
X186Y2323D01*
X188Y2324D01*
X189Y2325D01*
X192Y2326D01*
X194Y2327D01*
X197Y2328D01*
X201Y2329D01*
X204Y2330D01*
X209Y2332D01*
X213Y2332D01*
X219Y2333D01*
X224Y2334D01*
X230Y2334D01*
X237Y2334D01*
X240D01*
X243Y2334D01*
D02*
G37*
G36*
Y2434D02*
X246Y2434D01*
X249Y2433D01*
X253Y2433D01*
X257Y2432D01*
X266Y2431D01*
X270Y2430D01*
X274Y2429D01*
X278Y2427D01*
X282Y2425D01*
X286Y2423D01*
X289Y2421D01*
X289Y2421D01*
X290Y2421D01*
X290Y2420D01*
X291Y2419D01*
X292Y2418D01*
X293Y2417D01*
X294Y2415D01*
X296Y2414D01*
X297Y2412D01*
X298Y2410D01*
X299Y2407D01*
X300Y2405D01*
X301Y2402D01*
X302Y2399D01*
X302Y2396D01*
X302Y2392D01*
Y2392D01*
Y2391D01*
X302Y2390D01*
Y2389D01*
X302Y2387D01*
X301Y2386D01*
X301Y2384D01*
X300Y2381D01*
X300Y2379D01*
X299Y2377D01*
X298Y2374D01*
X296Y2371D01*
X294Y2369D01*
X293Y2367D01*
X290Y2364D01*
X288Y2362D01*
X288Y2362D01*
X287Y2361D01*
X286Y2361D01*
X285Y2360D01*
X283Y2359D01*
X281Y2358D01*
X279Y2357D01*
X276Y2356D01*
X273Y2355D01*
X269Y2354D01*
X265Y2353D01*
X260Y2352D01*
X255Y2352D01*
X249Y2351D01*
X243Y2351D01*
X237Y2351D01*
X233D01*
X231Y2351D01*
X228Y2351D01*
X224Y2351D01*
X221Y2352D01*
X216Y2352D01*
X208Y2354D01*
X204Y2355D01*
X199Y2356D01*
X195Y2357D01*
X191Y2359D01*
X188Y2361D01*
X185Y2363D01*
X184Y2363D01*
X184Y2364D01*
X183Y2364D01*
X182Y2365D01*
X181Y2366D01*
X180Y2367D01*
X179Y2369D01*
X178Y2371D01*
X177Y2373D01*
X176Y2375D01*
X174Y2377D01*
X173Y2380D01*
X173Y2383D01*
X172Y2386D01*
X172Y2389D01*
X171Y2392D01*
Y2392D01*
Y2393D01*
Y2394D01*
X172Y2395D01*
X172Y2397D01*
X172Y2399D01*
X173Y2401D01*
X173Y2403D01*
X174Y2405D01*
X175Y2407D01*
X176Y2410D01*
X177Y2412D01*
X179Y2415D01*
X180Y2417D01*
X182Y2419D01*
X185Y2421D01*
X185Y2422D01*
X185Y2422D01*
X186Y2422D01*
X188Y2423D01*
X189Y2424D01*
X192Y2425D01*
X194Y2426D01*
X197Y2428D01*
X201Y2429D01*
X204Y2430D01*
X209Y2431D01*
X213Y2432D01*
X219Y2433D01*
X224Y2433D01*
X230Y2434D01*
X237Y2434D01*
X240D01*
X243Y2434D01*
D02*
G37*
G36*
X300Y2207D02*
X275D01*
Y2231D01*
X300D01*
Y2207D01*
D02*
G37*
G36*
X274Y2074D02*
X300D01*
Y2051D01*
X274D01*
Y1998D01*
X253D01*
X171Y2054D01*
Y2074D01*
X253D01*
Y2090D01*
X274D01*
Y2074D01*
D02*
G37*
G36*
X260Y2188D02*
X261D01*
X263Y2188D01*
X265Y2188D01*
X267Y2188D01*
X271Y2186D01*
X276Y2185D01*
X278Y2184D01*
X281Y2182D01*
X283Y2181D01*
X285Y2179D01*
X286Y2179D01*
X286Y2179D01*
X287Y2178D01*
X288Y2177D01*
X289Y2176D01*
X291Y2174D01*
X292Y2172D01*
X294Y2170D01*
X295Y2168D01*
X297Y2165D01*
X298Y2163D01*
X299Y2160D01*
X301Y2156D01*
X301Y2153D01*
X302Y2149D01*
X302Y2145D01*
Y2145D01*
Y2144D01*
Y2143D01*
X302Y2142D01*
X302Y2140D01*
X302Y2138D01*
X301Y2137D01*
X301Y2134D01*
X300Y2130D01*
X298Y2125D01*
X297Y2123D01*
X296Y2120D01*
X294Y2118D01*
X293Y2116D01*
X292Y2116D01*
X292Y2115D01*
X292Y2115D01*
X291Y2114D01*
X290Y2113D01*
X289Y2112D01*
X287Y2111D01*
X286Y2110D01*
X282Y2108D01*
X278Y2106D01*
X273Y2104D01*
X270Y2103D01*
X267Y2102D01*
X264Y2127D01*
X265D01*
X266Y2127D01*
X267Y2128D01*
X269Y2128D01*
X271Y2129D01*
X274Y2130D01*
X276Y2131D01*
X278Y2133D01*
X278Y2133D01*
X279Y2134D01*
X279Y2135D01*
X280Y2137D01*
X281Y2138D01*
X282Y2140D01*
X282Y2142D01*
X282Y2145D01*
Y2145D01*
X282Y2146D01*
X282Y2148D01*
X282Y2149D01*
X281Y2152D01*
X280Y2154D01*
X279Y2156D01*
X276Y2158D01*
X276Y2158D01*
X275Y2159D01*
X274Y2160D01*
X272Y2161D01*
X269Y2162D01*
X266Y2163D01*
X262Y2163D01*
X258Y2163D01*
X256D01*
X254Y2163D01*
X251Y2163D01*
X248Y2162D01*
X245Y2161D01*
X242Y2160D01*
X240Y2158D01*
X240Y2158D01*
X239Y2157D01*
X238Y2156D01*
X237Y2154D01*
X236Y2152D01*
X235Y2150D01*
X234Y2147D01*
X234Y2144D01*
Y2144D01*
Y2144D01*
Y2143D01*
X234Y2142D01*
X235Y2140D01*
X235Y2138D01*
X236Y2135D01*
X238Y2132D01*
X239Y2130D01*
X240Y2129D01*
X242Y2127D01*
X243Y2125D01*
X240Y2106D01*
X174Y2118D01*
Y2183D01*
X197D01*
Y2137D01*
X219Y2133D01*
Y2133D01*
X218Y2133D01*
X218Y2134D01*
X217Y2136D01*
X216Y2138D01*
X216Y2140D01*
X215Y2143D01*
X215Y2146D01*
X214Y2149D01*
Y2150D01*
Y2150D01*
Y2151D01*
X215Y2152D01*
X215Y2154D01*
X215Y2155D01*
X215Y2157D01*
X216Y2159D01*
X217Y2163D01*
X218Y2166D01*
X220Y2168D01*
X221Y2170D01*
X222Y2173D01*
X224Y2175D01*
X226Y2177D01*
X227Y2177D01*
X227Y2178D01*
X228Y2178D01*
X228Y2179D01*
X230Y2180D01*
X231Y2181D01*
X233Y2182D01*
X235Y2183D01*
X237Y2184D01*
X239Y2185D01*
X242Y2186D01*
X244Y2187D01*
X247Y2188D01*
X250Y2188D01*
X254Y2188D01*
X257Y2189D01*
X259D01*
X260Y2188D01*
D02*
G37*
G36*
X300Y3099D02*
X275D01*
Y3124D01*
X300D01*
Y3099D01*
D02*
G37*
G36*
X243Y3227D02*
X246Y3227D01*
X249Y3226D01*
X253Y3226D01*
X257Y3225D01*
X266Y3224D01*
X270Y3223D01*
X274Y3222D01*
X278Y3220D01*
X282Y3218D01*
X286Y3216D01*
X289Y3214D01*
X289Y3214D01*
X290Y3214D01*
X290Y3213D01*
X291Y3212D01*
X292Y3211D01*
X293Y3210D01*
X294Y3208D01*
X296Y3207D01*
X297Y3205D01*
X298Y3203D01*
X299Y3200D01*
X300Y3198D01*
X301Y3195D01*
X302Y3192D01*
X302Y3189D01*
X302Y3185D01*
Y3185D01*
Y3185D01*
X302Y3183D01*
Y3182D01*
X302Y3181D01*
X301Y3179D01*
X301Y3177D01*
X300Y3174D01*
X300Y3172D01*
X299Y3170D01*
X298Y3167D01*
X296Y3165D01*
X294Y3162D01*
X293Y3160D01*
X290Y3157D01*
X288Y3155D01*
X288Y3155D01*
X287Y3154D01*
X286Y3154D01*
X285Y3153D01*
X283Y3152D01*
X281Y3151D01*
X279Y3150D01*
X276Y3149D01*
X273Y3148D01*
X269Y3147D01*
X265Y3146D01*
X260Y3145D01*
X255Y3145D01*
X249Y3144D01*
X243Y3144D01*
X237Y3144D01*
X233D01*
X231Y3144D01*
X228Y3144D01*
X224Y3144D01*
X221Y3145D01*
X216Y3145D01*
X208Y3147D01*
X204Y3148D01*
X199Y3149D01*
X195Y3150D01*
X191Y3152D01*
X188Y3154D01*
X185Y3156D01*
X184Y3156D01*
X184Y3157D01*
X183Y3157D01*
X182Y3158D01*
X181Y3159D01*
X180Y3161D01*
X179Y3162D01*
X178Y3164D01*
X177Y3166D01*
X176Y3168D01*
X174Y3170D01*
X173Y3173D01*
X173Y3176D01*
X172Y3179D01*
X172Y3182D01*
X171Y3185D01*
Y3185D01*
Y3186D01*
Y3187D01*
X172Y3188D01*
X172Y3190D01*
X172Y3192D01*
X173Y3194D01*
X173Y3196D01*
X174Y3198D01*
X175Y3201D01*
X176Y3203D01*
X177Y3205D01*
X179Y3208D01*
X180Y3210D01*
X182Y3212D01*
X185Y3214D01*
X185Y3215D01*
X185Y3215D01*
X186Y3216D01*
X188Y3216D01*
X189Y3217D01*
X192Y3218D01*
X194Y3220D01*
X197Y3221D01*
X201Y3222D01*
X204Y3223D01*
X209Y3224D01*
X213Y3225D01*
X219Y3226D01*
X224Y3226D01*
X230Y3227D01*
X237Y3227D01*
X240D01*
X243Y3227D01*
D02*
G37*
G36*
X300Y3054D02*
X239D01*
X300Y3031D01*
Y3010D01*
X239Y2989D01*
X300D01*
Y2968D01*
X207D01*
Y2998D01*
X272Y3021D01*
X207Y3044D01*
Y3075D01*
X300D01*
Y3054D01*
D02*
G37*
G36*
Y2828D02*
X216D01*
X300Y2776D01*
Y2750D01*
X172D01*
Y2774D01*
X258D01*
X172Y2827D01*
Y2852D01*
X300D01*
Y2828D01*
D02*
G37*
G36*
X278Y2947D02*
X279Y2947D01*
X282Y2946D01*
X285Y2945D01*
X288Y2943D01*
X290Y2942D01*
X291Y2941D01*
X293Y2939D01*
X294Y2937D01*
Y2937D01*
X295Y2937D01*
X295Y2936D01*
X295Y2935D01*
X296Y2935D01*
X297Y2933D01*
X298Y2932D01*
X298Y2930D01*
X299Y2928D01*
X300Y2926D01*
X300Y2924D01*
X301Y2921D01*
X301Y2918D01*
X302Y2915D01*
X302Y2912D01*
Y2908D01*
Y2908D01*
Y2907D01*
X302Y2905D01*
X302Y2903D01*
X301Y2900D01*
X301Y2897D01*
X300Y2894D01*
X299Y2891D01*
X298Y2887D01*
X296Y2884D01*
X294Y2880D01*
X291Y2877D01*
X288Y2874D01*
X285Y2871D01*
X281Y2869D01*
X276Y2868D01*
X272Y2890D01*
X272D01*
X273Y2890D01*
X273Y2891D01*
X274Y2891D01*
X276Y2892D01*
X279Y2894D01*
X281Y2897D01*
X284Y2900D01*
X284Y2902D01*
X285Y2904D01*
X286Y2906D01*
X286Y2908D01*
Y2908D01*
Y2909D01*
X286Y2910D01*
X285Y2912D01*
X285Y2914D01*
X284Y2916D01*
X283Y2917D01*
X282Y2919D01*
X282Y2919D01*
X282Y2920D01*
X281Y2920D01*
X280Y2921D01*
X279Y2922D01*
X277Y2923D01*
X275Y2923D01*
X274Y2923D01*
X273D01*
X272Y2923D01*
X271Y2923D01*
X269Y2922D01*
X268Y2921D01*
X266Y2920D01*
X265Y2919D01*
X265Y2919D01*
X265Y2918D01*
X264Y2917D01*
X263Y2916D01*
X263Y2914D01*
X263Y2912D01*
X262Y2910D01*
X262Y2908D01*
Y2904D01*
X246D01*
Y2904D01*
Y2904D01*
Y2906D01*
X246Y2907D01*
X246Y2910D01*
X245Y2912D01*
X245Y2913D01*
Y2913D01*
X245Y2913D01*
X245Y2914D01*
X244Y2914D01*
X243Y2916D01*
X242Y2917D01*
X241Y2918D01*
X241Y2918D01*
X241Y2919D01*
X240Y2919D01*
X239Y2920D01*
X238Y2920D01*
X237Y2920D01*
X236Y2921D01*
X234Y2921D01*
X233D01*
X232Y2921D01*
X231Y2920D01*
X230Y2920D01*
X229Y2920D01*
X227Y2919D01*
X226Y2918D01*
X226Y2917D01*
X225Y2917D01*
X225Y2916D01*
X224Y2915D01*
X223Y2914D01*
X223Y2912D01*
X222Y2910D01*
X222Y2908D01*
Y2908D01*
Y2907D01*
X222Y2906D01*
Y2905D01*
X223Y2902D01*
X224Y2900D01*
X224Y2899D01*
X224Y2899D01*
X225Y2898D01*
X225Y2898D01*
X226Y2897D01*
X228Y2896D01*
X229Y2894D01*
X232Y2893D01*
X234Y2892D01*
X230Y2871D01*
X230D01*
X229Y2872D01*
X229Y2872D01*
X228Y2872D01*
X226Y2873D01*
X223Y2874D01*
X220Y2876D01*
X217Y2878D01*
X214Y2881D01*
X212Y2885D01*
Y2885D01*
X211Y2885D01*
X211Y2886D01*
X211Y2887D01*
X210Y2888D01*
X210Y2889D01*
X208Y2892D01*
X207Y2895D01*
X206Y2899D01*
X205Y2904D01*
X205Y2908D01*
Y2908D01*
Y2909D01*
Y2910D01*
X205Y2911D01*
Y2912D01*
X206Y2914D01*
X206Y2918D01*
X207Y2922D01*
X208Y2926D01*
X210Y2931D01*
X213Y2934D01*
Y2935D01*
X213Y2935D01*
X214Y2936D01*
X216Y2937D01*
X218Y2939D01*
X221Y2941D01*
X224Y2942D01*
X228Y2943D01*
X230Y2943D01*
X232Y2944D01*
X233D01*
X235Y2943D01*
X236Y2943D01*
X238Y2943D01*
X240Y2942D01*
X242Y2941D01*
X244Y2940D01*
X244Y2939D01*
X245Y2939D01*
X246Y2938D01*
X247Y2937D01*
X248Y2935D01*
X250Y2933D01*
X252Y2930D01*
X253Y2927D01*
Y2927D01*
X253Y2927D01*
Y2928D01*
X254Y2929D01*
X254Y2931D01*
X255Y2933D01*
X256Y2935D01*
X258Y2938D01*
X259Y2940D01*
X262Y2943D01*
X262Y2943D01*
X263Y2943D01*
X264Y2944D01*
X265Y2945D01*
X267Y2946D01*
X270Y2947D01*
X273Y2947D01*
X276Y2948D01*
X277D01*
X278Y2947D01*
D02*
G37*
G36*
X300Y1380D02*
X194D01*
Y1329D01*
X300D01*
Y1303D01*
X172D01*
Y1406D01*
X300D01*
Y1380D01*
D02*
G37*
G36*
Y1510D02*
X216D01*
X300Y1458D01*
Y1432D01*
X172D01*
Y1456D01*
X258D01*
X172Y1509D01*
Y1534D01*
X300D01*
Y1510D01*
D02*
G37*
G36*
Y1258D02*
X267Y1242D01*
X267D01*
X266Y1242D01*
X266Y1242D01*
X264Y1241D01*
X264Y1241D01*
X263Y1240D01*
X263Y1240D01*
X262Y1240D01*
X261Y1239D01*
X260Y1238D01*
X258Y1238D01*
X258D01*
X258Y1237D01*
X257Y1237D01*
X255Y1236D01*
X253Y1235D01*
X251Y1234D01*
X249Y1232D01*
X248Y1231D01*
X247Y1230D01*
X246Y1229D01*
X246Y1229D01*
X246Y1228D01*
X245Y1228D01*
X245Y1226D01*
X244Y1225D01*
X244Y1224D01*
X244Y1222D01*
X300D01*
Y1197D01*
X244D01*
Y1197D01*
Y1196D01*
X244Y1195D01*
X244Y1194D01*
X245Y1192D01*
X246Y1190D01*
X246Y1189D01*
X247Y1189D01*
X247Y1188D01*
X248Y1188D01*
X249Y1187D01*
X250Y1185D01*
X252Y1184D01*
X255Y1183D01*
X258Y1181D01*
X258Y1181D01*
X259Y1181D01*
X260Y1180D01*
X261Y1179D01*
X262Y1179D01*
X263Y1178D01*
X264Y1178D01*
X264Y1178D01*
X264Y1177D01*
X265Y1177D01*
X266Y1177D01*
X267Y1176D01*
X300Y1161D01*
Y1131D01*
X265Y1148D01*
X265D01*
X264Y1148D01*
X264Y1148D01*
X263Y1149D01*
X262Y1150D01*
X260Y1150D01*
X257Y1152D01*
X254Y1154D01*
X251Y1156D01*
X247Y1158D01*
X244Y1160D01*
X244Y1160D01*
X243Y1161D01*
X242Y1162D01*
X240Y1164D01*
X238Y1166D01*
X237Y1169D01*
X235Y1171D01*
X234Y1175D01*
X234Y1174D01*
X233Y1174D01*
X233Y1172D01*
X232Y1171D01*
X230Y1169D01*
X229Y1167D01*
X227Y1166D01*
X226Y1165D01*
X226Y1165D01*
X225Y1164D01*
X224Y1164D01*
X223Y1163D01*
X221Y1162D01*
X219Y1162D01*
X217Y1161D01*
X215Y1160D01*
X215D01*
X214Y1159D01*
X214Y1159D01*
X213Y1159D01*
X211Y1158D01*
X208Y1157D01*
X205Y1156D01*
X203Y1155D01*
X201Y1154D01*
X199Y1153D01*
X199Y1153D01*
X198D01*
X198Y1153D01*
X197Y1152D01*
X196Y1151D01*
X194Y1150D01*
X193Y1148D01*
X193Y1147D01*
X192Y1147D01*
X192Y1146D01*
X192Y1146D01*
X191Y1144D01*
X191Y1142D01*
X191Y1140D01*
X190Y1138D01*
Y1135D01*
Y1135D01*
Y1134D01*
Y1133D01*
Y1132D01*
X171D01*
Y1132D01*
Y1132D01*
Y1133D01*
X171Y1135D01*
Y1135D01*
Y1135D01*
Y1136D01*
Y1136D01*
Y1137D01*
Y1138D01*
X172Y1140D01*
Y1142D01*
X172Y1146D01*
X173Y1150D01*
X174Y1155D01*
X175Y1159D01*
X176Y1161D01*
X177Y1162D01*
X177Y1163D01*
X178Y1164D01*
X179Y1164D01*
X180Y1165D01*
X181Y1166D01*
X182Y1167D01*
X184Y1168D01*
X185Y1170D01*
X188Y1171D01*
X190Y1172D01*
X193Y1174D01*
X195Y1175D01*
X199Y1176D01*
X202Y1178D01*
X202D01*
X203Y1178D01*
X204Y1178D01*
X205Y1179D01*
X206Y1179D01*
X207Y1180D01*
X210Y1181D01*
X214Y1182D01*
X217Y1184D01*
X220Y1185D01*
X221Y1186D01*
X222Y1187D01*
X222Y1187D01*
X222Y1187D01*
X223Y1188D01*
X224Y1189D01*
X225Y1191D01*
X225Y1193D01*
X226Y1194D01*
X226Y1197D01*
X172D01*
Y1222D01*
X226D01*
Y1222D01*
X226Y1223D01*
X226Y1224D01*
X226Y1226D01*
X225Y1227D01*
X224Y1229D01*
X223Y1230D01*
X222Y1232D01*
X222Y1232D01*
X221Y1232D01*
X220Y1233D01*
X218Y1234D01*
X216Y1235D01*
X215Y1235D01*
X213Y1236D01*
X212Y1237D01*
X210Y1238D01*
X207Y1239D01*
X205Y1240D01*
X202Y1241D01*
X202D01*
X201Y1241D01*
X200Y1242D01*
X199Y1242D01*
X197Y1243D01*
X196Y1244D01*
X192Y1246D01*
X187Y1248D01*
X183Y1251D01*
X181Y1252D01*
X179Y1254D01*
X178Y1255D01*
X177Y1257D01*
Y1257D01*
X177Y1257D01*
X176Y1257D01*
X176Y1258D01*
X175Y1259D01*
X175Y1260D01*
X175Y1261D01*
X174Y1263D01*
X173Y1265D01*
X173Y1267D01*
X173Y1269D01*
X172Y1271D01*
X172Y1274D01*
X172Y1277D01*
X171Y1280D01*
Y1283D01*
Y1283D01*
Y1284D01*
Y1285D01*
X171Y1286D01*
Y1287D01*
X190D01*
Y1283D01*
Y1283D01*
Y1282D01*
X191Y1280D01*
Y1279D01*
X191Y1275D01*
X192Y1273D01*
X193Y1271D01*
Y1271D01*
X193Y1271D01*
X193Y1270D01*
X194Y1269D01*
X195Y1268D01*
X196Y1267D01*
X197Y1267D01*
X198Y1266D01*
X199Y1265D01*
X199Y1265D01*
X200Y1265D01*
X202Y1264D01*
X204Y1263D01*
X207Y1262D01*
X211Y1260D01*
X212Y1260D01*
X215Y1259D01*
X215Y1259D01*
X216Y1259D01*
X217Y1258D01*
X219Y1257D01*
X220Y1256D01*
X222Y1256D01*
X226Y1254D01*
X226Y1253D01*
X227Y1253D01*
X227Y1252D01*
X228Y1252D01*
X230Y1250D01*
X231Y1248D01*
X233Y1247D01*
X234Y1244D01*
Y1244D01*
X234Y1244D01*
X235Y1246D01*
X235Y1247D01*
X236Y1249D01*
X238Y1251D01*
X239Y1254D01*
X242Y1256D01*
X244Y1258D01*
X244Y1258D01*
X245Y1259D01*
X247Y1260D01*
X249Y1262D01*
X252Y1264D01*
X256Y1266D01*
X260Y1268D01*
X265Y1271D01*
X300Y1288D01*
Y1258D01*
D02*
G37*
G36*
X264Y3327D02*
X266Y3327D01*
X267Y3327D01*
X269Y3327D01*
X271Y3326D01*
X276Y3325D01*
X278Y3324D01*
X281Y3322D01*
X283Y3321D01*
X286Y3319D01*
X288Y3317D01*
X290Y3315D01*
X290Y3315D01*
X291Y3315D01*
X291Y3314D01*
X292Y3313D01*
X293Y3312D01*
X294Y3310D01*
X295Y3309D01*
X296Y3307D01*
X297Y3305D01*
X298Y3302D01*
X299Y3300D01*
X300Y3297D01*
X301Y3294D01*
X302Y3291D01*
X302Y3288D01*
X302Y3284D01*
Y3284D01*
Y3284D01*
Y3283D01*
X302Y3282D01*
X302Y3280D01*
X302Y3278D01*
X301Y3276D01*
X301Y3274D01*
X300Y3270D01*
X298Y3265D01*
X297Y3263D01*
X295Y3260D01*
X294Y3258D01*
X292Y3255D01*
X292Y3255D01*
X292Y3255D01*
X291Y3254D01*
X290Y3254D01*
X289Y3253D01*
X288Y3252D01*
X287Y3251D01*
X285Y3250D01*
X281Y3247D01*
X277Y3245D01*
X272Y3243D01*
X269Y3243D01*
X266Y3242D01*
X263Y3266D01*
X263D01*
X265Y3266D01*
X266Y3267D01*
X268Y3267D01*
X271Y3268D01*
X273Y3269D01*
X275Y3271D01*
X277Y3272D01*
X277Y3272D01*
X278Y3273D01*
X279Y3274D01*
X279Y3276D01*
X280Y3277D01*
X281Y3279D01*
X282Y3282D01*
X282Y3284D01*
Y3285D01*
X282Y3286D01*
X281Y3287D01*
X281Y3289D01*
X280Y3291D01*
X279Y3293D01*
X278Y3295D01*
X276Y3297D01*
X276Y3297D01*
X275Y3298D01*
X274Y3299D01*
X272Y3300D01*
X270Y3301D01*
X267Y3302D01*
X264Y3302D01*
X261Y3302D01*
X259D01*
X257Y3302D01*
X255Y3302D01*
X253Y3301D01*
X251Y3300D01*
X248Y3299D01*
X246Y3297D01*
X246Y3297D01*
X245Y3296D01*
X244Y3295D01*
X243Y3294D01*
X242Y3292D01*
X241Y3290D01*
X241Y3288D01*
X240Y3285D01*
Y3285D01*
Y3284D01*
Y3283D01*
X241Y3282D01*
X241Y3280D01*
X241Y3279D01*
X242Y3276D01*
X242Y3274D01*
X222Y3277D01*
Y3277D01*
Y3277D01*
Y3278D01*
Y3278D01*
X222Y3280D01*
X222Y3282D01*
X221Y3285D01*
X221Y3287D01*
X220Y3290D01*
X218Y3292D01*
X218Y3292D01*
X217Y3293D01*
X216Y3294D01*
X215Y3295D01*
X213Y3296D01*
X211Y3297D01*
X209Y3297D01*
X206Y3297D01*
X205D01*
X204Y3297D01*
X202Y3297D01*
X201Y3296D01*
X199Y3296D01*
X197Y3295D01*
X196Y3293D01*
X196Y3293D01*
X195Y3293D01*
X194Y3292D01*
X194Y3291D01*
X193Y3289D01*
X192Y3287D01*
X192Y3285D01*
X192Y3283D01*
Y3283D01*
Y3282D01*
X192Y3281D01*
X192Y3279D01*
X193Y3278D01*
X194Y3276D01*
X195Y3274D01*
X196Y3272D01*
X196Y3272D01*
X197Y3271D01*
X198Y3271D01*
X199Y3270D01*
X201Y3269D01*
X203Y3268D01*
X206Y3267D01*
X209Y3267D01*
X205Y3244D01*
X205D01*
X204Y3244D01*
X204D01*
X203Y3245D01*
X201Y3245D01*
X198Y3246D01*
X195Y3247D01*
X192Y3248D01*
X189Y3250D01*
X186Y3251D01*
X186Y3251D01*
X185Y3252D01*
X184Y3253D01*
X182Y3255D01*
X181Y3257D01*
X179Y3259D01*
X177Y3262D01*
X175Y3265D01*
Y3265D01*
X175Y3265D01*
X175Y3266D01*
X174Y3268D01*
X173Y3270D01*
X173Y3273D01*
X172Y3276D01*
X172Y3280D01*
X171Y3284D01*
Y3284D01*
Y3284D01*
Y3285D01*
X172Y3287D01*
X172Y3288D01*
X172Y3290D01*
X172Y3292D01*
X173Y3294D01*
X174Y3299D01*
X175Y3301D01*
X176Y3304D01*
X178Y3306D01*
X179Y3308D01*
X181Y3311D01*
X183Y3313D01*
X183Y3313D01*
X183Y3313D01*
X184Y3314D01*
X185Y3314D01*
X187Y3316D01*
X189Y3317D01*
X192Y3319D01*
X196Y3321D01*
X200Y3321D01*
X202Y3322D01*
X204Y3322D01*
X205D01*
X206Y3322D01*
X207D01*
X208Y3321D01*
X210Y3321D01*
X212Y3320D01*
X214Y3320D01*
X216Y3319D01*
X218Y3317D01*
X221Y3316D01*
X223Y3314D01*
X225Y3312D01*
X227Y3310D01*
X229Y3307D01*
X231Y3303D01*
Y3304D01*
X232Y3304D01*
Y3305D01*
X232Y3305D01*
X232Y3307D01*
X233Y3310D01*
X235Y3313D01*
X237Y3315D01*
X239Y3318D01*
X242Y3321D01*
X242Y3321D01*
X243Y3322D01*
X245Y3323D01*
X247Y3324D01*
X250Y3325D01*
X254Y3327D01*
X257Y3327D01*
X262Y3328D01*
X263D01*
X264Y3327D01*
D02*
G37*
G36*
X300Y1089D02*
X247D01*
Y1084D01*
Y1084D01*
Y1084D01*
Y1083D01*
Y1082D01*
X247Y1080D01*
X247Y1077D01*
X247Y1074D01*
X248Y1072D01*
X249Y1069D01*
X250Y1067D01*
X251Y1066D01*
X251Y1066D01*
X252Y1064D01*
X253Y1064D01*
X254Y1063D01*
X256Y1061D01*
X257Y1060D01*
X259Y1059D01*
X261Y1057D01*
X263Y1056D01*
X266Y1054D01*
X269Y1052D01*
X272Y1049D01*
X300Y1031D01*
Y1000D01*
X275Y1016D01*
X275Y1016D01*
X275Y1016D01*
X274Y1017D01*
X273Y1017D01*
X271Y1018D01*
X270Y1019D01*
X267Y1021D01*
X263Y1023D01*
X260Y1026D01*
X257Y1028D01*
X255Y1029D01*
X254Y1030D01*
X254Y1030D01*
X253Y1031D01*
X252Y1033D01*
X251Y1034D01*
X249Y1036D01*
X247Y1038D01*
X245Y1041D01*
X243Y1044D01*
Y1044D01*
X243Y1043D01*
X243Y1042D01*
X243Y1041D01*
X243Y1040D01*
X242Y1038D01*
X241Y1034D01*
X239Y1030D01*
X237Y1026D01*
X234Y1022D01*
X233Y1020D01*
X231Y1018D01*
X231D01*
X231Y1018D01*
X230Y1018D01*
X229Y1017D01*
X228Y1017D01*
X227Y1016D01*
X225Y1014D01*
X221Y1013D01*
X217Y1012D01*
X213Y1011D01*
X208Y1010D01*
X207D01*
X206Y1011D01*
X205D01*
X204Y1011D01*
X201Y1011D01*
X198Y1012D01*
X194Y1013D01*
X191Y1014D01*
X187Y1016D01*
X187D01*
X187Y1017D01*
X186Y1018D01*
X184Y1019D01*
X182Y1021D01*
X180Y1023D01*
X178Y1025D01*
X177Y1028D01*
X175Y1032D01*
Y1032D01*
X175Y1032D01*
X175Y1033D01*
X175Y1034D01*
X174Y1035D01*
X174Y1036D01*
X174Y1037D01*
X173Y1039D01*
X173Y1041D01*
X173Y1043D01*
X173Y1045D01*
X173Y1048D01*
X172Y1051D01*
X172Y1054D01*
X172Y1057D01*
Y1061D01*
Y1115D01*
X300D01*
Y1089D01*
D02*
G37*
G36*
X1089Y4615D02*
X852D01*
Y5353D01*
X1089D01*
Y4615D01*
D02*
G37*
G36*
X2242Y2876D02*
X2007D01*
Y3390D01*
X2242D01*
Y2876D01*
D02*
G37*
G36*
X1170Y162D02*
X933D01*
Y901D01*
X1170D01*
Y162D01*
D02*
G37*
G36*
X4883Y4180D02*
Y4217D01*
X4920D01*
X4883Y4180D01*
D02*
G37*
G36*
X264Y2534D02*
X266Y2534D01*
X267Y2534D01*
X269Y2534D01*
X271Y2533D01*
X276Y2531D01*
X278Y2531D01*
X281Y2529D01*
X283Y2528D01*
X286Y2526D01*
X288Y2524D01*
X290Y2522D01*
X290Y2522D01*
X291Y2522D01*
X291Y2521D01*
X292Y2520D01*
X293Y2519D01*
X294Y2517D01*
X295Y2516D01*
X296Y2514D01*
X297Y2512D01*
X298Y2509D01*
X299Y2507D01*
X300Y2504D01*
X301Y2501D01*
X302Y2498D01*
X302Y2495D01*
X302Y2491D01*
Y2491D01*
Y2491D01*
Y2490D01*
X302Y2488D01*
X302Y2487D01*
X302Y2485D01*
X301Y2483D01*
X301Y2481D01*
X300Y2477D01*
X298Y2472D01*
X297Y2469D01*
X295Y2467D01*
X294Y2465D01*
X292Y2462D01*
X292Y2462D01*
X292Y2462D01*
X291Y2461D01*
X290Y2461D01*
X289Y2460D01*
X288Y2459D01*
X287Y2458D01*
X285Y2457D01*
X281Y2454D01*
X277Y2452D01*
X272Y2450D01*
X269Y2450D01*
X266Y2449D01*
X263Y2473D01*
X263D01*
X265Y2473D01*
X266Y2474D01*
X268Y2474D01*
X271Y2475D01*
X273Y2476D01*
X275Y2477D01*
X277Y2479D01*
X277Y2479D01*
X278Y2480D01*
X279Y2481D01*
X279Y2483D01*
X280Y2484D01*
X281Y2486D01*
X282Y2489D01*
X282Y2491D01*
Y2492D01*
X282Y2492D01*
X281Y2494D01*
X281Y2496D01*
X280Y2498D01*
X279Y2500D01*
X278Y2502D01*
X276Y2504D01*
X276Y2504D01*
X275Y2505D01*
X274Y2506D01*
X272Y2507D01*
X270Y2508D01*
X267Y2509D01*
X264Y2509D01*
X261Y2509D01*
X259D01*
X257Y2509D01*
X255Y2509D01*
X253Y2508D01*
X251Y2507D01*
X248Y2506D01*
X246Y2504D01*
X246Y2504D01*
X245Y2503D01*
X244Y2502D01*
X243Y2501D01*
X242Y2499D01*
X241Y2497D01*
X241Y2495D01*
X240Y2492D01*
Y2492D01*
Y2491D01*
Y2490D01*
X241Y2489D01*
X241Y2487D01*
X241Y2485D01*
X242Y2483D01*
X242Y2481D01*
X222Y2484D01*
Y2484D01*
Y2484D01*
Y2484D01*
Y2485D01*
X222Y2487D01*
X222Y2489D01*
X221Y2492D01*
X221Y2494D01*
X220Y2497D01*
X218Y2499D01*
X218Y2499D01*
X217Y2500D01*
X216Y2501D01*
X215Y2502D01*
X213Y2503D01*
X211Y2504D01*
X209Y2504D01*
X206Y2504D01*
X205D01*
X204Y2504D01*
X202Y2504D01*
X201Y2503D01*
X199Y2503D01*
X197Y2502D01*
X196Y2500D01*
X196Y2500D01*
X195Y2500D01*
X194Y2499D01*
X194Y2498D01*
X193Y2496D01*
X192Y2494D01*
X192Y2492D01*
X192Y2490D01*
Y2490D01*
Y2489D01*
X192Y2488D01*
X192Y2486D01*
X193Y2485D01*
X194Y2483D01*
X195Y2481D01*
X196Y2479D01*
X196Y2479D01*
X197Y2478D01*
X198Y2478D01*
X199Y2477D01*
X201Y2476D01*
X203Y2475D01*
X206Y2474D01*
X209Y2474D01*
X205Y2451D01*
X205D01*
X204Y2451D01*
X204D01*
X203Y2452D01*
X201Y2452D01*
X198Y2453D01*
X195Y2454D01*
X192Y2455D01*
X189Y2457D01*
X186Y2458D01*
X186Y2458D01*
X185Y2459D01*
X184Y2460D01*
X182Y2462D01*
X181Y2464D01*
X179Y2466D01*
X177Y2469D01*
X175Y2472D01*
Y2472D01*
X175Y2472D01*
X175Y2473D01*
X174Y2475D01*
X173Y2477D01*
X173Y2480D01*
X172Y2483D01*
X172Y2487D01*
X171Y2491D01*
Y2491D01*
Y2491D01*
Y2492D01*
X172Y2494D01*
X172Y2495D01*
X172Y2497D01*
X172Y2499D01*
X173Y2501D01*
X174Y2506D01*
X175Y2508D01*
X176Y2511D01*
X178Y2513D01*
X179Y2515D01*
X181Y2518D01*
X183Y2520D01*
X183Y2520D01*
X183Y2520D01*
X184Y2520D01*
X185Y2521D01*
X187Y2523D01*
X189Y2524D01*
X192Y2526D01*
X196Y2527D01*
X200Y2528D01*
X202Y2529D01*
X204Y2529D01*
X205D01*
X206Y2529D01*
X207D01*
X208Y2528D01*
X210Y2528D01*
X212Y2527D01*
X214Y2527D01*
X216Y2526D01*
X218Y2524D01*
X221Y2523D01*
X223Y2521D01*
X225Y2519D01*
X227Y2516D01*
X229Y2514D01*
X231Y2510D01*
Y2511D01*
X232Y2511D01*
Y2512D01*
X232Y2512D01*
X232Y2514D01*
X233Y2517D01*
X235Y2519D01*
X237Y2522D01*
X239Y2525D01*
X242Y2528D01*
X242Y2528D01*
X243Y2529D01*
X245Y2530D01*
X247Y2531D01*
X250Y2532D01*
X254Y2534D01*
X257Y2534D01*
X262Y2535D01*
X263D01*
X264Y2534D01*
D02*
G37*
%LPC*%
G36*
X1150Y534D02*
X1113D01*
Y497D01*
X1150D01*
Y534D01*
D02*
G37*
G36*
X226Y1089D02*
X194D01*
Y1069D01*
Y1069D01*
Y1068D01*
Y1068D01*
Y1067D01*
Y1065D01*
Y1064D01*
Y1061D01*
X194Y1057D01*
X194Y1054D01*
X194Y1051D01*
Y1050D01*
X194Y1049D01*
Y1049D01*
X195Y1048D01*
X195Y1047D01*
X195Y1046D01*
X196Y1045D01*
X197Y1043D01*
X198Y1042D01*
X199Y1041D01*
X199Y1040D01*
X200Y1040D01*
X201Y1039D01*
X202Y1039D01*
X204Y1038D01*
X205Y1038D01*
X207Y1037D01*
X210Y1037D01*
X211D01*
X212Y1037D01*
X214Y1037D01*
X215Y1038D01*
X217Y1038D01*
X219Y1039D01*
X220Y1040D01*
X221Y1041D01*
X221Y1041D01*
X222Y1042D01*
X223Y1043D01*
X223Y1044D01*
X224Y1045D01*
X225Y1047D01*
X225Y1049D01*
Y1049D01*
X225Y1050D01*
X226Y1051D01*
Y1054D01*
X226Y1055D01*
Y1057D01*
X226Y1058D01*
Y1060D01*
X226Y1062D01*
Y1065D01*
Y1067D01*
Y1070D01*
Y1089D01*
D02*
G37*
G36*
X1072Y317D02*
X1038D01*
Y267D01*
X988D01*
Y233D01*
X1038D01*
Y183D01*
X1072D01*
Y233D01*
X1122D01*
Y267D01*
X1072D01*
Y317D01*
D02*
G37*
G36*
X1095Y466D02*
X1092D01*
X1086Y466D01*
X1080Y465D01*
X1075Y463D01*
X1071Y462D01*
X1067Y460D01*
X1065Y458D01*
X1063Y457D01*
X1063Y456D01*
X1058Y452D01*
X1055Y448D01*
X1052Y444D01*
X1050Y440D01*
X1048Y436D01*
X1047Y433D01*
X1047Y432D01*
Y431D01*
X1047Y430D01*
Y430D01*
X1044Y435D01*
X1041Y439D01*
X1037Y443D01*
X1034Y446D01*
X1031Y449D01*
X1027Y451D01*
X1024Y453D01*
X1021Y454D01*
X1018Y456D01*
X1015Y456D01*
X1012Y457D01*
X1010Y458D01*
X1009D01*
X1007Y458D01*
X1006D01*
X1003Y458D01*
X999Y457D01*
X993Y456D01*
X988Y454D01*
X983Y451D01*
X979Y448D01*
X977Y446D01*
X975Y445D01*
X975Y445D01*
X974Y444D01*
X974Y444D01*
X971Y441D01*
X968Y438D01*
X966Y434D01*
X964Y430D01*
X962Y427D01*
X961Y423D01*
X959Y416D01*
X958Y413D01*
X958Y410D01*
X957Y407D01*
X957Y405D01*
X957Y403D01*
Y402D01*
Y401D01*
Y400D01*
X957Y395D01*
X958Y389D01*
X959Y384D01*
X960Y380D01*
X961Y377D01*
X962Y374D01*
X962Y372D01*
X963Y372D01*
Y372D01*
X965Y367D01*
X968Y363D01*
X971Y360D01*
X973Y357D01*
X975Y355D01*
X977Y353D01*
X979Y352D01*
X979Y352D01*
X983Y349D01*
X988Y347D01*
X993Y345D01*
X997Y344D01*
X1001Y343D01*
X1004Y342D01*
X1005Y342D01*
X1006D01*
X1007Y341D01*
X1007D01*
X1013Y375D01*
X1008Y376D01*
X1005Y377D01*
X1001Y378D01*
X999Y380D01*
X997Y381D01*
X995Y382D01*
X994Y383D01*
X994Y383D01*
X991Y386D01*
X990Y389D01*
X989Y392D01*
X988Y394D01*
X987Y396D01*
X987Y398D01*
Y399D01*
Y400D01*
X987Y403D01*
X988Y406D01*
X989Y409D01*
X990Y411D01*
X991Y413D01*
X992Y414D01*
X993Y415D01*
X993Y415D01*
X995Y417D01*
X998Y418D01*
X1001Y420D01*
X1003Y420D01*
X1005Y421D01*
X1007Y421D01*
X1009D01*
X1013Y421D01*
X1016Y420D01*
X1019Y418D01*
X1022Y417D01*
X1024Y416D01*
X1026Y414D01*
X1027Y413D01*
X1027Y413D01*
X1029Y410D01*
X1031Y406D01*
X1032Y402D01*
X1033Y398D01*
X1033Y395D01*
X1033Y392D01*
Y391D01*
Y390D01*
Y390D01*
Y390D01*
X1063Y386D01*
X1062Y389D01*
X1061Y393D01*
X1061Y396D01*
X1061Y398D01*
X1060Y400D01*
Y402D01*
Y402D01*
Y403D01*
X1061Y407D01*
X1061Y410D01*
X1063Y413D01*
X1064Y416D01*
X1066Y418D01*
X1067Y420D01*
X1068Y421D01*
X1069Y421D01*
X1072Y424D01*
X1075Y426D01*
X1079Y427D01*
X1083Y428D01*
X1086Y428D01*
X1088Y429D01*
X1091D01*
X1096Y428D01*
X1100Y428D01*
X1104Y426D01*
X1108Y425D01*
X1110Y423D01*
X1112Y422D01*
X1113Y421D01*
X1114Y421D01*
X1117Y418D01*
X1119Y414D01*
X1120Y411D01*
X1121Y408D01*
X1122Y405D01*
X1122Y403D01*
X1122Y402D01*
Y401D01*
X1122Y398D01*
X1121Y394D01*
X1120Y391D01*
X1119Y388D01*
X1117Y386D01*
X1116Y385D01*
X1115Y384D01*
X1115Y383D01*
X1112Y381D01*
X1109Y379D01*
X1105Y377D01*
X1102Y376D01*
X1099Y375D01*
X1097Y374D01*
X1095Y374D01*
X1094D01*
X1099Y338D01*
X1103Y339D01*
X1107Y340D01*
X1115Y343D01*
X1122Y346D01*
X1127Y349D01*
X1130Y351D01*
X1132Y353D01*
X1134Y354D01*
X1135Y356D01*
X1137Y356D01*
X1137Y357D01*
X1138Y358D01*
X1138Y358D01*
X1141Y362D01*
X1143Y365D01*
X1145Y369D01*
X1147Y372D01*
X1149Y380D01*
X1151Y386D01*
X1152Y390D01*
X1152Y392D01*
X1152Y395D01*
X1153Y397D01*
X1153Y399D01*
Y400D01*
Y401D01*
Y402D01*
X1153Y407D01*
X1152Y412D01*
X1151Y416D01*
X1150Y420D01*
X1149Y425D01*
X1147Y428D01*
X1146Y432D01*
X1144Y435D01*
X1142Y438D01*
X1141Y440D01*
X1139Y443D01*
X1138Y444D01*
X1137Y446D01*
X1136Y447D01*
X1135Y448D01*
X1135Y448D01*
X1132Y451D01*
X1128Y454D01*
X1125Y456D01*
X1121Y459D01*
X1117Y460D01*
X1114Y462D01*
X1107Y464D01*
X1104Y465D01*
X1101Y466D01*
X1099Y466D01*
X1096Y466D01*
X1095Y466D01*
D02*
G37*
G36*
Y690D02*
X1092D01*
X1086Y690D01*
X1080Y689D01*
X1075Y687D01*
X1071Y685D01*
X1067Y683D01*
X1065Y682D01*
X1063Y681D01*
X1063Y680D01*
X1058Y676D01*
X1055Y672D01*
X1052Y668D01*
X1050Y663D01*
X1048Y660D01*
X1047Y657D01*
X1047Y656D01*
Y655D01*
X1047Y654D01*
Y654D01*
X1044Y659D01*
X1041Y663D01*
X1037Y667D01*
X1034Y670D01*
X1031Y673D01*
X1027Y675D01*
X1024Y677D01*
X1021Y678D01*
X1018Y679D01*
X1015Y680D01*
X1012Y681D01*
X1010Y681D01*
X1009D01*
X1007Y682D01*
X1006D01*
X1003Y681D01*
X999Y681D01*
X993Y680D01*
X988Y677D01*
X983Y675D01*
X979Y672D01*
X977Y670D01*
X975Y669D01*
X975Y669D01*
X974Y668D01*
X974Y668D01*
X971Y665D01*
X968Y661D01*
X966Y658D01*
X964Y654D01*
X962Y651D01*
X961Y647D01*
X959Y640D01*
X958Y637D01*
X958Y634D01*
X957Y631D01*
X957Y629D01*
X957Y627D01*
Y625D01*
Y625D01*
Y624D01*
X957Y619D01*
X958Y613D01*
X959Y608D01*
X960Y604D01*
X961Y601D01*
X962Y598D01*
X962Y596D01*
X963Y596D01*
Y596D01*
X965Y591D01*
X968Y587D01*
X971Y584D01*
X973Y581D01*
X975Y579D01*
X977Y577D01*
X979Y576D01*
X979Y576D01*
X983Y573D01*
X988Y571D01*
X993Y569D01*
X997Y568D01*
X1001Y567D01*
X1004Y566D01*
X1005Y565D01*
X1006D01*
X1007Y565D01*
X1007D01*
X1013Y599D01*
X1008Y600D01*
X1005Y601D01*
X1001Y602D01*
X999Y604D01*
X997Y605D01*
X995Y606D01*
X994Y607D01*
X994Y607D01*
X991Y610D01*
X990Y613D01*
X989Y615D01*
X988Y618D01*
X987Y620D01*
X987Y622D01*
Y623D01*
Y623D01*
X987Y627D01*
X988Y630D01*
X989Y633D01*
X990Y635D01*
X991Y637D01*
X992Y638D01*
X993Y639D01*
X993Y639D01*
X995Y641D01*
X998Y642D01*
X1001Y643D01*
X1003Y644D01*
X1005Y645D01*
X1007Y645D01*
X1009D01*
X1013Y645D01*
X1016Y644D01*
X1019Y642D01*
X1022Y641D01*
X1024Y639D01*
X1026Y638D01*
X1027Y637D01*
X1027Y637D01*
X1029Y634D01*
X1031Y630D01*
X1032Y626D01*
X1033Y622D01*
X1033Y619D01*
X1033Y616D01*
Y615D01*
Y614D01*
Y614D01*
Y614D01*
X1063Y610D01*
X1062Y613D01*
X1061Y617D01*
X1061Y619D01*
X1061Y622D01*
X1060Y624D01*
Y625D01*
Y626D01*
Y627D01*
X1061Y631D01*
X1061Y634D01*
X1063Y637D01*
X1064Y640D01*
X1066Y642D01*
X1067Y643D01*
X1068Y645D01*
X1069Y645D01*
X1072Y647D01*
X1075Y649D01*
X1079Y651D01*
X1083Y652D01*
X1086Y652D01*
X1088Y653D01*
X1091D01*
X1096Y652D01*
X1100Y651D01*
X1104Y650D01*
X1108Y649D01*
X1110Y647D01*
X1112Y646D01*
X1113Y645D01*
X1114Y645D01*
X1117Y641D01*
X1119Y638D01*
X1120Y635D01*
X1121Y632D01*
X1122Y629D01*
X1122Y627D01*
X1122Y626D01*
Y625D01*
X1122Y621D01*
X1121Y618D01*
X1120Y615D01*
X1119Y612D01*
X1117Y610D01*
X1116Y609D01*
X1115Y607D01*
X1115Y607D01*
X1112Y605D01*
X1109Y603D01*
X1105Y601D01*
X1102Y600D01*
X1099Y599D01*
X1097Y598D01*
X1095Y598D01*
X1094D01*
X1099Y562D01*
X1103Y563D01*
X1107Y564D01*
X1115Y567D01*
X1122Y570D01*
X1127Y573D01*
X1130Y575D01*
X1132Y577D01*
X1134Y578D01*
X1135Y579D01*
X1137Y580D01*
X1137Y581D01*
X1138Y582D01*
X1138Y582D01*
X1141Y585D01*
X1143Y589D01*
X1145Y593D01*
X1147Y596D01*
X1149Y603D01*
X1151Y610D01*
X1152Y613D01*
X1152Y616D01*
X1152Y619D01*
X1153Y621D01*
X1153Y623D01*
Y624D01*
Y625D01*
Y625D01*
X1153Y631D01*
X1152Y635D01*
X1151Y640D01*
X1150Y644D01*
X1149Y649D01*
X1147Y652D01*
X1146Y656D01*
X1144Y659D01*
X1142Y662D01*
X1141Y664D01*
X1139Y667D01*
X1138Y668D01*
X1137Y670D01*
X1136Y671D01*
X1135Y671D01*
X1135Y672D01*
X1132Y675D01*
X1128Y678D01*
X1125Y680D01*
X1121Y682D01*
X1117Y684D01*
X1114Y686D01*
X1107Y688D01*
X1104Y689D01*
X1101Y689D01*
X1099Y690D01*
X1096Y690D01*
X1095Y690D01*
D02*
G37*
G36*
X2160Y3183D02*
X2158D01*
X2153Y3183D01*
X2148Y3183D01*
X2143Y3182D01*
X2139Y3181D01*
X2135Y3179D01*
X2131Y3178D01*
X2127Y3177D01*
X2124Y3175D01*
X2121Y3173D01*
X2119Y3172D01*
X2117Y3170D01*
X2115Y3169D01*
X2114Y3168D01*
X2113Y3167D01*
X2112Y3167D01*
X2112Y3166D01*
X2109Y3163D01*
X2106Y3160D01*
X2104Y3156D01*
X2102Y3153D01*
X2100Y3149D01*
X2098Y3145D01*
X2096Y3139D01*
X2095Y3136D01*
X2095Y3133D01*
X2094Y3131D01*
X2094Y3129D01*
X2094Y3127D01*
Y3126D01*
Y3125D01*
Y3125D01*
X2094Y3120D01*
X2095Y3115D01*
X2096Y3111D01*
X2097Y3107D01*
X2098Y3104D01*
X2099Y3102D01*
X2100Y3100D01*
X2100Y3100D01*
Y3100D01*
X2067Y3105D01*
Y3175D01*
X2033D01*
Y3078D01*
X2133Y3059D01*
X2137Y3088D01*
X2135Y3091D01*
X2133Y3093D01*
X2131Y3096D01*
X2129Y3098D01*
X2127Y3103D01*
X2125Y3107D01*
X2124Y3111D01*
X2123Y3114D01*
X2123Y3115D01*
Y3116D01*
Y3116D01*
Y3117D01*
X2123Y3121D01*
X2125Y3125D01*
X2126Y3129D01*
X2127Y3132D01*
X2129Y3134D01*
X2131Y3136D01*
X2132Y3137D01*
X2132Y3137D01*
X2136Y3140D01*
X2140Y3142D01*
X2144Y3143D01*
X2149Y3145D01*
X2153Y3145D01*
X2156Y3145D01*
X2159D01*
X2165Y3145D01*
X2171Y3144D01*
X2176Y3143D01*
X2180Y3141D01*
X2183Y3140D01*
X2185Y3139D01*
X2186Y3138D01*
X2187Y3137D01*
X2190Y3134D01*
X2192Y3131D01*
X2194Y3128D01*
X2195Y3125D01*
X2195Y3122D01*
X2196Y3120D01*
X2196Y3118D01*
Y3118D01*
X2196Y3114D01*
X2195Y3111D01*
X2194Y3108D01*
X2192Y3105D01*
X2191Y3103D01*
X2190Y3102D01*
X2189Y3100D01*
X2189Y3100D01*
X2186Y3098D01*
X2183Y3096D01*
X2179Y3094D01*
X2176Y3093D01*
X2173Y3092D01*
X2171Y3091D01*
X2169Y3091D01*
X2169D01*
X2173Y3054D01*
X2177Y3055D01*
X2181Y3056D01*
X2189Y3059D01*
X2195Y3062D01*
X2201Y3065D01*
X2203Y3067D01*
X2205Y3069D01*
X2207Y3070D01*
X2209Y3072D01*
X2210Y3073D01*
X2211Y3073D01*
X2211Y3074D01*
X2211Y3074D01*
X2214Y3077D01*
X2216Y3081D01*
X2218Y3084D01*
X2219Y3088D01*
X2222Y3095D01*
X2224Y3102D01*
X2224Y3105D01*
X2225Y3108D01*
X2225Y3111D01*
X2225Y3113D01*
X2225Y3115D01*
Y3116D01*
Y3117D01*
Y3117D01*
X2225Y3123D01*
X2224Y3129D01*
X2223Y3135D01*
X2221Y3140D01*
X2220Y3144D01*
X2217Y3149D01*
X2215Y3153D01*
X2213Y3156D01*
X2211Y3159D01*
X2208Y3162D01*
X2206Y3164D01*
X2204Y3166D01*
X2203Y3167D01*
X2201Y3169D01*
X2201Y3169D01*
X2200Y3169D01*
X2197Y3172D01*
X2193Y3174D01*
X2189Y3176D01*
X2186Y3177D01*
X2179Y3180D01*
X2172Y3182D01*
X2169Y3182D01*
X2167Y3183D01*
X2164Y3183D01*
X2162D01*
X2160Y3183D01*
D02*
G37*
G36*
X2030Y3370D02*
Y3329D01*
X2172Y3282D01*
X2030Y3233D01*
Y3191D01*
X2222Y3260D01*
Y3302D01*
X2030Y3370D01*
D02*
G37*
G36*
X2145Y3031D02*
X2110D01*
Y2980D01*
X2061D01*
Y2947D01*
X2110D01*
Y2897D01*
X2145D01*
Y2947D01*
X2195D01*
Y2980D01*
X2145D01*
Y3031D01*
D02*
G37*
G36*
X958Y880D02*
Y839D01*
X1100Y792D01*
X958Y744D01*
Y702D01*
X1150Y770D01*
Y812D01*
X958Y880D01*
D02*
G37*
G36*
X241Y3201D02*
X231D01*
X229Y3201D01*
X224D01*
X220Y3201D01*
X214Y3200D01*
X212Y3200D01*
X210Y3200D01*
X208Y3199D01*
X206Y3199D01*
X206D01*
X206Y3199D01*
X205Y3198D01*
X203Y3198D01*
X201Y3197D01*
X200Y3196D01*
X198Y3195D01*
X196Y3194D01*
X195Y3193D01*
X194Y3193D01*
X194Y3193D01*
X194Y3192D01*
X193Y3191D01*
X193Y3190D01*
X192Y3188D01*
X192Y3187D01*
X192Y3185D01*
Y3185D01*
Y3185D01*
X192Y3184D01*
X192Y3183D01*
X193Y3181D01*
X193Y3180D01*
X194Y3179D01*
X195Y3177D01*
X195Y3177D01*
X195Y3177D01*
X196Y3176D01*
X197Y3175D01*
X198Y3174D01*
X200Y3174D01*
X202Y3173D01*
X205Y3172D01*
X205D01*
X205Y3172D01*
X206D01*
X207Y3172D01*
X208Y3171D01*
X209Y3171D01*
X211Y3171D01*
X212Y3171D01*
X215Y3170D01*
X217Y3170D01*
X220Y3170D01*
X222Y3170D01*
X226Y3170D01*
X229D01*
X233Y3169D01*
X242D01*
X244Y3170D01*
X249D01*
X254Y3170D01*
X259Y3170D01*
X262Y3171D01*
X264Y3171D01*
X266Y3171D01*
X268Y3172D01*
X268Y3172D01*
X269Y3172D01*
X271Y3173D01*
X272Y3173D01*
X274Y3174D01*
X276Y3175D01*
X278Y3176D01*
X279Y3177D01*
X279Y3177D01*
X279Y3178D01*
X280Y3179D01*
X280Y3180D01*
X281Y3181D01*
X281Y3182D01*
X282Y3184D01*
X282Y3185D01*
Y3185D01*
Y3186D01*
X282Y3187D01*
X281Y3188D01*
X281Y3190D01*
X280Y3192D01*
X279Y3193D01*
X279Y3193D01*
X279Y3194D01*
X278Y3194D01*
X277Y3195D01*
X275Y3196D01*
X274Y3197D01*
X271Y3198D01*
X269Y3198D01*
X269D01*
X268Y3199D01*
X268D01*
X267Y3199D01*
X266Y3199D01*
X265Y3199D01*
X263Y3200D01*
X261Y3200D01*
X259Y3200D01*
X257Y3200D01*
X254Y3201D01*
X251Y3201D01*
X248Y3201D01*
X245D01*
X241Y3201D01*
D02*
G37*
G36*
X1069Y4986D02*
X1032D01*
Y4949D01*
X1069D01*
Y4986D01*
D02*
G37*
G36*
X241Y2309D02*
X231D01*
X229Y2308D01*
X224D01*
X220Y2308D01*
X214Y2308D01*
X212Y2307D01*
X210Y2307D01*
X208Y2307D01*
X206Y2306D01*
X206D01*
X206Y2306D01*
X205Y2306D01*
X203Y2305D01*
X201Y2305D01*
X200Y2304D01*
X198Y2303D01*
X196Y2302D01*
X195Y2301D01*
X194Y2300D01*
X194Y2300D01*
X194Y2299D01*
X193Y2298D01*
X193Y2297D01*
X192Y2296D01*
X192Y2294D01*
X192Y2293D01*
Y2293D01*
Y2292D01*
X192Y2291D01*
X192Y2290D01*
X193Y2289D01*
X193Y2287D01*
X194Y2286D01*
X195Y2285D01*
X195Y2285D01*
X195Y2284D01*
X196Y2284D01*
X197Y2283D01*
X198Y2282D01*
X200Y2281D01*
X202Y2280D01*
X205Y2279D01*
X205D01*
X205Y2279D01*
X206D01*
X207Y2279D01*
X208Y2279D01*
X209Y2279D01*
X211Y2278D01*
X212Y2278D01*
X215Y2278D01*
X217Y2278D01*
X220Y2278D01*
X222Y2277D01*
X226Y2277D01*
X229D01*
X233Y2277D01*
X242D01*
X244Y2277D01*
X249D01*
X254Y2278D01*
X259Y2278D01*
X262Y2278D01*
X264Y2278D01*
X266Y2279D01*
X268Y2279D01*
X268Y2279D01*
X269Y2279D01*
X271Y2280D01*
X272Y2281D01*
X274Y2281D01*
X276Y2282D01*
X278Y2284D01*
X279Y2285D01*
X279Y2285D01*
X279Y2285D01*
X280Y2286D01*
X280Y2287D01*
X281Y2288D01*
X281Y2289D01*
X282Y2291D01*
X282Y2293D01*
Y2293D01*
Y2293D01*
X282Y2294D01*
X281Y2295D01*
X281Y2298D01*
X280Y2299D01*
X279Y2301D01*
X279Y2301D01*
X279Y2301D01*
X278Y2302D01*
X277Y2302D01*
X275Y2303D01*
X274Y2304D01*
X271Y2305D01*
X269Y2306D01*
X269D01*
X268Y2306D01*
X268D01*
X267Y2306D01*
X266Y2306D01*
X265Y2307D01*
X263Y2307D01*
X261Y2307D01*
X259Y2307D01*
X257Y2308D01*
X254Y2308D01*
X251Y2308D01*
X248Y2308D01*
X245D01*
X241Y2309D01*
D02*
G37*
G36*
X253Y2051D02*
X209D01*
X253Y2021D01*
Y2051D01*
D02*
G37*
G36*
X991Y4770D02*
X957D01*
Y4719D01*
X907D01*
Y4686D01*
X957D01*
Y4635D01*
X991D01*
Y4686D01*
X1041D01*
Y4719D01*
X991D01*
Y4770D01*
D02*
G37*
G36*
X1069Y4887D02*
X876D01*
Y4857D01*
X882Y4854D01*
X888Y4850D01*
X893Y4846D01*
X898Y4843D01*
X901Y4839D01*
X904Y4836D01*
X905Y4835D01*
X906Y4834D01*
X906Y4834D01*
X907Y4833D01*
X911Y4827D01*
X915Y4821D01*
X918Y4816D01*
X920Y4811D01*
X922Y4808D01*
X923Y4805D01*
X924Y4804D01*
X924Y4803D01*
X924Y4802D01*
Y4802D01*
X958D01*
X954Y4812D01*
X950Y4821D01*
X945Y4829D01*
X943Y4833D01*
X940Y4836D01*
X938Y4839D01*
X936Y4842D01*
X935Y4844D01*
X933Y4846D01*
X932Y4848D01*
X931Y4849D01*
X930Y4849D01*
X930Y4850D01*
X1069D01*
Y4887D01*
D02*
G37*
G36*
X1015Y5142D02*
X1012D01*
X1006Y5142D01*
X1001Y5141D01*
X996Y5140D01*
X992Y5138D01*
X989Y5136D01*
X986Y5135D01*
X984Y5134D01*
X984Y5134D01*
X980Y5130D01*
X976Y5126D01*
X972Y5122D01*
X970Y5118D01*
X968Y5115D01*
X966Y5112D01*
X966Y5111D01*
X965Y5110D01*
X965Y5110D01*
Y5109D01*
X963Y5114D01*
X960Y5118D01*
X958Y5121D01*
X955Y5124D01*
X953Y5126D01*
X951Y5128D01*
X950Y5128D01*
X949Y5129D01*
X945Y5131D01*
X941Y5133D01*
X937Y5134D01*
X933Y5135D01*
X930Y5136D01*
X928Y5136D01*
X925D01*
X921Y5136D01*
X918Y5135D01*
X911Y5134D01*
X905Y5131D01*
X900Y5128D01*
X895Y5125D01*
X894Y5124D01*
X893Y5123D01*
X891Y5122D01*
X891Y5121D01*
X890Y5121D01*
X890Y5120D01*
X887Y5118D01*
X885Y5114D01*
X883Y5111D01*
X882Y5108D01*
X879Y5100D01*
X877Y5094D01*
X877Y5090D01*
X877Y5088D01*
X876Y5085D01*
Y5083D01*
X876Y5081D01*
Y5079D01*
Y5078D01*
Y5078D01*
X876Y5073D01*
X876Y5068D01*
X877Y5064D01*
X878Y5060D01*
X879Y5056D01*
X880Y5052D01*
X881Y5049D01*
X883Y5046D01*
X884Y5044D01*
X885Y5042D01*
X887Y5040D01*
X888Y5038D01*
X889Y5037D01*
X889Y5036D01*
X890Y5036D01*
X890Y5035D01*
X893Y5033D01*
X895Y5031D01*
X899Y5029D01*
X901Y5027D01*
X907Y5024D01*
X913Y5023D01*
X918Y5021D01*
X920Y5021D01*
X922Y5021D01*
X923Y5021D01*
X925D01*
X930Y5021D01*
X934Y5021D01*
X938Y5023D01*
X942Y5024D01*
X944Y5025D01*
X946Y5026D01*
X948Y5027D01*
X948Y5027D01*
X952Y5030D01*
X956Y5033D01*
X958Y5036D01*
X961Y5040D01*
X962Y5043D01*
X964Y5045D01*
X965Y5047D01*
X965Y5047D01*
Y5048D01*
X968Y5042D01*
X971Y5037D01*
X974Y5033D01*
X978Y5029D01*
X981Y5027D01*
X983Y5025D01*
X985Y5024D01*
X985Y5023D01*
X985D01*
X990Y5021D01*
X995Y5019D01*
X1000Y5018D01*
X1004Y5017D01*
X1008Y5016D01*
X1011Y5016D01*
X1014D01*
X1019Y5016D01*
X1024Y5017D01*
X1029Y5018D01*
X1033Y5019D01*
X1037Y5021D01*
X1041Y5022D01*
X1044Y5024D01*
X1047Y5026D01*
X1050Y5028D01*
X1052Y5030D01*
X1054Y5031D01*
X1056Y5033D01*
X1057Y5034D01*
X1058Y5035D01*
X1058Y5036D01*
X1059Y5036D01*
X1061Y5040D01*
X1063Y5043D01*
X1067Y5050D01*
X1069Y5058D01*
X1071Y5064D01*
X1071Y5068D01*
X1072Y5071D01*
X1072Y5073D01*
Y5076D01*
X1072Y5077D01*
Y5079D01*
Y5080D01*
Y5080D01*
X1072Y5085D01*
X1072Y5090D01*
X1071Y5094D01*
X1070Y5099D01*
X1069Y5103D01*
X1067Y5106D01*
X1066Y5110D01*
X1064Y5113D01*
X1063Y5116D01*
X1061Y5118D01*
X1060Y5120D01*
X1058Y5122D01*
X1057Y5123D01*
X1056Y5124D01*
X1056Y5125D01*
X1056Y5125D01*
X1053Y5128D01*
X1049Y5131D01*
X1046Y5133D01*
X1042Y5135D01*
X1038Y5137D01*
X1035Y5138D01*
X1028Y5140D01*
X1025Y5141D01*
X1022Y5141D01*
X1019Y5142D01*
X1017Y5142D01*
X1015Y5142D01*
D02*
G37*
G36*
X877Y5333D02*
Y5291D01*
X1019Y5245D01*
X877Y5196D01*
Y5154D01*
X1069Y5223D01*
Y5265D01*
X877Y5333D01*
D02*
G37*
G36*
X261Y1863D02*
X260D01*
X258Y1863D01*
X256Y1863D01*
X254Y1862D01*
X251Y1861D01*
X249Y1860D01*
X247Y1858D01*
X247Y1858D01*
X246Y1857D01*
X245Y1856D01*
X244Y1854D01*
X243Y1853D01*
X242Y1850D01*
X241Y1848D01*
X241Y1845D01*
Y1845D01*
Y1845D01*
Y1844D01*
X242Y1842D01*
X242Y1840D01*
X243Y1838D01*
X244Y1836D01*
X245Y1834D01*
X247Y1832D01*
X248Y1832D01*
X249Y1831D01*
X250Y1830D01*
X251Y1830D01*
X254Y1829D01*
X256Y1828D01*
X259Y1828D01*
X261Y1827D01*
X263D01*
X265Y1828D01*
X267Y1828D01*
X270Y1829D01*
X272Y1829D01*
X275Y1831D01*
X277Y1833D01*
X277Y1833D01*
X278Y1833D01*
X279Y1835D01*
X280Y1836D01*
X281Y1838D01*
X282Y1840D01*
X282Y1843D01*
X283Y1845D01*
Y1846D01*
Y1847D01*
X282Y1848D01*
X282Y1850D01*
X281Y1852D01*
X280Y1854D01*
X279Y1856D01*
X277Y1858D01*
X277Y1858D01*
X276Y1859D01*
X275Y1860D01*
X273Y1861D01*
X271Y1861D01*
X268Y1862D01*
X265Y1863D01*
X261Y1863D01*
D02*
G37*
G36*
X241Y2408D02*
X231D01*
X229Y2408D01*
X224D01*
X220Y2407D01*
X214Y2407D01*
X212Y2407D01*
X210Y2406D01*
X208Y2406D01*
X206Y2406D01*
X206D01*
X206Y2406D01*
X205Y2405D01*
X203Y2405D01*
X201Y2404D01*
X200Y2403D01*
X198Y2402D01*
X196Y2401D01*
X195Y2400D01*
X194Y2400D01*
X194Y2399D01*
X194Y2399D01*
X193Y2398D01*
X193Y2397D01*
X192Y2395D01*
X192Y2394D01*
X192Y2392D01*
Y2392D01*
Y2391D01*
X192Y2391D01*
X192Y2390D01*
X193Y2388D01*
X193Y2387D01*
X194Y2386D01*
X195Y2384D01*
X195Y2384D01*
X195Y2384D01*
X196Y2383D01*
X197Y2382D01*
X198Y2381D01*
X200Y2381D01*
X202Y2380D01*
X205Y2379D01*
X205D01*
X205Y2379D01*
X206D01*
X207Y2379D01*
X208Y2378D01*
X209Y2378D01*
X211Y2378D01*
X212Y2378D01*
X215Y2377D01*
X217Y2377D01*
X220Y2377D01*
X222Y2377D01*
X226Y2377D01*
X229D01*
X233Y2376D01*
X242D01*
X244Y2377D01*
X249D01*
X254Y2377D01*
X259Y2377D01*
X262Y2378D01*
X264Y2378D01*
X266Y2378D01*
X268Y2379D01*
X268Y2379D01*
X269Y2379D01*
X271Y2379D01*
X272Y2380D01*
X274Y2381D01*
X276Y2382D01*
X278Y2383D01*
X279Y2384D01*
X279Y2384D01*
X279Y2385D01*
X280Y2386D01*
X280Y2387D01*
X281Y2388D01*
X281Y2389D01*
X282Y2391D01*
X282Y2392D01*
Y2392D01*
Y2393D01*
X282Y2394D01*
X281Y2395D01*
X281Y2397D01*
X280Y2399D01*
X279Y2400D01*
X279Y2400D01*
X279Y2401D01*
X278Y2401D01*
X277Y2402D01*
X275Y2403D01*
X274Y2404D01*
X271Y2405D01*
X269Y2405D01*
X269D01*
X268Y2406D01*
X268D01*
X267Y2406D01*
X266Y2406D01*
X265Y2406D01*
X263Y2406D01*
X261Y2407D01*
X259Y2407D01*
X257Y2407D01*
X254Y2407D01*
X251Y2408D01*
X248Y2408D01*
X245D01*
X241Y2408D01*
D02*
G37*
G36*
X206Y1860D02*
X205D01*
X204Y1860D01*
X202Y1860D01*
X200Y1859D01*
X198Y1859D01*
X197Y1857D01*
X195Y1856D01*
X195Y1856D01*
X194Y1855D01*
X194Y1854D01*
X193Y1853D01*
X192Y1852D01*
X191Y1850D01*
X191Y1848D01*
X191Y1845D01*
Y1845D01*
Y1844D01*
X191Y1843D01*
X191Y1841D01*
X192Y1839D01*
X193Y1837D01*
X194Y1836D01*
X195Y1834D01*
X195Y1834D01*
X196Y1833D01*
X197Y1833D01*
X198Y1832D01*
X200Y1831D01*
X202Y1830D01*
X204Y1830D01*
X206Y1830D01*
X207D01*
X209Y1830D01*
X210Y1830D01*
X212Y1831D01*
X214Y1831D01*
X216Y1832D01*
X218Y1834D01*
X218Y1834D01*
X218Y1834D01*
X219Y1835D01*
X220Y1837D01*
X220Y1838D01*
X221Y1840D01*
X222Y1842D01*
X222Y1845D01*
Y1845D01*
Y1846D01*
X222Y1847D01*
X221Y1849D01*
X221Y1851D01*
X220Y1852D01*
X219Y1854D01*
X218Y1856D01*
X218Y1856D01*
X217Y1857D01*
X216Y1857D01*
X215Y1858D01*
X213Y1859D01*
X211Y1860D01*
X209Y1860D01*
X206Y1860D01*
D02*
G37*
%LPD*%
G36*
X932Y5101D02*
X935Y5100D01*
X938Y5099D01*
X941Y5098D01*
X943Y5097D01*
X944Y5096D01*
X945Y5095D01*
X945Y5095D01*
X947Y5092D01*
X949Y5090D01*
X950Y5087D01*
X950Y5084D01*
X951Y5082D01*
X951Y5080D01*
Y5079D01*
Y5078D01*
X951Y5074D01*
X950Y5071D01*
X949Y5068D01*
X948Y5066D01*
X947Y5064D01*
X946Y5062D01*
X946Y5062D01*
X945Y5061D01*
X943Y5059D01*
X940Y5058D01*
X937Y5057D01*
X934Y5056D01*
X932Y5056D01*
X930Y5055D01*
X928D01*
X924Y5056D01*
X921Y5056D01*
X918Y5057D01*
X916Y5058D01*
X914Y5060D01*
X913Y5061D01*
X912Y5061D01*
X911Y5062D01*
X909Y5064D01*
X908Y5067D01*
X907Y5070D01*
X906Y5072D01*
X905Y5075D01*
X905Y5077D01*
Y5078D01*
Y5078D01*
X905Y5082D01*
X906Y5085D01*
X907Y5088D01*
X908Y5091D01*
X909Y5092D01*
X910Y5094D01*
X911Y5095D01*
X911Y5095D01*
X914Y5097D01*
X916Y5099D01*
X919Y5100D01*
X922Y5100D01*
X924Y5101D01*
X926Y5101D01*
X928D01*
X932Y5101D01*
D02*
G37*
G36*
X1016Y5105D02*
X1021Y5104D01*
X1025Y5103D01*
X1029Y5102D01*
X1031Y5100D01*
X1033Y5099D01*
X1034Y5098D01*
X1035Y5098D01*
X1037Y5095D01*
X1039Y5092D01*
X1041Y5089D01*
X1042Y5086D01*
X1042Y5083D01*
X1043Y5081D01*
Y5080D01*
Y5079D01*
X1042Y5075D01*
X1041Y5071D01*
X1040Y5068D01*
X1038Y5065D01*
X1037Y5063D01*
X1036Y5061D01*
X1034Y5060D01*
X1034Y5060D01*
X1031Y5057D01*
X1027Y5055D01*
X1023Y5054D01*
X1019Y5053D01*
X1016Y5052D01*
X1013Y5052D01*
X1010D01*
X1006Y5052D01*
X1002Y5053D01*
X999Y5054D01*
X996Y5055D01*
X993Y5056D01*
X992Y5057D01*
X990Y5058D01*
X990Y5058D01*
X987Y5061D01*
X984Y5064D01*
X983Y5068D01*
X982Y5071D01*
X981Y5074D01*
X980Y5076D01*
Y5078D01*
Y5078D01*
Y5078D01*
X981Y5083D01*
X982Y5086D01*
X983Y5090D01*
X984Y5092D01*
X986Y5095D01*
X987Y5096D01*
X988Y5098D01*
X989Y5098D01*
X992Y5100D01*
X996Y5102D01*
X999Y5104D01*
X1003Y5105D01*
X1006Y5105D01*
X1008Y5106D01*
X1011D01*
X1016Y5105D01*
D02*
G37*
D37*
X1275Y3740D02*
G03*
X1275Y3740I-5J0D01*
G01*
X1891Y270D02*
G03*
X1891Y270I-5J0D01*
G01*
X1239Y2707D02*
G03*
X1239Y2707I-5J0D01*
G01*
D39*
X3445Y5447D02*
G03*
X3445Y5447I-20J0D01*
G01*
X6682Y5378D02*
G03*
X6682Y5378I-10J0D01*
G01*
X3505Y5097D02*
X3575Y5027D01*
X3505Y5097D02*
X3575Y5167D01*
Y5337D01*
Y4827D02*
Y5027D01*
Y5007D02*
Y5027D01*
X3485Y5337D02*
X3575D01*
X3485D02*
X3485Y5337D01*
X3475D02*
X3485D01*
X3425D02*
X3475D01*
X2205D02*
X2775D01*
X2205Y4827D02*
Y5337D01*
Y4827D02*
X3575D01*
X2775Y5337D02*
X3425D01*
X6748Y3928D02*
Y5454D01*
X7611Y3928D02*
Y5454D01*
X6748D02*
X7611D01*
X6748Y3928D02*
X7611D01*
X5638Y4817D02*
Y4997D01*
X5567Y5067D02*
X5638Y4997D01*
X5567Y5067D02*
Y5067D01*
X5638Y5137D01*
Y5327D01*
X4846D02*
X5638D01*
X4846Y4819D02*
Y5327D01*
Y4819D02*
X4847Y4817D01*
X5638D01*
X7902Y1027D02*
X7876Y1052D01*
X7825D01*
X7800Y1027D01*
Y925D01*
X7825Y900D01*
X7876D01*
X7902Y925D01*
X7952Y900D02*
X8003D01*
X7978D01*
Y1052D01*
X7952Y1027D01*
X8181Y900D02*
X8079D01*
X8181Y1002D01*
Y1027D01*
X8155Y1052D01*
X8105D01*
X8079Y1027D01*
X2457Y914D02*
X2431Y889D01*
Y838D01*
X2457Y812D01*
X2558D01*
X2584Y838D01*
Y889D01*
X2558Y914D01*
X2431Y1066D02*
Y965D01*
X2508D01*
X2482Y1016D01*
Y1041D01*
X2508Y1066D01*
X2558D01*
X2584Y1041D01*
Y990D01*
X2558Y965D01*
X5750Y3602D02*
Y3450D01*
X5826D01*
X5852Y3475D01*
Y3577D01*
X5826Y3602D01*
X5750D01*
X5902D02*
Y3450D01*
X5979D01*
X6004Y3475D01*
Y3577D01*
X5979Y3602D01*
X5902D01*
X6156Y3450D02*
X6055D01*
X6156Y3552D01*
Y3577D01*
X6131Y3602D01*
X6080D01*
X6055Y3577D01*
X6100Y5252D02*
Y5100D01*
X6176D01*
X6202Y5125D01*
Y5227D01*
X6176Y5252D01*
X6100D01*
X6252Y5100D02*
X6303D01*
X6278D01*
Y5252D01*
X6252Y5227D01*
X7700Y3552D02*
Y3400D01*
X7776D01*
X7802Y3425D01*
Y3527D01*
X7776Y3552D01*
X7700D01*
X7852D02*
Y3400D01*
X7929D01*
X7954Y3425D01*
Y3527D01*
X7929Y3552D01*
X7852D01*
X8005Y3400D02*
X8055D01*
X8030D01*
Y3552D01*
X8005Y3527D01*
X6498Y3933D02*
Y3983D01*
Y3958D01*
X6650D01*
Y3933D01*
Y3983D01*
X6498Y4059D02*
X6650D01*
Y4136D01*
X6625Y4161D01*
X6523D01*
X6498Y4136D01*
Y4059D01*
X6650Y4212D02*
Y4263D01*
Y4237D01*
X6498D01*
X6523Y4212D01*
X5893Y4680D02*
X5740D01*
Y4756D01*
X5766Y4782D01*
X5817D01*
X5842Y4756D01*
Y4680D01*
X5740Y4832D02*
X5893D01*
Y4934D01*
X5740Y4985D02*
X5893D01*
Y5061D01*
X5867Y5086D01*
X5766D01*
X5740Y5061D01*
Y4985D01*
Y5137D02*
X5893D01*
X5842Y5188D01*
X5893Y5239D01*
X5740D01*
X5893Y5289D02*
Y5340D01*
Y5315D01*
X5740D01*
X5766Y5289D01*
X6447Y3570D02*
X6421Y3595D01*
X6371D01*
X6345Y3570D01*
Y3468D01*
X6371Y3443D01*
X6421D01*
X6447Y3468D01*
X6498Y3443D02*
X6548D01*
X6523D01*
Y3595D01*
X6498Y3570D01*
X6202Y2703D02*
X6176Y2729D01*
X6125D01*
X6100Y2703D01*
Y2602D01*
X6125Y2576D01*
X6176D01*
X6202Y2602D01*
X6354Y2576D02*
X6252D01*
X6354Y2678D01*
Y2703D01*
X6329Y2729D01*
X6278D01*
X6252Y2703D01*
X7902Y1527D02*
X7876Y1552D01*
X7825D01*
X7800Y1527D01*
Y1425D01*
X7825Y1400D01*
X7876D01*
X7902Y1425D01*
X7952Y1527D02*
X7978Y1552D01*
X8029D01*
X8054Y1527D01*
Y1502D01*
X8029Y1476D01*
X8003D01*
X8029D01*
X8054Y1451D01*
Y1425D01*
X8029Y1400D01*
X7978D01*
X7952Y1425D01*
X7902Y1277D02*
X7876Y1302D01*
X7825D01*
X7800Y1277D01*
Y1175D01*
X7825Y1150D01*
X7876D01*
X7902Y1175D01*
X8029Y1150D02*
Y1302D01*
X7952Y1226D01*
X8054D01*
X3700Y1617D02*
X3675Y1642D01*
X3624D01*
X3599Y1617D01*
Y1515D01*
X3624Y1490D01*
X3675D01*
X3700Y1515D01*
X3853Y1642D02*
X3802Y1617D01*
X3751Y1566D01*
Y1515D01*
X3776Y1490D01*
X3827D01*
X3853Y1515D01*
Y1541D01*
X3827Y1566D01*
X3751D01*
X3700Y1867D02*
X3675Y1892D01*
X3624D01*
X3599Y1867D01*
Y1765D01*
X3624Y1740D01*
X3675D01*
X3700Y1765D01*
X3751Y1892D02*
X3853D01*
Y1867D01*
X3751Y1765D01*
Y1740D01*
X1807Y2377D02*
X1781Y2351D01*
Y2300D01*
X1807Y2275D01*
X1908D01*
X1934Y2300D01*
Y2351D01*
X1908Y2377D01*
X1807Y2427D02*
X1781Y2453D01*
Y2504D01*
X1807Y2529D01*
X1832D01*
X1858Y2504D01*
X1883Y2529D01*
X1908D01*
X1934Y2504D01*
Y2453D01*
X1908Y2427D01*
X1883D01*
X1858Y2453D01*
X1832Y2427D01*
X1807D01*
X1858Y2453D02*
Y2504D01*
X2181Y914D02*
X2155Y889D01*
Y838D01*
X2181Y812D01*
X2282D01*
X2308Y838D01*
Y889D01*
X2282Y914D01*
Y965D02*
X2308Y990D01*
Y1041D01*
X2282Y1066D01*
X2181D01*
X2155Y1041D01*
Y990D01*
X2181Y965D01*
X2206D01*
X2231Y990D01*
Y1066D01*
X1852Y4077D02*
X1826Y4102D01*
X1775D01*
X1750Y4077D01*
Y3975D01*
X1775Y3950D01*
X1826D01*
X1852Y3975D01*
X1902Y3950D02*
X1953D01*
X1928D01*
Y4102D01*
X1902Y4077D01*
X2029D02*
X2055Y4102D01*
X2105D01*
X2131Y4077D01*
Y3975D01*
X2105Y3950D01*
X2055D01*
X2029Y3975D01*
Y4077D01*
X1002Y4427D02*
X976Y4452D01*
X925D01*
X900Y4427D01*
Y4325D01*
X925Y4300D01*
X976D01*
X1002Y4325D01*
X1052Y4300D02*
X1103D01*
X1078D01*
Y4452D01*
X1052Y4427D01*
X1179Y4300D02*
X1230D01*
X1205D01*
Y4452D01*
X1179Y4427D01*
X7052Y1277D02*
X7026Y1302D01*
X6975D01*
X6950Y1277D01*
Y1175D01*
X6975Y1150D01*
X7026D01*
X7052Y1175D01*
X7102Y1150D02*
X7153D01*
X7128D01*
Y1302D01*
X7102Y1277D01*
X7229D02*
X7255Y1302D01*
X7305D01*
X7331Y1277D01*
Y1252D01*
X7305Y1226D01*
X7280D01*
X7305D01*
X7331Y1201D01*
Y1175D01*
X7305Y1150D01*
X7255D01*
X7229Y1175D01*
X3816Y5042D02*
X3790Y5016D01*
Y4965D01*
X3816Y4940D01*
X3917D01*
X3943Y4965D01*
Y5016D01*
X3917Y5042D01*
X3943Y5092D02*
Y5143D01*
Y5118D01*
X3790D01*
X3816Y5092D01*
X3943Y5295D02*
X3790D01*
X3867Y5219D01*
Y5321D01*
X1911Y1446D02*
X2064D01*
Y1522D01*
X2038Y1548D01*
X1937D01*
X1911Y1522D01*
Y1446D01*
X2064Y1599D02*
X1962D01*
X1911Y1649D01*
X1962Y1700D01*
X2064D01*
X1988D01*
Y1599D01*
X2064Y1751D02*
Y1802D01*
Y1776D01*
X1911D01*
X1937Y1751D01*
X900Y3852D02*
Y3700D01*
X976D01*
X1002Y3725D01*
Y3827D01*
X976Y3852D01*
X900D01*
X1052Y3700D02*
Y3802D01*
X1103Y3852D01*
X1154Y3802D01*
Y3700D01*
Y3776D01*
X1052D01*
X1306Y3700D02*
X1205D01*
X1306Y3802D01*
Y3827D01*
X1281Y3852D01*
X1230D01*
X1205Y3827D01*
X1098Y1950D02*
X1250D01*
Y2026D01*
X1225Y2052D01*
X1123D01*
X1098Y2026D01*
Y1950D01*
X1123Y2204D02*
X1098Y2179D01*
Y2128D01*
X1123Y2102D01*
X1225D01*
X1250Y2128D01*
Y2179D01*
X1225Y2204D01*
X1250Y2255D02*
X1148Y2356D01*
X1098Y2407D02*
X1250D01*
Y2483D01*
X1225Y2509D01*
X1123D01*
X1098Y2483D01*
Y2407D01*
X1123Y2661D02*
X1098Y2636D01*
Y2585D01*
X1123Y2559D01*
X1225D01*
X1250Y2585D01*
Y2636D01*
X1225Y2661D01*
X1250Y2712D02*
Y2763D01*
Y2737D01*
X1098D01*
X1123Y2712D01*
X2832Y4092D02*
X2806Y4117D01*
X2755D01*
X2730Y4092D01*
Y3990D01*
X2755Y3965D01*
X2806D01*
X2832Y3990D01*
Y4041D01*
X2781D01*
X2882Y3965D02*
X2933D01*
X2908D01*
Y4117D01*
X2882Y4092D01*
X2832Y3296D02*
X2806Y3321D01*
X2755D01*
X2730Y3296D01*
Y3194D01*
X2755Y3169D01*
X2806D01*
X2832Y3194D01*
Y3245D01*
X2781D01*
X2984Y3169D02*
X2882D01*
X2984Y3270D01*
Y3296D01*
X2959Y3321D01*
X2908D01*
X2882Y3296D01*
X2730Y1387D02*
Y1235D01*
X2832D01*
X2882D02*
X2933D01*
X2908D01*
Y1387D01*
X2882Y1362D01*
X496Y3381D02*
Y3534D01*
X572D01*
X598Y3508D01*
Y3457D01*
X572Y3432D01*
X496D01*
X648Y3534D02*
Y3381D01*
X750D01*
X801Y3534D02*
Y3381D01*
X877D01*
X902Y3407D01*
Y3508D01*
X877Y3534D01*
X801D01*
X953Y3381D02*
X1004D01*
X978D01*
Y3534D01*
X953Y3508D01*
X1527Y5167D02*
Y5320D01*
X1604D01*
X1629Y5294D01*
Y5244D01*
X1604Y5218D01*
X1527D01*
X1680Y5320D02*
Y5167D01*
X1781D01*
X1832Y5320D02*
Y5167D01*
X1908D01*
X1934Y5193D01*
Y5294D01*
X1908Y5320D01*
X1832D01*
X2086Y5167D02*
X1985D01*
X2086Y5269D01*
Y5294D01*
X2061Y5320D01*
X2010D01*
X1985Y5294D01*
X6907Y3353D02*
Y3505D01*
X6984D01*
X7009Y3479D01*
Y3429D01*
X6984Y3403D01*
X6907D01*
X6958D02*
X7009Y3353D01*
X7060D02*
X7111D01*
X7085D01*
Y3505D01*
X7060Y3479D01*
X200Y4100D02*
Y4252D01*
X276D01*
X302Y4227D01*
Y4176D01*
X276Y4151D01*
X200D01*
X251D02*
X302Y4100D01*
X454D02*
X352D01*
X454Y4202D01*
Y4227D01*
X429Y4252D01*
X378D01*
X352Y4227D01*
X450Y4600D02*
Y4752D01*
X526D01*
X552Y4727D01*
Y4676D01*
X526Y4651D01*
X450D01*
X501D02*
X552Y4600D01*
X602Y4727D02*
X628Y4752D01*
X679D01*
X704Y4727D01*
Y4702D01*
X679Y4676D01*
X653D01*
X679D01*
X704Y4651D01*
Y4625D01*
X679Y4600D01*
X628D01*
X602Y4625D01*
X6000Y1250D02*
Y1402D01*
X6076D01*
X6102Y1377D01*
Y1326D01*
X6076Y1301D01*
X6000D01*
X6051D02*
X6102Y1250D01*
X6229D02*
Y1402D01*
X6152Y1326D01*
X6254D01*
X6000Y950D02*
Y1102D01*
X6076D01*
X6102Y1077D01*
Y1026D01*
X6076Y1001D01*
X6000D01*
X6051D02*
X6102Y950D01*
X6254Y1102D02*
X6152D01*
Y1026D01*
X6203Y1052D01*
X6229D01*
X6254Y1026D01*
Y975D01*
X6229Y950D01*
X6178D01*
X6152Y975D01*
X6000Y2100D02*
Y2252D01*
X6076D01*
X6102Y2227D01*
Y2176D01*
X6076Y2151D01*
X6000D01*
X6051D02*
X6102Y2100D01*
X6254Y2252D02*
X6203Y2227D01*
X6152Y2176D01*
Y2125D01*
X6178Y2100D01*
X6229D01*
X6254Y2125D01*
Y2151D01*
X6229Y2176D01*
X6152D01*
X6624Y2301D02*
Y2453D01*
X6700D01*
X6725Y2428D01*
Y2377D01*
X6700Y2352D01*
X6624D01*
X6674D02*
X6725Y2301D01*
X6776Y2453D02*
X6878D01*
Y2428D01*
X6776Y2326D01*
Y2301D01*
X3754Y4566D02*
Y4719D01*
X3830D01*
X3855Y4693D01*
Y4642D01*
X3830Y4617D01*
X3754D01*
X3805D02*
X3855Y4566D01*
X3906Y4693D02*
X3931Y4719D01*
X3982D01*
X4008Y4693D01*
Y4668D01*
X3982Y4642D01*
X4008Y4617D01*
Y4592D01*
X3982Y4566D01*
X3931D01*
X3906Y4592D01*
Y4617D01*
X3931Y4642D01*
X3906Y4668D01*
Y4693D01*
X3931Y4642D02*
X3982D01*
X3738Y4160D02*
Y4312D01*
X3814D01*
X3839Y4287D01*
Y4236D01*
X3814Y4211D01*
X3738D01*
X3788D02*
X3839Y4160D01*
X3890Y4185D02*
X3915Y4160D01*
X3966D01*
X3991Y4185D01*
Y4287D01*
X3966Y4312D01*
X3915D01*
X3890Y4287D01*
Y4262D01*
X3915Y4236D01*
X3991D01*
X3738Y3754D02*
Y3906D01*
X3814D01*
X3839Y3881D01*
Y3830D01*
X3814Y3805D01*
X3738D01*
X3788D02*
X3839Y3754D01*
X3890D02*
X3941D01*
X3915D01*
Y3906D01*
X3890Y3881D01*
X4017D02*
X4042Y3906D01*
X4093D01*
X4118Y3881D01*
Y3779D01*
X4093Y3754D01*
X4042D01*
X4017Y3779D01*
Y3881D01*
X3738Y3412D02*
Y3565D01*
X3814D01*
X3839Y3539D01*
Y3489D01*
X3814Y3463D01*
X3738D01*
X3788D02*
X3839Y3412D01*
X3890D02*
X3941D01*
X3915D01*
Y3565D01*
X3890Y3539D01*
X4017Y3412D02*
X4068D01*
X4042D01*
Y3565D01*
X4017Y3539D01*
X1200Y2981D02*
X1048D01*
Y3057D01*
X1073Y3083D01*
X1124D01*
X1149Y3057D01*
Y2981D01*
Y3032D02*
X1200Y3083D01*
Y3134D02*
Y3184D01*
Y3159D01*
X1048D01*
X1073Y3134D01*
X1200Y3362D02*
Y3261D01*
X1098Y3362D01*
X1073D01*
X1048Y3337D01*
Y3286D01*
X1073Y3261D01*
X2048Y812D02*
X1895D01*
Y889D01*
X1921Y914D01*
X1971D01*
X1997Y889D01*
Y812D01*
Y863D02*
X2048Y914D01*
Y965D02*
Y1016D01*
Y990D01*
X1895D01*
X1921Y965D01*
Y1092D02*
X1895Y1117D01*
Y1168D01*
X1921Y1193D01*
X1946D01*
X1971Y1168D01*
Y1143D01*
Y1168D01*
X1997Y1193D01*
X2022D01*
X2048Y1168D01*
Y1117D01*
X2022Y1092D01*
X2110Y4566D02*
Y4719D01*
X2186D01*
X2212Y4693D01*
Y4642D01*
X2186Y4617D01*
X2110D01*
X2161D02*
X2212Y4566D01*
X2262D02*
X2313D01*
X2288D01*
Y4719D01*
X2262Y4693D01*
X2465Y4566D02*
Y4719D01*
X2389Y4642D01*
X2491D01*
X1755Y4274D02*
Y4426D01*
X1831D01*
X1857Y4401D01*
Y4350D01*
X1831Y4325D01*
X1755D01*
X1806D02*
X1857Y4274D01*
X1907D02*
X1958D01*
X1933D01*
Y4426D01*
X1907Y4401D01*
X2136Y4426D02*
X2034D01*
Y4350D01*
X2085Y4375D01*
X2110D01*
X2136Y4350D01*
Y4299D01*
X2110Y4274D01*
X2060D01*
X2034Y4299D01*
X1755Y3705D02*
Y3857D01*
X1831D01*
X1857Y3832D01*
Y3781D01*
X1831Y3756D01*
X1755D01*
X1806D02*
X1857Y3705D01*
X1907D02*
X1958D01*
X1933D01*
Y3857D01*
X1907Y3832D01*
X2136Y3857D02*
X2085Y3832D01*
X2034Y3781D01*
Y3730D01*
X2060Y3705D01*
X2110D01*
X2136Y3730D01*
Y3756D01*
X2110Y3781D01*
X2034D01*
X1755Y3510D02*
Y3662D01*
X1831D01*
X1857Y3637D01*
Y3586D01*
X1831Y3561D01*
X1755D01*
X1806D02*
X1857Y3510D01*
X1907D02*
X1958D01*
X1933D01*
Y3662D01*
X1907Y3637D01*
X2034Y3662D02*
X2136D01*
Y3637D01*
X2034Y3535D01*
Y3510D01*
X1798Y2881D02*
X1899D01*
X1950Y2932D01*
X1899Y2983D01*
X1798D01*
Y3034D02*
X1950D01*
Y3110D01*
X1925Y3135D01*
X1823D01*
X1798Y3110D01*
Y3034D01*
X1823Y3288D02*
X1798Y3262D01*
Y3211D01*
X1823Y3186D01*
X1848D01*
X1874Y3211D01*
Y3262D01*
X1899Y3288D01*
X1925D01*
X1950Y3262D01*
Y3211D01*
X1925Y3186D01*
X1950Y3338D02*
Y3389D01*
Y3364D01*
X1798D01*
X1823Y3338D01*
X1268Y282D02*
Y181D01*
X1318Y130D01*
X1369Y181D01*
Y282D01*
X1420D02*
Y130D01*
X1496D01*
X1521Y155D01*
Y257D01*
X1496Y282D01*
X1420D01*
X1674Y257D02*
X1648Y282D01*
X1598D01*
X1572Y257D01*
Y232D01*
X1598Y206D01*
X1648D01*
X1674Y181D01*
Y155D01*
X1648Y130D01*
X1598D01*
X1572Y155D01*
X1826Y130D02*
X1725D01*
X1826Y232D01*
Y257D01*
X1801Y282D01*
X1750D01*
X1725Y257D01*
X6450Y502D02*
Y401D01*
X6501Y350D01*
X6552Y401D01*
Y502D01*
X6602D02*
X6704D01*
X6653D01*
Y350D01*
X6755D02*
X6805D01*
X6780D01*
Y502D01*
X6755Y477D01*
X6550Y1602D02*
Y1501D01*
X6601Y1450D01*
X6652Y1501D01*
Y1602D01*
X6702D02*
X6804D01*
X6753D01*
Y1450D01*
X6956D02*
X6855D01*
X6956Y1552D01*
Y1577D01*
X6931Y1602D01*
X6880D01*
X6855Y1577D01*
X7000Y402D02*
Y301D01*
X7051Y250D01*
X7102Y301D01*
Y402D01*
X7152D02*
X7254D01*
X7203D01*
Y250D01*
X7305Y377D02*
X7330Y402D01*
X7381D01*
X7406Y377D01*
Y352D01*
X7381Y326D01*
X7355D01*
X7381D01*
X7406Y301D01*
Y275D01*
X7381Y250D01*
X7330D01*
X7305Y275D01*
X6647Y3570D02*
X6749Y3417D01*
Y3570D02*
X6647Y3417D01*
X6800D02*
X6851D01*
X6825D01*
Y3570D01*
X6800Y3544D01*
X4245Y4420D02*
X4398Y4522D01*
X4245D02*
X4398Y4420D01*
Y4674D02*
Y4572D01*
X4296Y4674D01*
X4271D01*
X4245Y4649D01*
Y4598D01*
X4271Y4572D01*
X4043Y5042D02*
X4018Y5016D01*
Y4965D01*
X4043Y4940D01*
X4145D01*
X4170Y4965D01*
Y5016D01*
X4145Y5042D01*
X4170Y5092D02*
Y5143D01*
Y5118D01*
X4018D01*
X4043Y5092D01*
X4018Y5321D02*
Y5219D01*
X4094D01*
X4069Y5270D01*
Y5295D01*
X4094Y5321D01*
X4145D01*
X4170Y5295D01*
Y5245D01*
X4145Y5219D01*
X4817Y4473D02*
Y4321D01*
X4894D01*
X4919Y4346D01*
Y4448D01*
X4894Y4473D01*
X4817D01*
X5071D02*
X5021D01*
X5046D01*
Y4346D01*
X5021Y4321D01*
X4995D01*
X4970Y4346D01*
X5122Y4321D02*
X5173D01*
X5147D01*
Y4473D01*
X5122Y4448D01*
X7127Y2426D02*
Y2273D01*
X7203D01*
X7228Y2299D01*
Y2400D01*
X7203Y2426D01*
X7127D01*
X7279D02*
Y2273D01*
X7355D01*
X7381Y2299D01*
Y2400D01*
X7355Y2426D01*
X7279D01*
X7431Y2400D02*
X7457Y2426D01*
X7508D01*
X7533Y2400D01*
Y2375D01*
X7508Y2350D01*
X7482D01*
X7508D01*
X7533Y2324D01*
Y2299D01*
X7508Y2273D01*
X7457D01*
X7431Y2299D01*
D41*
X4433Y4900D02*
X4563D01*
X4433Y4755D02*
X4563D01*
X6672Y3027D02*
Y3158D01*
X6818Y3027D02*
Y3158D01*
X6296Y4462D02*
Y4962D01*
X6476Y4462D02*
Y4962D01*
X6296D02*
X6476D01*
X6296Y4462D02*
X6476D01*
X1835Y1661D02*
Y1791D01*
X1165D02*
X1835D01*
X1165Y1661D02*
Y1791D01*
X7022Y485D02*
X7093D01*
X7022D02*
Y565D01*
Y785D02*
X7093D01*
X7022Y705D02*
Y785D01*
X6739Y1701D02*
X6809D01*
X6739D02*
Y1781D01*
Y2001D02*
X6809D01*
X6739Y1921D02*
Y2001D01*
X6553Y580D02*
X6623D01*
X6553D02*
Y660D01*
Y880D02*
X6623D01*
X6553Y800D02*
Y880D01*
X2314Y3541D02*
X2334D01*
X2314Y3611D02*
X2334D01*
X2314Y3704D02*
X2334D01*
X2314Y3774D02*
X2334D01*
X2278Y4275D02*
Y4295D01*
X2208Y4275D02*
Y4295D01*
X2456Y4365D02*
Y4385D01*
X2386Y4365D02*
Y4385D01*
X4734Y5139D02*
Y5179D01*
X4614Y5139D02*
Y5179D01*
X4377Y5139D02*
Y5179D01*
X4257Y5139D02*
Y5179D01*
X7056Y1081D02*
X7096D01*
X7056Y961D02*
X7096D01*
X840Y4310D02*
Y4350D01*
X720Y4310D02*
Y4350D01*
X4079Y1850D02*
X4119D01*
X4079Y1730D02*
X4119D01*
X4079Y1600D02*
X4119D01*
X4079Y1480D02*
X4119D01*
X2579Y468D02*
Y507D01*
X2459Y468D02*
Y507D01*
X6535Y2580D02*
X6655D01*
X6535Y2760D02*
X6655D01*
X6535Y3061D02*
Y3181D01*
X6355Y3061D02*
Y3181D01*
X1718Y506D02*
Y616D01*
X1583Y506D02*
Y616D01*
X1418Y3096D02*
Y3206D01*
X1283Y3096D02*
Y3206D01*
X3447Y3553D02*
X3558D01*
X3447Y3417D02*
X3558D01*
X3447Y3903D02*
X3558D01*
X3447Y3767D02*
X3558D01*
X3447Y4303D02*
X3558D01*
X3447Y4167D02*
X3558D01*
X3447Y4703D02*
X3558D01*
X3447Y4567D02*
X3558D01*
X6736Y2239D02*
X6846D01*
X6736Y2104D02*
X6846D01*
X605Y4284D02*
Y4394D01*
X470Y4284D02*
Y4394D01*
X355Y3794D02*
Y3904D01*
X220Y3794D02*
Y3904D01*
X6507Y1102D02*
X6638D01*
X6507Y948D02*
X6638D01*
X6911Y3004D02*
Y3134D01*
X7066Y3004D02*
Y3134D01*
X3210Y494D02*
X4070D01*
X3210Y1034D02*
X4070D01*
X4883Y3517D02*
X5583D01*
X4883Y4217D02*
X5583D01*
Y3517D02*
Y4217D01*
X4883Y3517D02*
Y4217D01*
Y4180D02*
X4920Y4217D01*
X8004Y2769D02*
Y3094D01*
X7214Y2769D02*
Y3094D01*
X8004D01*
X7214Y2769D02*
X8004D01*
X1277Y536D02*
Y666D01*
X1422Y536D02*
Y666D01*
X1723Y3046D02*
Y3176D01*
X1578Y3046D02*
Y3176D01*
X1301Y3996D02*
Y4016D01*
X1691Y3996D02*
Y4016D01*
X1917Y526D02*
Y546D01*
X2308Y526D02*
Y546D01*
X1490Y2676D02*
X1510D01*
X1490Y2286D02*
X1510D01*
X2723Y3907D02*
X3058D01*
X2723Y3387D02*
X3058D01*
X2723D02*
Y3907D01*
X3058Y3387D02*
Y3907D01*
X2731Y4696D02*
X3066D01*
X2731Y4176D02*
X3066D01*
X2731D02*
Y4696D01*
X3066Y4176D02*
Y4696D01*
X6507Y1224D02*
X6638D01*
X6507Y1379D02*
X6638D01*
X7935Y1766D02*
X7975D01*
X7935Y1646D02*
X7975D01*
X7945Y1897D02*
X7985D01*
X7945Y2017D02*
X7985D01*
X7945Y2147D02*
X7985D01*
X7945Y2267D02*
X7985D01*
X7094Y1694D02*
Y2014D01*
X7594Y1694D02*
Y2014D01*
X7094Y1694D02*
X7594D01*
X7094Y2014D02*
X7594D01*
X6356Y1944D02*
Y2074D01*
X6511Y1944D02*
Y2074D01*
X5714Y2879D02*
Y3199D01*
X6214Y2879D02*
Y3199D01*
X5714Y2879D02*
X6214D01*
X5714Y3199D02*
X6214D01*
X632Y3734D02*
X682D01*
X632Y4034D02*
X682D01*
Y3734D02*
Y4034D01*
X632Y3734D02*
Y4034D01*
D49*
X6159Y4988D02*
G03*
X6159Y4988I-12J0D01*
G01*
X1861Y2056D02*
G03*
X1861Y2056I-12J0D01*
G01*
X7218Y455D02*
G03*
X7218Y455I-12J0D01*
G01*
X6934Y1671D02*
G03*
X6934Y1671I-12J0D01*
G01*
X6748Y550D02*
G03*
X6748Y550I-12J0D01*
G01*
X4830Y4203D02*
G03*
X4830Y4203I-12J0D01*
G01*
X7189Y2644D02*
G03*
X7189Y2644I-12J0D01*
G01*
X3178Y3374D02*
G03*
X3178Y3374I-12J0D01*
G01*
X3186Y4162D02*
G03*
X3186Y4162I-12J0D01*
G01*
X7632Y2131D02*
G03*
X7632Y2131I-12J0D01*
G01*
X6252Y3316D02*
G03*
X6252Y3316I-12J0D01*
G01*
X5493Y5377D02*
G03*
X5493Y5377I-12J0D01*
G01*
X790Y3704D02*
G03*
X790Y3704I-12J0D01*
G01*
X609Y3004D02*
G03*
X609Y3004I-12J0D01*
G01*
D50*
X7344Y2869D02*
G03*
X7344Y2869I-30J0D01*
G01*
X2988Y3487D02*
G03*
X2988Y3487I-30J0D01*
G01*
X2996Y4276D02*
G03*
X2996Y4276I-30J0D01*
G01*
X7524Y1914D02*
G03*
X7524Y1914I-30J0D01*
G01*
X6144Y3099D02*
G03*
X6144Y3099I-30J0D01*
G01*
D51*
X1010Y981D02*
Y2931D01*
X410Y981D02*
X1010D01*
X410Y2931D02*
X1010D01*
X410Y981D02*
Y2931D01*
X469Y3054D02*
X977D01*
Y3308D01*
X469D02*
X977D01*
X469Y3054D02*
Y3308D01*
M02*
