G04 Layer_Physical_Order=4*
G04 Layer_Color=16711680*
%FSLAX42Y42*%
%MOMM*%
G71*
G01*
G75*
%ADD11C,0.30*%
G04:AMPARAMS|DCode=12|XSize=2mm|YSize=1.52mm|CornerRadius=0.61mm|HoleSize=0mm|Usage=FLASHONLY|Rotation=90.000|XOffset=0mm|YOffset=0mm|HoleType=Round|Shape=RoundedRectangle|*
%AMROUNDEDRECTD12*
21,1,2.00,0.30,0,0,90.0*
21,1,0.78,1.52,0,0,90.0*
1,1,1.22,0.15,0.39*
1,1,1.22,0.15,-0.39*
1,1,1.22,-0.15,-0.39*
1,1,1.22,-0.15,0.39*
%
%ADD12ROUNDEDRECTD12*%
%ADD13C,3.00*%
%ADD14C,1.30*%
%ADD15R,1.30X1.30*%
%ADD16C,0.60*%
%ADD17C,0.70*%
%ADD18R,1.40X0.90*%
D11*
X22362Y1989D02*
Y3261D01*
X22097Y3525D02*
X22362Y3261D01*
X22286Y2118D02*
Y3007D01*
X22260Y3032D02*
X22286Y3007D01*
X22220Y2616D02*
Y2837D01*
X22171Y2885D02*
X22220Y2837D01*
X21734Y3032D02*
X22260D01*
X20266Y2885D02*
X22171D01*
X6931Y1458D02*
X7198Y1724D01*
X2905Y1458D02*
X6931D01*
X3305Y1971D02*
X3457Y1819D01*
Y1585D02*
Y1819D01*
X3393Y1521D02*
X3457Y1585D01*
X3266Y1521D02*
X3393D01*
X3119Y1669D02*
X3266Y1521D01*
X5153Y1799D02*
X5365D01*
X5024Y1928D02*
X5153Y1799D01*
X5024Y1928D02*
Y2230D01*
X5481Y1839D02*
X5572Y1930D01*
X5481Y1729D02*
Y1839D01*
X5466Y1714D02*
X5481Y1729D01*
X5466Y1669D02*
Y1714D01*
X5365Y1669D02*
X5466D01*
X6474Y1724D02*
X6690Y1940D01*
X4740Y1579D02*
X5083D01*
X4340Y1978D02*
X4740Y1579D01*
X957Y1845D02*
X1078Y1724D01*
X957Y1845D02*
Y3021D01*
X895Y3084D02*
X957Y3021D01*
X895Y3084D02*
Y3494D01*
X1078Y3678D01*
X19420Y11592D02*
X19547Y11465D01*
X19649Y11364D02*
Y11567D01*
Y11569D01*
X19547Y11465D02*
X19649Y11567D01*
Y11569D02*
X19695Y11615D01*
X20344Y12479D02*
X20489Y12334D01*
X20607D01*
X19767Y12479D02*
X20344D01*
X18933Y12151D02*
X19055Y12029D01*
X18831Y12253D02*
X18933Y12151D01*
X18857Y12075D02*
X18933Y12151D01*
X19055Y12029D02*
X19283D01*
X19288Y12024D01*
X19319Y11949D02*
X19342Y11971D01*
X19005Y11949D02*
X19319D01*
X19342Y11971D02*
X19767D01*
X16774Y12202D02*
X17042D01*
X17172Y12332D01*
X17307Y11385D02*
X17348Y11425D01*
X17286Y11364D02*
X17307Y11385D01*
X17063Y11295D02*
X17416D01*
X16995Y11364D02*
X17063Y11295D01*
X17979Y11606D02*
X18069Y11516D01*
X17838Y11606D02*
X17979D01*
X17806Y11100D02*
X17857D01*
X17532Y10943D02*
X17648D01*
X18144Y11547D02*
X18145Y11546D01*
Y11389D02*
Y11546D01*
X17857Y11100D02*
X18145Y11389D01*
X17648Y10943D02*
X17806Y11100D01*
X12262Y11135D02*
X12454Y10943D01*
X12020Y11203D02*
X12067Y11157D01*
X12151Y11135D02*
X12262D01*
X12129Y11157D02*
X12151Y11135D01*
X12067Y11157D02*
X12129D01*
X11928Y11332D02*
X12020Y11240D01*
X11922Y11338D02*
X11928Y11332D01*
X12162D01*
X12178Y11316D01*
X12297D02*
X12370Y11390D01*
X12297Y11316D02*
X12297D01*
X12178D02*
X12297D01*
X12297D02*
X12303Y11323D01*
X12020Y11203D02*
Y11240D01*
X12100Y11237D02*
Y11247D01*
X12126Y11272D01*
X4912Y11338D02*
X4950Y11300D01*
X4916Y11824D02*
X5079D01*
X4761Y11668D02*
X4916Y11824D01*
X5280Y12508D02*
X5340Y12568D01*
X5191Y12448D02*
X5251Y12508D01*
X5280D01*
X5191Y12380D02*
Y12448D01*
X5222Y12305D02*
X5285Y12367D01*
X4607Y11984D02*
X5005D01*
X4249Y12380D02*
Y12412D01*
X4036Y12405D02*
Y12448D01*
X4156Y12505D02*
X4249Y12412D01*
X4036Y12448D02*
X4093Y12505D01*
X4156D01*
X4249Y12380D02*
X4274Y12354D01*
X3807Y12176D02*
X4036Y12405D01*
X1937Y13980D02*
X2193Y13724D01*
X2309Y13564D02*
X3130D01*
X2193Y13724D02*
X2219D01*
X10817Y13834D02*
Y13878D01*
X10906Y13938D02*
X10941Y13903D01*
X10897Y13938D02*
X10906D01*
X10795Y14041D02*
X10897Y13938D01*
X10608Y13624D02*
X10817Y13834D01*
X12499Y14245D02*
X12582D01*
X11851Y14086D02*
X12303D01*
X12341Y14087D02*
X12499Y14245D01*
X11891Y14087D02*
X12341D01*
X12555Y14097D02*
Y14115D01*
X12202Y13947D02*
X12405D01*
X17822Y14206D02*
X17893Y14277D01*
X17822Y14206D02*
Y14206D01*
X17785Y14132D02*
X17790D01*
X17621Y14295D02*
X17785Y14132D01*
X17675Y13787D02*
X17711Y13751D01*
X17507Y13787D02*
X17675D01*
X16682Y13929D02*
X17365D01*
X16647Y13894D02*
X16682Y13929D01*
X16595Y13894D02*
X16647D01*
X16667Y13914D02*
X17380D01*
X16647Y13894D02*
X16667Y13914D01*
X16595Y13894D02*
X16647D01*
X16546D02*
X16595D01*
X16546D02*
X16595D01*
X16526Y13914D02*
X16546Y13894D01*
X16479Y13914D02*
X16526D01*
X16511Y13929D02*
X16546Y13894D01*
X16444Y13929D02*
X16511D01*
X16348Y13626D02*
X16979Y12994D01*
X17693Y13243D02*
Y13586D01*
X17622Y13657D02*
X17693Y13586D01*
X17957Y13624D02*
X18069Y13736D01*
X17838Y13624D02*
X17957D01*
X17711Y13751D02*
X17838Y13624D01*
X17507Y13657D02*
X17622D01*
X17416Y11829D02*
X17478D01*
X17228Y11640D02*
X17416Y11829D01*
X17417Y11889D02*
Y12311D01*
Y11889D02*
X17478Y11829D01*
X19708Y14132D02*
X19826D01*
X19888Y14343D02*
X19890Y14345D01*
X19888Y14194D02*
Y14343D01*
X19826Y14132D02*
X19888Y14194D01*
X19706Y14133D02*
X19708Y14132D01*
X19657Y14133D02*
X19706D01*
X19707Y13992D02*
X19856D01*
X19890Y14345D02*
Y14528D01*
X19856Y13992D02*
X20055Y14192D01*
X19585Y14061D02*
X19657Y14133D01*
X19585Y14040D02*
Y14061D01*
X20110Y14235D02*
X20170Y14295D01*
X20082Y14235D02*
X20110D01*
X20055Y14209D02*
X20082Y14235D01*
X20055Y14192D02*
Y14209D01*
X18069Y13751D02*
X18069Y13751D01*
X17970Y14546D02*
X18044D01*
X17937Y14580D02*
X17970Y14546D01*
X17611Y14778D02*
X17810Y14580D01*
X17507Y14778D02*
X17611D01*
X17810Y14580D02*
X17937D01*
X17251Y14640D02*
Y14856D01*
Y14323D02*
Y14640D01*
X17259Y14648D01*
X17251Y14323D02*
X17409Y14165D01*
X12354Y13319D02*
X12420Y13254D01*
X12340Y13319D02*
X12354D01*
X12296Y13363D02*
X12340Y13319D01*
X12158Y13363D02*
X12296D01*
X11880Y13642D02*
X12158Y13363D01*
X12170Y13561D02*
X12313D01*
X12115Y13615D02*
X12170Y13561D01*
X12115Y13615D02*
Y13860D01*
X12420Y13254D02*
X12554D01*
X12693D02*
X12855Y13416D01*
X12554Y13254D02*
X12693D01*
X11880Y13642D02*
Y13873D01*
X10572Y13484D02*
X10941Y13853D01*
X10544Y13484D02*
X10572D01*
X10941Y13853D02*
Y13903D01*
X2102Y16307D02*
X2772D01*
X1868Y16073D02*
X2102Y16307D01*
X2778Y16300D02*
X2827D01*
X2772Y16307D02*
X2778Y16300D01*
X3952Y17429D02*
X4074Y17307D01*
Y16571D02*
Y17307D01*
X6491Y16073D02*
Y16323D01*
X6131Y16683D02*
X6491Y16323D01*
X6102Y16683D02*
X6131D01*
X6370Y15977D02*
Y16285D01*
X5716Y17089D02*
X6487D01*
X5712D02*
X5716D01*
X5712Y17092D02*
X5716Y17089D01*
X20110Y16598D02*
X20170Y16658D01*
X20082Y16598D02*
X20110D01*
X20055Y16571D02*
X20082Y16598D01*
X20313Y16528D02*
X20847Y15994D01*
X20355Y16571D02*
X20802Y16124D01*
X20355Y16571D02*
Y16654D01*
X20203Y16807D02*
X20355Y16654D01*
X20142Y16658D02*
X20170D01*
X19268Y17396D02*
X19281Y17409D01*
X19492D01*
X18564Y17879D02*
X18932Y17512D01*
X19542Y17587D02*
X19568Y17612D01*
Y17696D01*
X19316Y18552D02*
X19908D01*
X19312Y18556D02*
X19316Y18552D01*
X19246Y18556D02*
X19312D01*
X19242Y18552D02*
X19246Y18556D01*
X19100Y18552D02*
X19242D01*
X19259Y18632D02*
X19264Y18628D01*
X19791D01*
X19413Y18476D02*
X20063Y17826D01*
X18787Y18800D02*
X19282D01*
X19014Y18638D02*
X19100Y18552D01*
X4480Y14640D02*
X4480Y14640D01*
X3895Y14640D02*
X4480D01*
X3794Y14539D02*
X3895Y14640D01*
X1635Y14539D02*
X3794D01*
X5186Y13305D02*
X5365D01*
X4835Y13583D02*
X4938Y13479D01*
X5012D02*
X5186Y13305D01*
X4835Y13583D02*
Y13600D01*
X4938Y13479D02*
X5012D01*
X5274Y13524D02*
X5321Y13571D01*
X4902Y13642D02*
X4928Y13616D01*
X5084Y13524D02*
X5274D01*
X4928Y13574D02*
Y13616D01*
X5069Y13539D02*
X5084Y13524D01*
X4963Y13539D02*
X5069D01*
X4928Y13574D02*
X4963Y13539D01*
X5020Y13263D02*
X5023D01*
X5024Y13263D01*
X20437Y15405D02*
X22141D01*
X20437D02*
X20719Y15123D01*
X20330Y15512D02*
X20437Y15405D01*
X20050Y15969D02*
X20137D01*
X17462Y18761D02*
Y18780D01*
X17242Y18306D02*
X17264D01*
X19268Y16812D02*
Y17396D01*
X19169Y14709D02*
X19870Y15410D01*
X19880D02*
X19982Y15512D01*
X19870Y15410D02*
X19880D01*
X19060D02*
X19870D01*
X20548Y12943D02*
X20741Y12750D01*
X20342Y13149D02*
X20548Y12943D01*
X22076Y12269D02*
X22208D01*
X20287Y10914D02*
X20352D01*
X20883Y10810D02*
X21231D01*
X19649Y11364D02*
X19695Y11318D01*
X17599Y13149D02*
X17688D01*
X17853Y10813D02*
X18016Y10650D01*
X17980Y10020D02*
X19164D01*
X17770D02*
X17980D01*
X17507Y10127D02*
X17663D01*
X16920Y18377D02*
X17057Y18239D01*
X16692Y16020D02*
X16694D01*
X16615D02*
X16692D01*
X12110Y15245D02*
X12377Y15512D01*
X11610Y14744D02*
X12110Y15245D01*
X12438Y14673D02*
X12554D01*
X12390D02*
X12438D01*
X12352Y13124D02*
X12438D01*
X12539Y10744D02*
X12555Y10760D01*
X12521Y10726D02*
X12539Y10744D01*
X10627Y14625D02*
X10853D01*
X11546Y12319D02*
X11745D01*
X10261D02*
X11546D01*
X10297Y13632D02*
X10396D01*
X10217D02*
X10297D01*
X22052Y7050D02*
X22185D01*
X20076Y7604D02*
X20203D01*
X20403Y5979D02*
X21532D01*
X20170Y8679D02*
X20170D01*
X20020D02*
X20170D01*
X17437Y8107D02*
X19448D01*
X20020Y8679D01*
X19169Y7828D02*
X19448Y8107D01*
X21073Y3693D02*
X21734Y3032D01*
X20873Y1579D02*
X21422Y2127D01*
X20254Y3032D02*
X21734D01*
X12669Y8529D02*
X12717Y8481D01*
X17584Y7277D02*
Y7299D01*
X17551Y6283D02*
X17603D01*
X17391Y8062D02*
Y8157D01*
X17377Y7857D02*
X17436D01*
X12669Y8529D02*
Y8552D01*
Y7841D02*
Y8529D01*
X17551Y6251D02*
Y6283D01*
X11353Y8478D02*
X12197D01*
X11353D02*
X11704Y8128D01*
X12509Y6700D02*
Y6749D01*
X11663Y6890D02*
X11692Y6919D01*
X10876D02*
X11692D01*
X11663Y5737D02*
Y6890D01*
X17924Y5367D02*
X17988D01*
X17589Y3997D02*
X17622D01*
X17577Y3285D02*
X17622D01*
X17507D02*
X17577D01*
X12159Y3878D02*
X12519D01*
X11506D02*
X12159D01*
X11219Y3083D02*
X11567D01*
X10614D02*
X11219D01*
X10447D02*
X10614D01*
X7140Y17711D02*
X9476D01*
X9994D02*
X10106Y17823D01*
X9837Y17554D02*
X9994Y17711D01*
X5273Y18024D02*
X5488Y18239D01*
X3846Y16343D02*
X4074Y16571D01*
X3952Y18024D02*
X5273D01*
X5079Y16729D02*
X5141Y16667D01*
X7178Y15770D02*
X9474D01*
X6350D02*
X7178D01*
X6248Y15872D02*
Y15994D01*
X5654Y15765D02*
X5923D01*
X9504Y15572D02*
Y15801D01*
X7178Y15770D02*
X7349Y15941D01*
X5800Y14640D02*
X6153Y14992D01*
X5653Y14640D02*
X5800D01*
X4963Y13118D02*
X5083D01*
X3947Y18018D02*
Y18175D01*
X3621Y18373D02*
X3749D01*
X3947Y17841D02*
Y18018D01*
X4812Y16362D02*
Y16424D01*
X3808Y16343D02*
X3846D01*
X3738D02*
X3808D01*
X3845Y16380D01*
X3452Y16659D02*
Y16667D01*
X2921Y16764D02*
X3355D01*
X3591Y16520D02*
X3598Y16513D01*
X2580Y16439D02*
X2915D01*
X1747Y16156D02*
X2060Y16469D01*
X3145Y13226D02*
X3164D01*
X2702Y13624D02*
X2728Y13650D01*
X2517Y12714D02*
X2921Y13118D01*
X5489Y9078D02*
Y9109D01*
X6380Y8491D02*
X8084D01*
Y8818D01*
Y7808D02*
Y8491D01*
X9027Y7637D02*
X9807D01*
X8255D02*
X9027D01*
X5348Y11160D02*
X5391Y11203D01*
X5145Y10957D02*
X5348Y11160D01*
X4633D02*
X5348D01*
X5145Y10835D02*
Y10957D01*
X5189Y8552D02*
X5364D01*
X4912Y10602D02*
X5145Y10835D01*
X5364Y8506D02*
Y8552D01*
X2804Y10602D02*
X4912D01*
X1762D02*
X2804D01*
X4526Y7866D02*
X4589Y7802D01*
X3688D02*
X4589D01*
X10101Y6342D02*
X10138D01*
X10081D02*
X10101D01*
X10138Y5580D02*
X10193D01*
X10101Y5617D02*
Y6342D01*
X6896Y6073D02*
X9812D01*
X6030D02*
X6896D01*
X6545Y3627D02*
X10530D01*
X6545D02*
X6573Y3599D01*
X6332Y3840D02*
X6545Y3627D01*
X6218Y3955D02*
X6332Y3840D01*
X5481Y4474D02*
Y4506D01*
X4582Y6997D02*
X4645D01*
X5811Y1930D02*
X5874Y1993D01*
X5622D02*
X5874D01*
X4074Y11491D02*
X4302D01*
X3735Y11690D02*
X3797D01*
X3159Y11516D02*
X3312Y11668D01*
X3713D01*
X3002Y8527D02*
X3003D01*
X2857D02*
X3002D01*
X2876Y11936D02*
X2907Y11905D01*
X2517Y12294D02*
X2876Y11936D01*
X1640Y11211D02*
X1840D01*
X1738Y10872D02*
X1907Y10703D01*
X1738Y10872D02*
Y11110D01*
X2580Y9806D02*
X2735D01*
X2867Y9085D02*
X2931D01*
X2687Y8356D02*
X2857Y8527D01*
X1153Y8425D02*
X2301D01*
X1712Y10043D02*
Y10551D01*
Y10043D02*
X1966Y9789D01*
X1739Y8986D02*
X2301Y8425D01*
X1084Y8356D02*
X1153Y8425D01*
X3711Y6177D02*
X3761D01*
X3210D02*
X3711D01*
X3454Y5405D02*
X3759Y5710D01*
X3144Y5095D02*
X3454Y5405D01*
X4084Y3817D02*
X4114D01*
X3248D02*
X4084D01*
X3305Y1971D02*
X3652D01*
X3233D02*
X3305D01*
X3454Y5405D02*
Y5660D01*
X2888Y7282D02*
X2899D01*
X2978D01*
X2888Y6792D02*
Y6817D01*
X1084Y8356D02*
X2687D01*
X1054D02*
X1084D01*
X955Y7678D02*
Y8257D01*
Y4887D02*
Y7678D01*
X2677Y3858D02*
X2832D01*
X2326Y3507D02*
X2677Y3858D01*
X2875Y2177D02*
X2931D01*
X1623Y4219D02*
Y4572D01*
Y4005D02*
Y4219D01*
X1125Y3507D02*
X2326D01*
X993D02*
X1125D01*
X955Y4887D02*
X1623Y4219D01*
X1125Y3507D02*
X1623Y4005D01*
X955Y3109D02*
Y3469D01*
X2065Y2199D02*
Y2296D01*
X1089Y2974D02*
X1386D01*
X2065Y2296D01*
X20928Y2232D02*
X21320D01*
X19771Y2253D02*
X19929D01*
X22101Y2347D02*
Y2498D01*
Y2230D02*
Y2347D01*
X20673D02*
Y2410D01*
Y2147D02*
Y2347D01*
X20215Y2806D02*
Y2834D01*
X19629Y2882D02*
X19629Y2883D01*
X19367D02*
X19629D01*
X19367Y2882D02*
X19367Y2883D01*
X19319Y2834D02*
X19367Y2882D01*
X17462Y2349D02*
Y2410D01*
X17368Y2443D02*
X17429D01*
X17073D02*
X17368D01*
X17816Y2253D02*
X17897D01*
X17712Y2356D02*
Y2438D01*
X17330Y3337D02*
X17362Y3368D01*
X17330Y2687D02*
Y2931D01*
Y2987D02*
Y3337D01*
Y2931D02*
Y2987D01*
X20842Y4539D02*
X21320D01*
X20736Y4841D02*
X20762D01*
X20657D02*
X20736D01*
X20584D02*
X20657D01*
X20736Y4688D02*
Y4841D01*
Y4518D02*
Y4688D01*
X19415Y4912D02*
X19649Y4678D01*
X19339Y4988D02*
X19415Y4912D01*
X19649Y4475D02*
Y4678D01*
Y4455D02*
Y4475D01*
X17462Y4671D02*
Y4696D01*
X17536Y4744D02*
X18130D01*
X17462Y4671D02*
X17536Y4744D01*
X17462Y4635D02*
Y4671D01*
X16964Y4681D02*
X17028Y4744D01*
X16672Y4389D02*
X16809D01*
X15567D02*
X16672D01*
X17159Y4825D02*
X17160Y4826D01*
X17330D01*
X16520D02*
X17160D01*
X16348Y4561D02*
Y4654D01*
X20215Y6463D02*
Y6487D01*
X19771Y6870D02*
X19848D01*
X20464Y7148D02*
X20754Y6858D01*
X20792Y6820D02*
X20950Y6662D01*
X20754Y6858D02*
X20792Y6820D01*
X20285Y7327D02*
X20464Y7148D01*
X20950Y6662D02*
X21033D01*
X20673Y6700D02*
X20792Y6820D01*
X17284Y7013D02*
X17622D01*
X17167D02*
X17284D01*
X17360Y6921D02*
X17462D01*
X18016Y7607D02*
Y7681D01*
X17551Y7987D02*
Y8018D01*
X17495Y7607D02*
X17917D01*
X21163Y8818D02*
X21320Y8976D01*
X21153Y8809D02*
X21163Y8818D01*
X19771Y9177D02*
X19915D01*
X20431Y9850D02*
X22145D01*
X17562Y8682D02*
Y8701D01*
X17332Y9126D02*
X17395Y9190D01*
X17206Y9000D02*
X17332Y9126D01*
Y8874D02*
Y9126D01*
X17206Y9000D02*
X17237Y8968D01*
X15567D02*
X17237D01*
X17562Y9704D02*
Y9749D01*
X17682Y9669D02*
X17834Y9516D01*
X19740Y11103D02*
X19829D01*
X19727D02*
X19740D01*
X19365Y11465D02*
Y11478D01*
X19893Y11552D02*
X20017D01*
X19891Y11554D02*
X20015D01*
X19771D02*
X19891D01*
X20170Y12064D02*
Y12095D01*
X20899Y12089D02*
Y12151D01*
X17684Y11536D02*
X17716Y11569D01*
X17602Y11536D02*
X17684D01*
X17116D02*
X17602D01*
X17897Y11808D02*
X17917D01*
X17737D02*
X17897D01*
X17647Y11899D02*
X17647D01*
X17592D02*
X17647D01*
X17703Y12441D02*
X17714Y12430D01*
X20552Y13792D02*
Y13801D01*
X16469Y13904D02*
X16479Y13914D01*
X17365Y13929D02*
X17380Y13914D01*
X17507Y14295D02*
X17621D01*
X17970Y14546D02*
X19873D01*
X16348Y13626D02*
Y13650D01*
X19339Y16164D02*
X19347Y16156D01*
X19368Y16177D02*
X19829Y15716D01*
X21943Y15809D02*
X22101Y15967D01*
X19985Y16099D02*
X20065D01*
X19985D02*
X20025Y16139D01*
X19974Y16088D02*
X19985Y16099D01*
X20552Y16076D02*
Y16165D01*
X16834Y16743D02*
X17439D01*
X19279Y18476D02*
X19413D01*
X20607Y18547D02*
X20619D01*
X20354Y18811D02*
X20619Y18547D01*
X18023Y18725D02*
X19251D01*
X17729Y19039D02*
X17749D01*
X17726D02*
X17729D01*
X17673Y18984D02*
X17729Y19039D01*
X17608Y18918D02*
X17673Y18984D01*
X18023Y18725D02*
X18029Y18730D01*
X17801Y19157D02*
X18048D01*
X16411Y18486D02*
X16418D01*
X16411Y18479D02*
X16418Y18486D01*
X16348Y18416D02*
X16411Y18479D01*
X12621Y18133D02*
X13632D01*
X18244Y19103D02*
X18426D01*
X18242Y19101D02*
X18244Y19103D01*
X17770D02*
X17770D01*
X17486D02*
X17770D01*
X17486D02*
X17486D01*
X12906Y18201D02*
X12906D01*
X10172Y18461D02*
Y18534D01*
X10292Y18934D02*
X10305D01*
X10277D02*
X10292D01*
X10277Y18949D02*
X10292Y18934D01*
X11872Y16393D02*
X12008Y16257D01*
X11855Y16409D02*
X11872Y16393D01*
X12008Y16257D02*
X12297D01*
X12008D02*
X12008D01*
X12397Y16469D02*
Y16634D01*
Y16441D02*
Y16469D01*
X12895Y16256D02*
X12930Y16221D01*
X12364Y16475D02*
X12392D01*
X12364D02*
X12397Y16441D01*
X12497Y16341D02*
X12583Y16256D01*
X10277Y16090D02*
X10331D01*
X10277D02*
X10277D01*
X10036Y16322D02*
X10076D01*
X8428D02*
X10036D01*
X10208Y16150D02*
Y16190D01*
X10932Y16409D02*
Y16418D01*
X9056Y16151D02*
X9286D01*
X12888Y13568D02*
X14366D01*
X12817Y13579D02*
X12877D01*
X11872Y14107D02*
X11891Y14087D01*
X12669Y14539D02*
Y14761D01*
X12786Y14047D02*
X12930Y13904D01*
X11910Y14386D02*
X12517D01*
X9680Y13916D02*
X10018D01*
X9806Y14023D02*
X9817D01*
X12454Y10943D02*
X12554D01*
X12126Y11272D02*
X12136Y11262D01*
X12317Y11764D02*
X12439Y11885D01*
X12120Y11567D02*
X12317Y11764D01*
X12086Y11567D02*
X12120D01*
X11973D02*
X12086D01*
X12004Y11642D02*
X12076D01*
X12050Y11461D02*
X12238D01*
X11973D02*
X12050D01*
X11942Y11492D02*
X11973Y11461D01*
X11898Y11536D02*
X11942Y11492D01*
X10074Y11643D02*
X10127D01*
X9766D02*
X10074D01*
X10215Y11501D02*
Y11554D01*
X10550Y11583D02*
X10585Y11618D01*
X10548Y11581D02*
X10550Y11583D01*
X10548Y11574D02*
Y11581D01*
X10424Y11745D02*
X10500Y11668D01*
X10020Y12456D02*
X10106Y12543D01*
X9916Y11742D02*
X10241D01*
X9056Y11563D02*
X9564D01*
X10957Y9738D02*
X10957D01*
X10043Y10269D02*
X10106Y10333D01*
X10025Y10252D02*
X10043Y10269D01*
X10025Y10198D02*
Y10252D01*
Y10074D02*
Y10198D01*
X12508Y6371D02*
X12554D01*
X12442D02*
X12508D01*
X12930Y6845D02*
Y7053D01*
X12799Y7184D02*
Y7483D01*
Y7184D02*
X12930Y7053D01*
X9832Y6870D02*
X9916D01*
X10668Y7681D02*
Y7998D01*
X10541Y7554D02*
X10668Y7681D01*
X13584Y4216D02*
X14376D01*
X12735D02*
X13584D01*
X12717Y4198D02*
X12735Y4216D01*
X12629Y4110D02*
X12717Y4198D01*
X12238Y4643D02*
X12554D01*
X12860Y4379D02*
X14384D01*
X12603Y5270D02*
X12617Y5256D01*
X12555Y5685D02*
Y5712D01*
X12202Y5270D02*
X12216Y5256D01*
X12617D02*
X12729D01*
X12216D02*
X12617D01*
X10983Y4743D02*
Y4760D01*
Y4175D02*
Y4743D01*
X10102Y4371D02*
Y4608D01*
X10485Y5409D02*
X10897Y4997D01*
X10423Y5471D02*
X10485Y5409D01*
X12238Y2308D02*
X12395D01*
X12355Y2757D02*
Y2757D01*
X10172Y2307D02*
X10306D01*
X10393Y2174D02*
Y2220D01*
X10172Y2307D02*
Y2343D01*
X8296Y2093D02*
Y2230D01*
X10272Y2851D02*
Y2865D01*
Y2847D02*
Y2851D01*
X10258Y2865D02*
X10272D01*
X10332Y2779D02*
Y2791D01*
Y2661D02*
Y2779D01*
X10272Y2851D02*
X10332Y2791D01*
X10258Y2865D02*
X10272Y2851D01*
X10721Y2593D02*
X10754Y2626D01*
X10485Y2593D02*
X10721D01*
X6254Y2281D02*
X6258D01*
X6077D02*
X6254D01*
X5583Y2345D02*
Y2386D01*
X5655Y2253D02*
X5716D01*
X2959Y1799D02*
Y1839D01*
X2792Y1966D02*
X2832D01*
X1990D02*
X2792D01*
X5591Y1687D02*
Y1807D01*
X2448Y2308D02*
X2643D01*
X3335Y2365D02*
Y2512D01*
Y2230D02*
Y2365D01*
X3131Y2715D02*
X3335Y2512D01*
X3103Y2744D02*
X3131Y2715D01*
X3058Y2789D02*
X3103Y2744D01*
X3033Y2789D02*
X3058D01*
X3033Y2779D02*
Y2789D01*
X6687Y4539D02*
X7202D01*
X6012Y4025D02*
X6072Y4085D01*
X4633Y4912D02*
X4710Y4835D01*
X5205Y4645D02*
X5283Y4567D01*
X5108Y4743D02*
X5205Y4645D01*
X5270Y4567D02*
X5283D01*
X5250Y5015D02*
X5310Y5075D01*
X5046Y4810D02*
X5250Y5015D01*
X5046Y4810D02*
X5046D01*
X4785D02*
X5046D01*
X4841Y4675D02*
X4841D01*
X3828D02*
X4729D01*
X3820Y4683D02*
X3828Y4675D01*
X4841D02*
X4848Y4683D01*
X4558Y4393D02*
X4841Y4675D01*
X3394Y4393D02*
X4558D01*
X5024Y6904D02*
X5365D01*
X5292Y7996D02*
X5365D01*
X5089D02*
X5292D01*
X5302Y8006D02*
X5365D01*
X5089Y7996D02*
X5102Y7983D01*
X5079Y8006D02*
X5089Y7996D01*
X5292D02*
X5302Y8006D01*
X5278Y7983D02*
X5292Y7996D01*
X4899Y7944D02*
X4961Y8006D01*
X4836Y7881D02*
X4899Y7944D01*
X4931Y8006D02*
X4961D01*
X4899Y7944D02*
Y7974D01*
Y7818D02*
Y7944D01*
X3378Y6502D02*
X3393D01*
X3004Y6371D02*
Y6411D01*
X2931Y6502D02*
X3096D01*
X3378D01*
X2026D02*
X2931D01*
X3004Y6411D02*
Y6428D01*
X6146Y8682D02*
Y8780D01*
X5147Y8969D02*
Y8983D01*
Y8969D02*
Y8969D01*
X5141Y8976D02*
X5147Y8969D01*
X5324Y8793D01*
X5083Y9298D02*
X5191Y9190D01*
X2241Y9215D02*
X2643D01*
X3003D02*
X3335D01*
X4658Y11638D02*
X4659Y11637D01*
X5024Y11478D02*
X5332D01*
X2643Y11485D02*
X2747D01*
X5562Y13411D02*
X5783Y13631D01*
X5456Y13305D02*
X5562Y13411D01*
X5134Y13611D02*
X5250Y13727D01*
X5122Y13599D02*
X5134Y13611D01*
X5115Y13599D02*
X5122D01*
X1326Y13769D02*
X1326D01*
X5409Y14854D02*
X5420Y14843D01*
Y14854D01*
X5409D02*
X5420D01*
X5365D02*
X5409D01*
X5342Y13891D02*
X5349Y13898D01*
X5024Y13854D02*
X5058D01*
X5113D01*
X5151Y13891D02*
X5158Y13898D01*
X5110Y13851D02*
X5113Y13854D01*
X2025Y13468D02*
X2493D01*
X2025D02*
X2042Y13451D01*
X3667Y13904D02*
X3698Y13873D01*
X3641Y13930D02*
X3667Y13904D01*
X3029Y13874D02*
X3151D01*
X2492Y13769D02*
X2492D01*
X4725Y16155D02*
X4791Y16221D01*
X4709Y16139D02*
X4725Y16155D01*
X5535Y16151D02*
Y16151D01*
X5024Y16101D02*
X5319D01*
X5201Y16610D02*
Y16610D01*
X3405Y16834D02*
X3405D01*
X6542Y18461D02*
X6813D01*
X2643Y18384D02*
X2847D01*
X1634Y18909D02*
X1666D01*
X3705Y18691D02*
X3718Y18679D01*
X3693Y18704D02*
X3705Y18691D01*
X3615Y18557D02*
Y18601D01*
X3367Y18556D02*
X3367D01*
X18123Y2883D02*
X18425Y3185D01*
X17953Y2883D02*
X18123D01*
X17834D02*
X17953D01*
X3642Y18933D02*
Y19566D01*
X18831Y12253D02*
Y14208D01*
X11338Y16444D02*
X11695Y16800D01*
X18882Y9738D02*
X19288D01*
X18831D02*
X18882D01*
X4125Y12019D02*
Y12430D01*
X4175Y9814D02*
X4201Y9789D01*
Y5115D02*
Y5124D01*
X19147Y16671D02*
X19680D01*
X17992Y18892D02*
X18016Y18867D01*
X19147Y16671D02*
X19147D01*
X18923Y11969D02*
X18985D01*
X18729D02*
X18923D01*
X17893D02*
X18729D01*
X15407Y17221D02*
X15987Y17800D01*
X14947Y16760D02*
X15407Y17221D01*
X14771Y16584D02*
X14772Y16586D01*
X15407Y14566D02*
Y16584D01*
Y17221D01*
Y16584D02*
X15529D01*
X14771D02*
X15123D01*
X15529Y14445D02*
X15697Y14277D01*
X15407Y14566D02*
X15529Y14445D01*
X18985Y11969D02*
X19005Y11949D01*
X18985Y11969D02*
X18985Y11969D01*
X18923D02*
X18923Y11969D01*
X18903Y11949D02*
X18923Y11969D01*
X18729D02*
X18749Y11949D01*
X18727Y11971D02*
X18729Y11969D01*
X19289Y5074D02*
X19739D01*
X11369Y9511D02*
X11393Y9535D01*
X11717Y14232D02*
X12234D01*
X4321Y14277D02*
X5020D01*
X4299D02*
X4321D01*
X4206Y14184D02*
X4229D01*
X4144D02*
X4206D01*
X3454Y11869D02*
X4492D01*
X3431D02*
X3454D01*
X1859Y12084D02*
X1934D01*
X3331Y11828D02*
X3413D01*
X1859Y11971D02*
Y12084D01*
X11393Y9535D02*
X11800D01*
X11283D02*
X11393D01*
X10781Y7353D02*
X10789Y7345D01*
X12220Y2752D02*
X12220D01*
X4860Y7116D02*
Y7193D01*
X4473Y7353D02*
X4500Y7326D01*
X4502D01*
X3331Y7353D02*
X4473D01*
X4081Y2707D02*
X4989D01*
X4050Y2738D02*
X4050D01*
X1077Y17089D02*
X1610D01*
X7757Y1226D02*
Y1245D01*
Y1226D02*
X7767Y1236D01*
X7657Y662D02*
Y778D01*
X8011Y1226D02*
Y1245D01*
Y1226D02*
X8021Y1236D01*
X2639Y10170D02*
X3331D01*
X1859Y10193D02*
X1978D01*
X8419Y1126D02*
Y1246D01*
Y778D02*
Y1126D01*
X1078Y7861D02*
X1315D01*
X5020Y7782D02*
Y7861D01*
Y7776D02*
Y7782D01*
Y7776D02*
X5026D01*
X5020Y7782D02*
X5026Y7776D01*
X1078Y5552D02*
X1366D01*
X9255Y1200D02*
X9291Y1236D01*
X9181Y1126D02*
X9255Y1200D01*
Y1271D01*
X2825Y3101D02*
X3772D01*
X1800D02*
X2825D01*
X1223D02*
X1800D01*
X3990Y2883D02*
X4106Y2767D01*
X3772Y3101D02*
X3990Y2883D01*
X9052Y3246D02*
X9334D01*
X9799Y663D02*
Y668D01*
Y552D02*
Y663D01*
X8292Y5555D02*
X8460D01*
X9052Y7863D02*
X9431D01*
X10197Y1126D02*
Y1246D01*
X10451Y1126D02*
Y1246D01*
Y778D02*
Y1126D01*
X10705Y778D02*
Y1126D01*
Y662D02*
Y778D01*
X11213Y1126D02*
Y1246D01*
X9588Y17310D02*
X10440D01*
X9221D02*
X9588D01*
X9052Y17094D02*
Y17141D01*
X11467Y778D02*
Y1126D01*
Y662D02*
Y778D01*
X11721D02*
Y1246D01*
X11975Y662D02*
Y1126D01*
X21270Y19568D02*
X21316Y19521D01*
X21193Y19644D02*
X21270Y19568D01*
X21316Y19521D02*
Y19568D01*
Y19400D02*
Y19521D01*
X12229Y778D02*
Y1126D01*
X16344Y17091D02*
X16875D01*
X16878Y16916D02*
X17067D01*
X12483Y1126D02*
Y1246D01*
X21760Y17094D02*
X22097D01*
X20980Y17091D02*
X21316D01*
X12737Y1126D02*
Y1246D01*
Y778D02*
Y1126D01*
X21018Y14785D02*
X21316D01*
X12991Y1126D02*
Y1246D01*
Y778D02*
Y1126D01*
Y662D02*
Y778D01*
X13245Y1126D02*
Y1246D01*
X13499Y1126D02*
Y1246D01*
Y778D02*
Y1126D01*
X21099Y10170D02*
X21316D01*
X14007Y778D02*
Y1246D01*
X16344Y5552D02*
X16903D01*
X20927Y5555D02*
X21316D01*
X4668Y11040D02*
X4675Y11033D01*
X4604Y11104D02*
X4608Y11100D01*
X4668Y11040D02*
X4986D01*
X3336Y11100D02*
X4608D01*
X14849Y19308D02*
Y19517D01*
Y19308D02*
X15072Y19085D01*
X2697Y11104D02*
X2804Y10998D01*
X5020Y10955D02*
Y11040D01*
X4608Y11100D02*
X4668Y11040D01*
X14487Y668D02*
X14715D01*
X14371Y552D02*
X14487Y668D01*
X13878Y1251D02*
Y1331D01*
X13499Y778D02*
X13609Y668D01*
X21316Y14785D02*
Y14785D01*
X17067Y16916D02*
X17112Y16962D01*
Y17092D01*
X12593Y552D02*
Y668D01*
X12483Y778D02*
X12593Y668D01*
X12483Y1246D02*
X12593Y1356D01*
X19767Y19423D02*
X19988Y19644D01*
X12339Y552D02*
Y668D01*
X12229Y778D02*
X12339Y668D01*
X11721Y1246D02*
X11831Y1356D01*
X11323Y552D02*
Y668D01*
X11213Y1246D02*
X11323Y1356D01*
X10959Y778D02*
X11069Y668D01*
X10307Y552D02*
Y668D01*
X10197Y778D02*
X10307Y668D01*
X10197Y1246D02*
X10307Y1356D01*
X9435Y1246D02*
X9545Y1356D01*
Y552D02*
Y668D01*
X9435Y778D02*
X9545Y668D01*
X9181Y778D02*
Y1126D01*
X1078Y3246D02*
X1223Y3101D01*
X8673Y778D02*
Y1126D01*
Y778D02*
X8783Y668D01*
X2639Y5426D02*
Y5554D01*
X3331Y5426D02*
Y5554D01*
X7198Y7761D02*
Y7861D01*
X7094Y7656D02*
X7198Y7761D01*
X8419Y1246D02*
X8529Y1356D01*
Y552D02*
Y668D01*
X8275Y1236D02*
Y1356D01*
X8165Y778D02*
X8275Y668D01*
Y552D02*
Y668D01*
X7911Y778D02*
X8021Y668D01*
X7911Y1126D02*
X8011Y1226D01*
X5712Y17089D02*
Y17092D01*
X1078Y12084D02*
X1859D01*
X4860Y7193D02*
X5020Y7353D01*
X4754Y7072D02*
X4816D01*
X10863Y14277D02*
X11059Y14081D01*
X10544Y14277D02*
X10863D01*
X19753Y18906D02*
X19767Y18892D01*
X18016Y18867D02*
X18178D01*
X17893Y18892D02*
X17992D01*
X14947Y16760D02*
X15123Y16584D01*
X12926Y16620D02*
X12961Y16584D01*
X15529Y14277D02*
Y14445D01*
X3331Y2738D02*
X4050D01*
X4081Y2707D01*
X4201Y5124D02*
Y5623D01*
X4175Y9814D02*
Y10170D01*
X18806Y9713D02*
X18831Y9738D01*
X3617Y19592D02*
X3642Y19566D01*
X3367Y18556D02*
X3482Y18441D01*
X3561D02*
X3615Y18495D01*
Y18601D02*
X3705Y18691D01*
X1666Y18909D02*
X1695D01*
X1606Y18969D02*
X1666Y18909D01*
X3413Y17663D02*
X3718Y17968D01*
X1842Y16834D02*
X3405D01*
X3512Y16727D01*
Y16684D02*
Y16727D01*
Y16684D02*
X3538Y16658D01*
X5201Y16477D02*
Y16610D01*
X5249Y16658D01*
X5365D01*
X5993Y16064D02*
X6093D01*
X5753Y15825D02*
X5993Y16064D01*
X5679Y15825D02*
X5753D01*
X5535Y15969D02*
X5679Y15825D01*
X5535Y15969D02*
Y16151D01*
X5464Y16221D02*
X5535Y16151D01*
X4791Y16221D02*
X5464D01*
X1606Y13864D02*
X1722Y13980D01*
X3130Y13564D02*
X3335Y13769D01*
X2643D02*
X2908Y14034D01*
X3588D02*
X3617Y14005D01*
X2492Y13769D02*
X2643D01*
X2457Y13804D02*
X2492Y13769D01*
X2428Y13804D02*
X2457D01*
X2368Y13864D02*
X2428Y13804D01*
X3151Y13874D02*
X3251Y13974D01*
X3585Y13930D02*
X3641D01*
X1863Y13630D02*
Y13769D01*
Y13630D02*
X2025Y13468D01*
X2857Y13356D02*
X3029D01*
X1082Y13769D02*
X1326D01*
X1546Y14094D02*
X4594D01*
X5305Y11924D02*
X5365Y11984D01*
X4754Y11543D02*
X4883D01*
X4658Y11638D02*
Y11745D01*
X5257Y9806D02*
X5340Y9723D01*
X5147Y8969D02*
X5324Y8793D01*
X5775D01*
X5885Y8682D01*
X5716Y6845D02*
Y7054D01*
X5572Y7198D02*
X5716Y7054D01*
X4899Y7974D02*
X4931Y8006D01*
X3029Y4059D02*
X3154D01*
X5310Y5075D02*
X5365D01*
X5283Y4567D02*
X5365D01*
X4816Y4735D02*
X4823Y4743D01*
X4607Y4882D02*
X4754Y4735D01*
X4607Y4882D02*
Y4887D01*
X4709Y4201D02*
X4899Y4011D01*
X6072Y4085D02*
X6127D01*
X1863Y2093D02*
X1990Y1966D01*
X2792D02*
X2959Y1799D01*
X5583Y2386D02*
Y2728D01*
Y2386D02*
X5716Y2253D01*
Y2230D02*
Y2253D01*
X4882Y2804D02*
X4961Y2883D01*
X5083Y2375D02*
X5151Y2307D01*
X4716Y2375D02*
X5083D01*
X4714Y2373D02*
X4716Y2375D01*
X4297Y2423D02*
X4347Y2373D01*
X4714D01*
X11897Y2677D02*
X11922D01*
X12006Y2593D01*
X12293D01*
X12355Y2655D02*
Y2757D01*
X12437Y2840D01*
X12554D01*
X10217Y5710D02*
X10277Y5650D01*
X10305D01*
X10423Y5532D01*
Y5471D02*
Y5532D01*
X12456Y5126D02*
X12554D01*
X12415Y5085D02*
X12456Y5126D01*
X12796Y4442D02*
X12860Y4379D01*
X12554Y4110D02*
X12629D01*
X14539Y4379D02*
Y4633D01*
X14409Y4762D02*
X14539Y4633D01*
X13870Y4762D02*
X14409D01*
X13667Y4538D02*
Y4559D01*
X10277Y6920D02*
X10305D01*
X9056Y11461D02*
Y11563D01*
X10241Y11742D02*
X10243Y11745D01*
X10424D01*
X10585Y11618D02*
Y11689D01*
X10531Y11743D02*
X10585Y11689D01*
X10421Y11832D02*
X10510Y11743D01*
X10421Y11832D02*
Y11935D01*
X10217Y12035D02*
X10322D01*
X8296Y11332D02*
Y11461D01*
X8327Y11300D02*
X9288D01*
X9489Y11501D01*
X9624D02*
X9766Y11643D01*
X10074D02*
X10215Y11501D01*
X10217D01*
X11898Y11598D02*
X11942Y11642D01*
X12076D02*
X12258Y11824D01*
X12293D01*
X12357Y11888D01*
X12265Y12171D02*
X12357Y12080D01*
X12465Y11975D02*
X12494D01*
X12430Y11322D02*
Y11407D01*
X12494Y11441D02*
X12554Y11501D01*
X9056Y13769D02*
Y13875D01*
X9205Y14023D02*
X9806D01*
X10043Y14260D01*
X10332Y14285D02*
Y14334D01*
X10604Y14132D02*
X10604Y14132D01*
X10157Y14743D02*
X10217Y14803D01*
X10102Y14717D02*
X10128Y14743D01*
X10332Y14285D02*
X10485Y14132D01*
X10604D01*
X8296Y13650D02*
Y13769D01*
Y13650D02*
X8430Y13515D01*
X9278D01*
X11968Y16475D02*
X12364D01*
X12930Y16112D02*
Y16221D01*
X10920Y18552D02*
X10932D01*
X10332Y18816D02*
Y18908D01*
X10217Y18994D02*
X10232D01*
X10202Y18461D02*
X10217D01*
X10157Y18416D02*
X10202Y18461D01*
X10128Y18401D02*
X10157D01*
X10043Y18316D02*
X10128Y18401D01*
X10043Y18247D02*
Y18316D01*
X9154Y18600D02*
X10106D01*
X12906Y18201D02*
X13599D01*
X12785Y18322D02*
X12906Y18201D01*
X12653Y18461D02*
X12785Y18329D01*
X18072Y19002D02*
X18143D01*
X17776Y19097D02*
X17977D01*
X17770Y19103D02*
X17776Y19097D01*
X17382Y18999D02*
X17486Y19103D01*
X17382Y18978D02*
Y18999D01*
X17276Y18934D02*
X17338D01*
X17128Y19103D02*
X17232Y18999D01*
X16989Y19103D02*
X17128D01*
X14523Y18064D02*
X15196Y18736D01*
X12854Y18064D02*
X14523D01*
X12554Y17928D02*
X12557Y17931D01*
X14416Y18384D02*
Y18387D01*
X13231Y17928D02*
X13316D01*
X16418Y18486D02*
X16745D01*
X14766Y17594D02*
X15533Y18361D01*
X15351Y18989D02*
X15577Y19215D01*
X17183D01*
X17420Y19452D02*
X17507D01*
X17116Y18384D02*
Y18407D01*
X18047Y18942D02*
X18168D01*
X17953Y19037D02*
X18047Y18942D01*
X17749Y19039D02*
X17751Y19037D01*
X17507Y18918D02*
X17608D01*
X21320Y18384D02*
Y18509D01*
X21282Y18547D02*
X21320Y18509D01*
X20619Y18547D02*
X21282D01*
X15533Y15957D02*
X15567Y15923D01*
X16421D01*
X16497Y15999D01*
Y16406D01*
X16834Y16743D01*
X17487Y16658D02*
X17532D01*
X17281Y12441D02*
X17532D01*
Y11959D02*
X17592Y11899D01*
X17647D02*
X17737Y11808D01*
X22220Y9394D02*
Y9776D01*
X18016Y7607D02*
X18120Y7503D01*
X17980Y8018D02*
X18016Y7983D01*
X16348Y6845D02*
Y6982D01*
X16411Y7046D01*
X17061D02*
X17315Y7300D01*
X17942Y7607D02*
X18016Y7681D01*
X17507Y7987D02*
X17551D01*
X17282Y6842D02*
X17360Y6921D01*
X17282Y6740D02*
Y6842D01*
X17181Y6639D02*
X17282Y6740D01*
X15622Y6639D02*
X17181D01*
X15533Y6728D02*
X15622Y6639D01*
X17116Y6962D02*
X17167Y7013D01*
X20273Y7431D02*
X20285Y7418D01*
X19352Y7249D02*
X19428Y7173D01*
X20493Y6700D02*
X20673D01*
X20754Y6782D01*
Y6858D01*
X22101Y4538D02*
Y4657D01*
X21906Y4852D02*
X22101Y4657D01*
X21400Y4841D02*
X21412Y4852D01*
X20243Y5219D02*
X20285Y5176D01*
X20170Y5219D02*
X20243D01*
X17507Y2857D02*
X17615D01*
X17712Y2759D01*
Y2438D02*
Y2759D01*
Y2438D02*
X17897Y2253D01*
X15533Y2116D02*
Y2230D01*
X15567Y2082D02*
X16809D01*
X16977Y2250D01*
Y2347D02*
X17073Y2443D01*
X17368D02*
X17462Y2349D01*
X17507D01*
X20430Y2147D02*
Y2220D01*
Y2147D02*
X20493Y2085D01*
X20611D02*
X20673Y2147D01*
X12555Y10813D02*
X12646D01*
X12720Y10886D01*
Y11285D01*
X12634Y11371D02*
X12720Y11285D01*
X12539Y10744D02*
X12555Y10729D01*
X11823Y9997D02*
X12555Y10729D01*
X11823Y9943D02*
Y9997D01*
X13454Y8577D02*
X13703Y8328D01*
X16906D01*
X17377Y7857D01*
X12667Y17798D02*
X12710Y17841D01*
X2832Y3858D02*
Y3929D01*
X955Y8257D02*
X1054Y8356D01*
X1809Y15928D02*
X1927D01*
X1993Y15994D01*
X5775Y18239D02*
X5842Y18306D01*
X3952Y17429D02*
Y17841D01*
X3947D02*
X3952D01*
X3947Y18018D02*
X3952Y18024D01*
X2888Y16731D02*
X2921Y16764D01*
X5340Y18247D02*
X5496D01*
X5365Y16516D02*
Y16528D01*
X4812Y16362D02*
X4882Y16291D01*
X4812Y16424D02*
X4858Y16471D01*
X5141Y16501D02*
Y16667D01*
X7264Y16240D02*
X7349Y16156D01*
X7147Y16240D02*
X7264D01*
X5591Y14702D02*
Y14825D01*
X5641Y12684D02*
X5725D01*
X2517Y12294D02*
Y12714D01*
X2919Y11917D02*
X2931Y11905D01*
X2907D02*
X2919Y11917D01*
X2876Y11936D02*
X2888Y11948D01*
Y12133D01*
X2931Y12176D01*
X3807D01*
X4274Y12354D02*
X4531D01*
X3210Y13290D02*
Y13346D01*
X3272Y13408D01*
X3615Y13669D02*
Y13752D01*
X3454Y13914D02*
X3615Y13752D01*
X3276Y13914D02*
X3454D01*
X3132Y13734D02*
X3214Y13815D01*
X2702Y10703D02*
X2804Y10602D01*
X2675Y11211D02*
X2914Y10973D01*
X1840Y11211D02*
X2675D01*
X1738Y11110D02*
X1840Y11211D01*
X3896Y11668D02*
X4074Y11491D01*
X1712Y10551D02*
X1762Y10602D01*
X3818Y11668D02*
X3896D01*
X3159Y11440D02*
Y11516D01*
X2978Y4996D02*
X3063D01*
X3759Y5710D02*
X4318D01*
X4506Y5522D01*
X2978Y5529D02*
X3071D01*
X3248Y5707D01*
X3407D01*
X3454Y5660D01*
X3144Y5095D02*
X3153Y5086D01*
X3063Y4996D02*
X3153Y5086D01*
X2865Y4463D02*
X3029D01*
X2717Y4315D02*
X2865Y4463D01*
X2575Y4315D02*
X2717D01*
X2154Y4737D02*
X2575Y4315D01*
X1788Y4737D02*
X2154D01*
X1623Y4572D02*
X1788Y4737D01*
X4526Y7866D02*
Y7935D01*
X3058Y7815D02*
X3187Y7945D01*
X2978Y7815D02*
X3058D01*
X5438Y2177D02*
X5439D01*
X5438D02*
X5483Y2222D01*
Y2640D01*
X5439Y2685D02*
X5483Y2640D01*
X4084Y3817D02*
X4569Y4302D01*
X17663Y10127D02*
X17770Y10020D01*
X17980D02*
X18016Y10055D01*
Y10650D01*
X16995Y11364D02*
Y11572D01*
X17063Y11640D01*
X17228D01*
X17599Y13149D02*
X17693Y13243D01*
X17307Y19009D02*
Y19122D01*
X17264Y18306D02*
X17307Y18349D01*
X20030Y12198D02*
X20076Y12244D01*
X20030Y11745D02*
Y12198D01*
X19900Y11615D02*
X20030Y11745D01*
X19695Y11615D02*
X19900D01*
X19893Y11318D02*
X19997Y11422D01*
X20032Y7561D02*
X20076Y7604D01*
X20426Y7270D02*
Y7429D01*
X22311Y6925D02*
X22336Y6614D01*
X22207Y6485D02*
X22336Y6614D01*
X22038Y6485D02*
X22207D01*
X22185Y7050D02*
X22311Y6925D01*
X20426Y7270D02*
X20489Y7208D01*
X20252Y7604D02*
X20426Y7429D01*
X20636Y2025D02*
X20986Y2375D01*
X20288Y2025D02*
X20636D01*
X22252Y2085D02*
X22286Y2118D01*
X20525Y3693D02*
X21073D01*
X21464Y2085D02*
X22252D01*
X20548Y12943D02*
X22108D01*
X22286Y13121D01*
Y15016D01*
X22179Y15123D02*
X22286Y15016D01*
X20719Y15123D02*
X22179D01*
X8296Y2093D02*
X8367Y2021D01*
X10306Y2307D02*
X10393Y2220D01*
X10451Y1246D02*
X10551Y1346D01*
X10561Y552D02*
Y668D01*
X9687Y1300D02*
X9829Y1442D01*
X9687Y774D02*
Y1300D01*
Y774D02*
X9799Y663D01*
X10101Y5617D02*
X10138Y5580D01*
X12115Y13860D02*
X12202Y13947D01*
X12313Y13561D02*
X12410Y13657D01*
X10972Y14744D02*
X11610D01*
X10853Y14625D02*
X10972Y14744D01*
X10312Y14673D02*
X10360Y14625D01*
X12554Y14803D02*
X12627D01*
X12517Y14386D02*
X12669Y14539D01*
X11833Y14310D02*
X11910Y14386D01*
X19700Y14343D02*
X19767Y14277D01*
X17814Y11666D02*
X18025D01*
X18144Y11547D01*
X17995Y13073D02*
X18265Y13342D01*
X17765Y13073D02*
X17995D01*
X17688Y13149D02*
X17765Y13073D01*
X12737Y1246D02*
X12847Y1356D01*
X12737Y778D02*
X12847Y668D01*
X18503Y12994D02*
X18745Y13236D01*
X16979Y12994D02*
X18503D01*
X9027Y8112D02*
X9591D01*
X8930Y8016D02*
X9027Y8112D01*
X8930Y7734D02*
Y8016D01*
Y7734D02*
X9027Y7637D01*
X5395Y9357D02*
X5489Y9263D01*
Y9078D02*
X5560Y9006D01*
X6591D01*
X6941Y9357D01*
X7546D01*
X8084Y8818D01*
Y7808D02*
X8255Y7637D01*
X5140Y13175D02*
X5365D01*
X5083Y13118D02*
X5140Y13175D01*
X4803Y12958D02*
X4963Y13118D01*
X4803Y12489D02*
Y12958D01*
Y12489D02*
X4988Y12305D01*
X21094Y15994D02*
X21155Y16055D01*
Y16190D01*
X21331Y16365D01*
X22225D01*
X22286Y16304D01*
Y15549D02*
Y16304D01*
X22141Y15405D02*
X22286Y15549D01*
X17532Y17061D02*
X17612D01*
X17648Y17025D01*
Y16571D02*
Y17025D01*
X17605Y16528D02*
X17648Y16571D01*
X5250Y14261D02*
X5305D01*
X4994Y14004D02*
X5250Y14261D01*
X4683Y14004D02*
X4994D01*
X5024Y13769D02*
Y13854D01*
X5113D02*
X5151Y13891D01*
X5342D01*
X5556Y14106D02*
Y14618D01*
X5512Y14662D02*
X5556Y14618D01*
X5305Y13727D02*
X5365Y13787D01*
X5250Y13727D02*
X5305D01*
X5127Y13611D02*
X5134D01*
X5115Y13599D02*
X5127Y13611D01*
X4902Y13642D02*
Y13872D01*
X4949Y13919D01*
X5008D01*
X5280Y14191D01*
X5365D01*
X14007Y1246D02*
X14117Y1356D01*
X11975Y662D02*
X12085Y552D01*
X17893Y5046D02*
Y5074D01*
X18425Y3185D02*
Y3278D01*
X17772Y2821D02*
X17834Y2883D01*
X17772Y2655D02*
Y2821D01*
X18234Y2593D02*
X18325Y2501D01*
X18001Y1034D02*
X18347Y1380D01*
X17637Y670D02*
X17781Y814D01*
X12110Y7655D02*
Y8062D01*
X12174Y8125D01*
X12355D01*
X12509Y7971D01*
X12554D01*
X20169Y12064D02*
X20170D01*
X20137Y12128D02*
X20170Y12095D01*
X11546Y12319D02*
X12352Y13124D01*
X12669Y16578D02*
Y16972D01*
X12255Y17386D02*
X12669Y16972D01*
X6319Y8552D02*
X6380Y8491D01*
X9591Y8112D02*
X10132Y8654D01*
X17018Y770D02*
X17060Y812D01*
X17272D01*
X17383Y924D01*
X17330Y4826D02*
X17378Y4874D01*
X16348Y4654D02*
X16520Y4826D01*
X17462Y4635D02*
X17507D01*
X18130Y4744D02*
X18222Y4836D01*
X15533Y4423D02*
Y4538D01*
Y4423D02*
X15567Y4389D01*
X12991Y662D02*
X13101Y552D01*
X12991Y1246D02*
X13101Y1356D01*
X10815Y1236D02*
Y1356D01*
X10705Y1126D02*
X10815Y1236D01*
X10705Y662D02*
X10815Y552D01*
X13245Y1246D02*
X13355Y1356D01*
X10421Y8872D02*
X10960D01*
X11704Y8128D02*
X11757D01*
X10360Y14625D02*
X10627D01*
X10668Y14666D01*
Y14942D01*
X10419Y15191D02*
X10668Y14942D01*
X9885Y15191D02*
X10419D01*
X9504Y16020D02*
X9506D01*
X9943Y662D02*
X10053Y552D01*
X9943Y1246D02*
X10053Y1356D01*
X10215Y12974D02*
X10332Y12857D01*
Y12448D02*
Y12857D01*
X17374Y18674D02*
X17462Y18761D01*
X15590Y18674D02*
X17374D01*
X15392Y18476D02*
X15590Y18674D01*
X15392Y18387D02*
Y18476D01*
X14734Y17729D02*
X15392Y18387D01*
X13513Y17729D02*
X14734D01*
X13444Y17798D02*
X13513Y17729D01*
X12292Y6521D02*
X12442Y6371D01*
X12146Y6521D02*
X12292D01*
X11851Y6816D02*
X12146Y6521D01*
X12014Y7353D02*
X12234D01*
X12692Y6812D02*
X12837Y6667D01*
X11577Y1236D02*
Y1356D01*
X11467Y662D02*
X11577Y552D01*
X3845Y16380D02*
Y17282D01*
X3566Y17561D02*
X3845Y17282D01*
X5562Y6151D02*
X5951D01*
X6030Y6073D01*
X6896D02*
X7320Y5649D01*
Y5364D02*
Y5649D01*
X7249Y5293D02*
X7320Y5364D01*
X4734Y5293D02*
X7249D01*
X4506Y5522D02*
X4734Y5293D01*
X6449Y3246D02*
Y3372D01*
X6360Y3462D02*
X6449Y3372D01*
X4102Y3462D02*
X6360D01*
X4043Y3403D02*
X4102Y3462D01*
X1900Y3403D02*
X4043D01*
X4506Y3261D02*
X4767D01*
X4907Y3401D01*
X5839D01*
X6162Y3078D01*
X6487D01*
X6573Y3164D01*
Y3599D01*
X17988Y5367D02*
X18168Y5547D01*
X19161D01*
X19997Y6333D02*
X20070D01*
X19355Y6783D02*
Y6902D01*
X19263Y6995D02*
X19355Y6902D01*
X19263Y6995D02*
Y7101D01*
X19308Y7146D02*
X19370D01*
X19414Y7102D01*
Y7081D02*
Y7102D01*
Y7081D02*
X19475Y7020D01*
Y6884D02*
X19720Y6639D01*
X19968D01*
X19161Y5547D02*
X19283D01*
X20070Y6333D01*
X21225Y3454D02*
X21316Y3363D01*
X19767D02*
X19858Y3454D01*
X19767Y3246D02*
Y3363D01*
X19233Y3215D02*
X20066Y4047D01*
X20053Y14699D02*
X20170D01*
X20050Y14701D02*
X20053Y14699D01*
X22101Y15967D02*
Y16076D01*
X20170Y15642D02*
X20262D01*
X20337Y15717D01*
X22006D01*
X22225Y15936D02*
Y16190D01*
X21320Y16076D02*
Y16101D01*
X7657Y1126D02*
X7757Y1226D01*
X7657Y662D02*
X7767Y552D01*
X19904Y15642D02*
X20170D01*
X20060Y3314D02*
X20170D01*
X19367Y2882D02*
X19629D01*
X19263Y2834D02*
X19319D01*
X12395Y6177D02*
X12458Y6241D01*
X12103Y6177D02*
X12395D01*
X11663Y5737D02*
X12103Y6177D01*
X12519Y3878D02*
X12552Y3911D01*
X11371Y3744D02*
X11506Y3878D01*
X11371Y3236D02*
Y3744D01*
X11219Y3083D02*
X11371Y3236D01*
X10217Y3269D02*
X10261D01*
X10960Y8872D02*
X11353Y8478D01*
X4950Y11300D02*
X5184D01*
X5229Y11346D01*
X5083Y4683D02*
X5145Y4620D01*
Y4607D02*
X5250Y4502D01*
X5953Y4302D02*
X6189Y4538D01*
X6453D01*
X3029Y4593D02*
X3145D01*
X3214Y4455D02*
Y4524D01*
X4848Y4683D02*
X5083D01*
X5145Y4607D02*
Y4620D01*
X5481Y4506D02*
Y4903D01*
Y4506D02*
X5608Y4379D01*
X5760D01*
X5783Y4401D01*
X5824D01*
X6106Y4683D01*
X7281D01*
X7325Y4639D01*
Y3916D02*
Y4639D01*
X7249Y3840D02*
X7325Y3916D01*
X6332Y3840D02*
X7249D01*
X10391Y10891D02*
Y11313D01*
X10332Y11371D02*
X10391Y11313D01*
X10217Y11371D02*
X10332D01*
X10172Y13762D02*
X10351D01*
X10396Y13632D02*
X10544Y13484D01*
X10491Y14041D02*
X10795D01*
X10392Y14140D02*
X10491Y14041D01*
X10217Y14140D02*
X10392D01*
X10320Y13124D02*
X10360Y13164D01*
Y13568D01*
X10297Y13632D02*
X10360Y13568D01*
X9506Y16150D02*
X9566Y16090D01*
X9594D01*
X10423Y15654D02*
X10485Y15716D01*
X10661D01*
X10932Y15986D01*
Y16409D01*
X12626Y15512D02*
X12745D01*
X12829Y15428D01*
X13175D01*
X13259Y15512D01*
X12669Y15555D02*
Y16020D01*
X12626Y15512D02*
X12669Y15555D01*
X5503Y1599D02*
X5591Y1687D01*
Y1807D02*
X5653Y1869D01*
X6093D01*
X5572Y1930D02*
X5811D01*
X17362Y3368D02*
X17409Y3415D01*
X17362Y3077D02*
Y3368D01*
Y3077D02*
X17394Y3045D01*
X17802D01*
X17622Y3285D02*
X17860Y3524D01*
X17917D01*
X18046Y3394D01*
Y2986D02*
Y3394D01*
X18003Y2943D02*
X18046Y2986D01*
X17759Y2943D02*
X18003D01*
X17391Y2759D02*
X17424Y2727D01*
X17507D01*
X19720Y13548D02*
X19989Y13279D01*
X20741Y12750D02*
X22217D01*
X22220Y12748D01*
Y12280D02*
Y12748D01*
X22208Y12269D02*
X22220Y12280D01*
X10076Y2220D02*
Y2594D01*
Y2220D02*
X10119Y2177D01*
X17893Y16584D02*
X19060D01*
X19147Y16671D01*
X19680D02*
X19767Y16584D01*
X10558Y2752D02*
X12220D01*
X12234Y2738D01*
X3210Y9578D02*
Y9633D01*
Y9578D02*
X3272Y9516D01*
X3004Y6411D02*
X3096Y6502D01*
X3393D02*
X3708Y6817D01*
X1863Y6665D02*
X2026Y6502D01*
X5024Y4375D02*
Y4538D01*
Y4375D02*
X5314Y4085D01*
X5340D01*
X10548Y2230D02*
Y2453D01*
X10469Y2533D02*
X10548Y2453D01*
X10217Y2865D02*
X10258D01*
X17532Y17191D02*
X17576D01*
X12555Y8968D02*
X12669Y8854D01*
Y8552D02*
Y8854D01*
X5439Y6774D02*
X5481Y6816D01*
X17391Y7903D02*
X17436Y7857D01*
X17391Y7903D02*
Y8062D01*
X17437Y8107D01*
X17635Y15994D02*
X17764Y15864D01*
X18605D01*
X19060Y15410D01*
X17835Y9006D02*
X17853D01*
X17891Y8968D01*
X17391Y8157D02*
X17423Y8189D01*
X10217Y9800D02*
X10334D01*
X10421Y9713D01*
Y9367D02*
Y9713D01*
Y9367D02*
X10548Y9240D01*
X10101Y9706D02*
X10138Y9670D01*
X10383Y9855D02*
X10688D01*
X10881Y9662D01*
X11295D01*
X11745Y10111D01*
X3002Y8474D02*
X3056Y8420D01*
X5057D01*
X5189Y8552D01*
X5444Y4437D02*
X5481Y4474D01*
X5439Y4945D02*
X5481Y4903D01*
X5365Y4945D02*
X5439D01*
X17897Y6845D02*
Y7053D01*
X17703Y7247D02*
X17897Y7053D01*
X17703Y7247D02*
Y7363D01*
X17638Y7429D02*
X17703Y7363D01*
X17603Y6283D02*
X17731Y6411D01*
Y7129D01*
X17584Y7277D02*
X17731Y7129D01*
X17507Y7299D02*
X17584D01*
X2753Y6657D02*
X2888Y6792D01*
X2433Y6657D02*
X2753D01*
X2136Y6954D02*
X2433Y6657D01*
X2136Y6954D02*
Y7312D01*
X1915Y7533D02*
X2136Y7312D01*
X1099Y7533D02*
X1915D01*
X955Y7678D02*
X1099Y7533D01*
X9474Y15770D02*
X9504Y15801D01*
X6248Y15872D02*
X6350Y15770D01*
X6153Y15994D02*
X6248D01*
X10530Y3627D02*
X10668Y3490D01*
Y3136D02*
Y3490D01*
X10614Y3083D02*
X10668Y3136D01*
X10217Y1694D02*
X10297D01*
X10307D01*
X10551Y1938D01*
X10899D01*
X12430Y2601D02*
Y2664D01*
X12476Y2710D01*
X12554D01*
X12669Y12438D02*
X12738Y12507D01*
Y13033D01*
X12646Y13124D02*
X12738Y13033D01*
X12397Y16441D02*
X12497Y16341D01*
X12583Y16436D02*
X14361D01*
X14539Y16258D01*
Y15491D02*
Y16258D01*
X14450Y15402D02*
X14539Y15491D01*
X13576Y15402D02*
X14450D01*
X13467Y15512D02*
X13576Y15402D01*
X1863Y9012D02*
X1978Y8897D01*
X1915Y9309D02*
X2138Y9085D01*
X1780Y9309D02*
X1915D01*
X1739Y9268D02*
X1780Y9309D01*
X1739Y8986D02*
Y9268D01*
X3474Y7589D02*
X3688Y7802D01*
X2931Y7589D02*
X3474D01*
X2862Y7521D02*
X2931Y7589D01*
X2862Y7319D02*
Y7521D01*
Y7319D02*
X2899Y7282D01*
X3214Y6762D02*
X3276Y6700D01*
X3003Y6728D02*
Y6774D01*
X3092Y6639D02*
X3418D01*
X3672Y6893D01*
X3843D01*
X3944Y6792D01*
Y6411D02*
Y6792D01*
X3711Y6177D02*
X3944Y6411D01*
X3331Y5040D02*
Y5046D01*
X5439Y9060D02*
X5489Y9109D01*
Y9263D01*
X15533Y9002D02*
X15567Y8968D01*
X17392Y8758D02*
X17442Y8808D01*
X17392Y8622D02*
Y8758D01*
X17116Y9153D02*
Y9283D01*
X16348Y9153D02*
Y9358D01*
X16392Y9403D01*
X16609D01*
X16720Y9514D01*
X17315Y9814D02*
X17340Y9840D01*
X17971Y9535D02*
X18120D01*
X17315Y9865D02*
Y10155D01*
X15987Y17800D02*
Y18397D01*
X17709Y18586D02*
X17893Y18770D01*
Y18892D01*
X17264Y15374D02*
X17487Y15598D01*
X16451Y15374D02*
X17264D01*
X16223Y15146D02*
X16451Y15374D01*
X16223Y14678D02*
Y15146D01*
Y14678D02*
X16266Y14635D01*
X16654D01*
X16949Y14930D01*
X17178D01*
X17251Y14856D01*
X16682Y16428D02*
X17383D01*
X16576Y16322D02*
X16682Y16428D01*
X16576Y16059D02*
Y16322D01*
Y16059D02*
X16615Y16020D01*
X20457Y10810D02*
X20883D01*
X21689Y11615D01*
X22090D01*
X22220Y11745D01*
Y12126D01*
X22076Y12269D02*
X22220Y12126D01*
X19644Y10284D02*
X19744Y10384D01*
X20352Y10914D02*
X20457Y10810D01*
X21231D02*
X21440Y10602D01*
Y10062D02*
Y10602D01*
X21385Y10007D02*
X21440Y10062D01*
X21110Y10007D02*
X21385D01*
X20287Y10254D02*
Y10914D01*
X20401Y13952D02*
X20552Y13801D01*
X20401Y13952D02*
Y14758D01*
X20170Y14829D02*
X20330D01*
X20535Y13500D02*
X21951D01*
X22101Y13650D01*
Y13769D01*
X20170Y14165D02*
X20213D01*
X5365Y13305D02*
X5456D01*
X5783Y13631D02*
X6453D01*
X17532Y12441D02*
X17703D01*
X3136Y3929D02*
X3248Y3817D01*
X4114D02*
X4203Y3728D01*
X19695Y11318D02*
X19893D01*
X19126Y11592D02*
X19420D01*
X18933Y11399D02*
X19126Y11592D01*
X10217Y10203D02*
X10297D01*
X10332Y10239D01*
Y10828D01*
X10297Y8654D02*
X10332Y8689D01*
Y8872D01*
X10215Y8989D02*
X10332Y8872D01*
X12258Y5796D02*
X12471D01*
X10544Y9661D02*
X10671Y9535D01*
X11996Y9461D02*
X12159Y9298D01*
X12297D01*
X12405Y9190D01*
X12344Y8478D02*
X12418Y8552D01*
X12197Y8478D02*
X12344D01*
X12105Y8570D02*
X12197Y8478D01*
X12105Y8570D02*
Y9093D01*
X11872Y9326D02*
X12105Y9093D01*
X12156Y9504D02*
X12303D01*
X12392Y9593D01*
X12554D01*
X4645Y6997D02*
X5481D01*
X4607Y6959D02*
X4645Y6997D01*
X4607Y6284D02*
Y6959D01*
Y6284D02*
X4709Y6182D01*
X5158D01*
X5217Y6241D01*
X17507Y4505D02*
X17622D01*
Y4029D02*
Y4505D01*
X17589Y3997D02*
X17622Y4029D01*
X17507Y3997D02*
X17589D01*
X21320Y10957D02*
Y10957D01*
X1082Y6230D02*
Y6339D01*
X22097Y1724D02*
Y1864D01*
X21320D02*
X22097D01*
X6454Y18549D02*
X6542Y18461D01*
X4716Y18549D02*
X6454D01*
X4605Y18437D02*
X4716Y18549D01*
X10932Y4821D02*
X11216D01*
X10889Y4777D02*
X10932Y4821D01*
X10889Y4638D02*
Y4777D01*
X10282Y4031D02*
X10889Y4638D01*
X10217Y16150D02*
X10277Y16090D01*
X10331D02*
X10489Y15931D01*
X10608D02*
X10663Y15986D01*
X10036Y16322D02*
X10208Y16150D01*
X12669Y5555D02*
Y6241D01*
X5473D02*
X5562Y6151D01*
X9812Y6073D02*
X10081Y6342D01*
X2065Y2199D02*
X2087Y2177D01*
X955Y3109D02*
X1089Y2974D01*
X955Y3469D02*
X993Y3507D01*
X17551Y6251D02*
X18016Y5786D01*
Y5458D02*
Y5786D01*
X17924Y5367D02*
X18016Y5458D01*
X19090Y3434D02*
X19212Y3312D01*
X18185Y3434D02*
X19090D01*
X17622Y3997D02*
X18185Y3434D01*
X19888Y11044D02*
X20170D01*
X19829Y11103D02*
X19888Y11044D01*
X19365Y11478D02*
X19740Y11103D01*
X20170Y8476D02*
X20287Y8359D01*
Y7883D02*
Y8359D01*
X17507Y18222D02*
X17595Y18133D01*
X17917D01*
X18067Y18283D01*
Y18410D01*
X18260Y18603D01*
X18757D01*
X18793Y18638D01*
X19014D01*
X20119Y18763D02*
X20145D01*
X19771Y16076D02*
Y16284D01*
X19898Y16411D01*
Y16629D01*
X20076Y16807D01*
X20802Y16124D02*
X20936D01*
X13667Y3902D02*
Y4032D01*
X14416Y3902D02*
Y4032D01*
X3136Y8657D02*
X3272Y8793D01*
X13909Y1724D02*
X14412D01*
X13863Y1770D02*
X13909Y1724D01*
X11567Y3083D02*
X11719Y3236D01*
X12669Y3331D02*
Y3980D01*
X12632Y3294D02*
X12669Y3331D01*
X5365Y6774D02*
X5439D01*
X3761Y6177D02*
X4582Y6997D01*
X3147Y6241D02*
X3210Y6177D01*
X3003Y6241D02*
X3147D01*
X5153Y2588D02*
X5250Y2685D01*
X4269Y2588D02*
X5153D01*
X3652Y1971D02*
X4269Y2588D01*
X17577Y3285D02*
X17622Y3331D01*
Y3997D01*
X7202Y6211D02*
Y6339D01*
Y6211D02*
X7249Y6164D01*
X9789D01*
X9828Y6204D01*
X7010Y17841D02*
Y18237D01*
Y17841D02*
X7140Y17711D01*
X2888Y9426D02*
X3003Y9541D01*
X2888Y9129D02*
Y9426D01*
Y9129D02*
X2931Y9085D01*
X3003D01*
X10548Y1600D02*
Y1724D01*
X13667Y1602D02*
Y1724D01*
X4229Y14184D02*
X4321Y14277D01*
X17893Y2738D02*
X19147D01*
X19232Y2653D01*
X19681D02*
X19767Y2738D01*
X5079Y11824D02*
X5141Y11886D01*
X5591D02*
Y11917D01*
Y11886D02*
X5653Y11824D01*
X5231Y6371D02*
X5365D01*
X3413Y11828D02*
X3454Y11869D01*
X3119Y10968D02*
X3150Y10999D01*
Y11063D01*
X4988Y12305D02*
X5222D01*
X11546Y3558D02*
X11964D01*
X12098Y3424D01*
X14384Y4379D02*
X14416Y4410D01*
Y4538D01*
X18882Y16494D02*
X19288Y16088D01*
X9476Y17711D02*
X9994D01*
X8933Y18255D02*
X9476Y17711D01*
X8933Y18255D02*
Y18488D01*
X9154Y18709D01*
X9989D01*
X17595Y19392D02*
X17622Y19365D01*
Y19337D02*
X17801Y19157D01*
X18048D02*
X18120Y19085D01*
X20899Y12089D02*
X20943D01*
X20515Y12151D02*
X20899D01*
X20426Y12062D02*
X20515Y12151D01*
X20426Y11796D02*
Y12062D01*
Y11796D02*
X20552Y11671D01*
Y11463D02*
Y11671D01*
X12367Y14508D02*
Y14602D01*
X12438Y14673D01*
X2888Y2220D02*
X2931Y2177D01*
X2888Y2220D02*
Y2659D01*
X2978D01*
X2931Y6774D02*
X3003D01*
X2888Y6817D02*
X2931Y6774D01*
X2888Y6817D02*
Y7282D01*
X5439Y2177D02*
X5622Y1993D01*
X13134Y8481D02*
X13231Y8577D01*
X16692Y15923D02*
X16774Y15842D01*
X17335D01*
X19891Y11554D02*
X19893Y11552D01*
X10544Y17092D02*
Y17206D01*
X10440Y17310D02*
X10544Y17206D01*
X9052Y17141D02*
X9221Y17310D01*
X10106Y17823D02*
X10217D01*
X9151Y17554D02*
X9837D01*
X8930Y17333D02*
X9151Y17554D01*
X8930Y16936D02*
Y17333D01*
Y16936D02*
X9027Y16840D01*
X9845D01*
X10106Y16578D01*
X12110Y14602D02*
Y15245D01*
Y14602D02*
X12181Y14531D01*
X12247D01*
X12390Y14673D01*
X5979Y8402D02*
X6057Y8481D01*
X5468Y8402D02*
X5979D01*
X10138Y7917D02*
X10217D01*
X10101Y7954D02*
X10138Y7917D01*
X10101Y7954D02*
Y8617D01*
X10128Y4634D02*
X10217D01*
X10102Y4608D02*
X10128Y4634D01*
X10042Y4311D02*
X10102Y4371D01*
X10042Y3948D02*
Y4311D01*
X10103Y3887D02*
X10694D01*
X10102Y4091D02*
X10162Y4031D01*
X10102Y4091D02*
Y4231D01*
X17391Y6530D02*
X17462Y6601D01*
X17391Y6315D02*
Y6530D01*
Y6315D02*
X17424Y6283D01*
X10101Y5412D02*
X10193Y5504D01*
X10101Y5109D02*
Y5412D01*
Y5109D02*
X10138Y5072D01*
X10101Y6379D02*
X10138Y6342D01*
X10106Y12543D02*
X10217D01*
X10080Y11970D02*
X10145Y11905D01*
X17416Y10856D02*
X17459Y10813D01*
X17416Y10856D02*
Y11295D01*
X20543Y12244D02*
X20569Y12269D01*
X2402Y2177D02*
X2507Y2072D01*
X2771D01*
X2875Y2177D01*
X2397Y9085D02*
X2486Y8996D01*
X2778D01*
X2867Y9085D01*
X20145Y18763D02*
X20163Y18780D01*
X20279D01*
X20433Y1634D02*
X20489Y1579D01*
X21442Y2147D02*
Y2313D01*
X20359Y4047D02*
X20489Y4177D01*
X21945D01*
X22222Y4455D01*
Y4620D01*
X21387Y4912D02*
X21931D01*
X21375Y4901D02*
X21387Y4912D01*
X21231Y4926D02*
X21257Y4901D01*
X19645Y5418D02*
Y5636D01*
X19708Y5699D01*
X20225Y4994D02*
X20537Y4683D01*
X20611D01*
X20673Y4442D02*
Y4620D01*
X5506Y11373D02*
Y11714D01*
X2580Y13408D02*
X2701D01*
X2465Y13294D02*
X2580Y13408D01*
X2046Y13294D02*
X2465D01*
X5750Y15931D02*
X5775D01*
X5704Y15885D02*
X5750Y15931D01*
X5595Y15993D02*
X5704Y15885D01*
X5595Y15993D02*
Y16298D01*
X19649Y2147D02*
Y2163D01*
X19365Y2448D02*
X19649Y2163D01*
X20170Y1764D02*
X20375D01*
X20567Y1956D02*
X20652D01*
X20928Y2232D01*
X21320Y2230D02*
Y2232D01*
X19771Y2230D02*
Y2253D01*
X19929D02*
X19949Y2272D01*
X20170Y2806D02*
X20215D01*
X22101Y2498D02*
X22220Y2616D01*
X20552Y2230D02*
Y2347D01*
X17269Y1841D02*
X17507D01*
Y2349D02*
X17623D01*
X17776Y2195D01*
Y2147D02*
X17838Y2085D01*
X17957D01*
X18019Y2147D01*
Y2194D01*
X20096Y4252D02*
X20170Y4177D01*
X20366D02*
X20426Y4237D01*
X20688D01*
X20793Y4490D02*
X20842Y4539D01*
X19771Y4538D02*
Y4685D01*
X19585Y5394D02*
Y5661D01*
X19683Y5759D02*
X19851D01*
X17116Y4279D02*
Y4538D01*
X17269Y4127D02*
X17507D01*
X17897Y4538D02*
X18044Y4684D01*
X18200D01*
X18304Y4788D01*
Y4859D01*
X18190Y4911D02*
X18253D01*
X18120Y4841D02*
X18190Y4911D01*
X17712Y4938D02*
X17810Y4841D01*
X17712Y4938D02*
Y5045D01*
X19952Y6463D02*
X20170D01*
X19870Y6545D02*
X19952Y6463D01*
X19415Y6859D02*
X19730Y6545D01*
X19415Y6859D02*
Y6995D01*
X19339Y7071D02*
X19415Y6995D01*
X20215Y6487D02*
X21916D01*
X21974Y6545D01*
X22105D02*
X22225Y6665D01*
Y6926D01*
X21320Y6870D02*
X21549Y7099D01*
X19771Y6845D02*
Y6870D01*
X19949Y6971D02*
X20170D01*
X20552Y6845D02*
Y6948D01*
X20267Y7233D02*
X20552Y6948D01*
X19771Y9153D02*
Y9177D01*
X20055Y9317D02*
X20170D01*
X17507Y9749D02*
X17562D01*
Y9704D02*
X17577Y9689D01*
X17595D01*
X17622Y9662D01*
Y9644D02*
X17810Y9456D01*
X17814D02*
X17897Y9372D01*
X20170Y11044D02*
X20302D01*
X20370Y11112D01*
X21092D01*
X17532Y11425D02*
X17667D01*
X17776Y11534D01*
Y11544D01*
X17838Y11606D01*
X19989Y13279D02*
X20170D01*
X19771Y13769D02*
X19777Y13762D01*
X20170D01*
X16694Y16150D02*
X16896D01*
X17075Y16329D02*
X17758D01*
X17897Y16076D02*
Y16190D01*
X17155Y16847D02*
X17345Y17038D01*
Y17127D01*
X17409Y17191D01*
X20552Y18361D02*
Y18384D01*
X20732Y18361D02*
X20734Y18359D01*
X20961D01*
X19771Y18361D02*
Y18384D01*
X19934Y18361D02*
X19936Y18359D01*
X17507Y18436D02*
X17625D01*
X12930Y18384D02*
Y18487D01*
X9832Y18102D02*
Y18384D01*
Y18102D02*
X9982Y17953D01*
X10217D01*
X13667Y15864D02*
Y16112D01*
X13444Y15642D02*
X13667Y15864D01*
X13316Y15642D02*
X13444D01*
X12238Y15860D02*
Y16112D01*
Y15860D02*
X12456Y15642D01*
X12646Y16150D02*
X12860Y15936D01*
X13124D01*
X13479Y16291D02*
X14377D01*
X10548Y16076D02*
Y16273D01*
X10378Y16444D02*
X10548Y16273D01*
X10378Y16444D02*
Y16634D01*
X10304Y16708D02*
X10378Y16634D01*
X9288Y16150D02*
X9506D01*
X14465Y13977D02*
X14539Y13904D01*
X13741Y13977D02*
X14465D01*
X13667Y13724D02*
Y13904D01*
X9832Y13543D02*
Y13769D01*
X10121Y13254D02*
X10217D01*
X12554Y11501D02*
X12633D01*
X12857Y11277D02*
X14361D01*
X14416Y11332D01*
Y11461D01*
X12554Y12035D02*
X12646D01*
X12969Y11712D01*
X13599D01*
X9832Y11259D02*
Y11461D01*
X10478Y11316D02*
X10608D01*
X10670Y11378D02*
Y11406D01*
X10729Y11465D01*
X13290Y8707D02*
X13454D01*
X13563Y8816D02*
X14404D01*
X14539Y8951D02*
Y9268D01*
X13771Y9372D02*
X14434D01*
X12238Y8945D02*
X12392Y8791D01*
Y8745D02*
Y8791D01*
X12456Y8682D02*
X12554D01*
X12868Y8968D02*
X14370D01*
X14416Y9014D01*
X12554Y9723D02*
X12646D01*
X12930Y9440D01*
Y9153D02*
Y9440D01*
X9832Y8933D02*
Y9153D01*
X9982Y8784D02*
X10217D01*
X8296Y9001D02*
Y9153D01*
Y9001D02*
X8328Y8968D01*
X9692Y9220D02*
X9789Y9317D01*
X10217D02*
X10277Y9257D01*
X10305D02*
X10332Y9231D01*
X10489Y9008D02*
X10710D01*
X12554Y6371D02*
X12677D01*
X12898Y6591D01*
X14539Y6665D02*
Y6982D01*
X14442Y7079D02*
X14539Y6982D01*
X13667D02*
X13764Y7079D01*
X12438Y7412D02*
X12554D01*
X12438Y7211D02*
Y7412D01*
X14361Y6667D02*
X14416Y6722D01*
Y6845D01*
X9832D02*
Y6870D01*
X9916D02*
X10002Y6957D01*
Y6982D01*
X10338Y6472D02*
X10427Y6561D01*
X8296Y6728D02*
Y6845D01*
X10101Y6943D02*
X10138Y6980D01*
X10217D01*
X10548Y6845D02*
Y6980D01*
X10363Y7165D02*
X10548Y6980D01*
X10363Y7165D02*
Y7422D01*
X10297Y7488D02*
X10363Y7422D01*
X10315Y4161D02*
X10406Y4252D01*
X9832Y4538D02*
Y4664D01*
X8296Y4393D02*
Y4538D01*
Y4393D02*
X8328Y4361D01*
X9873D01*
X10106Y4694D02*
X10217D01*
X10548Y4538D02*
Y4721D01*
X10386Y4884D02*
X10548Y4721D01*
X10386Y4884D02*
Y5113D01*
X10297Y5202D02*
X10386Y5113D01*
X12367Y1799D02*
X12573D01*
X12646Y1872D01*
X14361D02*
X14539Y2049D01*
X14488Y2377D02*
X14539Y2326D01*
X13667Y2377D02*
X14488D01*
X12238Y2230D02*
Y2308D01*
X12397Y2307D02*
X12554D01*
X12692Y2235D02*
Y2789D01*
Y2235D02*
X12903Y2024D01*
X14347D01*
X14416Y2093D02*
Y2230D01*
X12098Y3424D02*
X12554D01*
X12710Y2941D02*
X12783Y2867D01*
Y2584D02*
Y2867D01*
X9979Y1824D02*
X10217D01*
X10500Y2067D02*
X10590D01*
X6415Y2438D02*
X7122D01*
X3098Y2307D02*
X3214Y2191D01*
Y2147D02*
Y2191D01*
X3276Y2085D02*
X3431D01*
X2643Y2230D02*
Y2308D01*
X2446Y2307D02*
X2448Y2308D01*
X2267Y2307D02*
X2446D01*
X6233Y4085D02*
X6687Y4539D01*
X5365Y5075D02*
X5471D01*
X5716Y4830D01*
X2860Y4059D02*
X3029D01*
X2693Y4226D02*
X2860Y4059D01*
X2918Y5066D02*
X2978Y5126D01*
X2550Y5704D02*
X2888D01*
X2517Y5671D02*
X2550Y5704D01*
X2584Y4393D02*
X2702D01*
X2764Y4455D01*
X3185Y4790D02*
X3335Y4640D01*
Y4538D02*
Y4640D01*
X5471Y6371D02*
X5767Y6667D01*
X7202Y6716D02*
Y6845D01*
X4750Y7182D02*
X4785Y7147D01*
X4750Y7182D02*
Y7391D01*
X4857Y7498D02*
X5079D01*
X5165Y7412D01*
X3335Y6845D02*
Y7139D01*
X6102Y8682D02*
X6146D01*
X6233Y8867D02*
X7122D01*
X5024Y8953D02*
Y9153D01*
Y8953D02*
X5295Y8682D01*
X5413Y9723D02*
X5456Y9681D01*
Y9592D02*
Y9681D01*
Y9592D02*
X5716Y9332D01*
X2643Y9153D02*
Y9215D01*
X3335Y9153D02*
Y9215D01*
X5365Y11984D02*
X5439D01*
X5516Y11907D01*
Y11788D02*
X5566Y11738D01*
Y11302D02*
X5598Y11270D01*
X7122D01*
X7202Y11350D01*
Y11461D01*
X5024D02*
Y11478D01*
X2747Y11485D02*
X2763Y11501D01*
X3029D01*
X1841Y11797D02*
X2039D01*
X3390Y12114D02*
X3531Y11973D01*
X3272Y12114D02*
X3390D01*
X3003Y12035D02*
X3193D01*
X3029Y13356D02*
X3043D01*
X3216Y13528D02*
X3368D01*
X6153Y16124D02*
X6233D01*
X6310Y16047D01*
Y15952D02*
Y16047D01*
X7123Y15831D02*
X7227Y15936D01*
Y16073D01*
X5024Y16076D02*
Y16101D01*
X5319D02*
X5321Y16099D01*
X5365D01*
X5365Y16658D02*
X5410D01*
X2368Y16124D02*
X2595D01*
X2643Y16076D02*
X2961Y15758D01*
X3515D01*
X3003Y16124D02*
X3063Y16064D01*
X3096D01*
X3229Y15931D02*
X3394D01*
X3118Y16536D02*
Y16571D01*
Y16536D02*
X3335Y16319D01*
Y16076D02*
Y16319D01*
X3613Y16598D02*
Y16658D01*
Y16598D02*
X3701D01*
X3728Y16459D02*
Y16571D01*
Y16459D02*
X3769Y16418D01*
X5024Y18384D02*
Y18437D01*
X5181Y18436D02*
X5340D01*
X6813Y18969D02*
X6938D01*
X1082Y18384D02*
Y18474D01*
X1518Y18909D02*
X1546D01*
X3003Y17928D02*
Y18052D01*
X1632Y18461D02*
X1786D01*
X17383Y670D02*
X17527Y814D01*
X5712Y2738D02*
X6449D01*
X7198D02*
X8292D01*
X9052D01*
X9828D01*
X15529D02*
X16344D01*
X17112D01*
X21316D02*
X22097D01*
X21316Y5046D02*
X22097D01*
X21316Y7353D02*
X22097D01*
X21316Y9661D02*
X22097D01*
X21316Y11971D02*
X22097D01*
X20548Y9661D02*
X21316D01*
X20548Y11971D02*
X21316D01*
X20548Y14277D02*
X21316D01*
Y16584D02*
X22097D01*
X19740Y7326D02*
X19767Y7353D01*
X18749Y7326D02*
X19740D01*
X18773Y9638D02*
X18839D01*
X17893Y9661D02*
X18749D01*
X15529Y7353D02*
X16344D01*
Y5046D02*
X17112D01*
X14412Y7353D02*
X15529D01*
X16344Y14277D02*
X17112D01*
X13663Y7353D02*
X14412D01*
Y5046D02*
X15529D01*
X13663D02*
X14412D01*
X12926D02*
X13663D01*
X15484Y14232D02*
X15529Y14277D01*
X14412Y14232D02*
X15484D01*
X15529Y16584D02*
X16344D01*
Y9661D02*
X17112D01*
X15529D02*
X16344D01*
X15529Y11969D02*
X16344D01*
X14412Y9661D02*
X15529D01*
X11599Y5046D02*
X12234D01*
X10544D02*
X10678Y4912D01*
X9052Y5046D02*
X9828D01*
X11567Y16367D02*
X11819Y16620D01*
X7198Y5046D02*
X8292D01*
X12061Y11797D02*
X12234Y11969D01*
X11038D02*
X11210Y11797D01*
X8292Y7353D02*
X9052D01*
X6449Y5046D02*
X7198D01*
X9052Y14277D02*
X9828D01*
X6449Y7353D02*
X7198D01*
Y14277D02*
X8292D01*
X5712Y7353D02*
X6449D01*
X9052Y11969D02*
X9828D01*
X5712Y14277D02*
X6449D01*
X6487Y16581D02*
X6490Y16584D01*
X7198Y18892D02*
X8292D01*
Y9661D02*
X9052D01*
X4519Y16584D02*
X5020D01*
X5712Y9661D02*
X6449D01*
X3331Y18892D02*
X3576D01*
X3331Y9661D02*
X5020D01*
X5712Y11969D02*
Y12094D01*
X2639Y11969D02*
Y11971D01*
X2063Y19400D02*
X2639D01*
X1800Y19255D02*
X1918D01*
X1655Y19400D02*
X1800Y19255D01*
X1610Y17089D02*
X1864Y17343D01*
X3194D02*
X3331Y17206D01*
X5020Y17092D02*
X5508D01*
X1859Y14785D02*
Y14920D01*
X1971Y15031D01*
X5600D02*
X5712Y14920D01*
Y14785D02*
Y14920D01*
Y12374D02*
Y12477D01*
X5582Y12245D02*
X5712Y12374D01*
X4963Y12245D02*
X5582D01*
X4779Y12429D02*
X4963Y12245D01*
X4228Y12623D02*
X4422Y12429D01*
X2639Y12585D02*
X2677Y12623D01*
X3331Y10169D02*
Y10170D01*
X2143Y10358D02*
X6376D01*
X1978Y10193D02*
X2143Y10358D01*
X1859Y10169D02*
Y10193D01*
X1315Y7861D02*
X1678Y8223D01*
X1078Y5552D02*
Y5554D01*
X7198Y5444D02*
Y5554D01*
X7154Y5400D02*
X7198Y5444D01*
X5058Y5400D02*
X7154D01*
X9037Y1236D02*
Y1356D01*
X8927Y778D02*
X9037Y668D01*
Y552D02*
Y668D01*
X9588Y3500D02*
X10407D01*
X10544Y3363D01*
X12926Y3246D02*
Y3363D01*
X12994Y3431D01*
X14368D01*
X14412Y3388D01*
Y3246D02*
Y3388D01*
X12234Y3109D02*
Y3246D01*
X13631Y3086D02*
X13663Y3119D01*
Y3246D01*
X9797Y5395D02*
X9828Y5426D01*
Y5554D01*
X12234Y5436D02*
X12264Y5406D01*
X13631D01*
X9431Y7863D02*
X9588Y7706D01*
X12264Y7692D02*
X13599D01*
X13663Y7756D01*
Y10038D02*
Y10169D01*
X12265Y9992D02*
X13617D01*
X12234Y10024D02*
X12265Y9992D01*
X12234Y12320D02*
Y12477D01*
X10544Y14785D02*
Y14920D01*
X9052Y14785D02*
Y14920D01*
X13599Y14968D02*
X13663Y14904D01*
X12329Y14968D02*
X13599D01*
X17893Y17092D02*
Y17206D01*
X17129Y17345D02*
X17754D01*
X20548Y16952D02*
Y17092D01*
X21582Y16916D02*
X21760Y17094D01*
X22097Y17092D02*
Y17094D01*
X19767Y17206D02*
X19848Y17287D01*
X17893Y14785D02*
Y14920D01*
X17112Y14641D02*
Y14785D01*
X15631Y14556D02*
X17028D01*
X15529Y14658D02*
X15631Y14556D01*
X20548Y14658D02*
Y14785D01*
Y14658D02*
X20584Y14622D01*
X22054D01*
X22097Y14666D01*
Y14785D01*
X17893Y12477D02*
Y12591D01*
X17853Y12631D02*
X17893Y12591D01*
X16393Y12631D02*
X17853D01*
X16344Y12477D02*
Y12582D01*
X20548Y12479D02*
Y12602D01*
X17893Y10169D02*
Y10284D01*
X16418Y10358D02*
X17820D01*
X16344Y10169D02*
Y10284D01*
X19767Y10030D02*
Y10169D01*
X17893Y5554D02*
Y5712D01*
X17807Y5798D02*
X17893Y5712D01*
X16344Y5552D02*
Y5554D01*
X15567Y5377D02*
X17067D01*
X20779Y5407D02*
X20927Y5555D01*
X15621Y3017D02*
X17028D01*
X17112Y3102D02*
Y3246D01*
X15378Y1573D02*
X15529Y1724D01*
X10172Y18461D02*
X10202D01*
X10332Y18816D02*
X10392Y18756D01*
X10106Y18600D02*
X10172Y18534D01*
X10157Y18401D02*
Y18416D01*
X10277Y18934D02*
Y18949D01*
X10232Y18994D02*
X10277Y18949D01*
X12717Y17928D02*
X12854Y18064D01*
X12554Y17928D02*
X12717D01*
X12609Y18144D02*
X12621Y18133D01*
X12587Y18298D02*
X12710D01*
X12785Y18322D02*
X12906Y18201D01*
X12785Y18322D02*
Y18329D01*
X17382Y18999D02*
X17486Y19103D01*
X17338Y18934D02*
X17382Y18978D01*
X17232D02*
X17276Y18934D01*
X17232Y18978D02*
Y18999D01*
X17307Y19122D02*
X17454Y19269D01*
X16622Y18736D02*
X16989Y19103D01*
X15196Y18736D02*
X16622D01*
X20273Y18893D02*
X20354Y18811D01*
X20056Y18893D02*
X20273D01*
X20354Y18800D02*
Y18811D01*
Y18800D02*
X20607Y18547D01*
X11670Y16957D02*
X11695Y16983D01*
X2735Y9806D02*
X2888Y9653D01*
X2562Y9789D02*
X2580Y9806D01*
X1966Y9789D02*
X2562D01*
X1907Y10703D02*
X2702D01*
X5725Y12684D02*
X6233Y12176D01*
X5391Y11346D02*
X5429D01*
X5566Y11302D02*
Y11738D01*
X5516Y11788D02*
Y11907D01*
X5800Y11824D02*
X5960Y11984D01*
X5653Y11824D02*
X5800D01*
X1863Y11104D02*
X2697D01*
X2804Y10834D02*
Y10998D01*
X4422Y12429D02*
X4779D01*
X2677Y12623D02*
X4228D01*
X4675Y11033D02*
X4979D01*
X4986Y11040D01*
X4302Y11491D02*
X4633Y11160D01*
X3340Y11104D02*
X4604D01*
X3797Y11690D02*
X3818Y11668D01*
X3713D02*
X3735Y11690D01*
X2639Y12477D02*
Y12585D01*
X961Y13864D02*
X1635Y14539D01*
X961Y13686D02*
Y13864D01*
Y13686D02*
X1099Y13548D01*
X1421D01*
X5061Y13851D02*
X5110D01*
X5158Y13898D02*
X5349D01*
X5556Y14106D01*
X5591Y14702D02*
X5653Y14640D01*
X5512Y14662D02*
Y14751D01*
X5420Y14843D02*
X5512Y14751D01*
X3355Y16764D02*
X3452Y16667D01*
X3405Y16834D02*
X3512Y16727D01*
X3538Y16658D02*
X3613D01*
X1081Y16073D02*
X1842Y16834D01*
X2550Y16469D02*
X2580Y16439D01*
X2060Y16469D02*
X2550D01*
X1747Y15990D02*
Y16156D01*
Y15990D02*
X1809Y15928D01*
X2827Y16300D02*
X3003Y16124D01*
X2753Y16240D02*
X2888Y16105D01*
X5500Y15834D02*
X5585D01*
X5654Y15765D01*
X7349Y15941D02*
Y16156D01*
X6817Y15910D02*
X7147Y16240D01*
X6436Y15910D02*
X6817D01*
X6370Y15977D02*
X6436Y15910D01*
X6430Y15831D02*
X7123D01*
X6310Y15952D02*
X6430Y15831D01*
X6093Y16064D02*
X6153Y16124D01*
X5775Y15931D02*
X6102Y16258D01*
X5464Y16221D02*
X5535Y16151D01*
X4882Y16291D02*
X5141D01*
X4858Y16471D02*
X4929D01*
X4961Y16439D01*
X5079D01*
X4900Y16379D02*
X5104D01*
X4887Y16393D02*
X4900Y16379D01*
X5104D02*
X5201Y16477D01*
X5079Y16439D02*
X5141Y16501D01*
X4702Y16729D02*
X5079D01*
X5201Y16610D02*
X5249Y16658D01*
X5410D02*
X5716Y16351D01*
X6328Y18306D02*
X6394Y18239D01*
X3210Y17888D02*
Y17962D01*
X3621Y18373D01*
X3749D02*
X3947Y18175D01*
X5058Y13854D02*
X5061Y13851D01*
X2701Y13408D02*
X2824Y13286D01*
X2745Y13468D02*
X2857Y13356D01*
X2493Y13468D02*
X2745D01*
X2476Y13451D02*
X2493Y13468D01*
X2042Y13451D02*
X2476D01*
X3029Y13226D02*
X3145D01*
X3210Y13290D01*
X3272Y13408D02*
X3333D01*
X3550Y13625D01*
X3571D01*
X3615Y13669D01*
X3542Y13974D02*
X3585Y13930D01*
X3251Y13974D02*
X3542D01*
X2908Y14034D02*
X3588D01*
X3368Y13528D02*
X3540Y13700D01*
X3043Y13356D02*
X3216Y13528D01*
X4594Y14094D02*
X4683Y14004D01*
X3374Y14234D02*
X4095D01*
X3331Y14277D02*
X3374Y14234D01*
X3214Y13852D02*
X3276Y13914D01*
X3029Y13864D02*
Y13874D01*
X3214Y13815D02*
Y13852D01*
X1722Y13980D02*
X1937D01*
X2728Y13650D02*
X2945D01*
X3394Y15931D02*
X3601Y16139D01*
X3617D01*
X9255Y1271D02*
Y1356D01*
X10510Y11743D02*
X10531D01*
X11893Y4942D02*
X11934Y4901D01*
X12085Y1236D02*
Y1356D01*
X9255Y1271D02*
X9291Y1236D01*
X11582Y2842D02*
X12133D01*
X11110Y1277D02*
Y1356D01*
X10959Y1126D02*
X11110Y1277D01*
X12339Y1236D02*
Y1356D01*
X12847Y1236D02*
Y1356D01*
X16444Y13929D02*
X16469Y13904D01*
X17576Y17191D02*
X18095Y16672D01*
X13753Y1126D02*
X13878Y1251D01*
X17896Y11971D02*
X18727D01*
X17714Y12430D02*
X18095Y12049D01*
X18019Y2194D02*
X18272Y2448D01*
X3003Y2307D02*
X3098D01*
X5655Y2253D02*
Y2273D01*
X5583Y2345D02*
X5655Y2273D01*
X5151Y2307D02*
X5365D01*
X5297Y2883D02*
X5365Y2815D01*
X4961Y2883D02*
X5297D01*
X10392Y2686D02*
X10485Y2593D01*
X10332Y2661D02*
X10460Y2533D01*
X10469D01*
X10305Y2805D02*
X10332Y2779D01*
X10258Y2805D02*
X10305D01*
X10258D02*
Y2833D01*
X10272Y2847D01*
X12220Y2752D02*
X12234Y2738D01*
X10544D02*
X10558Y2752D01*
X12293Y2593D02*
X12355Y2655D01*
Y2757D02*
X12437Y2840D01*
X12220Y2883D02*
X12278Y2941D01*
X12174Y2883D02*
X12220D01*
X12133Y2842D02*
X12174Y2883D01*
X17776Y2147D02*
Y2195D01*
X19314Y2448D02*
X19365D01*
X19649Y2147D02*
X20032Y1764D01*
X20170D01*
X20215Y2806D02*
X20276D01*
X20489Y2593D01*
X20490D01*
X20673Y2410D01*
X19232Y2653D02*
X19681D01*
X19593Y4252D02*
X20096D01*
X19314Y4988D02*
X19339D01*
X19739Y5074D02*
X19767Y5046D01*
X19263Y5048D02*
X19289Y5074D01*
X18222Y4836D02*
X18244Y4813D01*
X17810Y4841D02*
X18120D01*
X18253Y4911D02*
X18304Y4859D01*
X17893Y5046D02*
X17911Y5063D01*
X18278D01*
X18293Y5048D01*
X17615Y5143D02*
X17712Y5045D01*
X17507Y5143D02*
X17615D01*
X12238Y4538D02*
Y4643D01*
X11465Y4912D02*
X11599Y5046D01*
X10694Y3887D02*
X10983Y4175D01*
X10217Y4634D02*
Y4694D01*
X10406Y4252D02*
Y4696D01*
X10217Y4161D02*
X10315D01*
X10881Y5014D02*
Y5039D01*
X10511Y5409D02*
X10881Y5039D01*
X10485Y5409D02*
X10511D01*
X6067Y4025D02*
X6127Y4085D01*
X6012Y4025D02*
X6067D01*
X4899Y3949D02*
Y4011D01*
X4710Y4779D02*
Y4835D01*
X5305Y5015D02*
X5365Y5075D01*
X5250Y5015D02*
X5305D01*
X3154Y4059D02*
X3272Y4177D01*
X3796D01*
X3900Y4281D01*
X3744Y4742D02*
Y4760D01*
X3394Y4393D02*
X3744Y4742D01*
X3276Y4393D02*
X3394D01*
X3214Y4455D02*
X3276Y4393D01*
X3145Y4593D02*
X3214Y4524D01*
X2643Y4538D02*
Y4819D01*
X2889Y5066D01*
X2918D01*
X2517Y4459D02*
Y5671D01*
Y4459D02*
X2584Y4393D01*
X2517Y6970D02*
X2643Y6845D01*
X3276Y6700D02*
X3394D01*
X3214Y6762D02*
Y6810D01*
X3119Y6904D02*
X3214Y6810D01*
X3003Y6904D02*
X3119D01*
X4899Y7778D02*
X5195Y7482D01*
X5165Y7412D02*
X5365D01*
X5767Y6667D02*
X7154D01*
X5365Y6371D02*
X5471D01*
X4899Y7778D02*
Y7818D01*
X4836Y7881D02*
X4899Y7818D01*
X4683Y6919D02*
X5231Y6371D01*
X4750Y7391D02*
X4857Y7498D01*
X10544Y7353D02*
X10597Y7301D01*
X12181D02*
X12234Y7353D01*
X10217Y6980D02*
X10277Y6920D01*
X11821Y7376D02*
X12009Y7564D01*
X12202D01*
X17917Y7607D02*
X17942D01*
X17917Y7579D02*
Y7607D01*
X17462Y6921D02*
X17507D01*
X20170Y9850D02*
X20175Y9845D01*
X20426Y9578D02*
X20736Y9268D01*
Y9103D02*
Y9268D01*
X22145Y9850D02*
X22220Y9776D01*
X19415Y9230D02*
X19836Y8809D01*
X20170D01*
X17559Y8704D02*
X17562Y8701D01*
X17502Y8682D02*
X17562D01*
X17953Y9516D02*
X17971Y9535D01*
X17834Y9516D02*
X17953D01*
X17810Y9456D02*
X17814D01*
X17622Y9644D02*
Y9662D01*
X17315Y9586D02*
Y9814D01*
X12405Y9190D02*
X12554D01*
X12375Y9723D02*
X12554D01*
X12293Y9806D02*
X12375Y9723D01*
X10025Y9593D02*
Y9941D01*
X10277Y9257D02*
X10305D01*
X10332Y9166D02*
Y9231D01*
Y9166D02*
X10489Y9008D01*
X10710D02*
X10729Y9027D01*
X5885Y8682D02*
X6102D01*
X4961Y9806D02*
X5257D01*
X4893Y9738D02*
X4961Y9806D01*
X3003Y8657D02*
X3136D01*
X3272Y8793D02*
X3332D01*
X3119Y9723D02*
X3210Y9633D01*
X3003Y9723D02*
X3119D01*
X3029Y10968D02*
X3119D01*
X3336Y11100D02*
X3340Y11104D01*
X3193Y12035D02*
X3272Y12114D01*
X3531Y11973D02*
X3540D01*
X3413Y11886D02*
X3431Y11869D01*
X3331Y11969D02*
X3413Y11886D01*
Y11828D02*
Y11886D01*
X5090Y12143D02*
X5663D01*
X5020Y12073D02*
X5090Y12143D01*
X5020Y11969D02*
Y12073D01*
X5141Y11886D02*
Y11918D01*
X5663Y12143D02*
X5712Y12094D01*
X4674Y11714D02*
Y11728D01*
X4659Y11637D02*
Y11699D01*
X4674Y11714D01*
X5264Y11924D02*
X5305D01*
X5960Y11984D02*
X6077D01*
X5005D02*
X5020Y11969D01*
X10540Y11583D02*
X10550D01*
X10540D02*
X10548Y11574D01*
Y11461D02*
Y11574D01*
X10217Y11501D02*
X10292D01*
X10478Y11316D01*
X10608D02*
X10670Y11378D01*
X12112Y18975D02*
X12174Y19037D01*
X11819Y16620D02*
X12234D01*
X12297Y16257D02*
X12404Y16150D01*
X11872Y16393D02*
X12008Y16257D01*
X12659Y11607D02*
X12806Y11461D01*
X12930D01*
X12161Y11237D02*
X12345D01*
X12430Y11322D01*
X12126Y11262D02*
X12136D01*
X12161Y11237D01*
X12430Y11407D02*
X12465Y11441D01*
X12494D01*
X11942Y11492D02*
X12019D01*
X12050Y11461D01*
X11898Y11536D02*
Y11598D01*
X11942Y11642D02*
X12004D01*
X12019Y11627D01*
X12061D01*
X12439Y11885D02*
Y11948D01*
X12465Y11975D01*
X12494D02*
X12554Y12035D01*
X12357Y11888D02*
Y12080D01*
X12061Y11627D02*
X12258Y11824D01*
X11210Y11797D02*
X12061D01*
X12192Y12171D02*
X12265D01*
X12110Y12253D02*
X12192Y12171D01*
X12110Y12253D02*
Y12570D01*
X17172Y12332D02*
X17281Y12441D01*
X17647Y11899D02*
X17737Y11808D01*
X17648Y11491D02*
X17716Y11559D01*
Y11569D01*
X17814Y11666D01*
X17602Y11536D02*
X17648Y11491D01*
X17532Y12441D02*
X17543Y12430D01*
X17714D01*
X18923Y11969D02*
X18985D01*
X18749Y11949D02*
X18903D01*
X19365Y11465D02*
X19727Y11103D01*
X19568Y14023D02*
X19585Y14040D01*
X19042Y14023D02*
X19568D01*
X18690Y14343D02*
X19700D01*
X17380Y13914D02*
X17507Y13787D01*
X16348Y13650D02*
Y13769D01*
X17256Y13472D02*
X17314D01*
X17507Y13279D01*
X12877Y13579D02*
X12888Y13568D01*
X12669Y13727D02*
X12817Y13579D01*
X12669Y13727D02*
Y13831D01*
X12238Y13724D02*
X12301Y13787D01*
X12554D01*
X12930Y13724D02*
Y13904D01*
X11567Y14081D02*
X11717Y14232D01*
X10489Y13624D02*
X10608D01*
X10351Y13762D02*
X10489Y13624D01*
X9951Y14158D02*
Y14168D01*
X10138Y14270D02*
X10217D01*
X10101Y14233D02*
X10138Y14270D01*
X10128Y14743D02*
X10157D01*
X10604Y14132D02*
X10729D01*
X5716Y16076D02*
Y16351D01*
X9594Y16090D02*
X9621Y16063D01*
X9832Y15908D02*
Y16076D01*
Y15908D02*
X10073Y15667D01*
X10217D01*
X8296Y16190D02*
X8428Y16322D01*
X10076D02*
X10208Y16190D01*
X10217Y16150D02*
X10277Y16090D01*
X10489Y15931D02*
X10608D01*
X10663Y15986D02*
X10703D01*
X12392Y16475D02*
X12397Y16469D01*
X11948Y16494D02*
X11968Y16475D01*
X12404Y16150D02*
X12554D01*
X19787Y15716D02*
X19829D01*
X19904Y15642D01*
X20025Y16139D02*
X20065Y16099D01*
X19060Y16584D02*
X19147Y16671D01*
X19988Y19644D02*
X21193D01*
X21270Y19568D02*
X21316D01*
X19336Y18747D02*
X19826D01*
X18755Y18831D02*
X18787Y18800D01*
X18029Y18730D02*
X19246D01*
X19251Y18725D01*
X19313D02*
X19336Y18747D01*
X19251Y18725D02*
X19313D01*
X19791Y18628D02*
X20056Y18893D01*
X19890Y18812D02*
Y19003D01*
X19826Y18747D02*
X19890Y18812D01*
X18217Y18906D02*
X19753D01*
X18265Y19039D02*
X19854D01*
X19890Y19003D01*
X18426Y19103D02*
X21636D01*
X18424Y19101D02*
X18426Y19103D01*
X18242Y19101D02*
X18424D01*
X18143Y19002D02*
X18242Y19101D01*
X18168Y18942D02*
X18265Y19039D01*
X17977Y19097D02*
X18072Y19002D01*
X18178Y18867D02*
X18217Y18906D01*
X17751Y19037D02*
X17953D01*
X17770Y19103D02*
X17776Y19097D01*
X17673Y18986D02*
X17726Y19039D01*
X17622Y19337D02*
Y19365D01*
X17567Y19392D02*
X17595D01*
X17507Y19452D02*
X17567Y19392D01*
X16745Y18356D02*
X16765Y18377D01*
X16920D01*
X16411Y18479D02*
Y18486D01*
X16348Y18384D02*
Y18416D01*
X17057Y18239D02*
X17176D01*
X17242Y18306D01*
X10305Y18934D02*
X10332Y18908D01*
X10297Y19477D02*
X10392Y19382D01*
Y18841D02*
Y19382D01*
X5305Y14261D02*
X5365Y14321D01*
X2457Y13804D02*
X2492Y13769D01*
X2595Y16124D02*
X2643Y16076D01*
X3096Y16064D02*
X3229Y15931D01*
X3092Y16598D02*
X3118Y16571D01*
X3056Y16598D02*
X3092D01*
X3003Y16651D02*
X3056Y16598D01*
X3003Y16651D02*
Y16658D01*
X3701Y16598D02*
X3728Y16571D01*
X3718Y17968D02*
Y18298D01*
X2889Y18426D02*
X2918D01*
X1546Y18909D02*
X1606Y18969D01*
X1082Y18474D02*
X1518Y18909D01*
X1606Y18937D02*
Y18969D01*
Y18937D02*
X1634Y18909D01*
X1695D02*
X1721Y18883D01*
Y18822D02*
Y18883D01*
X3581Y18592D02*
X3615Y18557D01*
Y18495D02*
Y18557D01*
X3482Y18441D02*
X3561D01*
X3367Y18556D02*
X3482Y18441D01*
X1786Y18461D02*
X1863Y18384D01*
X4095Y14234D02*
X4144Y14184D01*
X4206D02*
X4299Y14277D01*
X3410Y16396D02*
X3461Y16345D01*
X3649Y16266D02*
X4201D01*
X4519Y16584D01*
X6449Y11969D02*
X7198D01*
X8292D01*
X9052D01*
X6449Y9661D02*
X7198D01*
X8292D01*
X3576Y18892D02*
X3611Y18858D01*
X3673D01*
X3707Y18892D01*
X5020D01*
X6449Y14277D02*
X7198D01*
X9052Y9661D02*
X9828D01*
X3331Y5046D02*
X3336Y5040D01*
X5015D01*
X5020Y5046D01*
X8292Y14277D02*
X9052D01*
X8292Y16584D02*
X9052D01*
X10671Y9535D02*
X11283D01*
X11307Y9511D01*
X11369D01*
X9052Y16584D02*
X9828D01*
X11059Y14081D02*
X11567D01*
X5712Y5046D02*
X6449D01*
X9052Y7353D02*
X9828D01*
X10544Y16584D02*
X10994D01*
X11211Y16367D01*
X11567D01*
X8292Y5046D02*
X9052D01*
X8292Y18892D02*
X9052D01*
X12926Y11969D02*
X13663D01*
X12926Y14232D02*
X13663D01*
X13663Y11969D02*
X14412D01*
X12926Y9661D02*
X13663D01*
X10678Y4912D02*
X11465D01*
X13663Y14232D02*
X14412D01*
X14412Y11969D02*
X15529D01*
X13663Y9661D02*
X14412D01*
X12926Y7353D02*
X13663D01*
X16344Y11969D02*
X17112D01*
X16344Y7353D02*
X17112D01*
X17893Y11969D02*
X17896Y11971D01*
X15529Y5046D02*
X16344D01*
X17893Y7353D02*
X18722D01*
X18749Y7326D01*
X20548Y16584D02*
X21316D01*
Y14277D02*
X22097D01*
X20548Y5046D02*
X21316D01*
X20548Y2738D02*
X21316D01*
X14412D02*
X15529D01*
X13663D02*
X14412D01*
X12926D02*
X13663D01*
X6449D02*
X7198D01*
X8783Y552D02*
Y668D01*
X11069Y552D02*
Y668D01*
X11831Y552D02*
Y668D01*
X12847Y552D02*
Y668D01*
X13355Y552D02*
Y668D01*
X13609Y552D02*
Y668D01*
X13863Y552D02*
Y668D01*
X14117Y552D02*
Y668D01*
X15301Y1573D02*
X15378D01*
X15529Y3109D02*
Y3246D01*
Y3109D02*
X15621Y3017D01*
X17028D02*
X17112Y3102D01*
X21316Y5554D02*
Y5555D01*
X15529Y5415D02*
Y5554D01*
Y5415D02*
X15567Y5377D01*
X17067D02*
X17112Y5422D01*
Y5554D01*
X16903Y5552D02*
X17150Y5798D01*
X17807D01*
X16344Y7732D02*
Y7861D01*
Y7732D02*
X16393Y7683D01*
X17893Y7861D02*
Y7863D01*
X21316Y10169D02*
Y10170D01*
X16344Y10284D02*
X16418Y10358D01*
X17820D02*
X17893Y10284D01*
X20548Y12602D02*
X20584Y12638D01*
X22093D01*
X22097Y12634D01*
Y12479D02*
Y12634D01*
X16344Y12582D02*
X16393Y12631D01*
X19767Y14785D02*
Y14920D01*
X19866Y15019D01*
X20784D01*
X21018Y14785D01*
X15529Y14658D02*
Y14785D01*
X17028Y14556D02*
X17112Y14641D01*
X16344Y14785D02*
Y14920D01*
X16418Y14993D01*
X17820D01*
X17893Y14920D01*
X19767Y17092D02*
Y17206D01*
X19848Y17287D02*
X20784D01*
X20980Y17091D01*
X21316D02*
Y17092D01*
X20548Y16952D02*
X20583Y16916D01*
X21582D01*
X16924Y16962D02*
X17112D01*
X16878Y16916D02*
X16924Y16962D01*
X15565Y16916D02*
X16878D01*
X15529Y16952D02*
X15565Y16916D01*
X15529Y16952D02*
Y17092D01*
X16344Y17091D02*
Y17092D01*
X16875Y17091D02*
X17129Y17345D01*
X17754D02*
X17893Y17206D01*
X19767Y19400D02*
Y19423D01*
X15529Y19400D02*
Y19423D01*
X12234Y19400D02*
Y19403D01*
X10544Y19400D02*
Y19403D01*
X9052Y17092D02*
Y17094D01*
X12234Y14740D02*
Y14873D01*
X12329Y14968D01*
X13663Y14740D02*
Y14904D01*
X10471Y14993D02*
X10544Y14920D01*
X9126Y14993D02*
X10471D01*
X9052Y14920D02*
X9126Y14993D01*
X12234Y12320D02*
X12265Y12288D01*
X13599D01*
X13663Y12352D01*
Y12477D01*
X12234Y10024D02*
Y10169D01*
X13617Y9992D02*
X13663Y10038D01*
X12234Y7722D02*
Y7861D01*
Y7722D02*
X12264Y7692D01*
X13663Y7756D02*
Y7861D01*
X10544Y7744D02*
Y7861D01*
X10506Y7706D02*
X10544Y7744D01*
X9052Y7861D02*
Y7863D01*
X12234Y5436D02*
Y5554D01*
X13631Y5406D02*
X13663Y5438D01*
Y5554D01*
X8620Y5395D02*
X9797D01*
X8460Y5555D02*
X8620Y5395D01*
X8292Y5554D02*
Y5555D01*
X12234Y3109D02*
X12256Y3086D01*
X13631D01*
X10544Y3246D02*
Y3363D01*
X9334Y3246D02*
X9588Y3500D01*
X9052Y3246D02*
Y3246D01*
X1859Y3363D02*
X1900Y3403D01*
X1859Y3246D02*
Y3363D01*
X5020Y5438D02*
X5058Y5400D01*
X5020Y5438D02*
Y5554D01*
X5712D02*
Y5712D01*
X5618Y5806D02*
X5712Y5712D01*
X1620Y5806D02*
X5618D01*
X1366Y5552D02*
X1620Y5806D01*
X1078Y7861D02*
Y7861D01*
X6449Y10169D02*
Y10284D01*
X6376Y10358D02*
X6449Y10284D01*
X2639Y10169D02*
Y10170D01*
X1971Y15031D02*
X5600D01*
X6487Y17089D02*
Y17089D01*
X3331Y17092D02*
Y17206D01*
X1077Y17089D02*
Y17089D01*
X1859Y11969D02*
Y11971D01*
X2639Y11866D02*
Y11969D01*
X1078D02*
Y12084D01*
X18862Y9661D02*
X19767D01*
X18839Y9638D02*
X18862Y9661D01*
X18749D02*
X18773Y9638D01*
X10544Y11969D02*
X11038D01*
X5716Y18384D02*
Y18436D01*
X7202Y18384D02*
Y18407D01*
X5179Y18437D02*
X5181Y18436D01*
X6453Y18384D02*
Y18461D01*
X7202Y13769D02*
Y13886D01*
X7154Y13934D02*
X7202Y13886D01*
X5663Y13934D02*
X7154D01*
X5516Y13787D02*
X5663Y13934D01*
X5365Y13787D02*
X5516D01*
X6453Y13631D02*
Y13769D01*
X6233Y13411D02*
X6453Y13631D01*
X5562Y13411D02*
X6233D01*
X3335Y11332D02*
Y11461D01*
X2643D02*
Y11485D01*
X5334Y11476D02*
X5391D01*
X5332Y11478D02*
X5334Y11476D01*
X1863Y9012D02*
Y9153D01*
X2931Y8657D02*
X3003D01*
X5716Y9153D02*
Y9332D01*
X5340Y9723D02*
X5413D01*
X5295Y8682D02*
X5365D01*
X7202Y8947D02*
Y9153D01*
X7122Y8867D02*
X7202Y8947D01*
X6146Y8780D02*
X6233Y8867D01*
X2978Y7412D02*
X3062D01*
X1863Y6665D02*
Y6845D01*
X2931Y6502D02*
X3004Y6428D01*
X3003Y6371D02*
X3004D01*
X5024Y6845D02*
Y6904D01*
X7154Y6667D02*
X7202Y6716D01*
X2933Y5659D02*
X2978D01*
X2888Y5704D02*
X2933Y5659D01*
X1863Y4379D02*
Y4538D01*
Y4379D02*
X2015Y4226D01*
X2693D01*
X5716Y4538D02*
Y4830D01*
X7202Y4538D02*
Y4539D01*
X6127Y4085D02*
X6233D01*
X1863Y2093D02*
Y2230D01*
X2832Y1966D02*
X2959Y1839D01*
Y1799D02*
X3003D01*
X5365Y2815D02*
X5496D01*
X5583Y2728D01*
X6258Y2281D02*
X6415Y2438D01*
X9151Y2027D02*
X9415Y2291D01*
X9634D01*
X9720Y2377D01*
X9832Y1971D02*
X9979Y1824D01*
X9832Y1971D02*
Y2230D01*
X12930D02*
Y2438D01*
X12783Y2584D02*
X12930Y2438D01*
X12278Y2941D02*
X12710D01*
X14347Y2024D02*
X14416Y2093D01*
X12641Y2840D02*
X12692Y2789D01*
X12554Y2840D02*
X12641D01*
X12395Y2308D02*
X12397Y2307D01*
X13667Y2230D02*
Y2377D01*
X14539Y2049D02*
Y2326D01*
X12646Y1872D02*
X14361D01*
X10217Y5202D02*
X10297D01*
X10017Y4605D02*
X10106Y4694D01*
X10017Y4506D02*
Y4605D01*
X9873Y4361D02*
X10017Y4506D01*
X9056Y4538D02*
Y4561D01*
X12930Y4538D02*
Y4561D01*
X12202Y5270D02*
X12603D01*
X12110Y5362D02*
X12202Y5270D01*
X12110Y5362D02*
Y5649D01*
X12258Y5796D01*
X12471D02*
X12555Y5712D01*
X12554Y5685D02*
X12555D01*
X13667Y4559D02*
X13870Y4762D01*
X14376Y4216D02*
X14539Y4379D01*
X13566Y4198D02*
X13584Y4216D01*
X12717Y4198D02*
X13566D01*
X10217Y7488D02*
X10297D01*
X8296Y6728D02*
X8362Y6662D01*
X9972D01*
X10101Y6792D01*
Y6943D01*
X10217Y6472D02*
X10338D01*
X10619Y8047D02*
X10668Y7998D01*
X10217Y8047D02*
X10619D01*
X12110Y7655D02*
X12202Y7564D01*
X12837Y6667D02*
X14361D01*
X13667Y6845D02*
Y6982D01*
X13764Y7079D02*
X14442D01*
X14465Y6591D02*
X14539Y6665D01*
X12898Y6591D02*
X14465D01*
X10548Y9153D02*
Y9240D01*
X8328Y8968D02*
X9522D01*
X9692Y9139D01*
Y9220D01*
X9789Y9317D02*
X10217D01*
X9056Y9153D02*
Y9177D01*
X9306Y9427D01*
X9859D01*
X10025Y9593D01*
Y10198D02*
X10043Y10215D01*
Y10269D01*
X10106Y10333D02*
X10217D01*
X9832Y8933D02*
X9982Y8784D01*
X12554Y9190D02*
X12646D01*
X12868Y8968D01*
X14416Y9014D02*
Y9153D01*
X12392Y8745D02*
X12456Y8682D01*
X12238Y8945D02*
Y9153D01*
X13667D02*
Y9268D01*
X13771Y9372D01*
X14434D02*
X14539Y9268D01*
X14404Y8816D02*
X14539Y8951D01*
X13454Y8707D02*
X13563Y8816D01*
X9564Y11563D02*
X9743Y11742D01*
X9916D01*
X10322Y12035D02*
X10421Y11935D01*
X8296Y11332D02*
X8327Y11300D01*
X9489Y11501D02*
X9624D01*
X10127Y11643D02*
X10215Y11554D01*
X10098Y10993D02*
X10217D01*
X9832Y11259D02*
X10098Y10993D01*
X12110Y12570D02*
X12169Y12628D01*
X12403D01*
X12463Y12568D01*
X12554D01*
X12633Y11501D02*
X12857Y11277D01*
X13599Y11712D02*
X13667Y11643D01*
Y11461D02*
Y11643D01*
X9056Y13875D02*
X9205Y14023D01*
X9817D02*
X9951Y14158D01*
X9278Y13515D02*
X9680Y13916D01*
X9832Y13543D02*
X10121Y13254D01*
X12627Y14803D02*
X12669Y14761D01*
X14416Y13618D02*
Y13724D01*
X14366Y13568D02*
X14416Y13618D01*
X13667Y13904D02*
X13741Y13977D01*
X14539Y13594D02*
Y13904D01*
X14361Y13416D02*
X14539Y13594D01*
X12855Y13416D02*
X14361D01*
X9286Y16151D02*
X9288Y16150D01*
X9056Y16076D02*
Y16151D01*
X10217Y16708D02*
X10304D01*
X8296Y16076D02*
Y16190D01*
X10208Y16150D02*
X10217D01*
X12472Y16708D02*
X12554D01*
X12397Y16634D02*
X12472Y16708D01*
X12583Y16256D02*
X12895D01*
X14416Y16112D02*
Y16253D01*
X14377Y16291D02*
X14416Y16253D01*
X13124Y15936D02*
X13479Y16291D01*
X12554Y16150D02*
X12646D01*
X12456Y15642D02*
X12554D01*
X10217Y19477D02*
X10297D01*
X9056Y18384D02*
Y18502D01*
X9154Y18600D01*
X21636Y19103D02*
X22101Y18638D01*
Y18384D02*
Y18638D01*
X13632Y18133D02*
X13886Y18387D01*
X13667Y18269D02*
Y18384D01*
X13599Y18201D02*
X13667Y18269D01*
X17897Y18384D02*
Y18437D01*
X17625Y18436D02*
X17627Y18437D01*
X15533Y18361D02*
Y18384D01*
X14727Y19070D02*
X14808Y18989D01*
X15351D01*
X17183Y19215D02*
X17420Y19452D01*
X17673Y18984D02*
Y18986D01*
X19936Y18359D02*
X20145D01*
X16348Y16076D02*
Y16342D01*
X16853Y16847D01*
X17155D01*
X17409Y17191D02*
X17532D01*
X16896Y16150D02*
X17075Y16329D01*
X17758D02*
X17897Y16190D01*
X15533Y15957D02*
Y16076D01*
X17430Y16124D02*
X17532D01*
X17244Y15938D02*
X17430Y16124D01*
X17155Y15938D02*
X17244D01*
X17116Y15976D02*
X17155Y15938D01*
X17116Y15976D02*
Y16076D01*
X20076Y16807D02*
X20203D01*
X21320Y16101D02*
X21501Y16281D01*
X22133D01*
X22225Y16190D01*
X22006Y15717D02*
X22225Y15936D01*
X17893Y14277D02*
X18623D01*
X18690Y14343D01*
X19873Y14546D02*
X19890Y14528D01*
X18907Y14158D02*
X19042Y14023D01*
X18907Y14158D02*
Y14245D01*
X18869Y14283D02*
X18907Y14245D01*
X18715Y14283D02*
X18869D01*
X20330Y14829D02*
X20401Y14758D01*
X20552Y13769D02*
Y13792D01*
X20252Y14295D02*
X20294Y14253D01*
X20170Y14295D02*
X20252D01*
X21320Y13769D02*
Y13874D01*
X21378Y13931D01*
X22171D01*
X22225Y13878D01*
Y13543D02*
Y13878D01*
X22100Y13418D02*
X22225Y13543D01*
X20449Y13418D02*
X22100D01*
X17348Y11425D02*
X17532D01*
X17116Y11461D02*
Y11536D01*
X20017Y11552D02*
X20170D01*
X20015Y11554D02*
X20017Y11552D01*
X19771Y11463D02*
Y11554D01*
X21320Y11341D02*
Y11463D01*
X21092Y11112D02*
X21320Y11341D01*
X17897Y9153D02*
Y9372D01*
X15533Y9002D02*
Y9153D01*
X17395Y9190D02*
X17507D01*
X16720Y9514D02*
X17244D01*
X17315Y9586D01*
Y10155D02*
X17417Y10257D01*
X17507D01*
X19744Y10384D02*
X20170D01*
X19644Y9934D02*
Y10284D01*
X22101Y9153D02*
Y9276D01*
X22220Y9394D01*
X19915Y9177D02*
X20055Y9317D01*
X21320Y8976D02*
Y9153D01*
X20523Y8809D02*
X20533Y8818D01*
X16411Y7046D02*
X17061D01*
X17315Y7300D02*
Y7427D01*
X17495Y7607D01*
X18016Y7681D02*
Y7983D01*
X17551Y8018D02*
X17980D01*
X17507Y7429D02*
X17638D01*
X15533Y6728D02*
Y6845D01*
X17116D02*
Y6962D01*
X17233D01*
X17284Y7013D01*
X17622Y6413D02*
Y7013D01*
X17507Y6413D02*
X17622D01*
X20074Y8013D02*
X20170D01*
Y7505D02*
X20266D01*
X21320Y6845D02*
Y6870D01*
X20170Y6463D02*
X20215D01*
X16809Y4389D02*
X16964Y4544D01*
Y4681D01*
X17028Y4744D02*
X17414D01*
X17462Y4696D01*
X16348Y4538D02*
Y4561D01*
X16611Y4825D01*
X17159D01*
X17377Y5701D02*
X17507D01*
X17116Y4279D02*
X17269Y4127D01*
X19771Y4685D02*
X20170D01*
X21320Y4538D02*
Y4539D01*
X17897Y2230D02*
Y2253D01*
X15533Y2116D02*
X15567Y2082D01*
X16977Y2250D02*
Y2347D01*
X17429Y2443D02*
X17462Y2410D01*
X16348Y2230D02*
Y2253D01*
X16630Y2535D01*
X17178D01*
X17330Y2687D01*
X17409Y3415D02*
X17507D01*
X17527Y814D02*
Y1043D01*
X17663Y1178D01*
X17917D01*
X17116Y1993D02*
X17269Y1841D01*
X17116Y1993D02*
Y2230D01*
X19629Y2883D02*
X20060Y3314D01*
X20215Y2834D02*
X20266Y2885D01*
X19949Y2272D02*
X20170D01*
X1934Y12084D02*
X2047Y11971D01*
X15697Y14277D02*
X16344D01*
X14412Y16584D02*
Y16586D01*
Y16620D01*
X1864Y17343D02*
X3194D01*
X7259Y552D02*
Y668D01*
X7149Y778D02*
X7259Y668D01*
X8783Y1236D02*
Y1356D01*
X7149Y778D02*
Y1126D01*
X9291Y552D02*
Y668D01*
X7122Y2438D02*
X7202Y2358D01*
Y2230D02*
Y2358D01*
X3214Y2147D02*
X3276Y2085D01*
X3431D02*
X3667Y2321D01*
X3062Y7412D02*
X3335Y7139D01*
X3515Y15758D02*
X3718Y15961D01*
X7198Y7353D02*
X8292D01*
X3378Y6502D02*
X3693Y6817D01*
X12737Y1126D02*
X12847Y1236D01*
X12229Y1126D02*
X12339Y1236D01*
X11975Y1126D02*
X12085Y1236D01*
X11467Y1126D02*
X11577Y1236D01*
X8927Y1126D02*
X9037Y1236D01*
X8673Y1126D02*
X8783Y1236D01*
X8165Y1126D02*
X8275Y1236D01*
X14007Y778D02*
X14117Y668D01*
X13753Y778D02*
X13863Y668D01*
X13753Y778D02*
Y1126D01*
X13245Y778D02*
X13355Y668D01*
X13245Y778D02*
Y1126D01*
X12483Y778D02*
Y1126D01*
X11721Y778D02*
X11831Y668D01*
X11213Y778D02*
X11323Y668D01*
X11213Y778D02*
Y1126D01*
X10959Y778D02*
Y1126D01*
X10451Y778D02*
X10561Y668D01*
X10197Y778D02*
Y1126D01*
X9943Y662D02*
Y1246D01*
X9689Y778D02*
X9799Y668D01*
X9689Y778D02*
Y1126D01*
X9435Y778D02*
Y1246D01*
X9181Y778D02*
X9291Y668D01*
X8927Y778D02*
Y1126D01*
X8419Y778D02*
X8529Y668D01*
X8165Y778D02*
Y1126D01*
X7767Y552D02*
Y668D01*
X7657Y778D02*
X7767Y668D01*
X8021Y552D02*
Y668D01*
X7911Y778D02*
Y1126D01*
X7657Y778D02*
Y1126D01*
X4492Y11869D02*
X4607Y11984D01*
X4761Y11668D02*
X4785Y11644D01*
X4883Y11543D02*
X5264Y11924D01*
X5508Y17092D02*
X5657Y16944D01*
X7078D01*
X7223Y17089D01*
X5046Y4810D02*
X5250Y5015D01*
X4816Y7072D02*
X4860Y7116D01*
X5141Y8976D02*
X5147Y8983D01*
X4500Y7326D02*
X4754Y7072D01*
X4734Y9738D02*
X4893D01*
X4785Y11618D02*
Y11644D01*
X4659Y11637D02*
X4754Y11543D01*
X4658Y11745D02*
X4674Y11728D01*
X1918Y19255D02*
X2063Y19400D01*
X1078Y3246D02*
X1655D01*
X1800Y3101D01*
X4137Y2842D02*
X4201Y2905D01*
Y3363D01*
X2978Y2789D02*
X3033D01*
Y2779D02*
X3068Y2744D01*
X3103D01*
X4050Y2738D02*
X4081Y2707D01*
X2825Y3101D02*
X3043Y2883D01*
X3990D01*
X4106Y2767D02*
X4168D01*
X4344Y2943D01*
X5409D01*
X5712Y3246D01*
X4989Y2707D02*
X5020Y2738D01*
X6093Y1869D02*
X6453Y2230D01*
X4158Y1978D02*
X4340D01*
X7757Y1245D02*
X7767Y1236D01*
X8011Y1245D02*
X8021Y1236D01*
X4810Y2804D02*
X4882D01*
X4607Y4887D02*
X4633Y4912D01*
X5146Y7656D02*
X7094D01*
X5026Y7776D02*
X5146Y7656D01*
X5916Y7861D02*
X6449D01*
X5771Y7716D02*
X5916Y7861D01*
X5496Y8223D02*
X5712Y8007D01*
Y7861D02*
Y8007D01*
X5653Y7716D02*
X5771D01*
X5591Y7778D02*
X5653Y7716D01*
X5591Y7778D02*
Y8043D01*
X5365Y7996D02*
Y8006D01*
X4961Y8006D02*
X5079D01*
X5102Y7983D02*
X5278D01*
X1907Y7909D02*
X2398D01*
X5205Y4632D02*
X5270Y4567D01*
X4754Y4735D02*
X4816D01*
X4710Y4779D02*
X4754Y4735D01*
X5205Y4632D02*
Y4645D01*
X4823Y4743D02*
X5108D01*
X4841Y4675D02*
X4848Y4683D01*
X4729Y4675D02*
X4841D01*
X4721Y4683D02*
X4729Y4675D01*
X3820Y4683D02*
X4721D01*
X3744Y4760D02*
X3820Y4683D01*
X11695Y16800D02*
Y16870D01*
X11670Y16895D02*
X11695Y16870D01*
X11670Y16895D02*
Y16957D01*
X17781Y814D02*
X17975D01*
X18001Y841D01*
Y1034D01*
X18347Y1380D02*
Y2479D01*
X18325Y2501D02*
X18347Y2479D01*
X17712Y2356D02*
X17816Y2253D01*
X17834Y2593D02*
X18234D01*
X17772Y2655D02*
X17834Y2593D01*
X6690Y1940D02*
X8076D01*
X7757Y1245D02*
Y1407D01*
X8011Y1245D02*
Y1407D01*
X7402Y1379D02*
Y1387D01*
X7594Y1579D01*
X7149Y1126D02*
X7402Y1379D01*
X7594Y1579D02*
X8386D01*
X8076Y1940D02*
X8292Y1724D01*
X8476Y2027D02*
X9151D01*
X8386Y1579D02*
X8417Y1610D01*
Y1807D01*
X7528Y2601D02*
X7623D01*
X8417Y1807D01*
X20489Y1579D02*
X20873D01*
X21379Y2375D02*
X21442Y2313D01*
X20986Y2375D02*
X21379D01*
X20493Y2085D02*
X20611D01*
X20375Y1764D02*
X20567Y1956D01*
X21456Y2076D02*
X21464Y2085D01*
X21422Y2111D02*
X21456Y2076D01*
X21422Y2111D02*
Y2127D01*
X21442Y2147D01*
X21316Y3246D02*
Y3363D01*
X19858Y3454D02*
X21225D01*
X20170Y4047D02*
X20359D01*
X20170Y4177D02*
X20366D01*
X21931Y4912D02*
X22222Y4620D01*
X21412Y4852D02*
X21906D01*
X20762Y4841D02*
X21400D01*
X21257Y4901D02*
X21375D01*
X20225Y4994D02*
Y5034D01*
X20552Y4538D02*
Y4623D01*
X20733Y4515D02*
X20736Y4518D01*
X20793Y4342D02*
Y4490D01*
X20688Y4237D02*
X20793Y4342D01*
X20733Y4367D02*
Y4515D01*
X19649Y4455D02*
X19786Y4319D01*
X20611Y4683D02*
X20673Y4620D01*
X20624Y4393D02*
X20673Y4442D01*
X20685Y4319D02*
X20733Y4367D01*
X19786Y4319D02*
X20685D01*
X20333Y4393D02*
X20624D01*
X19585Y5394D02*
X19746Y5233D01*
X19882Y5727D02*
X20170D01*
X19851Y5759D02*
X19882Y5727D01*
X19585Y5661D02*
X19683Y5759D01*
X19708Y5699D02*
X19826D01*
X19928Y5597D01*
X20430Y6762D02*
X20493Y6700D01*
X19848Y6870D02*
X19949Y6971D01*
X19846Y6485D02*
X19997Y6333D01*
X19653Y6485D02*
X19846D01*
X19355Y6783D02*
X19653Y6485D01*
X19475Y6884D02*
Y7020D01*
X19730Y6545D02*
X19870D01*
X19263Y7101D02*
X19308Y7146D01*
X19314Y7249D02*
X19352D01*
X21974Y6545D02*
X22105D01*
X21532Y5979D02*
X22038Y6485D01*
X21033Y6662D02*
X22035D01*
X22101Y6728D01*
Y6845D01*
X22160Y6990D02*
X22225Y6926D01*
X22027Y6990D02*
X22160D01*
X21919Y7099D02*
X22027Y6990D01*
X21549Y7099D02*
X21919D01*
X20548Y7353D02*
X21316D01*
X21894Y7208D02*
X22052Y7050D01*
X20266Y7505D02*
X20273Y7498D01*
X20489Y7208D02*
X21894D01*
X20285Y7327D02*
Y7418D01*
X20273Y7431D02*
Y7498D01*
X19896Y7835D02*
X20074Y8013D01*
X20403Y5979D02*
Y6101D01*
X20203Y7604D02*
X20252D01*
X3332Y8793D02*
X3667Y9128D01*
X3693D01*
X1978Y8897D02*
X2690D01*
X2931Y8657D01*
X3537Y9516D02*
X3745Y9308D01*
X3272Y9516D02*
X3537D01*
X4709Y9560D02*
X4971Y9298D01*
X5083D02*
X5191Y9190D01*
X5365D01*
X4971Y9298D02*
X5083D01*
X5191Y9190D02*
X5191D01*
X11800Y9535D02*
X11926Y9661D01*
X11872Y9326D02*
Y9520D01*
X11926Y9661D02*
X12234D01*
X12072Y9588D02*
X12156Y9504D01*
X11872Y9520D02*
X11940Y9588D01*
X12072D01*
X11996Y9461D02*
Y9510D01*
X11859Y9725D02*
X11940Y9806D01*
X12293D01*
X11859Y9700D02*
Y9725D01*
X17315Y9865D02*
X17340Y9840D01*
X17340D01*
X17734Y9052D02*
X17790D01*
X17708Y9078D02*
X17734Y9052D01*
X17708Y8836D02*
Y9078D01*
X17790Y9052D02*
X17835Y9006D01*
X17708Y9078D02*
Y9441D01*
X17714Y9446D01*
X17768Y8878D02*
X17815Y8925D01*
X17712Y8755D02*
X17768Y8812D01*
Y8878D01*
X17772Y8730D02*
X17891Y8850D01*
X17712Y8599D02*
Y8755D01*
X17891Y8850D02*
Y8968D01*
X17652Y8635D02*
Y8780D01*
X17708Y8836D01*
X19227Y10043D02*
X20099Y10914D01*
X19187Y10043D02*
X19227D01*
X19164Y10020D02*
X19187Y10043D01*
X19301Y9573D02*
X19441Y9433D01*
X20426Y9578D02*
Y9844D01*
Y9845D02*
X20431Y9850D01*
X20426Y9844D02*
Y9845D01*
X20425D02*
X20426Y9844D01*
X20523Y8809D02*
X21153D01*
X20170D02*
X20523D01*
X20347Y8502D02*
X20611D01*
X20628Y8519D01*
X20948D01*
X21222Y8793D01*
X21289D01*
X21498Y9001D01*
Y9179D01*
X21379Y9298D02*
X21498Y9179D01*
X21134Y9298D02*
X21379D01*
X20533Y8818D02*
X21163D01*
X20430Y9070D02*
X20493Y9008D01*
X20641D01*
X20736Y9103D01*
X20784Y8948D02*
X21134Y9298D01*
X20468Y8948D02*
X20784D01*
X20440Y8976D02*
X20468Y8948D01*
X20381Y8976D02*
X20440D01*
X1721Y18822D02*
X1864Y18679D01*
X2918Y18426D02*
X2978Y18486D01*
X3482Y18526D02*
X3532D01*
X3003Y18052D02*
X3335Y18384D01*
X1863D02*
X2439D01*
X2584Y18529D02*
X2756D01*
X3329Y18679D02*
X3482Y18526D01*
X1864Y18679D02*
X3329D01*
X2829Y18603D02*
X3139D01*
X3185Y18556D01*
X2439Y18384D02*
X2584Y18529D01*
X3185Y18556D02*
X3367D01*
X2756Y18529D02*
X2829Y18603D01*
X1606Y18700D02*
Y18789D01*
X1432Y18450D02*
Y18526D01*
Y18450D02*
X1601Y18281D01*
X1632D01*
X1432Y18526D02*
X1606Y18700D01*
X1632Y18281D02*
X1762D01*
X1804Y18239D01*
X1839D01*
Y18239D02*
X1973D01*
X2764Y17804D02*
Y18301D01*
X2847Y18384D02*
X2889Y18426D01*
X2764Y18301D02*
X2847Y18384D01*
X2922Y17748D02*
X3003D01*
X2829Y17841D02*
X2922Y17748D01*
X2829Y17841D02*
Y18208D01*
X2928Y18306D02*
X2978D01*
X2829Y18208D02*
X2928Y18306D01*
X3003Y17748D02*
X3069D01*
X3210Y17888D01*
X3235Y17552D02*
X3244Y17561D01*
X3566D01*
X2661Y17552D02*
X3235D01*
X1973Y18239D02*
X2661Y17552D01*
X3261Y17663D02*
X3413D01*
X3210Y17612D02*
X3261Y17663D01*
X2956Y17612D02*
X3210D01*
X2764Y17804D02*
X2956Y17612D01*
X7055Y18471D02*
X7119Y18407D01*
X7055Y18471D02*
Y18852D01*
X6938Y18969D02*
X7055Y18852D01*
X6934Y18313D02*
X7010Y18237D01*
X6934Y18313D02*
X6969Y18349D01*
Y18628D01*
X6813Y18784D02*
X6969Y18628D01*
X6394Y18239D02*
X6771D01*
X6813Y18281D01*
X6845Y18313D01*
X6934D01*
X10217Y19234D02*
Y19297D01*
X10095Y18814D02*
X10217D01*
X9989Y18709D02*
X10095Y18814D01*
X10068Y18958D02*
X10073D01*
X10043Y18984D02*
X10068Y18958D01*
X10043Y18984D02*
Y19060D01*
X10073Y18958D02*
X10217Y18814D01*
X10043Y19060D02*
X10217Y19234D01*
X10548Y18384D02*
Y18684D01*
X10452Y18780D02*
X10548Y18684D01*
X10392Y18841D02*
X10452Y18780D01*
X10217Y18281D02*
X10255D01*
X10348Y18374D01*
X10608Y18239D02*
X10920Y18552D01*
X10489Y18239D02*
X10608D01*
X10408Y18321D02*
X10489Y18239D01*
X10392Y18592D02*
X10408Y18577D01*
X10392Y18592D02*
Y18756D01*
X10408Y18321D02*
Y18577D01*
X10348Y18374D02*
Y18552D01*
X10217Y18683D02*
X10348Y18552D01*
X10217Y18683D02*
Y18814D01*
X10043Y18247D02*
X10195Y18095D01*
X10602D01*
X10957Y18450D01*
X10983D01*
X11338Y18780D02*
X11390D01*
X11695Y18476D01*
Y16983D02*
Y18476D01*
X10957Y19161D02*
X11338Y18780D01*
X12405Y19136D02*
X12659D01*
X12684Y19111D01*
X12771D01*
X12811Y19070D01*
X12174Y19037D02*
X12306D01*
X12405Y19136D01*
X12811Y19070D02*
X14727D01*
X12203Y18622D02*
X12247Y18578D01*
X12034Y18656D02*
Y18718D01*
Y18656D02*
X12077Y18612D01*
X12140D01*
X12150Y18622D01*
X12203D01*
X12112Y18797D02*
Y18975D01*
X12034Y18718D02*
X12112Y18797D01*
X12247Y18578D02*
X12247D01*
X12377Y18449D01*
X12479Y18461D02*
X12554D01*
X12253Y18687D02*
X12479Y18461D01*
X12554Y18461D02*
X12653D01*
X12109Y18687D02*
X12253D01*
X12481Y18994D02*
X12554D01*
X12438Y18952D02*
X12481Y18994D01*
X12430Y18704D02*
X12712D01*
X12930Y18487D01*
X12438Y18712D02*
Y18952D01*
X12430Y18704D02*
X12438Y18712D01*
X12554Y18814D02*
X12676D01*
X12684Y18806D01*
X12971Y17668D02*
X13231Y17928D01*
X12438Y18062D02*
X12521Y18144D01*
X12557Y17931D02*
Y18069D01*
X12547Y18171D02*
X12583D01*
X12521Y18144D02*
X12547Y18171D01*
X17805Y18506D02*
X18023Y18725D01*
X17595Y18526D02*
X17615Y18506D01*
X17805D01*
X17260Y18407D02*
X17378Y18526D01*
X17595D01*
X16139Y18549D02*
X16628D01*
X16665Y18586D01*
X17709D01*
X15987Y18397D02*
X16139Y18549D01*
X17358Y18349D02*
X17401Y18306D01*
X17307Y18349D02*
X17358D01*
X20279Y18298D02*
Y18399D01*
X20304Y18425D01*
Y18603D01*
X20161Y18179D02*
X20211Y18229D01*
X20279Y18298D01*
X20063Y17826D02*
X20145D01*
X20189Y17512D02*
X20548Y17870D01*
X18932Y17512D02*
X20189D01*
X20406Y17907D02*
Y17993D01*
X20220Y18179D02*
X20406Y17993D01*
X20145Y18179D02*
X20161D01*
X20220D01*
X20145Y17646D02*
X20237D01*
X20355Y17764D01*
Y17856D01*
X20406Y17907D01*
X15529Y19423D02*
X15826Y19720D01*
X17087D01*
X17112Y19400D02*
Y19661D01*
X17070Y19703D02*
X17112Y19661D01*
X17070Y19703D02*
X17087Y19720D01*
X20591Y15809D02*
X21943D01*
X20055Y16337D02*
Y16571D01*
X20316Y16076D02*
X20552D01*
X20065Y16099D02*
X20209D01*
X20291Y16016D01*
X20384D01*
X20055Y16337D02*
X20204Y16189D01*
X20259D01*
X20285Y16162D01*
Y16107D02*
Y16162D01*
Y16107D02*
X20316Y16076D01*
X20384Y16016D02*
X20591Y15809D01*
X17439Y16743D02*
X17561Y16621D01*
X10423Y15452D02*
Y15654D01*
X9504Y15572D02*
X9885Y15191D01*
X9621Y15824D02*
Y16063D01*
X9891Y15715D02*
X9954Y15653D01*
Y15491D02*
Y15653D01*
Y15491D02*
X10048Y15397D01*
X9621Y15824D02*
X9749Y15696D01*
X9749D01*
X9769Y15716D01*
X9887D01*
X9888Y15715D01*
X9891D01*
X10368Y15397D02*
X10423Y15452D01*
X10048Y15397D02*
X10368D01*
X10217Y15487D02*
X10339D01*
X10348Y15496D01*
Y15631D01*
X10500Y15273D02*
Y15301D01*
X10419Y15191D02*
X10500Y15273D01*
X10102Y16086D02*
X10168Y16020D01*
X10102Y16086D02*
Y16105D01*
X9992Y16215D02*
X10102Y16105D01*
X10043Y16469D02*
X10102Y16528D01*
X10217D01*
X3410Y16396D02*
Y16505D01*
X3331Y16584D02*
X3410Y16505D01*
X3461Y16345D02*
X3570D01*
X3649Y16266D01*
X2888Y16528D02*
Y16731D01*
X3452Y16659D02*
X3490Y16621D01*
Y16494D02*
Y16621D01*
Y16494D02*
X3587D01*
X2888Y15994D02*
Y16105D01*
X2253Y16240D02*
X2753D01*
X2253Y16002D02*
Y16240D01*
X2245Y15994D02*
X2253Y16002D01*
X1993Y15994D02*
X2245D01*
X2368D01*
X1410Y13853D02*
Y13958D01*
X1546Y14094D01*
X1326Y13769D02*
X1410Y13853D01*
X1326Y13769D02*
X1410Y13853D01*
X2253Y13620D02*
X2309Y13564D01*
X2253Y13620D02*
Y13690D01*
X2219Y13724D02*
X2253Y13690D01*
X2368Y13684D02*
X2428Y13624D01*
X2702D01*
X2934Y13176D02*
X3029D01*
X2824Y13286D02*
X2934Y13176D01*
X5496Y14272D02*
Y14593D01*
X5365Y14141D02*
X5496Y14272D01*
X5445Y14970D02*
X5591Y14825D01*
X5268Y14970D02*
X5445D01*
X5191Y14894D02*
X5268Y14970D01*
X5191Y14640D02*
Y14894D01*
Y14640D02*
X5281D01*
X9951Y14168D02*
X10068Y14285D01*
X10102Y14437D02*
Y14717D01*
Y14437D02*
X10119D01*
X10305Y14360D02*
X10332Y14334D01*
X10145Y14360D02*
X10305D01*
X10094Y14412D02*
X10145Y14360D01*
X10094Y14361D02*
Y14412D01*
X10043Y14310D02*
X10094Y14361D01*
Y14412D02*
X10119Y14437D01*
X10043Y14310D02*
X10068Y14285D01*
X12669Y13831D02*
X12669Y13831D01*
Y14130D01*
X12786Y14203D02*
Y14644D01*
X12669Y14761D02*
X12786Y14644D01*
Y14047D02*
Y14203D01*
X12554Y14245D02*
X12669Y14130D01*
X18648Y14217D02*
X18715Y14283D01*
X18433Y14217D02*
X18648D01*
X18425Y14208D02*
X18433Y14217D01*
X18425Y14183D02*
Y14208D01*
X20355Y13632D02*
Y13763D01*
X20213Y13905D02*
X20355Y13763D01*
X20294Y13909D02*
X20415Y13788D01*
X20294Y13909D02*
Y14253D01*
X20415Y13620D02*
Y13788D01*
Y13620D02*
X20535Y13500D01*
X20170Y13279D02*
X20310D01*
X20449Y13418D01*
X20170Y13149D02*
X20342D01*
X19661Y13099D02*
X20170D01*
X19542Y13218D02*
X19661Y13099D01*
X19542Y13218D02*
Y13497D01*
X19669Y13624D01*
X19830D01*
X19830Y13624D01*
X20128D01*
X20170Y13582D01*
X20752Y12479D02*
X21316D01*
X20607Y12334D02*
X20752Y12479D01*
X12420Y11607D02*
X12659D01*
X12370Y11390D02*
Y11558D01*
X12420Y11607D01*
X11313Y12075D02*
X11338Y12100D01*
X11313Y11922D02*
Y12075D01*
X1479Y11372D02*
X1640Y11211D01*
X1479Y11552D02*
X1596D01*
X1841Y11797D01*
X2639Y11866D02*
X2761Y11745D01*
X3331D01*
X3311Y11160D02*
X3766Y11615D01*
X3210Y10737D02*
Y11038D01*
X3272Y11100D01*
X3336D01*
X3150Y11063D02*
X3247Y11160D01*
X3311D01*
X3285Y11282D02*
X3335Y11332D01*
X2039Y11797D02*
X2562Y11274D01*
X3058Y11338D02*
X3159Y11440D01*
X2562Y11274D02*
X2766D01*
X2855Y11186D01*
X3109D01*
X3205Y11282D01*
X3285D01*
X2914Y10873D02*
Y10973D01*
Y10873D02*
X2998Y10788D01*
X3029D01*
X3170Y10698D02*
X3210Y10737D01*
X2940Y10698D02*
X3170D01*
X2804Y10834D02*
X2940Y10698D01*
X5141Y11918D02*
X5250Y12028D01*
Y12048D01*
X5277Y12074D01*
X5454D01*
X5480Y12048D01*
Y12028D02*
Y12048D01*
Y12028D02*
X5591Y11917D01*
X6233Y11872D02*
Y12176D01*
X6077Y11804D02*
X6144Y11872D01*
X6233D01*
X5340Y12388D02*
X5378D01*
X5522Y12532D01*
Y12565D01*
X5641Y12684D01*
X5420Y11287D02*
X5506Y11373D01*
X10217Y12363D02*
X10261Y12319D01*
X10217Y12363D02*
X10302Y12448D01*
X10332D01*
X10020Y11846D02*
Y12456D01*
X9916Y11742D02*
X10020Y11846D01*
X10080Y11970D02*
Y12151D01*
X10217Y12288D01*
Y12363D01*
X20175Y9845D02*
X20425D01*
X19767Y10030D02*
X19830Y10094D01*
X21023D02*
X21099Y10170D01*
X20676Y10094D02*
X21023D01*
X19830D02*
X20419D01*
X20055Y9785D02*
Y9992D01*
X21094D02*
X21110Y10007D01*
X20489Y10024D02*
X20607D01*
X20055Y9992D02*
X20436D01*
X20464Y9964D01*
X20632D01*
X20660Y9992D01*
X21094D01*
X20419Y10094D02*
X20489Y10024D01*
X20607D02*
X20676Y10094D01*
X19644Y9934D02*
X19771Y9806D01*
X19826D01*
X19888Y9744D01*
Y9690D02*
Y9744D01*
Y9690D02*
X20084Y9493D01*
X20055Y9785D02*
X20170Y9670D01*
X19441Y9433D02*
X20304D01*
X20430Y9307D01*
Y9070D02*
Y9307D01*
X20329Y9493D02*
X20552Y9271D01*
X20084Y9493D02*
X20329D01*
X20552Y9153D02*
Y9271D01*
X17682Y9669D02*
Y9732D01*
X17340Y9840D02*
X17663D01*
Y9751D02*
Y9840D01*
Y9751D02*
X17682Y9732D01*
X17604Y9283D02*
X17622Y9266D01*
X17116Y9283D02*
X17604D01*
X17683Y8437D02*
Y8570D01*
X17712Y8599D01*
X17423Y8189D02*
X17587D01*
X17772Y8374D01*
Y8730D01*
X17561Y8316D02*
X17683Y8437D01*
X17485Y8316D02*
X17561D01*
X17332Y8469D02*
X17485Y8316D01*
X17332Y8469D02*
Y8568D01*
X17307Y8542D02*
Y8850D01*
X17332Y8874D01*
X17486Y8502D02*
X17507D01*
X17392Y8596D02*
X17486Y8502D01*
X17392Y8596D02*
Y8622D01*
X17502Y8682D02*
Y8789D01*
X17622Y8910D01*
Y9266D01*
X17442Y8808D02*
Y8945D01*
X17507Y9010D01*
X17519Y8502D02*
X17652Y8635D01*
X17507Y8502D02*
X17519D01*
X10713Y9915D02*
X10890Y9738D01*
X10595Y9915D02*
X10713D01*
X10057Y10043D02*
X10467D01*
X10025Y10074D02*
X10057Y10043D01*
X10890Y9738D02*
X10957D01*
X10467Y10043D02*
X10595Y9915D01*
X10025Y9941D02*
Y10074D01*
X10101Y9706D02*
Y9967D01*
X10271D01*
X10383Y9855D01*
X10215Y8989D02*
Y9078D01*
X10421Y8872D01*
X2888Y9653D02*
X2891D01*
X2639Y7655D02*
Y7861D01*
Y7655D02*
X3331D01*
Y7861D01*
X3591Y6898D02*
Y6944D01*
X3394Y6700D02*
X3591Y6898D01*
X3187Y7945D02*
Y8084D01*
X4376D01*
X4526Y7935D01*
X2698Y8006D02*
X2759Y7945D01*
X2978D01*
X1678Y8223D02*
X5496D01*
X2517Y6970D02*
Y7944D01*
X2580Y8006D01*
X2698D01*
X2398Y7909D02*
X2555Y8066D01*
X3037D01*
X3134Y8163D01*
X5420D01*
X5540Y8043D02*
X5591D01*
X5420Y8163D02*
X5540Y8043D01*
X5568Y7482D02*
X5572Y7477D01*
Y7198D02*
Y7477D01*
X5195Y7482D02*
X5257D01*
X5277Y7502D01*
X5454D01*
X5474Y7482D01*
X5568D01*
X5365Y7816D02*
X5450Y7731D01*
X5471Y7261D02*
Y7274D01*
X5365Y7232D02*
X5441D01*
X5458Y7249D02*
X5481Y7226D01*
X5441Y7232D02*
X5458Y7249D01*
X5471Y7261D01*
X10597Y7301D02*
X10611D01*
X10656Y7345D01*
X10789D01*
X10666Y7270D02*
X10758D01*
X10544Y7353D02*
X10781D01*
X10604Y7208D02*
X10666Y7270D01*
X10485Y7208D02*
X10604D01*
X10423Y7270D02*
X10485Y7208D01*
X10423Y7270D02*
Y7436D01*
X10541Y7554D01*
X9588Y7706D02*
X10506D01*
X9807Y7637D02*
X10086Y7358D01*
X10002Y6982D02*
X10116Y7096D01*
X10287D01*
X10427Y6956D01*
X10101Y6379D02*
Y6647D01*
X10205Y6751D01*
X10305Y6920D02*
X10367Y6858D01*
X10299Y6342D02*
X10876Y6919D01*
X10427Y6762D02*
Y6928D01*
X10427Y6928D01*
Y6956D01*
X10348Y6839D02*
X10367Y6858D01*
X10348Y6817D02*
Y6839D01*
X10427Y6762D02*
X10427Y6762D01*
Y6561D02*
Y6762D01*
X10789Y7345D02*
X10833Y7301D01*
X12692Y6812D02*
Y6919D01*
X12540Y7071D02*
X12692Y6919D01*
X12514Y7046D02*
X12540Y7071D01*
X12238Y6845D02*
Y6870D01*
X12338D01*
X12347Y6879D01*
X12554D01*
X12098Y6700D02*
X12509D01*
X11692Y6919D02*
X11879D01*
X12098Y6700D01*
X11692Y6919D02*
X11768Y6995D01*
Y7095D01*
X10833Y7301D02*
X11961D01*
X12014Y7353D01*
X12307Y7184D02*
X12359Y7236D01*
Y7449D01*
X11858Y7184D02*
X12307D01*
X11768Y7095D02*
X11858Y7184D01*
X12464Y7096D02*
X12514Y7046D01*
X12430Y7096D02*
Y7203D01*
X12438Y7211D01*
X11897Y7096D02*
X12430D01*
X12464D01*
X12359Y7449D02*
X12438Y7528D01*
X12669D01*
Y7282D02*
Y7528D01*
X12202Y7564D02*
X12389D01*
X12413Y7588D01*
X12694D01*
X12799Y7483D01*
X11770Y7376D02*
X11821D01*
X11770Y7376D02*
X11770Y7376D01*
X16393Y7683D02*
X17640D01*
X17820Y7863D01*
X17893D01*
X19238Y7477D02*
X19263Y7452D01*
X18857Y7477D02*
X19238D01*
X18857Y7477D02*
X18857Y7477D01*
X19896Y7251D02*
Y7835D01*
Y7251D02*
X19914Y7233D01*
X20267D01*
X19428Y7173D02*
X20203D01*
X20430Y6945D01*
Y6762D02*
Y6945D01*
X20101Y7325D02*
X20170D01*
X20032Y7394D02*
X20101Y7325D01*
X20032Y7394D02*
Y7561D01*
X20354Y5597D02*
X20403Y5646D01*
Y5979D01*
X19767Y5407D02*
Y5554D01*
Y5407D02*
X20779D01*
X20304Y5318D02*
X20345Y5277D01*
X19645Y5418D02*
X19746Y5318D01*
X19771Y5293D01*
X19974Y5235D02*
X20170Y5039D01*
X19974Y5235D02*
Y5318D01*
X19746D02*
X19974D01*
X20304D01*
X20607Y4901D02*
X20633Y4926D01*
X21231D01*
X20345Y5044D02*
Y5277D01*
Y5044D02*
X20489Y4901D01*
X20607D01*
X20464Y4841D02*
X20584D01*
X20285Y5019D02*
X20464Y4841D01*
X20285Y5019D02*
Y5176D01*
X20398Y4623D02*
Y4691D01*
X20141Y4949D02*
X20398Y4691D01*
X20082Y4949D02*
X20141D01*
X20055Y4975D02*
X20082Y4949D01*
X20055Y4975D02*
Y4983D01*
X19806Y5233D02*
X20055Y4983D01*
X19746Y5233D02*
X19806D01*
X20398Y4623D02*
X20552D01*
X17691Y5367D02*
X17924D01*
X17160Y4826D02*
X17206Y4871D01*
Y5442D02*
X17234Y5471D01*
Y5558D01*
X17377Y5701D01*
X17206Y4871D02*
Y4934D01*
X17234Y4963D01*
Y5128D01*
X17206Y5157D02*
X17234Y5128D01*
X17206Y5157D02*
Y5442D01*
X17434Y4963D02*
X17507D01*
X17307Y5090D02*
X17434Y4963D01*
X17307Y5090D02*
Y5369D01*
X17459Y5521D01*
X17507D01*
X11934Y4901D02*
X12317D01*
X12415Y4998D01*
Y5085D01*
X12554Y5126D02*
X12572D01*
X12729Y5054D02*
Y5256D01*
Y5054D02*
X12804Y4978D01*
Y4963D02*
Y4978D01*
Y4963D02*
X12821Y4946D01*
X12761Y4805D02*
Y4922D01*
X12744Y4938D02*
X12761Y4922D01*
X12744Y4938D02*
Y4953D01*
X12572Y5126D02*
X12744Y4953D01*
X12761Y4805D02*
X12796Y4770D01*
Y4442D02*
Y4770D01*
X12856Y4635D02*
X12930Y4561D01*
X12856Y4635D02*
Y4795D01*
X12821Y4830D02*
X12856Y4795D01*
X12821Y4830D02*
Y4946D01*
X12554Y4890D02*
Y4946D01*
Y4890D02*
X12710Y4734D01*
Y4620D02*
Y4734D01*
X12554Y4463D02*
X12710Y4620D01*
X12367Y4463D02*
X12554D01*
X12297Y4393D02*
X12367Y4463D01*
X12028Y4393D02*
X12297D01*
X11836Y4201D02*
X12028Y4393D01*
X11216Y4821D02*
X11836Y4201D01*
X12159Y3878D01*
X9832Y4664D02*
X10029Y4861D01*
X10241D01*
X10406Y4696D01*
X10169Y4291D02*
X10185D01*
X10109Y4231D02*
X10169Y4291D01*
X10102Y4231D02*
X10109D01*
X10042Y3948D02*
X10103Y3887D01*
X5250Y4302D02*
Y4502D01*
Y4302D02*
X5272D01*
X5277Y4297D01*
X5454D01*
X5459Y4302D01*
X5953D01*
X4899Y3949D02*
X5079Y3769D01*
X5757D01*
X6012Y4025D01*
X4203Y3728D02*
X5035D01*
X5054Y3709D01*
X5782D01*
X5801Y3728D01*
X5900D01*
X5284Y3905D02*
X5340D01*
X5145Y4044D02*
X5284Y3905D01*
X5145Y4044D02*
Y4119D01*
X4962Y4302D02*
X5145Y4119D01*
X4569Y4302D02*
X4962D01*
X4569Y4302D02*
X4569Y4302D01*
X2764Y4455D02*
Y4669D01*
X2885Y4790D01*
X3185D01*
X2639Y5426D02*
X2747Y5318D01*
X3223D01*
X3331Y5426D01*
X5503Y1540D02*
Y1599D01*
X5480Y1518D02*
X5503Y1540D01*
X5157Y1518D02*
X5480D01*
X5096Y1579D02*
X5157Y1518D01*
X5083Y1579D02*
X5096D01*
X10050Y2956D02*
X10392D01*
Y2804D02*
Y2956D01*
Y2804D02*
X10398Y2798D01*
Y2760D02*
Y2798D01*
X10392Y2754D02*
X10398Y2760D01*
X10392Y2686D02*
Y2754D01*
X9419Y2593D02*
X9887D01*
X9950Y2655D01*
X10128Y3309D02*
X10135D01*
X10217Y3390D01*
Y3399D01*
X9056Y2230D02*
X9419Y2593D01*
X10050Y3231D02*
X10128Y3309D01*
X10050Y2956D02*
Y3231D01*
Y2778D02*
Y2956D01*
X9950Y2677D02*
X10050Y2778D01*
X9950Y2655D02*
Y2677D01*
X10297Y1694D02*
X10546Y1445D01*
X13499Y1246D02*
X13609Y1356D01*
X10546Y1445D02*
X15918D01*
X10548Y1600D02*
X10640Y1508D01*
X13573D01*
X13667Y1602D01*
X12359Y1619D02*
X12554D01*
X12319Y1579D02*
X12359Y1619D01*
X12175Y1579D02*
X12319D01*
X12112Y1641D02*
X12175Y1579D01*
X12112Y1641D02*
Y1928D01*
X11745Y2296D02*
X12112Y1928D01*
X11745Y2296D02*
Y2376D01*
X11840Y2472D01*
X11870D01*
X10899Y1938D02*
X11485Y2524D01*
X12354D02*
X12430Y2601D01*
X11872Y2270D02*
Y2397D01*
Y2270D02*
X12273Y1869D01*
X12296D01*
X12367Y1799D01*
X11870Y2472D02*
Y2523D01*
X11872Y2524D01*
X12354D01*
X12338Y2127D02*
X12554D01*
X12297Y2085D02*
X12338Y2127D01*
X12178Y2085D02*
X12297D01*
X12116Y2147D02*
X12178Y2085D01*
X12116Y2147D02*
Y2277D01*
X11870Y2523D02*
X12116Y2277D01*
X11485Y2524D02*
X11872D01*
X14818Y2308D02*
X14831Y2321D01*
X14869D01*
X14412Y3667D02*
X14818Y3261D01*
X14412Y3667D02*
Y3902D01*
X13667D02*
X14412D01*
X14416D01*
X17391Y2759D02*
Y2982D01*
X17720D01*
X17759Y2943D01*
X17663Y1661D02*
Y2062D01*
X17507Y1661D02*
X17663D01*
X17663Y1661D01*
X17282Y2296D02*
X17359Y2219D01*
X17587Y2677D02*
X17612Y2651D01*
X17507Y2677D02*
X17587D01*
X19475Y2524D02*
X19602Y2397D01*
X20254D01*
X20430Y2220D01*
X20083Y2499D02*
X20399D01*
X20552Y2347D01*
X19898Y2684D02*
X20083Y2499D01*
X19708Y2883D02*
X19826D01*
X19708Y2883D02*
X19708Y2883D01*
X19629Y2883D02*
X19708D01*
X19898Y2684D02*
Y2811D01*
X19826Y2883D02*
X19898Y2811D01*
X20170Y3115D02*
X20254Y3032D01*
X20050Y2982D02*
X20203D01*
X20000Y2931D02*
X20050Y2982D01*
X20000Y2797D02*
Y2931D01*
Y2797D02*
X20170Y2626D01*
X20203Y2982D02*
X20254Y3032D01*
X10217Y14623D02*
X10327Y14513D01*
X10373D01*
X10548Y13769D02*
Y13853D01*
X10523Y13878D02*
X10548Y13853D01*
X10101Y13878D02*
X10523D01*
X10018Y13916D02*
X10041D01*
Y13853D02*
Y13916D01*
Y13853D02*
X10076Y13818D01*
X10172D01*
Y13762D02*
Y13818D01*
X10018Y13916D02*
X10041Y13893D01*
Y13853D02*
Y13893D01*
X10076Y13818D02*
X10116D01*
X10172Y13762D01*
X10012Y14056D02*
X10101Y13967D01*
Y13878D02*
Y13967D01*
X10012Y14056D02*
X10101Y14144D01*
Y14233D01*
X10217Y13984D02*
X10246Y13954D01*
X10217Y13984D02*
Y14090D01*
X10217Y10813D02*
X10313D01*
X10330Y10830D02*
X10332Y10828D01*
X10313Y10813D02*
X10330Y10830D01*
X10391Y10891D01*
X1078Y19400D02*
X1655D01*
X9052D02*
X9828D01*
X7731Y18984D02*
Y19644D01*
X7757Y19669D01*
X20170Y16478D02*
X20228Y16420D01*
X10217Y10153D02*
X10258Y10111D01*
X10311D01*
X10423Y10223D01*
Y10252D01*
X10485Y10314D01*
X10604D01*
X10806Y10111D01*
X11745D01*
X12554Y11842D02*
Y11855D01*
X12532Y11338D02*
X12537D01*
X12554Y11321D01*
X10805Y2285D02*
Y2296D01*
X10768Y2248D02*
X10805Y2285D01*
X10768Y2245D02*
Y2248D01*
X10590Y2067D02*
X10768Y2245D01*
X12456Y17594D02*
X14766D01*
X12377Y17673D02*
Y18449D01*
X12438Y17668D02*
Y18062D01*
X12377Y17673D02*
X12378Y17672D01*
Y17643D02*
Y17672D01*
Y17643D02*
X12413Y17608D01*
X12438Y17668D02*
X12455D01*
X12465Y17658D01*
X12642D01*
X12652Y17668D01*
X12971D01*
X12413Y17608D02*
X12430D01*
X12440Y17598D01*
X12452D01*
X12456Y17594D01*
X9720Y2377D02*
X9911D01*
X10016Y2272D01*
Y2193D02*
Y2272D01*
X9992Y2166D02*
X10017Y2192D01*
X10016Y2193D02*
X10017Y2192D01*
X10267Y1952D02*
Y2051D01*
Y1952D02*
X10332Y1887D01*
Y1730D02*
Y1887D01*
X10373Y1991D02*
Y2042D01*
X10449Y2118D01*
X10393Y2174D02*
X10449Y2118D01*
X10500Y2067D01*
X6254Y2281D02*
X6497Y2524D01*
X6507D01*
X4861Y11287D02*
X4912Y11338D01*
X4861Y11287D02*
Y11287D01*
X5147Y8983D02*
X5217Y9052D01*
Y9103D01*
X18069Y13751D02*
X18095D01*
X8367Y2021D02*
X8471D01*
X15918Y1445D02*
X16592Y770D01*
X17018D01*
X5481Y6816D02*
Y6997D01*
Y7226D01*
X20227Y1634D02*
X20433D01*
X20145Y18763D02*
X20304Y18603D01*
X20211Y18229D02*
X20961D01*
X20170Y16528D02*
X20313D01*
X20847Y15994D02*
X21094D01*
X20228Y16342D02*
Y16420D01*
X20137Y15969D02*
X20170D01*
X20137Y15905D02*
Y15969D01*
X19908Y18552D02*
X20119Y18763D01*
X19568Y17696D02*
X20145D01*
X19982Y15512D02*
X20330D01*
X17483Y16528D02*
X17605D01*
X17487Y15994D02*
X17635D01*
X20170Y13632D02*
X20355D01*
X20569Y12269D02*
X22076D01*
X20076Y12244D02*
X20543D01*
X20213Y13905D02*
Y14165D01*
X20170Y10254D02*
X20287D01*
X19997Y11422D02*
X20170D01*
X20099Y10914D02*
X20287D01*
X17459Y10813D02*
X17853D01*
X17307Y18788D02*
X17507D01*
X17401Y18306D02*
X17507D01*
Y18222D02*
Y18306D01*
X17383Y16428D02*
X17483Y16528D01*
X17335Y15842D02*
X17487Y15994D01*
Y15598D02*
Y15994D01*
X16692Y15923D02*
Y16020D01*
X13316Y17798D02*
X13444D01*
X12554D02*
X12667D01*
X12514Y16578D02*
X12669D01*
X12554Y16020D02*
X12669D01*
X13259Y15512D02*
X13467D01*
X12377D02*
X12626D01*
X12514Y16505D02*
X12583Y16436D01*
X12514Y16505D02*
Y16578D01*
X17259Y14648D02*
X17507D01*
X17409Y14165D02*
X17507D01*
Y13149D02*
X17599D01*
X17417Y12311D02*
X17532D01*
X12554Y14115D02*
X12555D01*
X12554Y12438D02*
X12669D01*
X17478Y11829D02*
X17532D01*
X17416Y11295D02*
X17532D01*
X12554Y11371D02*
X12634D01*
X12555Y10760D02*
Y10813D01*
X12554D02*
X12555D01*
X12405Y13947D02*
X12555Y14097D01*
X12410Y13657D02*
X12554D01*
X12438Y13124D02*
X12646D01*
X20170Y9187D02*
X20381Y8976D01*
X20170Y8679D02*
X20347Y8502D01*
X20170Y6333D02*
X20403Y6101D01*
X20170Y7883D02*
X20287D01*
X20203Y7604D02*
Y7850D01*
X20170Y7883D02*
X20203Y7850D01*
X20170Y8476D02*
Y8679D01*
X20070Y6333D02*
X20170D01*
X17541Y9619D02*
X17714Y9446D01*
X19968Y6639D02*
X20170Y6841D01*
Y4555D02*
X20333Y4393D01*
X20170Y4047D02*
X20525Y3693D01*
X20186Y2127D02*
X20288Y2025D01*
X20168Y1575D02*
X20227Y1634D01*
X19928Y5597D02*
X20354D01*
X20066Y4047D02*
X20170D01*
X17507Y9619D02*
X17541D01*
X13231Y8577D02*
X13454D01*
X12555Y8968D02*
Y9060D01*
X12554D02*
X12555D01*
X17462Y6601D02*
Y6791D01*
X17436Y7857D02*
X17507D01*
X17462Y6791D02*
X17507D01*
X17424Y6283D02*
X17551D01*
X12554Y7841D02*
X12669D01*
X12554Y7282D02*
X12669D01*
X12509Y6749D02*
X12554D01*
X12418Y8552D02*
X12669D01*
X12458Y6241D02*
X12669D01*
X17521Y5536D02*
X17691Y5367D01*
X12554Y5555D02*
X12669D01*
X12552Y3980D02*
X12669D01*
X12552Y3911D02*
Y3980D01*
X12554Y3294D02*
X12632D01*
X17507Y2219D02*
X17663Y2062D01*
X17359Y2219D02*
X17507D01*
X10106Y16578D02*
X10217D01*
X10168Y16020D02*
X10261D01*
X10345Y15631D02*
Y15936D01*
X10261Y16020D02*
X10345Y15936D01*
X9504Y15801D02*
Y16020D01*
X6813Y18784D02*
Y18839D01*
X5842Y18306D02*
X6328D01*
X5340Y18247D02*
Y18306D01*
X5488Y18239D02*
X5775D01*
X6102Y16553D02*
X6370Y16285D01*
X6153Y14992D02*
Y15994D01*
X5923Y15765D02*
X6153Y15994D01*
X6102Y16258D02*
Y16553D01*
X5365Y16528D02*
X5595Y16298D01*
X5141Y16291D02*
X5365Y16516D01*
X5365Y15969D02*
X5500Y15834D01*
X10217Y14673D02*
X10312D01*
X10215Y12974D02*
Y13124D01*
X10320D01*
X5365Y14724D02*
X5496Y14593D01*
X5281Y14640D02*
X5365Y14724D01*
X5321Y13657D02*
X5365D01*
X10145Y11905D02*
X10217D01*
X5365Y11854D02*
X5506Y11714D01*
X5391Y11203D02*
Y11346D01*
X5229D02*
X5391D01*
X4506Y16926D02*
X4702Y16729D01*
X4480Y14640D02*
X5191D01*
X3587Y16494D02*
X3738Y16343D01*
X2915Y16439D02*
X3003Y16528D01*
X2888D02*
X3003D01*
X2888Y15994D02*
X3003D01*
X5321Y13571D02*
Y13657D01*
X5285Y12367D02*
Y12438D01*
X3029Y13734D02*
X3132D01*
X2945Y13650D02*
X3029Y13734D01*
X1606D02*
X2046Y13294D01*
X1421Y13548D02*
X1606Y13734D01*
X2921Y13118D02*
X4963D01*
X2931Y11905D02*
X3003D01*
X10138Y9670D02*
X10217D01*
X10132Y8654D02*
X10297D01*
X10138Y6342D02*
X10299D01*
X10205Y6850D02*
X10217D01*
X10086Y7358D02*
X10217D01*
X10205Y6751D02*
Y6850D01*
X6057Y8552D02*
X6319D01*
X5365Y9060D02*
X5439D01*
X6057Y8481D02*
Y8552D01*
X5364Y8506D02*
X5468Y8402D01*
X5217Y6241D02*
X5473D01*
X10193Y5504D02*
Y5580D01*
X10138Y5072D02*
X10217D01*
X10185Y4564D02*
X10217D01*
X10162Y4031D02*
X10282D01*
X10185Y4291D02*
Y4564D01*
X10261Y3269D02*
X10447Y3083D01*
X10297Y2080D02*
Y2177D01*
X10076Y2594D02*
X10217Y2735D01*
X10267Y2051D02*
X10297Y2080D01*
X10119Y2177D02*
X10297D01*
X6126Y3955D02*
X6218D01*
X5900Y3728D02*
X6126Y3955D01*
X5365Y4437D02*
X5444D01*
X6032Y2151D02*
X6077D01*
X5874Y1993D02*
X6032Y2151D01*
X5250Y2685D02*
X5439D01*
X5365Y2177D02*
X5438D01*
X5395Y9357D02*
Y9593D01*
X5340D02*
X5395D01*
X5364Y8552D02*
X5365D01*
X3002Y9542D02*
X3003Y9541D01*
X3002Y8474D02*
Y8527D01*
X5365Y7282D02*
X5365D01*
X2891Y9653D02*
X3002Y9542D01*
X2138Y9085D02*
X2397D01*
X3003Y6728D02*
X3092Y6639D01*
X2832Y3929D02*
X3136D01*
X3027Y2177D02*
X3233Y1971D01*
X2931Y2177D02*
X3027D01*
X3003Y1669D02*
X3119D01*
X2087Y2177D02*
X2402D01*
X12717Y8481D02*
X13134D01*
X3331Y5040D02*
X3336D01*
X1859Y11971D02*
X2047D01*
X2639D01*
X3331Y11745D02*
Y11828D01*
Y11969D01*
X6490Y16584D02*
X8292D01*
X17893Y5074D02*
X19289D01*
X12961Y16584D02*
X14412D01*
Y16586D02*
X14772D01*
X17822Y14206D02*
X17865Y14163D01*
X1078Y3678D02*
Y4032D01*
X2639Y1724D02*
X2905Y1458D01*
X1082Y6230D02*
X1859D01*
Y6340D02*
X2639D01*
X1859Y6230D02*
Y6340D01*
X9828Y6204D02*
Y6340D01*
X13667Y1724D02*
Y1770D01*
X13863D01*
X14412Y3902D02*
Y4032D01*
Y1724D02*
X14907Y2220D01*
X14818Y2308D02*
X14907Y2220D01*
X21320Y1724D02*
Y1864D01*
X22097Y3525D02*
Y4032D01*
Y1724D02*
X22362Y1989D01*
X21320Y10957D02*
X22097D01*
Y10958D01*
X17893Y17879D02*
X18564D01*
X20548D02*
X21316D01*
X20548Y17870D02*
Y17879D01*
X5716Y18436D02*
X6077D01*
X17116Y18407D02*
X17260D01*
X7119D02*
X7202D01*
X19771Y18361D02*
X19934D01*
X5024Y18437D02*
X5179D01*
X10544Y19403D02*
X12234D01*
X6453Y18461D02*
X6542D01*
X12521Y18144D02*
X12609D01*
X13886Y18387D02*
X14416D01*
X20552Y18361D02*
X20732D01*
X3581Y18592D02*
X3693Y18704D01*
X6449Y1724D02*
X6474D01*
X1863Y10955D02*
Y11104D01*
X3331Y13263D02*
X5020D01*
X4986Y11040D02*
X5020D01*
X1078Y17879D02*
X1859D01*
X15529Y1724D02*
X16344D01*
X15529Y13263D02*
X16344D01*
X17627Y18437D02*
X17897D01*
D12*
X10544Y3246D02*
D03*
Y2738D02*
D03*
X10548Y2230D02*
D03*
X10544Y1724D02*
D03*
X10548Y1724D02*
D03*
X10544Y1724D02*
D03*
X20548Y10169D02*
D03*
Y9661D02*
D03*
X20552Y9153D02*
D03*
X20548Y8648D02*
D03*
X20552Y8647D02*
D03*
X20548Y8648D02*
D03*
X17893Y3246D02*
D03*
Y2738D02*
D03*
X17897Y2230D02*
D03*
X17893Y1724D02*
D03*
X17897Y1724D02*
D03*
X17893Y1724D02*
D03*
X19767Y3246D02*
D03*
Y2738D02*
D03*
X19771Y2230D02*
D03*
X19767Y1724D02*
D03*
X19771Y1724D02*
D03*
X19767Y1724D02*
D03*
X21316Y3246D02*
D03*
Y2738D02*
D03*
X21320Y2230D02*
D03*
X21316Y1724D02*
D03*
X21320Y1724D02*
D03*
X21316Y1724D02*
D03*
X22097Y3246D02*
D03*
Y2738D02*
D03*
X22101Y2230D02*
D03*
X22097Y1724D02*
D03*
X22101Y1724D02*
D03*
X22097Y1724D02*
D03*
X17112Y3246D02*
D03*
Y2738D02*
D03*
X17116Y2230D02*
D03*
X17112Y1724D02*
D03*
X17116Y1724D02*
D03*
X17112Y1724D02*
D03*
X20548Y3246D02*
D03*
Y2738D02*
D03*
X20552Y2230D02*
D03*
X20548Y1724D02*
D03*
X20552Y1724D02*
D03*
X20548Y1724D02*
D03*
X15529Y3246D02*
D03*
Y2738D02*
D03*
X15533Y2230D02*
D03*
X15529Y1724D02*
D03*
X15533Y1724D02*
D03*
X15529Y1724D02*
D03*
X16344Y3246D02*
D03*
Y2738D02*
D03*
X16348Y2230D02*
D03*
X16344Y1724D02*
D03*
X16348Y1724D02*
D03*
X16344Y1724D02*
D03*
X21316Y5554D02*
D03*
Y5046D02*
D03*
X21320Y4538D02*
D03*
X21316Y4032D02*
D03*
X21320Y4032D02*
D03*
X21316Y4032D02*
D03*
X22097Y5554D02*
D03*
Y5046D02*
D03*
X22101Y4538D02*
D03*
X22097Y4032D02*
D03*
X22101Y4032D02*
D03*
X22097Y4032D02*
D03*
X17112Y5554D02*
D03*
Y5046D02*
D03*
X17116Y4538D02*
D03*
X17112Y4032D02*
D03*
X17116Y4032D02*
D03*
X17112Y4032D02*
D03*
X17893Y5554D02*
D03*
Y5046D02*
D03*
X17897Y4538D02*
D03*
X17893Y4032D02*
D03*
X17897Y4032D02*
D03*
X17893Y4032D02*
D03*
X19767Y5554D02*
D03*
Y5046D02*
D03*
X19771Y4538D02*
D03*
X19767Y4032D02*
D03*
X19771Y4032D02*
D03*
X19767Y4032D02*
D03*
X20548Y5554D02*
D03*
Y5046D02*
D03*
X20552Y4538D02*
D03*
X20548Y4032D02*
D03*
X20552Y4032D02*
D03*
X20548Y4032D02*
D03*
X15529Y5554D02*
D03*
Y5046D02*
D03*
X15533Y4538D02*
D03*
X15529Y4032D02*
D03*
X15533Y4032D02*
D03*
X15529Y4032D02*
D03*
X16344Y5554D02*
D03*
Y5046D02*
D03*
X16348Y4538D02*
D03*
X16344Y4032D02*
D03*
X16348Y4032D02*
D03*
X16344Y4032D02*
D03*
X21316Y7861D02*
D03*
Y7353D02*
D03*
X21320Y6845D02*
D03*
X21316Y6340D02*
D03*
X21320Y6339D02*
D03*
X21316Y6340D02*
D03*
X22097Y7861D02*
D03*
Y7353D02*
D03*
X22101Y6845D02*
D03*
X22097Y6340D02*
D03*
X22101Y6339D02*
D03*
X22097Y6340D02*
D03*
X17112Y7861D02*
D03*
Y7353D02*
D03*
X17116Y6845D02*
D03*
X17112Y6340D02*
D03*
X17116Y6339D02*
D03*
X17112Y6340D02*
D03*
X17893Y7861D02*
D03*
Y7353D02*
D03*
X17897Y6845D02*
D03*
X17893Y6340D02*
D03*
X17897Y6339D02*
D03*
X17893Y6340D02*
D03*
X19767Y7861D02*
D03*
Y7353D02*
D03*
X19771Y6845D02*
D03*
X19767Y6340D02*
D03*
X19771Y6339D02*
D03*
X19767Y6340D02*
D03*
X20548Y7861D02*
D03*
Y7353D02*
D03*
X20552Y6845D02*
D03*
X20548Y6340D02*
D03*
X20552Y6339D02*
D03*
X20548Y6340D02*
D03*
X15529Y7861D02*
D03*
Y7353D02*
D03*
X15533Y6845D02*
D03*
X15529Y6340D02*
D03*
X15533Y6339D02*
D03*
X15529Y6340D02*
D03*
X16344Y7861D02*
D03*
Y7353D02*
D03*
X16348Y6845D02*
D03*
X16344Y6340D02*
D03*
X16348Y6339D02*
D03*
X16344Y6340D02*
D03*
X21316Y10169D02*
D03*
Y9661D02*
D03*
X21320Y9153D02*
D03*
X21316Y8648D02*
D03*
X21320Y8647D02*
D03*
X21316Y8648D02*
D03*
X22097Y10169D02*
D03*
Y9661D02*
D03*
X22101Y9153D02*
D03*
X22097Y8648D02*
D03*
X22101Y8647D02*
D03*
X22097Y8648D02*
D03*
X17112Y10169D02*
D03*
Y9661D02*
D03*
X17116Y9153D02*
D03*
X17112Y8648D02*
D03*
X17116Y8647D02*
D03*
X17112Y8648D02*
D03*
X17893Y10169D02*
D03*
Y9661D02*
D03*
X17897Y9153D02*
D03*
X17893Y8648D02*
D03*
X17897Y8647D02*
D03*
X17893Y8648D02*
D03*
X19767Y10169D02*
D03*
Y9661D02*
D03*
X19771Y9153D02*
D03*
X19767Y8648D02*
D03*
X19771Y8647D02*
D03*
X19767Y8648D02*
D03*
X15529Y10169D02*
D03*
Y9661D02*
D03*
X15533Y9153D02*
D03*
X15529Y8648D02*
D03*
X15533Y8647D02*
D03*
X15529Y8648D02*
D03*
X16344Y10169D02*
D03*
Y9661D02*
D03*
X16348Y9153D02*
D03*
X16344Y8648D02*
D03*
X16348Y8647D02*
D03*
X16344Y8648D02*
D03*
X21316Y12479D02*
D03*
Y11971D02*
D03*
X21320Y11463D02*
D03*
X21316Y10958D02*
D03*
X21320Y10957D02*
D03*
X21316Y10958D02*
D03*
X22097Y12479D02*
D03*
Y11971D02*
D03*
X22101Y11463D02*
D03*
X22097Y10958D02*
D03*
X22101Y10957D02*
D03*
X22097Y10958D02*
D03*
X17112Y12477D02*
D03*
Y11969D02*
D03*
X17116Y11461D02*
D03*
X17112Y10955D02*
D03*
X17116Y10955D02*
D03*
X17112Y10955D02*
D03*
X17893Y12477D02*
D03*
Y11969D02*
D03*
X17897Y11461D02*
D03*
X17893Y10955D02*
D03*
X17897Y10955D02*
D03*
X17893Y10955D02*
D03*
X19767Y12479D02*
D03*
Y11971D02*
D03*
X19771Y11463D02*
D03*
X19767Y10958D02*
D03*
X19771Y10957D02*
D03*
X19767Y10958D02*
D03*
X20548Y12479D02*
D03*
Y11971D02*
D03*
X20552Y11463D02*
D03*
X20548Y10958D02*
D03*
X20552Y10957D02*
D03*
X20548Y10958D02*
D03*
X15529Y12477D02*
D03*
Y11969D02*
D03*
X15533Y11461D02*
D03*
X15529Y10955D02*
D03*
X15533Y10955D02*
D03*
X15529Y10955D02*
D03*
X16344Y12477D02*
D03*
Y11969D02*
D03*
X16348Y11461D02*
D03*
X16344Y10955D02*
D03*
X16348Y10955D02*
D03*
X16344Y10955D02*
D03*
X21316Y14785D02*
D03*
Y14277D02*
D03*
X21320Y13769D02*
D03*
X21316Y13263D02*
D03*
X21320Y13263D02*
D03*
X21316Y13263D02*
D03*
X22097Y14785D02*
D03*
Y14277D02*
D03*
X22101Y13769D02*
D03*
X22097Y13263D02*
D03*
X22101Y13263D02*
D03*
X22097Y13263D02*
D03*
X17112Y14785D02*
D03*
Y14277D02*
D03*
X17116Y13769D02*
D03*
X17112Y13263D02*
D03*
X17116Y13263D02*
D03*
X17112Y13263D02*
D03*
X17893Y14785D02*
D03*
Y14277D02*
D03*
X17897Y13769D02*
D03*
X17893Y13263D02*
D03*
X17897Y13263D02*
D03*
X17893Y13263D02*
D03*
X21316Y17092D02*
D03*
Y16584D02*
D03*
X21320Y16076D02*
D03*
X21316Y15571D02*
D03*
X21320Y15570D02*
D03*
X21316Y15571D02*
D03*
X22097Y17092D02*
D03*
Y16584D02*
D03*
X22101Y16076D02*
D03*
X22097Y15571D02*
D03*
X22101Y15570D02*
D03*
X22097Y15571D02*
D03*
X17112Y17092D02*
D03*
Y16584D02*
D03*
X17116Y16076D02*
D03*
X17112Y15571D02*
D03*
X17116Y15570D02*
D03*
X17112Y15571D02*
D03*
X17893Y17092D02*
D03*
Y16584D02*
D03*
X17897Y16076D02*
D03*
X17893Y15571D02*
D03*
X17897Y15570D02*
D03*
X17893Y15571D02*
D03*
X19767Y14785D02*
D03*
Y14277D02*
D03*
X19771Y13769D02*
D03*
X19767Y13263D02*
D03*
X19771Y13263D02*
D03*
X19767Y13263D02*
D03*
X20548Y14785D02*
D03*
Y14277D02*
D03*
X20552Y13769D02*
D03*
X20548Y13263D02*
D03*
X20552Y13263D02*
D03*
X20548Y13263D02*
D03*
X15529Y14785D02*
D03*
Y14277D02*
D03*
X15533Y13769D02*
D03*
X15529Y13263D02*
D03*
X15533Y13263D02*
D03*
X15529Y13263D02*
D03*
X16344Y14785D02*
D03*
Y14277D02*
D03*
X16348Y13769D02*
D03*
X16344Y13263D02*
D03*
X16348Y13263D02*
D03*
X16344Y13263D02*
D03*
X19767Y17092D02*
D03*
Y16584D02*
D03*
X19771Y16076D02*
D03*
X19767Y15571D02*
D03*
X19771Y15570D02*
D03*
X19767Y15571D02*
D03*
X20548Y17092D02*
D03*
Y16584D02*
D03*
X20552Y16076D02*
D03*
X20548Y15571D02*
D03*
X20552Y15570D02*
D03*
X20548Y15571D02*
D03*
X15529Y17092D02*
D03*
Y16584D02*
D03*
X15533Y16076D02*
D03*
X15529Y15571D02*
D03*
X15533Y15570D02*
D03*
X15529Y15571D02*
D03*
X16344Y17092D02*
D03*
Y16584D02*
D03*
X16348Y16076D02*
D03*
X16344Y15571D02*
D03*
X16348Y15570D02*
D03*
X16344Y15571D02*
D03*
X13663Y17128D02*
D03*
Y16620D02*
D03*
X13667Y16112D02*
D03*
X13663Y15606D02*
D03*
X13667Y15606D02*
D03*
X13663Y15606D02*
D03*
X14412Y17128D02*
D03*
Y16620D02*
D03*
X14416Y16112D02*
D03*
X14412Y15606D02*
D03*
X14416Y15606D02*
D03*
X14412Y15606D02*
D03*
X9828Y17092D02*
D03*
Y16584D02*
D03*
X9832Y16076D02*
D03*
X9828Y15571D02*
D03*
X9832Y15570D02*
D03*
X9828Y15571D02*
D03*
X10544Y17092D02*
D03*
Y16584D02*
D03*
X10548Y16076D02*
D03*
X10544Y15571D02*
D03*
X10548Y15570D02*
D03*
X10544Y15571D02*
D03*
X13663Y14740D02*
D03*
Y14232D02*
D03*
X13667Y13724D02*
D03*
X13663Y13218D02*
D03*
X13667Y13218D02*
D03*
X13663Y13218D02*
D03*
X14412Y14740D02*
D03*
Y14232D02*
D03*
X14416Y13724D02*
D03*
X14412Y13218D02*
D03*
X14416Y13218D02*
D03*
X14412Y13218D02*
D03*
X9828Y14785D02*
D03*
Y14277D02*
D03*
X9832Y13769D02*
D03*
X9828Y13263D02*
D03*
X9832Y13263D02*
D03*
X9828Y13263D02*
D03*
X10544Y14785D02*
D03*
Y14277D02*
D03*
X10548Y13769D02*
D03*
X10544Y13263D02*
D03*
X10548Y13263D02*
D03*
X10544Y13263D02*
D03*
X12234Y17128D02*
D03*
Y16620D02*
D03*
X12238Y16112D02*
D03*
X12234Y15606D02*
D03*
X12238Y15606D02*
D03*
X12234Y15606D02*
D03*
X12926Y17128D02*
D03*
Y16620D02*
D03*
X12930Y16112D02*
D03*
X12926Y15606D02*
D03*
X12930Y15606D02*
D03*
X12926Y15606D02*
D03*
X8292Y17092D02*
D03*
Y16584D02*
D03*
X8296Y16076D02*
D03*
X8292Y15571D02*
D03*
X8296Y15570D02*
D03*
X8292Y15571D02*
D03*
X9052Y17092D02*
D03*
Y16584D02*
D03*
X9056Y16076D02*
D03*
X9052Y15571D02*
D03*
X9056Y15570D02*
D03*
X9052Y15571D02*
D03*
X12234Y14740D02*
D03*
Y14232D02*
D03*
X12238Y13724D02*
D03*
X12234Y13218D02*
D03*
X12238Y13218D02*
D03*
X12234Y13218D02*
D03*
X12926Y14740D02*
D03*
Y14232D02*
D03*
X12930Y13724D02*
D03*
X12926Y13218D02*
D03*
X12930Y13218D02*
D03*
X12926Y13218D02*
D03*
X8292Y14785D02*
D03*
Y14277D02*
D03*
X8296Y13769D02*
D03*
X8292Y13263D02*
D03*
X8296Y13263D02*
D03*
X8292Y13263D02*
D03*
X9052Y14785D02*
D03*
Y14277D02*
D03*
X9056Y13769D02*
D03*
X9052Y13263D02*
D03*
X9056Y13263D02*
D03*
X9052Y13263D02*
D03*
X12926Y12477D02*
D03*
Y11969D02*
D03*
X12930Y11461D02*
D03*
X12926Y10955D02*
D03*
X12930Y10955D02*
D03*
X12926Y10955D02*
D03*
X13663Y12477D02*
D03*
Y11969D02*
D03*
X13667Y11461D02*
D03*
X13663Y10955D02*
D03*
X13667Y10955D02*
D03*
X13663Y10955D02*
D03*
X9828Y12477D02*
D03*
Y11969D02*
D03*
X9832Y11461D02*
D03*
X9828Y10955D02*
D03*
X9832Y10955D02*
D03*
X9828Y10955D02*
D03*
X10544Y12477D02*
D03*
Y11969D02*
D03*
X10548Y11461D02*
D03*
X10544Y10955D02*
D03*
X10548Y10955D02*
D03*
X10544Y10955D02*
D03*
X13663Y10169D02*
D03*
Y9661D02*
D03*
X13667Y9153D02*
D03*
X13663Y8648D02*
D03*
X13667Y8647D02*
D03*
X13663Y8648D02*
D03*
X14412Y10169D02*
D03*
Y9661D02*
D03*
X14416Y9153D02*
D03*
X14412Y8648D02*
D03*
X14416Y8647D02*
D03*
X14412Y8648D02*
D03*
X9828Y10169D02*
D03*
Y9661D02*
D03*
X9832Y9153D02*
D03*
X9828Y8648D02*
D03*
X9832Y8647D02*
D03*
X9828Y8648D02*
D03*
X10544Y10169D02*
D03*
Y9661D02*
D03*
X10548Y9153D02*
D03*
X10544Y8648D02*
D03*
X10548Y8647D02*
D03*
X10544Y8648D02*
D03*
X12234Y12477D02*
D03*
Y11969D02*
D03*
X12238Y11461D02*
D03*
X12234Y10955D02*
D03*
X12238Y10955D02*
D03*
X12234Y10955D02*
D03*
X8292Y12477D02*
D03*
Y11969D02*
D03*
X8296Y11461D02*
D03*
X8292Y10955D02*
D03*
X8296Y10955D02*
D03*
X8292Y10955D02*
D03*
X9052Y12477D02*
D03*
Y11969D02*
D03*
X9056Y11461D02*
D03*
X9052Y10955D02*
D03*
X9056Y10955D02*
D03*
X9052Y10955D02*
D03*
X14412Y12477D02*
D03*
Y11969D02*
D03*
X14416Y11461D02*
D03*
X14412Y10955D02*
D03*
X14416Y10955D02*
D03*
X14412Y10955D02*
D03*
X12234Y10169D02*
D03*
Y9661D02*
D03*
X12238Y9153D02*
D03*
X12234Y8648D02*
D03*
X12238Y8647D02*
D03*
X12234Y8648D02*
D03*
X12926Y10169D02*
D03*
Y9661D02*
D03*
X12930Y9153D02*
D03*
X12926Y8648D02*
D03*
X12930Y8647D02*
D03*
X12926Y8648D02*
D03*
X8292Y10169D02*
D03*
Y9661D02*
D03*
X8296Y9153D02*
D03*
X8292Y8648D02*
D03*
X8296Y8647D02*
D03*
X8292Y8648D02*
D03*
X9052Y10169D02*
D03*
Y9661D02*
D03*
X9056Y9153D02*
D03*
X9052Y8648D02*
D03*
X9056Y8647D02*
D03*
X9052Y8648D02*
D03*
X13663Y7861D02*
D03*
Y7353D02*
D03*
X13667Y6845D02*
D03*
X13663Y6340D02*
D03*
X13667Y6339D02*
D03*
X13663Y6340D02*
D03*
X14412Y7861D02*
D03*
Y7353D02*
D03*
X14416Y6845D02*
D03*
X14412Y6340D02*
D03*
X14416Y6339D02*
D03*
X14412Y6340D02*
D03*
X9828Y7861D02*
D03*
Y7353D02*
D03*
X9832Y6845D02*
D03*
X9828Y6340D02*
D03*
X9832Y6339D02*
D03*
X9828Y6340D02*
D03*
X10544Y7861D02*
D03*
Y7353D02*
D03*
X10548Y6845D02*
D03*
X10544Y6340D02*
D03*
X10548Y6339D02*
D03*
X10544Y6340D02*
D03*
X12234Y7861D02*
D03*
Y7353D02*
D03*
X12238Y6845D02*
D03*
X12234Y6340D02*
D03*
X12238Y6339D02*
D03*
X12234Y6340D02*
D03*
X12926Y7861D02*
D03*
Y7353D02*
D03*
X12930Y6845D02*
D03*
X12926Y6340D02*
D03*
X12930Y6339D02*
D03*
X12926Y6340D02*
D03*
X8292Y7861D02*
D03*
Y7353D02*
D03*
X8296Y6845D02*
D03*
X8292Y6340D02*
D03*
X8296Y6339D02*
D03*
X8292Y6340D02*
D03*
X9052Y7861D02*
D03*
Y7353D02*
D03*
X9056Y6845D02*
D03*
X9052Y6340D02*
D03*
X9056Y6339D02*
D03*
X9052Y6340D02*
D03*
X13663Y5554D02*
D03*
Y5046D02*
D03*
X13667Y4538D02*
D03*
X13663Y4032D02*
D03*
X13667Y4032D02*
D03*
X13663Y4032D02*
D03*
X14412Y5554D02*
D03*
Y5046D02*
D03*
X14416Y4538D02*
D03*
X14412Y4032D02*
D03*
X14416Y4032D02*
D03*
X14412Y4032D02*
D03*
X9828Y5554D02*
D03*
Y5046D02*
D03*
X9832Y4538D02*
D03*
X9828Y4032D02*
D03*
X9832Y4032D02*
D03*
X9828Y4032D02*
D03*
X10544Y5554D02*
D03*
Y5046D02*
D03*
X10548Y4538D02*
D03*
X10544Y4032D02*
D03*
X10548Y4032D02*
D03*
X10544Y4032D02*
D03*
X12234Y5554D02*
D03*
Y5046D02*
D03*
X12238Y4538D02*
D03*
X12234Y4032D02*
D03*
X12238Y4032D02*
D03*
X12234Y4032D02*
D03*
X12926Y5554D02*
D03*
Y5046D02*
D03*
X12930Y4538D02*
D03*
X12926Y4032D02*
D03*
X12930Y4032D02*
D03*
X12926Y4032D02*
D03*
X8292Y5554D02*
D03*
Y5046D02*
D03*
X8296Y4538D02*
D03*
X8292Y4032D02*
D03*
X8296Y4032D02*
D03*
X8292Y4032D02*
D03*
X9052Y5554D02*
D03*
Y5046D02*
D03*
X9056Y4538D02*
D03*
X9052Y4032D02*
D03*
X9056Y4032D02*
D03*
X9052Y4032D02*
D03*
X13663Y3246D02*
D03*
Y2738D02*
D03*
X13667Y2230D02*
D03*
X13663Y1724D02*
D03*
X13667Y1724D02*
D03*
X13663Y1724D02*
D03*
X14412Y3246D02*
D03*
Y2738D02*
D03*
X14416Y2230D02*
D03*
X14412Y1724D02*
D03*
X14416Y1724D02*
D03*
X14412Y1724D02*
D03*
X12234Y3246D02*
D03*
Y2738D02*
D03*
X12238Y2230D02*
D03*
X12234Y1724D02*
D03*
X12238Y1724D02*
D03*
X12234Y1724D02*
D03*
X12926Y3246D02*
D03*
Y2738D02*
D03*
X12930Y2230D02*
D03*
X12926Y1724D02*
D03*
X12930Y1724D02*
D03*
X12926Y1724D02*
D03*
X8292Y3246D02*
D03*
Y2738D02*
D03*
X8296Y2230D02*
D03*
X8292Y1724D02*
D03*
X8296Y1724D02*
D03*
X8292Y1724D02*
D03*
X9052Y3246D02*
D03*
Y2738D02*
D03*
X9056Y2230D02*
D03*
X9052Y1724D02*
D03*
X9056Y1724D02*
D03*
X9052Y1724D02*
D03*
X7198Y3246D02*
D03*
Y2738D02*
D03*
X7202Y2230D02*
D03*
X7198Y1724D02*
D03*
X7202Y1724D02*
D03*
X7198Y1724D02*
D03*
X1078Y3246D02*
D03*
Y2738D02*
D03*
X1082Y2230D02*
D03*
X1078Y1724D02*
D03*
X1082Y1724D02*
D03*
X1078Y1724D02*
D03*
X1859Y3246D02*
D03*
Y2738D02*
D03*
X1863Y2230D02*
D03*
X1859Y1724D02*
D03*
X1863Y1724D02*
D03*
X1859Y1724D02*
D03*
X2639Y3246D02*
D03*
Y2738D02*
D03*
X2643Y2230D02*
D03*
X2639Y1724D02*
D03*
X2643Y1724D02*
D03*
X2639Y1724D02*
D03*
X5020Y3246D02*
D03*
Y2738D02*
D03*
X5024Y2230D02*
D03*
X5020Y1724D02*
D03*
X5024Y1724D02*
D03*
X5020Y1724D02*
D03*
X5712Y3246D02*
D03*
Y2738D02*
D03*
X5716Y2230D02*
D03*
X5712Y1724D02*
D03*
X5716Y1724D02*
D03*
X5712Y1724D02*
D03*
X6449Y3246D02*
D03*
Y2738D02*
D03*
X6453Y2230D02*
D03*
X6449Y1724D02*
D03*
X6453Y1724D02*
D03*
X6449Y1724D02*
D03*
X3331Y3246D02*
D03*
Y2738D02*
D03*
X3335Y2230D02*
D03*
X3331Y1724D02*
D03*
X3335Y1724D02*
D03*
X3331Y1724D02*
D03*
X7198Y5554D02*
D03*
Y5046D02*
D03*
X7202Y4538D02*
D03*
X7198Y4032D02*
D03*
X7202Y4032D02*
D03*
X7198Y4032D02*
D03*
X1078Y5554D02*
D03*
Y5046D02*
D03*
X1082Y4538D02*
D03*
X1078Y4032D02*
D03*
X1082Y4032D02*
D03*
X1078Y4032D02*
D03*
X1859Y5554D02*
D03*
Y5046D02*
D03*
X1863Y4538D02*
D03*
X1859Y4032D02*
D03*
X1863Y4032D02*
D03*
X1859Y4032D02*
D03*
X2639Y5554D02*
D03*
Y5046D02*
D03*
X2643Y4538D02*
D03*
X2639Y4032D02*
D03*
X2643Y4032D02*
D03*
X2639Y4032D02*
D03*
X7198Y7861D02*
D03*
Y7353D02*
D03*
X7202Y6845D02*
D03*
X7198Y6340D02*
D03*
X7202Y6339D02*
D03*
X7198Y6340D02*
D03*
X1078Y7861D02*
D03*
Y7353D02*
D03*
X1082Y6845D02*
D03*
X1078Y6340D02*
D03*
X1082Y6339D02*
D03*
X1078Y6340D02*
D03*
X2639Y7861D02*
D03*
Y7353D02*
D03*
X2643Y6845D02*
D03*
X2639Y6340D02*
D03*
X2643Y6339D02*
D03*
X2639Y6340D02*
D03*
X5020Y5554D02*
D03*
Y5046D02*
D03*
X5024Y4538D02*
D03*
X5020Y4032D02*
D03*
X5024Y4032D02*
D03*
X5020Y4032D02*
D03*
X5712Y5554D02*
D03*
Y5046D02*
D03*
X5716Y4538D02*
D03*
X5712Y4032D02*
D03*
X5716Y4032D02*
D03*
X5712Y4032D02*
D03*
X6449Y5554D02*
D03*
Y5046D02*
D03*
X6453Y4538D02*
D03*
X6449Y4032D02*
D03*
X6453Y4032D02*
D03*
X6449Y4032D02*
D03*
X3331Y5554D02*
D03*
Y5046D02*
D03*
X3335Y4538D02*
D03*
X3331Y4032D02*
D03*
X3335Y4032D02*
D03*
X3331Y4032D02*
D03*
X5020Y7861D02*
D03*
Y7353D02*
D03*
X5024Y6845D02*
D03*
X5020Y6340D02*
D03*
X5024Y6339D02*
D03*
X5020Y6340D02*
D03*
X5712Y7861D02*
D03*
Y7353D02*
D03*
X5716Y6845D02*
D03*
X5712Y6340D02*
D03*
X5716Y6339D02*
D03*
X5712Y6340D02*
D03*
X6449Y7861D02*
D03*
Y7353D02*
D03*
X6453Y6845D02*
D03*
X6449Y6340D02*
D03*
X6453Y6339D02*
D03*
X6449Y6340D02*
D03*
X3331Y7861D02*
D03*
Y7353D02*
D03*
X3335Y6845D02*
D03*
X3331Y6340D02*
D03*
X3335Y6339D02*
D03*
X3331Y6340D02*
D03*
X7198Y10169D02*
D03*
Y9661D02*
D03*
X7202Y9153D02*
D03*
X7198Y8648D02*
D03*
X7202Y8647D02*
D03*
X7198Y8648D02*
D03*
X1078Y10169D02*
D03*
Y9661D02*
D03*
X1082Y9153D02*
D03*
X1078Y8648D02*
D03*
X1082Y8647D02*
D03*
X1078Y8648D02*
D03*
X1859Y10169D02*
D03*
Y9661D02*
D03*
X1863Y9153D02*
D03*
X1859Y8648D02*
D03*
X1863Y8647D02*
D03*
X1859Y8648D02*
D03*
X2639Y10169D02*
D03*
Y9661D02*
D03*
X2643Y9153D02*
D03*
X2639Y8648D02*
D03*
X2643Y8647D02*
D03*
X2639Y8648D02*
D03*
X1078Y12477D02*
D03*
Y11969D02*
D03*
X1082Y11461D02*
D03*
X1078Y10955D02*
D03*
X1082Y10955D02*
D03*
X1078Y10955D02*
D03*
X7198Y12477D02*
D03*
Y11969D02*
D03*
X7202Y11461D02*
D03*
X7198Y10955D02*
D03*
X7202Y10955D02*
D03*
X7198Y10955D02*
D03*
X2639Y12477D02*
D03*
Y11969D02*
D03*
X2643Y11461D02*
D03*
X2639Y10955D02*
D03*
X2643Y10955D02*
D03*
X2639Y10955D02*
D03*
X3331Y12477D02*
D03*
Y11969D02*
D03*
X3335Y11461D02*
D03*
X3331Y10955D02*
D03*
X3335Y10955D02*
D03*
X3331Y10955D02*
D03*
X5020Y10169D02*
D03*
Y9661D02*
D03*
X5024Y9153D02*
D03*
X5020Y8648D02*
D03*
X5024Y8647D02*
D03*
X5020Y8648D02*
D03*
X5712Y10169D02*
D03*
Y9661D02*
D03*
X5716Y9153D02*
D03*
X5712Y8648D02*
D03*
X5716Y8647D02*
D03*
X5712Y8648D02*
D03*
X6449Y10169D02*
D03*
Y9661D02*
D03*
X6453Y9153D02*
D03*
X6449Y8648D02*
D03*
X6453Y8647D02*
D03*
X6449Y8648D02*
D03*
X3331Y10169D02*
D03*
Y9661D02*
D03*
X3335Y9153D02*
D03*
X3331Y8648D02*
D03*
X3335Y8647D02*
D03*
X3331Y8648D02*
D03*
X1859Y12477D02*
D03*
Y11969D02*
D03*
X1863Y11461D02*
D03*
X1859Y10955D02*
D03*
X1863Y10955D02*
D03*
X1859Y10955D02*
D03*
X5020Y12477D02*
D03*
Y11969D02*
D03*
X5024Y11461D02*
D03*
X5020Y10955D02*
D03*
X5024Y10955D02*
D03*
X5020Y10955D02*
D03*
X5712Y12477D02*
D03*
Y11969D02*
D03*
X5716Y11461D02*
D03*
X5712Y10955D02*
D03*
X5716Y10955D02*
D03*
X5712Y10955D02*
D03*
X6449Y12477D02*
D03*
Y11969D02*
D03*
X6453Y11461D02*
D03*
X6449Y10955D02*
D03*
X6453Y10955D02*
D03*
X6449Y10955D02*
D03*
X6449Y14785D02*
D03*
Y14277D02*
D03*
X6453Y13769D02*
D03*
X6449Y13263D02*
D03*
X6453Y13263D02*
D03*
X6449Y13263D02*
D03*
X1078Y14785D02*
D03*
Y14277D02*
D03*
X1082Y13769D02*
D03*
X1078Y13263D02*
D03*
X1082Y13263D02*
D03*
X1078Y13263D02*
D03*
X1859Y14785D02*
D03*
Y14277D02*
D03*
X1863Y13769D02*
D03*
X1859Y13263D02*
D03*
X1863Y13263D02*
D03*
X1859Y13263D02*
D03*
X2639Y14785D02*
D03*
Y14277D02*
D03*
X2643Y13769D02*
D03*
X2639Y13263D02*
D03*
X2643Y13263D02*
D03*
X2639Y13263D02*
D03*
X7223Y17089D02*
D03*
Y16581D02*
D03*
X7227Y16073D02*
D03*
X7223Y15567D02*
D03*
X7227Y15567D02*
D03*
X7223Y15567D02*
D03*
X6487Y17089D02*
D03*
Y16581D02*
D03*
X6491Y16073D02*
D03*
X6487Y15567D02*
D03*
X6491Y15567D02*
D03*
X6487Y15567D02*
D03*
X2639Y17092D02*
D03*
Y16584D02*
D03*
X2643Y16076D02*
D03*
X2639Y15571D02*
D03*
X2643Y15570D02*
D03*
X2639Y15571D02*
D03*
X3331Y17092D02*
D03*
Y16584D02*
D03*
X3335Y16076D02*
D03*
X3331Y15571D02*
D03*
X3335Y15570D02*
D03*
X3331Y15571D02*
D03*
X5020Y14785D02*
D03*
Y14277D02*
D03*
X5024Y13769D02*
D03*
X5020Y13263D02*
D03*
X5024Y13263D02*
D03*
X5020Y13263D02*
D03*
X5712Y14785D02*
D03*
Y14277D02*
D03*
X5716Y13769D02*
D03*
X5712Y13263D02*
D03*
X5716Y13263D02*
D03*
X5712Y13263D02*
D03*
X3331Y14785D02*
D03*
Y14277D02*
D03*
X3335Y13769D02*
D03*
X3331Y13263D02*
D03*
X3335Y13263D02*
D03*
X3331Y13263D02*
D03*
X7198Y14785D02*
D03*
Y14277D02*
D03*
X7202Y13769D02*
D03*
X7198Y13263D02*
D03*
X7202Y13263D02*
D03*
X7198Y13263D02*
D03*
X5020Y17092D02*
D03*
Y16584D02*
D03*
X5024Y16076D02*
D03*
X5020Y15571D02*
D03*
X5024Y15570D02*
D03*
X5020Y15571D02*
D03*
X5712Y17092D02*
D03*
Y16584D02*
D03*
X5716Y16076D02*
D03*
X5712Y15571D02*
D03*
X5716Y15570D02*
D03*
X5712Y15571D02*
D03*
X1864Y17089D02*
D03*
Y16581D02*
D03*
X1868Y16073D02*
D03*
X1864Y15567D02*
D03*
X1868Y15567D02*
D03*
X1864Y15567D02*
D03*
X1077Y17089D02*
D03*
Y16581D02*
D03*
X1081Y16073D02*
D03*
X1077Y15567D02*
D03*
X1081Y15567D02*
D03*
X1077Y15567D02*
D03*
X1859Y7861D02*
D03*
Y7353D02*
D03*
X1863Y6845D02*
D03*
X1859Y6340D02*
D03*
X1863Y6339D02*
D03*
X1859Y6340D02*
D03*
X9828Y3246D02*
D03*
Y2738D02*
D03*
X9832Y2230D02*
D03*
X9828Y1724D02*
D03*
X9832Y1724D02*
D03*
X9828Y1724D02*
D03*
X1078Y19400D02*
D03*
Y18892D02*
D03*
X1082Y18384D02*
D03*
X1078Y17879D02*
D03*
X1082Y17878D02*
D03*
X1078Y17879D02*
D03*
X1859Y19400D02*
D03*
Y18892D02*
D03*
X1863Y18384D02*
D03*
X1859Y17879D02*
D03*
X1863Y17878D02*
D03*
X1859Y17879D02*
D03*
X2639Y19400D02*
D03*
Y18892D02*
D03*
X2643Y18384D02*
D03*
X2639Y17879D02*
D03*
X2643Y17878D02*
D03*
X2639Y17879D02*
D03*
X3331Y19400D02*
D03*
Y18892D02*
D03*
X3335Y18384D02*
D03*
X3331Y17879D02*
D03*
X3335Y17878D02*
D03*
X3331Y17879D02*
D03*
X5020Y19400D02*
D03*
Y18892D02*
D03*
X5024Y18384D02*
D03*
X5020Y17879D02*
D03*
X5024Y17878D02*
D03*
X5020Y17879D02*
D03*
X5712Y19400D02*
D03*
Y18892D02*
D03*
X5716Y18384D02*
D03*
X5712Y17879D02*
D03*
X5716Y17878D02*
D03*
X5712Y17879D02*
D03*
X6449Y19400D02*
D03*
Y18892D02*
D03*
X6453Y18384D02*
D03*
X6449Y17879D02*
D03*
X6453Y17878D02*
D03*
X6449Y17879D02*
D03*
X7198Y19400D02*
D03*
Y18892D02*
D03*
X7202Y18384D02*
D03*
X7198Y17879D02*
D03*
X7202Y17878D02*
D03*
X7198Y17879D02*
D03*
X8292Y19400D02*
D03*
Y18892D02*
D03*
X8296Y18384D02*
D03*
X8292Y17879D02*
D03*
X8296Y17878D02*
D03*
X8292Y17879D02*
D03*
X9052Y19400D02*
D03*
Y18892D02*
D03*
X9056Y18384D02*
D03*
X9052Y17879D02*
D03*
X9056Y17878D02*
D03*
X9052Y17879D02*
D03*
X9828Y19400D02*
D03*
Y18892D02*
D03*
X9832Y18384D02*
D03*
X9828Y17879D02*
D03*
X9832Y17878D02*
D03*
X9828Y17879D02*
D03*
X10544Y19400D02*
D03*
Y18892D02*
D03*
X10548Y18384D02*
D03*
X10544Y17879D02*
D03*
X10548Y17878D02*
D03*
X10544Y17879D02*
D03*
X12234Y19400D02*
D03*
Y18892D02*
D03*
X12238Y18384D02*
D03*
X12234Y17879D02*
D03*
X12238Y17878D02*
D03*
X12234Y17879D02*
D03*
X12926Y19400D02*
D03*
Y18892D02*
D03*
X12930Y18384D02*
D03*
X12926Y17879D02*
D03*
X12930Y17878D02*
D03*
X12926Y17879D02*
D03*
X13663Y19400D02*
D03*
Y18892D02*
D03*
X13667Y18384D02*
D03*
X13663Y17879D02*
D03*
X13667Y17878D02*
D03*
X13663Y17879D02*
D03*
X14412Y19400D02*
D03*
Y18892D02*
D03*
X14416Y18384D02*
D03*
X14412Y17879D02*
D03*
X14416Y17878D02*
D03*
X14412Y17879D02*
D03*
X15529Y19400D02*
D03*
Y18892D02*
D03*
X15533Y18384D02*
D03*
X15529Y17879D02*
D03*
X15533Y17878D02*
D03*
X15529Y17879D02*
D03*
X16344Y19400D02*
D03*
Y18892D02*
D03*
X16348Y18384D02*
D03*
X16344Y17879D02*
D03*
X16348Y17878D02*
D03*
X16344Y17879D02*
D03*
X17112Y19400D02*
D03*
Y18892D02*
D03*
X17116Y18384D02*
D03*
X17112Y17879D02*
D03*
X17116Y17878D02*
D03*
X17112Y17879D02*
D03*
X17893Y19400D02*
D03*
Y18892D02*
D03*
X17897Y18384D02*
D03*
X17893Y17879D02*
D03*
X17897Y17878D02*
D03*
X17893Y17879D02*
D03*
X19767Y19400D02*
D03*
Y18892D02*
D03*
X19771Y18384D02*
D03*
X19767Y17879D02*
D03*
X19771Y17878D02*
D03*
X19767Y17879D02*
D03*
X20548Y19400D02*
D03*
Y18892D02*
D03*
X20552Y18384D02*
D03*
X20548Y17879D02*
D03*
X20552Y17878D02*
D03*
X20548Y17879D02*
D03*
X21316Y19400D02*
D03*
Y18892D02*
D03*
X21320Y18384D02*
D03*
X21316Y17879D02*
D03*
X21320Y17878D02*
D03*
X21316Y17879D02*
D03*
X22097Y19400D02*
D03*
Y18892D02*
D03*
X22101Y18384D02*
D03*
X22097Y17879D02*
D03*
X22101Y17878D02*
D03*
X22097Y17879D02*
D03*
D13*
X6238Y296D02*
D03*
X15138D02*
D03*
X500Y1000D02*
D03*
X23000D02*
D03*
Y19000D02*
D03*
X500D02*
D03*
D14*
X6751Y1080D02*
D03*
X14625D02*
D03*
X7005D02*
D03*
X7259D02*
D03*
X7513D02*
D03*
X7767D02*
D03*
X8021D02*
D03*
X8275D02*
D03*
X8529D02*
D03*
X8783D02*
D03*
X9037D02*
D03*
X9291D02*
D03*
X9545D02*
D03*
X9799D02*
D03*
X10053D02*
D03*
X10307D02*
D03*
X10561D02*
D03*
X10815D02*
D03*
X11069D02*
D03*
X11323D02*
D03*
X11577D02*
D03*
X11831D02*
D03*
X12085D02*
D03*
X12339D02*
D03*
X12593D02*
D03*
X12847D02*
D03*
X13101D02*
D03*
X13355D02*
D03*
X13609D02*
D03*
X13863D02*
D03*
X14117D02*
D03*
X14371D02*
D03*
X6754Y821D02*
D03*
X14628Y831D02*
D03*
X7008Y821D02*
D03*
X7262D02*
D03*
X7516D02*
D03*
X7770D02*
D03*
X8024D02*
D03*
X8278D02*
D03*
X8532D02*
D03*
X8786D02*
D03*
X9040D02*
D03*
X9294D02*
D03*
X9548D02*
D03*
X9802D02*
D03*
X10056D02*
D03*
X10310D02*
D03*
X10564D02*
D03*
X10818D02*
D03*
X11072D02*
D03*
X11326D02*
D03*
X11580D02*
D03*
X11834D02*
D03*
X12088D02*
D03*
X12342D02*
D03*
X12596D02*
D03*
X12850D02*
D03*
X13104D02*
D03*
X13358D02*
D03*
X13612D02*
D03*
X13866D02*
D03*
X14120D02*
D03*
X14374D02*
D03*
X6751Y552D02*
D03*
X14625D02*
D03*
X7005D02*
D03*
X7259D02*
D03*
X7513D02*
D03*
X7767D02*
D03*
X8021D02*
D03*
X8275D02*
D03*
X8529D02*
D03*
X8783D02*
D03*
X9037D02*
D03*
X9291D02*
D03*
X9545D02*
D03*
X9799D02*
D03*
X10053D02*
D03*
X10307D02*
D03*
X10561D02*
D03*
X10815D02*
D03*
X11069D02*
D03*
X11323D02*
D03*
X11577D02*
D03*
X11831D02*
D03*
X12085D02*
D03*
X12339D02*
D03*
X12593D02*
D03*
X12847D02*
D03*
X13101D02*
D03*
X13355D02*
D03*
X13609D02*
D03*
X13863D02*
D03*
X14117D02*
D03*
X14371D02*
D03*
D15*
X17891Y670D02*
D03*
X17383D02*
D03*
X17129D02*
D03*
X17637D02*
D03*
X18145D02*
D03*
Y924D02*
D03*
X17891D02*
D03*
X17637D02*
D03*
X17383D02*
D03*
X17129D02*
D03*
D16*
X19314Y11872D02*
D03*
X17307Y11385D02*
D03*
X18069Y11516D02*
D03*
X4836Y12075D02*
D03*
X4125Y12430D02*
D03*
X10817Y13878D02*
D03*
X17790Y14132D02*
D03*
X19707Y13992D02*
D03*
X7731Y18984D02*
D03*
X4150Y14285D02*
D03*
X19492Y17409D02*
D03*
X19542Y17587D02*
D03*
X19259Y18632D02*
D03*
X19282Y18800D02*
D03*
X3532Y18526D02*
D03*
X14849Y19517D02*
D03*
X15072Y19085D02*
D03*
X14715Y668D02*
D03*
X13878Y1331D02*
D03*
X12593Y1356D02*
D03*
X12339D02*
D03*
X11831D02*
D03*
X11323D02*
D03*
X11110D02*
D03*
X10307D02*
D03*
X9545D02*
D03*
X9255D02*
D03*
X8783D02*
D03*
X8529D02*
D03*
X8275D02*
D03*
X8011Y1407D02*
D03*
X4201Y5623D02*
D03*
Y9789D02*
D03*
Y5124D02*
D03*
Y3363D02*
D03*
X4137Y2842D02*
D03*
X11338Y18780D02*
D03*
X10957Y19161D02*
D03*
X11338Y16444D02*
D03*
Y14386D02*
D03*
X4175Y18730D02*
D03*
X11338Y5014D02*
D03*
X18806Y9713D02*
D03*
X19288Y9738D02*
D03*
X3617Y19592D02*
D03*
X3705Y18691D02*
D03*
X3718Y18298D02*
D03*
X4887Y16393D02*
D03*
X4666Y16383D02*
D03*
X4725Y16155D02*
D03*
X3617Y14005D02*
D03*
X3698Y13873D02*
D03*
X4683Y14004D02*
D03*
X4658Y11745D02*
D03*
X4099Y8976D02*
D03*
X4734Y9738D02*
D03*
X3490Y7020D02*
D03*
X3900Y4281D02*
D03*
X4785Y4810D02*
D03*
X4607Y4887D02*
D03*
X4709Y4201D02*
D03*
X4810Y2804D02*
D03*
X4297Y2423D02*
D03*
X10754Y2626D02*
D03*
X11897Y2677D02*
D03*
X10897Y4997D02*
D03*
X11135Y3965D02*
D03*
X10955Y11546D02*
D03*
X11973Y11567D02*
D03*
X10729Y14132D02*
D03*
X11948Y16494D02*
D03*
X11855Y16409D02*
D03*
X11366Y18526D02*
D03*
X10932Y18552D02*
D03*
X10983Y18450D02*
D03*
X18951Y18425D02*
D03*
X18943Y13618D02*
D03*
X16774Y12202D02*
D03*
X17897Y11808D02*
D03*
X18857Y11859D02*
D03*
X18349Y9192D02*
D03*
X18925Y9362D02*
D03*
X19301Y9573D02*
D03*
X18120Y7503D02*
D03*
X17282Y6842D02*
D03*
X18857Y7005D02*
D03*
X19314Y7249D02*
D03*
Y4988D02*
D03*
X19475Y2524D02*
D03*
X11745Y12319D02*
D03*
X11823Y9943D02*
D03*
X12710Y18298D02*
D03*
X12684Y18806D02*
D03*
X12710Y17841D02*
D03*
X5496Y18247D02*
D03*
X4480Y16901D02*
D03*
X4531Y12354D02*
D03*
X4589Y7802D02*
D03*
X17307Y19009D02*
D03*
X19169Y14709D02*
D03*
X11880Y13873D02*
D03*
X10551Y1346D02*
D03*
X9829Y1442D02*
D03*
X10830Y4997D02*
D03*
X11851Y14086D02*
D03*
X11833Y14310D02*
D03*
X18374Y13858D02*
D03*
X19268Y16812D02*
D03*
X18265Y13342D02*
D03*
X12847Y1356D02*
D03*
X18745Y13236D02*
D03*
X18295Y5382D02*
D03*
X4089Y13511D02*
D03*
X18450Y16177D02*
D03*
X4125Y12019D02*
D03*
X5115Y13599D02*
D03*
X4835Y13600D02*
D03*
X14117Y1356D02*
D03*
X12085D02*
D03*
X18425Y3278D02*
D03*
X16444Y13929D02*
D03*
X20137Y12128D02*
D03*
X11948Y12225D02*
D03*
X12255Y17386D02*
D03*
X19113Y1813D02*
D03*
X18077Y4988D02*
D03*
X17378Y4874D02*
D03*
X18222Y4836D02*
D03*
X13101Y1356D02*
D03*
X11338Y12100D02*
D03*
X10815Y1356D02*
D03*
X13355D02*
D03*
X11757Y8128D02*
D03*
X10053Y1356D02*
D03*
X11005Y2334D02*
D03*
X11851Y6816D02*
D03*
X11577Y1356D02*
D03*
X4506Y5522D02*
D03*
Y3261D02*
D03*
X19169Y7828D02*
D03*
X19161Y5547D02*
D03*
X19233Y3215D02*
D03*
X20050Y14701D02*
D03*
Y15969D02*
D03*
X7757Y1407D02*
D03*
X19368Y16177D02*
D03*
X11303Y8900D02*
D03*
X19263Y2834D02*
D03*
X11663Y5737D02*
D03*
X3744Y4760D02*
D03*
X10932Y16409D02*
D03*
X4158Y1978D02*
D03*
X19187Y7940D02*
D03*
X17802Y3045D02*
D03*
X19720Y13548D02*
D03*
X20137Y15905D02*
D03*
X7528Y2601D02*
D03*
X3535Y9130D02*
D03*
X3745Y9308D02*
D03*
X3708Y6817D02*
D03*
X11922Y11338D02*
D03*
X18095Y16672D02*
D03*
X10957Y9738D02*
D03*
X11745Y10111D02*
D03*
X17815Y8925D02*
D03*
X18120Y9535D02*
D03*
X18095Y12049D02*
D03*
X18933Y11399D02*
D03*
X11996Y9510D02*
D03*
X4605Y18437D02*
D03*
X10703Y15986D02*
D03*
X12034Y17080D02*
D03*
X19212Y3312D02*
D03*
X18857Y12075D02*
D03*
X19288Y12024D02*
D03*
X18882Y9738D02*
D03*
X19365Y11478D02*
D03*
X3693Y9128D02*
D03*
X11719Y3236D02*
D03*
X4175Y10170D02*
D03*
Y16536D02*
D03*
X3670Y4489D02*
D03*
X4785Y11618D02*
D03*
X4607Y10754D02*
D03*
X4709Y9560D02*
D03*
X4310Y8844D02*
D03*
X4683Y6919D02*
D03*
X11872Y2397D02*
D03*
X19974Y16088D02*
D03*
X5191Y12380D02*
D03*
X3766Y11615D02*
D03*
X11546Y3558D02*
D03*
X11893Y4942D02*
D03*
X19288Y9738D02*
D03*
X18831Y14208D02*
D03*
X19288Y16088D02*
D03*
X18882Y16494D02*
D03*
X18831Y18552D02*
D03*
X18120Y19085D02*
D03*
X18336Y18526D02*
D03*
X17307Y18788D02*
D03*
X18755Y18831D02*
D03*
X12367Y14508D02*
D03*
X10983Y4743D02*
D03*
X10500Y11668D02*
D03*
X20279Y18780D02*
D03*
X19187Y19263D02*
D03*
X4480Y14640D02*
D03*
X19314Y2448D02*
D03*
X18272D02*
D03*
X19593Y4252D02*
D03*
X18354Y4732D02*
D03*
X19339Y7071D02*
D03*
X19415Y9230D02*
D03*
X18338Y11541D02*
D03*
X17256Y13472D02*
D03*
X18216Y16113D02*
D03*
X12050Y15953D02*
D03*
X11313Y15966D02*
D03*
X10983Y13751D02*
D03*
X10729Y11465D02*
D03*
X11943Y8984D02*
D03*
X10838Y9245D02*
D03*
X10729Y9027D02*
D03*
X10944Y6599D02*
D03*
X3667Y2321D02*
D03*
X4310Y4226D02*
D03*
X4313Y6024D02*
D03*
X4785Y7147D02*
D03*
X4607Y7325D02*
D03*
X4277Y10754D02*
D03*
X3540Y11973D02*
D03*
X4089Y11236D02*
D03*
X3540Y13700D02*
D03*
X3718Y15961D02*
D03*
X3617Y16139D02*
D03*
X3769Y16418D02*
D03*
X4709Y18691D02*
D03*
X17917Y1178D02*
D03*
X9037Y1356D02*
D03*
X15301Y1573D02*
D03*
X19187Y10043D02*
D03*
X12430Y18704D02*
D03*
X12109Y18687D02*
D03*
X12557Y18069D02*
D03*
X12583Y18171D02*
D03*
X17307Y18349D02*
D03*
X10348Y15631D02*
D03*
X10500Y15301D02*
D03*
X9992Y16215D02*
D03*
X10043Y16469D02*
D03*
X12438Y13124D02*
D03*
X12456Y13573D02*
D03*
X18425Y14183D02*
D03*
X11313Y11922D02*
D03*
X4175Y7477D02*
D03*
X3591Y6944D02*
D03*
X5450Y7731D02*
D03*
X5471Y7274D02*
D03*
X10758Y7270D02*
D03*
X10348Y6817D02*
D03*
X10957Y7452D02*
D03*
X11770Y7376D02*
D03*
X11897Y7096D02*
D03*
X18323Y6995D02*
D03*
X18349Y7085D02*
D03*
X19263Y7452D02*
D03*
X18857Y7477D02*
D03*
X13609Y1356D02*
D03*
X11582Y2842D02*
D03*
X14869Y2321D02*
D03*
X14818Y3261D02*
D03*
X17282Y2296D02*
D03*
X17612Y2651D02*
D03*
X10373Y14513D02*
D03*
X10246Y13954D02*
D03*
X7731Y18984D02*
D03*
X7757Y19669D02*
D03*
X20203Y16367D02*
D03*
X20228Y16342D02*
D03*
X12554Y11842D02*
D03*
X12532Y11338D02*
D03*
X3642Y18933D02*
D03*
X4125Y7020D02*
D03*
X10805Y2296D02*
D03*
X19258Y5149D02*
D03*
X9992Y2166D02*
D03*
X10373Y1991D02*
D03*
X6507Y2524D02*
D03*
X4861Y11287D02*
D03*
X5217Y9103D02*
D03*
X9789Y5217D02*
D03*
D17*
X12100Y11237D02*
D03*
X19279Y18476D02*
D03*
X10991Y18336D02*
D03*
X11846Y9713D02*
D03*
X18095Y13751D02*
D03*
D18*
X17507Y13607D02*
D03*
Y13787D02*
D03*
X17507Y14115D02*
D03*
Y14295D02*
D03*
X20943Y12269D02*
D03*
Y12089D02*
D03*
X20169Y12244D02*
D03*
Y12064D02*
D03*
X3003Y17748D02*
D03*
Y17928D02*
D03*
X2978Y18306D02*
D03*
Y18486D02*
D03*
X6077Y18256D02*
D03*
Y18436D02*
D03*
X6813Y18789D02*
D03*
Y18969D02*
D03*
X5340Y18256D02*
D03*
Y18436D02*
D03*
X6813Y18281D02*
D03*
Y18461D02*
D03*
X3613Y16478D02*
D03*
Y16658D02*
D03*
X3003Y16478D02*
D03*
Y16658D02*
D03*
Y15944D02*
D03*
Y16124D02*
D03*
X2368Y15944D02*
D03*
Y16124D02*
D03*
X5365Y16478D02*
D03*
Y16658D02*
D03*
X6102Y16503D02*
D03*
Y16683D02*
D03*
X5365Y15919D02*
D03*
Y16099D02*
D03*
X6153Y15944D02*
D03*
Y16124D02*
D03*
X1606Y13684D02*
D03*
Y13864D02*
D03*
X2368Y13684D02*
D03*
Y13864D02*
D03*
X3029Y13684D02*
D03*
Y13864D02*
D03*
Y13176D02*
D03*
Y13356D02*
D03*
X5365Y14674D02*
D03*
Y14854D02*
D03*
Y14141D02*
D03*
Y14321D02*
D03*
Y13607D02*
D03*
Y13787D02*
D03*
Y13125D02*
D03*
Y13305D02*
D03*
X3003Y11855D02*
D03*
Y12035D02*
D03*
X1479Y11372D02*
D03*
Y11552D02*
D03*
X3029Y10788D02*
D03*
Y10968D02*
D03*
Y11321D02*
D03*
Y11501D02*
D03*
X5391Y11296D02*
D03*
Y11476D02*
D03*
X5365Y11804D02*
D03*
Y11984D02*
D03*
X5340Y12388D02*
D03*
Y12568D02*
D03*
X6077Y11804D02*
D03*
Y11984D02*
D03*
X3003Y9035D02*
D03*
Y9215D02*
D03*
X2241Y9035D02*
D03*
Y9215D02*
D03*
X3003Y9543D02*
D03*
Y9723D02*
D03*
Y8477D02*
D03*
Y8657D02*
D03*
X5340Y9543D02*
D03*
Y9723D02*
D03*
X5365Y9010D02*
D03*
Y9190D02*
D03*
Y8502D02*
D03*
Y8682D02*
D03*
X6102Y8502D02*
D03*
Y8682D02*
D03*
X2978Y7232D02*
D03*
Y7412D02*
D03*
Y7765D02*
D03*
Y7945D02*
D03*
X3003Y6724D02*
D03*
Y6904D02*
D03*
Y6191D02*
D03*
Y6371D02*
D03*
X5365Y7816D02*
D03*
Y7996D02*
D03*
Y7232D02*
D03*
Y7412D02*
D03*
Y6724D02*
D03*
Y6904D02*
D03*
Y6191D02*
D03*
Y6371D02*
D03*
X2978Y5479D02*
D03*
Y5659D02*
D03*
Y4946D02*
D03*
Y5126D02*
D03*
X3029Y4413D02*
D03*
Y4593D02*
D03*
Y3879D02*
D03*
Y4059D02*
D03*
X5365Y4895D02*
D03*
Y5075D02*
D03*
Y4387D02*
D03*
Y4567D02*
D03*
X5340Y3905D02*
D03*
Y4085D02*
D03*
X6127Y3905D02*
D03*
Y4085D02*
D03*
X2978Y2609D02*
D03*
Y2789D02*
D03*
X2267Y2127D02*
D03*
Y2307D02*
D03*
X3003Y2127D02*
D03*
Y2307D02*
D03*
Y1619D02*
D03*
Y1799D02*
D03*
X5365Y2635D02*
D03*
Y2815D02*
D03*
Y2127D02*
D03*
Y2307D02*
D03*
Y1619D02*
D03*
Y1799D02*
D03*
X6077Y2101D02*
D03*
Y2281D02*
D03*
X10217Y3219D02*
D03*
Y3399D02*
D03*
X10217Y2685D02*
D03*
Y2865D02*
D03*
X10217Y2127D02*
D03*
Y2307D02*
D03*
X10217Y1644D02*
D03*
Y1824D02*
D03*
X12554Y3244D02*
D03*
Y3424D02*
D03*
X12554Y2660D02*
D03*
Y2840D02*
D03*
X12554Y2127D02*
D03*
Y2307D02*
D03*
X12554Y1619D02*
D03*
Y1799D02*
D03*
X10217Y5530D02*
D03*
Y5710D02*
D03*
X10217Y5022D02*
D03*
Y5202D02*
D03*
X10217Y4514D02*
D03*
Y4694D02*
D03*
X10217Y3981D02*
D03*
Y4161D02*
D03*
X12554Y5505D02*
D03*
Y5685D02*
D03*
X12554Y4946D02*
D03*
Y5126D02*
D03*
X12554Y4463D02*
D03*
Y4643D02*
D03*
X12554Y3930D02*
D03*
Y4110D02*
D03*
X10217Y7867D02*
D03*
Y8047D02*
D03*
X10217Y7308D02*
D03*
Y7488D02*
D03*
X10217Y6800D02*
D03*
Y6980D02*
D03*
X10217Y6292D02*
D03*
Y6472D02*
D03*
X12554Y7791D02*
D03*
Y7971D02*
D03*
X12554Y7232D02*
D03*
Y7412D02*
D03*
X12554Y6699D02*
D03*
Y6879D02*
D03*
X12554Y6191D02*
D03*
Y6371D02*
D03*
X10217Y10153D02*
D03*
Y10333D02*
D03*
X10217Y9620D02*
D03*
Y9800D02*
D03*
X10217Y9137D02*
D03*
Y9317D02*
D03*
X10217Y8604D02*
D03*
Y8784D02*
D03*
X12554Y9543D02*
D03*
Y9723D02*
D03*
X12554Y9010D02*
D03*
Y9190D02*
D03*
X12554Y8502D02*
D03*
Y8682D02*
D03*
X13290Y8527D02*
D03*
Y8707D02*
D03*
X10217Y12363D02*
D03*
Y12543D02*
D03*
X10217Y11855D02*
D03*
Y12035D02*
D03*
X10217Y11321D02*
D03*
Y11501D02*
D03*
X10217Y10813D02*
D03*
Y10993D02*
D03*
X12554Y12388D02*
D03*
Y12568D02*
D03*
X12554Y11855D02*
D03*
Y12035D02*
D03*
X12554Y11321D02*
D03*
Y11501D02*
D03*
X12554Y10763D02*
D03*
Y10943D02*
D03*
X10217Y14623D02*
D03*
Y14803D02*
D03*
X10217Y14090D02*
D03*
Y14270D02*
D03*
X10217Y13582D02*
D03*
Y13762D02*
D03*
X10217Y13074D02*
D03*
Y13254D02*
D03*
X12554Y14623D02*
D03*
Y14803D02*
D03*
X12554Y14065D02*
D03*
Y14245D02*
D03*
X12554Y13607D02*
D03*
Y13787D02*
D03*
X12554Y13074D02*
D03*
Y13254D02*
D03*
X9506Y15970D02*
D03*
Y16150D02*
D03*
X10217Y16528D02*
D03*
Y16708D02*
D03*
X10217Y15970D02*
D03*
Y16150D02*
D03*
X10217Y15487D02*
D03*
Y15667D02*
D03*
X12554Y16528D02*
D03*
Y16708D02*
D03*
X12554Y15970D02*
D03*
Y16150D02*
D03*
X12554Y15462D02*
D03*
Y15642D02*
D03*
X13316Y15462D02*
D03*
Y15642D02*
D03*
X10217Y19297D02*
D03*
Y19477D02*
D03*
X10217Y18814D02*
D03*
Y18994D02*
D03*
X10217Y18281D02*
D03*
Y18461D02*
D03*
X10217Y17773D02*
D03*
Y17953D02*
D03*
X12554Y18814D02*
D03*
Y18994D02*
D03*
X12554Y18281D02*
D03*
Y18461D02*
D03*
X12554Y17748D02*
D03*
Y17928D02*
D03*
X13316Y17748D02*
D03*
Y17928D02*
D03*
X16745Y18306D02*
D03*
Y18486D02*
D03*
X17507Y18256D02*
D03*
Y18436D02*
D03*
X17507Y19272D02*
D03*
Y19452D02*
D03*
X17507Y18738D02*
D03*
Y18918D02*
D03*
X20145Y18179D02*
D03*
Y18359D02*
D03*
X20145Y18713D02*
D03*
Y18893D02*
D03*
X20145Y17646D02*
D03*
Y17826D02*
D03*
X20961Y18179D02*
D03*
Y18359D02*
D03*
X17532Y17011D02*
D03*
Y17191D02*
D03*
X16694Y15970D02*
D03*
Y16150D02*
D03*
X17532Y16478D02*
D03*
Y16658D02*
D03*
X17532Y15944D02*
D03*
Y16124D02*
D03*
X20170Y16478D02*
D03*
Y16658D02*
D03*
X20170Y15919D02*
D03*
Y16099D02*
D03*
X20936Y15944D02*
D03*
Y16124D02*
D03*
X20170Y15462D02*
D03*
Y15642D02*
D03*
X17507Y14598D02*
D03*
Y14778D02*
D03*
X17507Y13099D02*
D03*
Y13279D02*
D03*
X20170Y14649D02*
D03*
Y14829D02*
D03*
X20170Y14115D02*
D03*
Y14295D02*
D03*
X20170Y13582D02*
D03*
Y13762D02*
D03*
X20170Y13099D02*
D03*
Y13279D02*
D03*
X17532Y12261D02*
D03*
Y12441D02*
D03*
X17532Y11779D02*
D03*
Y11959D02*
D03*
X17532Y11245D02*
D03*
Y11425D02*
D03*
X17532Y10763D02*
D03*
Y10943D02*
D03*
X20170Y11372D02*
D03*
Y11552D02*
D03*
X20170Y10864D02*
D03*
Y11044D02*
D03*
X17507Y10077D02*
D03*
Y10257D02*
D03*
X17507Y9569D02*
D03*
Y9749D02*
D03*
X17507Y9010D02*
D03*
Y9190D02*
D03*
X17507Y8502D02*
D03*
Y8682D02*
D03*
X20170Y10204D02*
D03*
Y10384D02*
D03*
X20170Y9670D02*
D03*
Y9850D02*
D03*
X20170Y9137D02*
D03*
Y9317D02*
D03*
X20170Y8629D02*
D03*
Y8809D02*
D03*
X17507Y7807D02*
D03*
Y7987D02*
D03*
X17507Y7249D02*
D03*
Y7429D02*
D03*
X17507Y6741D02*
D03*
Y6921D02*
D03*
X17507Y6233D02*
D03*
Y6413D02*
D03*
X20170Y7833D02*
D03*
Y8013D02*
D03*
X20170Y7325D02*
D03*
Y7505D02*
D03*
X20170Y6791D02*
D03*
Y6971D02*
D03*
X20170Y6283D02*
D03*
Y6463D02*
D03*
X17507Y5521D02*
D03*
Y5701D02*
D03*
X17507Y4963D02*
D03*
Y5143D02*
D03*
X17507Y4455D02*
D03*
Y4635D02*
D03*
X17507Y3947D02*
D03*
Y4127D02*
D03*
X20170Y5547D02*
D03*
Y5727D02*
D03*
X20170Y5039D02*
D03*
Y5219D02*
D03*
X20170Y4505D02*
D03*
Y4685D02*
D03*
X20170Y3997D02*
D03*
Y4177D02*
D03*
X17507Y3235D02*
D03*
Y3415D02*
D03*
X17507Y2677D02*
D03*
Y2857D02*
D03*
X17507Y2169D02*
D03*
Y2349D02*
D03*
X17507Y1661D02*
D03*
Y1841D02*
D03*
X20170Y3134D02*
D03*
Y3314D02*
D03*
X20170Y2626D02*
D03*
Y2806D02*
D03*
X20170Y2092D02*
D03*
Y2272D02*
D03*
X20170Y1584D02*
D03*
Y1764D02*
D03*
X1606Y18789D02*
D03*
Y18969D02*
D03*
X1632Y18281D02*
D03*
Y18461D02*
D03*
M02*
