M48
;Layer_Color=9474304
;FILE_FORMAT=4:2
METRIC,LZ
;TYPE=PLATED
T1F00S00C0.30
T3F00S00C0.85
T4F00S00C3.20
;TYPE=NON_PLATED
T5F00S00C1.10
%
T01
X017917Y001178
X018272Y002448
X017612Y002651
X017802Y003045
X018425Y003278
X019212Y003312
X019233Y003215
X019263Y002834
X019314Y002448
X019475Y002524
X019113Y001813
X017282Y002296
X014869Y002321
X014818Y003261
X015301Y001573
X014117Y001356
X013878Y001331
X013609Y001356
X013355
X013101
X012847
X012593
X012339
X014715Y000668
X012085Y001356
X011831
X011577
X011323
X01111
X010815
X010551Y001346
X010307Y001356
X010053
X009829Y001442
X009545Y001356
X009255
X009037
X008783
X008529
X008275
X009992Y002166
X010373Y001991
X010805Y002296
X011005Y002334
X010754Y002626
X011582Y002842
X011897Y002677
X011872Y002397
X011719Y003236
X011546Y003558
X007528Y002601
X006507Y002524
X00481Y002804
X004506Y003261
X004297Y002423
X007757Y001407
X008011
X004158Y001978
X003667Y002321
X004137Y002842
X004201Y003363
X0039Y004281
X00367Y004489
X003744Y00476
X004201Y005124
Y005623
X004125Y00702
X004175Y007477
X003591Y006944
X00349Y00702
X003708Y006817
X004683Y006919
X004785Y007147
X004607Y007325
X004589Y007802
X00545Y007731
X005471Y007274
X004313Y006024
X004506Y005522
X004607Y004887
X004785Y00481
X004709Y004201
X00431Y004226
X009789Y005217
X01083Y004997
X010897
X010983Y004743
X011338Y005014
X011893Y004942
X011663Y005737
X011851Y006816
X011897Y007096
X01177Y007376
X010957Y007452
X010758Y00727
X010944Y006599
X010348Y006817
X011135Y003965
X017378Y004874
X018077Y004988
X018222Y004836
X018354Y004732
X018295Y005382
X019161Y005547
X019258Y005149
X019314Y004988
X019593Y004252
X019339Y007071
X019314Y007249
X019263Y007452
X018857Y007477
X018857Y007005
X018323Y006995
X018349Y007085
X01812Y007503
X019169Y007828
X017282Y006842
X017815Y008925
X018349Y009192
X01812Y009535
X018806Y009713
X018882Y009738
X019288
X019288
X019301Y009573
X019415Y00923
X018925Y009362
X019187Y010043
X018933Y011399
X019365Y011478
X018857Y011859
X018338Y011541
X018069Y011516
X017897Y011808
X017307Y011385
X019187Y00794
X012532Y011338
X012554Y011842
X011973Y011567
X011922Y011338
X0121Y011237
X010955Y011546
X010729Y011465
X0105Y011668
X010957Y009738
X010838Y009245
X010729Y009027
X011303Y0089
X011943Y008984
X011996Y00951
X011846Y009713
X011823Y009943
X011745Y010111
X011757Y008128
X005217Y009103
X004709Y00956
X004734Y009738
X004607Y010754
X004277
X004861Y011287
X004785Y011618
X004658Y011745
X00431Y008844
X004099Y008976
X003693Y009128
X003535Y00913
X003745Y009308
X004201Y009789
X004175Y01017
X004089Y011236
X003766Y011615
X00354Y011973
X004125Y012019
Y01243
X004089Y013511
X00354Y0137
X003698Y013873
X003617Y014005
X00415Y014285
X00448Y01464
X004683Y014004
X004835Y0136
X005115Y013599
X005191Y01238
X004836Y012075
X004531Y012354
X011338Y0121
X011313Y011922
X011745Y012319
X011948Y012225
X01188Y013873
X011851Y014086
X011833Y01431
X011338Y014386
X010729Y014132
X010817Y013878
X010983Y013751
X010246Y013954
X010373Y014513
X0105Y015301
X010348Y015631
X012367Y014508
X012456Y013573
X012438Y013124
X016444Y013929
X017256Y013472
X018095Y013751
X018374Y013858
X018425Y014183
X018831Y014208
X018943Y013618
X018745Y013236
X018265Y013342
X01779Y014132
X019169Y014709
X02005Y014701
X019707Y013992
X01972Y013548
X020137Y012128
X019288Y012024
X019314Y011872
X018857Y012075
X018095Y012049
X016774Y012202
X020203Y016367
X020228Y016342
X020279Y01878
X019282Y0188
X019259Y018632
X019279Y018476
X018951Y018425
X018831Y018552
X018755Y018831
X018336Y018526
X01812Y019085
X017307Y019009
Y018788
Y018349
X018095Y016672
X018216Y016113
X01845Y016177
X018882Y016494
X019268Y016812
X019368Y016177
X019288Y016088
X019974
X02005Y015969
X020137Y015905
X019492Y017409
X019542Y017587
X019187Y019263
X015072Y019085
X014849Y019517
X012684Y018806
X01243Y018704
X01271Y018298
X012583Y018171
X012557Y018069
X01271Y017841
X012255Y017386
X012034Y01708
X011948Y016494
X011855Y016409
X011338Y016444
X010932Y016409
X010703Y015986
X011313Y015966
X01205Y015953
X009992Y016215
X010043Y016469
X010991Y018336
X010983Y01845
X010932Y018552
X011366Y018526
X011338Y01878
X010957Y019161
X012109Y018687
X007731Y018984
X007731Y018984
X007757Y019669
X005496Y018247
X004605Y018437
X004709Y018691
X00448Y016901
X004666Y016383
X004887Y016393
X004725Y016155
X004175Y016536
X003769Y016418
X003617Y016139
X003718Y015961
Y018298
X003705Y018691
X003642Y018933
X003532Y018526
X004175Y01873
X003617Y019592
T03
X020548Y001724
X020552Y001724
Y00223
X020548Y002738
Y003246
X021316
Y002738
X02132Y00223
Y001724
X021316Y001724
X022097
X022101Y001724
Y00223
X022097Y002738
Y003246
X019767
Y002738
X019771Y00223
Y001724
X019767Y001724
X017897Y001724
X017893Y001724
X017897Y00223
X017893Y002738
Y003246
X017112
Y002738
X017116Y00223
Y001724
X017112Y001724
X016348Y001724
X016344Y001724
X016348Y00223
X016344Y002738
Y003246
X015529
Y002738
X015533Y00223
Y001724
X015529Y001724
X014416Y001724
X014412Y001724
X014416Y00223
X014412Y002738
Y003246
X013663
Y002738
X013667Y00223
Y001724
X013663Y001724
X01293Y001724
X012926Y001724
X01293Y00223
X012926Y002738
Y003246
X012234
Y002738
X012238Y00223
Y001724
X012234Y001724
X010548Y001724
X010544Y001724
X010548Y00223
X010544Y002738
Y003246
X009828
Y002738
X009832Y00223
Y001724
X009828Y001724
X009056Y001724
X009052Y001724
X009056Y00223
X009052Y002738
Y003246
X008292
Y002738
X008296Y00223
Y001724
X008292Y001724
X007202Y001724
X007198Y001724
X007202Y00223
X007198Y002738
Y003246
X006449
Y002738
X006453Y00223
Y001724
X006449Y001724
X005716Y001724
X005712Y001724
X005716Y00223
X005712Y002738
Y003246
X00502
Y002738
X005024Y00223
Y001724
X00502Y001724
X003335Y001724
X003331Y001724
X003335Y00223
X003331Y002738
Y003246
X002639
Y002738
X002643Y00223
Y001724
X002639Y001724
X001863Y001724
X001859Y001724
X001863Y00223
X001859Y002738
Y003246
X001078
Y002738
X001082Y00223
Y001724
X001078Y001724
Y004032
X001082Y004032
Y004538
X001078Y005046
Y005554
X001859
Y005046
X001863Y004538
Y004032
X001859Y004032
X002639
X002643Y004032
Y004538
X002639Y005046
Y005554
X003331
Y005046
X003335Y004538
Y004032
X003331Y004032
Y00634
X003335Y006339
Y006845
X003331Y007353
Y007861
X002639
Y007353
X002643Y006845
Y006339
X002639Y00634
X001863Y006339
X001859Y00634
X001863Y006845
X001859Y007353
Y007861
X001078
Y007353
X001082Y006845
Y006339
X001078Y00634
X00502
X005024Y006339
Y006845
X00502Y007353
Y007861
X005712
Y007353
X005716Y006845
Y006339
X005712Y00634
X006449
X006453Y006339
Y006845
X006449Y007353
Y007861
X007198
Y007353
X007202Y006845
Y006339
X007198Y00634
X007198Y005554
Y005046
X007202Y004538
Y004032
X007198Y004032
X006453Y004032
X006449Y004032
X006453Y004538
X006449Y005046
Y005554
X005712
Y005046
X005716Y004538
Y004032
X005712Y004032
X005024Y004032
X00502Y004032
X005024Y004538
X00502Y005046
Y005554
X008292
Y005046
X008296Y004538
Y004032
X008292Y004032
X009052
X009056Y004032
Y004538
X009052Y005046
Y005554
X009828
Y005046
X009832Y004538
Y004032
X009828Y004032
X010544
X010548Y004032
Y004538
X010544Y005046
Y005554
Y00634
X010548Y006339
Y006845
X010544Y007353
Y007861
X009828
Y007353
X009832Y006845
Y006339
X009828Y00634
X009056Y006339
X009052Y00634
X009056Y006845
X009052Y007353
Y007861
X008292
Y007353
X008296Y006845
Y006339
X008292Y00634
X012234
X012238Y006339
Y006845
X012234Y007353
Y007861
X012926
Y007353
X01293Y006845
Y006339
X012926Y00634
X013663
X013667Y006339
Y006845
X013663Y007353
Y007861
X014412
Y007353
X014416Y006845
Y006339
X014412Y00634
Y005554
Y005046
X014416Y004538
Y004032
X014412Y004032
X013667Y004032
X013663Y004032
X013667Y004538
X013663Y005046
Y005554
X012926
Y005046
X01293Y004538
Y004032
X012926Y004032
X012238Y004032
X012234Y004032
X012238Y004538
X012234Y005046
Y005554
X015529
Y005046
X015533Y004538
Y004032
X015529Y004032
Y00634
X015533Y006339
Y006845
X015529Y007353
Y007861
X016344
Y007353
X016348Y006845
Y006339
X016344Y00634
X017112
X017116Y006339
Y006845
X017112Y007353
Y007861
X017893
Y007353
X017897Y006845
Y006339
X017893Y00634
Y005554
Y005046
X017897Y004538
Y004032
X017893Y004032
X017116Y004032
X017112Y004032
X017116Y004538
X017112Y005046
Y005554
X016344
Y005046
X016348Y004538
Y004032
X016344Y004032
X019767
X019771Y004032
Y004538
X019767Y005046
Y005554
Y00634
X019771Y006339
Y006845
X019767Y007353
Y007861
X020548
Y007353
X020552Y006845
Y006339
X020548Y00634
X021316
X02132Y006339
Y006845
X021316Y007353
Y007861
X022097
Y007353
X022101Y006845
Y006339
X022097Y00634
Y005554
Y005046
X022101Y004538
Y004032
X022097Y004032
X02132Y004032
X021316Y004032
X02132Y004538
X021316Y005046
Y005554
X020548
Y005046
X020552Y004538
Y004032
X020548Y004032
Y008648
X020552Y008647
Y009153
X020548Y009661
Y010169
X021316
Y009661
X02132Y009153
Y008647
X021316Y008648
X022097
X022101Y008647
Y009153
X022097Y009661
Y010169
Y010958
X022101Y010957
Y011463
X02132
Y010957
X021316Y010958
X020552Y010957
X020548Y010958
X020552Y011463
X019771
Y010957
X019767Y010958
Y010169
Y009661
X019771Y009153
Y008647
X019767Y008648
X017897Y008647
X017893Y008648
X017897Y009153
X017893Y009661
Y010169
X017112
Y009661
X017116Y009153
Y008647
X017112Y008648
X016348Y008647
X016344Y008648
X016348Y009153
X016344Y009661
Y010169
Y010955
X016348Y010955
Y011461
X017116
Y010955
X017112Y010955
X017893
X017897Y010955
Y011461
X015533
Y010955
X015529Y010955
Y010169
Y009661
X015533Y009153
Y008647
X015529Y008648
X014416Y008647
X014412Y008648
X014416Y009153
X014412Y009661
Y010169
X013663
Y009661
X013667Y009153
Y008647
X013663Y008648
X01293Y008647
X012926Y008648
X01293Y009153
X012926Y009661
Y010169
X012234
Y009661
X012238Y009153
Y008647
X012234Y008648
Y010955
X012238Y010955
Y011461
X01293
Y010955
X012926Y010955
X013663
X013667Y010955
Y011461
X014416
Y010955
X014412Y010955
X010548Y010955
X010544Y010955
X010548Y011461
X009832
Y010955
X009828Y010955
X009056Y010955
X009052Y010955
X009056Y011461
X008296
Y010955
X008292Y010955
X008292Y010169
Y009661
X008296Y009153
Y008647
X008292Y008648
X009052
X009056Y008647
Y009153
X009052Y009661
Y010169
X009828
Y009661
X009832Y009153
Y008647
X009828Y008648
X010544
X010548Y008647
Y009153
X010544Y009661
Y010169
X007198
Y009661
X007202Y009153
Y008647
X007198Y008648
X006453Y008647
X006449Y008648
X006453Y009153
X006449Y009661
Y010169
X005712
Y009661
X005716Y009153
Y008647
X005712Y008648
X005024Y008647
X00502Y008648
X005024Y009153
X00502Y009661
Y010169
Y010955
X005024Y010955
Y011461
X005716
Y010955
X005712Y010955
X006449
X006453Y010955
Y011461
X007202
Y010955
X007198Y010955
X003335Y010955
X003331Y010955
X003335Y011461
X002643
Y010955
X002639Y010955
X001863Y010955
X001859Y010955
X001863Y011461
X001082
Y010955
X001078Y010955
Y010169
Y009661
X001082Y009153
Y008647
X001078Y008648
X001859
X001863Y008647
Y009153
X001859Y009661
Y010169
X002639
Y009661
X002643Y009153
Y008647
X002639Y008648
X003331
X003335Y008647
Y009153
X003331Y009661
Y010169
Y011969
Y012477
X002639
Y011969
X001859
Y012477
X001078
Y011969
Y013263
X001082Y013263
Y013769
X001078Y014277
Y014785
X001859
Y014277
X001863Y013769
Y013263
X001859Y013263
X002639
X002643Y013263
Y013769
X002639Y014277
Y014785
X003331
Y014277
X003335Y013769
Y013263
X003331Y013263
Y015571
X003335Y01557
X002643
X002639Y015571
X001868Y015567
X001864Y015567
X001081Y015567
X001077Y015567
X00502Y015571
X005024Y01557
X005712Y015571
X005716Y01557
X006487Y015567
X006491Y015567
X007223Y015567
X007227Y015567
X007198Y014785
Y014277
X007202Y013769
Y013263
X007198Y013263
X006453Y013263
X006449Y013263
X006453Y013769
X006449Y014277
Y014785
X005712
Y014277
X005716Y013769
Y013263
X005712Y013263
X005024Y013263
X00502Y013263
X005024Y013769
X00502Y014277
Y014785
Y012477
Y011969
X005712
Y012477
X006449
Y011969
X007198
Y012477
X008292
Y011969
X009052
Y012477
X009828
Y011969
X010544
Y012477
Y013263
X010548Y013263
Y013769
X010544Y014277
Y014785
X009828
Y014277
X009832Y013769
Y013263
X009828Y013263
X009056Y013263
X009052Y013263
X009056Y013769
X009052Y014277
Y014785
X008292
Y014277
X008296Y013769
Y013263
X008292Y013263
X008292Y015571
X008296Y01557
X009052Y015571
X009056Y01557
X009828Y015571
X009832Y01557
X010544Y015571
X010548Y01557
X012234Y015606
X012238Y015606
X012926Y015606
X01293Y015606
X013663Y015606
X013667Y015606
X014412Y015606
X014416Y015606
X014412Y01474
Y014232
X014416Y013724
Y013218
X014412Y013218
X014412Y012477
Y011969
X013663
Y012477
X012926
Y011969
X012234
Y012477
Y013218
X012238Y013218
Y013724
X012234Y014232
Y01474
X012926
Y014232
X01293Y013724
Y013218
X012926Y013218
X013663
X013667Y013218
Y013724
X013663Y014232
Y01474
X015529Y014785
Y014277
X015533Y013769
Y013263
X015529Y013263
Y012477
Y011969
Y015571
X015533Y01557
X016344Y015571
X016348Y01557
X017112Y015571
X017116Y01557
X017893Y015571
X017897Y01557
X017893Y014785
Y014277
X017897Y013769
Y013263
X017893Y013263
X017116Y013263
X017112Y013263
X017116Y013769
X017112Y014277
Y014785
X016344
Y014277
X016348Y013769
Y013263
X016344Y013263
Y012477
Y011969
X017112
Y012477
X017893
Y011969
X019767Y011971
Y012479
Y013263
X019771Y013263
Y013769
X019767Y014277
Y014785
Y015571
X019771Y01557
X020548Y015571
X020552Y01557
X021316Y015571
X02132Y01557
X022097Y015571
X022101Y01557
X022097Y014785
Y014277
X022101Y013769
Y013263
X022097Y013263
X02132Y013263
X021316Y013263
X02132Y013769
X021316Y014277
Y014785
X020548
Y014277
X020552Y013769
Y013263
X020548Y013263
Y012479
Y011971
X021316
Y012479
X022097
Y011971
X022101Y016076
X022097Y016584
Y017092
X021316
Y016584
X02132Y016076
X020552
X020548Y016584
Y017092
Y017879
X020552Y017878
Y018384
X020548Y018892
Y0194
X021316
Y018892
X02132Y018384
Y017878
X021316Y017879
X022097
X022101Y017878
Y018384
X022097Y018892
Y0194
X019767
Y018892
X019771Y018384
Y017878
X019767Y017879
X019767Y017092
Y016584
X019771Y016076
X017897
X017893Y016584
Y017092
X017112
Y016584
X017116Y016076
X016348
X016344Y016584
Y017092
X016344Y017879
X016348Y017878
Y018384
X016344Y018892
Y0194
X017112
Y018892
X017116Y018384
Y017878
X017112Y017879
X017893
X017897Y017878
Y018384
X017893Y018892
Y0194
X015529
Y018892
X015533Y018384
Y017878
X015529Y017879
X015529Y017092
Y016584
X015533Y016076
X014416Y016112
X014412Y01662
Y017128
X013663
Y01662
X013667Y016112
X01293
X012926Y01662
Y017128
X012234
Y01662
X012238Y016112
Y017878
X012234Y017879
X012238Y018384
X012234Y018892
Y0194
X012926
Y018892
X01293Y018384
Y017878
X012926Y017879
X013663
X013667Y017878
Y018384
X013663Y018892
Y0194
X014412
Y018892
X014416Y018384
Y017878
X014412Y017879
X010548Y017878
X010544Y017879
X010548Y018384
X010544Y018892
Y0194
X009828
Y018892
X009832Y018384
Y017878
X009828Y017879
X009056Y017878
X009052Y017879
X009056Y018384
X009052Y018892
Y0194
X008292
Y018892
X008296Y018384
Y017878
X008292Y017879
X008292Y017092
Y016584
X008296Y016076
X009056
X009052Y016584
Y017092
X009828
Y016584
X009832Y016076
X010548
X010544Y016584
Y017092
X007223Y017089
Y016581
X007227Y016073
X006491
X006487Y016581
Y017089
X005712Y017092
Y016584
X005716Y016076
X005024
X00502Y016584
Y017092
Y017879
X005024Y017878
Y018384
X00502Y018892
Y0194
X005712
Y018892
X005716Y018384
Y017878
X005712Y017879
X006449
X006453Y017878
Y018384
X006449Y018892
Y0194
X007198
Y018892
X007202Y018384
Y017878
X007198Y017879
X003335Y017878
X003331Y017879
X003335Y018384
X003331Y018892
Y0194
X002639
Y018892
X002643Y018384
Y017878
X002639Y017879
X001863Y017878
X001859Y017879
X001863Y018384
X001859Y018892
Y0194
X001078
Y018892
X001082Y018384
Y017878
X001078Y017879
X001077Y017089
Y016581
X001081Y016073
X001868
X001864Y016581
Y017089
X002639Y017092
Y016584
X002643Y016076
X003335
X003331Y016584
Y017092
T04
X023Y001
X015138Y000296
X006238
X0005Y001
X023Y019
X0005
T05
X012339Y000552
X012593
X012847
X013101
X013355
X013609
X013863
X014117
X014371
X014625
X014628Y000831
X014625Y00108
X014371
X014117
X013863
X013609
X013355
X013101
X012847
X012593
X012339
X012342Y000821
X012596
X01285
X013104
X013358
X013612
X013866
X01412
X014374
X012088
X011834
X01158
X011326
X011072
X010818
X010564
X01031
X010056
X009802
X009548
X009294
X00904
X008786
X008532
X008278
X008275Y00108
X008529
X008783
X009037
X009291
X009545
X009799
X010053
X010307
X010561
X010815
X011069
X011323
X011577
X011831
X012085
Y000552
X011831
X011577
X011323
X011069
X010815
X010561
X010307
X010053
X009799
X009545
X009291
X009037
X008783
X008529
X008275
X008021
X007767
X007513
X007259
X007005
X006751
X006754Y000821
X007008
X007262
X007516
X00777
X008024
X008021Y00108
X007767
X007513
X007259
X007005
X006751
M30
