G04 Layer_Color=32896*
%FSLAX42Y42*%
%MOMM*%
G71*
G01*
G75*
%ADD21C,0.25*%
%ADD31C,0.08*%
%ADD32C,0.10*%
%ADD33R,1.65X0.50*%
D21*
X1432Y19238D02*
Y19136D01*
X1381Y19085D01*
X1331Y19136D01*
Y19238D01*
X1280D02*
Y19085D01*
X1204D01*
X1178Y19111D01*
Y19212D01*
X1204Y19238D01*
X1280D01*
X1127Y19212D02*
X1102Y19238D01*
X1051D01*
X1026Y19212D01*
Y19187D01*
X1051Y19161D01*
X1077D01*
X1051D01*
X1026Y19136D01*
Y19111D01*
X1051Y19085D01*
X1102D01*
X1127Y19111D01*
X20000Y12303D02*
Y12202D01*
X19949Y12151D01*
X19898Y12202D01*
Y12303D01*
X19847D02*
Y12151D01*
X19771D01*
X19746Y12176D01*
Y12278D01*
X19771Y12303D01*
X19847D01*
X19695Y12151D02*
X19644D01*
X19669D01*
Y12303D01*
X19695Y12278D01*
X19466Y12303D02*
X19568D01*
Y12227D01*
X19517Y12253D01*
X19492D01*
X19466Y12227D01*
Y12176D01*
X19492Y12151D01*
X19542D01*
X19568Y12176D01*
X19416Y12278D02*
X19390Y12303D01*
X19339D01*
X19314Y12278D01*
Y12253D01*
X19339Y12227D01*
X19314Y12202D01*
Y12176D01*
X19339Y12151D01*
X19390D01*
X19416Y12176D01*
Y12202D01*
X19390Y12227D01*
X19416Y12253D01*
Y12278D01*
X19390Y12227D02*
X19339D01*
X21803Y12253D02*
Y12151D01*
X21752Y12100D01*
X21701Y12151D01*
Y12253D01*
X21651D02*
Y12100D01*
X21574D01*
X21549Y12126D01*
Y12227D01*
X21574Y12253D01*
X21651D01*
X21498Y12100D02*
X21447D01*
X21473D01*
Y12253D01*
X21498Y12227D01*
X21270Y12253D02*
X21371D01*
Y12176D01*
X21321Y12202D01*
X21295D01*
X21270Y12176D01*
Y12126D01*
X21295Y12100D01*
X21346D01*
X21371Y12126D01*
X21219Y12253D02*
X21117D01*
Y12227D01*
X21219Y12126D01*
Y12100D01*
X1432Y18730D02*
Y18628D01*
X1381Y18577D01*
X1331Y18628D01*
Y18730D01*
X1280D02*
Y18577D01*
X1204D01*
X1178Y18603D01*
Y18704D01*
X1204Y18730D01*
X1280D01*
X1127Y18577D02*
X1077D01*
X1102D01*
Y18730D01*
X1127Y18704D01*
X3062Y18202D02*
Y18101D01*
X3011Y18050D01*
X2960Y18101D01*
Y18202D01*
X2910D02*
Y18050D01*
X2833D01*
X2808Y18075D01*
Y18177D01*
X2833Y18202D01*
X2910D01*
X2656Y18050D02*
X2757D01*
X2656Y18152D01*
Y18177D01*
X2681Y18202D01*
X2732D01*
X2757Y18177D01*
X3036Y18761D02*
Y18660D01*
X2986Y18609D01*
X2935Y18660D01*
Y18761D01*
X2884D02*
Y18609D01*
X2808D01*
X2782Y18634D01*
Y18736D01*
X2808Y18761D01*
X2884D01*
X2656Y18609D02*
Y18761D01*
X2732Y18685D01*
X2630D01*
X6136Y18710D02*
Y18609D01*
X6086Y18558D01*
X6035Y18609D01*
Y18710D01*
X5984D02*
Y18558D01*
X5908D01*
X5882Y18583D01*
Y18685D01*
X5908Y18710D01*
X5984D01*
X5730D02*
X5832D01*
Y18634D01*
X5781Y18660D01*
X5756D01*
X5730Y18634D01*
Y18583D01*
X5756Y18558D01*
X5806D01*
X5832Y18583D01*
X6872Y19244D02*
Y19142D01*
X6821Y19091D01*
X6770Y19142D01*
Y19244D01*
X6719D02*
Y19091D01*
X6643D01*
X6618Y19117D01*
Y19218D01*
X6643Y19244D01*
X6719D01*
X6465D02*
X6516Y19218D01*
X6567Y19168D01*
Y19117D01*
X6542Y19091D01*
X6491D01*
X6465Y19117D01*
Y19142D01*
X6491Y19168D01*
X6567D01*
X5400Y18710D02*
Y18609D01*
X5349Y18558D01*
X5298Y18609D01*
Y18710D01*
X5247D02*
Y18558D01*
X5171D01*
X5146Y18583D01*
Y18685D01*
X5171Y18710D01*
X5247D01*
X5095D02*
X4993D01*
Y18685D01*
X5095Y18583D01*
Y18558D01*
X6872Y18736D02*
Y18634D01*
X6821Y18583D01*
X6770Y18634D01*
Y18736D01*
X6719D02*
Y18583D01*
X6643D01*
X6618Y18609D01*
Y18710D01*
X6643Y18736D01*
X6719D01*
X6567Y18710D02*
X6541Y18736D01*
X6491D01*
X6465Y18710D01*
Y18685D01*
X6491Y18660D01*
X6465Y18634D01*
Y18609D01*
X6491Y18583D01*
X6541D01*
X6567Y18609D01*
Y18634D01*
X6541Y18660D01*
X6567Y18685D01*
Y18710D01*
X6541Y18660D02*
X6491D01*
X3672Y16932D02*
Y16831D01*
X3622Y16780D01*
X3571Y16831D01*
Y16932D01*
X3520D02*
Y16780D01*
X3444D01*
X3418Y16805D01*
Y16907D01*
X3444Y16932D01*
X3520D01*
X3368Y16805D02*
X3342Y16780D01*
X3291D01*
X3266Y16805D01*
Y16907D01*
X3291Y16932D01*
X3342D01*
X3368Y16907D01*
Y16882D01*
X3342Y16856D01*
X3266D01*
X3064Y16932D02*
Y16831D01*
X3013Y16780D01*
X2962Y16831D01*
Y16932D01*
X2912D02*
Y16780D01*
X2835D01*
X2810Y16805D01*
Y16907D01*
X2835Y16932D01*
X2912D01*
X2759Y16780D02*
X2708D01*
X2734D01*
Y16932D01*
X2759Y16907D01*
X2632D02*
X2607Y16932D01*
X2556D01*
X2531Y16907D01*
Y16805D01*
X2556Y16780D01*
X2607D01*
X2632Y16805D01*
Y16907D01*
X3063Y16399D02*
Y16297D01*
X3012Y16247D01*
X2961Y16297D01*
Y16399D01*
X2910D02*
Y16247D01*
X2834D01*
X2809Y16272D01*
Y16374D01*
X2834Y16399D01*
X2910D01*
X2758Y16247D02*
X2707D01*
X2733D01*
Y16399D01*
X2758Y16374D01*
X2631Y16247D02*
X2580D01*
X2606D01*
Y16399D01*
X2631Y16374D01*
X2429Y16399D02*
Y16297D01*
X2378Y16247D01*
X2327Y16297D01*
Y16399D01*
X2276D02*
Y16247D01*
X2200D01*
X2175Y16272D01*
Y16374D01*
X2200Y16399D01*
X2276D01*
X2124Y16247D02*
X2073D01*
X2099D01*
Y16399D01*
X2124Y16374D01*
X1896Y16247D02*
X1997D01*
X1896Y16348D01*
Y16374D01*
X1921Y16399D01*
X1972D01*
X1997Y16374D01*
X5425Y16932D02*
Y16831D01*
X5374Y16780D01*
X5323Y16831D01*
Y16932D01*
X5272D02*
Y16780D01*
X5196D01*
X5171Y16805D01*
Y16907D01*
X5196Y16932D01*
X5272D01*
X5120Y16780D02*
X5069D01*
X5095D01*
Y16932D01*
X5120Y16907D01*
X4993D02*
X4968Y16932D01*
X4917D01*
X4891Y16907D01*
Y16882D01*
X4917Y16856D01*
X4942D01*
X4917D01*
X4891Y16831D01*
Y16805D01*
X4917Y16780D01*
X4968D01*
X4993Y16805D01*
X6162Y16958D02*
Y16856D01*
X6112Y16805D01*
X6061Y16856D01*
Y16958D01*
X6010D02*
Y16805D01*
X5934D01*
X5909Y16831D01*
Y16932D01*
X5934Y16958D01*
X6010D01*
X5858Y16805D02*
X5807D01*
X5832D01*
Y16958D01*
X5858Y16932D01*
X5655Y16805D02*
Y16958D01*
X5731Y16882D01*
X5629D01*
X5425Y16374D02*
Y16272D01*
X5374Y16221D01*
X5323Y16272D01*
Y16374D01*
X5272D02*
Y16221D01*
X5196D01*
X5171Y16247D01*
Y16348D01*
X5196Y16374D01*
X5272D01*
X5120Y16221D02*
X5069D01*
X5094D01*
Y16374D01*
X5120Y16348D01*
X4891Y16374D02*
X4993D01*
Y16297D01*
X4942Y16323D01*
X4917D01*
X4891Y16297D01*
Y16247D01*
X4917Y16221D01*
X4968D01*
X4993Y16247D01*
X6213Y16399D02*
Y16297D01*
X6162Y16247D01*
X6112Y16297D01*
Y16399D01*
X6061D02*
Y16247D01*
X5985D01*
X5959Y16272D01*
Y16374D01*
X5985Y16399D01*
X6061D01*
X5908Y16247D02*
X5858D01*
X5883D01*
Y16399D01*
X5908Y16374D01*
X5680Y16399D02*
X5731Y16374D01*
X5782Y16323D01*
Y16272D01*
X5756Y16247D01*
X5705D01*
X5680Y16272D01*
Y16297D01*
X5705Y16323D01*
X5782D01*
X1665Y14138D02*
Y14037D01*
X1614Y13986D01*
X1564Y14037D01*
Y14138D01*
X1513D02*
Y13986D01*
X1437D01*
X1411Y14011D01*
Y14113D01*
X1437Y14138D01*
X1513D01*
X1361Y13986D02*
X1310D01*
X1335D01*
Y14138D01*
X1361Y14113D01*
X1234Y14138D02*
X1132D01*
Y14113D01*
X1234Y14011D01*
Y13986D01*
X2428Y14138D02*
Y14037D01*
X2378Y13986D01*
X2327Y14037D01*
Y14138D01*
X2276D02*
Y13986D01*
X2200D01*
X2175Y14011D01*
Y14113D01*
X2200Y14138D01*
X2276D01*
X2124Y13986D02*
X2073D01*
X2098D01*
Y14138D01*
X2124Y14113D01*
X1997D02*
X1971Y14138D01*
X1921D01*
X1895Y14113D01*
Y14088D01*
X1921Y14062D01*
X1895Y14037D01*
Y14011D01*
X1921Y13986D01*
X1971D01*
X1997Y14011D01*
Y14037D01*
X1971Y14062D01*
X1997Y14088D01*
Y14113D01*
X1971Y14062D02*
X1921D01*
X3088Y14138D02*
Y14037D01*
X3037Y13986D01*
X2986Y14037D01*
Y14138D01*
X2935D02*
Y13986D01*
X2859D01*
X2834Y14011D01*
Y14113D01*
X2859Y14138D01*
X2935D01*
X2783Y13986D02*
X2732D01*
X2757D01*
Y14138D01*
X2783Y14113D01*
X2656Y14011D02*
X2630Y13986D01*
X2580D01*
X2554Y14011D01*
Y14113D01*
X2580Y14138D01*
X2630D01*
X2656Y14113D01*
Y14088D01*
X2630Y14062D01*
X2554D01*
X3089Y13630D02*
Y13529D01*
X3038Y13478D01*
X2987Y13529D01*
Y13630D01*
X2936D02*
Y13478D01*
X2860D01*
X2835Y13503D01*
Y13605D01*
X2860Y13630D01*
X2936D01*
X2682Y13478D02*
X2784D01*
X2682Y13580D01*
Y13605D01*
X2708Y13630D01*
X2759D01*
X2784Y13605D01*
X2632D02*
X2606Y13630D01*
X2555D01*
X2530Y13605D01*
Y13503D01*
X2555Y13478D01*
X2606D01*
X2632Y13503D01*
Y13605D01*
X5424Y15129D02*
Y15027D01*
X5373Y14977D01*
X5323Y15027D01*
Y15129D01*
X5272D02*
Y14977D01*
X5196D01*
X5170Y15002D01*
Y15104D01*
X5196Y15129D01*
X5272D01*
X5018Y14977D02*
X5119D01*
X5018Y15078D01*
Y15104D01*
X5043Y15129D01*
X5094D01*
X5119Y15104D01*
X4967Y14977D02*
X4916D01*
X4942D01*
Y15129D01*
X4967Y15104D01*
X5425Y14596D02*
Y14494D01*
X5375Y14443D01*
X5324Y14494D01*
Y14596D01*
X5273D02*
Y14443D01*
X5197D01*
X5171Y14469D01*
Y14570D01*
X5197Y14596D01*
X5273D01*
X5019Y14443D02*
X5121D01*
X5019Y14545D01*
Y14570D01*
X5045Y14596D01*
X5095D01*
X5121Y14570D01*
X4867Y14443D02*
X4968D01*
X4867Y14545D01*
Y14570D01*
X4892Y14596D01*
X4943D01*
X4968Y14570D01*
X5424Y14062D02*
Y13961D01*
X5373Y13910D01*
X5322Y13961D01*
Y14062D01*
X5272D02*
Y13910D01*
X5196D01*
X5170Y13935D01*
Y14037D01*
X5196Y14062D01*
X5272D01*
X5018Y13910D02*
X5119D01*
X5018Y14011D01*
Y14037D01*
X5043Y14062D01*
X5094D01*
X5119Y14037D01*
X4967D02*
X4942Y14062D01*
X4891D01*
X4865Y14037D01*
Y14011D01*
X4891Y13986D01*
X4916D01*
X4891D01*
X4865Y13961D01*
Y13935D01*
X4891Y13910D01*
X4942D01*
X4967Y13935D01*
X5425Y13580D02*
Y13478D01*
X5374Y13427D01*
X5324Y13478D01*
Y13580D01*
X5273D02*
Y13427D01*
X5197D01*
X5171Y13453D01*
Y13554D01*
X5197Y13580D01*
X5273D01*
X5019Y13427D02*
X5121D01*
X5019Y13529D01*
Y13554D01*
X5044Y13580D01*
X5095D01*
X5121Y13554D01*
X4892Y13427D02*
Y13580D01*
X4968Y13503D01*
X4867D01*
X3062Y12310D02*
Y12208D01*
X3011Y12157D01*
X2960Y12208D01*
Y12310D01*
X2909D02*
Y12157D01*
X2833D01*
X2808Y12183D01*
Y12284D01*
X2833Y12310D01*
X2909D01*
X2655Y12157D02*
X2757D01*
X2655Y12259D01*
Y12284D01*
X2681Y12310D01*
X2732D01*
X2757Y12284D01*
X2503Y12310D02*
X2605D01*
Y12233D01*
X2554Y12259D01*
X2528D01*
X2503Y12233D01*
Y12183D01*
X2528Y12157D01*
X2579D01*
X2605Y12183D01*
X1539Y11827D02*
Y11725D01*
X1488Y11675D01*
X1437Y11725D01*
Y11827D01*
X1387D02*
Y11675D01*
X1310D01*
X1285Y11700D01*
Y11802D01*
X1310Y11827D01*
X1387D01*
X1133Y11675D02*
X1234D01*
X1133Y11776D01*
Y11802D01*
X1158Y11827D01*
X1209D01*
X1234Y11802D01*
X980Y11827D02*
X1031Y11802D01*
X1082Y11751D01*
Y11700D01*
X1056Y11675D01*
X1006D01*
X980Y11700D01*
Y11725D01*
X1006Y11751D01*
X1082D01*
X3087Y11243D02*
Y11141D01*
X3036Y11090D01*
X2985Y11141D01*
Y11243D01*
X2935D02*
Y11090D01*
X2858D01*
X2833Y11116D01*
Y11217D01*
X2858Y11243D01*
X2935D01*
X2681Y11090D02*
X2782D01*
X2681Y11192D01*
Y11217D01*
X2706Y11243D01*
X2757D01*
X2782Y11217D01*
X2630Y11243D02*
X2528D01*
Y11217D01*
X2630Y11116D01*
Y11090D01*
X3088Y11776D02*
Y11675D01*
X3037Y11624D01*
X2987Y11675D01*
Y11776D01*
X2936D02*
Y11624D01*
X2860D01*
X2834Y11649D01*
Y11751D01*
X2860Y11776D01*
X2936D01*
X2682Y11624D02*
X2783D01*
X2682Y11725D01*
Y11751D01*
X2707Y11776D01*
X2758D01*
X2783Y11751D01*
X2631D02*
X2606Y11776D01*
X2555D01*
X2530Y11751D01*
Y11725D01*
X2555Y11700D01*
X2530Y11675D01*
Y11649D01*
X2555Y11624D01*
X2606D01*
X2631Y11649D01*
Y11675D01*
X2606Y11700D01*
X2631Y11725D01*
Y11751D01*
X2606Y11700D02*
X2555D01*
X5452Y11751D02*
Y11649D01*
X5401Y11598D01*
X5350Y11649D01*
Y11751D01*
X5299D02*
Y11598D01*
X5223D01*
X5198Y11624D01*
Y11725D01*
X5223Y11751D01*
X5299D01*
X5045Y11598D02*
X5147D01*
X5045Y11700D01*
Y11725D01*
X5071Y11751D01*
X5122D01*
X5147Y11725D01*
X4995Y11624D02*
X4969Y11598D01*
X4918D01*
X4893Y11624D01*
Y11725D01*
X4918Y11751D01*
X4969D01*
X4995Y11725D01*
Y11700D01*
X4969Y11675D01*
X4893D01*
X5425Y12259D02*
Y12157D01*
X5374Y12106D01*
X5323Y12157D01*
Y12259D01*
X5273D02*
Y12106D01*
X5196D01*
X5171Y12132D01*
Y12233D01*
X5196Y12259D01*
X5273D01*
X5120Y12233D02*
X5095Y12259D01*
X5044D01*
X5019Y12233D01*
Y12208D01*
X5044Y12183D01*
X5069D01*
X5044D01*
X5019Y12157D01*
Y12132D01*
X5044Y12106D01*
X5095D01*
X5120Y12132D01*
X4968Y12233D02*
X4942Y12259D01*
X4892D01*
X4866Y12233D01*
Y12132D01*
X4892Y12106D01*
X4942D01*
X4968Y12132D01*
Y12233D01*
X5401Y12843D02*
Y12741D01*
X5350Y12691D01*
X5299Y12741D01*
Y12843D01*
X5248D02*
Y12691D01*
X5172D01*
X5147Y12716D01*
Y12818D01*
X5172Y12843D01*
X5248D01*
X5096Y12818D02*
X5071Y12843D01*
X5020D01*
X4994Y12818D01*
Y12792D01*
X5020Y12767D01*
X5045D01*
X5020D01*
X4994Y12741D01*
Y12716D01*
X5020Y12691D01*
X5071D01*
X5096Y12716D01*
X4944Y12691D02*
X4893D01*
X4918D01*
Y12843D01*
X4944Y12818D01*
X6136Y12259D02*
Y12157D01*
X6085Y12106D01*
X6034Y12157D01*
Y12259D01*
X5984D02*
Y12106D01*
X5907D01*
X5882Y12132D01*
Y12233D01*
X5907Y12259D01*
X5984D01*
X5831Y12233D02*
X5806Y12259D01*
X5755D01*
X5730Y12233D01*
Y12208D01*
X5755Y12183D01*
X5780D01*
X5755D01*
X5730Y12157D01*
Y12132D01*
X5755Y12106D01*
X5806D01*
X5831Y12132D01*
X5577Y12106D02*
X5679D01*
X5577Y12208D01*
Y12233D01*
X5603Y12259D01*
X5654D01*
X5679Y12233D01*
X3064Y9490D02*
Y9389D01*
X3013Y9338D01*
X2962Y9389D01*
Y9490D01*
X2911D02*
Y9338D01*
X2835D01*
X2810Y9363D01*
Y9465D01*
X2835Y9490D01*
X2911D01*
X2759Y9465D02*
X2734Y9490D01*
X2683D01*
X2657Y9465D01*
Y9439D01*
X2683Y9414D01*
X2708D01*
X2683D01*
X2657Y9389D01*
Y9363D01*
X2683Y9338D01*
X2734D01*
X2759Y9363D01*
X2607Y9465D02*
X2581Y9490D01*
X2531D01*
X2505Y9465D01*
Y9439D01*
X2531Y9414D01*
X2556D01*
X2531D01*
X2505Y9389D01*
Y9363D01*
X2531Y9338D01*
X2581D01*
X2607Y9363D01*
X2300Y9490D02*
Y9389D01*
X2250Y9338D01*
X2199Y9389D01*
Y9490D01*
X2148D02*
Y9338D01*
X2072D01*
X2047Y9363D01*
Y9465D01*
X2072Y9490D01*
X2148D01*
X1996Y9465D02*
X1970Y9490D01*
X1920D01*
X1894Y9465D01*
Y9439D01*
X1920Y9414D01*
X1945D01*
X1920D01*
X1894Y9389D01*
Y9363D01*
X1920Y9338D01*
X1970D01*
X1996Y9363D01*
X1767Y9338D02*
Y9490D01*
X1843Y9414D01*
X1742D01*
X3064Y9998D02*
Y9897D01*
X3013Y9846D01*
X2962Y9897D01*
Y9998D01*
X2911D02*
Y9846D01*
X2835D01*
X2810Y9871D01*
Y9973D01*
X2835Y9998D01*
X2911D01*
X2759Y9973D02*
X2734Y9998D01*
X2683D01*
X2657Y9973D01*
Y9947D01*
X2683Y9922D01*
X2708D01*
X2683D01*
X2657Y9897D01*
Y9871D01*
X2683Y9846D01*
X2734D01*
X2759Y9871D01*
X2505Y9998D02*
X2607D01*
Y9922D01*
X2556Y9947D01*
X2530D01*
X2505Y9922D01*
Y9871D01*
X2530Y9846D01*
X2581D01*
X2607Y9871D01*
X3062Y8931D02*
Y8830D01*
X3012Y8779D01*
X2961Y8830D01*
Y8931D01*
X2910D02*
Y8779D01*
X2834D01*
X2808Y8804D01*
Y8906D01*
X2834Y8931D01*
X2910D01*
X2758Y8906D02*
X2732Y8931D01*
X2681D01*
X2656Y8906D01*
Y8881D01*
X2681Y8855D01*
X2707D01*
X2681D01*
X2656Y8830D01*
Y8804D01*
X2681Y8779D01*
X2732D01*
X2758Y8804D01*
X2504Y8931D02*
X2554Y8906D01*
X2605Y8855D01*
Y8804D01*
X2580Y8779D01*
X2529D01*
X2504Y8804D01*
Y8830D01*
X2529Y8855D01*
X2605D01*
X5400Y9998D02*
Y9897D01*
X5350Y9846D01*
X5299Y9897D01*
Y9998D01*
X5248D02*
Y9846D01*
X5172D01*
X5146Y9871D01*
Y9973D01*
X5172Y9998D01*
X5248D01*
X5096Y9973D02*
X5070Y9998D01*
X5019D01*
X4994Y9973D01*
Y9947D01*
X5019Y9922D01*
X5045D01*
X5019D01*
X4994Y9897D01*
Y9871D01*
X5019Y9846D01*
X5070D01*
X5096Y9871D01*
X4943Y9998D02*
X4842D01*
Y9973D01*
X4943Y9871D01*
Y9846D01*
X5424Y9465D02*
Y9363D01*
X5374Y9312D01*
X5323Y9363D01*
Y9465D01*
X5272D02*
Y9312D01*
X5196D01*
X5170Y9338D01*
Y9439D01*
X5196Y9465D01*
X5272D01*
X5120Y9439D02*
X5094Y9465D01*
X5043D01*
X5018Y9439D01*
Y9414D01*
X5043Y9389D01*
X5069D01*
X5043D01*
X5018Y9363D01*
Y9338D01*
X5043Y9312D01*
X5094D01*
X5120Y9338D01*
X4967Y9439D02*
X4942Y9465D01*
X4891D01*
X4866Y9439D01*
Y9414D01*
X4891Y9389D01*
X4866Y9363D01*
Y9338D01*
X4891Y9312D01*
X4942D01*
X4967Y9338D01*
Y9363D01*
X4942Y9389D01*
X4967Y9414D01*
Y9439D01*
X4942Y9389D02*
X4891D01*
X5426Y8957D02*
Y8855D01*
X5375Y8804D01*
X5324Y8855D01*
Y8957D01*
X5273D02*
Y8804D01*
X5197D01*
X5172Y8830D01*
Y8931D01*
X5197Y8957D01*
X5273D01*
X5121Y8931D02*
X5095Y8957D01*
X5045D01*
X5019Y8931D01*
Y8906D01*
X5045Y8881D01*
X5070D01*
X5045D01*
X5019Y8855D01*
Y8830D01*
X5045Y8804D01*
X5095D01*
X5121Y8830D01*
X4969D02*
X4943Y8804D01*
X4892D01*
X4867Y8830D01*
Y8931D01*
X4892Y8957D01*
X4943D01*
X4969Y8931D01*
Y8906D01*
X4943Y8881D01*
X4867D01*
X6161Y8957D02*
Y8855D01*
X6110Y8804D01*
X6059Y8855D01*
Y8957D01*
X6008D02*
Y8804D01*
X5932D01*
X5907Y8830D01*
Y8931D01*
X5932Y8957D01*
X6008D01*
X5780Y8804D02*
Y8957D01*
X5856Y8881D01*
X5755D01*
X5704Y8931D02*
X5678Y8957D01*
X5628D01*
X5602Y8931D01*
Y8830D01*
X5628Y8804D01*
X5678D01*
X5704Y8830D01*
Y8931D01*
X3038Y7687D02*
Y7585D01*
X2987Y7534D01*
X2936Y7585D01*
Y7687D01*
X2886D02*
Y7534D01*
X2809D01*
X2784Y7560D01*
Y7661D01*
X2809Y7687D01*
X2886D01*
X2657Y7534D02*
Y7687D01*
X2733Y7611D01*
X2632D01*
X2581Y7534D02*
X2530D01*
X2555D01*
Y7687D01*
X2581Y7661D01*
X3037Y8220D02*
Y8119D01*
X2986Y8068D01*
X2935Y8119D01*
Y8220D01*
X2884D02*
Y8068D01*
X2808D01*
X2783Y8093D01*
Y8195D01*
X2808Y8220D01*
X2884D01*
X2656Y8068D02*
Y8220D01*
X2732Y8144D01*
X2630D01*
X2478Y8068D02*
X2579D01*
X2478Y8169D01*
Y8195D01*
X2503Y8220D01*
X2554D01*
X2579Y8195D01*
X3063Y7179D02*
Y7077D01*
X3012Y7026D01*
X2962Y7077D01*
Y7179D01*
X2911D02*
Y7026D01*
X2835D01*
X2809Y7052D01*
Y7153D01*
X2835Y7179D01*
X2911D01*
X2682Y7026D02*
Y7179D01*
X2758Y7103D01*
X2657D01*
X2606Y7153D02*
X2581Y7179D01*
X2530D01*
X2505Y7153D01*
Y7128D01*
X2530Y7103D01*
X2555D01*
X2530D01*
X2505Y7077D01*
Y7052D01*
X2530Y7026D01*
X2581D01*
X2606Y7052D01*
X3062Y6645D02*
Y6544D01*
X3011Y6493D01*
X2960Y6544D01*
Y6645D01*
X2909D02*
Y6493D01*
X2833D01*
X2808Y6518D01*
Y6620D01*
X2833Y6645D01*
X2909D01*
X2681Y6493D02*
Y6645D01*
X2757Y6569D01*
X2656D01*
X2529Y6493D02*
Y6645D01*
X2605Y6569D01*
X2503D01*
X5425Y8271D02*
Y8169D01*
X5374Y8119D01*
X5324Y8169D01*
Y8271D01*
X5273D02*
Y8119D01*
X5197D01*
X5171Y8144D01*
Y8246D01*
X5197Y8271D01*
X5273D01*
X5044Y8119D02*
Y8271D01*
X5120Y8195D01*
X5019D01*
X4867Y8271D02*
X4968D01*
Y8195D01*
X4917Y8220D01*
X4892D01*
X4867Y8195D01*
Y8144D01*
X4892Y8119D01*
X4943D01*
X4968Y8144D01*
X5424Y7687D02*
Y7585D01*
X5373Y7534D01*
X5322Y7585D01*
Y7687D01*
X5272D02*
Y7534D01*
X5195D01*
X5170Y7560D01*
Y7661D01*
X5195Y7687D01*
X5272D01*
X5043Y7534D02*
Y7687D01*
X5119Y7611D01*
X5018D01*
X4865Y7687D02*
X4916Y7661D01*
X4967Y7611D01*
Y7560D01*
X4941Y7534D01*
X4891D01*
X4865Y7560D01*
Y7585D01*
X4891Y7611D01*
X4967D01*
X5425Y7179D02*
Y7077D01*
X5374Y7026D01*
X5324Y7077D01*
Y7179D01*
X5273D02*
Y7026D01*
X5197D01*
X5171Y7052D01*
Y7153D01*
X5197Y7179D01*
X5273D01*
X5044Y7026D02*
Y7179D01*
X5120Y7103D01*
X5019D01*
X4968Y7179D02*
X4866D01*
Y7153D01*
X4968Y7052D01*
Y7026D01*
X5424Y6645D02*
Y6544D01*
X5373Y6493D01*
X5322Y6544D01*
Y6645D01*
X5271D02*
Y6493D01*
X5195D01*
X5170Y6518D01*
Y6620D01*
X5195Y6645D01*
X5271D01*
X5043Y6493D02*
Y6645D01*
X5119Y6569D01*
X5017D01*
X4967Y6620D02*
X4941Y6645D01*
X4891D01*
X4865Y6620D01*
Y6595D01*
X4891Y6569D01*
X4865Y6544D01*
Y6518D01*
X4891Y6493D01*
X4941D01*
X4967Y6518D01*
Y6544D01*
X4941Y6569D01*
X4967Y6595D01*
Y6620D01*
X4941Y6569D02*
X4891D01*
X3037Y5934D02*
Y5833D01*
X2987Y5782D01*
X2936Y5833D01*
Y5934D01*
X2885D02*
Y5782D01*
X2809D01*
X2783Y5807D01*
Y5909D01*
X2809Y5934D01*
X2885D01*
X2656Y5782D02*
Y5934D01*
X2733Y5858D01*
X2631D01*
X2580Y5807D02*
X2555Y5782D01*
X2504D01*
X2479Y5807D01*
Y5909D01*
X2504Y5934D01*
X2555D01*
X2580Y5909D01*
Y5883D01*
X2555Y5858D01*
X2479D01*
X3039Y5401D02*
Y5299D01*
X2988Y5248D01*
X2937Y5299D01*
Y5401D01*
X2886D02*
Y5248D01*
X2810D01*
X2785Y5274D01*
Y5375D01*
X2810Y5401D01*
X2886D01*
X2632D02*
X2734D01*
Y5325D01*
X2683Y5350D01*
X2658D01*
X2632Y5325D01*
Y5274D01*
X2658Y5248D01*
X2708D01*
X2734Y5274D01*
X2582Y5375D02*
X2556Y5401D01*
X2505D01*
X2480Y5375D01*
Y5274D01*
X2505Y5248D01*
X2556D01*
X2582Y5274D01*
Y5375D01*
X3088Y4867D02*
Y4766D01*
X3037Y4715D01*
X2986Y4766D01*
Y4867D01*
X2936D02*
Y4715D01*
X2859D01*
X2834Y4740D01*
Y4842D01*
X2859Y4867D01*
X2936D01*
X2682D02*
X2783D01*
Y4791D01*
X2733Y4817D01*
X2707D01*
X2682Y4791D01*
Y4740D01*
X2707Y4715D01*
X2758D01*
X2783Y4740D01*
X2631Y4715D02*
X2580D01*
X2606D01*
Y4867D01*
X2631Y4842D01*
X3089Y4334D02*
Y4232D01*
X3038Y4182D01*
X2988Y4232D01*
Y4334D01*
X2937D02*
Y4182D01*
X2861D01*
X2835Y4207D01*
Y4309D01*
X2861Y4334D01*
X2937D01*
X2683D02*
X2785D01*
Y4258D01*
X2734Y4283D01*
X2708D01*
X2683Y4258D01*
Y4207D01*
X2708Y4182D01*
X2759D01*
X2785Y4207D01*
X2531Y4182D02*
X2632D01*
X2531Y4283D01*
Y4309D01*
X2556Y4334D01*
X2607D01*
X2632Y4309D01*
X5425Y5350D02*
Y5248D01*
X5374Y5198D01*
X5323Y5248D01*
Y5350D01*
X5272D02*
Y5198D01*
X5196D01*
X5171Y5223D01*
Y5325D01*
X5196Y5350D01*
X5272D01*
X5018D02*
X5120D01*
Y5274D01*
X5069Y5299D01*
X5044D01*
X5018Y5274D01*
Y5223D01*
X5044Y5198D01*
X5095D01*
X5120Y5223D01*
X4968Y5325D02*
X4942Y5350D01*
X4891D01*
X4866Y5325D01*
Y5299D01*
X4891Y5274D01*
X4917D01*
X4891D01*
X4866Y5248D01*
Y5223D01*
X4891Y5198D01*
X4942D01*
X4968Y5223D01*
X5426Y4842D02*
Y4740D01*
X5375Y4690D01*
X5324Y4740D01*
Y4842D01*
X5274D02*
Y4690D01*
X5197D01*
X5172Y4715D01*
Y4817D01*
X5197Y4842D01*
X5274D01*
X5020D02*
X5121D01*
Y4766D01*
X5070Y4791D01*
X5045D01*
X5020Y4766D01*
Y4715D01*
X5045Y4690D01*
X5096D01*
X5121Y4715D01*
X4893Y4690D02*
Y4842D01*
X4969Y4766D01*
X4867D01*
X5399Y4359D02*
Y4258D01*
X5348Y4207D01*
X5298Y4258D01*
Y4359D01*
X5247D02*
Y4207D01*
X5171D01*
X5145Y4232D01*
Y4334D01*
X5171Y4359D01*
X5247D01*
X4993D02*
X5094D01*
Y4283D01*
X5044Y4309D01*
X5018D01*
X4993Y4283D01*
Y4232D01*
X5018Y4207D01*
X5069D01*
X5094Y4232D01*
X4841Y4359D02*
X4942D01*
Y4283D01*
X4891Y4309D01*
X4866D01*
X4841Y4283D01*
Y4232D01*
X4866Y4207D01*
X4917D01*
X4942Y4232D01*
X6188Y4359D02*
Y4258D01*
X6137Y4207D01*
X6086Y4258D01*
Y4359D01*
X6035D02*
Y4207D01*
X5959D01*
X5934Y4232D01*
Y4334D01*
X5959Y4359D01*
X6035D01*
X5782D02*
X5883D01*
Y4283D01*
X5832Y4309D01*
X5807D01*
X5782Y4283D01*
Y4232D01*
X5807Y4207D01*
X5858D01*
X5883Y4232D01*
X5629Y4359D02*
X5680Y4334D01*
X5731Y4283D01*
Y4232D01*
X5705Y4207D01*
X5655D01*
X5629Y4232D01*
Y4258D01*
X5655Y4283D01*
X5731D01*
X3037Y3064D02*
Y2962D01*
X2986Y2912D01*
X2935Y2962D01*
Y3064D01*
X2884D02*
Y2912D01*
X2808D01*
X2783Y2937D01*
Y3039D01*
X2808Y3064D01*
X2884D01*
X2631D02*
X2732D01*
Y2988D01*
X2681Y3013D01*
X2656D01*
X2631Y2988D01*
Y2937D01*
X2656Y2912D01*
X2707D01*
X2732Y2937D01*
X2580Y3064D02*
X2478D01*
Y3039D01*
X2580Y2937D01*
Y2912D01*
X2327Y2581D02*
Y2480D01*
X2276Y2429D01*
X2225Y2480D01*
Y2581D01*
X2174D02*
Y2429D01*
X2098D01*
X2073Y2454D01*
Y2556D01*
X2098Y2581D01*
X2174D01*
X1921D02*
X2022D01*
Y2505D01*
X1971Y2531D01*
X1946D01*
X1921Y2505D01*
Y2454D01*
X1946Y2429D01*
X1997D01*
X2022Y2454D01*
X1870Y2556D02*
X1844Y2581D01*
X1794D01*
X1768Y2556D01*
Y2531D01*
X1794Y2505D01*
X1768Y2480D01*
Y2454D01*
X1794Y2429D01*
X1844D01*
X1870Y2454D01*
Y2480D01*
X1844Y2505D01*
X1870Y2531D01*
Y2556D01*
X1844Y2505D02*
X1794D01*
X3062Y2581D02*
Y2480D01*
X3011Y2429D01*
X2961Y2480D01*
Y2581D01*
X2910D02*
Y2429D01*
X2834D01*
X2808Y2454D01*
Y2556D01*
X2834Y2581D01*
X2910D01*
X2656D02*
X2757D01*
Y2505D01*
X2707Y2531D01*
X2681D01*
X2656Y2505D01*
Y2454D01*
X2681Y2429D01*
X2732D01*
X2757Y2454D01*
X2605D02*
X2580Y2429D01*
X2529D01*
X2503Y2454D01*
Y2556D01*
X2529Y2581D01*
X2580D01*
X2605Y2556D01*
Y2531D01*
X2580Y2505D01*
X2503D01*
X3063Y2073D02*
Y1972D01*
X3013Y1921D01*
X2962Y1972D01*
Y2073D01*
X2911D02*
Y1921D01*
X2835D01*
X2809Y1946D01*
Y2048D01*
X2835Y2073D01*
X2911D01*
X2657D02*
X2708Y2048D01*
X2759Y1997D01*
Y1946D01*
X2733Y1921D01*
X2682D01*
X2657Y1946D01*
Y1972D01*
X2682Y1997D01*
X2759D01*
X2606Y2048D02*
X2581Y2073D01*
X2530D01*
X2505Y2048D01*
Y1946D01*
X2530Y1921D01*
X2581D01*
X2606Y1946D01*
Y2048D01*
X5424Y3089D02*
Y2988D01*
X5373Y2937D01*
X5323Y2988D01*
Y3089D01*
X5272D02*
Y2937D01*
X5196D01*
X5170Y2962D01*
Y3064D01*
X5196Y3089D01*
X5272D01*
X5018D02*
X5069Y3064D01*
X5119Y3013D01*
Y2962D01*
X5094Y2937D01*
X5043D01*
X5018Y2962D01*
Y2988D01*
X5043Y3013D01*
X5119D01*
X4967Y2937D02*
X4916D01*
X4942D01*
Y3089D01*
X4967Y3064D01*
X5425Y2581D02*
Y2480D01*
X5375Y2429D01*
X5324Y2480D01*
Y2581D01*
X5273D02*
Y2429D01*
X5197D01*
X5171Y2454D01*
Y2556D01*
X5197Y2581D01*
X5273D01*
X5019D02*
X5070Y2556D01*
X5121Y2505D01*
Y2454D01*
X5095Y2429D01*
X5045D01*
X5019Y2454D01*
Y2480D01*
X5045Y2505D01*
X5121D01*
X4867Y2429D02*
X4968D01*
X4867Y2531D01*
Y2556D01*
X4892Y2581D01*
X4943D01*
X4968Y2556D01*
X5424Y2073D02*
Y1972D01*
X5373Y1921D01*
X5322Y1972D01*
Y2073D01*
X5272D02*
Y1921D01*
X5196D01*
X5170Y1946D01*
Y2048D01*
X5196Y2073D01*
X5272D01*
X5018D02*
X5069Y2048D01*
X5119Y1997D01*
Y1946D01*
X5094Y1921D01*
X5043D01*
X5018Y1946D01*
Y1972D01*
X5043Y1997D01*
X5119D01*
X4967Y2048D02*
X4942Y2073D01*
X4891D01*
X4865Y2048D01*
Y2023D01*
X4891Y1997D01*
X4916D01*
X4891D01*
X4865Y1972D01*
Y1946D01*
X4891Y1921D01*
X4942D01*
X4967Y1946D01*
X6136Y2556D02*
Y2454D01*
X6086Y2404D01*
X6035Y2454D01*
Y2556D01*
X5984D02*
Y2404D01*
X5908D01*
X5883Y2429D01*
Y2531D01*
X5908Y2556D01*
X5984D01*
X5730D02*
X5781Y2531D01*
X5832Y2480D01*
Y2429D01*
X5806Y2404D01*
X5756D01*
X5730Y2429D01*
Y2454D01*
X5756Y2480D01*
X5832D01*
X5603Y2404D02*
Y2556D01*
X5679Y2480D01*
X5578D01*
X10275Y3674D02*
Y3572D01*
X10225Y3521D01*
X10174Y3572D01*
Y3674D01*
X10123D02*
Y3521D01*
X10047D01*
X10021Y3547D01*
Y3648D01*
X10047Y3674D01*
X10123D01*
X9869D02*
X9920Y3648D01*
X9971Y3597D01*
Y3547D01*
X9945Y3521D01*
X9894D01*
X9869Y3547D01*
Y3572D01*
X9894Y3597D01*
X9971D01*
X9717Y3674D02*
X9818D01*
Y3597D01*
X9767Y3623D01*
X9742D01*
X9717Y3597D01*
Y3547D01*
X9742Y3521D01*
X9793D01*
X9818Y3547D01*
X10277Y3140D02*
Y3039D01*
X10226Y2988D01*
X10175Y3039D01*
Y3140D01*
X10124D02*
Y2988D01*
X10048D01*
X10023Y3013D01*
Y3115D01*
X10048Y3140D01*
X10124D01*
X9870D02*
X9921Y3115D01*
X9972Y3064D01*
Y3013D01*
X9946Y2988D01*
X9896D01*
X9870Y3013D01*
Y3039D01*
X9896Y3064D01*
X9972D01*
X9718Y3140D02*
X9769Y3115D01*
X9819Y3064D01*
Y3013D01*
X9794Y2988D01*
X9743D01*
X9718Y3013D01*
Y3039D01*
X9743Y3064D01*
X9819D01*
X10275Y2581D02*
Y2480D01*
X10224Y2429D01*
X10174Y2480D01*
Y2581D01*
X10123D02*
Y2429D01*
X10047D01*
X10021Y2454D01*
Y2556D01*
X10047Y2581D01*
X10123D01*
X9869D02*
X9920Y2556D01*
X9971Y2505D01*
Y2454D01*
X9945Y2429D01*
X9894D01*
X9869Y2454D01*
Y2480D01*
X9894Y2505D01*
X9971D01*
X9818Y2581D02*
X9717D01*
Y2556D01*
X9818Y2454D01*
Y2429D01*
X10276Y2099D02*
Y1997D01*
X10226Y1946D01*
X10175Y1997D01*
Y2099D01*
X10124D02*
Y1946D01*
X10048D01*
X10022Y1972D01*
Y2073D01*
X10048Y2099D01*
X10124D01*
X9870D02*
X9921Y2073D01*
X9972Y2023D01*
Y1972D01*
X9946Y1946D01*
X9896D01*
X9870Y1972D01*
Y1997D01*
X9896Y2023D01*
X9972D01*
X9819Y2073D02*
X9794Y2099D01*
X9743D01*
X9718Y2073D01*
Y2048D01*
X9743Y2023D01*
X9718Y1997D01*
Y1972D01*
X9743Y1946D01*
X9794D01*
X9819Y1972D01*
Y1997D01*
X9794Y2023D01*
X9819Y2048D01*
Y2073D01*
X9794Y2023D02*
X9743D01*
X12612Y3699D02*
Y3597D01*
X12561Y3547D01*
X12510Y3597D01*
Y3699D01*
X12460D02*
Y3547D01*
X12383D01*
X12358Y3572D01*
Y3674D01*
X12383Y3699D01*
X12460D01*
X12206D02*
X12256Y3674D01*
X12307Y3623D01*
Y3572D01*
X12282Y3547D01*
X12231D01*
X12206Y3572D01*
Y3597D01*
X12231Y3623D01*
X12307D01*
X12155Y3572D02*
X12129Y3547D01*
X12079D01*
X12053Y3572D01*
Y3674D01*
X12079Y3699D01*
X12129D01*
X12155Y3674D01*
Y3648D01*
X12129Y3623D01*
X12053D01*
X12613Y3115D02*
Y3013D01*
X12562Y2962D01*
X12512Y3013D01*
Y3115D01*
X12461D02*
Y2962D01*
X12385D01*
X12359Y2988D01*
Y3089D01*
X12385Y3115D01*
X12461D01*
X12308D02*
X12207D01*
Y3089D01*
X12308Y2988D01*
Y2962D01*
X12156Y3089D02*
X12131Y3115D01*
X12080D01*
X12054Y3089D01*
Y2988D01*
X12080Y2962D01*
X12131D01*
X12156Y2988D01*
Y3089D01*
X12614Y2581D02*
Y2480D01*
X12564Y2429D01*
X12513Y2480D01*
Y2581D01*
X12462D02*
Y2429D01*
X12386D01*
X12360Y2454D01*
Y2556D01*
X12386Y2581D01*
X12462D01*
X12310D02*
X12208D01*
Y2556D01*
X12310Y2454D01*
Y2429D01*
X12157D02*
X12106D01*
X12132D01*
Y2581D01*
X12157Y2556D01*
X12613Y2073D02*
Y1972D01*
X12562Y1921D01*
X12511Y1972D01*
Y2073D01*
X12461D02*
Y1921D01*
X12384D01*
X12359Y1946D01*
Y2048D01*
X12384Y2073D01*
X12461D01*
X12308D02*
X12207D01*
Y2048D01*
X12308Y1946D01*
Y1921D01*
X12054D02*
X12156D01*
X12054Y2023D01*
Y2048D01*
X12080Y2073D01*
X12131D01*
X12156Y2048D01*
X10277Y5985D02*
Y5883D01*
X10227Y5833D01*
X10176Y5883D01*
Y5985D01*
X10125D02*
Y5833D01*
X10049D01*
X10023Y5858D01*
Y5960D01*
X10049Y5985D01*
X10125D01*
X9973D02*
X9871D01*
Y5960D01*
X9973Y5858D01*
Y5833D01*
X9820Y5960D02*
X9795Y5985D01*
X9744D01*
X9719Y5960D01*
Y5934D01*
X9744Y5909D01*
X9770D01*
X9744D01*
X9719Y5883D01*
Y5858D01*
X9744Y5833D01*
X9795D01*
X9820Y5858D01*
X10276Y5477D02*
Y5375D01*
X10225Y5325D01*
X10174Y5375D01*
Y5477D01*
X10124D02*
Y5325D01*
X10048D01*
X10022Y5350D01*
Y5452D01*
X10048Y5477D01*
X10124D01*
X9971D02*
X9870D01*
Y5452D01*
X9971Y5350D01*
Y5325D01*
X9743D02*
Y5477D01*
X9819Y5401D01*
X9717D01*
X10277Y4969D02*
Y4867D01*
X10226Y4817D01*
X10176Y4867D01*
Y4969D01*
X10125D02*
Y4817D01*
X10049D01*
X10023Y4842D01*
Y4944D01*
X10049Y4969D01*
X10125D01*
X9973D02*
X9871D01*
Y4944D01*
X9973Y4842D01*
Y4817D01*
X9719Y4969D02*
X9820D01*
Y4893D01*
X9769Y4918D01*
X9744D01*
X9719Y4893D01*
Y4842D01*
X9744Y4817D01*
X9795D01*
X9820Y4842D01*
X10276Y4436D02*
Y4334D01*
X10225Y4283D01*
X10174Y4334D01*
Y4436D01*
X10124D02*
Y4283D01*
X10047D01*
X10022Y4309D01*
Y4410D01*
X10047Y4436D01*
X10124D01*
X9971D02*
X9870D01*
Y4410D01*
X9971Y4309D01*
Y4283D01*
X9717Y4436D02*
X9768Y4410D01*
X9819Y4359D01*
Y4309D01*
X9793Y4283D01*
X9743D01*
X9717Y4309D01*
Y4334D01*
X9743Y4359D01*
X9819D01*
X12614Y5960D02*
Y5858D01*
X12563Y5807D01*
X12512Y5858D01*
Y5960D01*
X12462D02*
Y5807D01*
X12385D01*
X12360Y5833D01*
Y5934D01*
X12385Y5960D01*
X12462D01*
X12309D02*
X12208D01*
Y5934D01*
X12309Y5833D01*
Y5807D01*
X12157Y5960D02*
X12055D01*
Y5934D01*
X12157Y5833D01*
Y5807D01*
X12613Y5401D02*
Y5299D01*
X12562Y5248D01*
X12511Y5299D01*
Y5401D01*
X12460D02*
Y5248D01*
X12384D01*
X12359Y5274D01*
Y5375D01*
X12384Y5401D01*
X12460D01*
X12308D02*
X12206D01*
Y5375D01*
X12308Y5274D01*
Y5248D01*
X12156Y5375D02*
X12130Y5401D01*
X12079D01*
X12054Y5375D01*
Y5350D01*
X12079Y5325D01*
X12054Y5299D01*
Y5274D01*
X12079Y5248D01*
X12130D01*
X12156Y5274D01*
Y5299D01*
X12130Y5325D01*
X12156Y5350D01*
Y5375D01*
X12130Y5325D02*
X12079D01*
X12614Y4918D02*
Y4817D01*
X12563Y4766D01*
X12512Y4817D01*
Y4918D01*
X12461D02*
Y4766D01*
X12385D01*
X12360Y4791D01*
Y4893D01*
X12385Y4918D01*
X12461D01*
X12309D02*
X12208D01*
Y4893D01*
X12309Y4791D01*
Y4766D01*
X12157Y4791D02*
X12131Y4766D01*
X12081D01*
X12055Y4791D01*
Y4893D01*
X12081Y4918D01*
X12131D01*
X12157Y4893D01*
Y4867D01*
X12131Y4842D01*
X12055D01*
X12612Y4385D02*
Y4283D01*
X12562Y4232D01*
X12511Y4283D01*
Y4385D01*
X12460D02*
Y4232D01*
X12384D01*
X12359Y4258D01*
Y4359D01*
X12384Y4385D01*
X12460D01*
X12308Y4359D02*
X12282Y4385D01*
X12232D01*
X12206Y4359D01*
Y4334D01*
X12232Y4309D01*
X12206Y4283D01*
Y4258D01*
X12232Y4232D01*
X12282D01*
X12308Y4258D01*
Y4283D01*
X12282Y4309D01*
X12308Y4334D01*
Y4359D01*
X12282Y4309D02*
X12232D01*
X12155Y4359D02*
X12130Y4385D01*
X12079D01*
X12054Y4359D01*
Y4258D01*
X12079Y4232D01*
X12130D01*
X12155Y4258D01*
Y4359D01*
X10277Y8322D02*
Y8220D01*
X10226Y8169D01*
X10175Y8220D01*
Y8322D01*
X10125D02*
Y8169D01*
X10048D01*
X10023Y8195D01*
Y8296D01*
X10048Y8322D01*
X10125D01*
X9972Y8296D02*
X9947Y8322D01*
X9896D01*
X9871Y8296D01*
Y8271D01*
X9896Y8246D01*
X9871Y8220D01*
Y8195D01*
X9896Y8169D01*
X9947D01*
X9972Y8195D01*
Y8220D01*
X9947Y8246D01*
X9972Y8271D01*
Y8296D01*
X9947Y8246D02*
X9896D01*
X9820Y8169D02*
X9769D01*
X9794D01*
Y8322D01*
X9820Y8296D01*
X10276Y7763D02*
Y7661D01*
X10225Y7611D01*
X10174Y7661D01*
Y7763D01*
X10123D02*
Y7611D01*
X10047D01*
X10022Y7636D01*
Y7738D01*
X10047Y7763D01*
X10123D01*
X9971Y7738D02*
X9945Y7763D01*
X9895D01*
X9869Y7738D01*
Y7712D01*
X9895Y7687D01*
X9869Y7661D01*
Y7636D01*
X9895Y7611D01*
X9945D01*
X9971Y7636D01*
Y7661D01*
X9945Y7687D01*
X9971Y7712D01*
Y7738D01*
X9945Y7687D02*
X9895D01*
X9717Y7611D02*
X9818D01*
X9717Y7712D01*
Y7738D01*
X9742Y7763D01*
X9793D01*
X9818Y7738D01*
X10277Y7255D02*
Y7153D01*
X10226Y7103D01*
X10175Y7153D01*
Y7255D01*
X10124D02*
Y7103D01*
X10048D01*
X10023Y7128D01*
Y7230D01*
X10048Y7255D01*
X10124D01*
X9972Y7230D02*
X9947Y7255D01*
X9896D01*
X9870Y7230D01*
Y7204D01*
X9896Y7179D01*
X9870Y7153D01*
Y7128D01*
X9896Y7103D01*
X9947D01*
X9972Y7128D01*
Y7153D01*
X9947Y7179D01*
X9972Y7204D01*
Y7230D01*
X9947Y7179D02*
X9896D01*
X9820Y7230D02*
X9794Y7255D01*
X9744D01*
X9718Y7230D01*
Y7204D01*
X9744Y7179D01*
X9769D01*
X9744D01*
X9718Y7153D01*
Y7128D01*
X9744Y7103D01*
X9794D01*
X9820Y7128D01*
X10275Y6747D02*
Y6645D01*
X10225Y6595D01*
X10174Y6645D01*
Y6747D01*
X10123D02*
Y6595D01*
X10047D01*
X10021Y6620D01*
Y6722D01*
X10047Y6747D01*
X10123D01*
X9971Y6722D02*
X9945Y6747D01*
X9895D01*
X9869Y6722D01*
Y6696D01*
X9895Y6671D01*
X9869Y6645D01*
Y6620D01*
X9895Y6595D01*
X9945D01*
X9971Y6620D01*
Y6645D01*
X9945Y6671D01*
X9971Y6696D01*
Y6722D01*
X9945Y6671D02*
X9895D01*
X9742Y6595D02*
Y6747D01*
X9818Y6671D01*
X9717D01*
X12613Y8246D02*
Y8144D01*
X12563Y8093D01*
X12512Y8144D01*
Y8246D01*
X12461D02*
Y8093D01*
X12385D01*
X12359Y8119D01*
Y8220D01*
X12385Y8246D01*
X12461D01*
X12309Y8220D02*
X12283Y8246D01*
X12233D01*
X12207Y8220D01*
Y8195D01*
X12233Y8169D01*
X12207Y8144D01*
Y8119D01*
X12233Y8093D01*
X12283D01*
X12309Y8119D01*
Y8144D01*
X12283Y8169D01*
X12309Y8195D01*
Y8220D01*
X12283Y8169D02*
X12233D01*
X12055Y8246D02*
X12156D01*
Y8169D01*
X12106Y8195D01*
X12080D01*
X12055Y8169D01*
Y8119D01*
X12080Y8093D01*
X12131D01*
X12156Y8119D01*
X12612Y7687D02*
Y7585D01*
X12561Y7534D01*
X12511Y7585D01*
Y7687D01*
X12460D02*
Y7534D01*
X12384D01*
X12358Y7560D01*
Y7661D01*
X12384Y7687D01*
X12460D01*
X12307Y7661D02*
X12282Y7687D01*
X12231D01*
X12206Y7661D01*
Y7636D01*
X12231Y7611D01*
X12206Y7585D01*
Y7560D01*
X12231Y7534D01*
X12282D01*
X12307Y7560D01*
Y7585D01*
X12282Y7611D01*
X12307Y7636D01*
Y7661D01*
X12282Y7611D02*
X12231D01*
X12053Y7687D02*
X12104Y7661D01*
X12155Y7611D01*
Y7560D01*
X12130Y7534D01*
X12079D01*
X12053Y7560D01*
Y7585D01*
X12079Y7611D01*
X12155D01*
X12613Y7153D02*
Y7052D01*
X12562Y7001D01*
X12512Y7052D01*
Y7153D01*
X12461D02*
Y7001D01*
X12385D01*
X12359Y7026D01*
Y7128D01*
X12385Y7153D01*
X12461D01*
X12309Y7128D02*
X12283Y7153D01*
X12232D01*
X12207Y7128D01*
Y7103D01*
X12232Y7077D01*
X12207Y7052D01*
Y7026D01*
X12232Y7001D01*
X12283D01*
X12309Y7026D01*
Y7052D01*
X12283Y7077D01*
X12309Y7103D01*
Y7128D01*
X12283Y7077D02*
X12232D01*
X12156Y7153D02*
X12055D01*
Y7128D01*
X12156Y7026D01*
Y7001D01*
X12612Y6645D02*
Y6544D01*
X12561Y6493D01*
X12510Y6544D01*
Y6645D01*
X12460D02*
Y6493D01*
X12383D01*
X12358Y6518D01*
Y6620D01*
X12383Y6645D01*
X12460D01*
X12307Y6620D02*
X12282Y6645D01*
X12231D01*
X12206Y6620D01*
Y6595D01*
X12231Y6569D01*
X12206Y6544D01*
Y6518D01*
X12231Y6493D01*
X12282D01*
X12307Y6518D01*
Y6544D01*
X12282Y6569D01*
X12307Y6595D01*
Y6620D01*
X12282Y6569D02*
X12231D01*
X12155Y6620D02*
X12130Y6645D01*
X12079D01*
X12053Y6620D01*
Y6595D01*
X12079Y6569D01*
X12053Y6544D01*
Y6518D01*
X12079Y6493D01*
X12130D01*
X12155Y6518D01*
Y6544D01*
X12130Y6569D01*
X12155Y6595D01*
Y6620D01*
X12130Y6569D02*
X12079D01*
X10276Y10608D02*
Y10506D01*
X10226Y10455D01*
X10175Y10506D01*
Y10608D01*
X10124D02*
Y10455D01*
X10048D01*
X10022Y10481D01*
Y10582D01*
X10048Y10608D01*
X10124D01*
X9972Y10582D02*
X9946Y10608D01*
X9895D01*
X9870Y10582D01*
Y10557D01*
X9895Y10532D01*
X9870Y10506D01*
Y10481D01*
X9895Y10455D01*
X9946D01*
X9972Y10481D01*
Y10506D01*
X9946Y10532D01*
X9972Y10557D01*
Y10582D01*
X9946Y10532D02*
X9895D01*
X9819Y10481D02*
X9794Y10455D01*
X9743D01*
X9718Y10481D01*
Y10582D01*
X9743Y10608D01*
X9794D01*
X9819Y10582D01*
Y10557D01*
X9794Y10532D01*
X9718D01*
X10278Y10074D02*
Y9973D01*
X10227Y9922D01*
X10176Y9973D01*
Y10074D01*
X10125D02*
Y9922D01*
X10049D01*
X10024Y9947D01*
Y10049D01*
X10049Y10074D01*
X10125D01*
X9973Y9947D02*
X9947Y9922D01*
X9897D01*
X9871Y9947D01*
Y10049D01*
X9897Y10074D01*
X9947D01*
X9973Y10049D01*
Y10024D01*
X9947Y9998D01*
X9871D01*
X9821Y10049D02*
X9795Y10074D01*
X9744D01*
X9719Y10049D01*
Y9947D01*
X9744Y9922D01*
X9795D01*
X9821Y9947D01*
Y10049D01*
X10276Y9592D02*
Y9490D01*
X10225Y9439D01*
X10175Y9490D01*
Y9592D01*
X10124D02*
Y9439D01*
X10048D01*
X10022Y9465D01*
Y9566D01*
X10048Y9592D01*
X10124D01*
X9972Y9465D02*
X9946Y9439D01*
X9895D01*
X9870Y9465D01*
Y9566D01*
X9895Y9592D01*
X9946D01*
X9972Y9566D01*
Y9541D01*
X9946Y9516D01*
X9870D01*
X9819Y9439D02*
X9768D01*
X9794D01*
Y9592D01*
X9819Y9566D01*
X10277Y9058D02*
Y8957D01*
X10227Y8906D01*
X10176Y8957D01*
Y9058D01*
X10125D02*
Y8906D01*
X10049D01*
X10024Y8931D01*
Y9033D01*
X10049Y9058D01*
X10125D01*
X9973Y8931D02*
X9947Y8906D01*
X9897D01*
X9871Y8931D01*
Y9033D01*
X9897Y9058D01*
X9947D01*
X9973Y9033D01*
Y9008D01*
X9947Y8982D01*
X9871D01*
X9719Y8906D02*
X9820D01*
X9719Y9008D01*
Y9033D01*
X9744Y9058D01*
X9795D01*
X9820Y9033D01*
X12613Y9998D02*
Y9897D01*
X12562Y9846D01*
X12511Y9897D01*
Y9998D01*
X12461D02*
Y9846D01*
X12384D01*
X12359Y9871D01*
Y9973D01*
X12384Y9998D01*
X12461D01*
X12308Y9871D02*
X12283Y9846D01*
X12232D01*
X12207Y9871D01*
Y9973D01*
X12232Y9998D01*
X12283D01*
X12308Y9973D01*
Y9947D01*
X12283Y9922D01*
X12207D01*
X12156Y9973D02*
X12130Y9998D01*
X12080D01*
X12054Y9973D01*
Y9947D01*
X12080Y9922D01*
X12105D01*
X12080D01*
X12054Y9897D01*
Y9871D01*
X12080Y9846D01*
X12130D01*
X12156Y9871D01*
X12614Y9465D02*
Y9363D01*
X12563Y9312D01*
X12513Y9363D01*
Y9465D01*
X12462D02*
Y9312D01*
X12386D01*
X12360Y9338D01*
Y9439D01*
X12386Y9465D01*
X12462D01*
X12309Y9338D02*
X12284Y9312D01*
X12233D01*
X12208Y9338D01*
Y9439D01*
X12233Y9465D01*
X12284D01*
X12309Y9439D01*
Y9414D01*
X12284Y9389D01*
X12208D01*
X12081Y9312D02*
Y9465D01*
X12157Y9389D01*
X12055D01*
X12613Y8957D02*
Y8855D01*
X12562Y8804D01*
X12511Y8855D01*
Y8957D01*
X12460D02*
Y8804D01*
X12384D01*
X12359Y8830D01*
Y8931D01*
X12384Y8957D01*
X12460D01*
X12308Y8830D02*
X12283Y8804D01*
X12232D01*
X12207Y8830D01*
Y8931D01*
X12232Y8957D01*
X12283D01*
X12308Y8931D01*
Y8906D01*
X12283Y8881D01*
X12207D01*
X12054Y8957D02*
X12156D01*
Y8881D01*
X12105Y8906D01*
X12080D01*
X12054Y8881D01*
Y8830D01*
X12080Y8804D01*
X12130D01*
X12156Y8830D01*
X13351Y8982D02*
Y8881D01*
X13300Y8830D01*
X13249Y8881D01*
Y8982D01*
X13198D02*
Y8830D01*
X13122D01*
X13097Y8855D01*
Y8957D01*
X13122Y8982D01*
X13198D01*
X13046Y8855D02*
X13020Y8830D01*
X12970D01*
X12944Y8855D01*
Y8957D01*
X12970Y8982D01*
X13020D01*
X13046Y8957D01*
Y8931D01*
X13020Y8906D01*
X12944D01*
X12792Y8982D02*
X12843Y8957D01*
X12894Y8906D01*
Y8855D01*
X12868Y8830D01*
X12817D01*
X12792Y8855D01*
Y8881D01*
X12817Y8906D01*
X12894D01*
X10276Y12818D02*
Y12716D01*
X10225Y12665D01*
X10174Y12716D01*
Y12818D01*
X10124D02*
Y12665D01*
X10047D01*
X10022Y12691D01*
Y12792D01*
X10047Y12818D01*
X10124D01*
X9971Y12691D02*
X9946Y12665D01*
X9895D01*
X9870Y12691D01*
Y12792D01*
X9895Y12818D01*
X9946D01*
X9971Y12792D01*
Y12767D01*
X9946Y12741D01*
X9870D01*
X9819Y12818D02*
X9717D01*
Y12792D01*
X9819Y12691D01*
Y12665D01*
X10277Y12310D02*
Y12208D01*
X10226Y12157D01*
X10175Y12208D01*
Y12310D01*
X10125D02*
Y12157D01*
X10049D01*
X10023Y12183D01*
Y12284D01*
X10049Y12310D01*
X10125D01*
X9972Y12183D02*
X9947Y12157D01*
X9896D01*
X9871Y12183D01*
Y12284D01*
X9896Y12310D01*
X9947D01*
X9972Y12284D01*
Y12259D01*
X9947Y12233D01*
X9871D01*
X9820Y12284D02*
X9795Y12310D01*
X9744D01*
X9718Y12284D01*
Y12259D01*
X9744Y12233D01*
X9718Y12208D01*
Y12183D01*
X9744Y12157D01*
X9795D01*
X9820Y12183D01*
Y12208D01*
X9795Y12233D01*
X9820Y12259D01*
Y12284D01*
X9795Y12233D02*
X9744D01*
X10276Y11776D02*
Y11675D01*
X10225Y11624D01*
X10174Y11675D01*
Y11776D01*
X10123D02*
Y11624D01*
X10047D01*
X10022Y11649D01*
Y11751D01*
X10047Y11776D01*
X10123D01*
X9971Y11649D02*
X9946Y11624D01*
X9895D01*
X9869Y11649D01*
Y11751D01*
X9895Y11776D01*
X9946D01*
X9971Y11751D01*
Y11725D01*
X9946Y11700D01*
X9869D01*
X9819Y11649D02*
X9793Y11624D01*
X9742D01*
X9717Y11649D01*
Y11751D01*
X9742Y11776D01*
X9793D01*
X9819Y11751D01*
Y11725D01*
X9793Y11700D01*
X9717D01*
X10277Y11268D02*
Y11167D01*
X10226Y11116D01*
X10175Y11167D01*
Y11268D01*
X10125D02*
Y11116D01*
X10048D01*
X10023Y11141D01*
Y11243D01*
X10048Y11268D01*
X10125D01*
X9972Y11116D02*
X9921D01*
X9947D01*
Y11268D01*
X9972Y11243D01*
X9845D02*
X9820Y11268D01*
X9769D01*
X9744Y11243D01*
Y11141D01*
X9769Y11116D01*
X9820D01*
X9845Y11141D01*
Y11243D01*
X9693D02*
X9668Y11268D01*
X9617D01*
X9591Y11243D01*
Y11141D01*
X9617Y11116D01*
X9668D01*
X9693Y11141D01*
Y11243D01*
X12612Y12843D02*
Y12741D01*
X12562Y12691D01*
X12511Y12741D01*
Y12843D01*
X12460D02*
Y12691D01*
X12384D01*
X12358Y12716D01*
Y12818D01*
X12384Y12843D01*
X12460D01*
X12308Y12691D02*
X12257D01*
X12282D01*
Y12843D01*
X12308Y12818D01*
X12181D02*
X12155Y12843D01*
X12105D01*
X12079Y12818D01*
Y12716D01*
X12105Y12691D01*
X12155D01*
X12181Y12716D01*
Y12818D01*
X12028Y12691D02*
X11978D01*
X12003D01*
Y12843D01*
X12028Y12818D01*
X12614Y12310D02*
Y12208D01*
X12563Y12157D01*
X12512Y12208D01*
Y12310D01*
X12461D02*
Y12157D01*
X12385D01*
X12360Y12183D01*
Y12284D01*
X12385Y12310D01*
X12461D01*
X12309Y12157D02*
X12258D01*
X12284D01*
Y12310D01*
X12309Y12284D01*
X12182D02*
X12157Y12310D01*
X12106D01*
X12080Y12284D01*
Y12183D01*
X12106Y12157D01*
X12157D01*
X12182Y12183D01*
Y12284D01*
X11928Y12157D02*
X12030D01*
X11928Y12259D01*
Y12284D01*
X11953Y12310D01*
X12004D01*
X12030Y12284D01*
X12612Y11776D02*
Y11675D01*
X12561Y11624D01*
X12511Y11675D01*
Y11776D01*
X12460D02*
Y11624D01*
X12384D01*
X12358Y11649D01*
Y11751D01*
X12384Y11776D01*
X12460D01*
X12308Y11624D02*
X12257D01*
X12282D01*
Y11776D01*
X12308Y11751D01*
X12181D02*
X12155Y11776D01*
X12104D01*
X12079Y11751D01*
Y11649D01*
X12104Y11624D01*
X12155D01*
X12181Y11649D01*
Y11751D01*
X12028D02*
X12003Y11776D01*
X11952D01*
X11927Y11751D01*
Y11725D01*
X11952Y11700D01*
X11977D01*
X11952D01*
X11927Y11675D01*
Y11649D01*
X11952Y11624D01*
X12003D01*
X12028Y11649D01*
X12613Y11217D02*
Y11116D01*
X12563Y11065D01*
X12512Y11116D01*
Y11217D01*
X12461D02*
Y11065D01*
X12385D01*
X12360Y11090D01*
Y11192D01*
X12385Y11217D01*
X12461D01*
X12309Y11065D02*
X12258D01*
X12283D01*
Y11217D01*
X12309Y11192D01*
X12182D02*
X12156Y11217D01*
X12106D01*
X12080Y11192D01*
Y11090D01*
X12106Y11065D01*
X12156D01*
X12182Y11090D01*
Y11192D01*
X11953Y11065D02*
Y11217D01*
X12029Y11141D01*
X11928D01*
X10275Y15078D02*
Y14977D01*
X10225Y14926D01*
X10174Y14977D01*
Y15078D01*
X10123D02*
Y14926D01*
X10047D01*
X10021Y14951D01*
Y15053D01*
X10047Y15078D01*
X10123D01*
X9971Y14926D02*
X9920D01*
X9945D01*
Y15078D01*
X9971Y15053D01*
X9844D02*
X9818Y15078D01*
X9768D01*
X9742Y15053D01*
Y14951D01*
X9768Y14926D01*
X9818D01*
X9844Y14951D01*
Y15053D01*
X9590Y15078D02*
X9691D01*
Y15002D01*
X9641Y15027D01*
X9615D01*
X9590Y15002D01*
Y14951D01*
X9615Y14926D01*
X9666D01*
X9691Y14951D01*
X10277Y14545D02*
Y14443D01*
X10226Y14392D01*
X10175Y14443D01*
Y14545D01*
X10124D02*
Y14392D01*
X10048D01*
X10023Y14418D01*
Y14519D01*
X10048Y14545D01*
X10124D01*
X9972Y14392D02*
X9921D01*
X9946D01*
Y14545D01*
X9972Y14519D01*
X9845D02*
X9819Y14545D01*
X9769D01*
X9743Y14519D01*
Y14418D01*
X9769Y14392D01*
X9819D01*
X9845Y14418D01*
Y14519D01*
X9591Y14545D02*
X9642Y14519D01*
X9693Y14469D01*
Y14418D01*
X9667Y14392D01*
X9616D01*
X9591Y14418D01*
Y14443D01*
X9616Y14469D01*
X9693D01*
X10275Y14037D02*
Y13935D01*
X10224Y13884D01*
X10174Y13935D01*
Y14037D01*
X10123D02*
Y13884D01*
X10047D01*
X10021Y13910D01*
Y14011D01*
X10047Y14037D01*
X10123D01*
X9971Y13884D02*
X9920D01*
X9945D01*
Y14037D01*
X9971Y14011D01*
X9844D02*
X9818Y14037D01*
X9767D01*
X9742Y14011D01*
Y13910D01*
X9767Y13884D01*
X9818D01*
X9844Y13910D01*
Y14011D01*
X9691Y14037D02*
X9590D01*
Y14011D01*
X9691Y13910D01*
Y13884D01*
X10276Y13529D02*
Y13427D01*
X10226Y13376D01*
X10175Y13427D01*
Y13529D01*
X10124D02*
Y13376D01*
X10048D01*
X10023Y13402D01*
Y13503D01*
X10048Y13529D01*
X10124D01*
X9972Y13376D02*
X9921D01*
X9946D01*
Y13529D01*
X9972Y13503D01*
X9845D02*
X9819Y13529D01*
X9769D01*
X9743Y13503D01*
Y13402D01*
X9769Y13376D01*
X9819D01*
X9845Y13402D01*
Y13503D01*
X9692D02*
X9667Y13529D01*
X9616D01*
X9591Y13503D01*
Y13478D01*
X9616Y13453D01*
X9591Y13427D01*
Y13402D01*
X9616Y13376D01*
X9667D01*
X9692Y13402D01*
Y13427D01*
X9667Y13453D01*
X9692Y13478D01*
Y13503D01*
X9667Y13453D02*
X9616D01*
X12612Y15078D02*
Y14977D01*
X12561Y14926D01*
X12510Y14977D01*
Y15078D01*
X12460D02*
Y14926D01*
X12383D01*
X12358Y14951D01*
Y15053D01*
X12383Y15078D01*
X12460D01*
X12307Y14926D02*
X12256D01*
X12282D01*
Y15078D01*
X12307Y15053D01*
X12180D02*
X12155Y15078D01*
X12104D01*
X12079Y15053D01*
Y14951D01*
X12104Y14926D01*
X12155D01*
X12180Y14951D01*
Y15053D01*
X12028Y14951D02*
X12002Y14926D01*
X11952D01*
X11926Y14951D01*
Y15053D01*
X11952Y15078D01*
X12002D01*
X12028Y15053D01*
Y15027D01*
X12002Y15002D01*
X11926D01*
X12613Y14519D02*
Y14418D01*
X12562Y14367D01*
X12512Y14418D01*
Y14519D01*
X12461D02*
Y14367D01*
X12385D01*
X12359Y14392D01*
Y14494D01*
X12385Y14519D01*
X12461D01*
X12308Y14367D02*
X12258D01*
X12283D01*
Y14519D01*
X12308Y14494D01*
X12181Y14367D02*
X12131D01*
X12156D01*
Y14519D01*
X12181Y14494D01*
X12054D02*
X12029Y14519D01*
X11978D01*
X11953Y14494D01*
Y14392D01*
X11978Y14367D01*
X12029D01*
X12054Y14392D01*
Y14494D01*
X12614Y14062D02*
Y13961D01*
X12564Y13910D01*
X12513Y13961D01*
Y14062D01*
X12462D02*
Y13910D01*
X12386D01*
X12360Y13935D01*
Y14037D01*
X12386Y14062D01*
X12462D01*
X12310Y13910D02*
X12259D01*
X12284D01*
Y14062D01*
X12310Y14037D01*
X12183Y13910D02*
X12132D01*
X12157D01*
Y14062D01*
X12183Y14037D01*
X12056Y13910D02*
X12005D01*
X12030D01*
Y14062D01*
X12056Y14037D01*
X12613Y13529D02*
Y13427D01*
X12562Y13376D01*
X12511Y13427D01*
Y13529D01*
X12461D02*
Y13376D01*
X12384D01*
X12359Y13402D01*
Y13503D01*
X12384Y13529D01*
X12461D01*
X12308Y13376D02*
X12257D01*
X12283D01*
Y13529D01*
X12308Y13503D01*
X12181Y13376D02*
X12131D01*
X12156D01*
Y13529D01*
X12181Y13503D01*
X11953Y13376D02*
X12054D01*
X11953Y13478D01*
Y13503D01*
X11978Y13529D01*
X12029D01*
X12054Y13503D01*
X9566Y16424D02*
Y16323D01*
X9515Y16272D01*
X9465Y16323D01*
Y16424D01*
X9414D02*
Y16272D01*
X9338D01*
X9312Y16297D01*
Y16399D01*
X9338Y16424D01*
X9414D01*
X9261Y16272D02*
X9211D01*
X9236D01*
Y16424D01*
X9261Y16399D01*
X9135Y16272D02*
X9084D01*
X9109D01*
Y16424D01*
X9135Y16399D01*
X9008D02*
X8982Y16424D01*
X8931D01*
X8906Y16399D01*
Y16374D01*
X8931Y16348D01*
X8957D01*
X8931D01*
X8906Y16323D01*
Y16297D01*
X8931Y16272D01*
X8982D01*
X9008Y16297D01*
X10276Y16983D02*
Y16882D01*
X10225Y16831D01*
X10174Y16882D01*
Y16983D01*
X10124D02*
Y16831D01*
X10048D01*
X10022Y16856D01*
Y16958D01*
X10048Y16983D01*
X10124D01*
X9971Y16831D02*
X9921D01*
X9946D01*
Y16983D01*
X9971Y16958D01*
X9844Y16831D02*
X9794D01*
X9819D01*
Y16983D01*
X9844Y16958D01*
X9641Y16831D02*
Y16983D01*
X9717Y16907D01*
X9616D01*
X10277Y16424D02*
Y16323D01*
X10226Y16272D01*
X10176Y16323D01*
Y16424D01*
X10125D02*
Y16272D01*
X10049D01*
X10023Y16297D01*
Y16399D01*
X10049Y16424D01*
X10125D01*
X9973Y16272D02*
X9922D01*
X9947D01*
Y16424D01*
X9973Y16399D01*
X9846Y16272D02*
X9795D01*
X9820D01*
Y16424D01*
X9846Y16399D01*
X9617Y16424D02*
X9719D01*
Y16348D01*
X9668Y16374D01*
X9642D01*
X9617Y16348D01*
Y16297D01*
X9642Y16272D01*
X9693D01*
X9719Y16297D01*
X10276Y15942D02*
Y15840D01*
X10225Y15789D01*
X10174Y15840D01*
Y15942D01*
X10124D02*
Y15789D01*
X10047D01*
X10022Y15815D01*
Y15916D01*
X10047Y15942D01*
X10124D01*
X9971Y15789D02*
X9920D01*
X9946D01*
Y15942D01*
X9971Y15916D01*
X9844Y15789D02*
X9793D01*
X9819D01*
Y15942D01*
X9844Y15916D01*
X9616Y15942D02*
X9667Y15916D01*
X9717Y15866D01*
Y15815D01*
X9692Y15789D01*
X9641D01*
X9616Y15815D01*
Y15840D01*
X9641Y15866D01*
X9717D01*
X12614Y16983D02*
Y16882D01*
X12563Y16831D01*
X12512Y16882D01*
Y16983D01*
X12462D02*
Y16831D01*
X12385D01*
X12360Y16856D01*
Y16958D01*
X12385Y16983D01*
X12462D01*
X12309Y16831D02*
X12258D01*
X12284D01*
Y16983D01*
X12309Y16958D01*
X12182Y16831D02*
X12131D01*
X12157D01*
Y16983D01*
X12182Y16958D01*
X12055Y16983D02*
X11954D01*
Y16958D01*
X12055Y16856D01*
Y16831D01*
X12613Y16424D02*
Y16323D01*
X12562Y16272D01*
X12511Y16323D01*
Y16424D01*
X12460D02*
Y16272D01*
X12384D01*
X12359Y16297D01*
Y16399D01*
X12384Y16424D01*
X12460D01*
X12308Y16272D02*
X12257D01*
X12282D01*
Y16424D01*
X12308Y16399D01*
X12181Y16272D02*
X12130D01*
X12156D01*
Y16424D01*
X12181Y16399D01*
X12054D02*
X12029Y16424D01*
X11978D01*
X11952Y16399D01*
Y16374D01*
X11978Y16348D01*
X11952Y16323D01*
Y16297D01*
X11978Y16272D01*
X12029D01*
X12054Y16297D01*
Y16323D01*
X12029Y16348D01*
X12054Y16374D01*
Y16399D01*
X12029Y16348D02*
X11978D01*
X12614Y15916D02*
Y15815D01*
X12563Y15764D01*
X12512Y15815D01*
Y15916D01*
X12461D02*
Y15764D01*
X12385D01*
X12360Y15789D01*
Y15891D01*
X12385Y15916D01*
X12461D01*
X12309Y15764D02*
X12258D01*
X12284D01*
Y15916D01*
X12309Y15891D01*
X12182Y15764D02*
X12131D01*
X12157D01*
Y15916D01*
X12182Y15891D01*
X12055Y15789D02*
X12030Y15764D01*
X11979D01*
X11954Y15789D01*
Y15891D01*
X11979Y15916D01*
X12030D01*
X12055Y15891D01*
Y15866D01*
X12030Y15840D01*
X11954D01*
X13374Y15916D02*
Y15815D01*
X13324Y15764D01*
X13273Y15815D01*
Y15916D01*
X13222D02*
Y15764D01*
X13146D01*
X13121Y15789D01*
Y15891D01*
X13146Y15916D01*
X13222D01*
X13070Y15764D02*
X13019D01*
X13044D01*
Y15916D01*
X13070Y15891D01*
X12841Y15764D02*
X12943D01*
X12841Y15866D01*
Y15891D01*
X12867Y15916D01*
X12917D01*
X12943Y15891D01*
X12790D02*
X12765Y15916D01*
X12714D01*
X12689Y15891D01*
Y15789D01*
X12714Y15764D01*
X12765D01*
X12790Y15789D01*
Y15891D01*
X10277Y19752D02*
Y19650D01*
X10226Y19599D01*
X10175Y19650D01*
Y19752D01*
X10125D02*
Y19599D01*
X10048D01*
X10023Y19625D01*
Y19726D01*
X10048Y19752D01*
X10125D01*
X9972Y19599D02*
X9921D01*
X9947D01*
Y19752D01*
X9972Y19726D01*
X9744Y19599D02*
X9845D01*
X9744Y19701D01*
Y19726D01*
X9769Y19752D01*
X9820D01*
X9845Y19726D01*
X9693Y19599D02*
X9642D01*
X9667D01*
Y19752D01*
X9693Y19726D01*
X10276Y19269D02*
Y19168D01*
X10225Y19117D01*
X10174Y19168D01*
Y19269D01*
X10123D02*
Y19117D01*
X10047D01*
X10022Y19142D01*
Y19244D01*
X10047Y19269D01*
X10123D01*
X9971Y19117D02*
X9920D01*
X9945D01*
Y19269D01*
X9971Y19244D01*
X9742Y19117D02*
X9844D01*
X9742Y19218D01*
Y19244D01*
X9768Y19269D01*
X9818D01*
X9844Y19244D01*
X9590Y19117D02*
X9692D01*
X9590Y19218D01*
Y19244D01*
X9615Y19269D01*
X9666D01*
X9692Y19244D01*
X10277Y18736D02*
Y18634D01*
X10226Y18583D01*
X10175Y18634D01*
Y18736D01*
X10124D02*
Y18583D01*
X10048D01*
X10023Y18609D01*
Y18710D01*
X10048Y18736D01*
X10124D01*
X9972Y18583D02*
X9921D01*
X9947D01*
Y18736D01*
X9972Y18710D01*
X9744Y18583D02*
X9845D01*
X9744Y18685D01*
Y18710D01*
X9769Y18736D01*
X9820D01*
X9845Y18710D01*
X9693D02*
X9667Y18736D01*
X9617D01*
X9591Y18710D01*
Y18685D01*
X9617Y18660D01*
X9642D01*
X9617D01*
X9591Y18634D01*
Y18609D01*
X9617Y18583D01*
X9667D01*
X9693Y18609D01*
X10275Y18228D02*
Y18126D01*
X10225Y18075D01*
X10174Y18126D01*
Y18228D01*
X10123D02*
Y18075D01*
X10047D01*
X10021Y18101D01*
Y18202D01*
X10047Y18228D01*
X10123D01*
X9971Y18075D02*
X9920D01*
X9945D01*
Y18228D01*
X9971Y18202D01*
X9742Y18075D02*
X9844D01*
X9742Y18177D01*
Y18202D01*
X9768Y18228D01*
X9818D01*
X9844Y18202D01*
X9615Y18075D02*
Y18228D01*
X9691Y18152D01*
X9590D01*
X12613Y19269D02*
Y19168D01*
X12563Y19117D01*
X12512Y19168D01*
Y19269D01*
X12461D02*
Y19117D01*
X12385D01*
X12360Y19142D01*
Y19244D01*
X12385Y19269D01*
X12461D01*
X12309Y19117D02*
X12258D01*
X12283D01*
Y19269D01*
X12309Y19244D01*
X12080Y19117D02*
X12182D01*
X12080Y19218D01*
Y19244D01*
X12106Y19269D01*
X12156D01*
X12182Y19244D01*
X11928Y19269D02*
X12029D01*
Y19193D01*
X11979Y19218D01*
X11953D01*
X11928Y19193D01*
Y19142D01*
X11953Y19117D01*
X12004D01*
X12029Y19142D01*
X12612Y18736D02*
Y18634D01*
X12561Y18583D01*
X12511Y18634D01*
Y18736D01*
X12460D02*
Y18583D01*
X12384D01*
X12358Y18609D01*
Y18710D01*
X12384Y18736D01*
X12460D01*
X12307Y18583D02*
X12257D01*
X12282D01*
Y18736D01*
X12307Y18710D01*
X12079Y18583D02*
X12180D01*
X12079Y18685D01*
Y18710D01*
X12104Y18736D01*
X12155D01*
X12180Y18710D01*
X11927Y18736D02*
X11977Y18710D01*
X12028Y18660D01*
Y18609D01*
X12003Y18583D01*
X11952D01*
X11927Y18609D01*
Y18634D01*
X11952Y18660D01*
X12028D01*
X12613Y18202D02*
Y18101D01*
X12563Y18050D01*
X12512Y18101D01*
Y18202D01*
X12461D02*
Y18050D01*
X12385D01*
X12359Y18075D01*
Y18177D01*
X12385Y18202D01*
X12461D01*
X12309Y18050D02*
X12258D01*
X12283D01*
Y18202D01*
X12309Y18177D01*
X12080Y18050D02*
X12182D01*
X12080Y18152D01*
Y18177D01*
X12105Y18202D01*
X12156D01*
X12182Y18177D01*
X12029Y18202D02*
X11928D01*
Y18177D01*
X12029Y18075D01*
Y18050D01*
X13374Y18202D02*
Y18101D01*
X13323Y18050D01*
X13272Y18101D01*
Y18202D01*
X13222D02*
Y18050D01*
X13145D01*
X13120Y18075D01*
Y18177D01*
X13145Y18202D01*
X13222D01*
X13069Y18050D02*
X13018D01*
X13044D01*
Y18202D01*
X13069Y18177D01*
X12841Y18050D02*
X12942D01*
X12841Y18152D01*
Y18177D01*
X12866Y18202D01*
X12917D01*
X12942Y18177D01*
X12790D02*
X12765Y18202D01*
X12714D01*
X12688Y18177D01*
Y18152D01*
X12714Y18126D01*
X12688Y18101D01*
Y18075D01*
X12714Y18050D01*
X12765D01*
X12790Y18075D01*
Y18101D01*
X12765Y18126D01*
X12790Y18152D01*
Y18177D01*
X12765Y18126D02*
X12714D01*
X16804Y18761D02*
Y18660D01*
X16753Y18609D01*
X16703Y18660D01*
Y18761D01*
X16652D02*
Y18609D01*
X16576D01*
X16550Y18634D01*
Y18736D01*
X16576Y18761D01*
X16652D01*
X16499Y18609D02*
X16449D01*
X16474D01*
Y18761D01*
X16499Y18736D01*
X16271Y18609D02*
X16373D01*
X16271Y18710D01*
Y18736D01*
X16296Y18761D01*
X16347D01*
X16373Y18736D01*
X16220Y18634D02*
X16195Y18609D01*
X16144D01*
X16119Y18634D01*
Y18736D01*
X16144Y18761D01*
X16195D01*
X16220Y18736D01*
Y18710D01*
X16195Y18685D01*
X16119D01*
X17567Y18710D02*
Y18609D01*
X17517Y18558D01*
X17466Y18609D01*
Y18710D01*
X17415D02*
Y18558D01*
X17339D01*
X17313Y18583D01*
Y18685D01*
X17339Y18710D01*
X17415D01*
X17263Y18558D02*
X17212D01*
X17237D01*
Y18710D01*
X17263Y18685D01*
X17136D02*
X17110Y18710D01*
X17060D01*
X17034Y18685D01*
Y18660D01*
X17060Y18634D01*
X17085D01*
X17060D01*
X17034Y18609D01*
Y18583D01*
X17060Y18558D01*
X17110D01*
X17136Y18583D01*
X16983Y18685D02*
X16958Y18710D01*
X16907D01*
X16882Y18685D01*
Y18583D01*
X16907Y18558D01*
X16958D01*
X16983Y18583D01*
Y18685D01*
X17566Y19726D02*
Y19625D01*
X17515Y19574D01*
X17464Y19625D01*
Y19726D01*
X17414D02*
Y19574D01*
X17338D01*
X17312Y19599D01*
Y19701D01*
X17338Y19726D01*
X17414D01*
X17261Y19574D02*
X17211D01*
X17236D01*
Y19726D01*
X17261Y19701D01*
X17134D02*
X17109Y19726D01*
X17058D01*
X17033Y19701D01*
Y19676D01*
X17058Y19650D01*
X17084D01*
X17058D01*
X17033Y19625D01*
Y19599D01*
X17058Y19574D01*
X17109D01*
X17134Y19599D01*
X16982Y19574D02*
X16931D01*
X16957D01*
Y19726D01*
X16982Y19701D01*
X17567Y19193D02*
Y19091D01*
X17516Y19041D01*
X17466Y19091D01*
Y19193D01*
X17415D02*
Y19041D01*
X17339D01*
X17313Y19066D01*
Y19168D01*
X17339Y19193D01*
X17415D01*
X17263Y19041D02*
X17212D01*
X17237D01*
Y19193D01*
X17263Y19168D01*
X17136D02*
X17110Y19193D01*
X17059D01*
X17034Y19168D01*
Y19142D01*
X17059Y19117D01*
X17085D01*
X17059D01*
X17034Y19091D01*
Y19066D01*
X17059Y19041D01*
X17110D01*
X17136Y19066D01*
X16882Y19041D02*
X16983D01*
X16882Y19142D01*
Y19168D01*
X16907Y19193D01*
X16958D01*
X16983Y19168D01*
X20204Y18634D02*
Y18533D01*
X20154Y18482D01*
X20103Y18533D01*
Y18634D01*
X20052D02*
Y18482D01*
X19976D01*
X19951Y18507D01*
Y18609D01*
X19976Y18634D01*
X20052D01*
X19900Y18482D02*
X19849D01*
X19874D01*
Y18634D01*
X19900Y18609D01*
X19773D02*
X19747Y18634D01*
X19697D01*
X19671Y18609D01*
Y18583D01*
X19697Y18558D01*
X19722D01*
X19697D01*
X19671Y18533D01*
Y18507D01*
X19697Y18482D01*
X19747D01*
X19773Y18507D01*
X19620Y18609D02*
X19595Y18634D01*
X19544D01*
X19519Y18609D01*
Y18583D01*
X19544Y18558D01*
X19570D01*
X19544D01*
X19519Y18533D01*
Y18507D01*
X19544Y18482D01*
X19595D01*
X19620Y18507D01*
X20206Y19168D02*
Y19066D01*
X20155Y19015D01*
X20104Y19066D01*
Y19168D01*
X20053D02*
Y19015D01*
X19977D01*
X19952Y19041D01*
Y19142D01*
X19977Y19168D01*
X20053D01*
X19901Y19015D02*
X19850D01*
X19876D01*
Y19168D01*
X19901Y19142D01*
X19774D02*
X19749Y19168D01*
X19698D01*
X19672Y19142D01*
Y19117D01*
X19698Y19091D01*
X19723D01*
X19698D01*
X19672Y19066D01*
Y19041D01*
X19698Y19015D01*
X19749D01*
X19774Y19041D01*
X19545Y19015D02*
Y19168D01*
X19622Y19091D01*
X19520D01*
X20204Y18101D02*
Y17999D01*
X20154Y17948D01*
X20103Y17999D01*
Y18101D01*
X20052D02*
Y17948D01*
X19976D01*
X19950Y17974D01*
Y18075D01*
X19976Y18101D01*
X20052D01*
X19900Y17948D02*
X19849D01*
X19874D01*
Y18101D01*
X19900Y18075D01*
X19773D02*
X19747Y18101D01*
X19696D01*
X19671Y18075D01*
Y18050D01*
X19696Y18025D01*
X19722D01*
X19696D01*
X19671Y17999D01*
Y17974D01*
X19696Y17948D01*
X19747D01*
X19773Y17974D01*
X19519Y18101D02*
X19620D01*
Y18025D01*
X19570Y18050D01*
X19544D01*
X19519Y18025D01*
Y17974D01*
X19544Y17948D01*
X19595D01*
X19620Y17974D01*
X21021Y18634D02*
Y18533D01*
X20971Y18482D01*
X20920Y18533D01*
Y18634D01*
X20869D02*
Y18482D01*
X20793D01*
X20767Y18507D01*
Y18609D01*
X20793Y18634D01*
X20869D01*
X20717Y18482D02*
X20666D01*
X20691D01*
Y18634D01*
X20717Y18609D01*
X20590D02*
X20564Y18634D01*
X20514D01*
X20488Y18609D01*
Y18583D01*
X20514Y18558D01*
X20539D01*
X20514D01*
X20488Y18533D01*
Y18507D01*
X20514Y18482D01*
X20564D01*
X20590Y18507D01*
X20336Y18634D02*
X20387Y18609D01*
X20437Y18558D01*
Y18507D01*
X20412Y18482D01*
X20361D01*
X20336Y18507D01*
Y18533D01*
X20361Y18558D01*
X20437D01*
X17591Y17466D02*
Y17364D01*
X17540Y17313D01*
X17489Y17364D01*
Y17466D01*
X17439D02*
Y17313D01*
X17363D01*
X17337Y17339D01*
Y17440D01*
X17363Y17466D01*
X17439D01*
X17286Y17313D02*
X17236D01*
X17261D01*
Y17466D01*
X17286Y17440D01*
X17159D02*
X17134Y17466D01*
X17083D01*
X17058Y17440D01*
Y17415D01*
X17083Y17390D01*
X17109D01*
X17083D01*
X17058Y17364D01*
Y17339D01*
X17083Y17313D01*
X17134D01*
X17159Y17339D01*
X17007Y17466D02*
X16905D01*
Y17440D01*
X17007Y17339D01*
Y17313D01*
X16754Y16424D02*
Y16323D01*
X16703Y16272D01*
X16652Y16323D01*
Y16424D01*
X16602D02*
Y16272D01*
X16526D01*
X16500Y16297D01*
Y16399D01*
X16526Y16424D01*
X16602D01*
X16449Y16272D02*
X16399D01*
X16424D01*
Y16424D01*
X16449Y16399D01*
X16322D02*
X16297Y16424D01*
X16246D01*
X16221Y16399D01*
Y16374D01*
X16246Y16348D01*
X16272D01*
X16246D01*
X16221Y16323D01*
Y16297D01*
X16246Y16272D01*
X16297D01*
X16322Y16297D01*
X16170Y16399D02*
X16145Y16424D01*
X16094D01*
X16068Y16399D01*
Y16374D01*
X16094Y16348D01*
X16068Y16323D01*
Y16297D01*
X16094Y16272D01*
X16145D01*
X16170Y16297D01*
Y16323D01*
X16145Y16348D01*
X16170Y16374D01*
Y16399D01*
X16145Y16348D02*
X16094D01*
X17591Y16932D02*
Y16831D01*
X17540Y16780D01*
X17489Y16831D01*
Y16932D01*
X17439D02*
Y16780D01*
X17362D01*
X17337Y16805D01*
Y16907D01*
X17362Y16932D01*
X17439D01*
X17286Y16780D02*
X17235D01*
X17261D01*
Y16932D01*
X17286Y16907D01*
X17159D02*
X17134Y16932D01*
X17083D01*
X17058Y16907D01*
Y16882D01*
X17083Y16856D01*
X17108D01*
X17083D01*
X17058Y16831D01*
Y16805D01*
X17083Y16780D01*
X17134D01*
X17159Y16805D01*
X17007D02*
X16982Y16780D01*
X16931D01*
X16905Y16805D01*
Y16907D01*
X16931Y16932D01*
X16982D01*
X17007Y16907D01*
Y16882D01*
X16982Y16856D01*
X16905D01*
X17592Y16399D02*
Y16297D01*
X17541Y16247D01*
X17491Y16297D01*
Y16399D01*
X17440D02*
Y16247D01*
X17364D01*
X17338Y16272D01*
Y16374D01*
X17364Y16399D01*
X17440D01*
X17287Y16247D02*
X17237D01*
X17262D01*
Y16399D01*
X17287Y16374D01*
X17084Y16247D02*
Y16399D01*
X17160Y16323D01*
X17059D01*
X17008Y16374D02*
X16983Y16399D01*
X16932D01*
X16907Y16374D01*
Y16272D01*
X16932Y16247D01*
X16983D01*
X17008Y16272D01*
Y16374D01*
X20229Y16932D02*
Y16831D01*
X20179Y16780D01*
X20128Y16831D01*
Y16932D01*
X20077D02*
Y16780D01*
X20001D01*
X19975Y16805D01*
Y16907D01*
X20001Y16932D01*
X20077D01*
X19925Y16780D02*
X19874D01*
X19899D01*
Y16932D01*
X19925Y16907D01*
X19722Y16780D02*
Y16932D01*
X19798Y16856D01*
X19696D01*
X19645Y16780D02*
X19595D01*
X19620D01*
Y16932D01*
X19645Y16907D01*
X20231Y16374D02*
Y16272D01*
X20180Y16221D01*
X20129Y16272D01*
Y16374D01*
X20078D02*
Y16221D01*
X20002D01*
X19977Y16247D01*
Y16348D01*
X20002Y16374D01*
X20078D01*
X19926Y16221D02*
X19875D01*
X19900D01*
Y16374D01*
X19926Y16348D01*
X19723Y16221D02*
Y16374D01*
X19799Y16297D01*
X19697D01*
X19545Y16221D02*
X19647D01*
X19545Y16323D01*
Y16348D01*
X19570Y16374D01*
X19621D01*
X19647Y16348D01*
X20994Y16399D02*
Y16297D01*
X20943Y16247D01*
X20893Y16297D01*
Y16399D01*
X20842D02*
Y16247D01*
X20766D01*
X20740Y16272D01*
Y16374D01*
X20766Y16399D01*
X20842D01*
X20690Y16247D02*
X20639D01*
X20664D01*
Y16399D01*
X20690Y16374D01*
X20486Y16247D02*
Y16399D01*
X20563Y16323D01*
X20461D01*
X20410Y16374D02*
X20385Y16399D01*
X20334D01*
X20309Y16374D01*
Y16348D01*
X20334Y16323D01*
X20359D01*
X20334D01*
X20309Y16297D01*
Y16272D01*
X20334Y16247D01*
X20385D01*
X20410Y16272D01*
X20230Y15916D02*
Y15815D01*
X20180Y15764D01*
X20129Y15815D01*
Y15916D01*
X20078D02*
Y15764D01*
X20002D01*
X19977Y15789D01*
Y15891D01*
X20002Y15916D01*
X20078D01*
X19926Y15764D02*
X19875D01*
X19900D01*
Y15916D01*
X19926Y15891D01*
X19723Y15764D02*
Y15916D01*
X19799Y15840D01*
X19697D01*
X19570Y15764D02*
Y15916D01*
X19646Y15840D01*
X19545D01*
X17565Y15053D02*
Y14951D01*
X17514Y14900D01*
X17464Y14951D01*
Y15053D01*
X17413D02*
Y14900D01*
X17337D01*
X17311Y14926D01*
Y15027D01*
X17337Y15053D01*
X17413D01*
X17260Y14900D02*
X17210D01*
X17235D01*
Y15053D01*
X17260Y15027D01*
X17057Y14900D02*
Y15053D01*
X17133Y14977D01*
X17032D01*
X16880Y15053D02*
X16981D01*
Y14977D01*
X16930Y15002D01*
X16905D01*
X16880Y14977D01*
Y14926D01*
X16905Y14900D01*
X16956D01*
X16981Y14926D01*
X17358Y14589D02*
Y14488D01*
X17307Y14437D01*
X17256Y14488D01*
Y14589D01*
X17206D02*
Y14437D01*
X17129D01*
X17104Y14462D01*
Y14564D01*
X17129Y14589D01*
X17206D01*
X17053Y14437D02*
X17002D01*
X17028D01*
Y14589D01*
X17053Y14564D01*
X16850Y14437D02*
Y14589D01*
X16926Y14513D01*
X16825D01*
X16672Y14589D02*
X16723Y14564D01*
X16774Y14513D01*
Y14462D01*
X16749Y14437D01*
X16698D01*
X16672Y14462D01*
Y14488D01*
X16698Y14513D01*
X16774D01*
X17376Y14056D02*
Y13954D01*
X17325Y13904D01*
X17274Y13954D01*
Y14056D01*
X17223D02*
Y13904D01*
X17147D01*
X17122Y13929D01*
Y14031D01*
X17147Y14056D01*
X17223D01*
X17071Y13904D02*
X17020D01*
X17046D01*
Y14056D01*
X17071Y14031D01*
X16868Y13904D02*
Y14056D01*
X16944Y13980D01*
X16843D01*
X16792Y14056D02*
X16690D01*
Y14031D01*
X16792Y13929D01*
Y13904D01*
X17566Y13554D02*
Y13453D01*
X17515Y13402D01*
X17465Y13453D01*
Y13554D01*
X17414D02*
Y13402D01*
X17338D01*
X17312Y13427D01*
Y13529D01*
X17338Y13554D01*
X17414D01*
X17262Y13402D02*
X17211D01*
X17236D01*
Y13554D01*
X17262Y13529D01*
X17058Y13402D02*
Y13554D01*
X17135Y13478D01*
X17033D01*
X16982Y13529D02*
X16957Y13554D01*
X16906D01*
X16881Y13529D01*
Y13503D01*
X16906Y13478D01*
X16881Y13453D01*
Y13427D01*
X16906Y13402D01*
X16957D01*
X16982Y13427D01*
Y13453D01*
X16957Y13478D01*
X16982Y13503D01*
Y13529D01*
X16957Y13478D02*
X16906D01*
X20229Y15104D02*
Y15002D01*
X20178Y14951D01*
X20127Y15002D01*
Y15104D01*
X20076D02*
Y14951D01*
X20000D01*
X19975Y14977D01*
Y15078D01*
X20000Y15104D01*
X20076D01*
X19924Y14951D02*
X19873D01*
X19899D01*
Y15104D01*
X19924Y15078D01*
X19721Y14951D02*
Y15104D01*
X19797Y15027D01*
X19696D01*
X19645Y14977D02*
X19619Y14951D01*
X19569D01*
X19543Y14977D01*
Y15078D01*
X19569Y15104D01*
X19619D01*
X19645Y15078D01*
Y15053D01*
X19619Y15027D01*
X19543D01*
X20230Y14570D02*
Y14469D01*
X20179Y14418D01*
X20128Y14469D01*
Y14570D01*
X20078D02*
Y14418D01*
X20002D01*
X19976Y14443D01*
Y14545D01*
X20002Y14570D01*
X20078D01*
X19925Y14418D02*
X19875D01*
X19900D01*
Y14570D01*
X19925Y14545D01*
X19697Y14570D02*
X19798D01*
Y14494D01*
X19748Y14519D01*
X19722D01*
X19697Y14494D01*
Y14443D01*
X19722Y14418D01*
X19773D01*
X19798Y14443D01*
X19646Y14545D02*
X19621Y14570D01*
X19570D01*
X19544Y14545D01*
Y14443D01*
X19570Y14418D01*
X19621D01*
X19646Y14443D01*
Y14545D01*
X20231Y14037D02*
Y13935D01*
X20180Y13884D01*
X20130Y13935D01*
Y14037D01*
X20079D02*
Y13884D01*
X20003D01*
X19977Y13910D01*
Y14011D01*
X20003Y14037D01*
X20079D01*
X19927Y13884D02*
X19876D01*
X19901D01*
Y14037D01*
X19927Y14011D01*
X19698Y14037D02*
X19800D01*
Y13961D01*
X19749Y13986D01*
X19723D01*
X19698Y13961D01*
Y13910D01*
X19723Y13884D01*
X19774D01*
X19800Y13910D01*
X19647Y13884D02*
X19596D01*
X19622D01*
Y14037D01*
X19647Y14011D01*
X20230Y13554D02*
Y13453D01*
X20179Y13402D01*
X20128Y13453D01*
Y13554D01*
X20078D02*
Y13402D01*
X20001D01*
X19976Y13427D01*
Y13529D01*
X20001Y13554D01*
X20078D01*
X19925Y13402D02*
X19874D01*
X19900D01*
Y13554D01*
X19925Y13529D01*
X19697Y13554D02*
X19798D01*
Y13478D01*
X19747Y13503D01*
X19722D01*
X19697Y13478D01*
Y13427D01*
X19722Y13402D01*
X19773D01*
X19798Y13427D01*
X19544Y13402D02*
X19646D01*
X19544Y13503D01*
Y13529D01*
X19570Y13554D01*
X19621D01*
X19646Y13529D01*
X17593Y12716D02*
Y12614D01*
X17542Y12564D01*
X17491Y12614D01*
Y12716D01*
X17440D02*
Y12564D01*
X17364D01*
X17339Y12589D01*
Y12691D01*
X17364Y12716D01*
X17440D01*
X17288Y12564D02*
X17237D01*
X17262D01*
Y12716D01*
X17288Y12691D01*
X17059Y12716D02*
X17161D01*
Y12640D01*
X17110Y12665D01*
X17085D01*
X17059Y12640D01*
Y12589D01*
X17085Y12564D01*
X17136D01*
X17161Y12589D01*
X17009Y12691D02*
X16983Y12716D01*
X16932D01*
X16907Y12691D01*
Y12665D01*
X16932Y12640D01*
X16958D01*
X16932D01*
X16907Y12614D01*
Y12589D01*
X16932Y12564D01*
X16983D01*
X17009Y12589D01*
X17591Y12233D02*
Y12132D01*
X17540Y12081D01*
X17490Y12132D01*
Y12233D01*
X17439D02*
Y12081D01*
X17363D01*
X17337Y12106D01*
Y12208D01*
X17363Y12233D01*
X17439D01*
X17287Y12081D02*
X17236D01*
X17261D01*
Y12233D01*
X17287Y12208D01*
X17058Y12233D02*
X17160D01*
Y12157D01*
X17109Y12183D01*
X17083D01*
X17058Y12157D01*
Y12106D01*
X17083Y12081D01*
X17134D01*
X17160Y12106D01*
X16931Y12081D02*
Y12233D01*
X17007Y12157D01*
X16906D01*
X17592Y11700D02*
Y11598D01*
X17542Y11548D01*
X17491Y11598D01*
Y11700D01*
X17440D02*
Y11548D01*
X17364D01*
X17339Y11573D01*
Y11675D01*
X17364Y11700D01*
X17440D01*
X17288Y11548D02*
X17237D01*
X17262D01*
Y11700D01*
X17288Y11675D01*
X17059Y11700D02*
X17161D01*
Y11624D01*
X17110Y11649D01*
X17085D01*
X17059Y11624D01*
Y11573D01*
X17085Y11548D01*
X17135D01*
X17161Y11573D01*
X16907Y11700D02*
X17008D01*
Y11624D01*
X16958Y11649D01*
X16932D01*
X16907Y11624D01*
Y11573D01*
X16932Y11548D01*
X16983D01*
X17008Y11573D01*
X17591Y11217D02*
Y11116D01*
X17540Y11065D01*
X17490Y11116D01*
Y11217D01*
X17439D02*
Y11065D01*
X17363D01*
X17337Y11090D01*
Y11192D01*
X17363Y11217D01*
X17439D01*
X17286Y11065D02*
X17236D01*
X17261D01*
Y11217D01*
X17286Y11192D01*
X17058Y11217D02*
X17159D01*
Y11141D01*
X17109Y11167D01*
X17083D01*
X17058Y11141D01*
Y11090D01*
X17083Y11065D01*
X17134D01*
X17159Y11090D01*
X16906Y11217D02*
X16956Y11192D01*
X17007Y11141D01*
Y11090D01*
X16982Y11065D01*
X16931D01*
X16906Y11090D01*
Y11116D01*
X16931Y11141D01*
X17007D01*
X20231Y11827D02*
Y11725D01*
X20180Y11675D01*
X20129Y11725D01*
Y11827D01*
X20078D02*
Y11675D01*
X20002D01*
X19977Y11700D01*
Y11802D01*
X20002Y11827D01*
X20078D01*
X19926Y11675D02*
X19875D01*
X19901D01*
Y11827D01*
X19926Y11802D01*
X19698Y11827D02*
X19799D01*
Y11751D01*
X19748Y11776D01*
X19723D01*
X19698Y11751D01*
Y11700D01*
X19723Y11675D01*
X19774D01*
X19799Y11700D01*
X19647D02*
X19621Y11675D01*
X19571D01*
X19545Y11700D01*
Y11802D01*
X19571Y11827D01*
X19621D01*
X19647Y11802D01*
Y11776D01*
X19621Y11751D01*
X19545D01*
X20229Y11319D02*
Y11217D01*
X20179Y11167D01*
X20128Y11217D01*
Y11319D01*
X20077D02*
Y11167D01*
X20001D01*
X19975Y11192D01*
Y11294D01*
X20001Y11319D01*
X20077D01*
X19925Y11167D02*
X19874D01*
X19899D01*
Y11319D01*
X19925Y11294D01*
X19696Y11319D02*
X19747Y11294D01*
X19798Y11243D01*
Y11192D01*
X19772Y11167D01*
X19722D01*
X19696Y11192D01*
Y11217D01*
X19722Y11243D01*
X19798D01*
X19645Y11294D02*
X19620Y11319D01*
X19569D01*
X19544Y11294D01*
Y11192D01*
X19569Y11167D01*
X19620D01*
X19645Y11192D01*
Y11294D01*
X17567Y10532D02*
Y10430D01*
X17516Y10379D01*
X17465Y10430D01*
Y10532D01*
X17414D02*
Y10379D01*
X17338D01*
X17313Y10405D01*
Y10506D01*
X17338Y10532D01*
X17414D01*
X17262Y10379D02*
X17211D01*
X17237D01*
Y10532D01*
X17262Y10506D01*
X17033Y10532D02*
X17084Y10506D01*
X17135Y10455D01*
Y10405D01*
X17110Y10379D01*
X17059D01*
X17033Y10405D01*
Y10430D01*
X17059Y10455D01*
X17135D01*
X16983Y10379D02*
X16932D01*
X16957D01*
Y10532D01*
X16983Y10506D01*
X17565Y10024D02*
Y9922D01*
X17515Y9871D01*
X17464Y9922D01*
Y10024D01*
X17413D02*
Y9871D01*
X17337D01*
X17311Y9897D01*
Y9998D01*
X17337Y10024D01*
X17413D01*
X17261Y9871D02*
X17210D01*
X17235D01*
Y10024D01*
X17261Y9998D01*
X17032Y10024D02*
X17083Y9998D01*
X17134Y9947D01*
Y9897D01*
X17108Y9871D01*
X17058D01*
X17032Y9897D01*
Y9922D01*
X17058Y9947D01*
X17134D01*
X16880Y9871D02*
X16981D01*
X16880Y9973D01*
Y9998D01*
X16905Y10024D01*
X16956D01*
X16981Y9998D01*
X17567Y9465D02*
Y9363D01*
X17516Y9312D01*
X17465Y9363D01*
Y9465D01*
X17414D02*
Y9312D01*
X17338D01*
X17313Y9338D01*
Y9439D01*
X17338Y9465D01*
X17414D01*
X17262Y9312D02*
X17211D01*
X17236D01*
Y9465D01*
X17262Y9439D01*
X17033Y9465D02*
X17084Y9439D01*
X17135Y9389D01*
Y9338D01*
X17110Y9312D01*
X17059D01*
X17033Y9338D01*
Y9363D01*
X17059Y9389D01*
X17135D01*
X16983Y9439D02*
X16957Y9465D01*
X16906D01*
X16881Y9439D01*
Y9414D01*
X16906Y9389D01*
X16932D01*
X16906D01*
X16881Y9363D01*
Y9338D01*
X16906Y9312D01*
X16957D01*
X16983Y9338D01*
X17565Y8957D02*
Y8855D01*
X17514Y8804D01*
X17464Y8855D01*
Y8957D01*
X17413D02*
Y8804D01*
X17337D01*
X17311Y8830D01*
Y8931D01*
X17337Y8957D01*
X17413D01*
X17261Y8804D02*
X17210D01*
X17235D01*
Y8957D01*
X17261Y8931D01*
X17032Y8957D02*
X17083Y8931D01*
X17134Y8881D01*
Y8830D01*
X17108Y8804D01*
X17057D01*
X17032Y8830D01*
Y8855D01*
X17057Y8881D01*
X17134D01*
X16905Y8804D02*
Y8957D01*
X16981Y8881D01*
X16880D01*
X20230Y10659D02*
Y10557D01*
X20180Y10506D01*
X20129Y10557D01*
Y10659D01*
X20078D02*
Y10506D01*
X20002D01*
X19976Y10532D01*
Y10633D01*
X20002Y10659D01*
X20078D01*
X19926Y10506D02*
X19875D01*
X19900D01*
Y10659D01*
X19926Y10633D01*
X19697Y10659D02*
X19748Y10633D01*
X19799Y10582D01*
Y10532D01*
X19773Y10506D01*
X19723D01*
X19697Y10532D01*
Y10557D01*
X19723Y10582D01*
X19799D01*
X19545Y10659D02*
X19646D01*
Y10582D01*
X19596Y10608D01*
X19570D01*
X19545Y10582D01*
Y10532D01*
X19570Y10506D01*
X19621D01*
X19646Y10532D01*
X20229Y10125D02*
Y10024D01*
X20178Y9973D01*
X20127Y10024D01*
Y10125D01*
X20077D02*
Y9973D01*
X20001D01*
X19975Y9998D01*
Y10100D01*
X20001Y10125D01*
X20077D01*
X19924Y9973D02*
X19874D01*
X19899D01*
Y10125D01*
X19924Y10100D01*
X19696Y10125D02*
X19747Y10100D01*
X19797Y10049D01*
Y9998D01*
X19772Y9973D01*
X19721D01*
X19696Y9998D01*
Y10024D01*
X19721Y10049D01*
X19797D01*
X19543Y10125D02*
X19594Y10100D01*
X19645Y10049D01*
Y9998D01*
X19620Y9973D01*
X19569D01*
X19543Y9998D01*
Y10024D01*
X19569Y10049D01*
X19645D01*
X20230Y9592D02*
Y9490D01*
X20179Y9439D01*
X20129Y9490D01*
Y9592D01*
X20078D02*
Y9439D01*
X20002D01*
X19976Y9465D01*
Y9566D01*
X20002Y9592D01*
X20078D01*
X19926Y9439D02*
X19875D01*
X19900D01*
Y9592D01*
X19926Y9566D01*
X19697Y9592D02*
X19748Y9566D01*
X19799Y9516D01*
Y9465D01*
X19773Y9439D01*
X19722D01*
X19697Y9465D01*
Y9490D01*
X19722Y9516D01*
X19799D01*
X19646Y9592D02*
X19545D01*
Y9566D01*
X19646Y9465D01*
Y9439D01*
X20229Y9084D02*
Y8982D01*
X20178Y8931D01*
X20127Y8982D01*
Y9084D01*
X20077D02*
Y8931D01*
X20000D01*
X19975Y8957D01*
Y9058D01*
X20000Y9084D01*
X20077D01*
X19924Y8931D02*
X19873D01*
X19899D01*
Y9084D01*
X19924Y9058D01*
X19696Y9084D02*
X19746Y9058D01*
X19797Y9008D01*
Y8957D01*
X19772Y8931D01*
X19721D01*
X19696Y8957D01*
Y8982D01*
X19721Y9008D01*
X19797D01*
X19645Y9058D02*
X19620Y9084D01*
X19569D01*
X19543Y9058D01*
Y9033D01*
X19569Y9008D01*
X19543Y8982D01*
Y8957D01*
X19569Y8931D01*
X19620D01*
X19645Y8957D01*
Y8982D01*
X19620Y9008D01*
X19645Y9033D01*
Y9058D01*
X19620Y9008D02*
X19569D01*
X17566Y8262D02*
Y8161D01*
X17515Y8110D01*
X17465Y8161D01*
Y8262D01*
X17414D02*
Y8110D01*
X17338D01*
X17312Y8135D01*
Y8237D01*
X17338Y8262D01*
X17414D01*
X17261Y8110D02*
X17211D01*
X17236D01*
Y8262D01*
X17261Y8237D01*
X17033Y8262D02*
X17084Y8237D01*
X17135Y8186D01*
Y8135D01*
X17109Y8110D01*
X17058D01*
X17033Y8135D01*
Y8161D01*
X17058Y8186D01*
X17135D01*
X16982Y8135D02*
X16957Y8110D01*
X16906D01*
X16881Y8135D01*
Y8237D01*
X16906Y8262D01*
X16957D01*
X16982Y8237D01*
Y8211D01*
X16957Y8186D01*
X16881D01*
X17567Y7703D02*
Y7602D01*
X17517Y7551D01*
X17466Y7602D01*
Y7703D01*
X17415D02*
Y7551D01*
X17339D01*
X17313Y7576D01*
Y7678D01*
X17339Y7703D01*
X17415D01*
X17263Y7551D02*
X17212D01*
X17237D01*
Y7703D01*
X17263Y7678D01*
X17136Y7703D02*
X17034D01*
Y7678D01*
X17136Y7576D01*
Y7551D01*
X16983Y7678D02*
X16958Y7703D01*
X16907D01*
X16882Y7678D01*
Y7576D01*
X16907Y7551D01*
X16958D01*
X16983Y7576D01*
Y7678D01*
X17566Y7195D02*
Y7094D01*
X17515Y7043D01*
X17464Y7094D01*
Y7195D01*
X17414D02*
Y7043D01*
X17338D01*
X17312Y7068D01*
Y7170D01*
X17338Y7195D01*
X17414D01*
X17261Y7043D02*
X17211D01*
X17236D01*
Y7195D01*
X17261Y7170D01*
X17134Y7195D02*
X17033D01*
Y7170D01*
X17134Y7068D01*
Y7043D01*
X16982D02*
X16931D01*
X16957D01*
Y7195D01*
X16982Y7170D01*
X17567Y6687D02*
Y6586D01*
X17516Y6535D01*
X17466Y6586D01*
Y6687D01*
X17415D02*
Y6535D01*
X17339D01*
X17313Y6560D01*
Y6662D01*
X17339Y6687D01*
X17415D01*
X17263Y6535D02*
X17212D01*
X17237D01*
Y6687D01*
X17263Y6662D01*
X17136Y6687D02*
X17034D01*
Y6662D01*
X17136Y6560D01*
Y6535D01*
X16882D02*
X16983D01*
X16882Y6637D01*
Y6662D01*
X16907Y6687D01*
X16958D01*
X16983Y6662D01*
X20230Y8288D02*
Y8186D01*
X20179Y8135D01*
X20128Y8186D01*
Y8288D01*
X20078D02*
Y8135D01*
X20001D01*
X19976Y8161D01*
Y8262D01*
X20001Y8288D01*
X20078D01*
X19925Y8135D02*
X19874D01*
X19900D01*
Y8288D01*
X19925Y8262D01*
X19798Y8288D02*
X19697D01*
Y8262D01*
X19798Y8161D01*
Y8135D01*
X19646Y8262D02*
X19620Y8288D01*
X19570D01*
X19544Y8262D01*
Y8237D01*
X19570Y8211D01*
X19595D01*
X19570D01*
X19544Y8186D01*
Y8161D01*
X19570Y8135D01*
X19620D01*
X19646Y8161D01*
X20231Y7780D02*
Y7678D01*
X20180Y7627D01*
X20129Y7678D01*
Y7780D01*
X20079D02*
Y7627D01*
X20003D01*
X19977Y7653D01*
Y7754D01*
X20003Y7780D01*
X20079D01*
X19926Y7627D02*
X19876D01*
X19901D01*
Y7780D01*
X19926Y7754D01*
X19799Y7780D02*
X19698D01*
Y7754D01*
X19799Y7653D01*
Y7627D01*
X19571D02*
Y7780D01*
X19647Y7703D01*
X19545D01*
X20230Y7246D02*
Y7145D01*
X20179Y7094D01*
X20128Y7145D01*
Y7246D01*
X20077D02*
Y7094D01*
X20001D01*
X19976Y7119D01*
Y7221D01*
X20001Y7246D01*
X20077D01*
X19925Y7094D02*
X19874D01*
X19900D01*
Y7246D01*
X19925Y7221D01*
X19798Y7246D02*
X19697D01*
Y7221D01*
X19798Y7119D01*
Y7094D01*
X19544Y7246D02*
X19646D01*
Y7170D01*
X19595Y7195D01*
X19570D01*
X19544Y7170D01*
Y7119D01*
X19570Y7094D01*
X19620D01*
X19646Y7119D01*
X20231Y6738D02*
Y6637D01*
X20180Y6586D01*
X20129Y6637D01*
Y6738D01*
X20079D02*
Y6586D01*
X20002D01*
X19977Y6611D01*
Y6713D01*
X20002Y6738D01*
X20079D01*
X19926Y6586D02*
X19875D01*
X19901D01*
Y6738D01*
X19926Y6713D01*
X19799Y6738D02*
X19698D01*
Y6713D01*
X19799Y6611D01*
Y6586D01*
X19545Y6738D02*
X19596Y6713D01*
X19647Y6662D01*
Y6611D01*
X19622Y6586D01*
X19571D01*
X19545Y6611D01*
Y6637D01*
X19571Y6662D01*
X19647D01*
X17566Y5976D02*
Y5875D01*
X17515Y5824D01*
X17464Y5875D01*
Y5976D01*
X17413D02*
Y5824D01*
X17337D01*
X17312Y5849D01*
Y5951D01*
X17337Y5976D01*
X17413D01*
X17261Y5824D02*
X17210D01*
X17236D01*
Y5976D01*
X17261Y5951D01*
X17134Y5976D02*
X17032D01*
Y5951D01*
X17134Y5849D01*
Y5824D01*
X16982Y5976D02*
X16880D01*
Y5951D01*
X16982Y5849D01*
Y5824D01*
X17567Y5417D02*
Y5316D01*
X17516Y5265D01*
X17465Y5316D01*
Y5417D01*
X17415D02*
Y5265D01*
X17338D01*
X17313Y5290D01*
Y5392D01*
X17338Y5417D01*
X17415D01*
X17262Y5265D02*
X17211D01*
X17237D01*
Y5417D01*
X17262Y5392D01*
X17135Y5417D02*
X17034D01*
Y5392D01*
X17135Y5290D01*
Y5265D01*
X16983Y5392D02*
X16957Y5417D01*
X16907D01*
X16881Y5392D01*
Y5367D01*
X16907Y5341D01*
X16881Y5316D01*
Y5290D01*
X16907Y5265D01*
X16957D01*
X16983Y5290D01*
Y5316D01*
X16957Y5341D01*
X16983Y5367D01*
Y5392D01*
X16957Y5341D02*
X16907D01*
X17566Y4909D02*
Y4808D01*
X17515Y4757D01*
X17464Y4808D01*
Y4909D01*
X17413D02*
Y4757D01*
X17337D01*
X17312Y4782D01*
Y4884D01*
X17337Y4909D01*
X17413D01*
X17261Y4757D02*
X17210D01*
X17235D01*
Y4909D01*
X17261Y4884D01*
X17134Y4909D02*
X17032D01*
Y4884D01*
X17134Y4782D01*
Y4757D01*
X16982Y4782D02*
X16956Y4757D01*
X16905D01*
X16880Y4782D01*
Y4884D01*
X16905Y4909D01*
X16956D01*
X16982Y4884D01*
Y4859D01*
X16956Y4833D01*
X16880D01*
X17567Y4401D02*
Y4300D01*
X17516Y4249D01*
X17465Y4300D01*
Y4401D01*
X17414D02*
Y4249D01*
X17338D01*
X17313Y4274D01*
Y4376D01*
X17338Y4401D01*
X17414D01*
X17262Y4249D02*
X17211D01*
X17237D01*
Y4401D01*
X17262Y4376D01*
X17135D02*
X17110Y4401D01*
X17059D01*
X17034Y4376D01*
Y4351D01*
X17059Y4325D01*
X17034Y4300D01*
Y4274D01*
X17059Y4249D01*
X17110D01*
X17135Y4274D01*
Y4300D01*
X17110Y4325D01*
X17135Y4351D01*
Y4376D01*
X17110Y4325D02*
X17059D01*
X16983Y4376D02*
X16957Y4401D01*
X16907D01*
X16881Y4376D01*
Y4274D01*
X16907Y4249D01*
X16957D01*
X16983Y4274D01*
Y4376D01*
X20229Y6002D02*
Y5900D01*
X20179Y5849D01*
X20128Y5900D01*
Y6002D01*
X20077D02*
Y5849D01*
X20001D01*
X19975Y5875D01*
Y5976D01*
X20001Y6002D01*
X20077D01*
X19925Y5849D02*
X19874D01*
X19899D01*
Y6002D01*
X19925Y5976D01*
X19798D02*
X19772Y6002D01*
X19722D01*
X19696Y5976D01*
Y5951D01*
X19722Y5925D01*
X19696Y5900D01*
Y5875D01*
X19722Y5849D01*
X19772D01*
X19798Y5875D01*
Y5900D01*
X19772Y5925D01*
X19798Y5951D01*
Y5976D01*
X19772Y5925D02*
X19722D01*
X19645Y5849D02*
X19595D01*
X19620D01*
Y6002D01*
X19645Y5976D01*
X20231Y5494D02*
Y5392D01*
X20180Y5341D01*
X20129Y5392D01*
Y5494D01*
X20078D02*
Y5341D01*
X20002D01*
X19977Y5367D01*
Y5468D01*
X20002Y5494D01*
X20078D01*
X19926Y5341D02*
X19875D01*
X19900D01*
Y5494D01*
X19926Y5468D01*
X19799D02*
X19774Y5494D01*
X19723D01*
X19697Y5468D01*
Y5443D01*
X19723Y5417D01*
X19697Y5392D01*
Y5367D01*
X19723Y5341D01*
X19774D01*
X19799Y5367D01*
Y5392D01*
X19774Y5417D01*
X19799Y5443D01*
Y5468D01*
X19774Y5417D02*
X19723D01*
X19545Y5341D02*
X19647D01*
X19545Y5443D01*
Y5468D01*
X19570Y5494D01*
X19621D01*
X19647Y5468D01*
X20229Y4960D02*
Y4859D01*
X20178Y4808D01*
X20128Y4859D01*
Y4960D01*
X20077D02*
Y4808D01*
X20001D01*
X19975Y4833D01*
Y4935D01*
X20001Y4960D01*
X20077D01*
X19925Y4808D02*
X19874D01*
X19899D01*
Y4960D01*
X19925Y4935D01*
X19798D02*
X19772Y4960D01*
X19721D01*
X19696Y4935D01*
Y4909D01*
X19721Y4884D01*
X19696Y4859D01*
Y4833D01*
X19721Y4808D01*
X19772D01*
X19798Y4833D01*
Y4859D01*
X19772Y4884D01*
X19798Y4909D01*
Y4935D01*
X19772Y4884D02*
X19721D01*
X19645Y4935D02*
X19620Y4960D01*
X19569D01*
X19544Y4935D01*
Y4909D01*
X19569Y4884D01*
X19594D01*
X19569D01*
X19544Y4859D01*
Y4833D01*
X19569Y4808D01*
X19620D01*
X19645Y4833D01*
X20230Y4452D02*
Y4351D01*
X20180Y4300D01*
X20129Y4351D01*
Y4452D01*
X20078D02*
Y4300D01*
X20002D01*
X19977Y4325D01*
Y4427D01*
X20002Y4452D01*
X20078D01*
X19926Y4300D02*
X19875D01*
X19900D01*
Y4452D01*
X19926Y4427D01*
X19799D02*
X19773Y4452D01*
X19723D01*
X19697Y4427D01*
Y4401D01*
X19723Y4376D01*
X19697Y4351D01*
Y4325D01*
X19723Y4300D01*
X19773D01*
X19799Y4325D01*
Y4351D01*
X19773Y4376D01*
X19799Y4401D01*
Y4427D01*
X19773Y4376D02*
X19723D01*
X19570Y4300D02*
Y4452D01*
X19646Y4376D01*
X19545D01*
X17565Y3690D02*
Y3589D01*
X17514Y3538D01*
X17464Y3589D01*
Y3690D01*
X17413D02*
Y3538D01*
X17337D01*
X17311Y3563D01*
Y3665D01*
X17337Y3690D01*
X17413D01*
X17260Y3538D02*
X17210D01*
X17235D01*
Y3690D01*
X17260Y3665D01*
X17134D02*
X17108Y3690D01*
X17057D01*
X17032Y3665D01*
Y3639D01*
X17057Y3614D01*
X17032Y3589D01*
Y3563D01*
X17057Y3538D01*
X17108D01*
X17134Y3563D01*
Y3589D01*
X17108Y3614D01*
X17134Y3639D01*
Y3665D01*
X17108Y3614D02*
X17057D01*
X16880Y3690D02*
X16981D01*
Y3614D01*
X16930Y3639D01*
X16905D01*
X16880Y3614D01*
Y3563D01*
X16905Y3538D01*
X16956D01*
X16981Y3563D01*
X17566Y3131D02*
Y3030D01*
X17516Y2979D01*
X17465Y3030D01*
Y3131D01*
X17414D02*
Y2979D01*
X17338D01*
X17312Y3004D01*
Y3106D01*
X17338Y3131D01*
X17414D01*
X17262Y2979D02*
X17211D01*
X17236D01*
Y3131D01*
X17262Y3106D01*
X17135D02*
X17109Y3131D01*
X17059D01*
X17033Y3106D01*
Y3081D01*
X17059Y3055D01*
X17033Y3030D01*
Y3004D01*
X17059Y2979D01*
X17109D01*
X17135Y3004D01*
Y3030D01*
X17109Y3055D01*
X17135Y3081D01*
Y3106D01*
X17109Y3055D02*
X17059D01*
X16881Y3131D02*
X16932Y3106D01*
X16982Y3055D01*
Y3004D01*
X16957Y2979D01*
X16906D01*
X16881Y3004D01*
Y3030D01*
X16906Y3055D01*
X16982D01*
X17565Y2623D02*
Y2522D01*
X17514Y2471D01*
X17463Y2522D01*
Y2623D01*
X17413D02*
Y2471D01*
X17337D01*
X17311Y2496D01*
Y2598D01*
X17337Y2623D01*
X17413D01*
X17260Y2471D02*
X17210D01*
X17235D01*
Y2623D01*
X17260Y2598D01*
X17133D02*
X17108Y2623D01*
X17057D01*
X17032Y2598D01*
Y2573D01*
X17057Y2547D01*
X17032Y2522D01*
Y2496D01*
X17057Y2471D01*
X17108D01*
X17133Y2496D01*
Y2522D01*
X17108Y2547D01*
X17133Y2573D01*
Y2598D01*
X17108Y2547D02*
X17057D01*
X16981Y2623D02*
X16879D01*
Y2598D01*
X16981Y2496D01*
Y2471D01*
X17566Y2115D02*
Y2014D01*
X17515Y1963D01*
X17465Y2014D01*
Y2115D01*
X17414D02*
Y1963D01*
X17338D01*
X17312Y1988D01*
Y2090D01*
X17338Y2115D01*
X17414D01*
X17262Y1963D02*
X17211D01*
X17236D01*
Y2115D01*
X17262Y2090D01*
X17135D02*
X17109Y2115D01*
X17058D01*
X17033Y2090D01*
Y2065D01*
X17058Y2039D01*
X17033Y2014D01*
Y1988D01*
X17058Y1963D01*
X17109D01*
X17135Y1988D01*
Y2014D01*
X17109Y2039D01*
X17135Y2065D01*
Y2090D01*
X17109Y2039D02*
X17058D01*
X16982Y2090D02*
X16957Y2115D01*
X16906D01*
X16881Y2090D01*
Y2065D01*
X16906Y2039D01*
X16881Y2014D01*
Y1988D01*
X16906Y1963D01*
X16957D01*
X16982Y1988D01*
Y2014D01*
X16957Y2039D01*
X16982Y2065D01*
Y2090D01*
X16957Y2039D02*
X16906D01*
X20229Y3589D02*
Y3487D01*
X20178Y3436D01*
X20127Y3487D01*
Y3589D01*
X20077D02*
Y3436D01*
X20000D01*
X19975Y3462D01*
Y3563D01*
X20000Y3589D01*
X20077D01*
X19924Y3436D02*
X19873D01*
X19899D01*
Y3589D01*
X19924Y3563D01*
X19797D02*
X19772Y3589D01*
X19721D01*
X19696Y3563D01*
Y3538D01*
X19721Y3512D01*
X19696Y3487D01*
Y3462D01*
X19721Y3436D01*
X19772D01*
X19797Y3462D01*
Y3487D01*
X19772Y3512D01*
X19797Y3538D01*
Y3563D01*
X19772Y3512D02*
X19721D01*
X19645Y3462D02*
X19619Y3436D01*
X19569D01*
X19543Y3462D01*
Y3563D01*
X19569Y3589D01*
X19619D01*
X19645Y3563D01*
Y3538D01*
X19619Y3512D01*
X19543D01*
X20230Y3081D02*
Y2979D01*
X20179Y2928D01*
X20128Y2979D01*
Y3081D01*
X20078D02*
Y2928D01*
X20002D01*
X19976Y2954D01*
Y3055D01*
X20002Y3081D01*
X20078D01*
X19925Y2928D02*
X19875D01*
X19900D01*
Y3081D01*
X19925Y3055D01*
X19798Y2954D02*
X19773Y2928D01*
X19722D01*
X19697Y2954D01*
Y3055D01*
X19722Y3081D01*
X19773D01*
X19798Y3055D01*
Y3030D01*
X19773Y3004D01*
X19697D01*
X19646Y3055D02*
X19621Y3081D01*
X19570D01*
X19544Y3055D01*
Y2954D01*
X19570Y2928D01*
X19621D01*
X19646Y2954D01*
Y3055D01*
X20231Y2547D02*
Y2446D01*
X20180Y2395D01*
X20130Y2446D01*
Y2547D01*
X20079D02*
Y2395D01*
X20003D01*
X19977Y2420D01*
Y2522D01*
X20003Y2547D01*
X20079D01*
X19927Y2395D02*
X19876D01*
X19901D01*
Y2547D01*
X19927Y2522D01*
X19800Y2420D02*
X19774Y2395D01*
X19723D01*
X19698Y2420D01*
Y2522D01*
X19723Y2547D01*
X19774D01*
X19800Y2522D01*
Y2496D01*
X19774Y2471D01*
X19698D01*
X19647Y2395D02*
X19596D01*
X19622D01*
Y2547D01*
X19647Y2522D01*
X20230Y2039D02*
Y1938D01*
X20179Y1887D01*
X20128Y1938D01*
Y2039D01*
X20078D02*
Y1887D01*
X20001D01*
X19976Y1912D01*
Y2014D01*
X20001Y2039D01*
X20078D01*
X19925Y1887D02*
X19874D01*
X19900D01*
Y2039D01*
X19925Y2014D01*
X19798Y1912D02*
X19773Y1887D01*
X19722D01*
X19697Y1912D01*
Y2014D01*
X19722Y2039D01*
X19773D01*
X19798Y2014D01*
Y1988D01*
X19773Y1963D01*
X19697D01*
X19544Y1887D02*
X19646D01*
X19544Y1988D01*
Y2014D01*
X19570Y2039D01*
X19621D01*
X19646Y2014D01*
D31*
X17422Y13497D02*
Y13847D01*
Y13497D02*
X17587D01*
Y13847D01*
X17422Y14005D02*
Y14355D01*
Y14005D02*
X17587D01*
Y14355D01*
X21028Y12029D02*
Y12379D01*
X20863D02*
X21028D01*
X20863Y12029D02*
Y12379D01*
X20254Y12004D02*
Y12354D01*
X20089D02*
X20254D01*
X20089Y12004D02*
Y12354D01*
X2918Y17638D02*
Y17988D01*
Y17638D02*
X3083D01*
Y17988D01*
X2893Y18196D02*
Y18546D01*
Y18196D02*
X3058D01*
Y18546D01*
X5992Y18146D02*
Y18496D01*
Y18146D02*
X6157D01*
Y18496D01*
X6728Y18679D02*
Y19029D01*
Y18679D02*
X6893D01*
Y19029D01*
X5255Y18146D02*
Y18496D01*
Y18146D02*
X5420D01*
Y18496D01*
X6728Y18171D02*
Y18521D01*
Y18171D02*
X6893D01*
Y18521D01*
X3528Y16368D02*
Y16718D01*
Y16368D02*
X3693D01*
Y16718D01*
X2918Y16368D02*
Y16718D01*
Y16368D02*
X3083D01*
Y16718D01*
X2918Y15834D02*
Y16184D01*
Y15834D02*
X3083D01*
Y16184D01*
X2283Y15834D02*
Y16184D01*
Y15834D02*
X2448D01*
Y16184D01*
X5280Y16368D02*
Y16718D01*
Y16368D02*
X5445D01*
Y16718D01*
X6017Y16393D02*
Y16743D01*
Y16393D02*
X6182D01*
Y16743D01*
X5280Y15809D02*
Y16159D01*
Y15809D02*
X5445D01*
Y16159D01*
X6068Y15834D02*
Y16184D01*
Y15834D02*
X6233D01*
Y16184D01*
X1521Y13574D02*
Y13924D01*
Y13574D02*
X1686D01*
Y13924D01*
X2283Y13574D02*
Y13924D01*
Y13574D02*
X2448D01*
Y13924D01*
X2944Y13574D02*
Y13924D01*
Y13574D02*
X3109D01*
Y13924D01*
X2944Y13066D02*
Y13416D01*
Y13066D02*
X3109D01*
Y13416D01*
X5280Y14564D02*
Y14914D01*
Y14564D02*
X5445D01*
Y14914D01*
X5280Y14031D02*
Y14381D01*
Y14031D02*
X5445D01*
Y14381D01*
X5280Y13497D02*
Y13847D01*
Y13497D02*
X5445D01*
Y13847D01*
X5280Y13015D02*
Y13365D01*
Y13015D02*
X5445D01*
Y13365D01*
X2918Y11745D02*
Y12095D01*
Y11745D02*
X3083D01*
Y12095D01*
X1394Y11262D02*
Y11612D01*
Y11262D02*
X1559D01*
Y11612D01*
X2944Y10678D02*
Y11028D01*
Y10678D02*
X3109D01*
Y11028D01*
X2944Y11211D02*
Y11561D01*
Y11211D02*
X3109D01*
Y11561D01*
X5306Y11186D02*
Y11536D01*
Y11186D02*
X5471D01*
Y11536D01*
X5280Y11694D02*
Y12044D01*
Y11694D02*
X5445D01*
Y12044D01*
X5255Y12278D02*
Y12628D01*
Y12278D02*
X5420D01*
Y12628D01*
X5992Y11694D02*
Y12044D01*
Y11694D02*
X6157D01*
Y12044D01*
X2918Y8925D02*
Y9275D01*
Y8925D02*
X3083D01*
Y9275D01*
X2156Y8925D02*
Y9275D01*
Y8925D02*
X2321D01*
Y9275D01*
X2918Y9433D02*
Y9783D01*
Y9433D02*
X3083D01*
Y9783D01*
X2918Y8367D02*
Y8717D01*
Y8367D02*
X3083D01*
Y8717D01*
X5255Y9433D02*
Y9783D01*
Y9433D02*
X5420D01*
Y9783D01*
X5280Y8900D02*
Y9250D01*
Y8900D02*
X5445D01*
Y9250D01*
X5280Y8392D02*
Y8742D01*
Y8392D02*
X5445D01*
Y8742D01*
X6017Y8392D02*
Y8742D01*
Y8392D02*
X6182D01*
Y8742D01*
X2893Y7122D02*
Y7472D01*
Y7122D02*
X3058D01*
Y7472D01*
X2893Y7655D02*
Y8005D01*
Y7655D02*
X3058D01*
Y8005D01*
X2918Y6614D02*
Y6964D01*
Y6614D02*
X3083D01*
Y6964D01*
X2918Y6081D02*
Y6431D01*
Y6081D02*
X3083D01*
Y6431D01*
X5280Y7706D02*
Y8056D01*
Y7706D02*
X5445D01*
Y8056D01*
X5280Y7122D02*
Y7472D01*
Y7122D02*
X5445D01*
Y7472D01*
X5280Y6614D02*
Y6964D01*
Y6614D02*
X5445D01*
Y6964D01*
X5280Y6081D02*
Y6431D01*
Y6081D02*
X5445D01*
Y6431D01*
X2893Y5369D02*
Y5719D01*
Y5369D02*
X3058D01*
Y5719D01*
X2893Y4836D02*
Y5186D01*
Y4836D02*
X3058D01*
Y5186D01*
X2944Y4303D02*
Y4653D01*
Y4303D02*
X3109D01*
Y4653D01*
X2944Y3769D02*
Y4119D01*
Y3769D02*
X3109D01*
Y4119D01*
X5280Y4785D02*
Y5135D01*
Y4785D02*
X5445D01*
Y5135D01*
X5280Y4277D02*
Y4627D01*
Y4277D02*
X5445D01*
Y4627D01*
X5255Y3795D02*
Y4145D01*
Y3795D02*
X5420D01*
Y4145D01*
X6042Y3795D02*
Y4145D01*
Y3795D02*
X6207D01*
Y4145D01*
X2893Y2499D02*
Y2849D01*
Y2499D02*
X3058D01*
Y2849D01*
X2182Y2017D02*
Y2367D01*
Y2017D02*
X2347D01*
Y2367D01*
X2918Y2017D02*
Y2367D01*
Y2017D02*
X3083D01*
Y2367D01*
X2918Y1509D02*
Y1859D01*
Y1509D02*
X3083D01*
Y1859D01*
X5280Y2525D02*
Y2875D01*
Y2525D02*
X5445D01*
Y2875D01*
X5280Y2017D02*
Y2367D01*
Y2017D02*
X5445D01*
Y2367D01*
X5280Y1509D02*
Y1859D01*
Y1509D02*
X5445D01*
Y1859D01*
X5992Y1991D02*
Y2341D01*
Y1991D02*
X6157D01*
Y2341D01*
X10132Y3109D02*
Y3459D01*
Y3109D02*
X10297D01*
Y3459D01*
X10132Y2575D02*
Y2925D01*
Y2575D02*
X10297D01*
Y2925D01*
X10132Y2017D02*
Y2367D01*
Y2017D02*
X10297D01*
Y2367D01*
X10132Y1534D02*
Y1884D01*
Y1534D02*
X10297D01*
Y1884D01*
X12469Y3134D02*
Y3484D01*
Y3134D02*
X12634D01*
Y3484D01*
X12469Y2550D02*
Y2900D01*
Y2550D02*
X12634D01*
Y2900D01*
X12469Y2017D02*
Y2367D01*
Y2017D02*
X12634D01*
Y2367D01*
X12469Y1509D02*
Y1859D01*
Y1509D02*
X12634D01*
Y1859D01*
X10132Y5420D02*
Y5770D01*
Y5420D02*
X10297D01*
Y5770D01*
X10132Y4912D02*
Y5262D01*
Y4912D02*
X10297D01*
Y5262D01*
X10132Y4404D02*
Y4754D01*
Y4404D02*
X10297D01*
Y4754D01*
X10132Y3871D02*
Y4221D01*
Y3871D02*
X10297D01*
Y4221D01*
X12469Y5395D02*
Y5745D01*
Y5395D02*
X12634D01*
Y5745D01*
X12469Y4836D02*
Y5186D01*
Y4836D02*
X12634D01*
Y5186D01*
X12469Y4353D02*
Y4703D01*
Y4353D02*
X12634D01*
Y4703D01*
X12469Y3820D02*
Y4170D01*
Y3820D02*
X12634D01*
Y4170D01*
X10132Y7757D02*
Y8107D01*
Y7757D02*
X10297D01*
Y8107D01*
X10132Y7198D02*
Y7548D01*
Y7198D02*
X10297D01*
Y7548D01*
X10132Y6690D02*
Y7040D01*
Y6690D02*
X10297D01*
Y7040D01*
X10132Y6182D02*
Y6532D01*
Y6182D02*
X10297D01*
Y6532D01*
X12469Y7681D02*
Y8031D01*
Y7681D02*
X12634D01*
Y8031D01*
X12469Y7122D02*
Y7472D01*
Y7122D02*
X12634D01*
Y7472D01*
X12469Y6589D02*
Y6939D01*
Y6589D02*
X12634D01*
Y6939D01*
X12469Y6081D02*
Y6431D01*
Y6081D02*
X12634D01*
Y6431D01*
X10132Y10043D02*
Y10393D01*
Y10043D02*
X10297D01*
Y10393D01*
X10132Y9510D02*
Y9860D01*
Y9510D02*
X10297D01*
Y9860D01*
X10132Y9027D02*
Y9377D01*
Y9027D02*
X10297D01*
Y9377D01*
X10132Y8494D02*
Y8844D01*
Y8494D02*
X10297D01*
Y8844D01*
X12469Y9433D02*
Y9783D01*
Y9433D02*
X12634D01*
Y9783D01*
X12469Y8900D02*
Y9250D01*
Y8900D02*
X12634D01*
Y9250D01*
X12469Y8392D02*
Y8742D01*
Y8392D02*
X12634D01*
Y8742D01*
X13205Y8417D02*
Y8767D01*
Y8417D02*
X13370D01*
Y8767D01*
X10132Y12253D02*
Y12603D01*
Y12253D02*
X10297D01*
Y12603D01*
X10132Y11745D02*
Y12095D01*
Y11745D02*
X10297D01*
Y12095D01*
X10132Y11211D02*
Y11561D01*
Y11211D02*
X10297D01*
Y11561D01*
X10132Y10703D02*
Y11053D01*
Y10703D02*
X10297D01*
Y11053D01*
X12469Y12278D02*
Y12628D01*
Y12278D02*
X12634D01*
Y12628D01*
X12469Y11745D02*
Y12095D01*
Y11745D02*
X12634D01*
Y12095D01*
X12469Y11211D02*
Y11561D01*
Y11211D02*
X12634D01*
Y11561D01*
X12469Y10653D02*
Y11003D01*
Y10653D02*
X12634D01*
Y11003D01*
X10132Y14513D02*
Y14863D01*
Y14513D02*
X10297D01*
Y14863D01*
X10132Y13980D02*
Y14330D01*
Y13980D02*
X10297D01*
Y14330D01*
X10132Y13472D02*
Y13822D01*
Y13472D02*
X10297D01*
Y13822D01*
X10132Y12964D02*
Y13314D01*
Y12964D02*
X10297D01*
Y13314D01*
X12469Y14513D02*
Y14863D01*
Y14513D02*
X12634D01*
Y14863D01*
X12469Y13955D02*
Y14305D01*
Y13955D02*
X12634D01*
Y14305D01*
X12469Y13497D02*
Y13847D01*
Y13497D02*
X12634D01*
Y13847D01*
X12469Y12964D02*
Y13314D01*
Y12964D02*
X12634D01*
Y13314D01*
X9421Y15860D02*
Y16210D01*
Y15860D02*
X9586D01*
Y16210D01*
X10132Y16418D02*
Y16768D01*
Y16418D02*
X10297D01*
Y16768D01*
X10132Y15860D02*
Y16210D01*
Y15860D02*
X10297D01*
Y16210D01*
X10132Y15377D02*
Y15727D01*
Y15377D02*
X10297D01*
Y15727D01*
X12469Y16418D02*
Y16768D01*
Y16418D02*
X12634D01*
Y16768D01*
X12469Y15860D02*
Y16210D01*
Y15860D02*
X12634D01*
Y16210D01*
X12469Y15352D02*
Y15702D01*
Y15352D02*
X12634D01*
Y15702D01*
X13231Y15352D02*
Y15702D01*
Y15352D02*
X13396D01*
Y15702D01*
X10132Y19187D02*
Y19537D01*
Y19187D02*
X10297D01*
Y19537D01*
X10132Y18704D02*
Y19054D01*
Y18704D02*
X10297D01*
Y19054D01*
X10132Y18171D02*
Y18521D01*
Y18171D02*
X10297D01*
Y18521D01*
X10132Y17663D02*
Y18013D01*
Y17663D02*
X10297D01*
Y18013D01*
X12469Y18704D02*
Y19054D01*
Y18704D02*
X12634D01*
Y19054D01*
X12469Y18171D02*
Y18521D01*
Y18171D02*
X12634D01*
Y18521D01*
X12469Y17638D02*
Y17988D01*
Y17638D02*
X12634D01*
Y17988D01*
X13231Y17638D02*
Y17988D01*
Y17638D02*
X13396D01*
Y17988D01*
X16660Y18196D02*
Y18546D01*
Y18196D02*
X16825D01*
Y18546D01*
X17422Y18146D02*
Y18496D01*
Y18146D02*
X17587D01*
Y18496D01*
X17422Y19162D02*
Y19512D01*
Y19162D02*
X17587D01*
Y19512D01*
X17422Y18628D02*
Y18978D01*
Y18628D02*
X17587D01*
Y18978D01*
X20060Y18069D02*
Y18419D01*
Y18069D02*
X20225D01*
Y18419D01*
X20060Y18603D02*
Y18953D01*
Y18603D02*
X20225D01*
Y18953D01*
X20060Y17536D02*
Y17886D01*
Y17536D02*
X20225D01*
Y17886D01*
X20876Y18069D02*
Y18419D01*
Y18069D02*
X21041D01*
Y18419D01*
X17447Y16901D02*
Y17251D01*
Y16901D02*
X17612D01*
Y17251D01*
X16609Y15860D02*
Y16210D01*
Y15860D02*
X16774D01*
Y16210D01*
X17447Y16368D02*
Y16718D01*
Y16368D02*
X17612D01*
Y16718D01*
X17447Y15834D02*
Y16184D01*
Y15834D02*
X17612D01*
Y16184D01*
X20085Y16368D02*
Y16718D01*
Y16368D02*
X20250D01*
Y16718D01*
X20085Y15809D02*
Y16159D01*
Y15809D02*
X20250D01*
Y16159D01*
X20851Y15834D02*
Y16184D01*
Y15834D02*
X21016D01*
Y16184D01*
X20085Y15352D02*
Y15702D01*
Y15352D02*
X20250D01*
Y15702D01*
X17422Y14488D02*
Y14838D01*
Y14488D02*
X17587D01*
Y14838D01*
X17422Y12989D02*
Y13339D01*
Y12989D02*
X17587D01*
Y13339D01*
X20085Y14539D02*
Y14889D01*
Y14539D02*
X20250D01*
Y14889D01*
X20085Y14005D02*
Y14355D01*
Y14005D02*
X20250D01*
Y14355D01*
X20085Y13472D02*
Y13822D01*
Y13472D02*
X20250D01*
Y13822D01*
X20085Y12989D02*
Y13339D01*
Y12989D02*
X20250D01*
Y13339D01*
X17447Y12151D02*
Y12501D01*
Y12151D02*
X17612D01*
Y12501D01*
X17447Y11669D02*
Y12019D01*
Y11669D02*
X17612D01*
Y12019D01*
X17447Y11135D02*
Y11485D01*
Y11135D02*
X17612D01*
Y11485D01*
X17447Y10653D02*
Y11003D01*
Y10653D02*
X17612D01*
Y11003D01*
X20085Y11262D02*
Y11612D01*
Y11262D02*
X20250D01*
Y11612D01*
X20085Y10754D02*
Y11104D01*
Y10754D02*
X20250D01*
Y11104D01*
X17422Y9967D02*
Y10317D01*
Y9967D02*
X17587D01*
Y10317D01*
X17422Y9459D02*
Y9809D01*
Y9459D02*
X17587D01*
Y9809D01*
X17422Y8900D02*
Y9250D01*
Y8900D02*
X17587D01*
Y9250D01*
X17422Y8392D02*
Y8742D01*
Y8392D02*
X17587D01*
Y8742D01*
X20085Y10094D02*
Y10444D01*
Y10094D02*
X20250D01*
Y10444D01*
X20085Y9560D02*
Y9910D01*
Y9560D02*
X20250D01*
Y9910D01*
X20085Y9027D02*
Y9377D01*
Y9027D02*
X20250D01*
Y9377D01*
X20085Y8519D02*
Y8869D01*
Y8519D02*
X20250D01*
Y8869D01*
X17422Y7697D02*
Y8047D01*
Y7697D02*
X17587D01*
Y8047D01*
X17422Y7139D02*
Y7489D01*
Y7139D02*
X17587D01*
Y7489D01*
X17422Y6631D02*
Y6981D01*
Y6631D02*
X17587D01*
Y6981D01*
X17422Y6123D02*
Y6473D01*
Y6123D02*
X17587D01*
Y6473D01*
X20085Y7723D02*
Y8073D01*
Y7723D02*
X20250D01*
Y8073D01*
X20085Y7215D02*
Y7565D01*
Y7215D02*
X20250D01*
Y7565D01*
X20085Y6681D02*
Y7031D01*
Y6681D02*
X20250D01*
Y7031D01*
X20085Y6173D02*
Y6523D01*
Y6173D02*
X20250D01*
Y6523D01*
X17422Y5411D02*
Y5761D01*
Y5411D02*
X17587D01*
Y5761D01*
X17422Y4853D02*
Y5203D01*
Y4853D02*
X17587D01*
Y5203D01*
X17422Y4345D02*
Y4695D01*
Y4345D02*
X17587D01*
Y4695D01*
X17422Y3837D02*
Y4187D01*
Y3837D02*
X17587D01*
Y4187D01*
X20085Y5437D02*
Y5787D01*
Y5437D02*
X20250D01*
Y5787D01*
X20085Y4929D02*
Y5279D01*
Y4929D02*
X20250D01*
Y5279D01*
X20085Y4395D02*
Y4745D01*
Y4395D02*
X20250D01*
Y4745D01*
X20085Y3887D02*
Y4237D01*
Y3887D02*
X20250D01*
Y4237D01*
X17422Y3125D02*
Y3475D01*
Y3125D02*
X17587D01*
Y3475D01*
X17422Y2567D02*
Y2917D01*
Y2567D02*
X17587D01*
Y2917D01*
X17422Y2059D02*
Y2409D01*
Y2059D02*
X17587D01*
Y2409D01*
X17422Y1551D02*
Y1901D01*
Y1551D02*
X17587D01*
Y1901D01*
X20085Y3024D02*
Y3374D01*
Y3024D02*
X20250D01*
Y3374D01*
X20085Y2516D02*
Y2866D01*
Y2516D02*
X20250D01*
Y2866D01*
X20085Y1982D02*
Y2332D01*
Y1982D02*
X20250D01*
Y2332D01*
X20085Y1474D02*
Y1824D01*
Y1474D02*
X20250D01*
Y1824D01*
X1521Y18679D02*
Y19029D01*
Y18679D02*
X1686D01*
Y19029D01*
X1547Y18171D02*
Y18521D01*
Y18171D02*
X1712D01*
Y18521D01*
D32*
X17422Y13847D02*
X17587D01*
X17422Y14355D02*
X17587D01*
X20863Y12029D02*
X21028D01*
X20089Y12004D02*
X20254D01*
X2918Y17988D02*
X3083D01*
X2893Y18546D02*
X3058D01*
X5992Y18496D02*
X6157D01*
X6728Y19029D02*
X6893D01*
X5255Y18496D02*
X5420D01*
X6728Y18521D02*
X6893D01*
X3528Y16718D02*
X3693D01*
X2918D02*
X3083D01*
X2918Y16184D02*
X3083D01*
X2283D02*
X2448D01*
X5280Y16718D02*
X5445D01*
X6017Y16743D02*
X6182D01*
X5280Y16159D02*
X5445D01*
X6068Y16184D02*
X6233D01*
X1521Y13924D02*
X1686D01*
X2283D02*
X2448D01*
X2944D02*
X3109D01*
X2944Y13416D02*
X3109D01*
X5280Y14914D02*
X5445D01*
X5280Y14381D02*
X5445D01*
X5280Y13847D02*
X5445D01*
X5280Y13365D02*
X5445D01*
X2918Y12095D02*
X3083D01*
X1394Y11612D02*
X1559D01*
X2944Y11028D02*
X3109D01*
X2944Y11561D02*
X3109D01*
X5306Y11536D02*
X5471D01*
X5280Y12044D02*
X5445D01*
X5255Y12628D02*
X5420D01*
X5992Y12044D02*
X6157D01*
X2918Y9275D02*
X3083D01*
X2156D02*
X2321D01*
X2918Y9783D02*
X3083D01*
X2918Y8717D02*
X3083D01*
X5255Y9783D02*
X5420D01*
X5280Y9250D02*
X5445D01*
X5280Y8742D02*
X5445D01*
X6017D02*
X6182D01*
X2893Y7472D02*
X3058D01*
X2893Y8005D02*
X3058D01*
X2918Y6964D02*
X3083D01*
X2918Y6431D02*
X3083D01*
X5280Y8056D02*
X5445D01*
X5280Y7472D02*
X5445D01*
X5280Y6964D02*
X5445D01*
X5280Y6431D02*
X5445D01*
X2893Y5719D02*
X3058D01*
X2893Y5186D02*
X3058D01*
X2944Y4653D02*
X3109D01*
X2944Y4119D02*
X3109D01*
X5280Y5135D02*
X5445D01*
X5280Y4627D02*
X5445D01*
X5255Y4145D02*
X5420D01*
X6042D02*
X6207D01*
X2893Y2849D02*
X3058D01*
X2182Y2367D02*
X2347D01*
X2918D02*
X3083D01*
X2918Y1859D02*
X3083D01*
X5280Y2875D02*
X5445D01*
X5280Y2367D02*
X5445D01*
X5280Y1859D02*
X5445D01*
X5992Y2341D02*
X6157D01*
X10132Y3459D02*
X10297D01*
X10132Y2925D02*
X10297D01*
X10132Y2367D02*
X10297D01*
X10132Y1884D02*
X10297D01*
X12469Y3484D02*
X12634D01*
X12469Y2900D02*
X12634D01*
X12469Y2367D02*
X12634D01*
X12469Y1859D02*
X12634D01*
X10132Y5770D02*
X10297D01*
X10132Y5262D02*
X10297D01*
X10132Y4754D02*
X10297D01*
X10132Y4221D02*
X10297D01*
X12469Y5745D02*
X12634D01*
X12469Y5186D02*
X12634D01*
X12469Y4703D02*
X12634D01*
X12469Y4170D02*
X12634D01*
X10132Y8107D02*
X10297D01*
X10132Y7548D02*
X10297D01*
X10132Y7040D02*
X10297D01*
X10132Y6532D02*
X10297D01*
X12469Y8031D02*
X12634D01*
X12469Y7472D02*
X12634D01*
X12469Y6939D02*
X12634D01*
X12469Y6431D02*
X12634D01*
X10132Y10393D02*
X10297D01*
X10132Y9860D02*
X10297D01*
X10132Y9377D02*
X10297D01*
X10132Y8844D02*
X10297D01*
X12469Y9783D02*
X12634D01*
X12469Y9250D02*
X12634D01*
X12469Y8742D02*
X12634D01*
X13205Y8767D02*
X13370D01*
X10132Y12603D02*
X10297D01*
X10132Y12095D02*
X10297D01*
X10132Y11561D02*
X10297D01*
X10132Y11053D02*
X10297D01*
X12469Y12628D02*
X12634D01*
X12469Y12095D02*
X12634D01*
X12469Y11561D02*
X12634D01*
X12469Y11003D02*
X12634D01*
X10132Y14863D02*
X10297D01*
X10132Y14330D02*
X10297D01*
X10132Y13822D02*
X10297D01*
X10132Y13314D02*
X10297D01*
X12469Y14863D02*
X12634D01*
X12469Y14305D02*
X12634D01*
X12469Y13847D02*
X12634D01*
X12469Y13314D02*
X12634D01*
X9421Y16210D02*
X9586D01*
X10132Y16768D02*
X10297D01*
X10132Y16210D02*
X10297D01*
X10132Y15727D02*
X10297D01*
X12469Y16768D02*
X12634D01*
X12469Y16210D02*
X12634D01*
X12469Y15702D02*
X12634D01*
X13231D02*
X13396D01*
X10132Y19537D02*
X10297D01*
X10132Y19054D02*
X10297D01*
X10132Y18521D02*
X10297D01*
X10132Y18013D02*
X10297D01*
X12469Y19054D02*
X12634D01*
X12469Y18521D02*
X12634D01*
X12469Y17988D02*
X12634D01*
X13231D02*
X13396D01*
X16660Y18546D02*
X16825D01*
X17422Y18496D02*
X17587D01*
X17422Y19512D02*
X17587D01*
X17422Y18978D02*
X17587D01*
X20060Y18419D02*
X20225D01*
X20060Y18953D02*
X20225D01*
X20060Y17886D02*
X20225D01*
X20876Y18419D02*
X21041D01*
X17447Y17251D02*
X17612D01*
X16609Y16210D02*
X16774D01*
X17447Y16718D02*
X17612D01*
X17447Y16184D02*
X17612D01*
X20085Y16718D02*
X20250D01*
X20085Y16159D02*
X20250D01*
X20851Y16184D02*
X21016D01*
X20085Y15702D02*
X20250D01*
X17422Y14838D02*
X17587D01*
X17422Y13339D02*
X17587D01*
X20085Y14889D02*
X20250D01*
X20085Y14355D02*
X20250D01*
X20085Y13822D02*
X20250D01*
X20085Y13339D02*
X20250D01*
X17447Y12501D02*
X17612D01*
X17447Y12019D02*
X17612D01*
X17447Y11485D02*
X17612D01*
X17447Y11003D02*
X17612D01*
X20085Y11612D02*
X20250D01*
X20085Y11104D02*
X20250D01*
X17422Y10317D02*
X17587D01*
X17422Y9809D02*
X17587D01*
X17422Y9250D02*
X17587D01*
X17422Y8742D02*
X17587D01*
X20085Y10444D02*
X20250D01*
X20085Y9910D02*
X20250D01*
X20085Y9377D02*
X20250D01*
X20085Y8869D02*
X20250D01*
X17422Y8047D02*
X17587D01*
X17422Y7489D02*
X17587D01*
X17422Y6981D02*
X17587D01*
X17422Y6473D02*
X17587D01*
X20085Y8073D02*
X20250D01*
X20085Y7565D02*
X20250D01*
X20085Y7031D02*
X20250D01*
X20085Y6523D02*
X20250D01*
X17422Y5761D02*
X17587D01*
X17422Y5203D02*
X17587D01*
X17422Y4695D02*
X17587D01*
X17422Y4187D02*
X17587D01*
X20085Y5787D02*
X20250D01*
X20085Y5279D02*
X20250D01*
X20085Y4745D02*
X20250D01*
X20085Y4237D02*
X20250D01*
X17422Y3475D02*
X17587D01*
X17422Y2917D02*
X17587D01*
X17422Y2409D02*
X17587D01*
X17422Y1901D02*
X17587D01*
X20085Y3374D02*
X20250D01*
X20085Y2866D02*
X20250D01*
X20085Y2332D02*
X20250D01*
X20085Y1824D02*
X20250D01*
X1521Y19029D02*
X1686D01*
X1547Y18521D02*
X1712D01*
D33*
X17504Y13522D02*
D03*
X17504Y14030D02*
D03*
X20946Y12354D02*
D03*
X20171Y12329D02*
D03*
X3001Y17663D02*
D03*
X2975Y18221D02*
D03*
X6074Y18171D02*
D03*
X6811Y18704D02*
D03*
X5337Y18171D02*
D03*
X6811Y18196D02*
D03*
X3610Y16393D02*
D03*
X3001D02*
D03*
Y15859D02*
D03*
X2366D02*
D03*
X5363Y16393D02*
D03*
X6099Y16418D02*
D03*
X5363Y15834D02*
D03*
X6150Y15859D02*
D03*
X1604Y13599D02*
D03*
X2366D02*
D03*
X3026D02*
D03*
Y13091D02*
D03*
X5363Y14589D02*
D03*
Y14056D02*
D03*
Y13522D02*
D03*
Y13040D02*
D03*
X3001Y11770D02*
D03*
X1477Y11287D02*
D03*
X3026Y10703D02*
D03*
Y11236D02*
D03*
X5388Y11211D02*
D03*
X5363Y11719D02*
D03*
X5337Y12303D02*
D03*
X6074Y11719D02*
D03*
X3001Y8950D02*
D03*
X2239D02*
D03*
X3001Y9458D02*
D03*
Y8392D02*
D03*
X5337Y9458D02*
D03*
X5363Y8925D02*
D03*
Y8417D02*
D03*
X6099D02*
D03*
X2975Y7147D02*
D03*
Y7680D02*
D03*
X3001Y6639D02*
D03*
Y6106D02*
D03*
X5363Y7731D02*
D03*
Y7147D02*
D03*
Y6639D02*
D03*
Y6106D02*
D03*
X2975Y5394D02*
D03*
Y4861D02*
D03*
X3026Y4328D02*
D03*
Y3794D02*
D03*
X5363Y4810D02*
D03*
Y4302D02*
D03*
X5337Y3820D02*
D03*
X6125D02*
D03*
X2975Y2524D02*
D03*
X2264Y2042D02*
D03*
X3001D02*
D03*
Y1534D02*
D03*
X5363Y2550D02*
D03*
Y2042D02*
D03*
Y1534D02*
D03*
X6074Y2016D02*
D03*
X10214Y3134D02*
D03*
X10214Y2600D02*
D03*
X10214Y2042D02*
D03*
X10214Y1559D02*
D03*
X12551Y3159D02*
D03*
X12551Y2575D02*
D03*
X12551Y2042D02*
D03*
X12551Y1534D02*
D03*
X10214Y5445D02*
D03*
X10214Y4937D02*
D03*
X10214Y4429D02*
D03*
X10214Y3896D02*
D03*
X12551Y5420D02*
D03*
X12551Y4861D02*
D03*
X12551Y4378D02*
D03*
X12551Y3845D02*
D03*
X10214Y7782D02*
D03*
X10214Y7223D02*
D03*
X10214Y6715D02*
D03*
X10214Y6207D02*
D03*
X12551Y7706D02*
D03*
X12551Y7147D02*
D03*
X12551Y6614D02*
D03*
X12551Y6106D02*
D03*
X10214Y10068D02*
D03*
X10214Y9535D02*
D03*
X10214Y9052D02*
D03*
X10214Y8519D02*
D03*
X12551Y9458D02*
D03*
X12551Y8925D02*
D03*
X12551Y8417D02*
D03*
X13288Y8442D02*
D03*
X10214Y12278D02*
D03*
X10214Y11770D02*
D03*
X10214Y11236D02*
D03*
X10214Y10728D02*
D03*
X12551Y12303D02*
D03*
X12551Y11770D02*
D03*
X12551Y11236D02*
D03*
X12551Y10678D02*
D03*
X10214Y14538D02*
D03*
X10214Y14005D02*
D03*
X10214Y13497D02*
D03*
X10214Y12989D02*
D03*
X12551Y14538D02*
D03*
X12551Y13980D02*
D03*
X12551Y13522D02*
D03*
X12551Y12989D02*
D03*
X9503Y15885D02*
D03*
X10214Y16443D02*
D03*
X10214Y15885D02*
D03*
X10214Y15402D02*
D03*
X12551Y16443D02*
D03*
X12551Y15885D02*
D03*
X12551Y15377D02*
D03*
X13313D02*
D03*
X10214Y19212D02*
D03*
X10214Y18729D02*
D03*
X10214Y18196D02*
D03*
X10214Y17688D02*
D03*
X12551Y18729D02*
D03*
X12551Y18196D02*
D03*
X12551Y17663D02*
D03*
X13313D02*
D03*
X16742Y18221D02*
D03*
X17504Y18171D02*
D03*
X17504Y19187D02*
D03*
X17504Y18653D02*
D03*
X20143Y18094D02*
D03*
X20143Y18628D02*
D03*
X20143Y17561D02*
D03*
X20958Y18094D02*
D03*
X17529Y16926D02*
D03*
X16691Y15885D02*
D03*
X17529Y16393D02*
D03*
X17529Y15859D02*
D03*
X20168Y16393D02*
D03*
X20168Y15834D02*
D03*
X20933Y15859D02*
D03*
X20168Y15377D02*
D03*
X17504Y14513D02*
D03*
X17504Y13014D02*
D03*
X20168Y14564D02*
D03*
X20168Y14030D02*
D03*
X20168Y13497D02*
D03*
X20168Y13014D02*
D03*
X17529Y12176D02*
D03*
X17529Y11694D02*
D03*
X17529Y11160D02*
D03*
X17529Y10678D02*
D03*
X20168Y11287D02*
D03*
X20168Y10779D02*
D03*
X17504Y9992D02*
D03*
X17504Y9484D02*
D03*
X17504Y8925D02*
D03*
X17504Y8417D02*
D03*
X20168Y10119D02*
D03*
X20168Y9585D02*
D03*
X20168Y9052D02*
D03*
X20168Y8544D02*
D03*
X17504Y7722D02*
D03*
X17504Y7164D02*
D03*
X17504Y6656D02*
D03*
X17504Y6148D02*
D03*
X20168Y7748D02*
D03*
X20168Y7240D02*
D03*
X20168Y6706D02*
D03*
X20168Y6198D02*
D03*
X17504Y5436D02*
D03*
X17504Y4878D02*
D03*
X17504Y4370D02*
D03*
X17504Y3862D02*
D03*
X20168Y5462D02*
D03*
X20168Y4954D02*
D03*
X20168Y4420D02*
D03*
X20168Y3912D02*
D03*
X17504Y3150D02*
D03*
X17504Y2592D02*
D03*
X17504Y2084D02*
D03*
X17504Y1576D02*
D03*
X20168Y3049D02*
D03*
X20168Y2541D02*
D03*
X20168Y2007D02*
D03*
X20168Y1499D02*
D03*
X1604Y18704D02*
D03*
X1629Y18196D02*
D03*
M02*
