G04 Layer_Physical_Order=2*
G04 Layer_Color=6736896*
%FSLAX42Y42*%
%MOMM*%
G71*
G01*
G75*
%ADD11C,0.30*%
G04:AMPARAMS|DCode=12|XSize=2mm|YSize=1.52mm|CornerRadius=0.61mm|HoleSize=0mm|Usage=FLASHONLY|Rotation=90.000|XOffset=0mm|YOffset=0mm|HoleType=Round|Shape=RoundedRectangle|*
%AMROUNDEDRECTD12*
21,1,2.00,0.30,0,0,90.0*
21,1,0.78,1.52,0,0,90.0*
1,1,1.22,0.15,0.39*
1,1,1.22,0.15,-0.39*
1,1,1.22,-0.15,-0.39*
1,1,1.22,-0.15,0.39*
%
%ADD12ROUNDEDRECTD12*%
%ADD14C,1.30*%
%ADD16C,0.60*%
%ADD17C,0.70*%
D11*
X18800Y2256D02*
Y6359D01*
X18037Y1493D02*
X18800Y2256D01*
X18639Y3424D02*
Y4972D01*
Y3424D02*
X18680Y3383D01*
Y2855D02*
Y3383D01*
X18579Y3399D02*
Y4947D01*
Y3399D02*
X18620Y3358D01*
Y2902D02*
Y3358D01*
X18519Y3374D02*
Y4922D01*
Y3374D02*
X18560Y3334D01*
Y2926D02*
Y3334D01*
X18860Y2140D02*
Y5550D01*
X18516Y5010D02*
Y6820D01*
Y5010D02*
X18579Y4947D01*
X18576Y5035D02*
Y6773D01*
Y5035D02*
X18639Y4972D01*
X18699Y3449D02*
Y4997D01*
X18136Y2418D02*
X18620Y2902D01*
X18347Y2523D02*
X18680Y2855D01*
X18776Y2056D02*
X18860Y2140D01*
X20673Y6928D02*
X21316Y7572D01*
X20673Y6906D02*
X20673Y6906D01*
Y6906D01*
Y6762D02*
Y6906D01*
X19085Y5776D02*
X19686D01*
X20673Y6762D01*
X20642Y6225D02*
X20673Y6256D01*
X19202Y5716D02*
X20132D01*
X20642Y6225D01*
X22097Y8065D02*
Y8623D01*
Y12683D02*
Y13238D01*
X22311Y2898D02*
Y5852D01*
X22082Y6080D02*
X22311Y5852D01*
X20609Y6080D02*
X22082D01*
X21981Y5837D02*
X22097Y5720D01*
X20711Y5837D02*
X21981D01*
X22097Y5554D02*
Y5720D01*
Y5354D02*
Y5554D01*
Y5354D02*
X22251Y5201D01*
Y2873D02*
Y5201D01*
X22097Y6340D02*
Y6583D01*
X21976Y6704D02*
X22097Y6583D01*
X21976Y6704D02*
Y7436D01*
X22219Y7679D01*
Y7944D01*
X22097Y8065D02*
X22219Y7944D01*
X20711Y8130D02*
X21582D01*
X22223Y8773D02*
Y10248D01*
X22108Y10363D02*
X22223Y10248D01*
X22108Y11215D02*
X22223Y11330D01*
Y11546D01*
X22160Y11608D02*
X22223Y11546D01*
X22108Y11608D02*
X22160D01*
X21976Y11740D02*
X22108Y11608D01*
X21600Y10792D02*
X22101Y11294D01*
X21976Y11740D02*
Y12562D01*
X22097Y12683D01*
Y14989D02*
Y15547D01*
Y13263D02*
Y13506D01*
X21980Y13624D02*
X22097Y13506D01*
X21980Y13624D02*
Y13852D01*
X22219Y14090D01*
Y14868D01*
X22097Y14989D02*
X22219Y14868D01*
X21438Y17009D02*
Y17757D01*
X21195Y16767D02*
X21438Y17009D01*
X21195Y15997D02*
Y16767D01*
Y15997D02*
X21316Y15876D01*
Y15571D02*
Y15876D01*
X14412Y14944D02*
Y15593D01*
X14412Y13218D02*
X14415D01*
X14294Y13339D02*
Y13807D01*
X14533Y14045D01*
Y14823D01*
X14412Y14944D02*
X14533Y14823D01*
X3272Y10024D02*
X4876D01*
X4936Y9964D01*
X1228Y9904D02*
X5191D01*
X5337Y10050D01*
X5374D01*
X5380Y10044D01*
X5467D01*
X5593Y10169D01*
X5712D01*
X7053Y10440D02*
X7198Y10295D01*
X5020Y10270D02*
X5190Y10440D01*
X7053D01*
X5442Y10104D02*
X5653Y10314D01*
X5399Y10110D02*
X5405Y10104D01*
X5312Y10110D02*
X5399D01*
X5405Y10104D02*
X5442D01*
X5166Y9964D02*
X5312Y10110D01*
X5653Y10314D02*
X6100D01*
X4936Y9964D02*
X5166D01*
X9591Y9020D02*
Y9932D01*
X9828Y10169D01*
X9256D02*
X9828D01*
X9111Y10024D02*
X9256Y10169D01*
X8993Y10024D02*
X9111D01*
X8848Y10169D02*
X8993Y10024D01*
X8292Y10169D02*
X8848D01*
X9234Y10315D02*
X10427D01*
X9113Y10194D02*
X9234Y10315D01*
X9113Y10167D02*
Y10194D01*
X9052Y10167D02*
X9113D01*
X19339Y11894D02*
X19640D01*
X19317Y11872D02*
X19339Y11894D01*
X19314Y11872D02*
X19317D01*
X18371Y9321D02*
Y11468D01*
X9221Y11770D02*
X10666Y10326D01*
X8171Y12394D02*
X8794Y11770D01*
X8171Y12394D02*
X8171Y12394D01*
X8794Y11770D02*
X9221D01*
X8392Y12258D02*
X9725D01*
X8292Y12358D02*
X8392Y12258D01*
X8292Y12358D02*
Y12477D01*
X4836Y12024D02*
Y12075D01*
X4709Y11897D02*
X4836Y12024D01*
X4318Y10993D02*
X4556Y10754D01*
X4607D01*
X3766Y11615D02*
X4681D01*
X4816Y11543D02*
X4816Y11543D01*
X4754Y11543D02*
X4816D01*
X4681Y11615D02*
X4754Y11543D01*
X2093Y11297D02*
X2580Y10810D01*
X1863Y11461D02*
X2027Y11297D01*
X2093D01*
X2464Y10690D02*
X2715D01*
X2489Y10750D02*
X2740D01*
X1804Y11316D02*
X1923D01*
X2489Y10750D01*
X1898Y11256D02*
X2464Y10690D01*
X998Y11256D02*
X1898D01*
X963Y11291D02*
X998Y11256D01*
X963Y11291D02*
Y11291D01*
X901Y11353D02*
X963Y11291D01*
X1804Y11316D02*
X1804Y11316D01*
X1023Y11316D02*
X1804D01*
X2580Y10810D02*
X2765D01*
X10764Y13803D02*
X10912D01*
X10521Y14132D02*
X10701Y13952D01*
X10521Y14132D02*
X10701Y13952D01*
Y13867D02*
X10764Y13803D01*
X10701Y13867D02*
Y13952D01*
X4666Y16383D02*
X4808Y16240D01*
X5801D01*
X5969Y16073D01*
X6491D01*
X12255Y17386D02*
X12710Y17841D01*
X12034Y17165D02*
X12255Y17386D01*
X12265Y17297D02*
X13363D01*
X12234Y17265D02*
X12265Y17297D01*
X12034Y17080D02*
Y17165D01*
X12234Y17128D02*
Y17265D01*
X12238Y17878D02*
X12505D01*
X12679Y17916D02*
X12741D01*
X12664Y17901D02*
X12679Y17916D01*
X12527Y17901D02*
X12664D01*
X12505Y17878D02*
X12527Y17901D01*
X12988Y17612D02*
X13396D01*
X12785Y17815D02*
X12988Y17612D01*
X12785Y17815D02*
Y17872D01*
X12741Y17916D02*
X12785Y17872D01*
X15588Y18024D02*
X16971D01*
X15325Y17879D02*
X15470Y18024D01*
X15588D02*
X15588Y18024D01*
X15470Y18024D02*
X15588D01*
X14533Y17045D02*
Y17757D01*
X14471Y16983D02*
X14533Y17045D01*
X14468Y16983D02*
X14471D01*
X13788Y16303D02*
X14468Y16983D01*
X14412Y17035D02*
Y17128D01*
X14198Y17035D02*
X14412D01*
X14038Y16875D02*
X14198Y17035D01*
X13788Y16029D02*
Y16303D01*
X13663Y15903D02*
X13788Y16029D01*
X13663Y15606D02*
Y15903D01*
X13565Y15953D02*
X13638Y16027D01*
X12050Y15953D02*
X13565D01*
X13667Y16027D02*
Y16112D01*
X13638Y16027D02*
X13667D01*
X18907Y19146D02*
X22006D01*
X18165D02*
X18906D01*
X18907Y19160D02*
X22020D01*
X18906Y19146D02*
Y19159D01*
Y18486D02*
Y19146D01*
Y19159D02*
X18907Y19160D01*
X18626Y18346D02*
X18831Y18552D01*
X18191Y18349D02*
X18349D01*
X18193Y18346D02*
X18626D01*
X19297Y18556D02*
X19318Y18577D01*
X19246Y18556D02*
X19297D01*
X19243Y18553D02*
X19246Y18556D01*
X19206Y18553D02*
X19243D01*
X19290Y18557D02*
X19310Y18577D01*
X19219Y18557D02*
X19290D01*
X19199Y18577D02*
X19219Y18557D01*
X19310Y18577D02*
X19318D01*
X19182D02*
X19199D01*
X19318D02*
X20514D01*
X18374Y18450D02*
X18755Y18831D01*
X18174Y18450D02*
X18374D01*
X17920Y18704D02*
X18174Y18450D01*
X11745Y8140D02*
Y10111D01*
X19994Y4536D02*
X20552D01*
X17116Y4561D02*
X17429D01*
X20489Y7005D02*
X20498Y6996D01*
X19370D02*
X20498D01*
X17116Y6870D02*
X17149D01*
X17838Y6700D02*
X18142D01*
X17424D02*
X17838D01*
X18349Y9192D02*
Y9258D01*
Y9179D02*
Y9192D01*
X19996Y11616D02*
X19997Y11615D01*
X19332D02*
X19333Y11616D01*
X19330Y11612D02*
X19332Y11615D01*
X19997D02*
X20157D01*
X19100D02*
X19332D01*
X18986D02*
X19100D01*
X19332D02*
X19997D01*
X19100D02*
X19103Y11612D01*
X20533Y13684D02*
X20552D01*
X18176Y13992D02*
X18239D01*
X17465D02*
X18176D01*
X17116Y13792D02*
X17264D01*
X17116Y16075D02*
X17663D01*
X19103Y18577D02*
X19182D01*
X18191Y18349D02*
X18193Y18346D01*
X17902Y18638D02*
X18191Y18349D01*
X12360Y18629D02*
X12369Y18638D01*
X18120Y18742D02*
Y19085D01*
Y18730D02*
Y18742D01*
X10908Y18419D02*
X10991Y18336D01*
X10752Y18575D02*
X10908Y18419D01*
X10752Y18575D02*
X10754D01*
X9832Y16075D02*
X10015D01*
X9832Y9177D02*
X9944D01*
X9056Y4561D02*
X9512D01*
X10753Y2081D02*
X11005Y2334D01*
X9832Y2128D02*
X9879Y2081D01*
X1082Y6847D02*
X1620D01*
X5565Y6794D02*
X5716D01*
X6415Y8976D02*
X6453Y9014D01*
X4099Y8976D02*
X6415D01*
X5578Y13511D02*
X5716Y13650D01*
X5565Y13498D02*
X5578Y13511D01*
X11338Y12100D02*
Y14386D01*
X11155Y8752D02*
Y9654D01*
Y7538D02*
Y8752D01*
X11303Y8900D01*
X3331Y4828D02*
X3670Y4489D01*
X4851Y1929D02*
X5218D01*
X6705Y442D01*
X2639Y14785D02*
X3331D01*
X984Y4177D02*
X1141D01*
X1738Y4115D02*
X1800Y4177D01*
X2764Y4102D02*
Y4102D01*
X6796Y662D02*
X7403D01*
X5083Y2085D02*
X5147D01*
X841Y5605D02*
X994Y5759D01*
X841Y5605D02*
X841Y5605D01*
X7757Y1608D02*
Y1628D01*
X7767Y1618D01*
X7427Y2379D02*
X7427D01*
X7342D02*
X7427D01*
X2580Y12622D02*
X3186D01*
X1918D02*
X2580D01*
X1019D02*
X1918D01*
X3210Y10086D02*
X3272Y10024D01*
X5020Y12501D02*
X5189D01*
X7029Y7808D02*
Y9793D01*
X8011Y1860D02*
Y1880D01*
X8021Y1870D01*
X7451Y2439D02*
X8011Y1880D01*
X3294Y10314D02*
X4675D01*
X3294D02*
X3294D01*
X1079Y12476D02*
X1859D01*
X1078D02*
X1079D01*
X1199Y12356D01*
X1078Y12477D02*
X1079Y12476D01*
X1199Y12321D02*
Y12356D01*
Y11886D02*
Y12321D01*
X4899Y10090D02*
Y10090D01*
X7220Y1190D02*
X7304D01*
X6835D02*
X7220D01*
X4886Y2413D02*
X5130D01*
X4886D02*
X4886D01*
X5130D02*
X5130D01*
X7910Y821D02*
X7939Y850D01*
X7880Y790D02*
X7910Y821D01*
X4693Y2606D02*
X4886Y2413D01*
X4638Y2661D02*
X4693Y2606D01*
X901Y6313D02*
Y6953D01*
Y5580D02*
X1054Y5734D01*
X901Y5580D02*
X901Y5580D01*
X6909Y2372D02*
Y2397D01*
X6631Y7088D02*
Y7579D01*
X7682Y1438D02*
Y1524D01*
X7383Y1916D02*
Y2253D01*
Y1822D02*
Y1916D01*
X7443Y1762D02*
X7682Y1524D01*
X7383Y1822D02*
X7443Y1762D01*
X6631Y9684D02*
X6909Y9405D01*
X6146Y10169D02*
X6631Y9684D01*
X4675Y2727D02*
Y2837D01*
Y2708D02*
Y2727D01*
Y2708D02*
X4753Y2631D01*
X5535Y2122D02*
X5632Y2025D01*
X5379Y2277D02*
X5475D01*
X5350D02*
X5379D01*
X8225Y1044D02*
Y1099D01*
X8151Y970D02*
X8225Y1044D01*
X8151Y970D02*
X8165D01*
X7851D02*
X8151D01*
X7245Y1250D02*
X7329D01*
X6757D02*
X7245D01*
X6751D02*
X6757D01*
X3875Y3582D02*
X3931D01*
X3671D02*
X3875D01*
X4126Y3331D02*
X4170Y3288D01*
X6571Y7233D02*
Y7436D01*
Y7063D02*
Y7063D01*
X6664Y6970D01*
X6511Y7123D02*
X6571Y7063D01*
X6664Y6970D02*
Y6970D01*
X6322Y5370D02*
X6555D01*
X6315D02*
X6322D01*
X6533Y5349D02*
X6555Y5370D01*
X6449Y7735D02*
Y7861D01*
Y7557D02*
Y7735D01*
X8275Y1250D02*
X8423D01*
X5808Y4863D02*
X5850D01*
X5582D02*
X5808D01*
X1859Y7716D02*
Y7744D01*
X5252Y2921D02*
X5479D01*
X5546Y2854D02*
X5591Y2809D01*
X5479Y2921D02*
X5546Y2854D01*
X4719Y3088D02*
Y3403D01*
X6208Y1592D02*
X6309Y1491D01*
X7025D02*
X7342D01*
X6309D02*
X6913D01*
X4936Y2533D02*
X4955D01*
X7552Y1281D02*
X7643Y1190D01*
X7342Y1491D02*
X7552Y1281D01*
X8469Y1190D02*
X8617D01*
X7812D02*
X7975D01*
X4289Y4353D02*
X4391Y4252D01*
X4250Y4393D02*
X4289Y4353D01*
X3895Y4393D02*
X4250D01*
X4735Y2752D02*
X4813Y2675D01*
X4735Y2752D02*
Y2902D01*
Y2752D02*
Y2752D01*
X3210Y4128D02*
Y4138D01*
Y3949D02*
Y4128D01*
X4961Y1869D02*
X5083D01*
X4582D02*
X4961D01*
X4372Y2079D02*
Y2454D01*
X5083Y1869D02*
X5447Y1505D01*
X2639Y3248D02*
X3331D01*
X9068Y1431D02*
X9180D01*
X8890D02*
X9005D01*
X7822Y2499D02*
X8890Y1431D01*
X6509Y3101D02*
X6622D01*
X6390D02*
X6509D01*
X9789Y3093D02*
X9828Y3133D01*
X12985Y3391D02*
X13518D01*
X12379D02*
X12867D01*
X13602Y3246D02*
Y3254D01*
X11816Y2532D02*
X11859D01*
X10738Y1331D02*
Y1391D01*
X9658Y867D02*
X9703Y821D01*
X9593Y931D02*
X9658Y867D01*
X9689Y821D02*
X9703D01*
X8537Y2362D02*
X9030Y1869D01*
X9115D01*
X8320Y2495D02*
X8405D01*
X8320D02*
X8320D01*
X14206Y5481D02*
X14412D01*
X9753Y662D02*
X9897D01*
X9590D02*
X9753D01*
X8871Y7461D02*
X9052Y7642D01*
X8400Y6990D02*
X8645D01*
X9181Y1031D02*
Y1031D01*
X8043Y6215D02*
Y6797D01*
Y2686D02*
Y6215D01*
X8087Y2643D02*
X8295Y2435D01*
X8043Y2686D02*
X8087Y2643D01*
X9251Y1281D02*
X9286D01*
X9082D02*
X9251D01*
X8991Y1190D02*
X9082Y1281D01*
X8927Y1126D02*
X8991Y1190D01*
X10488Y10254D02*
X10544D01*
X10438Y1596D02*
X10636Y1398D01*
X9918Y1412D02*
X10102Y1596D01*
X9836Y1330D02*
X9890Y1385D01*
X8544Y6641D02*
X9559Y7656D01*
X8490Y6587D02*
X8544Y6641D01*
X9680Y1369D02*
Y1462D01*
X9560Y2674D02*
X9680Y2793D01*
X9746Y1303D02*
X9808D01*
X9724Y1325D02*
X9746Y1303D01*
X10551Y1356D02*
X10561D01*
X9743Y1221D02*
X9773Y1191D01*
X9620Y1344D02*
X9652Y1312D01*
X9662Y1221D02*
X9743D01*
X9388Y7716D02*
X9887D01*
X9170Y7498D02*
X9388Y7716D01*
X8417Y4878D02*
Y5968D01*
X14269Y10144D02*
X14412D01*
X11413Y5045D02*
Y5067D01*
Y5040D02*
Y5045D01*
Y5040D02*
X11439Y5015D01*
X11369Y5089D02*
X11391D01*
X11413Y5045D02*
X11439Y5019D01*
X11369Y5089D02*
X11413Y5045D01*
X12660Y4233D02*
X12838D01*
X9052Y12476D02*
X9380D01*
X8171Y12394D02*
Y12560D01*
X10604Y10024D02*
X10666Y10086D01*
X11354Y1431D02*
X11362D01*
X11358Y1427D02*
X11362Y1431D01*
X10959Y962D02*
Y1027D01*
X10694Y8913D02*
X10732Y8952D01*
X10680Y8900D02*
X10694Y8913D01*
Y8886D02*
Y8913D01*
Y7707D02*
Y8886D01*
X10666Y14360D02*
X11186Y13839D01*
X10544Y14481D02*
X10666Y14360D01*
X11186Y13739D02*
Y13839D01*
Y9860D02*
Y13739D01*
X10521Y14132D02*
X10521D01*
X10485D02*
X10521D01*
X8292Y14782D02*
X8595D01*
X11058Y11634D02*
X11090Y11602D01*
X11008Y11684D02*
X11058Y11634D01*
X10681Y7052D02*
X10683Y7051D01*
X10754Y7373D02*
Y7396D01*
X14145Y14739D02*
X14412D01*
X13171Y4585D02*
Y4585D01*
X12112Y6936D02*
Y7211D01*
Y5471D02*
Y6936D01*
X12692Y4803D02*
X13038D01*
X12551Y2085D02*
X12871D01*
X12539Y2072D02*
X12551Y2085D01*
X11491Y7833D02*
Y9899D01*
X12667Y4743D02*
X12727Y4683D01*
X12355Y5055D02*
X12667Y4743D01*
X11608Y1365D02*
Y1388D01*
X13507Y17152D02*
X13663D01*
X12761Y6919D02*
Y7115D01*
X12415Y7461D02*
X12761Y7115D01*
X12317Y7558D02*
X12415Y7461D01*
X12456Y924D02*
Y924D01*
Y780D02*
Y924D01*
X10476Y18239D02*
X11620Y17096D01*
X12176Y7558D02*
X12176D01*
X12010Y1325D02*
X12229Y1106D01*
X12319Y711D02*
X12387D01*
X11620Y12179D02*
Y17096D01*
Y8115D02*
Y12179D01*
X11834Y821D02*
X11984Y670D01*
X22006Y19146D02*
X22020Y19160D01*
X18413Y13685D02*
X18688Y13959D01*
X18413Y13435D02*
Y13685D01*
X18330Y9104D02*
X18380D01*
X17652Y7471D02*
Y7486D01*
Y7471D02*
Y7471D01*
X15651Y19598D02*
X16103Y19146D01*
X18089Y19160D02*
X18151D01*
X15649Y2925D02*
X16103Y3378D01*
X14696Y2615D02*
X15007Y2925D01*
X13439Y2049D02*
X13459D01*
X13051Y1641D02*
X13459Y2049D01*
X12841Y1431D02*
X13051Y1641D01*
X12430Y5337D02*
X12905Y4863D01*
X11533Y14305D02*
Y15699D01*
X11560Y7962D02*
Y12154D01*
X11285Y16390D02*
X11533Y16142D01*
X11518Y12196D02*
X11560Y12154D01*
X11263Y16798D02*
Y17368D01*
Y16475D02*
Y16798D01*
Y16412D02*
Y16475D01*
Y16390D02*
Y16412D01*
X11285Y16390D01*
X11263Y16798D02*
X11287Y16774D01*
X16995Y6427D02*
Y6762D01*
X16991Y6423D02*
X16995Y6427D01*
X12776Y1250D02*
X12934D01*
X12763D02*
X12776D01*
X20673Y13852D02*
Y14356D01*
Y13686D02*
Y13852D01*
X20669Y14360D02*
X20673Y14356D01*
X20611Y13624D02*
X20673Y13686D01*
X19732Y12744D02*
X20611Y13624D01*
X19679Y12744D02*
X19732D01*
X19658D02*
X19679D01*
X19272D02*
X19658D01*
X18704Y12176D02*
X19272Y12744D01*
X13697Y1551D02*
X13802D01*
X13637Y1491D02*
X13697Y1551D01*
X19767Y14481D02*
Y14548D01*
X18868Y13649D02*
X18912Y13693D01*
X18500Y3236D02*
Y3247D01*
X18459Y3195D02*
Y3206D01*
Y2911D02*
Y3195D01*
X18804Y11912D02*
X18891Y12000D01*
X18773Y11882D02*
X18804Y11912D01*
X18773Y11882D02*
Y11904D01*
X14986Y1887D02*
X17817D01*
X18792Y12116D02*
X18792D01*
X18746D02*
X18792D01*
X18596Y7151D02*
X18602Y7145D01*
X18619Y7128D01*
X18602Y7145D02*
Y7145D01*
Y7111D02*
Y7145D01*
Y6971D02*
Y7111D01*
X14582Y1399D02*
X17435D01*
X18722Y3426D02*
Y6403D01*
X18012Y1553D02*
X18016Y1557D01*
X13847Y1256D02*
X13909D01*
X13699D02*
X13847D01*
X13609Y1165D02*
Y1165D01*
Y1080D02*
Y1165D01*
X17649Y1373D02*
X18349D01*
X14533Y1279D02*
X17555D01*
X19768Y7810D02*
Y7861D01*
X18860Y5550D02*
X19085Y5776D01*
X18776Y1885D02*
Y2056D01*
X14557Y1339D02*
X17471D01*
X17821Y1152D02*
X17874Y1099D01*
X15360Y1034D02*
X18062D01*
X18066Y1039D01*
X17594Y3246D02*
X17893D01*
X16344Y3331D02*
X16708D01*
X22097Y2942D02*
X22191Y2848D01*
Y2115D02*
X22222Y2147D01*
X17973Y1313D02*
X18887D01*
X17751D02*
X17751D01*
X17656Y1219D02*
X17656D01*
X14892D02*
X17656D01*
X14763D02*
X14892D01*
X10545Y15570D02*
X10548D01*
X10545Y13263D02*
X10548D01*
X3331Y15570D02*
X3335D01*
X2639Y8538D02*
Y8623D01*
X3335Y3992D02*
Y4032D01*
Y3975D02*
Y3992D01*
X3351Y3975D02*
X3398D01*
X4671Y3817D02*
X4861Y4008D01*
X3476Y3947D02*
X3651D01*
X3394Y3972D02*
X3394Y3972D01*
X3398Y3975D02*
X3448D01*
X3351D02*
X3375Y3952D01*
X3335Y3992D02*
X3351Y3975D01*
X15530Y4032D02*
X15533D01*
X15529Y4032D02*
X15530Y4032D01*
Y1724D02*
X15533D01*
X15529Y1724D02*
X15530Y1724D01*
Y6339D02*
X15533D01*
X15529Y6340D02*
X15530Y6339D01*
Y8647D02*
X15533D01*
X15529Y8648D02*
X15530Y8647D01*
X15529Y13263D02*
X15530Y13263D01*
X15533D01*
X15530Y10955D02*
X15533D01*
X15529Y10955D02*
X15530Y10955D01*
X15529Y15571D02*
X15530Y15570D01*
X15533D01*
X1078Y17879D02*
X1079Y17878D01*
X1082D01*
X3331Y13263D02*
X3335D01*
X3331Y13263D02*
X3331Y13263D01*
X8292Y17878D02*
X8296D01*
X8292Y17879D02*
X8292Y17878D01*
X8292Y13263D02*
X8292Y13263D01*
X8296D01*
X8292Y8647D02*
X8296D01*
X8292Y8648D02*
X8292Y8647D01*
X8292Y6339D02*
X8296D01*
X8292Y6340D02*
X8292Y6339D01*
Y4032D02*
X8296D01*
X8292Y4032D02*
X8292Y4032D01*
Y1724D02*
X8296D01*
X8292Y1724D02*
X8292Y1724D01*
X6449Y1724D02*
X6450Y1724D01*
X6453D01*
X1078Y13263D02*
X1079Y13263D01*
X1082D01*
X3331Y10955D02*
X3335D01*
X3331Y10955D02*
X3331Y10955D01*
X1078Y10955D02*
X1079Y10955D01*
X1082D01*
X2639Y8647D02*
X2643D01*
X2639Y8648D02*
X2639Y8647D01*
X1863Y8623D02*
Y8647D01*
X1079D02*
X1082D01*
X1078Y8648D02*
X1079Y8647D01*
X3331Y15571D02*
X3331Y15570D01*
X2941Y15547D02*
X2954Y15560D01*
X2643Y15547D02*
Y15570D01*
X13664Y15606D02*
X13667D01*
X13663Y15606D02*
X13664Y15606D01*
X14412D02*
X14416D01*
X14412Y15606D02*
X14412Y15606D01*
X14038Y15582D02*
X14048Y15593D01*
X13667Y15582D02*
Y15606D01*
X20548Y17879D02*
X20548Y17878D01*
X20552D01*
X17894D02*
X17897D01*
X17893Y17879D02*
X17894Y17878D01*
X17112Y17879D02*
X17113Y17878D01*
X17116D01*
X13664D02*
X13667D01*
X13663Y17879D02*
X13664Y17878D01*
X12234D02*
X12238D01*
X12234Y17879D02*
X12234Y17878D01*
X7198D02*
X7202D01*
X7198Y17879D02*
X7198Y17878D01*
X6450D02*
X6453D01*
X6449Y17879D02*
X6450Y17878D01*
X3331D02*
X3335D01*
X3331Y17879D02*
X3331Y17878D01*
X6450Y13263D02*
X6453D01*
X6449Y13263D02*
X6450Y13263D01*
X22098Y10957D02*
X22101D01*
X22097Y10958D02*
X22098Y10957D01*
X21316Y10958D02*
X21317Y10957D01*
X21320D01*
X21316Y13263D02*
X21317Y13263D01*
X21320D01*
X21317Y15570D02*
X21320D01*
X21316Y15571D02*
X21317Y15570D01*
X21320Y15547D02*
Y15570D01*
X1078Y4032D02*
X1079Y4032D01*
X1082D01*
X1079Y6339D02*
X1082D01*
X1078Y6340D02*
X1079Y6339D01*
X1079Y1724D02*
X1082D01*
X1078Y1724D02*
X1079Y1724D01*
X21317Y6339D02*
X21320D01*
X21316Y6340D02*
X21317Y6339D01*
X21320Y6235D02*
Y6339D01*
X22098Y4032D02*
X22101D01*
X22097Y4032D02*
X22098Y4032D01*
X21316Y4032D02*
X21317Y4032D01*
X21320D01*
X22098Y8647D02*
X22101D01*
X22097Y8648D02*
X22098Y8647D01*
X21320Y8623D02*
Y8647D01*
X21317D02*
X21320D01*
X21316Y8648D02*
X21317Y8647D01*
X22098Y1724D02*
X22101D01*
X22097Y1724D02*
X22098Y1724D01*
X21317D02*
X21320D01*
X21316Y1724D02*
X21317Y1724D01*
X17894Y10955D02*
X17897D01*
X17893Y10955D02*
X17894Y10955D01*
X17116Y10932D02*
Y10955D01*
X17113D02*
X17116D01*
X17112Y10955D02*
X17113Y10955D01*
X17113Y13263D02*
X17116D01*
X17112Y13263D02*
X17113Y13263D01*
X17894D02*
X17897D01*
X17893Y13263D02*
X17894Y13263D01*
X17113Y15570D02*
X17116D01*
X17112Y15571D02*
X17113Y15570D01*
X17116Y15570D02*
Y15570D01*
X17894D02*
X17897D01*
X17893Y15571D02*
X17894Y15570D01*
Y4032D02*
X17897D01*
X17893Y4032D02*
X17894Y4032D01*
X17116Y4008D02*
Y4032D01*
X17113D02*
X17116D01*
X17112Y4032D02*
X17113Y4032D01*
X17894Y6339D02*
X17897D01*
X17893Y6340D02*
X17894Y6339D01*
X17116Y6317D02*
Y6339D01*
X17113D02*
X17116D01*
X17112Y6340D02*
X17113Y6339D01*
X17112Y8648D02*
X17113Y8647D01*
X17116D01*
X17894D02*
X17897D01*
X17893Y8648D02*
X17894Y8647D01*
X17116Y8623D02*
Y8647D01*
X17894Y1724D02*
X17897D01*
X17893Y1724D02*
X17894Y1724D01*
X17113D02*
X17116D01*
X17112Y1724D02*
X17113Y1724D01*
X9829Y13263D02*
X9832D01*
X9828Y13263D02*
X9829Y13263D01*
X9832Y13238D02*
Y13263D01*
X10544Y13263D02*
X10545Y13263D01*
X9828Y10955D02*
X9829Y10955D01*
X9832D01*
X10544Y10955D02*
X10545Y10955D01*
X10548D01*
X10544Y15571D02*
X10545Y15570D01*
X9832Y15547D02*
Y15570D01*
X9829D02*
X9832D01*
X9828Y15571D02*
X9829Y15570D01*
X10545Y4032D02*
X10548D01*
X10544Y4032D02*
X10545Y4032D01*
X9829D02*
X9832D01*
X9828Y4032D02*
X9829Y4032D01*
X10545Y6339D02*
X10548D01*
X10544Y6340D02*
X10545Y6339D01*
X9829D02*
X9832D01*
X9828Y6340D02*
X9829Y6339D01*
Y1724D02*
X9832D01*
X9828Y1724D02*
X9829Y1724D01*
X10544Y1724D02*
X10545Y1724D01*
X10548D01*
X10545Y8647D02*
X10548D01*
X10544Y8648D02*
X10545Y8647D01*
X9829D02*
X9832D01*
X9828Y8648D02*
X9829Y8647D01*
X7198Y6339D02*
X7202D01*
X7198Y6340D02*
X7198Y6339D01*
X13664Y10955D02*
X13667D01*
X13663Y10955D02*
X13664Y10955D01*
X13664Y13218D02*
X13667D01*
X13663Y13218D02*
X13664Y13218D01*
X13667Y13195D02*
Y13218D01*
X13664Y6339D02*
X13667D01*
X13663Y6340D02*
X13664Y6339D01*
Y4032D02*
X13667D01*
X13663Y4032D02*
X13664Y4032D01*
X13663Y1724D02*
X13664Y1724D01*
X13667D01*
Y8623D02*
Y8647D01*
X13664D02*
X13667D01*
X13663Y8648D02*
X13664Y8647D01*
X14374Y821D02*
X14515Y680D01*
Y506D02*
Y680D01*
X14579Y442D02*
X14768D01*
X20082Y5554D02*
X20609Y6080D01*
X22251Y2873D02*
X22279Y2846D01*
Y2630D02*
Y2846D01*
X22251Y2369D02*
Y2602D01*
Y2369D02*
X22282Y2338D01*
Y2122D02*
Y2338D01*
X14793Y950D02*
X14942Y1099D01*
X13609Y1165D02*
X13699Y1256D01*
X13909D02*
X13953Y1299D01*
Y1383D01*
X14628Y1459D02*
X17249D01*
X17314Y1523D01*
X17439D01*
X17469Y1553D01*
X17598D01*
X17602Y1557D01*
X18016D01*
X18656Y2196D01*
Y2746D01*
X18740Y2830D02*
Y3408D01*
X18722Y3426D02*
X18740Y3408D01*
X18722Y7061D02*
X18739Y7078D01*
Y7177D01*
X18718Y7198D02*
Y8795D01*
X18850Y8927D01*
Y9393D01*
X18894Y9437D01*
X19035D01*
X19261Y9663D01*
X19319D01*
X19363Y9707D01*
Y9766D02*
X19767Y10169D01*
X18826Y7081D02*
Y7162D01*
X18782Y7036D02*
X18826Y7081D01*
X18782Y6378D02*
Y7036D01*
Y6378D02*
X18800Y6359D01*
X17435Y1399D02*
X17529Y1493D01*
X14462Y1519D02*
X14582Y1399D01*
X14173Y1519D02*
X14462D01*
X13808Y1196D02*
X13934D01*
X13744Y1131D02*
X13808Y1196D01*
X13744Y953D02*
Y1131D01*
X13358Y927D02*
X13465Y1034D01*
X13280Y1325D02*
X13465Y1140D01*
X13280Y1325D02*
Y1387D01*
X13323Y1431D02*
X13663D01*
X13723Y1491D02*
X13891D01*
X14230Y1830D01*
Y1832D01*
X14345Y1947D01*
X15159Y2145D02*
X15329D01*
X15449Y2025D02*
X15617D01*
X16027Y2435D01*
X17981D02*
X17998Y2418D01*
X18136D01*
X18516Y6820D02*
X18588Y6892D01*
Y6957D01*
X18602Y6971D01*
X18596Y7151D02*
X18602Y7145D01*
X18671Y9657D02*
X18724Y9604D01*
X18671Y9768D02*
X18713Y9811D01*
X18792Y12116D02*
X18825Y12150D01*
X19148D02*
X19683Y12684D01*
X19767Y16789D02*
Y17092D01*
X19645Y16667D02*
X19767Y16789D01*
X19645Y16140D02*
Y16667D01*
X19466Y15961D02*
X19645Y16140D01*
X18748Y13934D02*
X19466Y14652D01*
X18473Y13410D02*
X18748Y13685D01*
X18431Y9345D02*
Y11443D01*
Y9345D02*
X18484Y9293D01*
Y9123D02*
Y9293D01*
X18417Y9057D02*
X18484Y9123D01*
X18404Y9044D02*
X18417Y9057D01*
X18349Y9020D02*
X18373Y9044D01*
X18349Y8027D02*
Y9020D01*
X17977Y7656D02*
X18349Y8027D01*
X17328Y7062D02*
X17712Y7446D01*
X17044Y7062D02*
X17328D01*
X16163Y3352D02*
Y3354D01*
X15318Y2474D02*
X15377Y2533D01*
X14640Y2474D02*
X15318D01*
X14580Y2414D02*
X14640Y2474D01*
X14331Y2435D02*
X14509D01*
X13542Y1989D02*
X13885D01*
X12934Y1250D02*
X12960Y1276D01*
X12593Y1080D02*
X12763Y1250D01*
X12703Y1034D02*
Y1092D01*
X12801Y1190D01*
X12959D01*
X13020Y1251D01*
Y1382D01*
X13910Y1929D02*
X14355Y2375D01*
X14484D01*
X14506Y2354D01*
X14605D01*
X14665Y2414D01*
X15343D01*
X15402Y2473D01*
X16223Y3057D02*
Y3329D01*
X16349Y3455D01*
X16748D01*
X16900Y3607D01*
X16951D01*
X16991Y3648D01*
X16995Y6928D02*
X17069Y7002D01*
X17772Y7421D02*
Y7436D01*
X17932Y7596D02*
X18002D01*
X18409Y8003D02*
Y8910D01*
X18544Y9045D01*
Y9529D01*
X18491Y9582D02*
X18544Y9529D01*
X18491Y11418D02*
X18533Y11461D01*
Y13385D01*
X19645Y14868D02*
X20426Y15649D01*
Y16667D01*
X20548Y16789D02*
Y17092D01*
X8171Y18809D02*
Y19279D01*
Y18809D02*
X8175Y18805D01*
Y18552D02*
Y18805D01*
X11263Y16390D02*
X11285D01*
X12024Y7498D02*
X12293D01*
X12355Y7436D01*
Y7240D02*
Y7436D01*
Y7240D02*
X12430Y7164D01*
Y5337D02*
Y7164D01*
X13231Y4672D02*
Y4695D01*
X13772Y2473D02*
X14230Y2931D01*
X12039Y970D02*
X12193D01*
X8292Y19695D02*
X8317Y19720D01*
X20548Y19400D02*
Y19502D01*
X22097Y19238D02*
Y19400D01*
X22020Y19160D02*
X22097Y19238D01*
X12387Y711D02*
X12456Y780D01*
X12410Y970D02*
X12456Y924D01*
X12229Y1034D02*
Y1106D01*
X12080Y1458D02*
X12249D01*
X12283Y1491D01*
X12488D01*
X12867Y1869D01*
X13084D01*
X13627Y2413D01*
X14290Y3329D02*
X14335Y3374D01*
Y3652D01*
X13291Y4697D02*
X14335Y3652D01*
X13065Y4923D02*
X13088D01*
X13047Y4941D02*
Y5128D01*
X12761Y5415D02*
X13047Y5128D01*
X12176Y7558D02*
X12317D01*
X11620Y8115D02*
X12176Y7558D01*
X9828Y14785D02*
X9868D01*
X10423Y14194D02*
X10485Y14132D01*
X11090Y11491D02*
Y11602D01*
X11033Y11434D02*
X11090Y11491D01*
X10754Y8861D02*
X11033Y9141D01*
X10754Y7396D02*
Y8861D01*
X10681Y7324D02*
X10754Y7396D01*
X10681Y7052D02*
Y7324D01*
X11079Y5977D02*
X12052Y5004D01*
X12301Y4841D02*
X12788Y4353D01*
X12792Y4357D01*
X13063D02*
X13231Y4189D01*
Y4069D02*
X13362Y3938D01*
Y3875D02*
X13530Y3707D01*
X13594D02*
X13939Y3361D01*
X13904Y3175D02*
X13939Y3210D01*
X13904Y3113D02*
Y3175D01*
X13458Y2981D02*
X13772D01*
X12359Y2147D02*
Y2300D01*
X12135Y2085D02*
X12297D01*
X11542Y1491D02*
X12135Y2085D01*
X11521Y1491D02*
X11542D01*
X11323Y1250D02*
X11442Y1369D01*
X11153Y1080D02*
Y1150D01*
X11069Y1080D02*
X11153D01*
X10544Y14481D02*
Y14785D01*
X10856Y7020D02*
X11992Y5883D01*
Y5421D02*
X12112Y5301D01*
X12174Y4901D02*
X12326D01*
X12811Y4623D02*
X12871Y4683D01*
X13051Y4454D02*
Y4620D01*
Y4454D02*
X13422Y4083D01*
Y3899D02*
X13555Y3767D01*
X13618D01*
X14050Y3174D02*
Y3335D01*
X13797Y2921D02*
X14050Y3174D01*
X13572Y2921D02*
X13797D01*
X13124Y2473D02*
X13572Y2921D01*
X12685Y2473D02*
X13124D01*
X12419Y2207D02*
X12685Y2473D01*
X12419Y2122D02*
Y2207D01*
X12160Y2025D02*
X12321D01*
X11545Y1431D02*
X11566D01*
X11502Y1387D02*
X11545Y1431D01*
X11502Y1344D02*
Y1387D01*
X11277Y1190D02*
X11347D01*
X11213Y1126D02*
X11277Y1190D01*
X11072Y821D02*
Y860D01*
X10340Y12477D02*
X10485Y12332D01*
X10548D01*
X10948Y11659D02*
Y11932D01*
X11030Y11515D02*
Y11577D01*
X10895Y9781D02*
Y11380D01*
X10882Y9707D02*
Y9769D01*
Y9707D02*
X10895Y9694D01*
Y9294D02*
Y9694D01*
Y9294D02*
X10913Y9276D01*
X10804Y9105D02*
X10913Y9214D01*
X10423Y7226D02*
Y7436D01*
Y7226D02*
X11019Y6630D01*
Y5946D02*
Y6630D01*
Y5946D02*
X11939Y5027D01*
X11992Y4913D02*
X12125Y4781D01*
X12199D02*
X12650Y4329D01*
X12685Y4293D02*
X12813D01*
X13038Y4297D02*
X13171Y4164D01*
Y3947D02*
Y4164D01*
Y3947D02*
X13667Y3451D01*
X13765D01*
X13747Y3041D02*
X13844Y3138D01*
X13433Y3041D02*
X13747D01*
X11362Y1431D02*
X12116Y2185D01*
X11050Y1190D02*
X11291Y1431D01*
X11023Y1190D02*
X11050D01*
X10818Y821D02*
X10959Y962D01*
X10163Y506D02*
Y772D01*
X9525Y416D02*
X10072D01*
X9435Y506D02*
X9525Y416D01*
X9184Y775D02*
X9248Y711D01*
X8927Y1034D02*
X9030Y931D01*
X9286Y1281D02*
X9330Y1325D01*
Y1387D01*
X9226Y1491D02*
X9330Y1387D01*
X8996Y1491D02*
X9226D01*
X8417Y2071D02*
X8996Y1491D01*
X8355Y2375D02*
X8417Y2313D01*
X7983Y7249D02*
X8292Y7557D01*
X9181Y1031D02*
X9281Y931D01*
X9181Y1031D02*
Y1126D01*
X9249Y1194D01*
X9410Y1319D02*
Y1393D01*
X8477Y2095D02*
X8994Y1579D01*
X8043Y6797D02*
X8237Y6990D01*
X8400D01*
X9703Y821D02*
X9802D01*
X9538Y931D02*
X9593D01*
X9435Y1034D02*
Y1245D01*
X9470Y1280D02*
Y1418D01*
X9288Y1599D02*
X9470Y1418D01*
X9288Y1599D02*
Y1696D01*
X9115Y1869D02*
X9288Y1696D01*
X8171Y2644D02*
X8320Y2495D01*
X8171Y2644D02*
Y5128D01*
X8292Y5250D02*
Y5554D01*
X13518Y3391D02*
X13663Y3246D01*
X12234D02*
X12379Y3391D01*
X8292Y3130D02*
X8328Y3093D01*
X8597Y2472D02*
Y2637D01*
X9348Y1624D02*
X9545Y1427D01*
X9828Y3133D02*
Y3246D01*
X5712D02*
X5826Y3132D01*
X6622Y3101D02*
X7168Y2555D01*
X9180Y1431D02*
X9255Y1356D01*
X2639Y3246D02*
X2908Y2976D01*
Y2956D02*
Y2976D01*
Y2956D02*
X3367Y2498D01*
X4328D02*
X4372Y2454D01*
Y2079D02*
X4582Y1869D01*
X8893Y506D02*
Y674D01*
X3134Y4534D02*
Y5058D01*
Y4534D02*
X3276Y4393D01*
X3393Y4177D02*
X3548Y4023D01*
X3248Y4177D02*
X3393D01*
X3210Y4138D02*
X3248Y4177D01*
X3452Y3887D02*
X3696Y3642D01*
X4250D01*
X4955Y2533D02*
X5180D01*
X5375Y2337D02*
X5500D01*
X5595Y2147D02*
Y2242D01*
X6208Y1592D02*
Y1727D01*
X8617Y1190D02*
X8783Y1356D01*
X6449Y7557D02*
X6571Y7436D01*
Y7063D02*
X6664Y6970D01*
Y5479D02*
Y6970D01*
X6555Y5370D02*
X6664Y5479D01*
X5205Y3924D02*
Y4485D01*
X5108Y3827D02*
X5205Y3924D01*
X4719Y3088D02*
X4886Y2921D01*
X5591Y2655D02*
Y2809D01*
Y2655D02*
X5653Y2593D01*
X5886D01*
X6394Y2085D02*
X6601D01*
X7135Y1551D02*
X7388D01*
X7689Y1250D01*
X8423D02*
X8529Y1356D01*
X2106Y7861D02*
X2639D01*
X1961Y8006D02*
X2106Y7861D01*
X961Y6665D02*
Y6928D01*
X961Y4620D02*
X1203Y4863D01*
X961Y4455D02*
X1023Y4393D01*
X2499D01*
X2570Y4321D01*
X2753D02*
X3305Y3768D01*
X4225Y3288D02*
X4675Y2837D01*
X4911Y2473D02*
X5155D01*
X6327Y1388D02*
X6612D01*
X6751Y1250D01*
X7343Y1236D02*
X7406D01*
X7421Y1221D02*
X7527D01*
X7657Y1034D02*
Y1092D01*
Y1034D02*
X7721Y970D01*
X8165D02*
X8275Y1080D01*
X5712Y10169D02*
X6146D01*
X6724Y5454D02*
Y6995D01*
X6208Y5178D02*
X6319Y5289D01*
X6208Y5023D02*
Y5178D01*
X5987Y4803D02*
X6208Y5023D01*
X5607Y4803D02*
X5987D01*
X5293Y4488D02*
X5607Y4803D01*
X4803Y3525D02*
X5045Y3767D01*
X4803Y3403D02*
Y3525D01*
X4779Y3378D02*
X4803Y3403D01*
X4779Y3113D02*
X4911Y2981D01*
X6172Y2883D02*
X6509D01*
X6571Y2821D01*
Y2736D02*
X6909Y2397D01*
Y2372D02*
X6963Y2318D01*
X7086D01*
X7143Y2375D01*
X7261D01*
X7747Y1310D02*
X8229D01*
X8275Y1356D01*
X2494Y10314D02*
X2639Y10169D01*
X1019Y10314D02*
X2494D01*
X957Y8565D02*
Y10252D01*
X901Y6953D02*
X957Y7009D01*
X901Y4430D02*
Y5580D01*
Y4430D02*
X998Y4333D01*
X1936D01*
X2008Y4261D02*
X2702D01*
X3255Y3708D01*
X3941Y3228D02*
X4200D01*
X4615Y2812D01*
X5130Y2413D02*
X5493Y2049D01*
X5523D01*
X5607Y1965D01*
X5801D01*
X6088Y1677D01*
Y1542D02*
Y1677D01*
Y1542D02*
X6440Y1190D01*
X7304D02*
X7318Y1176D01*
X7382D01*
X7403Y1155D01*
Y1034D02*
Y1155D01*
X7522Y970D02*
X7660Y833D01*
Y775D02*
Y833D01*
Y775D02*
X7724Y711D01*
X7815D02*
X7880Y775D01*
Y790D01*
X7367Y2439D02*
X7451D01*
X7311Y2495D02*
X7367Y2439D01*
X6981Y2495D02*
X7311D01*
X6691Y2786D02*
X6981Y2495D01*
X6222Y3003D02*
X6558D01*
X6176Y3049D02*
X6222Y3003D01*
X5687Y3049D02*
X6176D01*
X4961Y3101D02*
X5635D01*
X4899Y3163D02*
X4961Y3101D01*
X4899Y3163D02*
Y3329D01*
X4923Y3353D02*
Y3475D01*
X5095Y3647D02*
X5263D01*
X5413Y3797D01*
X5424Y10170D02*
X5628Y10374D01*
X5225Y10170D02*
X5424D01*
X4899Y10086D02*
Y10090D01*
X4675Y10314D02*
X4899Y10090D01*
X2982Y10627D02*
X3294Y10314D01*
X2863Y10627D02*
X2982D01*
X2740Y10750D02*
X2863Y10627D01*
X961Y11378D02*
Y11648D01*
X1199Y11886D01*
X1714Y14930D02*
X1859Y14785D01*
X841Y14760D02*
X1010Y14930D01*
X841Y11328D02*
X897Y11272D01*
Y8540D02*
X994Y8443D01*
Y8066D02*
Y8443D01*
X841Y7913D02*
X994Y8066D01*
X841Y4405D02*
X1009Y4237D01*
X1947D01*
X2007Y4177D02*
X2701D01*
X2764Y4102D02*
Y4114D01*
Y4102D02*
X4248Y2618D01*
X4378D01*
X4492Y2373D02*
Y2504D01*
Y2373D02*
X4781Y2085D01*
X5147D02*
X6570Y662D01*
X7403D02*
X7513Y552D01*
X2393Y15030D02*
X2639Y14785D01*
X763Y4398D02*
Y14767D01*
Y4398D02*
X984Y4177D01*
X2708Y3391D02*
X3390D01*
X4133Y2625D02*
Y2647D01*
Y2625D02*
X4201Y2558D01*
X4353D01*
X4432Y2479D01*
Y2348D02*
Y2479D01*
X7406Y775D02*
X7470Y711D01*
X7259Y980D02*
X7406Y833D01*
X2643Y6971D02*
X2692Y7020D01*
X1082Y2230D02*
Y2352D01*
X9832Y4330D02*
Y4538D01*
X9864Y11300D02*
X10708D01*
X9832Y11332D02*
Y11461D01*
Y18384D02*
Y18491D01*
X9916Y18575D02*
X10752D01*
X20552Y18384D02*
Y18539D01*
X18943Y13618D02*
X18948Y13623D01*
X19751D01*
X19756Y13618D01*
X20552Y13684D02*
Y13769D01*
X18857Y11745D02*
Y11859D01*
Y11745D02*
X18986Y11615D01*
X17116Y9153D02*
Y9270D01*
X17218Y9372D01*
X17282Y6842D02*
X17424Y6700D01*
X18142D02*
X18408Y6966D01*
X18857Y7005D02*
X18866Y6996D01*
X20498D02*
X20552Y6942D01*
X9651Y9045D02*
Y9276D01*
Y9045D02*
X9748Y8948D01*
X9820D01*
X10014Y8755D01*
X9559Y7656D02*
X9912D01*
X8544Y4836D02*
X10043Y3337D01*
Y3032D02*
Y3337D01*
X9893Y2883D02*
X10043Y3032D01*
X9769Y2883D02*
X9893D01*
X9680Y2793D02*
X9769Y2883D01*
X9680Y1369D02*
X9724Y1325D01*
X10102Y1596D02*
X10438D01*
X10636Y1325D02*
Y1398D01*
X10572Y1261D02*
X10636Y1325D01*
X10391Y1150D02*
X10490Y1250D01*
X10391Y1080D02*
Y1150D01*
X9795Y8888D02*
X9954Y8730D01*
X8993Y7498D02*
X9170D01*
X8931Y7192D02*
Y7436D01*
X8417Y6678D02*
X8931Y7192D01*
X8417Y4878D02*
X9950Y3346D01*
X9408Y2621D02*
X9950Y3163D01*
X9652Y1231D02*
Y1312D01*
Y1231D02*
X9662Y1221D01*
X10424Y1483D02*
X10551Y1356D01*
Y1346D02*
Y1356D01*
X9056Y4538D02*
Y4561D01*
X9512D02*
X9662Y4711D01*
X10544D01*
X10830Y4997D01*
X17116Y13769D02*
Y13792D01*
X18239Y13992D02*
X18374Y13858D01*
X9844Y970D02*
X9943Y1068D01*
Y1126D01*
X10007Y1190D02*
X10098D01*
X10451Y1055D02*
Y1126D01*
X12234Y3027D02*
Y3246D01*
X18222Y16405D02*
X18450Y16177D01*
X15749Y16405D02*
X18222D01*
X15533Y16190D02*
X15749Y16405D01*
X15533Y16076D02*
Y16190D01*
X22097Y2942D02*
Y3246D01*
X17681Y1159D02*
X17775Y1253D01*
X14733Y974D02*
X14917Y1159D01*
X14733Y936D02*
Y974D01*
X14628Y831D02*
X14733Y936D01*
X17559Y1403D02*
X17589Y1433D01*
X17536Y1403D02*
X17559D01*
X17471Y1339D02*
X17536Y1403D01*
X12274Y1398D02*
X12307Y1431D01*
X13459Y2049D02*
X13860D01*
X14335Y2524D02*
X14606D01*
X15007Y2925D02*
X15649D01*
X16723Y3999D02*
Y6826D01*
X17019Y7122D02*
X17303D01*
X17652Y7471D01*
Y7486D02*
X17883Y7716D01*
X11155Y9654D02*
X11338Y9837D01*
X22101Y11294D02*
Y11463D01*
X11948Y11912D02*
Y12225D01*
Y11912D02*
X12075Y11785D01*
X13101Y1356D02*
Y1378D01*
X13274Y1551D01*
X13286D01*
X13604Y1869D02*
X14098D01*
X14296Y2067D02*
X14912D01*
X15198Y2354D01*
X15867Y2555D02*
X18103D01*
X18459Y2911D01*
Y3195D02*
X18500Y3236D01*
X18459Y3349D02*
X18500Y3309D01*
X18468Y6941D02*
Y7007D01*
X18482Y7020D01*
X18604Y9020D02*
Y9554D01*
X18551Y9607D02*
Y9818D01*
X18593Y9861D01*
Y13360D02*
X18868Y13635D01*
Y13649D01*
X19767Y14548D02*
Y14785D01*
X14120Y1190D02*
X14314Y1384D01*
X14427D02*
X14533Y1279D01*
X17555D02*
X17649Y1373D01*
X18920Y5434D02*
X19202Y5716D01*
X19767Y3058D02*
Y3246D01*
X19032Y2323D02*
X19767Y3058D01*
X19032Y1458D02*
Y2323D01*
X18887Y1313D02*
X19032Y1458D01*
X17656Y1219D02*
X17751Y1313D01*
X14625Y1080D02*
X14763Y1219D01*
X8921Y12608D02*
X9052Y12477D01*
X8365Y12608D02*
X8921D01*
X8351Y12622D02*
X8365Y12608D01*
X8171Y12560D02*
X8233Y12622D01*
X9858Y9008D02*
X10074Y8793D01*
Y7733D02*
Y8793D01*
X9707Y6746D02*
Y7523D01*
X11391Y5089D02*
X11413Y5067D01*
X13722Y3391D02*
X13784Y3329D01*
X13018Y3134D02*
X13571D01*
X12985Y3101D02*
X13018Y3134D01*
X12392Y3101D02*
X12985D01*
X12112Y2701D02*
Y2821D01*
X11883Y2472D02*
X12112Y2701D01*
X11840Y2472D02*
X11883D01*
X10815Y1356D02*
X11797Y2338D01*
X13430Y1281D02*
X13640D01*
X14290Y1807D02*
X14370Y1887D01*
X17817D02*
X18347Y2417D01*
X18662Y7086D02*
X18679Y7103D01*
X18656Y7175D02*
X18679Y7152D01*
X18656Y8818D02*
X18784Y8946D01*
X18731Y9681D02*
X18784Y9629D01*
X18731Y9744D02*
X18773Y9786D01*
Y11904D02*
X18782Y11912D01*
X18804D01*
X18891Y12000D02*
X19083D01*
X19708Y12624D01*
X19826D01*
X19971Y12479D01*
X20548D01*
X11745Y8140D02*
X11757Y8128D01*
X9707Y16971D02*
X9828Y17092D01*
X9707Y15997D02*
X9989Y15716D01*
X10607D01*
X13111Y4560D02*
Y4645D01*
Y4560D02*
X13482Y4189D01*
Y3924D02*
Y4189D01*
Y3924D02*
X13580Y3827D01*
X13643D02*
X14110Y3360D01*
X12709Y2413D02*
X13149D01*
X12479Y2182D02*
X12709Y2413D01*
X12479Y2097D02*
Y2182D01*
X12311Y1929D02*
X12479Y2097D01*
X11608Y1388D02*
X12150Y1929D01*
X11608Y1388D02*
Y1388D01*
X11577Y1356D02*
X11608Y1388D01*
X10544Y16912D02*
Y17092D01*
X11461Y9928D02*
Y10289D01*
Y9928D02*
X11491Y9899D01*
X12112Y6936D02*
X12121Y6944D01*
X13038Y4803D02*
X13171Y4670D01*
Y4585D02*
Y4670D01*
Y4585D02*
X13542Y4214D01*
Y3949D02*
Y4214D01*
X13604Y3887D02*
X13668D01*
X14170Y2956D02*
Y3384D01*
X13354Y2533D02*
X13747D01*
X13051Y2230D02*
X13354Y2533D01*
X13051Y2147D02*
Y2230D01*
X12989Y2085D02*
X13051Y2147D01*
X12174Y1869D02*
X12336D01*
X12112Y1807D02*
X12174Y1869D01*
X12112Y1784D02*
Y1807D01*
X11323Y1080D02*
X11408D01*
X6100Y10314D02*
X6969Y9445D01*
Y7833D02*
Y9445D01*
X6691Y7113D02*
X6784Y7020D01*
Y5429D02*
Y7020D01*
X6268Y5153D02*
X6343Y5229D01*
X5353Y4463D02*
X5632Y4743D01*
X5353Y3821D02*
Y4463D01*
X5238Y3707D02*
X5353Y3821D01*
X5070Y3707D02*
X5238D01*
X4863Y3500D02*
X5070Y3707D01*
X4863Y3378D02*
Y3500D01*
X4936Y3041D02*
X5610D01*
X5662Y2989D01*
X6151D01*
X6197Y2943D01*
X6533D01*
X6631Y2761D02*
Y2846D01*
Y2761D02*
X6957Y2435D01*
X7286D01*
X7427Y2379D02*
X7443Y2362D01*
Y1941D02*
Y2362D01*
Y1941D02*
X7757Y1628D01*
X6487Y17079D02*
Y17089D01*
X2643Y9014D02*
X2693Y8963D01*
X2643Y9014D02*
Y9153D01*
X13363Y17297D02*
X13507Y17152D01*
X12847Y1080D02*
X12942D01*
X13220Y1358D01*
Y1412D01*
X13299Y1491D01*
X14170Y1855D02*
Y1857D01*
X14321Y2007D02*
X14937D01*
X15223Y2294D02*
X15393D01*
X15412Y2274D01*
X16002Y2495D02*
X18128D01*
X18560Y2926D01*
X18456Y4985D02*
X18519Y4922D01*
X18456Y4985D02*
Y6844D01*
X18528Y6917D01*
X18611Y9632D02*
X18664Y9579D01*
X18611Y9632D02*
Y9793D01*
X18653Y9836D01*
Y12126D01*
X20548Y14481D02*
Y14785D01*
X17893Y13263D02*
Y13322D01*
X17345Y13337D02*
X17360Y13322D01*
X14412Y6339D02*
Y6340D01*
X13667Y6339D02*
Y6339D01*
X14412Y6340D02*
X14412Y6339D01*
X1078Y10054D02*
Y10169D01*
X3733Y10993D02*
X4318D01*
X1153Y11638D02*
X2037D01*
X1082Y11567D02*
X1153Y11638D01*
X1082Y9042D02*
X1280Y8844D01*
X1082Y9042D02*
Y9153D01*
X4277Y10754D02*
X4368Y10663D01*
X4649D01*
X4683Y10697D01*
Y10983D01*
X4551Y11115D02*
X4683Y10983D01*
X4094Y11115D02*
X4551D01*
X3690Y11518D02*
X4094Y11115D01*
X3690Y11518D02*
Y11767D01*
X3820Y11897D01*
X4709D01*
X4888Y11615D02*
X5716D01*
X4816Y11543D02*
X4888Y11615D01*
X5716Y11461D02*
Y11615D01*
X18120Y18742D02*
X18336Y18526D01*
X12595Y18704D02*
X17920D01*
X11338Y18780D02*
X11386Y18732D01*
X10444Y1666D02*
X10454Y1656D01*
X10373Y1666D02*
X10444D01*
X10340Y1699D02*
X10373Y1666D01*
X9832Y1699D02*
Y1724D01*
X6491Y15544D02*
Y15567D01*
X12930Y10932D02*
Y10955D01*
X1863Y1701D02*
Y1724D01*
X1082Y1712D02*
Y1724D01*
X21320Y4008D02*
Y4032D01*
X21663Y4008D02*
X21752Y3919D01*
X1082Y3852D02*
Y4032D01*
Y3852D02*
X1153Y3782D01*
X1620D01*
X1859Y4020D01*
X21320Y13238D02*
Y13263D01*
X1859Y13263D02*
Y13276D01*
X17254Y1793D02*
X17345Y1701D01*
X1082Y8623D02*
Y8647D01*
X17893Y8648D02*
Y8760D01*
X1859Y7744D02*
Y7861D01*
Y7744D02*
X1958Y7645D01*
X6360D01*
X6449Y7735D01*
X8292Y10071D02*
Y10169D01*
X1859Y19400D02*
X2169D01*
X2326Y19243D01*
X2905D01*
X3063Y19400D01*
X3331D01*
X14412Y1724D02*
X14412Y1724D01*
X14416D01*
X14412Y4032D02*
X14416D01*
X14412Y4032D02*
X14412Y4032D01*
Y6339D02*
X14416D01*
X12926Y10955D02*
X12930D01*
X12926Y10955D02*
X12926Y10955D01*
X7198Y1724D02*
X7202D01*
X7198Y1724D02*
X7198Y1724D01*
Y4032D02*
X7202D01*
X7198Y4032D02*
X7198Y4032D01*
X7198Y10955D02*
X7198Y10955D01*
X7202D01*
X7198Y8647D02*
X7202D01*
X7198Y8648D02*
X7198Y8647D01*
X2639Y6339D02*
X2643D01*
X2639Y6340D02*
X2639Y6339D01*
Y4032D02*
X2643D01*
X2639Y4032D02*
X2639Y4032D01*
X6487Y15567D02*
X6491D01*
X6487Y15567D02*
X6487Y15567D01*
X2639Y15570D02*
X2643D01*
X2639Y15571D02*
X2639Y15570D01*
Y10955D02*
X2643D01*
X2639Y10955D02*
X2639Y10955D01*
X5712Y4032D02*
X5713Y4032D01*
X5716D01*
X5713Y8647D02*
X5716D01*
X5712Y8648D02*
X5713Y8647D01*
Y10955D02*
X5716D01*
X5712Y10955D02*
X5713Y10955D01*
X1077Y15567D02*
X1081D01*
X1077Y15567D02*
X1077Y15567D01*
X15529Y17879D02*
X15530Y17878D01*
X15533D01*
X19769Y10957D02*
X19771D01*
X19768Y10958D02*
X19769Y10957D01*
X19767Y10958D02*
X19768D01*
X19769Y13263D02*
X19771D01*
X19768Y13263D02*
X19769Y13263D01*
X19767Y13263D02*
X19768D01*
X20549Y15570D02*
X20552D01*
X20548Y15571D02*
X20549Y15570D01*
X20548Y15571D02*
X20548D01*
X19769Y15570D02*
X19771D01*
X19767Y15571D02*
X19768D01*
X19769Y15570D01*
X17116Y4538D02*
Y4561D01*
X17599Y4732D02*
X18354D01*
X17116Y6845D02*
Y6870D01*
X17149D02*
X17221Y6942D01*
X19708Y11826D02*
X20189D01*
X20552Y11463D01*
X17129Y11612D02*
X18267D01*
X18338Y11541D01*
X17116Y13769D02*
X17256Y13629D01*
Y13472D02*
Y13629D01*
X10015Y16075D02*
X10177Y16238D01*
X11041D01*
X11313Y15966D01*
X9832Y13650D02*
X9906Y13576D01*
X10787D01*
X13667Y9052D02*
Y9153D01*
X13599Y8984D02*
X13667Y9052D01*
X11943Y8984D02*
X13599D01*
X9832Y9153D02*
Y9177D01*
X9944D02*
X10149Y9382D01*
X1082Y4538D02*
Y4539D01*
X1265Y4721D01*
X2255D01*
X3481Y4237D02*
X3512Y4206D01*
X3931D01*
X3951Y4226D01*
X5716Y6794D02*
Y6845D01*
X3999Y6902D02*
X4201Y6700D01*
X4125Y7020D02*
X6304D01*
X6453Y6870D01*
Y11300D02*
Y11461D01*
X4709Y18691D02*
Y18953D01*
X4836Y19080D01*
X6714D02*
X7202Y18592D01*
Y18384D02*
Y18592D01*
X12234Y2738D02*
X12926D01*
X5020Y19259D02*
Y19400D01*
Y19259D02*
X5090Y19189D01*
X6449Y19279D02*
Y19400D01*
X2639Y14785D02*
Y14785D01*
X3331Y14785D02*
Y14785D01*
X5020Y14666D02*
Y14785D01*
X4918Y14564D02*
X5020Y14666D01*
X3375Y12270D02*
X6360D01*
X6449Y12360D01*
Y12477D01*
X1078Y12476D02*
Y12477D01*
X1859Y12476D02*
Y12477D01*
X7198Y10169D02*
Y10295D01*
X2639Y7861D02*
X3331D01*
X1891Y5712D02*
X6408D01*
X1859Y5680D02*
X1891Y5712D01*
X7122Y3449D02*
X7198Y3373D01*
X5149Y3449D02*
X7122D01*
X5020Y3320D02*
X5149Y3449D01*
X13007Y5313D02*
X14038D01*
X8363Y8069D02*
X9757D01*
X12926Y7744D02*
Y7861D01*
Y7744D02*
X13017Y7653D01*
X10544Y10169D02*
Y10254D01*
X10427Y10315D02*
X10488Y10254D01*
X14412Y10144D02*
Y10169D01*
X13004Y9951D02*
X14076D01*
X9380Y12476D02*
X9588Y12684D01*
X10494D01*
X9828Y12361D02*
Y12477D01*
X14412D02*
Y12634D01*
X14409Y12636D02*
X14412Y12634D01*
X9828Y14785D02*
Y14936D01*
X8788Y14975D02*
X9789D01*
X8595Y14782D02*
X8788Y14975D01*
X8292Y14782D02*
Y14785D01*
X13914Y14970D02*
X14145Y14739D01*
X12926Y14740D02*
Y14869D01*
X9828Y17092D02*
Y17207D01*
X9662Y17373D02*
X9828Y17207D01*
X13002Y16875D02*
X14038D01*
X9828Y19400D02*
Y19403D01*
X13663Y19375D02*
Y19400D01*
X17853Y19255D02*
X17893Y19295D01*
X16353Y19255D02*
X17853D01*
X16344Y19264D02*
X16353Y19255D01*
X15567Y12291D02*
X17028D01*
X15529Y12329D02*
Y12477D01*
X17044Y10353D02*
X17112Y10284D01*
X15598Y10353D02*
X17044D01*
X15529Y10284D02*
X15598Y10353D01*
X15529Y10169D02*
Y10284D01*
X17112Y7861D02*
Y8002D01*
X17028Y8087D02*
X17112Y8002D01*
X15529Y7998D02*
X15618Y8087D01*
X22097Y7861D02*
X22097Y7861D01*
X21851Y7861D02*
X22097D01*
X21582Y8130D02*
X21851Y7861D01*
X20548Y7861D02*
Y7967D01*
X19767Y7861D02*
X19768D01*
Y7810D02*
X19895Y7683D01*
X21316Y7572D02*
Y7861D01*
X20548Y5673D02*
X20711Y5837D01*
X20548Y5554D02*
Y5673D01*
X17893Y3246D02*
Y3246D01*
X16827Y3449D02*
X17391D01*
X16708Y3331D02*
X16827Y3449D01*
X20639Y3454D02*
X22021D01*
X20548Y3363D02*
X20639Y3454D01*
X3335Y6220D02*
X3398Y6157D01*
X3335Y6220D02*
Y6339D01*
X3398Y6157D02*
X3746D01*
X12926Y4032D02*
X12930Y4032D01*
X5020Y8648D02*
Y8671D01*
X4099Y8702D02*
X4130Y8671D01*
X3394Y3972D02*
X3398Y3975D01*
X3375Y3952D02*
X3393Y3970D01*
X10469Y18162D02*
X11263Y17368D01*
X18807Y14339D02*
Y18387D01*
X17893Y17878D02*
X17893Y17879D01*
X17116Y17878D02*
X17893D01*
X13396Y17612D02*
X13663Y17879D01*
X8459Y17373D02*
X9662D01*
X9154Y17665D02*
X10433D01*
X6322Y17879D02*
X6449D01*
X6131Y17688D02*
X6322Y17879D01*
X4912Y17688D02*
X6131D01*
X4721Y17879D02*
X4912Y17688D01*
X9651Y9276D02*
X10544Y10169D01*
X10499Y10024D02*
X10604D01*
X9711Y9236D02*
X10499Y10024D01*
X9711Y9070D02*
Y9236D01*
X9773Y9008D02*
X9858D01*
X9723Y8888D02*
X9795D01*
X9591Y9020D02*
X9723Y8888D01*
X9711Y9070D02*
X9773Y9008D01*
X9954Y7782D02*
Y8730D01*
X10014Y7758D02*
Y8755D01*
X9912Y7656D02*
X10014Y7758D01*
X9937Y7596D02*
X10074Y7733D01*
X9887Y7716D02*
X9954Y7782D01*
X9781Y7596D02*
X9937D01*
X9707Y7523D02*
X9781Y7596D01*
X8931Y7436D02*
X8993Y7498D01*
X9052Y7642D02*
Y7861D01*
X8871Y7216D02*
Y7461D01*
X8259Y6587D02*
X8490D01*
X8234Y6647D02*
X8387D01*
X8931Y7192D01*
X8103Y6516D02*
X8234Y6647D01*
X8171Y6499D02*
X8259Y6587D01*
X8171Y6257D02*
Y6499D01*
X7983Y2628D02*
Y7249D01*
X8103Y6239D02*
Y6516D01*
X8645Y6990D02*
X8871Y7216D01*
X8171Y6257D02*
X8233Y6194D01*
X8276D01*
X8544Y5926D01*
Y4836D02*
Y5926D01*
X7983Y2628D02*
X8237Y2375D01*
X8208Y6134D02*
X8251D01*
X8103Y6239D02*
X8208Y6134D01*
X8043Y6215D02*
X8224Y6033D01*
Y5710D02*
Y6033D01*
X8251Y6134D02*
X8417Y5968D01*
X8303Y6254D02*
X8460Y6097D01*
X8303Y6254D02*
X8357D01*
X9950Y3163D02*
Y3346D01*
X9560Y1581D02*
Y2674D01*
Y1581D02*
X9680Y1462D01*
X9223Y1579D02*
X9410Y1393D01*
X9545Y1356D02*
Y1427D01*
X9620Y1344D02*
Y1437D01*
X9408Y1649D02*
X9620Y1437D01*
X9435Y1245D02*
X9470Y1280D01*
X9285Y1194D02*
X9410Y1319D01*
X9978Y1344D02*
Y1387D01*
X9824Y1191D02*
X9978Y1344D01*
X9773Y1191D02*
X9824D01*
X10073Y1483D02*
X10424D01*
X9978Y1387D02*
X10073Y1483D01*
X10572Y1250D02*
Y1261D01*
X10490Y1250D02*
X10572D01*
X10307Y1080D02*
X10391D01*
X10261Y970D02*
X10365D01*
X10451Y1055D01*
X10738Y1391D02*
X11737Y2389D01*
X10597Y1190D02*
X10738Y1331D01*
X10515Y1190D02*
X10597D01*
X10451Y1126D02*
X10515Y1190D01*
X8292Y7998D02*
X8363Y8069D01*
X9757D02*
X9828Y7998D01*
X8328Y3093D02*
X9789D01*
X8994Y1579D02*
X9223D01*
X12052Y2846D02*
X12234Y3027D01*
X12052Y2726D02*
Y2846D01*
X11859Y2532D02*
X12052Y2726D01*
X11737Y2453D02*
X11816Y2532D01*
X11737Y2389D02*
Y2453D01*
X12112Y2821D02*
X12392Y3101D01*
X11797Y2428D02*
X11840Y2472D01*
X11797Y2338D02*
Y2428D01*
X13111Y3922D02*
Y4139D01*
Y3922D02*
X13643Y3391D01*
X13722D01*
X13784Y3163D02*
Y3329D01*
X13722Y3101D02*
X13784Y3163D01*
X13604Y3101D02*
X13722D01*
X13571Y3134D02*
X13604Y3101D01*
X10680Y8900D02*
X10694Y8886D01*
X11033Y9141D02*
Y11434D01*
X11093Y9116D02*
Y9768D01*
X10856Y8878D02*
X11093Y9116D01*
X10804Y8996D02*
Y9105D01*
X10760Y8952D02*
X10804Y8996D01*
X10732Y8952D02*
X10760D01*
X10856Y7020D02*
Y8878D01*
X9868Y14785D02*
X10423Y14230D01*
Y14194D02*
Y14230D01*
X10912Y13803D02*
X10935Y13826D01*
X11014D01*
X11058Y13782D01*
Y13720D02*
Y13782D01*
X11014Y13676D02*
X11058Y13720D01*
X11009Y13676D02*
X11014D01*
X11008Y13675D02*
X11009Y13676D01*
X10962Y13751D02*
X10983D01*
X10787Y13576D02*
X10962Y13751D01*
X11008Y11684D02*
Y13675D01*
X10948Y11659D02*
X11030Y11577D01*
X10895Y11380D02*
X11030Y11515D01*
X10548Y12332D02*
X10948Y11932D01*
X10913Y9214D02*
Y9276D01*
X11093Y9768D02*
X11186Y9860D01*
X10701Y9382D02*
X10838Y9245D01*
X10149Y9382D02*
X10701D01*
X10683Y7301D02*
X10754Y7373D01*
X10683Y7051D02*
X11079Y6654D01*
X10423Y7436D02*
X10694Y7707D01*
X11079Y5977D02*
Y6654D01*
X9707Y6746D02*
X11365Y5089D01*
X11369D01*
X11939Y5014D02*
Y5027D01*
Y5014D02*
X11992Y4960D01*
Y4913D02*
Y4960D01*
X12052Y4938D02*
Y5004D01*
Y4938D02*
X12150Y4841D01*
X12301D01*
X12326Y4901D02*
X12604Y4623D01*
X12811D01*
X12125Y4781D02*
X12199D01*
X12650Y4328D02*
Y4329D01*
X12112Y4963D02*
Y5301D01*
Y4963D02*
X12174Y4901D01*
X12355Y5055D02*
Y5143D01*
X12112Y5471D02*
X12415Y5168D01*
Y5080D02*
Y5168D01*
X12052Y5446D02*
X12355Y5143D01*
X12650Y4328D02*
X12685Y4293D01*
X12126Y4328D02*
X12565D01*
X12660Y4233D01*
X12792Y4357D02*
X13063D01*
X13231Y4069D02*
Y4189D01*
X13422Y3899D02*
Y4083D01*
X12842Y4237D02*
X13013D01*
X13111Y4139D01*
X12817Y4297D02*
X13038D01*
X12727Y4683D02*
X12786D01*
X12846Y4743D01*
X12838Y4233D02*
X12842Y4237D01*
X12813Y4293D02*
X12817Y4297D01*
X12871Y4683D02*
X12989D01*
X13051Y4620D01*
X13047Y4941D02*
X13065Y4923D01*
X13088D02*
X13291Y4720D01*
Y4697D02*
Y4720D01*
X12905Y4863D02*
X13063D01*
X13231Y4695D01*
Y4672D02*
X14275Y3627D01*
X13171Y4585D02*
X13542Y4214D01*
X12846Y4743D02*
X13014D01*
X13111Y4645D01*
X13362Y3875D02*
Y3938D01*
X13530Y3707D02*
X13594D01*
X13618Y3767D02*
X14050Y3335D01*
X13668Y3887D02*
X14170Y3384D01*
X13542Y3949D02*
X13604Y3887D01*
X13580Y3827D02*
X13643D01*
X13765Y3451D02*
X13844Y3371D01*
X13939Y3210D02*
Y3361D01*
X13844Y3138D02*
Y3371D01*
X14110Y3150D02*
Y3360D01*
X13784Y2823D02*
X14110Y3150D01*
X14230Y2931D02*
Y3354D01*
X14290Y2906D02*
Y3329D01*
X13772Y2981D02*
X13904Y3113D01*
X13747Y2533D02*
X14170Y2956D01*
X14230Y3354D02*
X14275Y3399D01*
X12985Y2593D02*
X13433Y3041D01*
X13010Y2533D02*
X13458Y2981D01*
X13329Y2593D02*
X13722D01*
X13149Y2413D02*
X13329Y2593D01*
X13784Y2655D02*
Y2823D01*
X13797Y2413D02*
X14290Y2906D01*
X13627Y2413D02*
X13797D01*
X13602Y2473D02*
X13772D01*
X13154Y2025D02*
X13602Y2473D01*
X13722Y2593D02*
X13784Y2655D01*
X12591Y2533D02*
X13010D01*
X12359Y2300D02*
X12591Y2533D01*
X12396Y2593D02*
X12985D01*
X12743Y2025D02*
X13154D01*
X12269Y1551D02*
X12743Y2025D01*
X12871Y2085D02*
X12989D01*
X12297D02*
X12359Y2147D01*
X12150Y1929D02*
X12311D01*
X11566Y1431D02*
X12160Y2025D01*
X12336Y1869D02*
X12539Y2072D01*
X12321Y2025D02*
X12419Y2122D01*
X11408Y1080D02*
X12112Y1784D01*
X11442Y1412D02*
X11521Y1491D01*
X11442Y1369D02*
Y1412D01*
X11252Y1250D02*
X11323D01*
X11153Y1150D02*
X11252Y1250D01*
X11347Y1190D02*
X11502Y1344D01*
X11213Y1001D02*
Y1126D01*
X8233Y12622D02*
X8351D01*
X9832Y11332D02*
X9864Y11300D01*
X9725Y12258D02*
X9828Y12361D01*
X10708Y11300D02*
X10955Y11546D01*
X10882Y9769D02*
X10895Y9781D01*
X9828Y7861D02*
Y7998D01*
X9832Y6706D02*
X9940Y6599D01*
X9832Y6706D02*
Y6845D01*
X11439Y5015D02*
Y5019D01*
Y5015D02*
X12126Y4328D01*
X9828Y12477D02*
X10340D01*
X11992Y5421D02*
Y5883D01*
X12116Y2313D02*
X12396Y2593D01*
X12116Y2185D02*
Y2313D01*
X11354Y1431D02*
X11358Y1427D01*
X11291Y1431D02*
X11354D01*
X10959Y1126D02*
X11023Y1190D01*
X10959Y1027D02*
Y1126D01*
X11072Y860D02*
X11213Y1001D01*
X11948Y1415D02*
X12083Y1551D01*
X12010Y1387D02*
X12080Y1458D01*
X12010Y1325D02*
Y1387D01*
X12867Y3391D02*
X12985D01*
X11592Y12207D02*
X11620Y12179D01*
X11599Y1356D02*
X11608Y1365D01*
X11948Y1061D02*
Y1415D01*
Y1061D02*
X12039Y970D01*
X12085Y1356D02*
X12126Y1398D01*
X13860Y2049D02*
X14335Y2524D01*
X13885Y1989D02*
X14331Y2435D01*
X12960Y1407D02*
X13542Y1989D01*
X13567Y1929D02*
X13910D01*
X13020Y1382D02*
X13567Y1929D01*
X13286Y1551D02*
X13604Y1869D01*
X14275Y3399D02*
Y3627D01*
X11560Y7962D02*
X12024Y7498D01*
X11620Y8115D02*
X12176Y7558D01*
X11458Y12029D02*
X11473Y12044D01*
Y12156D01*
X11458Y12171D02*
X11473Y12156D01*
X11458Y12171D02*
Y14315D01*
X11518Y12196D02*
Y14290D01*
X11398Y12146D02*
Y14340D01*
Y7824D02*
Y12054D01*
X11413Y12069D01*
Y12131D01*
X11398Y12146D02*
X11413Y12131D01*
X11458Y14315D02*
X11473Y14330D01*
X11518Y14290D02*
X11533Y14305D01*
X11398Y14340D02*
X11413Y14355D01*
X10544Y16912D02*
X11388Y16068D01*
X11577Y1356D02*
X11599D01*
X10607Y15716D02*
X10670Y15653D01*
X13602Y3246D02*
X13663D01*
X9707Y15997D02*
Y16971D01*
X10163Y1068D02*
X10261Y970D01*
X10163Y1068D02*
Y1126D01*
X10098Y1190D02*
X10163Y1126D01*
X10053Y1080D02*
X10166Y967D01*
Y775D02*
Y967D01*
X9655Y970D02*
X9844D01*
X9943Y1126D02*
X10007Y1190D01*
X10163Y772D02*
X10166Y775D01*
X10072Y416D02*
X10163Y506D01*
X9435D02*
Y564D01*
X9287Y711D02*
X9435Y564D01*
X9248Y711D02*
X9287D01*
X9184Y775D02*
Y833D01*
X9085Y931D02*
X9184Y833D01*
X9030Y931D02*
X9085D01*
X8927Y1034D02*
Y1126D01*
X9249Y1194D02*
X9285D01*
X9181Y1031D02*
X9281Y931D01*
X9005Y1431D02*
X9068D01*
X9281Y931D02*
X9339D01*
X9404Y867D01*
Y809D02*
Y867D01*
Y809D02*
X9551Y662D01*
X9435Y1034D02*
X9538Y931D01*
X9551Y662D02*
X9590D01*
X9607Y645D01*
X9658Y852D02*
Y867D01*
Y852D02*
X9689Y821D01*
X8417Y2071D02*
Y2313D01*
X8237Y2375D02*
X8355D01*
X8328Y2905D02*
X8597Y2637D01*
X8477Y2095D02*
Y2338D01*
X8171Y2644D02*
X8320Y2495D01*
X8405D02*
X8537Y2362D01*
X8295Y2435D02*
X8380D01*
X8477Y2338D01*
X8087Y2643D02*
Y5572D01*
X8224Y5710D01*
X8292Y7557D02*
Y7861D01*
X9897Y662D02*
X10056Y821D01*
X9736Y645D02*
X9753Y662D01*
X9607Y645D02*
X9736D01*
X9545Y1080D02*
X9655Y970D01*
X8171Y5128D02*
X8292Y5250D01*
X9832Y2128D02*
Y2230D01*
Y4330D02*
X10361Y3802D01*
X8328Y2905D02*
Y3093D01*
X11984Y670D02*
X12278D01*
X12319Y711D01*
X12410Y970D02*
X12456Y924D01*
X12293Y970D02*
X12410D01*
X12229Y1034D02*
X12293Y970D01*
X12193D02*
X12342Y821D01*
X12307Y1431D02*
X12841D01*
X12083Y1551D02*
X12269D01*
X12126Y1398D02*
X12274D01*
X12596Y927D02*
X12703Y1034D01*
X12596Y821D02*
Y927D01*
X13051Y1661D02*
X13439Y2049D01*
X13051Y1641D02*
Y1661D01*
X13280Y1387D02*
X13323Y1431D01*
X12960Y1276D02*
Y1407D01*
X12606Y1080D02*
X12776Y1250D01*
X12761Y5415D02*
Y6919D01*
X12415Y7264D02*
X12761Y6919D01*
X12926Y5395D02*
X13007Y5313D01*
X12926Y5395D02*
Y5554D01*
X14038Y5313D02*
X14206Y5481D01*
X12415Y7264D02*
Y7461D01*
X8171Y19279D02*
X8292Y19400D01*
X10433Y17665D02*
X10544Y17777D01*
X11287Y16499D02*
Y16774D01*
X11263Y16475D02*
X11287Y16499D01*
X15529Y18892D02*
X16344D01*
X14412D02*
X15529D01*
X13663D02*
X14412D01*
X14488Y19598D02*
X15651D01*
X16103Y19146D02*
X18075D01*
X14412Y19522D02*
X14488Y19598D01*
X14412Y19400D02*
Y19522D01*
X16344Y19264D02*
Y19400D01*
X14412Y7744D02*
Y7861D01*
X13916Y1431D02*
X14290Y1806D01*
X13790Y1431D02*
X13916D01*
X13866Y1551D02*
X14170Y1855D01*
X13802Y1551D02*
X13866D01*
X14017Y1136D02*
X14071Y1190D01*
X14042Y1303D02*
Y1387D01*
X13953Y1383D02*
X14148Y1579D01*
X13934Y1196D02*
X14042Y1303D01*
X13918Y1136D02*
X14017D01*
X13863Y1080D02*
X13918Y1136D01*
X13822Y1281D02*
X13847Y1256D01*
X13724Y1281D02*
X13822D01*
X13663Y1431D02*
X13723Y1491D01*
X13640Y1281D02*
X13790Y1431D01*
X14606Y2524D02*
X14696Y2615D01*
X14509Y2435D02*
X14530Y2414D01*
X14580D01*
X14098Y1869D02*
X14296Y2067D01*
X14170Y1857D02*
X14321Y2007D01*
X14345Y1947D02*
X14962D01*
X14370Y1887D02*
X14986D01*
X14290Y1806D02*
Y1807D01*
X13299Y1491D02*
X13637D01*
X13355Y1356D02*
X13430Y1281D01*
X15377Y2533D02*
X15613D01*
X15402Y2473D02*
X15638D01*
X15427Y2413D02*
X15725D01*
X15368Y2354D02*
X15427Y2413D01*
X15198Y2354D02*
X15368D01*
X14696Y2615D02*
X15448D01*
X15470Y2593D01*
X15588D01*
X15650Y2655D01*
Y2925D01*
X15710Y2630D02*
Y2900D01*
X15638Y2473D02*
X16223Y3057D01*
X15613Y2533D02*
X15710Y2630D01*
X15725Y2413D02*
X15867Y2555D01*
X15592Y2085D02*
X16002Y2495D01*
X15412Y2147D02*
Y2274D01*
X16027Y2435D02*
X17981D01*
X15329Y2145D02*
X15449Y2025D01*
X15642Y1965D02*
X16052Y2375D01*
X17957D01*
X15424Y1965D02*
X15642D01*
X15304Y2085D02*
X15424Y1965D01*
X15184Y2085D02*
X15304D01*
X15474D02*
X15592D01*
X15412Y2147D02*
X15474Y2085D01*
X15650Y2925D02*
X16103Y3377D01*
X15710Y2900D02*
X16163Y3352D01*
X16103Y3377D02*
Y3378D01*
X16723Y3999D01*
X16324Y3515D02*
X16723D01*
X16163Y3354D02*
X16324Y3515D01*
X16723Y6826D02*
X17019Y7122D01*
X17069Y7002D02*
X17353D01*
X16901Y6919D02*
X17044Y7062D01*
X16901Y3693D02*
Y6919D01*
X16995Y6762D02*
Y6928D01*
X16723Y3515D02*
X16901Y3693D01*
X16991Y3648D02*
Y6423D01*
X17303Y7122D02*
X17652Y7471D01*
X17883Y7716D02*
X17953D01*
X18274Y8037D01*
X18002Y7596D02*
X18409Y8003D01*
X17772Y7436D02*
X17932Y7596D01*
X17908Y7656D02*
X17977D01*
X17712Y7461D02*
X17908Y7656D01*
X17712Y7446D02*
Y7461D01*
X17353Y7002D02*
X17772Y7421D01*
X17221Y6942D02*
X17378D01*
X18373Y9044D02*
X18404D01*
X18476Y8892D02*
X18604Y9020D01*
X18476Y7101D02*
Y8892D01*
X18536Y8867D02*
X18664Y8995D01*
X18536Y7126D02*
Y8867D01*
X18596Y8842D02*
X18724Y8970D01*
X18596Y7151D02*
Y8842D01*
X18656Y7175D02*
Y8818D01*
X18380Y9104D02*
X18424Y9148D01*
X18664Y8995D02*
Y9579D01*
X18724Y8970D02*
Y9604D01*
X18784Y8946D02*
Y9629D01*
X18424Y9148D02*
Y9268D01*
X18371Y9321D02*
X18424Y9268D01*
X18371Y11468D02*
X18413Y11510D01*
Y13435D01*
X18688Y13710D01*
X18551Y9607D02*
X18604Y9554D01*
X18473Y11485D02*
Y13410D01*
X18491Y9582D02*
Y11418D01*
X18533Y13385D02*
X18808Y13660D01*
X18593Y9861D02*
Y13360D01*
X18653Y12126D02*
X18704Y12176D01*
X18713Y9811D02*
Y12084D01*
X18746Y12116D01*
X18773Y9786D02*
Y11882D01*
X18431Y11443D02*
X18473Y11485D01*
X18234Y9372D02*
X18349Y9258D01*
X18925Y9362D02*
X20458D01*
X18671Y9657D02*
Y9768D01*
X18731Y9681D02*
Y9744D01*
X17218Y9372D02*
X18234D01*
X18688Y13710D02*
Y13959D01*
X18906Y14177D01*
Y14239D01*
X18807Y14339D02*
X18906Y14239D01*
X18807Y18387D02*
X18906Y18486D01*
X19466Y14652D02*
Y15961D01*
X19645Y14747D02*
Y14868D01*
X18808Y13909D02*
X19645Y14747D01*
X18808Y13660D02*
Y13909D01*
X18748Y13685D02*
Y13934D01*
X18912Y13693D02*
X19078D01*
X18951Y18425D02*
X19103Y18577D01*
X12593Y1080D02*
X12606D01*
X13465Y1034D02*
Y1140D01*
X14042Y1387D02*
X14173Y1519D01*
X14117Y1356D02*
X14219Y1459D01*
X14937Y2007D02*
X15223Y2294D01*
X14962Y1947D02*
X15159Y2145D01*
X14986Y1887D02*
X15184Y2085D01*
X14793Y746D02*
Y950D01*
X14768Y442D02*
X15360Y1034D01*
X18396Y6869D02*
X18468Y6941D01*
X18396Y4960D02*
Y6869D01*
X18576Y6773D02*
X18662Y6859D01*
X18636Y6317D02*
X18722Y6403D01*
X18636Y5060D02*
Y6317D01*
X18476Y7101D02*
X18482Y7095D01*
Y7020D02*
Y7095D01*
X18536Y7126D02*
X18542Y7120D01*
Y6995D02*
Y7120D01*
X18528Y6982D02*
X18542Y6995D01*
X18528Y6917D02*
Y6982D01*
X18602Y7111D02*
X18619Y7128D01*
X18679Y7103D02*
Y7152D01*
X18662Y6859D02*
Y7086D01*
X18718Y7198D02*
X18739Y7177D01*
X18722Y6403D02*
Y7061D01*
X16344Y3246D02*
Y3331D01*
X17429Y4561D02*
X17599Y4732D01*
X20426Y16667D02*
X20548Y16789D01*
X14148Y1579D02*
X14508D01*
X13609Y1165D02*
X13724Y1281D01*
X14071Y1190D02*
X14120D01*
X14314Y1384D02*
X14427D01*
X17973Y2358D02*
X18288D01*
X17957Y2375D02*
X17973Y2358D01*
X18288D02*
X18347Y2417D01*
X18656Y2746D02*
X18740Y2830D01*
X18347Y2417D02*
Y2523D01*
X18459Y3206D02*
X18500Y3247D01*
Y3309D01*
X18459Y3349D02*
Y4897D01*
X18396Y4960D02*
X18459Y4897D01*
X18699Y3449D02*
X18740Y3408D01*
X18636Y5060D02*
X18699Y4997D01*
X19078Y13693D02*
X19645Y14261D01*
Y14360D01*
X19767Y14481D01*
X13612Y821D02*
X13744Y953D01*
X14437Y1459D02*
X14557Y1339D01*
X14219Y1459D02*
X14437D01*
X18704Y12176D02*
X18767D01*
X18801Y12210D01*
X19123D01*
X19658Y12744D01*
X18825Y12150D02*
X19148D01*
X19683Y12684D02*
X20660D01*
X18792Y12116D02*
X18825Y12150D01*
X20669Y13856D02*
X20673Y13852D01*
X20669Y13856D02*
Y14360D01*
X20467Y13618D02*
X20533Y13684D01*
X19756Y13618D02*
X20467D01*
X20548Y14481D02*
X20669Y14360D01*
X13358Y821D02*
Y927D01*
X17874Y1099D02*
X21791D01*
X20660Y12684D02*
X20865Y12479D01*
X21316D01*
X19640Y11894D02*
X19708Y11826D01*
X19333Y11616D02*
X19996D01*
X17112Y10169D02*
Y10284D01*
X15618Y8087D02*
X17028D01*
X14508Y1579D02*
X14628Y1459D01*
X14715Y668D02*
X14793Y746D01*
X19363Y9707D02*
Y9766D01*
X20457Y10792D02*
X21600D01*
X19895Y7683D02*
X20588Y6990D01*
X17391Y3449D02*
X17594Y3246D01*
X20673Y6906D02*
Y6928D01*
X20611Y6990D02*
X20673Y6928D01*
X20588Y6990D02*
X20611D01*
X20552Y6845D02*
Y6942D01*
X20673Y6437D02*
X22097Y7861D01*
X19390Y5141D02*
X19994Y4536D01*
X19767Y5554D02*
X20082D01*
X20673Y6256D02*
Y6437D01*
X22191Y1838D02*
Y2115D01*
Y1838D02*
X22222Y1807D01*
Y1641D02*
Y1807D01*
X22191Y1609D02*
X22222Y1641D01*
X22191Y1583D02*
Y1609D01*
X22311Y2898D02*
X22338Y2870D01*
X22251Y2602D02*
X22279Y2630D01*
X22191Y2848D02*
X22219Y2821D01*
X14515Y506D02*
X14579Y442D01*
X21316Y3189D02*
Y3246D01*
X1010Y14930D02*
X1714D01*
X841Y11328D02*
Y14760D01*
X897Y8540D02*
Y11272D01*
X841Y6288D02*
Y7913D01*
X2764Y4102D02*
X4248Y2618D01*
X4781Y2085D02*
X5083D01*
X6570Y662D02*
X6796D01*
X1153Y14564D02*
X4918D01*
X1078Y14639D02*
X1153Y14564D01*
X763Y14767D02*
X1026Y15030D01*
X1078Y14639D02*
Y14785D01*
X841Y6288D02*
X994Y6135D01*
Y5759D02*
Y6135D01*
X841Y4405D02*
Y5605D01*
X1078Y10054D02*
X1228Y9904D01*
X1026Y15030D02*
X2393D01*
X1203Y4863D02*
Y6422D01*
X961Y6665D02*
X1203Y6422D01*
X961Y6928D02*
X1737Y7704D01*
X901Y6313D02*
X1054Y6160D01*
X957Y7944D02*
X1054Y8041D01*
X957Y8565D02*
X1054Y8467D01*
Y8041D02*
Y8467D01*
Y5734D02*
Y6160D01*
X957Y7009D02*
Y7944D01*
X1077Y12444D02*
X1199Y12321D01*
X901Y11353D02*
Y12504D01*
X1019Y12622D01*
X961Y11378D02*
X1023Y11316D01*
X961Y4455D02*
Y4620D01*
X957Y10252D02*
X1019Y10314D01*
X1077Y12476D02*
X1078Y12477D01*
X1077Y12444D02*
Y12476D01*
X1922Y4177D02*
X2708Y3391D01*
X1800Y4177D02*
X1922D01*
X1947Y4237D02*
X2007Y4177D01*
X2701D02*
X2764Y4114D01*
X2570Y4321D02*
X2753D01*
X3255Y3708D02*
X3460D01*
X3305Y3768D02*
X3485D01*
X2815Y4381D02*
X2989Y4206D01*
X3105D01*
X2595Y4381D02*
X2815D01*
X2255Y4721D02*
X2595Y4381D01*
X1936Y4333D02*
X2008Y4261D01*
X4378Y2618D02*
X4492Y2504D01*
X3367Y2498D02*
X4328D01*
X4432Y2348D02*
X4851Y1929D01*
X1153Y2423D02*
X4297D01*
X6705Y442D02*
X6842D01*
X6440Y1190D02*
X6835D01*
X6148Y1567D02*
X6327Y1388D01*
X6913Y1491D02*
X7025D01*
X5850Y2085D02*
X6208Y1727D01*
X6148Y1567D02*
Y1702D01*
X5825Y2025D02*
X6148Y1702D01*
X5130Y2413D02*
X5493Y2049D01*
X4693Y2606D02*
X4886Y2413D01*
X5632Y2025D02*
X5825D01*
X5535Y2122D02*
Y2217D01*
X5475Y2277D02*
X5535Y2217D01*
X5155Y2473D02*
X5350Y2277D01*
X4753Y2631D02*
X4911Y2473D01*
X5657Y2085D02*
X5850D01*
X5595Y2147D02*
X5657Y2085D01*
X5500Y2337D02*
X5595Y2242D01*
X5180Y2533D02*
X5375Y2337D01*
X4813Y2656D02*
X4936Y2533D01*
X5886Y2593D02*
X6394Y2085D01*
X4615Y2684D02*
X4638Y2661D01*
X4615Y2684D02*
Y2812D01*
X3460Y3708D02*
X3941Y3228D01*
X4170Y3288D02*
X4225D01*
X4126Y3331D02*
Y3387D01*
X3931Y3582D02*
X4126Y3387D01*
X3485Y3768D02*
X3671Y3582D01*
X4813Y2656D02*
Y2675D01*
X4735Y2752D02*
X4813Y2675D01*
X4599Y3039D02*
X4735Y2902D01*
X4599Y3039D02*
Y3293D01*
X4250Y3642D02*
X4599Y3293D01*
X3272Y3887D02*
X3452D01*
X3210Y3949D02*
X3272Y3887D01*
X3780Y3817D02*
X4671D01*
X3651Y3947D02*
X3780Y3817D01*
X3448Y3975D02*
X3476Y3947D01*
X3548Y4023D02*
X4362D01*
X4391Y4051D01*
Y4252D01*
X4743Y3550D02*
X5020Y3827D01*
X4743Y3428D02*
Y3550D01*
X4719Y3403D02*
X4743Y3428D01*
X4886Y2921D02*
X5252D01*
X5637Y2929D02*
X6126D01*
X5585Y2981D02*
X5637Y2929D01*
X4911Y2981D02*
X5585D01*
X4779Y3113D02*
Y3378D01*
X4923Y3475D02*
X5095Y3647D01*
X4899Y3329D02*
X4923Y3353D01*
X3951Y4226D02*
X4310D01*
X3136Y4237D02*
X3481D01*
X3105Y4206D02*
X3136Y4237D01*
X3934Y4353D02*
X4289D01*
X3895Y4393D02*
X3934Y4353D01*
X3276Y4393D02*
X3895D01*
X19103Y11612D02*
X19330D01*
X8292Y19400D02*
Y19695D01*
X19182Y18577D02*
X19206Y18553D01*
X18151Y19160D02*
X18165Y19146D01*
X18075D02*
X18089Y19160D01*
X12369Y18638D02*
X12390D01*
X12399Y18629D02*
X12461D01*
X12390Y18638D02*
X12399Y18629D01*
X10991Y18336D02*
X10993D01*
X10908Y18419D02*
Y18421D01*
X10754Y18575D02*
X10908Y18421D01*
X3746Y6157D02*
X3929Y6339D01*
X5020D02*
Y6340D01*
X9060Y17759D02*
X9154Y17665D01*
X9056Y17755D02*
X9060Y17759D01*
X12238Y8623D02*
Y8647D01*
Y4008D02*
Y4032D01*
Y1699D02*
Y1724D01*
X22097Y3246D02*
Y3378D01*
X22021Y3454D02*
X22097Y3378D01*
X20548Y3246D02*
Y3363D01*
Y7967D02*
X20711Y8130D01*
X15529Y7861D02*
Y7998D01*
X17112Y12375D02*
Y12477D01*
X17028Y12291D02*
X17112Y12375D01*
X15529Y12329D02*
X15567Y12291D01*
X17893Y19295D02*
Y19400D01*
X12926Y19375D02*
Y19400D01*
X9052D02*
Y19403D01*
X13663Y17128D02*
Y17152D01*
X12926Y16952D02*
Y17128D01*
Y16952D02*
X13002Y16875D01*
X8292Y17206D02*
X8459Y17373D01*
X8292Y17092D02*
Y17206D01*
X12926Y14869D02*
X13027Y14970D01*
X13914D01*
X14412Y14739D02*
Y14740D01*
X9789Y14975D02*
X9828Y14936D01*
X12926Y12477D02*
Y12602D01*
X12960Y12636D01*
X14409D01*
X10544Y12477D02*
Y12634D01*
X10494Y12684D02*
X10544Y12634D01*
X9052Y12476D02*
Y12477D01*
X12926Y10030D02*
Y10169D01*
Y10030D02*
X13004Y9951D01*
X14076D02*
X14269Y10144D01*
X9052Y10167D02*
Y10169D01*
X13017Y7653D02*
X14320D01*
X14412Y7744D01*
X8292Y7861D02*
Y7998D01*
X14412Y5481D02*
Y5554D01*
X9052Y5552D02*
Y5554D01*
X8292Y3130D02*
Y3246D01*
X3331D02*
Y3248D01*
X2639Y3246D02*
Y3248D01*
X1859Y5554D02*
Y5680D01*
X5020Y12477D02*
Y12501D01*
X3331Y12315D02*
X3375Y12270D01*
X3331Y12315D02*
Y12477D01*
X6360Y19189D02*
X6449Y19279D01*
X5090Y19189D02*
X6360D01*
X5020Y18863D02*
Y18892D01*
X4836Y19080D02*
X6714D01*
X5716Y13650D02*
Y13769D01*
X3551Y11176D02*
X3733Y10993D01*
X2499Y11176D02*
X3551D01*
X1082Y11461D02*
Y11567D01*
X2693Y8963D02*
X3368D01*
X2643Y6845D02*
Y6971D01*
X6453Y6845D02*
Y6870D01*
X5471Y6700D02*
X5565Y6794D01*
X1082Y6845D02*
Y6847D01*
X2443Y6024D02*
X4313D01*
X1082Y2352D02*
X1153Y2423D01*
X10361Y3802D02*
X10972D01*
X11135Y3965D01*
X9832Y13650D02*
Y13769D01*
Y16075D02*
Y16076D01*
Y18491D02*
X9916Y18575D01*
X20514Y18577D02*
X20552Y18539D01*
X18021Y16309D02*
X18216Y16113D01*
X17896Y16309D02*
X18021D01*
X17663Y16075D02*
X17896Y16309D01*
X17116Y16075D02*
Y16076D01*
X17264Y13792D02*
X17465Y13992D01*
X17116Y11461D02*
Y11600D01*
X17129Y11612D01*
X20317Y10932D02*
X20457Y10792D01*
X20552Y4536D02*
Y4538D01*
X12238Y6317D02*
Y6339D01*
X9056Y17755D02*
Y17763D01*
Y17878D01*
Y17763D02*
X9060Y17759D01*
X4102Y13498D02*
X5565D01*
X7198Y12477D02*
Y12603D01*
X3368Y8963D02*
X3535Y9130D01*
X2692Y7020D02*
X3490D01*
X7122Y12679D02*
X7198Y12603D01*
X5189Y12501D02*
X5367Y12679D01*
X7122D01*
X4272Y7325D02*
X4607D01*
X3999Y6902D02*
Y7052D01*
X4272Y7325D01*
X4089Y13511D02*
X4102Y13498D01*
X8893Y674D02*
X9040Y821D01*
X3543Y1816D02*
X3634Y1724D01*
X5020D01*
X1280Y8844D02*
X4310D01*
X5020Y10169D02*
Y10270D01*
X7198Y3246D02*
Y3373D01*
X1620Y6847D02*
X2443Y6024D01*
X1737Y7704D02*
Y7943D01*
X1800Y8006D01*
X1961D01*
X3331Y4828D02*
Y5046D01*
X2639Y5554D02*
X3134Y5058D01*
X7995Y850D02*
X8024Y821D01*
X2982Y10627D02*
X3294Y10314D01*
X2821Y10754D02*
X4277D01*
X2765Y10810D02*
X2821Y10754D01*
X2715Y10690D02*
X3210Y10196D01*
X2037Y11638D02*
X2499Y11176D01*
X3186Y12622D02*
X3331Y12477D01*
X6511Y7173D02*
X6571Y7233D01*
X6511Y7123D02*
Y7173D01*
X6631Y7088D02*
X6724Y6995D01*
X6751Y7138D02*
X6844Y7044D01*
X6449Y5554D02*
Y5671D01*
X6268Y4998D02*
Y5153D01*
X6012Y4743D02*
X6268Y4998D01*
X6037Y4683D02*
X6328Y4974D01*
X6148Y5161D02*
Y5203D01*
X5850Y4863D02*
X6148Y5161D01*
X5595Y4229D02*
Y4620D01*
X5657Y4683D01*
X6037D01*
X5632Y4743D02*
X6012D01*
X5293Y3846D02*
Y4488D01*
X5413Y3797D02*
Y4047D01*
X5595Y4229D01*
X5020Y3246D02*
Y3320D01*
X6691Y2786D02*
Y2870D01*
X7757Y1608D02*
X7767Y1618D01*
X7682Y1376D02*
Y1438D01*
X8256Y1099D02*
X8275Y1080D01*
X8225Y1099D02*
X8256D01*
X4839Y3354D02*
X4863Y3378D01*
X5020Y3827D02*
X5108D01*
X5045Y3767D02*
X5213D01*
X5293Y3846D01*
X5205Y4485D02*
X5582Y4863D01*
X4201Y6700D02*
X5471D01*
X6408Y5712D02*
X6449Y5671D01*
X6328Y4963D02*
X6390Y4901D01*
X6509D01*
X6571Y4963D01*
Y5128D01*
X6328Y4963D02*
Y4974D01*
X6545Y5154D02*
X6571Y5128D01*
X6148Y5203D02*
X6315Y5370D01*
X6343Y5349D02*
X6533D01*
X6322Y5370D02*
X6343Y5349D01*
X6319Y5289D02*
X6558D01*
X6343Y5229D02*
X6583D01*
X6608Y5169D02*
X6844Y5405D01*
X6545Y5154D02*
X6560Y5169D01*
X6608D01*
X6583Y5229D02*
X6784Y5429D01*
X6558Y5289D02*
X6724Y5454D01*
X6844Y5405D02*
Y7044D01*
X6751Y7138D02*
Y7529D01*
X6691Y7113D02*
Y7554D01*
X6453Y9014D02*
Y9153D01*
X3210Y10086D02*
Y10196D01*
X5628Y10374D02*
X6449D01*
X5079Y10024D02*
X5225Y10170D01*
X4961Y10024D02*
X5079D01*
X4899Y10086D02*
X4961Y10024D01*
X4675Y10314D02*
X4899Y10090D01*
X6449Y10374D02*
X7029Y9793D01*
X6751Y7529D02*
X7029Y7808D01*
X6691Y7554D02*
X6969Y7833D01*
X6631Y7579D02*
X6909Y7858D01*
Y9405D01*
X1141Y4177D02*
X1244Y4074D01*
X1703D01*
X1738Y4109D02*
Y4115D01*
X1703Y4074D02*
X1738Y4109D01*
X3390Y3391D02*
X4133Y2647D01*
X4839Y3138D02*
Y3354D01*
Y3138D02*
X4936Y3041D01*
X4955Y1864D02*
X4961Y1869D01*
X6601Y2085D02*
X7135Y1551D01*
X7329Y1250D02*
X7343Y1236D01*
X7406D02*
X7421Y1221D01*
X7259Y980D02*
Y1080D01*
X7623Y488D02*
Y598D01*
X7509Y711D02*
X7623Y598D01*
X7470Y711D02*
X7509D01*
X7406Y775D02*
Y833D01*
X7403Y1034D02*
X7467Y970D01*
X7522D01*
X7724Y711D02*
X7815D01*
X7939Y850D02*
X7995D01*
X7527Y1221D02*
X7657Y1092D01*
X7721Y970D02*
X7851D01*
X7643Y1190D02*
X7812D01*
X7682Y1376D02*
X7747Y1310D01*
X7757Y1407D02*
Y1608D01*
X7975Y1190D02*
X8469D01*
X7689Y1250D02*
X8275D01*
X8011Y1860D02*
X8021Y1870D01*
X8011Y1407D02*
Y1860D01*
X6487Y17079D02*
X7528Y16037D01*
X6571Y2736D02*
Y2821D01*
X6533Y2943D02*
X6631Y2846D01*
X6558Y3003D02*
X6691Y2870D01*
X7528Y2601D02*
Y16037D01*
X7427Y2379D02*
X7443Y2362D01*
X7286Y2435D02*
X7342Y2379D01*
X7261Y2375D02*
X7383Y2253D01*
X7391Y2499D02*
X7822D01*
X7336Y2555D02*
X7391Y2499D01*
X7168Y2555D02*
X7336D01*
X6359Y3132D02*
X6390Y3101D01*
X5826Y3132D02*
X6359D01*
X5635Y3101D02*
X5687Y3049D01*
X6126Y2929D02*
X6172Y2883D01*
X17759Y1152D02*
X17821D01*
X14917Y1159D02*
X17681D01*
X17651Y1553D02*
X18012D01*
X17529Y1493D02*
X18037D01*
X17656Y1219D02*
X17751Y1313D01*
X17973D01*
X14942Y1099D02*
X17706D01*
X17759Y1152D01*
X18866Y6996D02*
X19370D01*
X19379Y7005D01*
X20489D01*
X18826Y7162D02*
X20673Y9008D01*
X10666Y10086D02*
Y10326D01*
X18274Y8037D02*
Y9048D01*
X18330Y9104D01*
X21920Y9992D02*
X22097Y10169D01*
X20673Y9992D02*
X21920D01*
X20548Y10117D02*
X20673Y9992D01*
X20548Y10117D02*
Y10169D01*
X20673Y9008D02*
Y9992D01*
X20552Y9153D02*
Y9268D01*
X20458Y9362D02*
X20552Y9268D01*
X8296Y18384D02*
Y18469D01*
X8333D02*
X8502Y18638D01*
X9052Y19273D02*
Y19400D01*
X8308Y18529D02*
X9052Y19273D01*
X8237Y18529D02*
X8308D01*
X8175Y18467D02*
X8175Y18467D01*
X8237Y18529D01*
X8175Y18396D02*
Y18467D01*
X8175Y18301D02*
Y18467D01*
Y18301D02*
X8237Y18239D01*
X10476D01*
X8273Y18179D02*
X8290Y18162D01*
X8212Y18179D02*
X8273D01*
X8115Y18276D02*
X8212Y18179D01*
X8115Y18276D02*
Y18492D01*
X8175Y18552D01*
X8290Y18162D02*
X10469D01*
X12519Y18780D02*
X12595Y18704D01*
X12238Y18384D02*
Y18491D01*
X12362Y18780D02*
X12519D01*
X12351Y18638D02*
X12360Y18629D01*
X12461D02*
X12470Y18638D01*
X17902D01*
X12314Y18732D02*
X12362Y18780D01*
X12202Y18526D02*
X12238Y18491D01*
X11366Y18526D02*
X12202D01*
X11386Y18732D02*
X12047D01*
X12077Y18762D01*
X12140D01*
X12170Y18732D01*
X12314D01*
X8502Y18638D02*
X12052D01*
X12077Y18612D01*
X12140D01*
X12166Y18638D01*
X12351D01*
X8317Y19720D02*
X20228D01*
X20548Y19400D01*
X10670Y15485D02*
Y15653D01*
Y15485D02*
X11413Y14742D01*
Y14355D02*
Y14742D01*
X11473Y14330D02*
Y15724D01*
X11491Y15742D01*
Y15885D01*
X11533Y15699D02*
X11551Y15717D01*
Y15910D01*
X11533Y15927D02*
X11551Y15910D01*
X11533Y15927D02*
Y16142D01*
X11388Y15988D02*
Y16068D01*
Y15988D02*
X11491Y15885D01*
X12438Y13124D02*
Y13566D01*
X12446Y13573D01*
X12456D01*
X20317Y10932D02*
Y11295D01*
X20383Y11361D01*
Y11389D01*
X20157Y11615D02*
X20383Y11389D01*
X11458Y10271D02*
Y12029D01*
X11313Y9862D02*
X11338Y9837D01*
X11313Y9862D02*
Y11922D01*
X8460Y6097D02*
X8809D01*
X9052Y6340D01*
X10683Y7051D02*
Y7301D01*
X9940Y6599D02*
X10944D01*
X11069Y7452D02*
X11155Y7538D01*
X10957Y7452D02*
X11069D01*
X11845Y7394D02*
Y7407D01*
Y7394D02*
X12052Y7186D01*
X11491Y7833D02*
X11813Y7511D01*
X11826D01*
X11398Y7824D02*
X11771Y7451D01*
X11801D01*
X11845Y7407D01*
X11826Y7511D02*
X11905Y7432D01*
Y7419D02*
Y7432D01*
Y7419D02*
X12112Y7211D01*
X12052Y5446D02*
Y7186D01*
X12052Y7186D02*
X12052Y7186D01*
X17378Y6942D02*
X17431Y6995D01*
X18323D01*
X18408Y6966D02*
Y7050D01*
X18349Y7085D02*
X18373D01*
X18408Y7050D01*
X9140Y1929D02*
X9348Y1721D01*
Y1624D02*
Y1721D01*
X9408Y1649D02*
Y1696D01*
X9414Y1702D01*
Y1740D01*
X9408Y1746D02*
X9414Y1740D01*
X9408Y1746D02*
Y2621D01*
X8597Y2472D02*
X9140Y1929D01*
X9808Y1303D02*
X9836Y1330D01*
X9890Y1385D02*
X9918Y1412D01*
X17589Y1433D02*
X18324D01*
X18776Y1885D01*
X18349Y1373D02*
X18920Y1944D01*
Y5434D01*
X12415Y5080D02*
X12692Y4803D01*
X17775Y1253D02*
X21861D01*
X21862Y1254D01*
X21862Y1254D02*
X22191Y1583D01*
X21791Y1099D02*
X22281Y1589D01*
X22282Y2122D02*
X22286Y2119D01*
X18066Y1039D02*
X21918D01*
X22362Y1483D01*
X22191Y2627D02*
X22219Y2655D01*
Y2821D01*
X22338Y2366D02*
Y2870D01*
X22222Y2147D02*
Y2313D01*
X22191Y2344D02*
X22222Y2313D01*
X22191Y2344D02*
Y2627D01*
X22286Y1589D02*
Y2119D01*
X22338Y2366D02*
X22358Y2347D01*
Y1486D02*
Y2347D01*
Y1486D02*
X22362Y1483D01*
X12496Y11785D02*
X12554Y11842D01*
X12075Y11785D02*
X12496D01*
X12554Y11360D02*
Y11842D01*
X12532Y11338D02*
X12554Y11360D01*
X4125Y7020D02*
X4125Y7020D01*
X19258Y5149D02*
X19266Y5141D01*
X19390D01*
X9879Y2081D02*
X9916Y2118D01*
X10716D02*
X10753Y2081D01*
X10456Y2118D02*
X10489Y2085D01*
X10608D01*
X10641Y2118D01*
X10716D01*
X9916D02*
X9934D01*
X9961Y2091D01*
X10023D01*
X10050Y2118D01*
X10456D01*
X4089Y11236D02*
X4806D01*
X4830Y11212D01*
X6366D01*
X6453Y11300D01*
X9052Y5552D02*
X9326D01*
X9707Y5171D01*
X9743D02*
X9789Y5217D01*
X9707Y5171D02*
X9743D01*
X6842Y442D02*
X6868Y416D01*
X7551D01*
X7623Y488D01*
X8802Y416D02*
X8893Y506D01*
X6849Y350D02*
X6886D01*
X7532D02*
X7569D01*
X7635Y416D01*
X8802D01*
X6817Y382D02*
X6849Y350D01*
X6886D02*
X6893Y356D01*
X7526D01*
X7532Y350D01*
X6755Y382D02*
X6817D01*
X6739Y365D02*
X6755Y382D01*
X6586Y365D02*
X6739D01*
X5447Y1505D02*
X6586Y365D01*
X1859Y1724D02*
X2639D01*
X1859Y1712D02*
Y1724D01*
Y1724D01*
Y4032D02*
Y4032D01*
Y1724D02*
X1863D01*
X2639Y1701D02*
Y1724D01*
X2643D01*
X2639D02*
Y1724D01*
X1859Y4020D02*
Y4032D01*
X1863D01*
X1859Y6339D02*
X1863D01*
X1859D02*
Y6340D01*
X1082Y8623D02*
X1859D01*
Y8647D02*
X1863D01*
X1859Y8623D02*
Y8647D01*
Y8648D01*
X1863Y8623D02*
X2639D01*
Y8648D01*
X9832Y1699D02*
X10340D01*
X10544Y1656D02*
Y1724D01*
X10454Y1656D02*
X10544D01*
X1082Y13263D02*
Y13276D01*
X1859D01*
Y13263D02*
X2639D01*
X2643Y15547D02*
X2941D01*
X2954Y15560D02*
X3331D01*
X2639Y17879D02*
X3331D01*
Y15560D02*
Y15570D01*
Y15571D01*
Y15570D02*
X3331D01*
X3331Y17879D02*
X4721D01*
X6449D02*
X7198D01*
X9832Y13238D02*
X10544D01*
X12930Y10932D02*
X13663D01*
X10544Y13238D02*
Y13263D01*
X10545D01*
X10544D02*
Y13263D01*
X7223Y15544D02*
Y15567D01*
X7227D01*
X9832Y15547D02*
X10544D01*
X7223Y15567D02*
Y15567D01*
X10544Y15570D02*
Y15571D01*
Y15547D02*
Y15570D01*
X10545D01*
X17116Y1724D02*
Y1793D01*
X17254D01*
X17893Y1724D02*
Y1724D01*
Y4008D02*
Y4032D01*
X13667Y6339D02*
X14412D01*
X14412Y8623D02*
Y8647D01*
X13667Y8623D02*
X14412D01*
Y8647D02*
X14416D01*
X14412D02*
Y8648D01*
X17116Y6317D02*
X17893D01*
X17116Y8647D02*
Y8760D01*
X17345Y1701D02*
X17893D01*
Y1724D01*
X17894D01*
X17116Y4008D02*
X17893D01*
X21752Y3919D02*
X22097D01*
Y4032D01*
X21320Y4008D02*
X21663D01*
X17893Y6317D02*
Y6340D01*
Y8623D02*
Y8648D01*
X22097Y6235D02*
Y6340D01*
X21316D02*
X22097D01*
X21320Y8623D02*
X22097D01*
Y8647D01*
Y8648D01*
Y8647D02*
X22098D01*
X22097Y8648D02*
X22223Y8773D01*
X13663Y10932D02*
Y10955D01*
X13667Y13195D02*
X14412D01*
Y13218D01*
Y13218D01*
Y13218D02*
X14416D01*
X14294Y13339D02*
X14415Y13218D01*
X17116Y13263D02*
Y13337D01*
Y8760D02*
X17893D01*
X17116Y13337D02*
X17345D01*
X13667Y15582D02*
X14038D01*
X14048Y15593D02*
X14412D01*
Y15606D01*
X13663Y17879D02*
X14412D01*
X15325D01*
X14412D02*
X14533Y17757D01*
X17893Y15570D02*
Y15571D01*
X16971Y18024D02*
X17116Y17878D01*
Y10932D02*
X17893D01*
Y10955D01*
Y10955D01*
Y10955D02*
X17894D01*
X17360Y13322D02*
X17893D01*
X22108Y10363D02*
Y11215D01*
X21320Y13238D02*
X22097D01*
Y13263D01*
X17893Y15570D02*
Y15570D01*
X17116Y15570D02*
X17893D01*
Y15570D02*
X17894D01*
X21320Y15547D02*
X22097D01*
Y15571D01*
X21316Y17879D02*
X21438Y17757D01*
X12926Y19375D02*
X13663D01*
X8296Y18469D02*
X8333D01*
X3335Y1724D02*
Y1816D01*
X3543D01*
X3335Y3975D02*
X3351D01*
X3393Y3970D02*
X3394Y3972D01*
X4861Y4008D02*
X5020D01*
Y4032D01*
X3929Y6339D02*
X5020D01*
X3335Y8702D02*
X4099D01*
X3335Y8647D02*
Y8702D01*
X4130Y8671D02*
X5020D01*
X8357Y6254D02*
Y6359D01*
X12234Y1699D02*
X12238D01*
X12234D02*
Y1724D01*
Y4008D02*
Y4032D01*
Y4008D02*
X12238D01*
X12234Y4032D02*
Y4032D01*
X12238Y4032D02*
X12930D01*
X12234D02*
X12238D01*
X12234Y6317D02*
X12238D01*
X12234D02*
Y6340D01*
Y8623D02*
X12238D01*
X12234D02*
Y8648D01*
X10544Y17777D02*
Y17879D01*
D12*
Y1724D02*
D03*
X10548Y1724D02*
D03*
X10544Y1724D02*
D03*
X20548Y10169D02*
D03*
X20552Y9153D02*
D03*
X20548Y8648D02*
D03*
X20552Y8647D02*
D03*
X20548Y8648D02*
D03*
X17893Y3246D02*
D03*
Y1724D02*
D03*
X17897Y1724D02*
D03*
X17893Y1724D02*
D03*
X19767Y3246D02*
D03*
Y1724D02*
D03*
X19771Y1724D02*
D03*
X19767Y1724D02*
D03*
X21316Y3246D02*
D03*
Y1724D02*
D03*
X21320Y1724D02*
D03*
X21316Y1724D02*
D03*
X22097Y3246D02*
D03*
Y1724D02*
D03*
X22101Y1724D02*
D03*
X22097Y1724D02*
D03*
X17112D02*
D03*
X17116Y1724D02*
D03*
X17112Y1724D02*
D03*
X20548Y3246D02*
D03*
Y1724D02*
D03*
X20552Y1724D02*
D03*
X20548Y1724D02*
D03*
X15529D02*
D03*
X15533Y1724D02*
D03*
X15529Y1724D02*
D03*
X16344Y3246D02*
D03*
Y1724D02*
D03*
X16348Y1724D02*
D03*
X16344Y1724D02*
D03*
X21316Y4032D02*
D03*
X21320Y4032D02*
D03*
X21316Y4032D02*
D03*
X22097Y5554D02*
D03*
Y4032D02*
D03*
X22101Y4032D02*
D03*
X22097Y4032D02*
D03*
X17116Y4538D02*
D03*
X17112Y4032D02*
D03*
X17116Y4032D02*
D03*
X17112Y4032D02*
D03*
X17893D02*
D03*
X17897Y4032D02*
D03*
X17893Y4032D02*
D03*
X19767Y5554D02*
D03*
Y4032D02*
D03*
X19771Y4032D02*
D03*
X19767Y4032D02*
D03*
X20548Y5554D02*
D03*
X20552Y4538D02*
D03*
X20548Y4032D02*
D03*
X20552Y4032D02*
D03*
X20548Y4032D02*
D03*
X15529D02*
D03*
X15533Y4032D02*
D03*
X15529Y4032D02*
D03*
X16344D02*
D03*
X16348Y4032D02*
D03*
X16344Y4032D02*
D03*
X21316Y7861D02*
D03*
Y6340D02*
D03*
X21320Y6339D02*
D03*
X21316Y6340D02*
D03*
X22097Y7861D02*
D03*
Y6340D02*
D03*
X22101Y6339D02*
D03*
X22097Y6340D02*
D03*
X17112Y7861D02*
D03*
X17116Y6845D02*
D03*
X17112Y6340D02*
D03*
X17116Y6339D02*
D03*
X17112Y6340D02*
D03*
X17893D02*
D03*
X17897Y6339D02*
D03*
X17893Y6340D02*
D03*
X19767Y7861D02*
D03*
Y6340D02*
D03*
X19771Y6339D02*
D03*
X19767Y6340D02*
D03*
X20548Y7861D02*
D03*
X20552Y6845D02*
D03*
X20548Y6340D02*
D03*
X20552Y6339D02*
D03*
X20548Y6340D02*
D03*
X15529Y7861D02*
D03*
Y6340D02*
D03*
X15533Y6339D02*
D03*
X15529Y6340D02*
D03*
X16344D02*
D03*
X16348Y6339D02*
D03*
X16344Y6340D02*
D03*
X21316Y8648D02*
D03*
X21320Y8647D02*
D03*
X21316Y8648D02*
D03*
X22097Y10169D02*
D03*
Y8648D02*
D03*
X22101Y8647D02*
D03*
X22097Y8648D02*
D03*
X17112Y10169D02*
D03*
X17116Y9153D02*
D03*
X17112Y8648D02*
D03*
X17116Y8647D02*
D03*
X17112Y8648D02*
D03*
X17893D02*
D03*
X17897Y8647D02*
D03*
X17893Y8648D02*
D03*
X19767Y10169D02*
D03*
Y8648D02*
D03*
X19771Y8647D02*
D03*
X19767Y8648D02*
D03*
X15529Y10169D02*
D03*
Y8648D02*
D03*
X15533Y8647D02*
D03*
X15529Y8648D02*
D03*
X16344D02*
D03*
X16348Y8647D02*
D03*
X16344Y8648D02*
D03*
X21316Y12479D02*
D03*
Y10958D02*
D03*
X21320Y10957D02*
D03*
X21316Y10958D02*
D03*
X22101Y11463D02*
D03*
X22097Y10958D02*
D03*
X22101Y10957D02*
D03*
X22097Y10958D02*
D03*
X17112Y12477D02*
D03*
X17116Y11461D02*
D03*
X17112Y10955D02*
D03*
X17116Y10955D02*
D03*
X17112Y10955D02*
D03*
X17893D02*
D03*
X17897Y10955D02*
D03*
X17893Y10955D02*
D03*
X19767Y10958D02*
D03*
X19771Y10957D02*
D03*
X19767Y10958D02*
D03*
X20548Y12479D02*
D03*
X20552Y11463D02*
D03*
X20548Y10958D02*
D03*
X20552Y10957D02*
D03*
X20548Y10958D02*
D03*
X15529Y12477D02*
D03*
Y10955D02*
D03*
X15533Y10955D02*
D03*
X15529Y10955D02*
D03*
X16344D02*
D03*
X16348Y10955D02*
D03*
X16344Y10955D02*
D03*
X21316Y13263D02*
D03*
X21320Y13263D02*
D03*
X21316Y13263D02*
D03*
X22097D02*
D03*
X22101Y13263D02*
D03*
X22097Y13263D02*
D03*
X17116Y13769D02*
D03*
X17112Y13263D02*
D03*
X17116Y13263D02*
D03*
X17112Y13263D02*
D03*
X17893D02*
D03*
X17897Y13263D02*
D03*
X17893Y13263D02*
D03*
X21316Y15571D02*
D03*
X21320Y15570D02*
D03*
X21316Y15571D02*
D03*
X22097D02*
D03*
X22101Y15570D02*
D03*
X22097Y15571D02*
D03*
X17116Y16076D02*
D03*
X17112Y15571D02*
D03*
X17116Y15570D02*
D03*
X17112Y15571D02*
D03*
X17893D02*
D03*
X17897Y15570D02*
D03*
X17893Y15571D02*
D03*
X19767Y14785D02*
D03*
Y13263D02*
D03*
X19771Y13263D02*
D03*
X19767Y13263D02*
D03*
X20548Y14785D02*
D03*
X20552Y13769D02*
D03*
X20548Y13263D02*
D03*
X20552Y13263D02*
D03*
X20548Y13263D02*
D03*
X15529D02*
D03*
X15533Y13263D02*
D03*
X15529Y13263D02*
D03*
X16344D02*
D03*
X16348Y13263D02*
D03*
X16344Y13263D02*
D03*
X19767Y17092D02*
D03*
Y15571D02*
D03*
X19771Y15570D02*
D03*
X19767Y15571D02*
D03*
X20548Y17092D02*
D03*
Y15571D02*
D03*
X20552Y15570D02*
D03*
X20548Y15571D02*
D03*
X15533Y16076D02*
D03*
X15529Y15571D02*
D03*
X15533Y15570D02*
D03*
X15529Y15571D02*
D03*
X16344D02*
D03*
X16348Y15570D02*
D03*
X16344Y15571D02*
D03*
X13663Y17128D02*
D03*
X13667Y16112D02*
D03*
X13663Y15606D02*
D03*
X13667Y15606D02*
D03*
X13663Y15606D02*
D03*
X14412Y17128D02*
D03*
Y15606D02*
D03*
X14416Y15606D02*
D03*
X14412Y15606D02*
D03*
X9828Y17092D02*
D03*
X9832Y16076D02*
D03*
X9828Y15571D02*
D03*
X9832Y15570D02*
D03*
X9828Y15571D02*
D03*
X10544Y17092D02*
D03*
Y15571D02*
D03*
X10548Y15570D02*
D03*
X10544Y15571D02*
D03*
X13663Y13218D02*
D03*
X13667Y13218D02*
D03*
X13663Y13218D02*
D03*
X14412Y14740D02*
D03*
Y13218D02*
D03*
X14416Y13218D02*
D03*
X14412Y13218D02*
D03*
X9828Y14785D02*
D03*
X9832Y13769D02*
D03*
X9828Y13263D02*
D03*
X9832Y13263D02*
D03*
X9828Y13263D02*
D03*
X10544Y14785D02*
D03*
Y13263D02*
D03*
X10548Y13263D02*
D03*
X10544Y13263D02*
D03*
X12234Y17128D02*
D03*
Y15606D02*
D03*
X12238Y15606D02*
D03*
X12234Y15606D02*
D03*
X12926Y17128D02*
D03*
Y15606D02*
D03*
X12930Y15606D02*
D03*
X12926Y15606D02*
D03*
X8292Y17092D02*
D03*
Y15571D02*
D03*
X8296Y15570D02*
D03*
X8292Y15571D02*
D03*
X9052D02*
D03*
X9056Y15570D02*
D03*
X9052Y15571D02*
D03*
X12234Y13218D02*
D03*
X12238Y13218D02*
D03*
X12234Y13218D02*
D03*
X12926Y14740D02*
D03*
Y13218D02*
D03*
X12930Y13218D02*
D03*
X12926Y13218D02*
D03*
X8292Y14785D02*
D03*
Y13263D02*
D03*
X8296Y13263D02*
D03*
X8292Y13263D02*
D03*
X9052D02*
D03*
X9056Y13263D02*
D03*
X9052Y13263D02*
D03*
X12926Y12477D02*
D03*
Y10955D02*
D03*
X12930Y10955D02*
D03*
X12926Y10955D02*
D03*
X13663D02*
D03*
X13667Y10955D02*
D03*
X13663Y10955D02*
D03*
X9828Y12477D02*
D03*
X9832Y11461D02*
D03*
X9828Y10955D02*
D03*
X9832Y10955D02*
D03*
X9828Y10955D02*
D03*
X10544Y12477D02*
D03*
Y10955D02*
D03*
X10548Y10955D02*
D03*
X10544Y10955D02*
D03*
X13667Y9153D02*
D03*
X13663Y8648D02*
D03*
X13667Y8647D02*
D03*
X13663Y8648D02*
D03*
X14412Y10169D02*
D03*
Y8648D02*
D03*
X14416Y8647D02*
D03*
X14412Y8648D02*
D03*
X9828Y10169D02*
D03*
X9832Y9153D02*
D03*
X9828Y8648D02*
D03*
X9832Y8647D02*
D03*
X9828Y8648D02*
D03*
X10544Y10169D02*
D03*
Y8648D02*
D03*
X10548Y8647D02*
D03*
X10544Y8648D02*
D03*
X12234Y10955D02*
D03*
X12238Y10955D02*
D03*
X12234Y10955D02*
D03*
X8292Y12477D02*
D03*
Y10955D02*
D03*
X8296Y10955D02*
D03*
X8292Y10955D02*
D03*
X9052Y12477D02*
D03*
Y10955D02*
D03*
X9056Y10955D02*
D03*
X9052Y10955D02*
D03*
X14412Y12477D02*
D03*
Y10955D02*
D03*
X14416Y10955D02*
D03*
X14412Y10955D02*
D03*
X12234Y8648D02*
D03*
X12238Y8647D02*
D03*
X12234Y8648D02*
D03*
X12926Y10169D02*
D03*
Y8648D02*
D03*
X12930Y8647D02*
D03*
X12926Y8648D02*
D03*
X8292Y10169D02*
D03*
Y8648D02*
D03*
X8296Y8647D02*
D03*
X8292Y8648D02*
D03*
X9052Y10169D02*
D03*
Y8648D02*
D03*
X9056Y8647D02*
D03*
X9052Y8648D02*
D03*
X13663Y6340D02*
D03*
X13667Y6339D02*
D03*
X13663Y6340D02*
D03*
X14412Y7861D02*
D03*
Y6340D02*
D03*
X14416Y6339D02*
D03*
X14412Y6340D02*
D03*
X9828Y7861D02*
D03*
X9832Y6845D02*
D03*
X9828Y6340D02*
D03*
X9832Y6339D02*
D03*
X9828Y6340D02*
D03*
X10544D02*
D03*
X10548Y6339D02*
D03*
X10544Y6340D02*
D03*
X12234D02*
D03*
X12238Y6339D02*
D03*
X12234Y6340D02*
D03*
X12926Y7861D02*
D03*
Y6340D02*
D03*
X12930Y6339D02*
D03*
X12926Y6340D02*
D03*
X8292Y7861D02*
D03*
Y6340D02*
D03*
X8296Y6339D02*
D03*
X8292Y6340D02*
D03*
X9052Y7861D02*
D03*
Y6340D02*
D03*
X9056Y6339D02*
D03*
X9052Y6340D02*
D03*
X13663Y4032D02*
D03*
X13667Y4032D02*
D03*
X13663Y4032D02*
D03*
X14412Y5554D02*
D03*
Y4032D02*
D03*
X14416Y4032D02*
D03*
X14412Y4032D02*
D03*
X9832Y4538D02*
D03*
X9828Y4032D02*
D03*
X9832Y4032D02*
D03*
X9828Y4032D02*
D03*
X10544D02*
D03*
X10548Y4032D02*
D03*
X10544Y4032D02*
D03*
X12234D02*
D03*
X12238Y4032D02*
D03*
X12234Y4032D02*
D03*
X12926Y5554D02*
D03*
Y4032D02*
D03*
X12930Y4032D02*
D03*
X12926Y4032D02*
D03*
X8292Y5554D02*
D03*
Y4032D02*
D03*
X8296Y4032D02*
D03*
X8292Y4032D02*
D03*
X9052Y5554D02*
D03*
X9056Y4538D02*
D03*
X9052Y4032D02*
D03*
X9056Y4032D02*
D03*
X9052Y4032D02*
D03*
X13663Y3246D02*
D03*
Y1724D02*
D03*
X13667Y1724D02*
D03*
X13663Y1724D02*
D03*
X14412D02*
D03*
X14416Y1724D02*
D03*
X14412Y1724D02*
D03*
X12234Y3246D02*
D03*
Y2738D02*
D03*
Y1724D02*
D03*
X12238Y1724D02*
D03*
X12234Y1724D02*
D03*
X12926Y2738D02*
D03*
Y1724D02*
D03*
X12930Y1724D02*
D03*
X12926Y1724D02*
D03*
X8292Y3246D02*
D03*
Y1724D02*
D03*
X8296Y1724D02*
D03*
X8292Y1724D02*
D03*
X9052D02*
D03*
X9056Y1724D02*
D03*
X9052Y1724D02*
D03*
X7198Y3246D02*
D03*
Y1724D02*
D03*
X7202Y1724D02*
D03*
X7198Y1724D02*
D03*
X1082Y2230D02*
D03*
X1078Y1724D02*
D03*
X1082Y1724D02*
D03*
X1078Y1724D02*
D03*
X1859D02*
D03*
X1863Y1724D02*
D03*
X1859Y1724D02*
D03*
X2639Y3246D02*
D03*
Y1724D02*
D03*
X2643Y1724D02*
D03*
X2639Y1724D02*
D03*
X5020Y3246D02*
D03*
Y1724D02*
D03*
X5024Y1724D02*
D03*
X5020Y1724D02*
D03*
X5712Y3246D02*
D03*
Y1724D02*
D03*
X5716Y1724D02*
D03*
X5712Y1724D02*
D03*
X6449D02*
D03*
X6453Y1724D02*
D03*
X6449Y1724D02*
D03*
X3331Y3246D02*
D03*
Y1724D02*
D03*
X3335Y1724D02*
D03*
X3331Y1724D02*
D03*
X7198Y4032D02*
D03*
X7202Y4032D02*
D03*
X7198Y4032D02*
D03*
X1082Y4538D02*
D03*
X1078Y4032D02*
D03*
X1082Y4032D02*
D03*
X1078Y4032D02*
D03*
X1859Y5554D02*
D03*
Y4032D02*
D03*
X1863Y4032D02*
D03*
X1859Y4032D02*
D03*
X2639Y5554D02*
D03*
Y4032D02*
D03*
X2643Y4032D02*
D03*
X2639Y4032D02*
D03*
X7198Y6340D02*
D03*
X7202Y6339D02*
D03*
X7198Y6340D02*
D03*
X1082Y6845D02*
D03*
X1078Y6340D02*
D03*
X1082Y6339D02*
D03*
X1078Y6340D02*
D03*
X2639Y7861D02*
D03*
X2643Y6845D02*
D03*
X2639Y6340D02*
D03*
X2643Y6339D02*
D03*
X2639Y6340D02*
D03*
X5020Y4032D02*
D03*
X5024Y4032D02*
D03*
X5020Y4032D02*
D03*
X5712D02*
D03*
X5716Y4032D02*
D03*
X5712Y4032D02*
D03*
X6449Y5554D02*
D03*
Y4032D02*
D03*
X6453Y4032D02*
D03*
X6449Y4032D02*
D03*
X3331Y5046D02*
D03*
Y4032D02*
D03*
X3335Y4032D02*
D03*
X3331Y4032D02*
D03*
X5020Y6340D02*
D03*
X5024Y6339D02*
D03*
X5020Y6340D02*
D03*
X5716Y6845D02*
D03*
X5712Y6340D02*
D03*
X5716Y6339D02*
D03*
X5712Y6340D02*
D03*
X6449Y7861D02*
D03*
X6453Y6845D02*
D03*
X6449Y6340D02*
D03*
X6453Y6339D02*
D03*
X6449Y6340D02*
D03*
X3331Y7861D02*
D03*
Y6340D02*
D03*
X3335Y6339D02*
D03*
X3331Y6340D02*
D03*
X7198Y10169D02*
D03*
Y8648D02*
D03*
X7202Y8647D02*
D03*
X7198Y8648D02*
D03*
X1078Y10169D02*
D03*
X1082Y9153D02*
D03*
X1078Y8648D02*
D03*
X1082Y8647D02*
D03*
X1078Y8648D02*
D03*
X1859D02*
D03*
X1863Y8647D02*
D03*
X1859Y8648D02*
D03*
X2639Y10169D02*
D03*
X2643Y9153D02*
D03*
X2639Y8648D02*
D03*
X2643Y8647D02*
D03*
X2639Y8648D02*
D03*
X1078Y12477D02*
D03*
X1082Y11461D02*
D03*
X1078Y10955D02*
D03*
X1082Y10955D02*
D03*
X1078Y10955D02*
D03*
X7198Y12477D02*
D03*
Y10955D02*
D03*
X7202Y10955D02*
D03*
X7198Y10955D02*
D03*
X2639D02*
D03*
X2643Y10955D02*
D03*
X2639Y10955D02*
D03*
X3331Y12477D02*
D03*
Y10955D02*
D03*
X3335Y10955D02*
D03*
X3331Y10955D02*
D03*
X5020Y10169D02*
D03*
Y8648D02*
D03*
X5024Y8647D02*
D03*
X5020Y8648D02*
D03*
X5712Y10169D02*
D03*
Y8648D02*
D03*
X5716Y8647D02*
D03*
X5712Y8648D02*
D03*
X6453Y9153D02*
D03*
X6449Y8648D02*
D03*
X6453Y8647D02*
D03*
X6449Y8648D02*
D03*
X3331D02*
D03*
X3335Y8647D02*
D03*
X3331Y8648D02*
D03*
X1859Y12477D02*
D03*
X1863Y11461D02*
D03*
X1859Y10955D02*
D03*
X1863Y10955D02*
D03*
X1859Y10955D02*
D03*
X5020Y12477D02*
D03*
Y10955D02*
D03*
X5024Y10955D02*
D03*
X5020Y10955D02*
D03*
X5716Y11461D02*
D03*
X5712Y10955D02*
D03*
X5716Y10955D02*
D03*
X5712Y10955D02*
D03*
X6449Y12477D02*
D03*
X6453Y11461D02*
D03*
X6449Y10955D02*
D03*
X6453Y10955D02*
D03*
X6449Y10955D02*
D03*
X6449Y13263D02*
D03*
X6453Y13263D02*
D03*
X6449Y13263D02*
D03*
X1078Y14785D02*
D03*
Y13263D02*
D03*
X1082Y13263D02*
D03*
X1078Y13263D02*
D03*
X1859Y14785D02*
D03*
Y13263D02*
D03*
X1863Y13263D02*
D03*
X1859Y13263D02*
D03*
X2639Y14785D02*
D03*
Y13263D02*
D03*
X2643Y13263D02*
D03*
X2639Y13263D02*
D03*
X7223Y15567D02*
D03*
X7227Y15567D02*
D03*
X7223Y15567D02*
D03*
X6487Y17089D02*
D03*
X6491Y16073D02*
D03*
X6487Y15567D02*
D03*
X6491Y15567D02*
D03*
X6487Y15567D02*
D03*
X2639Y15571D02*
D03*
X2643Y15570D02*
D03*
X2639Y15571D02*
D03*
X3331D02*
D03*
X3335Y15570D02*
D03*
X3331Y15571D02*
D03*
X5020Y14785D02*
D03*
Y13263D02*
D03*
X5024Y13263D02*
D03*
X5020Y13263D02*
D03*
X5716Y13769D02*
D03*
X5712Y13263D02*
D03*
X5716Y13263D02*
D03*
X5712Y13263D02*
D03*
X3331Y14785D02*
D03*
Y13263D02*
D03*
X3335Y13263D02*
D03*
X3331Y13263D02*
D03*
X7198D02*
D03*
X7202Y13263D02*
D03*
X7198Y13263D02*
D03*
X5020Y15571D02*
D03*
X5024Y15570D02*
D03*
X5020Y15571D02*
D03*
X5712D02*
D03*
X5716Y15570D02*
D03*
X5712Y15571D02*
D03*
X1864Y15567D02*
D03*
X1868Y15567D02*
D03*
X1864Y15567D02*
D03*
X1077D02*
D03*
X1081Y15567D02*
D03*
X1077Y15567D02*
D03*
X1859Y7861D02*
D03*
Y6340D02*
D03*
X1863Y6339D02*
D03*
X1859Y6340D02*
D03*
X9828Y3246D02*
D03*
X9832Y2230D02*
D03*
X9828Y1724D02*
D03*
X9832Y1724D02*
D03*
X9828Y1724D02*
D03*
X1078Y17879D02*
D03*
X1082Y17878D02*
D03*
X1078Y17879D02*
D03*
X1859Y19400D02*
D03*
Y17879D02*
D03*
X1863Y17878D02*
D03*
X1859Y17879D02*
D03*
X2639D02*
D03*
X2643Y17878D02*
D03*
X2639Y17879D02*
D03*
X3331Y19400D02*
D03*
Y17879D02*
D03*
X3335Y17878D02*
D03*
X3331Y17879D02*
D03*
X5020Y19400D02*
D03*
Y18892D02*
D03*
Y17879D02*
D03*
X5024Y17878D02*
D03*
X5020Y17879D02*
D03*
X5712D02*
D03*
X5716Y17878D02*
D03*
X5712Y17879D02*
D03*
X6449Y19400D02*
D03*
Y17879D02*
D03*
X6453Y17878D02*
D03*
X6449Y17879D02*
D03*
X7202Y18384D02*
D03*
X7198Y17879D02*
D03*
X7202Y17878D02*
D03*
X7198Y17879D02*
D03*
X8292Y19400D02*
D03*
X8296Y18384D02*
D03*
X8292Y17879D02*
D03*
X8296Y17878D02*
D03*
X8292Y17879D02*
D03*
X9052Y19400D02*
D03*
Y17879D02*
D03*
X9056Y17878D02*
D03*
X9052Y17879D02*
D03*
X9828Y19400D02*
D03*
X9832Y18384D02*
D03*
X9828Y17879D02*
D03*
X9832Y17878D02*
D03*
X9828Y17879D02*
D03*
X10544D02*
D03*
X10548Y17878D02*
D03*
X10544Y17879D02*
D03*
X12238Y18384D02*
D03*
X12234Y17879D02*
D03*
X12238Y17878D02*
D03*
X12234Y17879D02*
D03*
X12926Y19400D02*
D03*
Y17879D02*
D03*
X12930Y17878D02*
D03*
X12926Y17879D02*
D03*
X13663Y19400D02*
D03*
Y18892D02*
D03*
Y17879D02*
D03*
X13667Y17878D02*
D03*
X13663Y17879D02*
D03*
X14412Y19400D02*
D03*
Y18892D02*
D03*
Y17879D02*
D03*
X14416Y17878D02*
D03*
X14412Y17879D02*
D03*
X15529Y18892D02*
D03*
Y17879D02*
D03*
X15533Y17878D02*
D03*
X15529Y17879D02*
D03*
X16344Y19400D02*
D03*
Y18892D02*
D03*
Y17879D02*
D03*
X16348Y17878D02*
D03*
X16344Y17879D02*
D03*
X17112D02*
D03*
X17116Y17878D02*
D03*
X17112Y17879D02*
D03*
X17893Y19400D02*
D03*
Y17879D02*
D03*
X17897Y17878D02*
D03*
X17893Y17879D02*
D03*
X19767D02*
D03*
X19771Y17878D02*
D03*
X19767Y17879D02*
D03*
X20548Y19400D02*
D03*
X20552Y18384D02*
D03*
X20548Y17879D02*
D03*
X20552Y17878D02*
D03*
X20548Y17879D02*
D03*
X21316D02*
D03*
X21320Y17878D02*
D03*
X21316Y17879D02*
D03*
X22097Y19400D02*
D03*
Y17879D02*
D03*
X22101Y17878D02*
D03*
X22097Y17879D02*
D03*
D14*
X14625Y1080D02*
D03*
X7259D02*
D03*
X8275D02*
D03*
X9545D02*
D03*
X10053D02*
D03*
X10307D02*
D03*
X11069D02*
D03*
X11323D02*
D03*
X12593D02*
D03*
X12847D02*
D03*
X13609D02*
D03*
X13863D02*
D03*
X14628Y831D02*
D03*
X8024Y821D02*
D03*
X9040D02*
D03*
X9802D02*
D03*
X10056D02*
D03*
X10818D02*
D03*
X11072D02*
D03*
X11834D02*
D03*
X12342D02*
D03*
X12596D02*
D03*
X13358D02*
D03*
X13612D02*
D03*
X14374D02*
D03*
X7513Y552D02*
D03*
D16*
X19314Y11872D02*
D03*
X4836Y12075D02*
D03*
X7731Y18984D02*
D03*
X14715Y668D02*
D03*
X9545Y1356D02*
D03*
X9255D02*
D03*
X8783D02*
D03*
X8529D02*
D03*
X8275D02*
D03*
X8011Y1407D02*
D03*
X11338Y18780D02*
D03*
Y14386D02*
D03*
X19288Y9738D02*
D03*
X4666Y16383D02*
D03*
X4099Y8976D02*
D03*
X3490Y7020D02*
D03*
X4297Y2423D02*
D03*
X11135Y3965D02*
D03*
X10955Y11546D02*
D03*
X11366Y18526D02*
D03*
X18951Y18425D02*
D03*
X18943Y13618D02*
D03*
X18857Y11859D02*
D03*
X18349Y9192D02*
D03*
X18925Y9362D02*
D03*
X17282Y6842D02*
D03*
X18857Y7005D02*
D03*
X12710Y17841D02*
D03*
X10551Y1346D02*
D03*
X10830Y4997D02*
D03*
X18374Y13858D02*
D03*
X4089Y13511D02*
D03*
X18450Y16177D02*
D03*
X14117Y1356D02*
D03*
X12085D02*
D03*
X11948Y12225D02*
D03*
X12255Y17386D02*
D03*
X13101Y1356D02*
D03*
X11338Y12100D02*
D03*
X10815Y1356D02*
D03*
X13355D02*
D03*
X11757Y8128D02*
D03*
X11005Y2334D02*
D03*
X11577Y1356D02*
D03*
X7757Y1407D02*
D03*
X11303Y8900D02*
D03*
X7528Y2601D02*
D03*
X3535Y9130D02*
D03*
X11745Y10111D02*
D03*
X12034Y17080D02*
D03*
X3670Y4489D02*
D03*
X4607Y10754D02*
D03*
X4310Y8844D02*
D03*
X3766Y11615D02*
D03*
X19288Y9738D02*
D03*
X18831Y18552D02*
D03*
X18120Y19085D02*
D03*
X18336Y18526D02*
D03*
X18755Y18831D02*
D03*
X18354Y4732D02*
D03*
X18338Y11541D02*
D03*
X17256Y13472D02*
D03*
X18216Y16113D02*
D03*
X12050Y15953D02*
D03*
X11313Y15966D02*
D03*
X10983Y13751D02*
D03*
X11943Y8984D02*
D03*
X10838Y9245D02*
D03*
X10944Y6599D02*
D03*
X4310Y4226D02*
D03*
X4313Y6024D02*
D03*
X4607Y7325D02*
D03*
X4277Y10754D02*
D03*
X4089Y11236D02*
D03*
X4709Y18691D02*
D03*
X12438Y13124D02*
D03*
X12456Y13573D02*
D03*
X11313Y11922D02*
D03*
X10957Y7452D02*
D03*
X18323Y6995D02*
D03*
X18349Y7085D02*
D03*
X7731Y18984D02*
D03*
X20203Y16367D02*
D03*
X20228Y16342D02*
D03*
X12554Y11842D02*
D03*
X12532Y11338D02*
D03*
X4125Y7020D02*
D03*
X19258Y5149D02*
D03*
X9789Y5217D02*
D03*
D17*
X10991Y18336D02*
D03*
M02*
