G04 Layer_Color=8388736*
%FSLAX42Y42*%
%MOMM*%
G71*
G01*
G75*
%ADD23R,1.85X0.60*%
G04:AMPARAMS|DCode=24|XSize=2mm|YSize=1.53mm|CornerRadius=0.61mm|HoleSize=0mm|Usage=FLASHONLY|Rotation=90.000|XOffset=0mm|YOffset=0mm|HoleType=Round|Shape=RoundedRectangle|*
%AMROUNDEDRECTD24*
21,1,2.00,0.30,0,0,90.0*
21,1,0.78,1.53,0,0,90.0*
1,1,1.22,0.15,0.39*
1,1,1.22,0.15,-0.39*
1,1,1.22,-0.15,-0.39*
1,1,1.22,-0.15,0.39*
%
%ADD24ROUNDEDRECTD24*%
%ADD25C,3.00*%
%ADD26C,1.30*%
%ADD27R,1.30X1.30*%
%ADD28C,0.60*%
%ADD29C,0.70*%
D23*
X4451Y15901D02*
D03*
Y16028D02*
D03*
Y16155D02*
D03*
Y16282D02*
D03*
Y16409D02*
D03*
Y16536D02*
D03*
Y16663D02*
D03*
Y16790D02*
D03*
X3951Y15901D02*
D03*
Y16028D02*
D03*
Y16155D02*
D03*
Y16282D02*
D03*
Y16409D02*
D03*
Y16536D02*
D03*
Y16663D02*
D03*
Y16790D02*
D03*
X19107Y2207D02*
D03*
Y2334D02*
D03*
Y2461D02*
D03*
Y2588D02*
D03*
Y2715D02*
D03*
Y2842D02*
D03*
Y2969D02*
D03*
Y3096D02*
D03*
X18607Y2207D02*
D03*
Y2334D02*
D03*
Y2461D02*
D03*
Y2588D02*
D03*
Y2715D02*
D03*
Y2842D02*
D03*
Y2969D02*
D03*
Y3096D02*
D03*
X18607Y5382D02*
D03*
Y5255D02*
D03*
Y5128D02*
D03*
Y5001D02*
D03*
Y4874D02*
D03*
Y4747D02*
D03*
Y4620D02*
D03*
Y4493D02*
D03*
X19107Y5382D02*
D03*
Y5255D02*
D03*
Y5128D02*
D03*
Y5001D02*
D03*
Y4874D02*
D03*
Y4747D02*
D03*
Y4620D02*
D03*
Y4493D02*
D03*
X18607Y7668D02*
D03*
Y7541D02*
D03*
Y7414D02*
D03*
Y7287D02*
D03*
Y7160D02*
D03*
Y7033D02*
D03*
Y6906D02*
D03*
Y6779D02*
D03*
X19107Y7668D02*
D03*
Y7541D02*
D03*
Y7414D02*
D03*
Y7287D02*
D03*
Y7160D02*
D03*
Y7033D02*
D03*
Y6906D02*
D03*
Y6779D02*
D03*
X18607Y9954D02*
D03*
Y9827D02*
D03*
Y9700D02*
D03*
Y9573D02*
D03*
Y9446D02*
D03*
Y9319D02*
D03*
Y9192D02*
D03*
Y9065D02*
D03*
X19107Y9954D02*
D03*
Y9827D02*
D03*
Y9700D02*
D03*
Y9573D02*
D03*
Y9446D02*
D03*
Y9319D02*
D03*
Y9192D02*
D03*
Y9065D02*
D03*
X18607Y12240D02*
D03*
Y12113D02*
D03*
Y11986D02*
D03*
Y11859D02*
D03*
Y11732D02*
D03*
Y11605D02*
D03*
Y11478D02*
D03*
Y11351D02*
D03*
X19107Y12240D02*
D03*
Y12113D02*
D03*
Y11986D02*
D03*
Y11859D02*
D03*
Y11732D02*
D03*
Y11605D02*
D03*
Y11478D02*
D03*
Y11351D02*
D03*
X18607Y14526D02*
D03*
Y14399D02*
D03*
Y14272D02*
D03*
Y14145D02*
D03*
Y14018D02*
D03*
Y13891D02*
D03*
Y13764D02*
D03*
Y13637D02*
D03*
X19107Y14526D02*
D03*
Y14399D02*
D03*
Y14272D02*
D03*
Y14145D02*
D03*
Y14018D02*
D03*
Y13891D02*
D03*
Y13764D02*
D03*
Y13637D02*
D03*
X18607Y16812D02*
D03*
Y16685D02*
D03*
Y16558D02*
D03*
Y16431D02*
D03*
Y16304D02*
D03*
Y16177D02*
D03*
Y16050D02*
D03*
Y15923D02*
D03*
X19107Y16812D02*
D03*
Y16685D02*
D03*
Y16558D02*
D03*
Y16431D02*
D03*
Y16304D02*
D03*
Y16177D02*
D03*
Y16050D02*
D03*
Y15923D02*
D03*
X18607Y19098D02*
D03*
Y18971D02*
D03*
Y18844D02*
D03*
Y18717D02*
D03*
Y18590D02*
D03*
Y18463D02*
D03*
Y18336D02*
D03*
Y18209D02*
D03*
X19107Y19098D02*
D03*
Y18971D02*
D03*
Y18844D02*
D03*
Y18717D02*
D03*
Y18590D02*
D03*
Y18463D02*
D03*
Y18336D02*
D03*
Y18209D02*
D03*
X11164Y19098D02*
D03*
Y18971D02*
D03*
Y18844D02*
D03*
Y18717D02*
D03*
Y18590D02*
D03*
Y18463D02*
D03*
Y18336D02*
D03*
Y18209D02*
D03*
X11664Y19098D02*
D03*
Y18971D02*
D03*
Y18844D02*
D03*
Y18717D02*
D03*
Y18590D02*
D03*
Y18463D02*
D03*
Y18336D02*
D03*
Y18209D02*
D03*
X11164Y16790D02*
D03*
Y16663D02*
D03*
Y16536D02*
D03*
Y16409D02*
D03*
Y16282D02*
D03*
Y16155D02*
D03*
Y16028D02*
D03*
Y15901D02*
D03*
X11664Y16790D02*
D03*
Y16663D02*
D03*
Y16536D02*
D03*
Y16409D02*
D03*
Y16282D02*
D03*
Y16155D02*
D03*
Y16028D02*
D03*
Y15901D02*
D03*
X11164Y14508D02*
D03*
Y14381D02*
D03*
Y14254D02*
D03*
Y14127D02*
D03*
Y14000D02*
D03*
Y13873D02*
D03*
Y13746D02*
D03*
Y13619D02*
D03*
X11664Y14508D02*
D03*
Y14381D02*
D03*
Y14254D02*
D03*
Y14127D02*
D03*
Y14000D02*
D03*
Y13873D02*
D03*
Y13746D02*
D03*
Y13619D02*
D03*
X11164Y12225D02*
D03*
Y12098D02*
D03*
Y11971D02*
D03*
Y11844D02*
D03*
Y11717D02*
D03*
Y11590D02*
D03*
Y11463D02*
D03*
Y11336D02*
D03*
X11664Y12225D02*
D03*
Y12098D02*
D03*
Y11971D02*
D03*
Y11844D02*
D03*
Y11717D02*
D03*
Y11590D02*
D03*
Y11463D02*
D03*
Y11336D02*
D03*
X11164Y9943D02*
D03*
Y9816D02*
D03*
Y9689D02*
D03*
Y9562D02*
D03*
Y9435D02*
D03*
Y9308D02*
D03*
Y9181D02*
D03*
Y9054D02*
D03*
X11664Y9943D02*
D03*
Y9816D02*
D03*
Y9689D02*
D03*
Y9562D02*
D03*
Y9435D02*
D03*
Y9308D02*
D03*
Y9181D02*
D03*
Y9054D02*
D03*
X11164Y5378D02*
D03*
Y5251D02*
D03*
Y5124D02*
D03*
Y4997D02*
D03*
Y4870D02*
D03*
Y4743D02*
D03*
Y4616D02*
D03*
Y4489D02*
D03*
X11664Y5378D02*
D03*
Y5251D02*
D03*
Y5124D02*
D03*
Y4997D02*
D03*
Y4870D02*
D03*
Y4743D02*
D03*
Y4616D02*
D03*
Y4489D02*
D03*
X11164Y3096D02*
D03*
Y2969D02*
D03*
Y2842D02*
D03*
Y2715D02*
D03*
Y2588D02*
D03*
Y2461D02*
D03*
Y2334D02*
D03*
Y2207D02*
D03*
X11664Y3096D02*
D03*
Y2969D02*
D03*
Y2842D02*
D03*
Y2715D02*
D03*
Y2588D02*
D03*
Y2461D02*
D03*
Y2334D02*
D03*
Y2207D02*
D03*
X3951Y3096D02*
D03*
Y2969D02*
D03*
Y2842D02*
D03*
Y2715D02*
D03*
Y2588D02*
D03*
Y2461D02*
D03*
Y2334D02*
D03*
Y2207D02*
D03*
X4451Y3096D02*
D03*
Y2969D02*
D03*
Y2842D02*
D03*
Y2715D02*
D03*
Y2588D02*
D03*
Y2461D02*
D03*
Y2334D02*
D03*
Y2207D02*
D03*
X3951Y5378D02*
D03*
Y5251D02*
D03*
Y5124D02*
D03*
Y4997D02*
D03*
Y4870D02*
D03*
Y4743D02*
D03*
Y4616D02*
D03*
Y4489D02*
D03*
X4451Y5378D02*
D03*
Y5251D02*
D03*
Y5124D02*
D03*
Y4997D02*
D03*
Y4870D02*
D03*
Y4743D02*
D03*
Y4616D02*
D03*
Y4489D02*
D03*
X3951Y7661D02*
D03*
Y7534D02*
D03*
Y7407D02*
D03*
Y7280D02*
D03*
Y7153D02*
D03*
Y7026D02*
D03*
Y6899D02*
D03*
Y6772D02*
D03*
X4451Y7661D02*
D03*
Y7534D02*
D03*
Y7407D02*
D03*
Y7280D02*
D03*
Y7153D02*
D03*
Y7026D02*
D03*
Y6899D02*
D03*
Y6772D02*
D03*
X3951Y9943D02*
D03*
Y9816D02*
D03*
Y9689D02*
D03*
Y9562D02*
D03*
Y9435D02*
D03*
Y9308D02*
D03*
Y9181D02*
D03*
Y9054D02*
D03*
X4451Y9943D02*
D03*
Y9816D02*
D03*
Y9689D02*
D03*
Y9562D02*
D03*
Y9435D02*
D03*
Y9308D02*
D03*
Y9181D02*
D03*
Y9054D02*
D03*
X3951Y12225D02*
D03*
Y12098D02*
D03*
Y11971D02*
D03*
Y11844D02*
D03*
Y11717D02*
D03*
Y11590D02*
D03*
Y11463D02*
D03*
Y11336D02*
D03*
X4451Y12225D02*
D03*
Y12098D02*
D03*
Y11971D02*
D03*
Y11844D02*
D03*
Y11717D02*
D03*
Y11590D02*
D03*
Y11463D02*
D03*
Y11336D02*
D03*
X3951Y14508D02*
D03*
Y14381D02*
D03*
Y14254D02*
D03*
Y14127D02*
D03*
Y14000D02*
D03*
Y13873D02*
D03*
Y13746D02*
D03*
Y13619D02*
D03*
X4451Y14508D02*
D03*
Y14381D02*
D03*
Y14254D02*
D03*
Y14127D02*
D03*
Y14000D02*
D03*
Y13873D02*
D03*
Y13746D02*
D03*
Y13619D02*
D03*
X11164Y7661D02*
D03*
Y7534D02*
D03*
Y7407D02*
D03*
Y7280D02*
D03*
Y7153D02*
D03*
Y7026D02*
D03*
Y6899D02*
D03*
Y6772D02*
D03*
X11664Y7661D02*
D03*
Y7534D02*
D03*
Y7407D02*
D03*
Y7280D02*
D03*
Y7153D02*
D03*
Y7026D02*
D03*
Y6899D02*
D03*
Y6772D02*
D03*
X3951Y19072D02*
D03*
Y18945D02*
D03*
Y18818D02*
D03*
Y18691D02*
D03*
Y18564D02*
D03*
Y18437D02*
D03*
Y18310D02*
D03*
Y18183D02*
D03*
X4451Y19072D02*
D03*
Y18945D02*
D03*
Y18818D02*
D03*
Y18691D02*
D03*
Y18564D02*
D03*
Y18437D02*
D03*
Y18310D02*
D03*
Y18183D02*
D03*
D24*
X10544Y3246D02*
D03*
Y2738D02*
D03*
X10548Y2230D02*
D03*
X10544Y1724D02*
D03*
X10548Y1724D02*
D03*
X10544Y1724D02*
D03*
X20548Y10169D02*
D03*
Y9661D02*
D03*
X20552Y9153D02*
D03*
X20548Y8648D02*
D03*
X20552Y8647D02*
D03*
X20548Y8648D02*
D03*
X17893Y3246D02*
D03*
Y2738D02*
D03*
X17897Y2230D02*
D03*
X17893Y1724D02*
D03*
X17897Y1724D02*
D03*
X17893Y1724D02*
D03*
X19767Y3246D02*
D03*
Y2738D02*
D03*
X19771Y2230D02*
D03*
X19767Y1724D02*
D03*
X19771Y1724D02*
D03*
X19767Y1724D02*
D03*
X21316Y3246D02*
D03*
Y2738D02*
D03*
X21320Y2230D02*
D03*
X21316Y1724D02*
D03*
X21320Y1724D02*
D03*
X21316Y1724D02*
D03*
X22097Y3246D02*
D03*
Y2738D02*
D03*
X22101Y2230D02*
D03*
X22097Y1724D02*
D03*
X22101Y1724D02*
D03*
X22097Y1724D02*
D03*
X17112Y3246D02*
D03*
Y2738D02*
D03*
X17116Y2230D02*
D03*
X17112Y1724D02*
D03*
X17116Y1724D02*
D03*
X17112Y1724D02*
D03*
X20548Y3246D02*
D03*
Y2738D02*
D03*
X20552Y2230D02*
D03*
X20548Y1724D02*
D03*
X20552Y1724D02*
D03*
X20548Y1724D02*
D03*
X15529Y3246D02*
D03*
Y2738D02*
D03*
X15533Y2230D02*
D03*
X15529Y1724D02*
D03*
X15533Y1724D02*
D03*
X15529Y1724D02*
D03*
X16344Y3246D02*
D03*
Y2738D02*
D03*
X16348Y2230D02*
D03*
X16344Y1724D02*
D03*
X16348Y1724D02*
D03*
X16344Y1724D02*
D03*
X21316Y5554D02*
D03*
Y5046D02*
D03*
X21320Y4538D02*
D03*
X21316Y4032D02*
D03*
X21320Y4032D02*
D03*
X21316Y4032D02*
D03*
X22097Y5554D02*
D03*
Y5046D02*
D03*
X22101Y4538D02*
D03*
X22097Y4032D02*
D03*
X22101Y4032D02*
D03*
X22097Y4032D02*
D03*
X17112Y5554D02*
D03*
Y5046D02*
D03*
X17116Y4538D02*
D03*
X17112Y4032D02*
D03*
X17116Y4032D02*
D03*
X17112Y4032D02*
D03*
X17893Y5554D02*
D03*
Y5046D02*
D03*
X17897Y4538D02*
D03*
X17893Y4032D02*
D03*
X17897Y4032D02*
D03*
X17893Y4032D02*
D03*
X19767Y5554D02*
D03*
Y5046D02*
D03*
X19771Y4538D02*
D03*
X19767Y4032D02*
D03*
X19771Y4032D02*
D03*
X19767Y4032D02*
D03*
X20548Y5554D02*
D03*
Y5046D02*
D03*
X20552Y4538D02*
D03*
X20548Y4032D02*
D03*
X20552Y4032D02*
D03*
X20548Y4032D02*
D03*
X15529Y5554D02*
D03*
Y5046D02*
D03*
X15533Y4538D02*
D03*
X15529Y4032D02*
D03*
X15533Y4032D02*
D03*
X15529Y4032D02*
D03*
X16344Y5554D02*
D03*
Y5046D02*
D03*
X16348Y4538D02*
D03*
X16344Y4032D02*
D03*
X16348Y4032D02*
D03*
X16344Y4032D02*
D03*
X21316Y7861D02*
D03*
Y7353D02*
D03*
X21320Y6845D02*
D03*
X21316Y6340D02*
D03*
X21320Y6339D02*
D03*
X21316Y6340D02*
D03*
X22097Y7861D02*
D03*
Y7353D02*
D03*
X22101Y6845D02*
D03*
X22097Y6340D02*
D03*
X22101Y6339D02*
D03*
X22097Y6340D02*
D03*
X17112Y7861D02*
D03*
Y7353D02*
D03*
X17116Y6845D02*
D03*
X17112Y6340D02*
D03*
X17116Y6339D02*
D03*
X17112Y6340D02*
D03*
X17893Y7861D02*
D03*
Y7353D02*
D03*
X17897Y6845D02*
D03*
X17893Y6340D02*
D03*
X17897Y6339D02*
D03*
X17893Y6340D02*
D03*
X19767Y7861D02*
D03*
Y7353D02*
D03*
X19771Y6845D02*
D03*
X19767Y6340D02*
D03*
X19771Y6339D02*
D03*
X19767Y6340D02*
D03*
X20548Y7861D02*
D03*
Y7353D02*
D03*
X20552Y6845D02*
D03*
X20548Y6340D02*
D03*
X20552Y6339D02*
D03*
X20548Y6340D02*
D03*
X15529Y7861D02*
D03*
Y7353D02*
D03*
X15533Y6845D02*
D03*
X15529Y6340D02*
D03*
X15533Y6339D02*
D03*
X15529Y6340D02*
D03*
X16344Y7861D02*
D03*
Y7353D02*
D03*
X16348Y6845D02*
D03*
X16344Y6340D02*
D03*
X16348Y6339D02*
D03*
X16344Y6340D02*
D03*
X21316Y10169D02*
D03*
Y9661D02*
D03*
X21320Y9153D02*
D03*
X21316Y8648D02*
D03*
X21320Y8647D02*
D03*
X21316Y8648D02*
D03*
X22097Y10169D02*
D03*
Y9661D02*
D03*
X22101Y9153D02*
D03*
X22097Y8648D02*
D03*
X22101Y8647D02*
D03*
X22097Y8648D02*
D03*
X17112Y10169D02*
D03*
Y9661D02*
D03*
X17116Y9153D02*
D03*
X17112Y8648D02*
D03*
X17116Y8647D02*
D03*
X17112Y8648D02*
D03*
X17893Y10169D02*
D03*
Y9661D02*
D03*
X17897Y9153D02*
D03*
X17893Y8648D02*
D03*
X17897Y8647D02*
D03*
X17893Y8648D02*
D03*
X19767Y10169D02*
D03*
Y9661D02*
D03*
X19771Y9153D02*
D03*
X19767Y8648D02*
D03*
X19771Y8647D02*
D03*
X19767Y8648D02*
D03*
X15529Y10169D02*
D03*
Y9661D02*
D03*
X15533Y9153D02*
D03*
X15529Y8648D02*
D03*
X15533Y8647D02*
D03*
X15529Y8648D02*
D03*
X16344Y10169D02*
D03*
Y9661D02*
D03*
X16348Y9153D02*
D03*
X16344Y8648D02*
D03*
X16348Y8647D02*
D03*
X16344Y8648D02*
D03*
X21316Y12479D02*
D03*
Y11971D02*
D03*
X21320Y11463D02*
D03*
X21316Y10958D02*
D03*
X21320Y10957D02*
D03*
X21316Y10958D02*
D03*
X22097Y12479D02*
D03*
Y11971D02*
D03*
X22101Y11463D02*
D03*
X22097Y10958D02*
D03*
X22101Y10957D02*
D03*
X22097Y10958D02*
D03*
X17112Y12477D02*
D03*
Y11969D02*
D03*
X17116Y11461D02*
D03*
X17112Y10955D02*
D03*
X17116Y10955D02*
D03*
X17112Y10955D02*
D03*
X17893Y12477D02*
D03*
Y11969D02*
D03*
X17897Y11461D02*
D03*
X17893Y10955D02*
D03*
X17897Y10955D02*
D03*
X17893Y10955D02*
D03*
X19767Y12479D02*
D03*
Y11971D02*
D03*
X19771Y11463D02*
D03*
X19767Y10958D02*
D03*
X19771Y10957D02*
D03*
X19767Y10958D02*
D03*
X20548Y12479D02*
D03*
Y11971D02*
D03*
X20552Y11463D02*
D03*
X20548Y10958D02*
D03*
X20552Y10957D02*
D03*
X20548Y10958D02*
D03*
X15529Y12477D02*
D03*
Y11969D02*
D03*
X15533Y11461D02*
D03*
X15529Y10955D02*
D03*
X15533Y10955D02*
D03*
X15529Y10955D02*
D03*
X16344Y12477D02*
D03*
Y11969D02*
D03*
X16348Y11461D02*
D03*
X16344Y10955D02*
D03*
X16348Y10955D02*
D03*
X16344Y10955D02*
D03*
X21316Y14785D02*
D03*
Y14277D02*
D03*
X21320Y13769D02*
D03*
X21316Y13263D02*
D03*
X21320Y13263D02*
D03*
X21316Y13263D02*
D03*
X22097Y14785D02*
D03*
Y14277D02*
D03*
X22101Y13769D02*
D03*
X22097Y13263D02*
D03*
X22101Y13263D02*
D03*
X22097Y13263D02*
D03*
X17112Y14785D02*
D03*
Y14277D02*
D03*
X17116Y13769D02*
D03*
X17112Y13263D02*
D03*
X17116Y13263D02*
D03*
X17112Y13263D02*
D03*
X17893Y14785D02*
D03*
Y14277D02*
D03*
X17897Y13769D02*
D03*
X17893Y13263D02*
D03*
X17897Y13263D02*
D03*
X17893Y13263D02*
D03*
X21316Y17092D02*
D03*
Y16584D02*
D03*
X21320Y16076D02*
D03*
X21316Y15571D02*
D03*
X21320Y15570D02*
D03*
X21316Y15571D02*
D03*
X22097Y17092D02*
D03*
Y16584D02*
D03*
X22101Y16076D02*
D03*
X22097Y15571D02*
D03*
X22101Y15570D02*
D03*
X22097Y15571D02*
D03*
X17112Y17092D02*
D03*
Y16584D02*
D03*
X17116Y16076D02*
D03*
X17112Y15571D02*
D03*
X17116Y15570D02*
D03*
X17112Y15571D02*
D03*
X17893Y17092D02*
D03*
Y16584D02*
D03*
X17897Y16076D02*
D03*
X17893Y15571D02*
D03*
X17897Y15570D02*
D03*
X17893Y15571D02*
D03*
X19767Y14785D02*
D03*
Y14277D02*
D03*
X19771Y13769D02*
D03*
X19767Y13263D02*
D03*
X19771Y13263D02*
D03*
X19767Y13263D02*
D03*
X20548Y14785D02*
D03*
Y14277D02*
D03*
X20552Y13769D02*
D03*
X20548Y13263D02*
D03*
X20552Y13263D02*
D03*
X20548Y13263D02*
D03*
X15529Y14785D02*
D03*
Y14277D02*
D03*
X15533Y13769D02*
D03*
X15529Y13263D02*
D03*
X15533Y13263D02*
D03*
X15529Y13263D02*
D03*
X16344Y14785D02*
D03*
Y14277D02*
D03*
X16348Y13769D02*
D03*
X16344Y13263D02*
D03*
X16348Y13263D02*
D03*
X16344Y13263D02*
D03*
X19767Y17092D02*
D03*
Y16584D02*
D03*
X19771Y16076D02*
D03*
X19767Y15571D02*
D03*
X19771Y15570D02*
D03*
X19767Y15571D02*
D03*
X20548Y17092D02*
D03*
Y16584D02*
D03*
X20552Y16076D02*
D03*
X20548Y15571D02*
D03*
X20552Y15570D02*
D03*
X20548Y15571D02*
D03*
X15529Y17092D02*
D03*
Y16584D02*
D03*
X15533Y16076D02*
D03*
X15529Y15571D02*
D03*
X15533Y15570D02*
D03*
X15529Y15571D02*
D03*
X16344Y17092D02*
D03*
Y16584D02*
D03*
X16348Y16076D02*
D03*
X16344Y15571D02*
D03*
X16348Y15570D02*
D03*
X16344Y15571D02*
D03*
X13663Y17128D02*
D03*
Y16620D02*
D03*
X13667Y16112D02*
D03*
X13663Y15606D02*
D03*
X13667Y15606D02*
D03*
X13663Y15606D02*
D03*
X14412Y17128D02*
D03*
Y16620D02*
D03*
X14416Y16112D02*
D03*
X14412Y15606D02*
D03*
X14416Y15606D02*
D03*
X14412Y15606D02*
D03*
X9828Y17092D02*
D03*
Y16584D02*
D03*
X9832Y16076D02*
D03*
X9828Y15571D02*
D03*
X9832Y15570D02*
D03*
X9828Y15571D02*
D03*
X10544Y17092D02*
D03*
Y16584D02*
D03*
X10548Y16076D02*
D03*
X10544Y15571D02*
D03*
X10548Y15570D02*
D03*
X10544Y15571D02*
D03*
X13663Y14740D02*
D03*
Y14232D02*
D03*
X13667Y13724D02*
D03*
X13663Y13218D02*
D03*
X13667Y13218D02*
D03*
X13663Y13218D02*
D03*
X14412Y14740D02*
D03*
Y14232D02*
D03*
X14416Y13724D02*
D03*
X14412Y13218D02*
D03*
X14416Y13218D02*
D03*
X14412Y13218D02*
D03*
X9828Y14785D02*
D03*
Y14277D02*
D03*
X9832Y13769D02*
D03*
X9828Y13263D02*
D03*
X9832Y13263D02*
D03*
X9828Y13263D02*
D03*
X10544Y14785D02*
D03*
Y14277D02*
D03*
X10548Y13769D02*
D03*
X10544Y13263D02*
D03*
X10548Y13263D02*
D03*
X10544Y13263D02*
D03*
X12234Y17128D02*
D03*
Y16620D02*
D03*
X12238Y16112D02*
D03*
X12234Y15606D02*
D03*
X12238Y15606D02*
D03*
X12234Y15606D02*
D03*
X12926Y17128D02*
D03*
Y16620D02*
D03*
X12930Y16112D02*
D03*
X12926Y15606D02*
D03*
X12930Y15606D02*
D03*
X12926Y15606D02*
D03*
X8292Y17092D02*
D03*
Y16584D02*
D03*
X8296Y16076D02*
D03*
X8292Y15571D02*
D03*
X8296Y15570D02*
D03*
X8292Y15571D02*
D03*
X9052Y17092D02*
D03*
Y16584D02*
D03*
X9056Y16076D02*
D03*
X9052Y15571D02*
D03*
X9056Y15570D02*
D03*
X9052Y15571D02*
D03*
X12234Y14740D02*
D03*
Y14232D02*
D03*
X12238Y13724D02*
D03*
X12234Y13218D02*
D03*
X12238Y13218D02*
D03*
X12234Y13218D02*
D03*
X12926Y14740D02*
D03*
Y14232D02*
D03*
X12930Y13724D02*
D03*
X12926Y13218D02*
D03*
X12930Y13218D02*
D03*
X12926Y13218D02*
D03*
X8292Y14785D02*
D03*
Y14277D02*
D03*
X8296Y13769D02*
D03*
X8292Y13263D02*
D03*
X8296Y13263D02*
D03*
X8292Y13263D02*
D03*
X9052Y14785D02*
D03*
Y14277D02*
D03*
X9056Y13769D02*
D03*
X9052Y13263D02*
D03*
X9056Y13263D02*
D03*
X9052Y13263D02*
D03*
X12926Y12477D02*
D03*
Y11969D02*
D03*
X12930Y11461D02*
D03*
X12926Y10955D02*
D03*
X12930Y10955D02*
D03*
X12926Y10955D02*
D03*
X13663Y12477D02*
D03*
Y11969D02*
D03*
X13667Y11461D02*
D03*
X13663Y10955D02*
D03*
X13667Y10955D02*
D03*
X13663Y10955D02*
D03*
X9828Y12477D02*
D03*
Y11969D02*
D03*
X9832Y11461D02*
D03*
X9828Y10955D02*
D03*
X9832Y10955D02*
D03*
X9828Y10955D02*
D03*
X10544Y12477D02*
D03*
Y11969D02*
D03*
X10548Y11461D02*
D03*
X10544Y10955D02*
D03*
X10548Y10955D02*
D03*
X10544Y10955D02*
D03*
X13663Y10169D02*
D03*
Y9661D02*
D03*
X13667Y9153D02*
D03*
X13663Y8648D02*
D03*
X13667Y8647D02*
D03*
X13663Y8648D02*
D03*
X14412Y10169D02*
D03*
Y9661D02*
D03*
X14416Y9153D02*
D03*
X14412Y8648D02*
D03*
X14416Y8647D02*
D03*
X14412Y8648D02*
D03*
X9828Y10169D02*
D03*
Y9661D02*
D03*
X9832Y9153D02*
D03*
X9828Y8648D02*
D03*
X9832Y8647D02*
D03*
X9828Y8648D02*
D03*
X10544Y10169D02*
D03*
Y9661D02*
D03*
X10548Y9153D02*
D03*
X10544Y8648D02*
D03*
X10548Y8647D02*
D03*
X10544Y8648D02*
D03*
X12234Y12477D02*
D03*
Y11969D02*
D03*
X12238Y11461D02*
D03*
X12234Y10955D02*
D03*
X12238Y10955D02*
D03*
X12234Y10955D02*
D03*
X8292Y12477D02*
D03*
Y11969D02*
D03*
X8296Y11461D02*
D03*
X8292Y10955D02*
D03*
X8296Y10955D02*
D03*
X8292Y10955D02*
D03*
X9052Y12477D02*
D03*
Y11969D02*
D03*
X9056Y11461D02*
D03*
X9052Y10955D02*
D03*
X9056Y10955D02*
D03*
X9052Y10955D02*
D03*
X14412Y12477D02*
D03*
Y11969D02*
D03*
X14416Y11461D02*
D03*
X14412Y10955D02*
D03*
X14416Y10955D02*
D03*
X14412Y10955D02*
D03*
X12234Y10169D02*
D03*
Y9661D02*
D03*
X12238Y9153D02*
D03*
X12234Y8648D02*
D03*
X12238Y8647D02*
D03*
X12234Y8648D02*
D03*
X12926Y10169D02*
D03*
Y9661D02*
D03*
X12930Y9153D02*
D03*
X12926Y8648D02*
D03*
X12930Y8647D02*
D03*
X12926Y8648D02*
D03*
X8292Y10169D02*
D03*
Y9661D02*
D03*
X8296Y9153D02*
D03*
X8292Y8648D02*
D03*
X8296Y8647D02*
D03*
X8292Y8648D02*
D03*
X9052Y10169D02*
D03*
Y9661D02*
D03*
X9056Y9153D02*
D03*
X9052Y8648D02*
D03*
X9056Y8647D02*
D03*
X9052Y8648D02*
D03*
X13663Y7861D02*
D03*
Y7353D02*
D03*
X13667Y6845D02*
D03*
X13663Y6340D02*
D03*
X13667Y6339D02*
D03*
X13663Y6340D02*
D03*
X14412Y7861D02*
D03*
Y7353D02*
D03*
X14416Y6845D02*
D03*
X14412Y6340D02*
D03*
X14416Y6339D02*
D03*
X14412Y6340D02*
D03*
X9828Y7861D02*
D03*
Y7353D02*
D03*
X9832Y6845D02*
D03*
X9828Y6340D02*
D03*
X9832Y6339D02*
D03*
X9828Y6340D02*
D03*
X10544Y7861D02*
D03*
Y7353D02*
D03*
X10548Y6845D02*
D03*
X10544Y6340D02*
D03*
X10548Y6339D02*
D03*
X10544Y6340D02*
D03*
X12234Y7861D02*
D03*
Y7353D02*
D03*
X12238Y6845D02*
D03*
X12234Y6340D02*
D03*
X12238Y6339D02*
D03*
X12234Y6340D02*
D03*
X12926Y7861D02*
D03*
Y7353D02*
D03*
X12930Y6845D02*
D03*
X12926Y6340D02*
D03*
X12930Y6339D02*
D03*
X12926Y6340D02*
D03*
X8292Y7861D02*
D03*
Y7353D02*
D03*
X8296Y6845D02*
D03*
X8292Y6340D02*
D03*
X8296Y6339D02*
D03*
X8292Y6340D02*
D03*
X9052Y7861D02*
D03*
Y7353D02*
D03*
X9056Y6845D02*
D03*
X9052Y6340D02*
D03*
X9056Y6339D02*
D03*
X9052Y6340D02*
D03*
X13663Y5554D02*
D03*
Y5046D02*
D03*
X13667Y4538D02*
D03*
X13663Y4032D02*
D03*
X13667Y4032D02*
D03*
X13663Y4032D02*
D03*
X14412Y5554D02*
D03*
Y5046D02*
D03*
X14416Y4538D02*
D03*
X14412Y4032D02*
D03*
X14416Y4032D02*
D03*
X14412Y4032D02*
D03*
X9828Y5554D02*
D03*
Y5046D02*
D03*
X9832Y4538D02*
D03*
X9828Y4032D02*
D03*
X9832Y4032D02*
D03*
X9828Y4032D02*
D03*
X10544Y5554D02*
D03*
Y5046D02*
D03*
X10548Y4538D02*
D03*
X10544Y4032D02*
D03*
X10548Y4032D02*
D03*
X10544Y4032D02*
D03*
X12234Y5554D02*
D03*
Y5046D02*
D03*
X12238Y4538D02*
D03*
X12234Y4032D02*
D03*
X12238Y4032D02*
D03*
X12234Y4032D02*
D03*
X12926Y5554D02*
D03*
Y5046D02*
D03*
X12930Y4538D02*
D03*
X12926Y4032D02*
D03*
X12930Y4032D02*
D03*
X12926Y4032D02*
D03*
X8292Y5554D02*
D03*
Y5046D02*
D03*
X8296Y4538D02*
D03*
X8292Y4032D02*
D03*
X8296Y4032D02*
D03*
X8292Y4032D02*
D03*
X9052Y5554D02*
D03*
Y5046D02*
D03*
X9056Y4538D02*
D03*
X9052Y4032D02*
D03*
X9056Y4032D02*
D03*
X9052Y4032D02*
D03*
X13663Y3246D02*
D03*
Y2738D02*
D03*
X13667Y2230D02*
D03*
X13663Y1724D02*
D03*
X13667Y1724D02*
D03*
X13663Y1724D02*
D03*
X14412Y3246D02*
D03*
Y2738D02*
D03*
X14416Y2230D02*
D03*
X14412Y1724D02*
D03*
X14416Y1724D02*
D03*
X14412Y1724D02*
D03*
X12234Y3246D02*
D03*
Y2738D02*
D03*
X12238Y2230D02*
D03*
X12234Y1724D02*
D03*
X12238Y1724D02*
D03*
X12234Y1724D02*
D03*
X12926Y3246D02*
D03*
Y2738D02*
D03*
X12930Y2230D02*
D03*
X12926Y1724D02*
D03*
X12930Y1724D02*
D03*
X12926Y1724D02*
D03*
X8292Y3246D02*
D03*
Y2738D02*
D03*
X8296Y2230D02*
D03*
X8292Y1724D02*
D03*
X8296Y1724D02*
D03*
X8292Y1724D02*
D03*
X9052Y3246D02*
D03*
Y2738D02*
D03*
X9056Y2230D02*
D03*
X9052Y1724D02*
D03*
X9056Y1724D02*
D03*
X9052Y1724D02*
D03*
X7198Y3246D02*
D03*
Y2738D02*
D03*
X7202Y2230D02*
D03*
X7198Y1724D02*
D03*
X7202Y1724D02*
D03*
X7198Y1724D02*
D03*
X1078Y3246D02*
D03*
Y2738D02*
D03*
X1082Y2230D02*
D03*
X1078Y1724D02*
D03*
X1082Y1724D02*
D03*
X1078Y1724D02*
D03*
X1859Y3246D02*
D03*
Y2738D02*
D03*
X1863Y2230D02*
D03*
X1859Y1724D02*
D03*
X1863Y1724D02*
D03*
X1859Y1724D02*
D03*
X2639Y3246D02*
D03*
Y2738D02*
D03*
X2643Y2230D02*
D03*
X2639Y1724D02*
D03*
X2643Y1724D02*
D03*
X2639Y1724D02*
D03*
X5020Y3246D02*
D03*
Y2738D02*
D03*
X5024Y2230D02*
D03*
X5020Y1724D02*
D03*
X5024Y1724D02*
D03*
X5020Y1724D02*
D03*
X5712Y3246D02*
D03*
Y2738D02*
D03*
X5716Y2230D02*
D03*
X5712Y1724D02*
D03*
X5716Y1724D02*
D03*
X5712Y1724D02*
D03*
X6449Y3246D02*
D03*
Y2738D02*
D03*
X6453Y2230D02*
D03*
X6449Y1724D02*
D03*
X6453Y1724D02*
D03*
X6449Y1724D02*
D03*
X3331Y3246D02*
D03*
Y2738D02*
D03*
X3335Y2230D02*
D03*
X3331Y1724D02*
D03*
X3335Y1724D02*
D03*
X3331Y1724D02*
D03*
X7198Y5554D02*
D03*
Y5046D02*
D03*
X7202Y4538D02*
D03*
X7198Y4032D02*
D03*
X7202Y4032D02*
D03*
X7198Y4032D02*
D03*
X1078Y5554D02*
D03*
Y5046D02*
D03*
X1082Y4538D02*
D03*
X1078Y4032D02*
D03*
X1082Y4032D02*
D03*
X1078Y4032D02*
D03*
X1859Y5554D02*
D03*
Y5046D02*
D03*
X1863Y4538D02*
D03*
X1859Y4032D02*
D03*
X1863Y4032D02*
D03*
X1859Y4032D02*
D03*
X2639Y5554D02*
D03*
Y5046D02*
D03*
X2643Y4538D02*
D03*
X2639Y4032D02*
D03*
X2643Y4032D02*
D03*
X2639Y4032D02*
D03*
X7198Y7861D02*
D03*
Y7353D02*
D03*
X7202Y6845D02*
D03*
X7198Y6340D02*
D03*
X7202Y6339D02*
D03*
X7198Y6340D02*
D03*
X1078Y7861D02*
D03*
Y7353D02*
D03*
X1082Y6845D02*
D03*
X1078Y6340D02*
D03*
X1082Y6339D02*
D03*
X1078Y6340D02*
D03*
X2639Y7861D02*
D03*
Y7353D02*
D03*
X2643Y6845D02*
D03*
X2639Y6340D02*
D03*
X2643Y6339D02*
D03*
X2639Y6340D02*
D03*
X5020Y5554D02*
D03*
Y5046D02*
D03*
X5024Y4538D02*
D03*
X5020Y4032D02*
D03*
X5024Y4032D02*
D03*
X5020Y4032D02*
D03*
X5712Y5554D02*
D03*
Y5046D02*
D03*
X5716Y4538D02*
D03*
X5712Y4032D02*
D03*
X5716Y4032D02*
D03*
X5712Y4032D02*
D03*
X6449Y5554D02*
D03*
Y5046D02*
D03*
X6453Y4538D02*
D03*
X6449Y4032D02*
D03*
X6453Y4032D02*
D03*
X6449Y4032D02*
D03*
X3331Y5554D02*
D03*
Y5046D02*
D03*
X3335Y4538D02*
D03*
X3331Y4032D02*
D03*
X3335Y4032D02*
D03*
X3331Y4032D02*
D03*
X5020Y7861D02*
D03*
Y7353D02*
D03*
X5024Y6845D02*
D03*
X5020Y6340D02*
D03*
X5024Y6339D02*
D03*
X5020Y6340D02*
D03*
X5712Y7861D02*
D03*
Y7353D02*
D03*
X5716Y6845D02*
D03*
X5712Y6340D02*
D03*
X5716Y6339D02*
D03*
X5712Y6340D02*
D03*
X6449Y7861D02*
D03*
Y7353D02*
D03*
X6453Y6845D02*
D03*
X6449Y6340D02*
D03*
X6453Y6339D02*
D03*
X6449Y6340D02*
D03*
X3331Y7861D02*
D03*
Y7353D02*
D03*
X3335Y6845D02*
D03*
X3331Y6340D02*
D03*
X3335Y6339D02*
D03*
X3331Y6340D02*
D03*
X7198Y10169D02*
D03*
Y9661D02*
D03*
X7202Y9153D02*
D03*
X7198Y8648D02*
D03*
X7202Y8647D02*
D03*
X7198Y8648D02*
D03*
X1078Y10169D02*
D03*
Y9661D02*
D03*
X1082Y9153D02*
D03*
X1078Y8648D02*
D03*
X1082Y8647D02*
D03*
X1078Y8648D02*
D03*
X1859Y10169D02*
D03*
Y9661D02*
D03*
X1863Y9153D02*
D03*
X1859Y8648D02*
D03*
X1863Y8647D02*
D03*
X1859Y8648D02*
D03*
X2639Y10169D02*
D03*
Y9661D02*
D03*
X2643Y9153D02*
D03*
X2639Y8648D02*
D03*
X2643Y8647D02*
D03*
X2639Y8648D02*
D03*
X1078Y12477D02*
D03*
Y11969D02*
D03*
X1082Y11461D02*
D03*
X1078Y10955D02*
D03*
X1082Y10955D02*
D03*
X1078Y10955D02*
D03*
X7198Y12477D02*
D03*
Y11969D02*
D03*
X7202Y11461D02*
D03*
X7198Y10955D02*
D03*
X7202Y10955D02*
D03*
X7198Y10955D02*
D03*
X2639Y12477D02*
D03*
Y11969D02*
D03*
X2643Y11461D02*
D03*
X2639Y10955D02*
D03*
X2643Y10955D02*
D03*
X2639Y10955D02*
D03*
X3331Y12477D02*
D03*
Y11969D02*
D03*
X3335Y11461D02*
D03*
X3331Y10955D02*
D03*
X3335Y10955D02*
D03*
X3331Y10955D02*
D03*
X5020Y10169D02*
D03*
Y9661D02*
D03*
X5024Y9153D02*
D03*
X5020Y8648D02*
D03*
X5024Y8647D02*
D03*
X5020Y8648D02*
D03*
X5712Y10169D02*
D03*
Y9661D02*
D03*
X5716Y9153D02*
D03*
X5712Y8648D02*
D03*
X5716Y8647D02*
D03*
X5712Y8648D02*
D03*
X6449Y10169D02*
D03*
Y9661D02*
D03*
X6453Y9153D02*
D03*
X6449Y8648D02*
D03*
X6453Y8647D02*
D03*
X6449Y8648D02*
D03*
X3331Y10169D02*
D03*
Y9661D02*
D03*
X3335Y9153D02*
D03*
X3331Y8648D02*
D03*
X3335Y8647D02*
D03*
X3331Y8648D02*
D03*
X1859Y12477D02*
D03*
Y11969D02*
D03*
X1863Y11461D02*
D03*
X1859Y10955D02*
D03*
X1863Y10955D02*
D03*
X1859Y10955D02*
D03*
X5020Y12477D02*
D03*
Y11969D02*
D03*
X5024Y11461D02*
D03*
X5020Y10955D02*
D03*
X5024Y10955D02*
D03*
X5020Y10955D02*
D03*
X5712Y12477D02*
D03*
Y11969D02*
D03*
X5716Y11461D02*
D03*
X5712Y10955D02*
D03*
X5716Y10955D02*
D03*
X5712Y10955D02*
D03*
X6449Y12477D02*
D03*
Y11969D02*
D03*
X6453Y11461D02*
D03*
X6449Y10955D02*
D03*
X6453Y10955D02*
D03*
X6449Y10955D02*
D03*
X6449Y14785D02*
D03*
Y14277D02*
D03*
X6453Y13769D02*
D03*
X6449Y13263D02*
D03*
X6453Y13263D02*
D03*
X6449Y13263D02*
D03*
X1078Y14785D02*
D03*
Y14277D02*
D03*
X1082Y13769D02*
D03*
X1078Y13263D02*
D03*
X1082Y13263D02*
D03*
X1078Y13263D02*
D03*
X1859Y14785D02*
D03*
Y14277D02*
D03*
X1863Y13769D02*
D03*
X1859Y13263D02*
D03*
X1863Y13263D02*
D03*
X1859Y13263D02*
D03*
X2639Y14785D02*
D03*
Y14277D02*
D03*
X2643Y13769D02*
D03*
X2639Y13263D02*
D03*
X2643Y13263D02*
D03*
X2639Y13263D02*
D03*
X7223Y17089D02*
D03*
Y16581D02*
D03*
X7227Y16073D02*
D03*
X7223Y15567D02*
D03*
X7227Y15567D02*
D03*
X7223Y15567D02*
D03*
X6487Y17089D02*
D03*
Y16581D02*
D03*
X6491Y16073D02*
D03*
X6487Y15567D02*
D03*
X6491Y15567D02*
D03*
X6487Y15567D02*
D03*
X2639Y17092D02*
D03*
Y16584D02*
D03*
X2643Y16076D02*
D03*
X2639Y15571D02*
D03*
X2643Y15570D02*
D03*
X2639Y15571D02*
D03*
X3331Y17092D02*
D03*
Y16584D02*
D03*
X3335Y16076D02*
D03*
X3331Y15571D02*
D03*
X3335Y15570D02*
D03*
X3331Y15571D02*
D03*
X5020Y14785D02*
D03*
Y14277D02*
D03*
X5024Y13769D02*
D03*
X5020Y13263D02*
D03*
X5024Y13263D02*
D03*
X5020Y13263D02*
D03*
X5712Y14785D02*
D03*
Y14277D02*
D03*
X5716Y13769D02*
D03*
X5712Y13263D02*
D03*
X5716Y13263D02*
D03*
X5712Y13263D02*
D03*
X3331Y14785D02*
D03*
Y14277D02*
D03*
X3335Y13769D02*
D03*
X3331Y13263D02*
D03*
X3335Y13263D02*
D03*
X3331Y13263D02*
D03*
X7198Y14785D02*
D03*
Y14277D02*
D03*
X7202Y13769D02*
D03*
X7198Y13263D02*
D03*
X7202Y13263D02*
D03*
X7198Y13263D02*
D03*
X5020Y17092D02*
D03*
Y16584D02*
D03*
X5024Y16076D02*
D03*
X5020Y15571D02*
D03*
X5024Y15570D02*
D03*
X5020Y15571D02*
D03*
X5712Y17092D02*
D03*
Y16584D02*
D03*
X5716Y16076D02*
D03*
X5712Y15571D02*
D03*
X5716Y15570D02*
D03*
X5712Y15571D02*
D03*
X1864Y17089D02*
D03*
Y16581D02*
D03*
X1868Y16073D02*
D03*
X1864Y15567D02*
D03*
X1868Y15567D02*
D03*
X1864Y15567D02*
D03*
X1077Y17089D02*
D03*
Y16581D02*
D03*
X1081Y16073D02*
D03*
X1077Y15567D02*
D03*
X1081Y15567D02*
D03*
X1077Y15567D02*
D03*
X1859Y7861D02*
D03*
Y7353D02*
D03*
X1863Y6845D02*
D03*
X1859Y6340D02*
D03*
X1863Y6339D02*
D03*
X1859Y6340D02*
D03*
X9828Y3246D02*
D03*
Y2738D02*
D03*
X9832Y2230D02*
D03*
X9828Y1724D02*
D03*
X9832Y1724D02*
D03*
X9828Y1724D02*
D03*
X1078Y19400D02*
D03*
Y18892D02*
D03*
X1082Y18384D02*
D03*
X1078Y17879D02*
D03*
X1082Y17878D02*
D03*
X1078Y17879D02*
D03*
X1859Y19400D02*
D03*
Y18892D02*
D03*
X1863Y18384D02*
D03*
X1859Y17879D02*
D03*
X1863Y17878D02*
D03*
X1859Y17879D02*
D03*
X2639Y19400D02*
D03*
Y18892D02*
D03*
X2643Y18384D02*
D03*
X2639Y17879D02*
D03*
X2643Y17878D02*
D03*
X2639Y17879D02*
D03*
X3331Y19400D02*
D03*
Y18892D02*
D03*
X3335Y18384D02*
D03*
X3331Y17879D02*
D03*
X3335Y17878D02*
D03*
X3331Y17879D02*
D03*
X5020Y19400D02*
D03*
Y18892D02*
D03*
X5024Y18384D02*
D03*
X5020Y17879D02*
D03*
X5024Y17878D02*
D03*
X5020Y17879D02*
D03*
X5712Y19400D02*
D03*
Y18892D02*
D03*
X5716Y18384D02*
D03*
X5712Y17879D02*
D03*
X5716Y17878D02*
D03*
X5712Y17879D02*
D03*
X6449Y19400D02*
D03*
Y18892D02*
D03*
X6453Y18384D02*
D03*
X6449Y17879D02*
D03*
X6453Y17878D02*
D03*
X6449Y17879D02*
D03*
X7198Y19400D02*
D03*
Y18892D02*
D03*
X7202Y18384D02*
D03*
X7198Y17879D02*
D03*
X7202Y17878D02*
D03*
X7198Y17879D02*
D03*
X8292Y19400D02*
D03*
Y18892D02*
D03*
X8296Y18384D02*
D03*
X8292Y17879D02*
D03*
X8296Y17878D02*
D03*
X8292Y17879D02*
D03*
X9052Y19400D02*
D03*
Y18892D02*
D03*
X9056Y18384D02*
D03*
X9052Y17879D02*
D03*
X9056Y17878D02*
D03*
X9052Y17879D02*
D03*
X9828Y19400D02*
D03*
Y18892D02*
D03*
X9832Y18384D02*
D03*
X9828Y17879D02*
D03*
X9832Y17878D02*
D03*
X9828Y17879D02*
D03*
X10544Y19400D02*
D03*
Y18892D02*
D03*
X10548Y18384D02*
D03*
X10544Y17879D02*
D03*
X10548Y17878D02*
D03*
X10544Y17879D02*
D03*
X12234Y19400D02*
D03*
Y18892D02*
D03*
X12238Y18384D02*
D03*
X12234Y17879D02*
D03*
X12238Y17878D02*
D03*
X12234Y17879D02*
D03*
X12926Y19400D02*
D03*
Y18892D02*
D03*
X12930Y18384D02*
D03*
X12926Y17879D02*
D03*
X12930Y17878D02*
D03*
X12926Y17879D02*
D03*
X13663Y19400D02*
D03*
Y18892D02*
D03*
X13667Y18384D02*
D03*
X13663Y17879D02*
D03*
X13667Y17878D02*
D03*
X13663Y17879D02*
D03*
X14412Y19400D02*
D03*
Y18892D02*
D03*
X14416Y18384D02*
D03*
X14412Y17879D02*
D03*
X14416Y17878D02*
D03*
X14412Y17879D02*
D03*
X15529Y19400D02*
D03*
Y18892D02*
D03*
X15533Y18384D02*
D03*
X15529Y17879D02*
D03*
X15533Y17878D02*
D03*
X15529Y17879D02*
D03*
X16344Y19400D02*
D03*
Y18892D02*
D03*
X16348Y18384D02*
D03*
X16344Y17879D02*
D03*
X16348Y17878D02*
D03*
X16344Y17879D02*
D03*
X17112Y19400D02*
D03*
Y18892D02*
D03*
X17116Y18384D02*
D03*
X17112Y17879D02*
D03*
X17116Y17878D02*
D03*
X17112Y17879D02*
D03*
X17893Y19400D02*
D03*
Y18892D02*
D03*
X17897Y18384D02*
D03*
X17893Y17879D02*
D03*
X17897Y17878D02*
D03*
X17893Y17879D02*
D03*
X19767Y19400D02*
D03*
Y18892D02*
D03*
X19771Y18384D02*
D03*
X19767Y17879D02*
D03*
X19771Y17878D02*
D03*
X19767Y17879D02*
D03*
X20548Y19400D02*
D03*
Y18892D02*
D03*
X20552Y18384D02*
D03*
X20548Y17879D02*
D03*
X20552Y17878D02*
D03*
X20548Y17879D02*
D03*
X21316Y19400D02*
D03*
Y18892D02*
D03*
X21320Y18384D02*
D03*
X21316Y17879D02*
D03*
X21320Y17878D02*
D03*
X21316Y17879D02*
D03*
X22097Y19400D02*
D03*
Y18892D02*
D03*
X22101Y18384D02*
D03*
X22097Y17879D02*
D03*
X22101Y17878D02*
D03*
X22097Y17879D02*
D03*
D25*
X6238Y296D02*
D03*
X15138D02*
D03*
X500Y1000D02*
D03*
X23000D02*
D03*
Y19000D02*
D03*
X500D02*
D03*
D26*
X6751Y1080D02*
D03*
X14625D02*
D03*
X7005D02*
D03*
X7259D02*
D03*
X7513D02*
D03*
X7767D02*
D03*
X8021D02*
D03*
X8275D02*
D03*
X8529D02*
D03*
X8783D02*
D03*
X9037D02*
D03*
X9291D02*
D03*
X9545D02*
D03*
X9799D02*
D03*
X10053D02*
D03*
X10307D02*
D03*
X10561D02*
D03*
X10815D02*
D03*
X11069D02*
D03*
X11323D02*
D03*
X11577D02*
D03*
X11831D02*
D03*
X12085D02*
D03*
X12339D02*
D03*
X12593D02*
D03*
X12847D02*
D03*
X13101D02*
D03*
X13355D02*
D03*
X13609D02*
D03*
X13863D02*
D03*
X14117D02*
D03*
X14371D02*
D03*
X6754Y821D02*
D03*
X14628Y831D02*
D03*
X7008Y821D02*
D03*
X7262D02*
D03*
X7516D02*
D03*
X7770D02*
D03*
X8024D02*
D03*
X8278D02*
D03*
X8532D02*
D03*
X8786D02*
D03*
X9040D02*
D03*
X9294D02*
D03*
X9548D02*
D03*
X9802D02*
D03*
X10056D02*
D03*
X10310D02*
D03*
X10564D02*
D03*
X10818D02*
D03*
X11072D02*
D03*
X11326D02*
D03*
X11580D02*
D03*
X11834D02*
D03*
X12088D02*
D03*
X12342D02*
D03*
X12596D02*
D03*
X12850D02*
D03*
X13104D02*
D03*
X13358D02*
D03*
X13612D02*
D03*
X13866D02*
D03*
X14120D02*
D03*
X14374D02*
D03*
X6751Y552D02*
D03*
X14625D02*
D03*
X7005D02*
D03*
X7259D02*
D03*
X7513D02*
D03*
X7767D02*
D03*
X8021D02*
D03*
X8275D02*
D03*
X8529D02*
D03*
X8783D02*
D03*
X9037D02*
D03*
X9291D02*
D03*
X9545D02*
D03*
X9799D02*
D03*
X10053D02*
D03*
X10307D02*
D03*
X10561D02*
D03*
X10815D02*
D03*
X11069D02*
D03*
X11323D02*
D03*
X11577D02*
D03*
X11831D02*
D03*
X12085D02*
D03*
X12339D02*
D03*
X12593D02*
D03*
X12847D02*
D03*
X13101D02*
D03*
X13355D02*
D03*
X13609D02*
D03*
X13863D02*
D03*
X14117D02*
D03*
X14371D02*
D03*
D27*
X17891Y670D02*
D03*
X17383D02*
D03*
X17129D02*
D03*
X17637D02*
D03*
X18145D02*
D03*
Y924D02*
D03*
X17891D02*
D03*
X17637D02*
D03*
X17383D02*
D03*
X17129D02*
D03*
D28*
X19314Y11872D02*
D03*
X17307Y11385D02*
D03*
X18069Y11516D02*
D03*
X4836Y12075D02*
D03*
X4125Y12430D02*
D03*
X10817Y13878D02*
D03*
X17790Y14132D02*
D03*
X19707Y13992D02*
D03*
X7731Y18984D02*
D03*
X4150Y14285D02*
D03*
X19492Y17409D02*
D03*
X19542Y17587D02*
D03*
X19259Y18632D02*
D03*
X19282Y18800D02*
D03*
X3532Y18526D02*
D03*
X14849Y19517D02*
D03*
X15072Y19085D02*
D03*
X14715Y668D02*
D03*
X13878Y1331D02*
D03*
X12593Y1356D02*
D03*
X12339D02*
D03*
X11831D02*
D03*
X11323D02*
D03*
X11110D02*
D03*
X10307D02*
D03*
X9545D02*
D03*
X9255D02*
D03*
X8783D02*
D03*
X8529D02*
D03*
X8275D02*
D03*
X8011Y1407D02*
D03*
X4201Y5623D02*
D03*
Y9789D02*
D03*
Y5124D02*
D03*
Y3363D02*
D03*
X4137Y2842D02*
D03*
X11338Y18780D02*
D03*
X10957Y19161D02*
D03*
X11338Y16444D02*
D03*
Y14386D02*
D03*
X4175Y18730D02*
D03*
X11338Y5014D02*
D03*
X18806Y9713D02*
D03*
X19288Y9738D02*
D03*
X3617Y19592D02*
D03*
X3705Y18691D02*
D03*
X3718Y18298D02*
D03*
X4887Y16393D02*
D03*
X4666Y16383D02*
D03*
X4725Y16155D02*
D03*
X3617Y14005D02*
D03*
X3698Y13873D02*
D03*
X4683Y14004D02*
D03*
X4658Y11745D02*
D03*
X4099Y8976D02*
D03*
X4734Y9738D02*
D03*
X3490Y7020D02*
D03*
X3900Y4281D02*
D03*
X4785Y4810D02*
D03*
X4607Y4887D02*
D03*
X4709Y4201D02*
D03*
X4810Y2804D02*
D03*
X4297Y2423D02*
D03*
X10754Y2626D02*
D03*
X11897Y2677D02*
D03*
X10897Y4997D02*
D03*
X11135Y3965D02*
D03*
X10955Y11546D02*
D03*
X11973Y11567D02*
D03*
X10729Y14132D02*
D03*
X11948Y16494D02*
D03*
X11855Y16409D02*
D03*
X11366Y18526D02*
D03*
X10932Y18552D02*
D03*
X10983Y18450D02*
D03*
X18951Y18425D02*
D03*
X18943Y13618D02*
D03*
X16774Y12202D02*
D03*
X17897Y11808D02*
D03*
X18857Y11859D02*
D03*
X18349Y9192D02*
D03*
X18925Y9362D02*
D03*
X19301Y9573D02*
D03*
X18120Y7503D02*
D03*
X17282Y6842D02*
D03*
X18857Y7005D02*
D03*
X19314Y7249D02*
D03*
Y4988D02*
D03*
X19475Y2524D02*
D03*
X11745Y12319D02*
D03*
X11823Y9943D02*
D03*
X12710Y18298D02*
D03*
X12684Y18806D02*
D03*
X12710Y17841D02*
D03*
X5496Y18247D02*
D03*
X4480Y16901D02*
D03*
X4531Y12354D02*
D03*
X4589Y7802D02*
D03*
X17307Y19009D02*
D03*
X19169Y14709D02*
D03*
X11880Y13873D02*
D03*
X10551Y1346D02*
D03*
X9829Y1442D02*
D03*
X10830Y4997D02*
D03*
X11851Y14086D02*
D03*
X11833Y14310D02*
D03*
X18374Y13858D02*
D03*
X19268Y16812D02*
D03*
X18265Y13342D02*
D03*
X12847Y1356D02*
D03*
X18745Y13236D02*
D03*
X18295Y5382D02*
D03*
X4089Y13511D02*
D03*
X18450Y16177D02*
D03*
X4125Y12019D02*
D03*
X5115Y13599D02*
D03*
X4835Y13600D02*
D03*
X14117Y1356D02*
D03*
X12085D02*
D03*
X18425Y3278D02*
D03*
X16444Y13929D02*
D03*
X20137Y12128D02*
D03*
X11948Y12225D02*
D03*
X12255Y17386D02*
D03*
X19113Y1813D02*
D03*
X18077Y4988D02*
D03*
X17378Y4874D02*
D03*
X18222Y4836D02*
D03*
X13101Y1356D02*
D03*
X11338Y12100D02*
D03*
X10815Y1356D02*
D03*
X13355D02*
D03*
X11757Y8128D02*
D03*
X10053Y1356D02*
D03*
X11005Y2334D02*
D03*
X11851Y6816D02*
D03*
X11577Y1356D02*
D03*
X4506Y5522D02*
D03*
Y3261D02*
D03*
X19169Y7828D02*
D03*
X19161Y5547D02*
D03*
X19233Y3215D02*
D03*
X20050Y14701D02*
D03*
Y15969D02*
D03*
X7757Y1407D02*
D03*
X19368Y16177D02*
D03*
X11303Y8900D02*
D03*
X19263Y2834D02*
D03*
X11663Y5737D02*
D03*
X3744Y4760D02*
D03*
X10932Y16409D02*
D03*
X4158Y1978D02*
D03*
X19187Y7940D02*
D03*
X17802Y3045D02*
D03*
X19720Y13548D02*
D03*
X20137Y15905D02*
D03*
X7528Y2601D02*
D03*
X3535Y9130D02*
D03*
X3745Y9308D02*
D03*
X3708Y6817D02*
D03*
X11922Y11338D02*
D03*
X18095Y16672D02*
D03*
X10957Y9738D02*
D03*
X11745Y10111D02*
D03*
X17815Y8925D02*
D03*
X18120Y9535D02*
D03*
X18095Y12049D02*
D03*
X18933Y11399D02*
D03*
X11996Y9510D02*
D03*
X4605Y18437D02*
D03*
X10703Y15986D02*
D03*
X12034Y17080D02*
D03*
X19212Y3312D02*
D03*
X18857Y12075D02*
D03*
X19288Y12024D02*
D03*
X18882Y9738D02*
D03*
X19365Y11478D02*
D03*
X3693Y9128D02*
D03*
X11719Y3236D02*
D03*
X4175Y10170D02*
D03*
Y16536D02*
D03*
X3670Y4489D02*
D03*
X4785Y11618D02*
D03*
X4607Y10754D02*
D03*
X4709Y9560D02*
D03*
X4310Y8844D02*
D03*
X4683Y6919D02*
D03*
X11872Y2397D02*
D03*
X19974Y16088D02*
D03*
X5191Y12380D02*
D03*
X3766Y11615D02*
D03*
X11546Y3558D02*
D03*
X11893Y4942D02*
D03*
X19288Y9738D02*
D03*
X18831Y14208D02*
D03*
X19288Y16088D02*
D03*
X18882Y16494D02*
D03*
X18831Y18552D02*
D03*
X18120Y19085D02*
D03*
X18336Y18526D02*
D03*
X17307Y18788D02*
D03*
X18755Y18831D02*
D03*
X12367Y14508D02*
D03*
X10983Y4743D02*
D03*
X10500Y11668D02*
D03*
X20279Y18780D02*
D03*
X19187Y19263D02*
D03*
X4480Y14640D02*
D03*
X19314Y2448D02*
D03*
X18272D02*
D03*
X19593Y4252D02*
D03*
X18354Y4732D02*
D03*
X19339Y7071D02*
D03*
X19415Y9230D02*
D03*
X18338Y11541D02*
D03*
X17256Y13472D02*
D03*
X18216Y16113D02*
D03*
X12050Y15953D02*
D03*
X11313Y15966D02*
D03*
X10983Y13751D02*
D03*
X10729Y11465D02*
D03*
X11943Y8984D02*
D03*
X10838Y9245D02*
D03*
X10729Y9027D02*
D03*
X10944Y6599D02*
D03*
X3667Y2321D02*
D03*
X4310Y4226D02*
D03*
X4313Y6024D02*
D03*
X4785Y7147D02*
D03*
X4607Y7325D02*
D03*
X4277Y10754D02*
D03*
X3540Y11973D02*
D03*
X4089Y11236D02*
D03*
X3540Y13700D02*
D03*
X3718Y15961D02*
D03*
X3617Y16139D02*
D03*
X3769Y16418D02*
D03*
X4709Y18691D02*
D03*
X17917Y1178D02*
D03*
X9037Y1356D02*
D03*
X15301Y1573D02*
D03*
X19187Y10043D02*
D03*
X12430Y18704D02*
D03*
X12109Y18687D02*
D03*
X12557Y18069D02*
D03*
X12583Y18171D02*
D03*
X17307Y18349D02*
D03*
X10348Y15631D02*
D03*
X10500Y15301D02*
D03*
X9992Y16215D02*
D03*
X10043Y16469D02*
D03*
X12438Y13124D02*
D03*
X12456Y13573D02*
D03*
X18425Y14183D02*
D03*
X11313Y11922D02*
D03*
X4175Y7477D02*
D03*
X3591Y6944D02*
D03*
X5450Y7731D02*
D03*
X5471Y7274D02*
D03*
X10758Y7270D02*
D03*
X10348Y6817D02*
D03*
X10957Y7452D02*
D03*
X11770Y7376D02*
D03*
X11897Y7096D02*
D03*
X18323Y6995D02*
D03*
X18349Y7085D02*
D03*
X19263Y7452D02*
D03*
X18857Y7477D02*
D03*
X13609Y1356D02*
D03*
X11582Y2842D02*
D03*
X14869Y2321D02*
D03*
X14818Y3261D02*
D03*
X17282Y2296D02*
D03*
X17612Y2651D02*
D03*
X10373Y14513D02*
D03*
X10246Y13954D02*
D03*
X7731Y18984D02*
D03*
X7757Y19669D02*
D03*
X20203Y16367D02*
D03*
X20228Y16342D02*
D03*
X12554Y11842D02*
D03*
X12532Y11338D02*
D03*
X3642Y18933D02*
D03*
X4125Y7020D02*
D03*
X10805Y2296D02*
D03*
X19258Y5149D02*
D03*
X9992Y2166D02*
D03*
X10373Y1991D02*
D03*
X6507Y2524D02*
D03*
X4861Y11287D02*
D03*
X5217Y9103D02*
D03*
X9789Y5217D02*
D03*
D29*
X12100Y11237D02*
D03*
X19279Y18476D02*
D03*
X10991Y18336D02*
D03*
X11846Y9713D02*
D03*
X18095Y13751D02*
D03*
M02*
