G04 Layer_Physical_Order=1*
G04 Layer_Color=255*
%FSLAX42Y42*%
%MOMM*%
G71*
G01*
G75*
%ADD10R,1.10X0.60*%
%ADD11O,0.60X1.55*%
%ADD12R,1.75X1.00*%
%ADD13R,0.90X1.40*%
%ADD14R,1.00X1.75*%
%ADD15O,1.35X0.55*%
G04:AMPARAMS|DCode=16|XSize=0.8mm|YSize=1.5mm|CornerRadius=0mm|HoleSize=0mm|Usage=FLASHONLY|Rotation=90.000|XOffset=0mm|YOffset=0mm|HoleType=Round|Shape=Octagon|*
%AMOCTAGOND16*
4,1,8,-0.75,-0.20,-0.75,0.20,-0.55,0.40,0.55,0.40,0.75,0.20,0.75,-0.20,0.55,-0.40,-0.55,-0.40,-0.75,-0.20,0.0*
%
%ADD16OCTAGOND16*%

G04:AMPARAMS|DCode=17|XSize=0.8mm|YSize=1.5mm|CornerRadius=0mm|HoleSize=0mm|Usage=FLASHONLY|Rotation=180.000|XOffset=0mm|YOffset=0mm|HoleType=Round|Shape=Octagon|*
%AMOCTAGOND17*
4,1,8,0.20,-0.75,-0.20,-0.75,-0.40,-0.55,-0.40,0.55,-0.20,0.75,0.20,0.75,0.40,0.55,0.40,-0.55,0.20,-0.75,0.0*
%
%ADD17OCTAGOND17*%

%ADD18R,1.65X2.00*%
%ADD19O,0.40X1.70*%
%ADD20C,0.29*%
%ADD21R,3.10X5.60*%
%ADD22R,1.55X0.70*%
%ADD23R,0.70X1.55*%
%ADD24R,1.80X1.15*%
%ADD25R,1.15X1.80*%
%ADD26R,1.40X0.90*%
%ADD27R,0.90X0.80*%
%ADD28R,0.80X0.90*%
%ADD29R,1.55X0.60*%
%ADD30R,5.55X6.10*%
%ADD31R,1.30X1.80*%
%ADD32O,2.20X0.60*%
%ADD33R,1.65X1.45*%
%ADD34R,1.45X1.65*%
%ADD35C,0.30*%
%ADD36C,0.10*%
%ADD37C,0.50*%
%ADD38C,0.15*%
%ADD39C,1.00*%
%ADD40C,0.20*%
%ADD41C,0.25*%
%ADD42C,0.05*%
%ADD43R,1.30X1.30*%
%ADD44C,1.30*%
%ADD45C,1.70*%
%ADD46R,1.70X1.70*%
%ADD47R,1.70X1.70*%
%ADD48C,0.40*%
%ADD49C,1.27*%
G36*
X5770Y4267D02*
X5793Y4257D01*
X6974D01*
X7238Y3993D01*
X7226Y3965D01*
X5875D01*
X5868Y3995D01*
X5878Y4017D01*
X5834D01*
Y4030D01*
X5821D01*
Y4074D01*
X5799Y4065D01*
X5798Y4063D01*
X5587D01*
X5567Y4093D01*
X5568Y4095D01*
X5566Y4101D01*
X5556Y4128D01*
X5566Y4154D01*
X5568Y4160D01*
X5556Y4191D01*
X5525Y4203D01*
X5494Y4191D01*
X5491Y4191D01*
X5473Y4198D01*
Y4160D01*
X5447D01*
Y4209D01*
X5428Y4222D01*
Y4254D01*
X5430Y4255D01*
X5444Y4290D01*
X5430Y4325D01*
X5395Y4339D01*
X5360Y4325D01*
X5332Y4325D01*
X5331Y4325D01*
X5325Y4355D01*
X5334Y4377D01*
X5290D01*
Y4403D01*
X5343D01*
X5354Y4420D01*
X5617D01*
X5770Y4267D01*
D02*
G37*
G36*
X1446Y2643D02*
X1895D01*
X2107Y2431D01*
Y1430D01*
X2123Y1391D01*
X2334Y1180D01*
X2373Y1164D01*
X3406D01*
X3585Y985D01*
Y374D01*
X3601Y335D01*
X3780Y156D01*
X3819Y140D01*
X7195D01*
X7234Y156D01*
X7643Y565D01*
X7668Y549D01*
X7609Y408D01*
X7716Y149D01*
X7887Y78D01*
X7881Y49D01*
X494D01*
X488Y78D01*
X659Y149D01*
X766Y408D01*
X659Y666D01*
X400Y773D01*
X141Y666D01*
X71Y496D01*
X41Y502D01*
Y1368D01*
X71Y1374D01*
X92Y1324D01*
X262Y1154D01*
X320Y1130D01*
X511D01*
X550Y1113D01*
X619Y1142D01*
X648Y1211D01*
X622Y1274D01*
X635Y1304D01*
X800D01*
X800Y1304D01*
X819Y1312D01*
X819Y1312D01*
X1028Y1521D01*
X1056Y1509D01*
Y845D01*
X1080Y787D01*
X1154Y714D01*
X1211Y690D01*
X1242D01*
Y646D01*
X1458D01*
Y897D01*
X1242D01*
X1219Y914D01*
Y986D01*
X1480D01*
X1568Y897D01*
Y831D01*
X1589Y782D01*
X1575Y752D01*
X1547D01*
Y704D01*
X1650D01*
Y691D01*
X1663D01*
Y631D01*
X1753D01*
Y631D01*
X1781Y627D01*
X1782Y626D01*
Y495D01*
X1753Y492D01*
X1752Y492D01*
X1547D01*
Y492D01*
X1517Y479D01*
X1500Y486D01*
X1458D01*
Y557D01*
X1242D01*
Y306D01*
X1458D01*
Y377D01*
X1500D01*
X1517Y384D01*
X1547Y371D01*
Y371D01*
X1753D01*
Y420D01*
X1782Y422D01*
X1798Y384D01*
X1831Y350D01*
X1870Y334D01*
X2047D01*
Y321D01*
X2080Y288D01*
X2100D01*
Y389D01*
Y489D01*
X2080D01*
X2047Y456D01*
Y443D01*
X1893D01*
X1891Y445D01*
Y634D01*
X1875Y672D01*
X1849Y683D01*
X1810Y722D01*
X1779Y735D01*
X1753Y748D01*
Y752D01*
X1725D01*
X1711Y782D01*
X1732Y831D01*
Y931D01*
X1719Y961D01*
X1736Y986D01*
X1803D01*
Y1304D01*
X1500D01*
Y1316D01*
X1487D01*
Y1647D01*
X1219D01*
Y1700D01*
X1454D01*
X1512Y1724D01*
X1729Y1941D01*
X1819D01*
Y1966D01*
X1849Y1982D01*
X1863Y1972D01*
Y764D01*
X1879Y725D01*
X1959Y645D01*
X1998Y629D01*
X2047D01*
Y616D01*
X2080Y583D01*
X2145D01*
X2178Y616D01*
Y629D01*
X2251D01*
X2326Y554D01*
X2365Y538D01*
X2423D01*
Y522D01*
X2614D01*
Y663D01*
X2423D01*
Y647D01*
X2388D01*
X2312Y722D01*
X2274Y738D01*
X2178D01*
Y751D01*
X2145Y784D01*
X2080D01*
X2047Y751D01*
Y746D01*
X2017Y741D01*
X1972Y786D01*
Y1990D01*
X1986Y1996D01*
X2014Y2064D01*
X1986Y2132D01*
X1917Y2160D01*
X1849Y2132D01*
X1849Y2132D01*
X1819Y2138D01*
Y2172D01*
X1784D01*
Y2269D01*
X1768Y2307D01*
X1702Y2373D01*
Y2416D01*
X1715D01*
X1748Y2449D01*
Y2514D01*
X1715Y2547D01*
X1580D01*
X1547Y2514D01*
Y2449D01*
X1580Y2416D01*
X1593D01*
Y2350D01*
X1609Y2311D01*
X1674Y2246D01*
Y2172D01*
X1639D01*
Y2081D01*
X1420Y1863D01*
X1077D01*
Y2400D01*
X1298D01*
Y2356D01*
X1232Y2291D01*
X1216Y2252D01*
Y2172D01*
X1181D01*
Y1941D01*
X1361D01*
Y2172D01*
X1326D01*
Y2230D01*
X1391Y2295D01*
X1407Y2334D01*
Y2416D01*
X1420D01*
X1453Y2449D01*
Y2514D01*
X1420Y2547D01*
X1405D01*
Y2628D01*
X1435Y2648D01*
X1446Y2643D01*
D02*
G37*
G36*
X1050Y3231D02*
Y2563D01*
X589D01*
X550Y2579D01*
X481Y2550D01*
X452Y2481D01*
X481Y2412D01*
X550Y2383D01*
X589Y2400D01*
X1050D01*
Y1863D01*
X776D01*
X635Y2003D01*
X619Y2042D01*
X550Y2071D01*
X481Y2042D01*
X452Y1973D01*
X481Y1904D01*
X520Y1888D01*
X684Y1724D01*
X742Y1700D01*
X1050D01*
Y1581D01*
X800Y1331D01*
X593D01*
X583Y1381D01*
X619Y1396D01*
X643Y1453D01*
X550D01*
X457D01*
X481Y1396D01*
X517Y1381D01*
X507Y1331D01*
X500D01*
X462Y1293D01*
X354D01*
X232Y1415D01*
Y2997D01*
X334Y3100D01*
X506D01*
Y3091D01*
X686D01*
Y3272D01*
X746Y3331D01*
X950D01*
X1050Y3231D01*
D02*
G37*
G36*
X5473Y3265D02*
X5492Y3252D01*
Y3009D01*
X5502Y2986D01*
X5713Y2775D01*
Y2714D01*
X5726Y2683D01*
X5701Y2666D01*
X5412Y2955D01*
Y3255D01*
X5442Y3273D01*
X5447Y3271D01*
Y3315D01*
X5473D01*
Y3265D01*
D02*
G37*
G36*
X4893Y4991D02*
X4875Y4946D01*
X4903Y4877D01*
X4972Y4848D01*
X5042Y4877D01*
X5070Y4871D01*
Y4566D01*
X4965Y4462D01*
X4956Y4439D01*
Y4328D01*
X4926Y4308D01*
X4914Y4313D01*
X4910Y4325D01*
X4888Y4334D01*
Y4290D01*
X4875D01*
Y4277D01*
X4831D01*
X4840Y4255D01*
X4875Y4241D01*
X4877Y4242D01*
X4913Y4206D01*
X4909Y4191D01*
X4897Y4160D01*
X4899Y4154D01*
X4909Y4128D01*
X4899Y4101D01*
X4897Y4095D01*
X4909Y4064D01*
X4909Y4061D01*
X4897Y4030D01*
X4870Y4018D01*
X4843Y4030D01*
X4828Y4065D01*
X4794Y4079D01*
X4759Y4065D01*
X4745Y4030D01*
X4758Y3999D01*
X4745Y3970D01*
X4730Y3968D01*
X4707Y3990D01*
Y4720D01*
X4773D01*
Y4935D01*
X4729D01*
Y4983D01*
X4769D01*
Y5076D01*
X4797Y5087D01*
X4893Y4991D01*
D02*
G37*
G36*
X7887Y5437D02*
X7716Y5366D01*
X7609Y5108D01*
X7716Y4849D01*
X7975Y4742D01*
X8234Y4849D01*
X8304Y5019D01*
X8334Y5013D01*
Y502D01*
X8304Y496D01*
X8234Y666D01*
X7975Y773D01*
X7834Y715D01*
X7817Y740D01*
X7939Y861D01*
X7955Y900D01*
Y1345D01*
X8099Y1489D01*
X8115Y1527D01*
Y1611D01*
X8130D01*
Y1802D01*
X8125D01*
Y1862D01*
X8140D01*
Y2053D01*
X8125D01*
Y2112D01*
X8140D01*
Y2303D01*
X8125D01*
Y3370D01*
X8109Y3409D01*
X8031Y3486D01*
X7992Y3502D01*
X7907D01*
X7869Y3486D01*
X7798Y3415D01*
X7782Y3376D01*
X7789Y3358D01*
X7774Y3336D01*
X7768Y3331D01*
X7739Y3319D01*
X7706Y3333D01*
X7699Y3330D01*
X7674Y3347D01*
Y3636D01*
X7665Y3660D01*
X7031Y4293D01*
X7048Y4318D01*
X7053Y4317D01*
X7137Y4352D01*
X7164Y4416D01*
X7196D01*
X7222Y4354D01*
X7307Y4319D01*
X7391Y4354D01*
X7426Y4438D01*
X7391Y4522D01*
X7328Y4549D01*
Y4581D01*
X7391Y4608D01*
X7408Y4649D01*
X7437Y4661D01*
X7506Y4730D01*
X7506Y4730D01*
X7519Y4761D01*
X7519Y4761D01*
Y5005D01*
X7506Y5036D01*
X7506Y5036D01*
X7311Y5231D01*
X7280Y5244D01*
X7280Y5244D01*
X6516D01*
X6516Y5244D01*
X6485Y5231D01*
X6485Y5231D01*
X6355Y5101D01*
X6343Y5070D01*
X6343Y5070D01*
Y4794D01*
X6343Y4794D01*
X6355Y4763D01*
X6409Y4709D01*
Y4630D01*
X6409Y4630D01*
X6422Y4599D01*
X6490Y4531D01*
X6486Y4522D01*
X6500Y4488D01*
X6486Y4458D01*
X6289D01*
X6269Y4480D01*
X6286Y4522D01*
X6269Y4564D01*
X6257Y4569D01*
Y4602D01*
X6269Y4607D01*
X6286Y4649D01*
X6269Y4691D01*
X6257Y4696D01*
Y4729D01*
X6269Y4734D01*
X6286Y4776D01*
X6269Y4818D01*
X6257Y4823D01*
Y4856D01*
X6269Y4861D01*
X6281Y4890D01*
X6146D01*
Y4916D01*
X6281D01*
X6269Y4945D01*
X6226Y4963D01*
X6165D01*
X6151Y4977D01*
X6120Y4990D01*
X6120Y4990D01*
X5560D01*
X5550Y5015D01*
X5493Y5039D01*
Y4946D01*
Y4853D01*
X5550Y4877D01*
X5560Y4902D01*
X6007D01*
X6024Y4861D01*
X6017Y4831D01*
X6006Y4821D01*
X5977D01*
X5964Y4827D01*
X5929Y4812D01*
X5915Y4778D01*
X5929Y4743D01*
X5964Y4728D01*
X5977Y4734D01*
X6007D01*
X6019Y4704D01*
X6019Y4703D01*
X6007Y4693D01*
X5977D01*
X5964Y4698D01*
X5929Y4684D01*
X5915Y4649D01*
X5929Y4614D01*
X5964Y4600D01*
X5977Y4605D01*
X6027D01*
X6036Y4602D01*
Y4569D01*
X6024Y4564D01*
X6006Y4522D01*
X6024Y4480D01*
X6066Y4462D01*
X6129D01*
X6226Y4365D01*
X6256Y4353D01*
X6250Y4323D01*
X5807D01*
X5654Y4476D01*
X5631Y4485D01*
X5233D01*
X5209Y4476D01*
X5169Y4436D01*
X5141Y4447D01*
X5139Y4472D01*
X5386Y4719D01*
X5395Y4742D01*
Y4854D01*
X5425Y4871D01*
X5468Y4853D01*
Y4946D01*
Y5039D01*
X5425Y5021D01*
X5395Y5038D01*
Y5068D01*
X5437Y5110D01*
X5571D01*
Y5290D01*
X5390D01*
Y5156D01*
X5339Y5105D01*
X5330Y5082D01*
Y5012D01*
X5300Y5006D01*
X5296Y5015D01*
X5226Y5044D01*
X5165Y5019D01*
X5135Y5032D01*
Y5070D01*
X5126Y5093D01*
X5055Y5164D01*
X5070Y5200D01*
X5042Y5269D01*
X4972Y5298D01*
X4903Y5269D01*
X4876Y5204D01*
X4847Y5191D01*
X4769Y5269D01*
Y5334D01*
X4579D01*
Y5318D01*
X4412D01*
Y5334D01*
X4221D01*
Y5193D01*
X4412D01*
Y5209D01*
X4579D01*
Y5193D01*
X4691D01*
X4732Y5152D01*
X4721Y5124D01*
X4579D01*
Y4983D01*
X4619D01*
Y4935D01*
X4577D01*
Y4720D01*
X4641D01*
Y3995D01*
X4611Y3983D01*
X4353Y4241D01*
Y4720D01*
X4418D01*
Y4935D01*
X4374D01*
Y4983D01*
X4412D01*
Y5124D01*
X4221D01*
Y4983D01*
X4264D01*
Y4935D01*
X4222D01*
Y4720D01*
X4287D01*
Y4227D01*
X4297Y4204D01*
X4573Y3928D01*
X4561Y3900D01*
X4194D01*
X3836Y4258D01*
X3812Y4268D01*
X3693D01*
Y4338D01*
X3572D01*
Y4338D01*
X3543Y4340D01*
Y4499D01*
X3576Y4532D01*
X3693D01*
Y4738D01*
X3572D01*
Y4621D01*
X3487Y4536D01*
X3477Y4512D01*
Y4160D01*
X3487Y4137D01*
X3552Y4072D01*
X3575Y4062D01*
X3838D01*
X4037Y3863D01*
X4025Y3835D01*
X3865D01*
X3842Y3858D01*
X3819Y3868D01*
X3693D01*
Y3938D01*
X3572D01*
Y3756D01*
X3542Y3736D01*
X3504Y3752D01*
X3463Y3735D01*
X3433Y3755D01*
Y3938D01*
X3312D01*
Y3881D01*
X3238D01*
X3206Y3895D01*
X3126D01*
X3085Y3878D01*
X3080Y3866D01*
X3080Y3865D01*
X3050Y3871D01*
Y4213D01*
X3056Y4216D01*
X3093Y4205D01*
X3134Y4188D01*
X3214D01*
X3246Y4201D01*
X3312D01*
Y4132D01*
X3433D01*
Y4338D01*
X3353D01*
X3350Y4345D01*
X3346Y4373D01*
X3359Y4404D01*
X3359Y4404D01*
Y4469D01*
X3359Y4469D01*
X3346Y4500D01*
X3354Y4527D01*
X3356Y4532D01*
X3433D01*
Y4738D01*
X3312D01*
Y4670D01*
X3246D01*
X3214Y4683D01*
X3134D01*
X3093Y4666D01*
X3083Y4642D01*
X3049Y4634D01*
X3026Y4657D01*
X2995Y4670D01*
X2995Y4670D01*
X2696D01*
X2664Y4683D01*
X2584D01*
X2543Y4666D01*
X2526Y4626D01*
X2543Y4586D01*
X2543Y4553D01*
X2531Y4543D01*
X2529D01*
X2529Y4543D01*
X2518Y4538D01*
X2492Y4530D01*
X2492Y4530D01*
Y4530D01*
X2492Y4530D01*
X2351D01*
Y4419D01*
X2313D01*
Y4440D01*
X2172D01*
X2154Y4463D01*
Y4960D01*
X2218Y5025D01*
X2244Y5008D01*
X2222Y4956D01*
X2257Y4872D01*
X2342Y4837D01*
X2426Y4872D01*
X2453Y4935D01*
X2485D01*
X2511Y4872D01*
X2596Y4837D01*
X2680Y4872D01*
X2707Y4935D01*
X2739D01*
X2765Y4872D01*
X2850Y4837D01*
X2934Y4872D01*
X2961Y4935D01*
X2993D01*
X3019Y4872D01*
X3104Y4837D01*
X3188Y4872D01*
X3213Y4932D01*
X3246D01*
X3270Y4873D01*
X3355Y4838D01*
X3439Y4873D01*
X3474Y4957D01*
X3439Y5042D01*
X3371Y5070D01*
X3377Y5100D01*
X3468D01*
Y5321D01*
X3247D01*
Y5230D01*
X3217Y5224D01*
X3188Y5295D01*
X3104Y5330D01*
X3019Y5295D01*
X2993Y5231D01*
X2961D01*
X2934Y5295D01*
X2850Y5330D01*
X2765Y5295D01*
X2739Y5231D01*
X2707D01*
X2680Y5295D01*
X2596Y5330D01*
X2555Y5313D01*
X2491Y5377D01*
X2460Y5390D01*
X2460Y5390D01*
X2226D01*
X2195Y5377D01*
X2195Y5377D01*
X1952Y5133D01*
X1939Y5103D01*
X1939Y5102D01*
Y3768D01*
X1911Y3756D01*
X1770Y3897D01*
X1731Y3913D01*
X1562D01*
Y3926D01*
X1529Y3959D01*
X1464D01*
X1431Y3926D01*
Y3913D01*
X1389D01*
X1350Y3897D01*
X1164Y3711D01*
X876D01*
X858Y3733D01*
Y3776D01*
X778D01*
Y3801D01*
X858D01*
Y3840D01*
X1226D01*
X1226Y3840D01*
X1257Y3853D01*
X1461Y4056D01*
X1464Y4053D01*
X1529D01*
X1562Y4086D01*
Y4107D01*
X1611D01*
X1617Y4093D01*
X1685Y4065D01*
X1753Y4093D01*
X1781Y4161D01*
X1753Y4229D01*
X1685Y4257D01*
X1617Y4229D01*
X1611Y4216D01*
X1562D01*
Y4221D01*
X1529Y4254D01*
X1464D01*
X1461Y4251D01*
X1246Y4466D01*
X1215Y4479D01*
X1215Y4479D01*
X875D01*
Y4505D01*
X685D01*
X685Y4505D01*
Y4505D01*
X656Y4510D01*
X650Y4512D01*
X640Y4529D01*
X435D01*
Y4408D01*
X640D01*
X640Y4408D01*
X666Y4398D01*
X684Y4391D01*
X685Y4365D01*
X875D01*
Y4391D01*
X1197D01*
X1415Y4173D01*
Y4134D01*
X1208Y3927D01*
X858D01*
Y3966D01*
X778D01*
Y3991D01*
X858D01*
Y4034D01*
X824D01*
Y4155D01*
X875D01*
Y4181D01*
X913D01*
X923Y4157D01*
X979Y4134D01*
Y4225D01*
Y4316D01*
X923Y4293D01*
X913Y4269D01*
X875D01*
Y4295D01*
X793D01*
Y4225D01*
X780D01*
Y4212D01*
X685D01*
Y4155D01*
X736D01*
Y4034D01*
X697D01*
Y4022D01*
X696D01*
X665Y4010D01*
X645Y3998D01*
X618Y4011D01*
Y4034D01*
X581D01*
Y4148D01*
X640D01*
Y4269D01*
X546D01*
X538Y4272D01*
X529Y4269D01*
X435D01*
Y4148D01*
X494D01*
Y4034D01*
X457D01*
Y4022D01*
X390D01*
Y4039D01*
X185D01*
Y3918D01*
X390D01*
Y3935D01*
X457D01*
Y3923D01*
X606D01*
Y3844D01*
X457D01*
Y3844D01*
X434Y3827D01*
X417Y3820D01*
X417Y3820D01*
X376Y3779D01*
X185D01*
Y3658D01*
X390D01*
Y3680D01*
X408Y3688D01*
X453Y3732D01*
X483Y3726D01*
Y3704D01*
X499Y3665D01*
X546Y3618D01*
X585Y3602D01*
X1186D01*
X1225Y3618D01*
X1401Y3794D01*
X1431Y3791D01*
X1464Y3758D01*
X1529D01*
X1562Y3791D01*
Y3804D01*
X1709D01*
X1847Y3666D01*
Y3445D01*
X1863Y3406D01*
X2058Y3211D01*
X2096Y3195D01*
X4388D01*
X4426Y3211D01*
X4768Y3553D01*
X4842D01*
X4869Y3564D01*
X4905Y3554D01*
X4909Y3544D01*
X4922Y3539D01*
X4936Y3504D01*
X4929Y3489D01*
X4905Y3480D01*
X4891Y3445D01*
X4905Y3410D01*
X4936Y3398D01*
X4948Y3368D01*
X4165Y2585D01*
X4149Y2546D01*
Y1885D01*
X4133D01*
Y1695D01*
X4149D01*
Y1635D01*
X4133D01*
Y1445D01*
X4149D01*
Y1289D01*
X4146Y1288D01*
X4122Y1230D01*
Y1069D01*
X4019D01*
Y458D01*
X4379D01*
Y1069D01*
X4285D01*
Y1230D01*
X4261Y1288D01*
X4258Y1289D01*
Y1445D01*
X4274D01*
Y1635D01*
X4258D01*
Y1695D01*
X4274D01*
Y1885D01*
X4258D01*
Y2524D01*
X5109Y3374D01*
X5125Y3412D01*
Y3430D01*
X5155Y3436D01*
X5165Y3410D01*
X5171Y3383D01*
X5128Y3340D01*
X5119Y3318D01*
X5117Y3317D01*
X5107Y3295D01*
X5195D01*
X5190Y3308D01*
X5221Y3339D01*
X5248Y3328D01*
Y2974D01*
X5258Y2950D01*
X5794Y2414D01*
X5817Y2405D01*
X6776D01*
X6800Y2414D01*
X7326Y2941D01*
X7686D01*
X7710Y2950D01*
X7795Y3035D01*
X7804Y3059D01*
Y3091D01*
X7829Y3108D01*
X7836Y3105D01*
X7869Y3118D01*
X7901Y3105D01*
X7918Y3079D01*
X7917Y3077D01*
X7932Y3043D01*
X7966Y3028D01*
X7985Y3036D01*
X8015Y3018D01*
Y2768D01*
X7985Y2750D01*
X7966Y2758D01*
X7934Y2744D01*
X7901Y2758D01*
X7869Y2744D01*
X7836Y2758D01*
X7804Y2744D01*
X7771Y2758D01*
X7739Y2744D01*
X7706Y2758D01*
X7674Y2744D01*
X7641Y2758D01*
X7609Y2744D01*
X7576Y2758D01*
X7544Y2744D01*
X7511Y2758D01*
X7479Y2744D01*
X7446Y2758D01*
X7414Y2744D01*
X7381Y2758D01*
X7349Y2744D01*
X7316Y2758D01*
X7284Y2744D01*
X7251Y2758D01*
X7217Y2743D01*
X7202Y2709D01*
Y2579D01*
X7217Y2544D01*
X7251Y2530D01*
X7284Y2543D01*
X7316Y2530D01*
X7349Y2543D01*
X7381Y2530D01*
X7414Y2543D01*
X7446Y2530D01*
X7451Y2531D01*
X7476Y2515D01*
Y2450D01*
X7478Y2445D01*
X7475Y2438D01*
X7489Y2403D01*
X7524Y2388D01*
X7558Y2403D01*
X7573Y2438D01*
X7558Y2472D01*
X7547Y2477D01*
Y2515D01*
X7572Y2531D01*
X7576Y2530D01*
X7609Y2543D01*
X7641Y2530D01*
X7674Y2543D01*
X7697Y2533D01*
X7717Y2502D01*
X7733Y2464D01*
X7805Y2391D01*
Y2303D01*
X7790D01*
Y2112D01*
X7805D01*
Y2053D01*
X7790D01*
Y1862D01*
X7795D01*
Y1802D01*
X7780D01*
Y1611D01*
X7920D01*
Y1802D01*
X7905D01*
Y1862D01*
X7930D01*
Y2053D01*
X7915D01*
Y2112D01*
X7930D01*
Y2303D01*
X7915D01*
Y2414D01*
X7899Y2452D01*
X7858Y2493D01*
X7863Y2526D01*
X7884Y2537D01*
X7901Y2530D01*
X7934Y2543D01*
X7966Y2530D01*
X7985Y2538D01*
X8015Y2519D01*
Y2303D01*
X8000D01*
Y2112D01*
X8015D01*
Y2053D01*
X8000D01*
Y1862D01*
X8015D01*
Y1802D01*
X7990D01*
Y1611D01*
X8005D01*
Y1550D01*
X7897Y1442D01*
X7725Y1615D01*
X7686Y1631D01*
X7591D01*
X7577Y1666D01*
X7534Y1684D01*
X7492Y1666D01*
X7487Y1654D01*
X7455D01*
X7450Y1666D01*
X7407Y1684D01*
X7365Y1666D01*
X7360Y1654D01*
X7328D01*
X7323Y1666D01*
X7280Y1684D01*
X7238Y1666D01*
X7233Y1654D01*
X7201D01*
X7196Y1666D01*
X7153Y1684D01*
X7111Y1666D01*
X7096Y1631D01*
X6789D01*
X6751Y1669D01*
Y1796D01*
X6788D01*
X6799Y1796D01*
X6818Y1774D01*
Y1701D01*
X7024D01*
Y1713D01*
X7356D01*
X7356Y1713D01*
X7387Y1725D01*
X7565Y1903D01*
X7565Y1903D01*
X7578Y1934D01*
X7578Y1934D01*
Y2045D01*
X7594Y2084D01*
Y2179D01*
X7577Y2221D01*
X7534Y2239D01*
X7492Y2221D01*
X7487Y2209D01*
X7455D01*
X7450Y2221D01*
X7407Y2239D01*
X7365Y2221D01*
X7335Y2227D01*
X7324Y2238D01*
Y2307D01*
X7324Y2307D01*
X7311Y2338D01*
X7311Y2338D01*
X7093Y2557D01*
X7087Y2570D01*
X7053Y2584D01*
X7018Y2570D01*
X7003Y2535D01*
X7018Y2500D01*
X7031Y2495D01*
X7237Y2289D01*
Y2250D01*
X7208Y2247D01*
X7192Y2285D01*
X7139Y2339D01*
X7100Y2355D01*
X6700D01*
X6661Y2339D01*
X6624Y2301D01*
X6613Y2274D01*
X6601D01*
Y2068D01*
X6606D01*
X6617Y2038D01*
X6613Y2029D01*
X6628Y1994D01*
X6662Y1980D01*
X6697Y1994D01*
X6711Y2029D01*
X6707Y2038D01*
X6719Y2068D01*
X6722D01*
Y2244D01*
X6723Y2245D01*
X6861D01*
Y2068D01*
X6861D01*
X6874Y2038D01*
X6867Y2021D01*
Y2002D01*
X6818D01*
Y1929D01*
X6799Y1907D01*
X6788Y1907D01*
X6593D01*
Y1895D01*
X6547D01*
Y1929D01*
X6321D01*
Y1778D01*
X6547D01*
Y1808D01*
X6593D01*
Y1796D01*
X6642D01*
Y1646D01*
X6658Y1608D01*
X6728Y1538D01*
X6766Y1522D01*
X7096D01*
X7111Y1486D01*
X7153Y1469D01*
X7196Y1486D01*
X7226Y1481D01*
X7237Y1470D01*
Y1456D01*
X7226Y1430D01*
Y1403D01*
X7179Y1356D01*
X6803D01*
Y1414D01*
X6652D01*
Y1188D01*
X6673D01*
Y1138D01*
X6652D01*
Y912D01*
X6673D01*
Y880D01*
X6632D01*
Y807D01*
X6613Y785D01*
X6563D01*
X6549Y821D01*
X6488Y882D01*
X6493Y912D01*
X6493D01*
Y1138D01*
X6342D01*
Y912D01*
X6363D01*
Y875D01*
X6379Y836D01*
X6414Y802D01*
X6407Y785D01*
X6407D01*
Y675D01*
X6613D01*
X6632Y653D01*
Y580D01*
X6801D01*
X6808Y569D01*
X6823Y534D01*
X6857Y520D01*
X6892Y534D01*
X6907Y569D01*
X6914Y580D01*
X7072D01*
X7083Y580D01*
X7102Y558D01*
Y485D01*
X7308D01*
Y485D01*
X7338Y491D01*
X7353Y485D01*
X7375Y495D01*
X7392Y469D01*
X7172Y250D01*
X6323D01*
X6255Y318D01*
Y1233D01*
X6285Y1253D01*
X6299Y1247D01*
X6342D01*
Y1188D01*
X6493D01*
Y1414D01*
X6342D01*
Y1377D01*
X6312Y1365D01*
X6255Y1423D01*
Y2077D01*
X6286Y2109D01*
X6321D01*
Y2088D01*
X6547D01*
Y2239D01*
X6321D01*
Y2218D01*
X6264D01*
X6225Y2202D01*
X6161Y2139D01*
X6145Y2100D01*
Y1400D01*
Y295D01*
X6152Y280D01*
X6132Y250D01*
X3841D01*
X3695Y396D01*
Y1007D01*
X3679Y1046D01*
X3467Y1257D01*
X3429Y1273D01*
X2395D01*
X2216Y1453D01*
Y2454D01*
X2200Y2492D01*
X1956Y2736D01*
X1917Y2752D01*
X1469D01*
X1405Y2816D01*
Y2961D01*
X1453D01*
Y3082D01*
X1247D01*
Y2961D01*
X1295D01*
Y2798D01*
X1294Y2795D01*
X1295Y2792D01*
Y2563D01*
X1077D01*
Y3231D01*
X1069Y3251D01*
X1069Y3251D01*
X969Y3351D01*
X950Y3359D01*
X950Y3359D01*
X746D01*
X746Y3359D01*
X727Y3351D01*
X727Y3351D01*
X667Y3291D01*
X659Y3272D01*
X506D01*
Y3263D01*
X300D01*
X242Y3239D01*
X92Y3089D01*
X71Y3038D01*
X41Y3044D01*
Y5013D01*
X71Y5019D01*
X141Y4849D01*
X400Y4742D01*
X659Y4849D01*
X766Y5108D01*
X659Y5366D01*
X488Y5437D01*
X494Y5466D01*
X7881D01*
X7887Y5437D01*
D02*
G37*
%LPC*%
G36*
X5846Y4074D02*
Y4043D01*
X5878D01*
X5868Y4065D01*
X5846Y4074D01*
D02*
G37*
G36*
X2846Y376D02*
X2768D01*
Y298D01*
X2823Y321D01*
X2846Y376D01*
D02*
G37*
G36*
X1803Y1647D02*
X1513D01*
Y1329D01*
X1803D01*
Y1647D01*
D02*
G37*
G36*
X1637Y679D02*
X1547D01*
Y631D01*
X1637D01*
Y679D01*
D02*
G37*
G36*
X2145Y489D02*
X2125D01*
Y389D01*
Y288D01*
X2145D01*
X2178Y321D01*
Y334D01*
X2423D01*
Y312D01*
X2506D01*
Y383D01*
Y453D01*
X2423D01*
Y443D01*
X2178D01*
Y456D01*
X2145Y489D01*
D02*
G37*
G36*
X3261Y751D02*
X3094D01*
Y458D01*
X3261D01*
Y751D01*
D02*
G37*
G36*
X3068Y1069D02*
X2901D01*
Y845D01*
X2892D01*
X2835Y821D01*
X2709Y695D01*
X2685Y638D01*
Y451D01*
X2681Y443D01*
X2614D01*
Y453D01*
X2531D01*
Y383D01*
Y312D01*
X2614D01*
Y334D01*
X2681D01*
X2687Y321D01*
X2742Y298D01*
Y389D01*
X2755D01*
Y401D01*
X2848D01*
Y604D01*
X2873Y629D01*
X2901Y617D01*
Y458D01*
X3068D01*
Y764D01*
Y1069D01*
D02*
G37*
G36*
X3261D02*
X3094D01*
Y776D01*
X3261D01*
Y1069D01*
D02*
G37*
G36*
X563Y1558D02*
Y1478D01*
X643D01*
X619Y1534D01*
X563Y1558D01*
D02*
G37*
G36*
X537Y1558D02*
X481Y1534D01*
X457Y1478D01*
X537D01*
Y1558D01*
D02*
G37*
G36*
X837Y3169D02*
X757D01*
X781Y3112D01*
X837Y3089D01*
Y3169D01*
D02*
G37*
G36*
X863Y3274D02*
Y3194D01*
X943D01*
X919Y3250D01*
X863Y3274D01*
D02*
G37*
G36*
X837D02*
X781Y3250D01*
X757Y3194D01*
X837D01*
Y3274D01*
D02*
G37*
G36*
X943Y3169D02*
X863D01*
Y3089D01*
X919Y3112D01*
X943Y3169D01*
D02*
G37*
G36*
X4862Y4334D02*
X4840Y4325D01*
X4831Y4303D01*
X4862D01*
Y4334D01*
D02*
G37*
G36*
X4064Y1885D02*
X3923D01*
Y1841D01*
X3883D01*
X3877Y1854D01*
X3809Y1882D01*
X3741Y1854D01*
X3713Y1786D01*
X3741Y1718D01*
X3809Y1690D01*
X3877Y1718D01*
X3883Y1732D01*
X3923D01*
Y1695D01*
X3939D01*
Y1635D01*
X3923D01*
Y1445D01*
X4064D01*
Y1635D01*
X4048D01*
Y1695D01*
X4064D01*
Y1885D01*
D02*
G37*
G36*
X1758Y3067D02*
X1542D01*
Y2816D01*
X1758D01*
Y2854D01*
X1788Y2873D01*
X1839Y2853D01*
X1907Y2881D01*
X1935Y2949D01*
X1907Y3017D01*
X1839Y3045D01*
X1788Y3024D01*
X1758Y3043D01*
Y3067D01*
D02*
G37*
G36*
X767Y4295D02*
X685D01*
Y4238D01*
X767D01*
Y4295D01*
D02*
G37*
G36*
X1082Y4212D02*
X1004D01*
Y4134D01*
X1059Y4157D01*
X1082Y4212D01*
D02*
G37*
G36*
X5226Y5298D02*
X5157Y5269D01*
X5129Y5200D01*
X5157Y5131D01*
X5226Y5102D01*
X5296Y5131D01*
X5324Y5200D01*
X5296Y5269D01*
X5226Y5298D01*
D02*
G37*
G36*
X1004Y4316D02*
Y4238D01*
X1082D01*
X1059Y4293D01*
X1004Y4316D01*
D02*
G37*
G36*
X1758Y3407D02*
X1542D01*
Y3336D01*
X1500D01*
X1483Y3329D01*
X1453Y3342D01*
Y3342D01*
X1247D01*
Y3221D01*
X1453D01*
Y3221D01*
X1483Y3234D01*
X1500Y3227D01*
X1542D01*
Y3156D01*
X1758D01*
Y3407D01*
D02*
G37*
G36*
X5195Y3270D02*
X5164D01*
Y3239D01*
X5186Y3248D01*
X5195Y3270D01*
D02*
G37*
G36*
X5139D02*
X5107D01*
X5117Y3248D01*
X5139Y3239D01*
Y3270D01*
D02*
G37*
%LPD*%
D10*
X538Y3789D02*
D03*
Y3979D02*
D03*
X778D02*
D03*
Y3884D02*
D03*
Y3789D02*
D03*
D11*
X6154Y3316D02*
D03*
X6027D02*
D03*
X5900D02*
D03*
X5773D02*
D03*
X6154Y2761D02*
D03*
X6027D02*
D03*
X5900D02*
D03*
X5773D02*
D03*
X7534Y2131D02*
D03*
X7407D02*
D03*
X7280D02*
D03*
X7153D02*
D03*
X7534Y1576D02*
D03*
X7407D02*
D03*
X7280D02*
D03*
X7153D02*
D03*
D12*
X6434Y2164D02*
D03*
Y1854D02*
D03*
X6989Y3224D02*
D03*
Y2914D02*
D03*
D13*
X7860Y2207D02*
D03*
X8070D02*
D03*
X7860Y1957D02*
D03*
X8070D02*
D03*
X8060Y1706D02*
D03*
X7850D02*
D03*
X4204Y1540D02*
D03*
X3994D02*
D03*
X4204Y1790D02*
D03*
X3994D02*
D03*
X7181Y1021D02*
D03*
X6971D02*
D03*
D14*
X6418Y1301D02*
D03*
X6728D02*
D03*
Y1025D02*
D03*
X6418D02*
D03*
D15*
X3174Y4245D02*
D03*
Y4372D02*
D03*
Y4499D02*
D03*
Y4626D02*
D03*
X2624Y4245D02*
D03*
Y4372D02*
D03*
Y4499D02*
D03*
Y4626D02*
D03*
X3166Y3457D02*
D03*
Y3584D02*
D03*
Y3711D02*
D03*
Y3838D02*
D03*
X2616Y3457D02*
D03*
Y3584D02*
D03*
Y3711D02*
D03*
Y3838D02*
D03*
D16*
X1648Y2481D02*
D03*
X1352D02*
D03*
D17*
X2112Y684D02*
D03*
Y389D02*
D03*
X1496Y4154D02*
D03*
Y3859D02*
D03*
D18*
X1650Y2941D02*
D03*
Y3281D02*
D03*
X1350Y771D02*
D03*
Y431D02*
D03*
D19*
X7251Y2644D02*
D03*
X7316D02*
D03*
X7381D02*
D03*
X7446D02*
D03*
X7511D02*
D03*
X7576D02*
D03*
X7641D02*
D03*
X7706D02*
D03*
X7771D02*
D03*
X7836D02*
D03*
X7901D02*
D03*
X7966D02*
D03*
X7251Y3219D02*
D03*
X7316D02*
D03*
X7381D02*
D03*
X7446D02*
D03*
X7511D02*
D03*
X7576D02*
D03*
X7641D02*
D03*
X7706D02*
D03*
X7771D02*
D03*
X7836D02*
D03*
X7901D02*
D03*
X7966D02*
D03*
D20*
X4940Y4160D02*
D03*
X5005D02*
D03*
X5070D02*
D03*
X5135D02*
D03*
X5200D02*
D03*
X5265D02*
D03*
X5330D02*
D03*
X5395D02*
D03*
X5460D02*
D03*
X5525D02*
D03*
X4940Y4095D02*
D03*
X5005D02*
D03*
X5070D02*
D03*
X5135D02*
D03*
X5200D02*
D03*
X5265D02*
D03*
X5330D02*
D03*
X5395D02*
D03*
X5460D02*
D03*
X5525D02*
D03*
X4940Y4030D02*
D03*
X5005D02*
D03*
X5070D02*
D03*
X5135D02*
D03*
X5200D02*
D03*
X5265D02*
D03*
X5330D02*
D03*
X5395D02*
D03*
X5460D02*
D03*
X5525D02*
D03*
X4940Y3965D02*
D03*
X5005D02*
D03*
X5070D02*
D03*
X5135D02*
D03*
X5200D02*
D03*
X5265D02*
D03*
X5330D02*
D03*
X5395D02*
D03*
X5460D02*
D03*
X5525D02*
D03*
X4940Y3900D02*
D03*
X5005D02*
D03*
X5070D02*
D03*
X5135D02*
D03*
X5200D02*
D03*
X5265D02*
D03*
X5330D02*
D03*
X5395D02*
D03*
X5460D02*
D03*
X5525D02*
D03*
X4940Y3835D02*
D03*
X5005D02*
D03*
X5070D02*
D03*
X5135D02*
D03*
X5200D02*
D03*
X5265D02*
D03*
X5330D02*
D03*
X5395D02*
D03*
X5460D02*
D03*
X5525D02*
D03*
X4940Y3770D02*
D03*
X5005D02*
D03*
X5070D02*
D03*
X5135D02*
D03*
X5200D02*
D03*
X5265D02*
D03*
X5330D02*
D03*
X5395D02*
D03*
X5460D02*
D03*
X5525D02*
D03*
X4940Y3705D02*
D03*
X5005D02*
D03*
X5070D02*
D03*
X5135D02*
D03*
X5200D02*
D03*
X5265D02*
D03*
X5330D02*
D03*
X5395D02*
D03*
X5460D02*
D03*
X5525D02*
D03*
X4940Y3640D02*
D03*
X5005D02*
D03*
X5070D02*
D03*
X5135D02*
D03*
X5200D02*
D03*
X5265D02*
D03*
X5330D02*
D03*
X5395D02*
D03*
X5460D02*
D03*
X5525D02*
D03*
X4940Y3575D02*
D03*
X5005D02*
D03*
X5070D02*
D03*
X5135D02*
D03*
X5200D02*
D03*
X5265D02*
D03*
X5330D02*
D03*
X5395D02*
D03*
X5460D02*
D03*
X5525D02*
D03*
D21*
X3081Y764D02*
D03*
X4199D02*
D03*
D22*
X288Y3719D02*
D03*
Y3979D02*
D03*
X538Y4209D02*
D03*
Y4469D02*
D03*
X1350Y3021D02*
D03*
Y3281D02*
D03*
X1650Y431D02*
D03*
Y691D02*
D03*
D23*
X6921Y2171D02*
D03*
X6661D02*
D03*
X3633Y4635D02*
D03*
X3372D02*
D03*
X3633Y4235D02*
D03*
X3372D02*
D03*
X3633Y3835D02*
D03*
X3372D02*
D03*
X3633Y3485D02*
D03*
X3372D02*
D03*
D24*
X6445Y2971D02*
D03*
Y3271D02*
D03*
D25*
X6445Y2670D02*
D03*
X6745D02*
D03*
D26*
X2519Y383D02*
D03*
Y593D02*
D03*
X780Y4225D02*
D03*
Y4435D02*
D03*
X4317Y5054D02*
D03*
Y5264D02*
D03*
X4674Y5054D02*
D03*
Y5264D02*
D03*
D27*
X2421Y4285D02*
D03*
Y4465D02*
D03*
X2243Y4195D02*
D03*
Y4375D02*
D03*
D28*
X2234Y3739D02*
D03*
X2414D02*
D03*
X2234Y3576D02*
D03*
X2414D02*
D03*
D29*
X6510Y730D02*
D03*
X6735Y825D02*
D03*
Y635D02*
D03*
X6696Y1851D02*
D03*
X6921Y1946D02*
D03*
Y1756D02*
D03*
X6980Y635D02*
D03*
X7205Y730D02*
D03*
Y540D02*
D03*
D30*
X1500Y1316D02*
D03*
D31*
X1271Y2056D02*
D03*
X1729D02*
D03*
D32*
X6626Y4522D02*
D03*
Y4649D02*
D03*
Y4776D02*
D03*
Y4903D02*
D03*
X6146Y4522D02*
D03*
Y4649D02*
D03*
Y4776D02*
D03*
Y4903D02*
D03*
D33*
X6745Y3270D02*
D03*
Y2915D02*
D03*
D34*
X4675Y4827D02*
D03*
X4320D02*
D03*
D35*
X780Y4435D02*
X1215D01*
X1496Y4154D01*
X6120Y4946D02*
X6159Y4908D01*
X5481Y4946D02*
X6120D01*
X6154Y3316D02*
Y3458D01*
X6662Y2029D02*
Y2172D01*
X6156Y2760D02*
Y2909D01*
X7280Y2131D02*
Y2307D01*
X7053Y2535D02*
X7280Y2307D01*
X5964Y4778D02*
X6146D01*
X5964Y4649D02*
X6146D01*
X2626Y4501D02*
X2941D01*
X6857Y569D02*
Y635D01*
X6857Y635D01*
X5900Y2761D02*
Y2910D01*
X6031Y2576D02*
Y2758D01*
X3131Y3711D02*
X3166D01*
X3006Y3835D02*
X3131Y3711D01*
X3006Y3835D02*
Y4258D01*
X2990Y3445D02*
Y3738D01*
X2890Y3838D02*
X2990Y3738D01*
X2782Y3838D02*
X2890D01*
X2941Y3997D02*
Y4290D01*
X2782Y3838D02*
X2941Y3997D01*
X2616Y3838D02*
X2782D01*
X2876Y3331D02*
X2990Y3445D01*
X3006Y4258D02*
X3121Y4372D01*
X3174D01*
X3285Y4499D02*
X3315Y4469D01*
Y4404D02*
Y4469D01*
X3283Y4372D02*
X3315Y4404D01*
X3174Y4499D02*
X3285D01*
X3174Y4372D02*
X3283D01*
X3166Y3584D02*
X3275D01*
X3315Y3624D01*
Y3672D01*
X3277Y3711D02*
X3315Y3672D01*
X3166Y3711D02*
X3277D01*
X684Y4435D02*
X780D01*
X650Y4469D02*
X684Y4435D01*
X538Y4469D02*
X650D01*
X1226Y3884D02*
X1496Y4154D01*
X778Y3884D02*
X1226D01*
X5070Y3445D02*
Y3510D01*
X2460Y5346D02*
X2596Y5210D01*
X2226Y5346D02*
X2460D01*
X1983Y5103D02*
X2226Y5346D01*
X785Y4225D02*
X991D01*
X782Y4223D02*
X785Y4225D01*
X778Y3979D02*
X780Y3981D01*
Y4225D01*
X778Y3789D02*
X780Y3786D01*
X696Y3789D02*
X778D01*
X650Y3835D02*
X696Y3789D01*
X650Y3835D02*
Y3933D01*
X696Y3979D01*
X778D01*
X1779Y691D02*
X1836Y634D01*
X6857Y635D02*
X6980D01*
X6735D02*
X6857D01*
X2827Y4274D02*
Y4284D01*
X2740Y4372D02*
X2827Y4284D01*
X3055Y4404D02*
Y4566D01*
X2995Y4626D02*
X3055Y4566D01*
X2624Y4626D02*
X2995D01*
X2941Y4290D02*
X3055Y4404D01*
X2624Y4499D02*
X2626Y4501D01*
X2129Y3331D02*
X2876D01*
X1983Y3478D02*
X2129Y3331D01*
X1983Y3478D02*
Y5103D01*
X2244Y4196D02*
X2333D01*
X2244Y3995D02*
Y4196D01*
X2333D02*
X2421Y4285D01*
X2234Y3985D02*
X2244Y3995D01*
X2110Y4978D02*
X2342Y5210D01*
X2110Y4195D02*
Y4978D01*
Y4195D02*
X2243D01*
X6386Y4794D02*
Y5070D01*
Y4794D02*
X6452Y4728D01*
Y4630D02*
Y4728D01*
Y4630D02*
X6561Y4522D01*
X6735Y635D02*
X6735Y635D01*
X6434Y1854D02*
X6436Y1851D01*
X6696D01*
X6921Y1946D02*
X7346D01*
X6921Y2021D02*
Y2171D01*
X7407Y2007D02*
Y2131D01*
X7346Y1946D02*
X7407Y2007D01*
X6921Y1756D02*
X7356D01*
X7534Y1934D01*
Y2131D01*
X7407Y1435D02*
Y1576D01*
X7205Y540D02*
X7353D01*
X7205Y730D02*
X7205Y730D01*
X6510Y730D02*
X7205D01*
X7280Y1430D02*
Y1576D01*
X6871Y1021D02*
X6971D01*
X2616Y3711D02*
X2851D01*
X2616Y3584D02*
X2731D01*
X2844Y3471D01*
X2624Y4372D02*
X2740D01*
X2234Y3739D02*
Y3985D01*
X2421Y4285D02*
X2473D01*
X2513Y4245D01*
X2624D01*
X2281Y3457D02*
X2616D01*
X1650Y691D02*
X1779D01*
X2234Y3504D02*
Y3576D01*
Y3504D02*
X2281Y3457D01*
X2234Y3576D02*
Y3739D01*
X2414D02*
X2479D01*
X2507Y3711D01*
X2616D01*
X2510Y3584D02*
X2616D01*
X2502Y3576D02*
X2510Y3584D01*
X2414Y3576D02*
X2502D01*
X3166Y3838D02*
X3352D01*
X3361Y3457D02*
X3361Y3457D01*
X3166Y3457D02*
X3361D01*
X2421Y4465D02*
X2495D01*
X2529Y4499D01*
X2624D01*
X2243Y4375D02*
X2621D01*
X4204Y1790D02*
X4204Y1790D01*
X288Y3719D02*
X378D01*
X447Y3789D01*
X538D01*
X288Y3979D02*
X538D01*
Y4229D01*
X3352Y3838D02*
X3361Y3847D01*
X3379Y4626D02*
X3388Y4635D01*
X3174Y4626D02*
X3379D01*
X3174Y4245D02*
X3388D01*
X7015Y4903D02*
X7053Y4940D01*
X6626Y4903D02*
X7015D01*
X7308Y4940D02*
Y5025D01*
X7231Y5103D02*
X7308Y5025D01*
X6502Y4776D02*
X6626D01*
X6565Y5103D02*
X7231D01*
X6626Y4649D02*
X6810D01*
X6853Y4692D01*
X7053D01*
X7307D02*
X7406D01*
X7475Y4761D01*
Y5005D01*
X7280Y5200D02*
X7475Y5005D01*
X6516Y5200D02*
X7280D01*
X6468Y4810D02*
X6502Y4776D01*
X6468Y4810D02*
Y5005D01*
X6565Y5103D01*
X6386Y5070D02*
X6516Y5200D01*
X6561Y4522D02*
X6626D01*
D36*
X6988Y4290D02*
X7641Y3636D01*
X5793Y4290D02*
X6988D01*
X5631Y4453D02*
X5793Y4290D01*
X5233Y4453D02*
X5631D01*
X5167Y4388D02*
X5233Y4453D01*
X5525Y4030D02*
X5834D01*
X5314Y3933D02*
X7296D01*
X5395Y4160D02*
Y4290D01*
X5151Y3317D02*
X5235Y3400D01*
X5151Y3283D02*
Y3317D01*
X5235Y3400D02*
Y3480D01*
X5265Y3510D01*
X5395D02*
X5460Y3445D01*
Y3315D02*
Y3445D01*
X5428Y3542D02*
X5525Y3445D01*
Y3009D02*
Y3445D01*
Y3009D02*
X5773Y2761D01*
X4875Y4290D02*
X5005Y4160D01*
X4972Y4128D02*
X5005Y4160D01*
X4972Y4062D02*
Y4128D01*
X4940Y4030D02*
X4972Y4062D01*
X5038Y3867D02*
Y4209D01*
X4972Y3933D02*
X5005Y3900D01*
X4712Y3933D02*
X4972D01*
X5103Y3867D02*
X5135Y3835D01*
X5103Y3867D02*
Y4483D01*
X5167Y3819D02*
Y4388D01*
X5233Y3867D02*
Y4225D01*
Y3867D02*
X5265Y3835D01*
X5297Y3916D02*
X5314Y3933D01*
X5297Y3803D02*
Y3916D01*
X5200Y4300D02*
X5290Y4390D01*
X5200Y4160D02*
Y4300D01*
X5362Y4742D02*
Y5082D01*
X5103Y4483D02*
X5362Y4742D01*
X5103Y4553D02*
Y5070D01*
X4989Y4439D02*
X5103Y4553D01*
X4989Y4258D02*
Y4439D01*
X5200Y3445D02*
Y3510D01*
X4972Y5200D02*
X5103Y5070D01*
X5362Y5082D02*
X5481Y5200D01*
X7641Y3219D02*
Y3636D01*
X5233Y4225D02*
X5297Y4290D01*
X5265Y3835D02*
X5265D01*
X5167Y3819D02*
X5184Y3803D01*
X5038Y3867D02*
X5070Y3835D01*
X5184Y3803D02*
X5233D01*
X5265Y3770D01*
X5265D01*
X5233Y3608D02*
X5265Y3640D01*
X5233Y3542D02*
Y3608D01*
X5297Y3656D02*
X5314Y3672D01*
X5297Y3478D02*
Y3656D01*
X4989Y4258D02*
X5038Y4209D01*
Y4290D02*
X5070Y4258D01*
X4794Y4030D02*
X4859Y3965D01*
X4940D01*
X4674Y3971D02*
X4712Y3933D01*
X4674Y3971D02*
Y4829D01*
X4647Y3900D02*
X4940D01*
X4320Y4227D02*
X4647Y3900D01*
X4320Y4227D02*
Y4828D01*
X7511Y3219D02*
Y3669D01*
X7280Y3900D02*
X7511Y3669D01*
X5606Y3900D02*
X7280D01*
X7576Y3219D02*
Y3653D01*
X7296Y3933D02*
X7576Y3653D01*
X5297Y3803D02*
X5330Y3770D01*
X5297Y3803D02*
X5297D01*
X5330Y3705D02*
X5362Y3738D01*
X7686Y2974D02*
X7771Y3059D01*
X7312Y2974D02*
X7686D01*
X6776Y2438D02*
X7312Y2974D01*
X7654Y3006D02*
X7706Y3059D01*
X7296Y3006D02*
X7654D01*
X6760Y2470D02*
X7296Y3006D01*
X7706Y3059D02*
Y3219D01*
X7771Y3059D02*
Y3219D01*
X5817Y2438D02*
X6776D01*
X5281Y2974D02*
X5817Y2438D01*
X5850Y2470D02*
X6760D01*
X5281Y2974D02*
Y3461D01*
X5330Y3640D02*
X5362Y3608D01*
Y3494D02*
Y3608D01*
X5281Y3461D02*
X5297Y3478D01*
X5314Y3672D02*
X5362D01*
X5395Y3640D01*
X5395D01*
X5704Y3526D02*
Y3608D01*
X5606Y3705D02*
X5704Y3608D01*
X5525Y3705D02*
X5606D01*
X5590Y3672D02*
X5639Y3624D01*
Y3266D02*
Y3624D01*
Y3266D02*
X5736Y3169D01*
X5769Y3819D02*
X5899Y3689D01*
Y3316D02*
Y3689D01*
X5773Y3316D02*
Y3587D01*
X5622Y3738D02*
X5773Y3587D01*
X5428Y3738D02*
X5622D01*
X5395Y3705D02*
X5428Y3738D01*
X5492Y3672D02*
X5590D01*
X5460Y3705D02*
X5492Y3672D01*
X5460Y3705D02*
X5460D01*
X6027Y3216D02*
Y3316D01*
X5980Y3169D02*
X6027Y3216D01*
X5736Y3169D02*
X5980D01*
X5379Y2941D02*
X5850Y2470D01*
X3510Y4160D02*
Y4512D01*
X3633Y4635D01*
X5070Y3510D02*
X5135Y3575D01*
X4940Y3445D02*
X5070Y3575D01*
X4842Y3608D02*
X4842Y3608D01*
X4908D01*
X3812Y4235D02*
X4180Y3867D01*
X3851Y4095D02*
X4111Y3835D01*
X4940D01*
X3819Y3835D02*
X3851Y3803D01*
X3632Y3485D02*
X3900D01*
X4120Y3705D01*
X5574Y3867D02*
X5606Y3900D01*
X5379Y3867D02*
X5574D01*
X5606Y3851D02*
X5834D01*
X5590Y3835D02*
X5606Y3851D01*
X5525Y3835D02*
X5590D01*
X5362Y3851D02*
X5379Y3867D01*
X5362Y3738D02*
Y3851D01*
X5395Y3510D02*
Y3575D01*
X5428Y3542D02*
Y3608D01*
X5379Y2941D02*
Y3478D01*
X5362Y3494D02*
X5379Y3478D01*
X5265Y3510D02*
Y3575D01*
X5622Y3819D02*
X5769D01*
X5606Y3803D02*
X5622Y3819D01*
X5428Y3803D02*
X5606D01*
X5395Y3770D02*
X5428Y3803D01*
Y3608D02*
X5460Y3640D01*
Y3575D02*
X5590Y3445D01*
X4908Y3608D02*
X4940Y3640D01*
X4908Y3738D02*
X4972D01*
X4875Y3705D02*
X4908Y3738D01*
X4120Y3705D02*
X4875D01*
X4810Y3770D02*
X4940D01*
X4794Y3754D02*
X4810Y3770D01*
X3851Y3803D02*
X4972D01*
X4180Y3867D02*
X4972D01*
X5492Y3997D02*
X5525Y3965D01*
X5428Y4014D02*
Y4128D01*
X5395Y4160D02*
X5428Y4128D01*
X5444Y3997D02*
X5492D01*
X5428Y4014D02*
X5444Y3997D01*
X5460Y4160D02*
X5492Y4128D01*
Y4062D02*
Y4128D01*
Y4062D02*
X5525Y4030D01*
X5103Y3608D02*
Y3656D01*
X5086Y3672D02*
X5103Y3656D01*
X4972Y3672D02*
X5086D01*
X4940Y3705D02*
X4972Y3672D01*
X4940Y3705D02*
Y3705D01*
X5395Y4160D02*
Y4192D01*
X5379Y4209D02*
X5395Y4192D01*
X5281Y4209D02*
X5379D01*
X5265Y4192D02*
X5281Y4209D01*
X5265Y4160D02*
Y4192D01*
X5395Y4160D02*
X5395Y4160D01*
X5200Y3510D02*
X5200Y3510D01*
X5330Y3445D02*
Y3575D01*
X5525Y3770D02*
X5655D01*
X5525Y3770D02*
X5525Y3770D01*
X5265Y4160D02*
X5265Y4160D01*
X5070D02*
Y4258D01*
X5200Y3510D02*
X5233Y3542D01*
X4972Y3867D02*
X5005Y3835D01*
X3633Y3835D02*
X3819D01*
X3575Y4095D02*
X3851D01*
X3510Y4160D02*
X3575Y4095D01*
X3633Y4235D02*
X3812D01*
X4972Y3803D02*
X5005Y3770D01*
X5005D01*
X4972Y3738D02*
X5005Y3705D01*
X5395Y3575D02*
X5395Y3575D01*
X5460Y3640D02*
X5460D01*
X5330D02*
X5330D01*
X5460Y4160D02*
Y4160D01*
X5070Y3835D02*
Y3835D01*
X5265Y3640D02*
Y3640D01*
X5103Y3608D02*
X5135Y3575D01*
X3064Y4265D02*
G03*
X3064Y4265I-50J0D01*
G01*
X3056Y3477D02*
G03*
X3056Y3477I-50J0D01*
G01*
X7354Y2796D02*
G03*
X7354Y2796I-50J0D01*
G01*
X6326Y4872D02*
G03*
X6326Y4872I-50J0D01*
G01*
X570Y4035D02*
X745D01*
X570Y3733D02*
X745D01*
X570D02*
Y4035D01*
X745Y3733D02*
Y4035D01*
X6519Y1849D02*
Y2169D01*
X6349Y1849D02*
Y2169D01*
X6519D01*
X6349Y1849D02*
X6519D01*
X7865Y2270D02*
X8065D01*
X7865Y2145D02*
X8065D01*
X7865D02*
Y2270D01*
X8065Y2145D02*
Y2270D01*
X7865Y2020D02*
X8065D01*
X7865Y1895D02*
X8065D01*
X7865D02*
Y2020D01*
X8065Y1895D02*
Y2020D01*
X7855Y1644D02*
X8055D01*
X7855Y1769D02*
X8055D01*
Y1644D02*
Y1769D01*
X7855Y1644D02*
Y1769D01*
X6412Y1386D02*
X6732D01*
X6412Y1216D02*
X6732D01*
X6412D02*
Y1386D01*
X6732Y1216D02*
Y1386D01*
X3104Y4176D02*
Y4696D01*
X2694Y4176D02*
Y4696D01*
Y4176D02*
X3104D01*
X2694Y4696D02*
X3104D01*
X3096Y3387D02*
Y3907D01*
X2686Y3387D02*
Y3907D01*
Y3387D02*
X3096D01*
X2686Y3907D02*
X3096D01*
X1300Y2361D02*
Y2606D01*
X1375Y2681D01*
X1700D01*
X1380Y2281D02*
X1700D01*
X1300Y2361D02*
X1380Y2281D01*
X1700D02*
Y2681D01*
X1988Y336D02*
X2233D01*
X1912Y411D02*
X1988Y336D01*
X1912Y411D02*
Y736D01*
X2312Y416D02*
Y736D01*
X2233Y336D02*
X2312Y416D01*
X1912Y736D02*
X2312D01*
X1371Y3806D02*
X1616D01*
X1296Y3881D02*
X1371Y3806D01*
X1296Y3881D02*
Y4206D01*
X1696Y3886D02*
Y4206D01*
X1616Y3806D02*
X1696Y3886D01*
X1296Y4206D02*
X1696D01*
X1570Y2901D02*
Y3321D01*
X1730Y2901D02*
Y3321D01*
X1570Y2901D02*
X1730D01*
X1570Y3321D02*
X1730D01*
X1430Y391D02*
Y811D01*
X1270Y391D02*
Y811D01*
X1430D01*
X1270Y391D02*
X1430D01*
X7214Y2706D02*
X8004D01*
X7214Y3156D02*
X8004D01*
X7214Y2706D02*
Y3156D01*
X8004Y2706D02*
Y3156D01*
X4883Y3517D02*
Y4217D01*
X5583Y3517D02*
Y4217D01*
X4883D02*
X5583D01*
X4883Y3517D02*
X5583D01*
X3040Y164D02*
Y1364D01*
X4240Y164D02*
Y1364D01*
X3040D02*
X4240D01*
X3040Y164D02*
X4240D01*
X7074Y2909D02*
Y3229D01*
X6904Y2909D02*
Y3229D01*
X7074D01*
X6904Y2909D02*
X7074D01*
X6412Y940D02*
X6732D01*
X6412Y1110D02*
X6732D01*
Y940D02*
Y1110D01*
X6412Y940D02*
Y1110D01*
X228Y3749D02*
Y3949D01*
X348Y3749D02*
Y3949D01*
X228Y3749D02*
X348D01*
X228Y3949D02*
X348D01*
X478Y4239D02*
Y4439D01*
X598Y4239D02*
Y4439D01*
X478Y4239D02*
X598D01*
X478Y4439D02*
X598D01*
X6691Y2111D02*
X6891D01*
X6691Y2231D02*
X6891D01*
Y2111D02*
Y2231D01*
X6691Y2111D02*
Y2231D01*
X3403Y4575D02*
X3603D01*
X3403Y4695D02*
X3603D01*
Y4575D02*
Y4695D01*
X3403Y4575D02*
Y4695D01*
Y4175D02*
X3603D01*
X3403Y4295D02*
X3603D01*
Y4175D02*
Y4295D01*
X3403Y4175D02*
Y4295D01*
Y3775D02*
X3603D01*
X3403Y3895D02*
X3603D01*
Y3775D02*
Y3895D01*
X3403Y3775D02*
Y3895D01*
Y3425D02*
X3603D01*
X3403Y3545D02*
X3603D01*
Y3425D02*
Y3545D01*
X3403Y3425D02*
Y3545D01*
X1290Y3051D02*
Y3251D01*
X1410Y3051D02*
Y3251D01*
X1290Y3051D02*
X1410D01*
X1290Y3251D02*
X1410D01*
X1590Y461D02*
Y661D01*
X1710Y461D02*
Y661D01*
X1590Y461D02*
X1710D01*
X1590Y661D02*
X1710D01*
X2456Y388D02*
Y588D01*
X2581Y388D02*
Y588D01*
X2456Y388D02*
X2581D01*
X2456Y588D02*
X2581D01*
X3999Y1477D02*
X4199D01*
X3999Y1602D02*
X4199D01*
Y1477D02*
Y1602D01*
X3999Y1477D02*
Y1602D01*
Y1727D02*
X4199D01*
X3999Y1852D02*
X4199D01*
Y1727D02*
Y1852D01*
X3999Y1727D02*
Y1852D01*
X718Y4230D02*
Y4430D01*
X843Y4230D02*
Y4430D01*
X718Y4230D02*
X843D01*
X718Y4430D02*
X843D01*
X6976Y959D02*
X7176D01*
X6976Y1084D02*
X7176D01*
Y959D02*
Y1084D01*
X6976Y959D02*
Y1084D01*
X4254Y5059D02*
Y5259D01*
X4379Y5059D02*
Y5259D01*
X4254Y5059D02*
X4379D01*
X4254Y5259D02*
X4379D01*
X4612Y5059D02*
Y5259D01*
X4737Y5059D02*
Y5259D01*
X4612Y5059D02*
X4737D01*
X4612Y5259D02*
X4737D01*
X2381Y4295D02*
Y4455D01*
X2461Y4295D02*
Y4455D01*
X2381Y4295D02*
X2461D01*
X2381Y4455D02*
X2461D01*
X2203Y4205D02*
Y4365D01*
X2283Y4205D02*
Y4365D01*
X2203Y4205D02*
X2283D01*
X2203Y4365D02*
X2283D01*
X2244Y3779D02*
X2404D01*
X2244Y3699D02*
X2404D01*
X2244D02*
Y3779D01*
X2404Y3699D02*
Y3779D01*
X2244Y3616D02*
X2404D01*
X2244Y3536D02*
X2404D01*
X2244D02*
Y3616D01*
X2404Y3536D02*
Y3616D01*
X6553Y880D02*
X6693D01*
X6553Y580D02*
X6693D01*
X6553D02*
Y880D01*
X6693Y580D02*
Y880D01*
X6739Y2001D02*
X6879D01*
X6739Y1701D02*
X6879D01*
X6739D02*
Y2001D01*
X6879Y1701D02*
Y2001D01*
X7022Y785D02*
X7162D01*
X7022Y485D02*
X7162D01*
X7022D02*
Y785D01*
X7162Y485D02*
Y785D01*
X1162Y1156D02*
Y1791D01*
X1838Y1156D02*
Y1791D01*
X1162Y1156D02*
X1838D01*
X1162Y1791D02*
X1838D01*
X6186Y4462D02*
X6586D01*
X6186Y4962D02*
X6586D01*
Y4462D02*
Y4962D01*
X6186Y4462D02*
Y4962D01*
X6825Y2883D02*
Y3303D01*
X6665Y2883D02*
Y3303D01*
X6825D01*
X6665Y2883D02*
X6825D01*
X4288Y4747D02*
X4708D01*
X4288Y4907D02*
X4708D01*
Y4747D02*
Y4907D01*
X4288Y4747D02*
Y4907D01*
X657Y3834D02*
Y3934D01*
X607Y3884D02*
X707D01*
X5964Y2989D02*
Y3089D01*
X5914Y3039D02*
X6014D01*
X6384Y2009D02*
X6484D01*
X6434Y1959D02*
Y2059D01*
X7344Y1804D02*
Y1904D01*
X7294Y1854D02*
X7394D01*
X7965Y2157D02*
Y2257D01*
X7915Y2207D02*
X8015D01*
X7965Y1907D02*
Y2007D01*
X7915Y1957D02*
X8015D01*
X7955Y1656D02*
Y1756D01*
X7905Y1706D02*
X8005D01*
X6572Y1251D02*
Y1351D01*
X6522Y1301D02*
X6622D01*
X2849Y4435D02*
X2949D01*
X2899Y4385D02*
Y4485D01*
X2841Y3647D02*
X2941D01*
X2891Y3597D02*
Y3697D01*
X1500Y2431D02*
Y2531D01*
X1450Y2481D02*
X1550D01*
X2062Y536D02*
X2162D01*
X2112Y486D02*
Y586D01*
X1446Y4006D02*
X1546D01*
X1496Y3956D02*
Y4056D01*
X1600Y3111D02*
X1700D01*
X1650Y3061D02*
Y3161D01*
X1300Y601D02*
X1400D01*
X1350Y551D02*
Y651D01*
X7609Y2881D02*
Y2981D01*
X7559Y2931D02*
X7659D01*
X5183Y3867D02*
X5283D01*
X5233Y3817D02*
Y3917D01*
X3590Y764D02*
X3690D01*
X3640Y714D02*
Y814D01*
X6939Y3069D02*
X7039D01*
X6989Y3019D02*
Y3119D01*
X6572Y975D02*
Y1075D01*
X6522Y1025D02*
X6622D01*
X238Y3849D02*
X338D01*
X288Y3799D02*
Y3899D01*
X488Y4339D02*
X588D01*
X538Y4289D02*
Y4389D01*
X6791Y2121D02*
Y2221D01*
X6741Y2171D02*
X6841D01*
X3503Y4585D02*
Y4685D01*
X3453Y4635D02*
X3553D01*
X3503Y4185D02*
Y4285D01*
X3453Y4235D02*
X3553D01*
X3503Y3785D02*
Y3885D01*
X3453Y3835D02*
X3553D01*
X3503Y3435D02*
Y3535D01*
X3453Y3485D02*
X3553D01*
X1300Y3151D02*
X1400D01*
X1350Y3101D02*
Y3201D01*
X1600Y561D02*
X1700D01*
X1650Y511D02*
Y611D01*
X6325Y3361D02*
X6565D01*
X6325Y2881D02*
Y3361D01*
Y2881D02*
X6565D01*
Y3361D01*
X6355Y3121D02*
X6535D01*
X6445Y3031D02*
Y3211D01*
X6835Y2550D02*
Y2790D01*
X6355D02*
X6835D01*
X6355Y2550D02*
Y2790D01*
Y2550D02*
X6835D01*
X6595Y2580D02*
Y2760D01*
X6505Y2670D02*
X6685D01*
X2469Y488D02*
X2569D01*
X2519Y438D02*
Y538D01*
X4099Y1490D02*
Y1590D01*
X4049Y1540D02*
X4149D01*
X4099Y1740D02*
Y1840D01*
X4049Y1790D02*
X4149D01*
X730Y4330D02*
X830D01*
X780Y4280D02*
Y4380D01*
X7076Y971D02*
Y1071D01*
X7026Y1021D02*
X7126D01*
X4267Y5159D02*
X4367D01*
X4317Y5109D02*
Y5209D01*
X4624Y5159D02*
X4724D01*
X4674Y5109D02*
Y5209D01*
X2381Y4375D02*
X2461D01*
X2421Y4335D02*
Y4415D01*
X2203Y4285D02*
X2283D01*
X2243Y4245D02*
Y4325D01*
X2324Y3699D02*
Y3779D01*
X2284Y3739D02*
X2364D01*
X2324Y3536D02*
Y3616D01*
X2284Y3576D02*
X2364D01*
X6623Y680D02*
Y780D01*
X6573Y730D02*
X6673D01*
X6809Y1801D02*
Y1901D01*
X6759Y1851D02*
X6859D01*
X7093Y585D02*
Y685D01*
X7043Y635D02*
X7143D01*
X1450Y1581D02*
X1550D01*
X1500Y1531D02*
Y1631D01*
X6386Y4662D02*
Y4762D01*
X6336Y4712D02*
X6436D01*
X6695Y3092D02*
X6795D01*
X6745Y3042D02*
Y3142D01*
X4498Y4777D02*
Y4877D01*
X4448Y4827D02*
X4548D01*
D37*
X7686Y1576D02*
X7897Y1365D01*
X7534Y1576D02*
X7686D01*
X8060Y1527D02*
Y1706D01*
X7900Y1367D02*
X8060Y1527D01*
X7900Y900D02*
Y1367D01*
X7195Y195D02*
X7900Y900D01*
X6300Y195D02*
X7195D01*
X3819D02*
X6300D01*
X6200Y295D02*
X6300Y195D01*
X6200Y295D02*
Y1400D01*
Y2100D02*
X6264Y2164D01*
X6434D01*
X6200Y1400D02*
Y2100D01*
Y1400D02*
X6299Y1301D01*
X6418D01*
X7860Y2208D02*
Y2414D01*
X7771Y2502D02*
X7860Y2414D01*
X7850Y1706D02*
Y1948D01*
X7860Y1958D01*
X7860Y1958D01*
Y2208D01*
X6700Y2300D02*
X7100D01*
X6662Y2262D02*
X6700Y2300D01*
X6662Y2172D02*
Y2262D01*
X6661Y2171D02*
X6662Y2172D01*
X7100Y2300D02*
X7153Y2247D01*
Y2131D02*
Y2247D01*
X6031Y2576D02*
X6351D01*
X6445Y2670D01*
X6445Y2670D01*
Y2971D01*
X4972Y4946D02*
Y4989D01*
X4697Y5264D02*
X4972Y4989D01*
X4674Y5264D02*
X4697D01*
X4317Y5264D02*
X4317Y5264D01*
X4674D01*
X7146Y3071D02*
X7316D01*
X6989Y2914D02*
X7146Y3071D01*
X7992Y3448D02*
X8070Y3370D01*
X7907Y3448D02*
X7992D01*
X7836Y3376D02*
X7907Y3448D01*
X7020Y4404D02*
X7053Y4436D01*
X6265Y4404D02*
X7020D01*
X6146Y4522D02*
X6265Y4404D01*
X3809Y1786D02*
X3990D01*
X3994Y1540D02*
X3994Y1540D01*
Y1790D01*
X1998Y684D02*
X2113D01*
X1917Y764D02*
X1998Y684D01*
X1917Y764D02*
Y2064D01*
X2365Y593D02*
X2519D01*
X2274Y684D02*
X2365Y593D01*
X2113Y684D02*
X2274D01*
X3322Y3656D02*
X3504D01*
X1504Y4161D02*
X1685D01*
X1658Y2949D02*
X1839D01*
X1648Y2350D02*
Y2481D01*
Y2350D02*
X1729Y2269D01*
Y2056D02*
Y2269D01*
X1736Y2064D02*
X1917D01*
X1729Y2056D02*
X1736Y2064D01*
X5070Y3412D02*
Y3445D01*
X4204Y2546D02*
X5070Y3412D01*
X4204Y1790D02*
Y2546D01*
X4204Y1230D02*
Y1540D01*
X4388Y3250D02*
X4745Y3608D01*
X4842D01*
X2096Y3250D02*
X4388D01*
X1901Y3445D02*
X2096Y3250D01*
X1901Y3445D02*
Y3689D01*
X1731Y3859D02*
X1901Y3689D01*
X4319Y4829D02*
Y5054D01*
X1389Y3859D02*
X1496D01*
X1186Y3656D02*
X1389Y3859D01*
X585Y3656D02*
X1186D01*
X538Y3704D02*
X585Y3656D01*
X538Y3704D02*
Y3789D01*
X1496Y3859D02*
X1731D01*
X2116Y389D02*
X2755D01*
X2373Y1219D02*
X3429D01*
X2161Y1430D02*
X2373Y1219D01*
X2161Y1430D02*
Y2454D01*
X3429Y1219D02*
X3640Y1007D01*
Y374D02*
Y1007D01*
Y374D02*
X3819Y195D01*
X4204Y1540D02*
Y1790D01*
X1870Y389D02*
X2113D01*
X1836Y422D02*
X1870Y389D01*
X1836Y422D02*
Y634D01*
X1350Y2794D02*
Y3021D01*
Y2484D02*
Y2794D01*
X1446Y2698D01*
X1349Y2795D02*
X1350Y2794D01*
X1917Y2698D02*
X2161Y2454D01*
X1446Y2698D02*
X1917D01*
X6728Y833D02*
X6735Y825D01*
X6728Y833D02*
Y1025D01*
X6727Y1025D02*
X6728Y1025D01*
X6727Y1025D02*
Y1301D01*
X1350Y2484D02*
X1352Y2481D01*
X6882Y3224D02*
X6989D01*
X6836Y3270D02*
X6882Y3224D01*
X6745Y3270D02*
X6836D01*
X8070Y2208D02*
Y3370D01*
X4674Y4829D02*
Y5054D01*
X8070Y1958D02*
Y2208D01*
X6921Y1946D02*
Y2021D01*
X6510Y730D02*
Y782D01*
X6417Y875D02*
X6510Y782D01*
X6417Y875D02*
Y1025D01*
X7407Y1107D02*
Y1435D01*
X7321Y1021D02*
X7407Y1107D01*
X7280Y1380D02*
Y1430D01*
X7201Y1301D02*
X7280Y1380D01*
X6727Y1301D02*
X7201D01*
X6766Y1576D02*
X7153D01*
X6696Y1646D02*
X6766Y1576D01*
X6696Y1646D02*
Y1851D01*
X7181Y1021D02*
X7321D01*
X7421Y921D01*
Y609D02*
Y921D01*
X7353Y540D02*
X7421Y609D01*
X6728Y1025D02*
X6731Y1021D01*
X6871D01*
X1650Y691D02*
Y831D01*
X6745Y2670D02*
X6745Y2670D01*
Y2915D01*
X6988D02*
X6989Y2914D01*
X6745Y2915D02*
X6988D01*
X6989Y3224D02*
X7246D01*
X7251Y3219D01*
X1500Y3281D02*
X1650D01*
X1271Y2056D02*
Y2252D01*
X1353Y2334D01*
Y2481D01*
X1350Y431D02*
X1500D01*
X6445Y3270D02*
X6745D01*
X8070Y1716D02*
Y1958D01*
X8060Y1706D02*
X8070Y1716D01*
D38*
X7381Y3219D02*
Y3360D01*
X7446Y3077D02*
Y3219D01*
X7966Y3077D02*
Y3219D01*
X7316Y3071D02*
Y3219D01*
X7771Y2502D02*
Y2644D01*
X7511Y2450D02*
Y2644D01*
Y2450D02*
X7524Y2438D01*
X7836Y3219D02*
Y3376D01*
X5005Y3705D02*
X5005D01*
X5005Y3900D02*
X5005D01*
D39*
X1211Y771D02*
X1350D01*
X1138Y845D02*
X1211Y771D01*
X1138Y845D02*
Y1781D01*
X1454D01*
X742D02*
X1138D01*
X4199Y764D02*
X4204Y769D01*
Y1230D01*
X2892Y764D02*
X3081D01*
X2766Y638D02*
X2892Y764D01*
X2766Y400D02*
Y638D01*
X1352Y2481D02*
X1353Y2481D01*
X550Y2481D02*
X1352D01*
X1454Y1781D02*
X1729Y2056D01*
X550Y1973D02*
X742Y1781D01*
X1650Y831D02*
Y931D01*
X1500Y1081D02*
X1650Y931D01*
X1500Y1081D02*
Y1316D01*
X150Y1381D02*
X320Y1211D01*
X550D01*
X150Y1381D02*
Y3031D01*
X300Y3181D01*
X596D01*
D40*
X2621Y4375D02*
X2624Y4372D01*
D41*
X1350Y3281D02*
X1500D01*
X1500Y431D02*
X1650D01*
D42*
X457Y4059D02*
X857D01*
X457Y3709D02*
X857D01*
X457D02*
Y4059D01*
X857Y3709D02*
Y4059D01*
X5689Y3416D02*
X6239D01*
X5689Y2661D02*
X6239D01*
Y3416D01*
X5689Y2661D02*
Y3416D01*
X6549Y1779D02*
Y2239D01*
X6319Y1779D02*
Y2239D01*
X6549D01*
X6319Y1779D02*
X6549D01*
X7069Y2231D02*
X7619D01*
X7069Y1476D02*
X7619D01*
Y2231D01*
X7069Y1476D02*
Y2231D01*
X7790Y2302D02*
X8140D01*
X7790Y2112D02*
X8140D01*
X7790D02*
Y2302D01*
X8140Y2112D02*
Y2302D01*
X7790Y2052D02*
X8140D01*
X7790Y1862D02*
X8140D01*
X7790D02*
Y2052D01*
X8140Y1862D02*
Y2052D01*
X7780Y1611D02*
X8130D01*
X7780Y1801D02*
X8130D01*
Y1611D02*
Y1801D01*
X7780Y1611D02*
Y1801D01*
X6342Y1416D02*
X6803D01*
X6342Y1186D02*
X6803D01*
X6342D02*
Y1416D01*
X6803Y1186D02*
Y1416D01*
X3264Y4151D02*
Y4721D01*
X2534Y4151D02*
Y4721D01*
Y4151D02*
X3264D01*
X2534Y4721D02*
X3264D01*
X3256Y3362D02*
Y3932D01*
X2526Y3362D02*
Y3932D01*
Y3362D02*
X3256D01*
X2526Y3932D02*
X3256D01*
X1230Y2251D02*
X1770D01*
X1230Y2711D02*
X1770D01*
Y2251D02*
Y2711D01*
X1230Y2251D02*
Y2711D01*
X2342Y266D02*
Y806D01*
X1883Y266D02*
Y806D01*
X2342D01*
X1883Y266D02*
X2342D01*
X1726Y3736D02*
Y4276D01*
X1266Y3736D02*
Y4276D01*
X1726D01*
X1266Y3736D02*
X1726D01*
X1760Y2836D02*
Y3386D01*
X1540Y2836D02*
X1760D01*
X1540D02*
Y3386D01*
X1760D01*
X1240Y326D02*
Y876D01*
X1460D01*
Y326D02*
Y876D01*
X1240Y326D02*
X1460D01*
X7189Y2536D02*
X8029D01*
X7189Y3326D02*
X8029D01*
X7189Y2536D02*
Y3326D01*
X8029Y2536D02*
Y3326D01*
X4858Y3492D02*
Y4242D01*
X5608Y3492D02*
Y4242D01*
X4858D02*
X5608D01*
X4858Y3492D02*
X5608D01*
X2965Y139D02*
Y1389D01*
X4315Y139D02*
Y1389D01*
X2965D02*
X4315D01*
X2965Y139D02*
X4315D01*
X7104Y2839D02*
Y3299D01*
X6874Y2839D02*
Y3299D01*
X7104D01*
X6874Y2839D02*
X7104D01*
X6342Y910D02*
X6803D01*
X6342Y1140D02*
X6803D01*
Y910D02*
Y1140D01*
X6342Y910D02*
Y1140D01*
X183Y3659D02*
Y4039D01*
X393Y3659D02*
Y4039D01*
X183Y3659D02*
X393D01*
X183Y4039D02*
X393D01*
X433Y4149D02*
Y4529D01*
X643Y4149D02*
Y4529D01*
X433Y4149D02*
X643D01*
X433Y4529D02*
X643D01*
X6601Y2066D02*
X6981D01*
X6601Y2276D02*
X6981D01*
Y2066D02*
Y2276D01*
X6601Y2066D02*
Y2276D01*
X3312Y4530D02*
X3692D01*
X3312Y4740D02*
X3692D01*
Y4530D02*
Y4740D01*
X3312Y4530D02*
Y4740D01*
Y4130D02*
X3692D01*
X3312Y4340D02*
X3692D01*
Y4130D02*
Y4340D01*
X3312Y4130D02*
Y4340D01*
Y3730D02*
X3692D01*
X3312Y3940D02*
X3692D01*
Y3730D02*
Y3940D01*
X3312Y3730D02*
Y3940D01*
Y3380D02*
X3692D01*
X3312Y3590D02*
X3692D01*
Y3380D02*
Y3590D01*
X3312Y3380D02*
Y3590D01*
X1245Y2961D02*
Y3341D01*
X1455Y2961D02*
Y3341D01*
X1245Y2961D02*
X1455D01*
X1245Y3341D02*
X1455D01*
X1545Y371D02*
Y751D01*
X1755Y371D02*
Y751D01*
X1545Y371D02*
X1755D01*
X1545Y751D02*
X1755D01*
X2424Y312D02*
Y662D01*
X2614Y312D02*
Y662D01*
X2424Y312D02*
X2614D01*
X2424Y662D02*
X2614D01*
X3924Y1445D02*
X4274D01*
X3924Y1635D02*
X4274D01*
Y1445D02*
Y1635D01*
X3924Y1445D02*
Y1635D01*
Y1695D02*
X4274D01*
X3924Y1885D02*
X4274D01*
Y1695D02*
Y1885D01*
X3924Y1695D02*
Y1885D01*
X685Y4155D02*
Y4505D01*
X875Y4155D02*
Y4505D01*
X685Y4155D02*
X875D01*
X685Y4505D02*
X875D01*
X6901Y926D02*
X7251D01*
X6901Y1116D02*
X7251D01*
Y926D02*
Y1116D01*
X6901Y926D02*
Y1116D01*
X4222Y4984D02*
Y5334D01*
X4412Y4984D02*
Y5334D01*
X4222Y4984D02*
X4412D01*
X4222Y5334D02*
X4412D01*
X4579Y4984D02*
Y5334D01*
X4769Y4984D02*
Y5334D01*
X4579Y4984D02*
X4769D01*
X4579Y5334D02*
X4769D01*
X2351Y4220D02*
Y4530D01*
X2491Y4220D02*
Y4530D01*
X2351Y4220D02*
X2491D01*
X2351Y4530D02*
X2491D01*
X2173Y4130D02*
Y4440D01*
X2313Y4130D02*
Y4440D01*
X2173Y4130D02*
X2313D01*
X2173Y4440D02*
X2313D01*
X2169Y3809D02*
X2479D01*
X2169Y3669D02*
X2479D01*
X2169D02*
Y3809D01*
X2479Y3669D02*
Y3809D01*
X2169Y3646D02*
X2479D01*
X2169Y3506D02*
X2479D01*
X2169D02*
Y3646D01*
X2479Y3506D02*
Y3646D01*
X6408Y905D02*
X6838D01*
X6408Y555D02*
X6838D01*
X6408D02*
Y905D01*
X6838Y555D02*
Y905D01*
X6594Y2026D02*
X7024D01*
X6594Y1676D02*
X7024D01*
X6594D02*
Y2026D01*
X7024Y1676D02*
Y2026D01*
X6878Y810D02*
X7307D01*
X6878Y460D02*
X7307D01*
X6878D02*
Y810D01*
X7307Y460D02*
Y810D01*
X1138Y994D02*
Y2169D01*
X1862Y994D02*
Y2169D01*
X1138Y994D02*
X1862D01*
X1138Y2169D02*
X1862D01*
X6011Y4438D02*
X6761D01*
X6011Y4988D02*
X6761D01*
Y4438D02*
Y4988D01*
X6011Y4438D02*
Y4988D01*
X6635Y2817D02*
Y3367D01*
X6855D01*
Y2817D02*
Y3367D01*
X6635Y2817D02*
X6855D01*
X4223Y4937D02*
X4773D01*
Y4717D02*
Y4937D01*
X4223Y4717D02*
X4773D01*
X4223D02*
Y4937D01*
D43*
X596Y3181D02*
D03*
X5481Y5200D02*
D03*
D44*
X850Y3181D02*
D03*
X4972Y5200D02*
D03*
Y4946D02*
D03*
X5481D02*
D03*
X5226Y5200D02*
D03*
Y4946D02*
D03*
X550Y2481D02*
D03*
Y1973D02*
D03*
Y1465D02*
D03*
Y1211D02*
D03*
D45*
X7053Y4436D02*
D03*
X7307Y4438D02*
D03*
X7053Y4692D02*
D03*
X7307D02*
D03*
X7308Y4940D02*
D03*
X2342Y5210D02*
D03*
Y4956D02*
D03*
X2596Y5210D02*
D03*
Y4956D02*
D03*
X2850Y5210D02*
D03*
Y4956D02*
D03*
X3104Y5210D02*
D03*
Y4956D02*
D03*
X3355Y4957D02*
D03*
D46*
X7053Y4940D02*
D03*
D47*
X3358Y5210D02*
D03*
D48*
X5834Y4030D02*
D03*
X5395Y4290D02*
D03*
X5151Y3283D02*
D03*
X5460Y3315D02*
D03*
X5834Y3851D02*
D03*
X4875Y4290D02*
D03*
X5290Y4390D02*
D03*
X5200Y3445D02*
D03*
X7836Y3376D02*
D03*
X6154Y3458D02*
D03*
X6156Y2909D02*
D03*
X7053Y2535D02*
D03*
X6662Y2029D02*
D03*
X5964Y4649D02*
D03*
Y4778D02*
D03*
X5297Y4290D02*
D03*
X5038D02*
D03*
X4794Y4030D02*
D03*
X7381Y3360D02*
D03*
X7446Y3077D02*
D03*
X7966D02*
D03*
X7771Y2502D02*
D03*
X6857Y569D02*
D03*
X7524Y2438D02*
D03*
X5900Y2910D02*
D03*
X5704Y3526D02*
D03*
X4940Y3445D02*
D03*
X5590Y3445D02*
D03*
X4794Y3754D02*
D03*
X5330Y3445D02*
D03*
X5655Y3770D02*
D03*
D49*
X2941Y4501D02*
D03*
X6031Y2576D02*
D03*
X3809Y1786D02*
D03*
X3504Y3656D02*
D03*
X1685Y4161D02*
D03*
X1839Y2949D02*
D03*
X1917Y2064D02*
D03*
X991Y4225D02*
D03*
X2827Y4274D02*
D03*
X2851Y3711D02*
D03*
X2844Y3471D02*
D03*
X2755Y389D02*
D03*
M02*
