G04 Layer_Color=2752767*
%FSLAX42Y42*%
%MOMM*%
G71*
G01*
G75*
%ADD36C,0.10*%
%ADD42C,0.05*%
%ADD86C,0.05*%
%ADD87C,0.07*%
D36*
X3064Y4265D02*
G03*
X3064Y4265I-50J0D01*
G01*
X3056Y3477D02*
G03*
X3056Y3477I-50J0D01*
G01*
X7354Y2796D02*
G03*
X7354Y2796I-50J0D01*
G01*
X6326Y4872D02*
G03*
X6326Y4872I-50J0D01*
G01*
X570Y4035D02*
X745D01*
X570Y3733D02*
X745D01*
X570D02*
Y4035D01*
X745Y3733D02*
Y4035D01*
X6519Y1849D02*
Y2169D01*
X6349Y1849D02*
Y2169D01*
X6519D01*
X6349Y1849D02*
X6519D01*
X7865Y2270D02*
X8065D01*
X7865Y2145D02*
X8065D01*
X7865D02*
Y2270D01*
X8065Y2145D02*
Y2270D01*
X7865Y2020D02*
X8065D01*
X7865Y1895D02*
X8065D01*
X7865D02*
Y2020D01*
X8065Y1895D02*
Y2020D01*
X7855Y1644D02*
X8055D01*
X7855Y1769D02*
X8055D01*
Y1644D02*
Y1769D01*
X7855Y1644D02*
Y1769D01*
X6412Y1386D02*
X6732D01*
X6412Y1216D02*
X6732D01*
X6412D02*
Y1386D01*
X6732Y1216D02*
Y1386D01*
X3104Y4176D02*
Y4696D01*
X2694Y4176D02*
Y4696D01*
Y4176D02*
X3104D01*
X2694Y4696D02*
X3104D01*
X3096Y3387D02*
Y3907D01*
X2686Y3387D02*
Y3907D01*
Y3387D02*
X3096D01*
X2686Y3907D02*
X3096D01*
X1300Y2361D02*
Y2606D01*
X1375Y2681D01*
X1700D01*
X1380Y2281D02*
X1700D01*
X1300Y2361D02*
X1380Y2281D01*
X1700D02*
Y2681D01*
X1988Y336D02*
X2233D01*
X1912Y411D02*
X1988Y336D01*
X1912Y411D02*
Y736D01*
X2312Y416D02*
Y736D01*
X2233Y336D02*
X2312Y416D01*
X1912Y736D02*
X2312D01*
X1371Y3806D02*
X1616D01*
X1296Y3881D02*
X1371Y3806D01*
X1296Y3881D02*
Y4206D01*
X1696Y3886D02*
Y4206D01*
X1616Y3806D02*
X1696Y3886D01*
X1296Y4206D02*
X1696D01*
X1570Y2901D02*
Y3321D01*
X1730Y2901D02*
Y3321D01*
X1570Y2901D02*
X1730D01*
X1570Y3321D02*
X1730D01*
X1430Y391D02*
Y811D01*
X1270Y391D02*
Y811D01*
X1430D01*
X1270Y391D02*
X1430D01*
X7214Y2706D02*
X8004D01*
X7214Y3156D02*
X8004D01*
X7214Y2706D02*
Y3156D01*
X8004Y2706D02*
Y3156D01*
X4883Y3517D02*
Y4217D01*
X5583Y3517D02*
Y4217D01*
X4883D02*
X5583D01*
X4883Y3517D02*
X5583D01*
X3040Y164D02*
Y1364D01*
X4240Y164D02*
Y1364D01*
X3040D02*
X4240D01*
X3040Y164D02*
X4240D01*
X7074Y2909D02*
Y3229D01*
X6904Y2909D02*
Y3229D01*
X7074D01*
X6904Y2909D02*
X7074D01*
X6412Y940D02*
X6732D01*
X6412Y1110D02*
X6732D01*
Y940D02*
Y1110D01*
X6412Y940D02*
Y1110D01*
X228Y3749D02*
Y3949D01*
X348Y3749D02*
Y3949D01*
X228Y3749D02*
X348D01*
X228Y3949D02*
X348D01*
X478Y4239D02*
Y4439D01*
X598Y4239D02*
Y4439D01*
X478Y4239D02*
X598D01*
X478Y4439D02*
X598D01*
X6691Y2111D02*
X6891D01*
X6691Y2231D02*
X6891D01*
Y2111D02*
Y2231D01*
X6691Y2111D02*
Y2231D01*
X3403Y4575D02*
X3603D01*
X3403Y4695D02*
X3603D01*
Y4575D02*
Y4695D01*
X3403Y4575D02*
Y4695D01*
Y4175D02*
X3603D01*
X3403Y4295D02*
X3603D01*
Y4175D02*
Y4295D01*
X3403Y4175D02*
Y4295D01*
Y3775D02*
X3603D01*
X3403Y3895D02*
X3603D01*
Y3775D02*
Y3895D01*
X3403Y3775D02*
Y3895D01*
Y3425D02*
X3603D01*
X3403Y3545D02*
X3603D01*
Y3425D02*
Y3545D01*
X3403Y3425D02*
Y3545D01*
X1290Y3051D02*
Y3251D01*
X1410Y3051D02*
Y3251D01*
X1290Y3051D02*
X1410D01*
X1290Y3251D02*
X1410D01*
X1590Y461D02*
Y661D01*
X1710Y461D02*
Y661D01*
X1590Y461D02*
X1710D01*
X1590Y661D02*
X1710D01*
X2456Y388D02*
Y588D01*
X2581Y388D02*
Y588D01*
X2456Y388D02*
X2581D01*
X2456Y588D02*
X2581D01*
X3999Y1477D02*
X4199D01*
X3999Y1602D02*
X4199D01*
Y1477D02*
Y1602D01*
X3999Y1477D02*
Y1602D01*
Y1727D02*
X4199D01*
X3999Y1852D02*
X4199D01*
Y1727D02*
Y1852D01*
X3999Y1727D02*
Y1852D01*
X718Y4230D02*
Y4430D01*
X843Y4230D02*
Y4430D01*
X718Y4230D02*
X843D01*
X718Y4430D02*
X843D01*
X6976Y959D02*
X7176D01*
X6976Y1084D02*
X7176D01*
Y959D02*
Y1084D01*
X6976Y959D02*
Y1084D01*
X4254Y5059D02*
Y5259D01*
X4379Y5059D02*
Y5259D01*
X4254Y5059D02*
X4379D01*
X4254Y5259D02*
X4379D01*
X4612Y5059D02*
Y5259D01*
X4737Y5059D02*
Y5259D01*
X4612Y5059D02*
X4737D01*
X4612Y5259D02*
X4737D01*
X2381Y4295D02*
Y4455D01*
X2461Y4295D02*
Y4455D01*
X2381Y4295D02*
X2461D01*
X2381Y4455D02*
X2461D01*
X2203Y4205D02*
Y4365D01*
X2283Y4205D02*
Y4365D01*
X2203Y4205D02*
X2283D01*
X2203Y4365D02*
X2283D01*
X2244Y3779D02*
X2404D01*
X2244Y3699D02*
X2404D01*
X2244D02*
Y3779D01*
X2404Y3699D02*
Y3779D01*
X2244Y3616D02*
X2404D01*
X2244Y3536D02*
X2404D01*
X2244D02*
Y3616D01*
X2404Y3536D02*
Y3616D01*
X6553Y880D02*
X6693D01*
X6553Y580D02*
X6693D01*
X6553D02*
Y880D01*
X6693Y580D02*
Y880D01*
X6739Y2001D02*
X6879D01*
X6739Y1701D02*
X6879D01*
X6739D02*
Y2001D01*
X6879Y1701D02*
Y2001D01*
X7022Y785D02*
X7162D01*
X7022Y485D02*
X7162D01*
X7022D02*
Y785D01*
X7162Y485D02*
Y785D01*
X1162Y1156D02*
Y1791D01*
X1838Y1156D02*
Y1791D01*
X1162Y1156D02*
X1838D01*
X1162Y1791D02*
X1838D01*
X6186Y4462D02*
X6586D01*
X6186Y4962D02*
X6586D01*
Y4462D02*
Y4962D01*
X6186Y4462D02*
Y4962D01*
X6825Y2883D02*
Y3303D01*
X6665Y2883D02*
Y3303D01*
X6825D01*
X6665Y2883D02*
X6825D01*
X4288Y4747D02*
X4708D01*
X4288Y4907D02*
X4708D01*
Y4747D02*
Y4907D01*
X4288Y4747D02*
Y4907D01*
X657Y3834D02*
Y3934D01*
X607Y3884D02*
X707D01*
X5964Y2989D02*
Y3089D01*
X5914Y3039D02*
X6014D01*
X6384Y2009D02*
X6484D01*
X6434Y1959D02*
Y2059D01*
X7344Y1804D02*
Y1904D01*
X7294Y1854D02*
X7394D01*
X7965Y2157D02*
Y2257D01*
X7915Y2207D02*
X8015D01*
X7965Y1907D02*
Y2007D01*
X7915Y1957D02*
X8015D01*
X7955Y1656D02*
Y1756D01*
X7905Y1706D02*
X8005D01*
X6572Y1251D02*
Y1351D01*
X6522Y1301D02*
X6622D01*
X2849Y4435D02*
X2949D01*
X2899Y4385D02*
Y4485D01*
X2841Y3647D02*
X2941D01*
X2891Y3597D02*
Y3697D01*
X1500Y2431D02*
Y2531D01*
X1450Y2481D02*
X1550D01*
X2062Y536D02*
X2162D01*
X2112Y486D02*
Y586D01*
X1446Y4006D02*
X1546D01*
X1496Y3956D02*
Y4056D01*
X1600Y3111D02*
X1700D01*
X1650Y3061D02*
Y3161D01*
X1300Y601D02*
X1400D01*
X1350Y551D02*
Y651D01*
X7609Y2881D02*
Y2981D01*
X7559Y2931D02*
X7659D01*
X5183Y3867D02*
X5283D01*
X5233Y3817D02*
Y3917D01*
X3590Y764D02*
X3690D01*
X3640Y714D02*
Y814D01*
X6939Y3069D02*
X7039D01*
X6989Y3019D02*
Y3119D01*
X6572Y975D02*
Y1075D01*
X6522Y1025D02*
X6622D01*
X238Y3849D02*
X338D01*
X288Y3799D02*
Y3899D01*
X488Y4339D02*
X588D01*
X538Y4289D02*
Y4389D01*
X6791Y2121D02*
Y2221D01*
X6741Y2171D02*
X6841D01*
X3503Y4585D02*
Y4685D01*
X3453Y4635D02*
X3553D01*
X3503Y4185D02*
Y4285D01*
X3453Y4235D02*
X3553D01*
X3503Y3785D02*
Y3885D01*
X3453Y3835D02*
X3553D01*
X3503Y3435D02*
Y3535D01*
X3453Y3485D02*
X3553D01*
X1300Y3151D02*
X1400D01*
X1350Y3101D02*
Y3201D01*
X1600Y561D02*
X1700D01*
X1650Y511D02*
Y611D01*
X6325Y3361D02*
X6565D01*
X6325Y2881D02*
Y3361D01*
Y2881D02*
X6565D01*
Y3361D01*
X6355Y3121D02*
X6535D01*
X6445Y3031D02*
Y3211D01*
X6835Y2550D02*
Y2790D01*
X6355D02*
X6835D01*
X6355Y2550D02*
Y2790D01*
Y2550D02*
X6835D01*
X6595Y2580D02*
Y2760D01*
X6505Y2670D02*
X6685D01*
X2469Y488D02*
X2569D01*
X2519Y438D02*
Y538D01*
X4099Y1490D02*
Y1590D01*
X4049Y1540D02*
X4149D01*
X4099Y1740D02*
Y1840D01*
X4049Y1790D02*
X4149D01*
X730Y4330D02*
X830D01*
X780Y4280D02*
Y4380D01*
X7076Y971D02*
Y1071D01*
X7026Y1021D02*
X7126D01*
X4267Y5159D02*
X4367D01*
X4317Y5109D02*
Y5209D01*
X4624Y5159D02*
X4724D01*
X4674Y5109D02*
Y5209D01*
X2381Y4375D02*
X2461D01*
X2421Y4335D02*
Y4415D01*
X2203Y4285D02*
X2283D01*
X2243Y4245D02*
Y4325D01*
X2324Y3699D02*
Y3779D01*
X2284Y3739D02*
X2364D01*
X2324Y3536D02*
Y3616D01*
X2284Y3576D02*
X2364D01*
X6623Y680D02*
Y780D01*
X6573Y730D02*
X6673D01*
X6809Y1801D02*
Y1901D01*
X6759Y1851D02*
X6859D01*
X7093Y585D02*
Y685D01*
X7043Y635D02*
X7143D01*
X1450Y1581D02*
X1550D01*
X1500Y1531D02*
Y1631D01*
X6386Y4662D02*
Y4762D01*
X6336Y4712D02*
X6436D01*
X6695Y3092D02*
X6795D01*
X6745Y3042D02*
Y3142D01*
X4498Y4777D02*
Y4877D01*
X4448Y4827D02*
X4548D01*
D42*
X457Y4059D02*
X857D01*
X457Y3709D02*
X857D01*
X457D02*
Y4059D01*
X857Y3709D02*
Y4059D01*
X5689Y3416D02*
X6239D01*
X5689Y2661D02*
X6239D01*
Y3416D01*
X5689Y2661D02*
Y3416D01*
X6549Y1779D02*
Y2239D01*
X6319Y1779D02*
Y2239D01*
X6549D01*
X6319Y1779D02*
X6549D01*
X7069Y2231D02*
X7619D01*
X7069Y1476D02*
X7619D01*
Y2231D01*
X7069Y1476D02*
Y2231D01*
X7790Y2302D02*
X8140D01*
X7790Y2112D02*
X8140D01*
X7790D02*
Y2302D01*
X8140Y2112D02*
Y2302D01*
X7790Y2052D02*
X8140D01*
X7790Y1862D02*
X8140D01*
X7790D02*
Y2052D01*
X8140Y1862D02*
Y2052D01*
X7780Y1611D02*
X8130D01*
X7780Y1801D02*
X8130D01*
Y1611D02*
Y1801D01*
X7780Y1611D02*
Y1801D01*
X6342Y1416D02*
X6803D01*
X6342Y1186D02*
X6803D01*
X6342D02*
Y1416D01*
X6803Y1186D02*
Y1416D01*
X3264Y4151D02*
Y4721D01*
X2534Y4151D02*
Y4721D01*
Y4151D02*
X3264D01*
X2534Y4721D02*
X3264D01*
X3256Y3362D02*
Y3932D01*
X2526Y3362D02*
Y3932D01*
Y3362D02*
X3256D01*
X2526Y3932D02*
X3256D01*
X1230Y2251D02*
X1770D01*
X1230Y2711D02*
X1770D01*
Y2251D02*
Y2711D01*
X1230Y2251D02*
Y2711D01*
X2342Y266D02*
Y806D01*
X1883Y266D02*
Y806D01*
X2342D01*
X1883Y266D02*
X2342D01*
X1726Y3736D02*
Y4276D01*
X1266Y3736D02*
Y4276D01*
X1726D01*
X1266Y3736D02*
X1726D01*
X1760Y2836D02*
Y3386D01*
X1540Y2836D02*
X1760D01*
X1540D02*
Y3386D01*
X1760D01*
X1240Y326D02*
Y876D01*
X1460D01*
Y326D02*
Y876D01*
X1240Y326D02*
X1460D01*
X7189Y2536D02*
X8029D01*
X7189Y3326D02*
X8029D01*
X7189Y2536D02*
Y3326D01*
X8029Y2536D02*
Y3326D01*
X4858Y3492D02*
Y4242D01*
X5608Y3492D02*
Y4242D01*
X4858D02*
X5608D01*
X4858Y3492D02*
X5608D01*
X2965Y139D02*
Y1389D01*
X4315Y139D02*
Y1389D01*
X2965D02*
X4315D01*
X2965Y139D02*
X4315D01*
X7104Y2839D02*
Y3299D01*
X6874Y2839D02*
Y3299D01*
X7104D01*
X6874Y2839D02*
X7104D01*
X6342Y910D02*
X6803D01*
X6342Y1140D02*
X6803D01*
Y910D02*
Y1140D01*
X6342Y910D02*
Y1140D01*
X183Y3659D02*
Y4039D01*
X393Y3659D02*
Y4039D01*
X183Y3659D02*
X393D01*
X183Y4039D02*
X393D01*
X433Y4149D02*
Y4529D01*
X643Y4149D02*
Y4529D01*
X433Y4149D02*
X643D01*
X433Y4529D02*
X643D01*
X6601Y2066D02*
X6981D01*
X6601Y2276D02*
X6981D01*
Y2066D02*
Y2276D01*
X6601Y2066D02*
Y2276D01*
X3312Y4530D02*
X3692D01*
X3312Y4740D02*
X3692D01*
Y4530D02*
Y4740D01*
X3312Y4530D02*
Y4740D01*
Y4130D02*
X3692D01*
X3312Y4340D02*
X3692D01*
Y4130D02*
Y4340D01*
X3312Y4130D02*
Y4340D01*
Y3730D02*
X3692D01*
X3312Y3940D02*
X3692D01*
Y3730D02*
Y3940D01*
X3312Y3730D02*
Y3940D01*
Y3380D02*
X3692D01*
X3312Y3590D02*
X3692D01*
Y3380D02*
Y3590D01*
X3312Y3380D02*
Y3590D01*
X1245Y2961D02*
Y3341D01*
X1455Y2961D02*
Y3341D01*
X1245Y2961D02*
X1455D01*
X1245Y3341D02*
X1455D01*
X1545Y371D02*
Y751D01*
X1755Y371D02*
Y751D01*
X1545Y371D02*
X1755D01*
X1545Y751D02*
X1755D01*
X2424Y312D02*
Y662D01*
X2614Y312D02*
Y662D01*
X2424Y312D02*
X2614D01*
X2424Y662D02*
X2614D01*
X3924Y1445D02*
X4274D01*
X3924Y1635D02*
X4274D01*
Y1445D02*
Y1635D01*
X3924Y1445D02*
Y1635D01*
Y1695D02*
X4274D01*
X3924Y1885D02*
X4274D01*
Y1695D02*
Y1885D01*
X3924Y1695D02*
Y1885D01*
X685Y4155D02*
Y4505D01*
X875Y4155D02*
Y4505D01*
X685Y4155D02*
X875D01*
X685Y4505D02*
X875D01*
X6901Y926D02*
X7251D01*
X6901Y1116D02*
X7251D01*
Y926D02*
Y1116D01*
X6901Y926D02*
Y1116D01*
X4222Y4984D02*
Y5334D01*
X4412Y4984D02*
Y5334D01*
X4222Y4984D02*
X4412D01*
X4222Y5334D02*
X4412D01*
X4579Y4984D02*
Y5334D01*
X4769Y4984D02*
Y5334D01*
X4579Y4984D02*
X4769D01*
X4579Y5334D02*
X4769D01*
X2351Y4220D02*
Y4530D01*
X2491Y4220D02*
Y4530D01*
X2351Y4220D02*
X2491D01*
X2351Y4530D02*
X2491D01*
X2173Y4130D02*
Y4440D01*
X2313Y4130D02*
Y4440D01*
X2173Y4130D02*
X2313D01*
X2173Y4440D02*
X2313D01*
X2169Y3809D02*
X2479D01*
X2169Y3669D02*
X2479D01*
X2169D02*
Y3809D01*
X2479Y3669D02*
Y3809D01*
X2169Y3646D02*
X2479D01*
X2169Y3506D02*
X2479D01*
X2169D02*
Y3646D01*
X2479Y3506D02*
Y3646D01*
X6408Y905D02*
X6838D01*
X6408Y555D02*
X6838D01*
X6408D02*
Y905D01*
X6838Y555D02*
Y905D01*
X6594Y2026D02*
X7024D01*
X6594Y1676D02*
X7024D01*
X6594D02*
Y2026D01*
X7024Y1676D02*
Y2026D01*
X6878Y810D02*
X7307D01*
X6878Y460D02*
X7307D01*
X6878D02*
Y810D01*
X7307Y460D02*
Y810D01*
X1138Y994D02*
Y2169D01*
X1862Y994D02*
Y2169D01*
X1138Y994D02*
X1862D01*
X1138Y2169D02*
X1862D01*
X6011Y4438D02*
X6761D01*
X6011Y4988D02*
X6761D01*
Y4438D02*
Y4988D01*
X6011Y4438D02*
Y4988D01*
X6635Y2817D02*
Y3367D01*
X6855D01*
Y2817D02*
Y3367D01*
X6635Y2817D02*
X6855D01*
X4223Y4937D02*
X4773D01*
Y4717D02*
Y4937D01*
X4223Y4717D02*
X4773D01*
X4223D02*
Y4937D01*
D86*
X576Y3161D02*
Y3202D01*
X616D01*
Y3161D01*
X576D01*
X830D02*
Y3202D01*
X870D01*
Y3161D01*
X830D01*
X4952Y5180D02*
Y5220D01*
X4993D01*
Y5180D01*
X4952D01*
Y4926D02*
Y4966D01*
X4993D01*
Y4926D01*
X4952D01*
X5460D02*
Y4966D01*
X5501D01*
Y4926D01*
X5460D01*
X5206Y5180D02*
Y5220D01*
X5247D01*
Y5180D01*
X5206D01*
Y4926D02*
Y4966D01*
X5247D01*
Y4926D01*
X5206D01*
X5460Y5180D02*
Y5220D01*
X5501D01*
Y5180D01*
X5460D01*
X7032Y4416D02*
Y4456D01*
X7073D01*
Y4416D01*
X7032D01*
X7286Y4418D02*
Y4458D01*
X7327D01*
Y4418D01*
X7286D01*
X7032Y4672D02*
Y4712D01*
X7073D01*
Y4672D01*
X7032D01*
X7286D02*
Y4712D01*
X7327D01*
Y4672D01*
X7286D01*
X7032Y4920D02*
Y4960D01*
X7073D01*
Y4920D01*
X7032D01*
X7288D02*
Y4960D01*
X7329D01*
Y4920D01*
X7288D01*
X2321Y5190D02*
Y5231D01*
X2362D01*
Y5190D01*
X2321D01*
Y4936D02*
Y4977D01*
X2362D01*
Y4936D01*
X2321D01*
X2575Y5190D02*
Y5231D01*
X2616D01*
Y5190D01*
X2575D01*
Y4936D02*
Y4977D01*
X2616D01*
Y4936D01*
X2575D01*
X2829Y5190D02*
Y5231D01*
X2870D01*
Y5190D01*
X2829D01*
Y4936D02*
Y4977D01*
X2870D01*
Y4936D01*
X2829D01*
X3083Y5190D02*
Y5231D01*
X3124D01*
Y5190D01*
X3083D01*
Y4936D02*
Y4977D01*
X3124D01*
Y4936D01*
X3083D01*
X3337Y5190D02*
Y5231D01*
X3378D01*
Y5190D01*
X3337D01*
X3334Y4937D02*
Y4978D01*
X3375D01*
Y4937D01*
X3334D01*
X7975Y5087D02*
X7955Y5128D01*
X7995D01*
X7975Y5087D01*
X400Y387D02*
X380Y428D01*
X420D01*
X400Y387D01*
X7975D02*
X7955Y428D01*
X7995D01*
X7975Y387D01*
X400Y5087D02*
X380Y5128D01*
X420D01*
X400Y5087D01*
X5834Y4010D02*
X5844Y4020D01*
X5854D01*
X5844Y4030D01*
X5854Y4040D01*
X5844D01*
X5834Y4050D01*
X5824Y4040D01*
X5813D01*
X5824Y4030D01*
X5813Y4020D01*
X5824D01*
X5834Y4010D01*
X5395Y4270D02*
X5405Y4280D01*
X5415D01*
X5405Y4290D01*
X5415Y4300D01*
X5405D01*
X5395Y4310D01*
X5385Y4300D01*
X5375D01*
X5385Y4290D01*
X5375Y4280D01*
X5385D01*
X5395Y4270D01*
X5151Y3262D02*
X5161Y3272D01*
X5172D01*
X5161Y3283D01*
X5172Y3293D01*
X5161D01*
X5151Y3303D01*
X5141Y3293D01*
X5131D01*
X5141Y3283D01*
X5131Y3272D01*
X5141D01*
X5151Y3262D01*
X5460Y3295D02*
X5470Y3305D01*
X5480D01*
X5470Y3315D01*
X5480Y3325D01*
X5470D01*
X5460Y3335D01*
X5450Y3325D01*
X5440D01*
X5450Y3315D01*
X5440Y3305D01*
X5450D01*
X5460Y3295D01*
X5834Y3831D02*
X5844Y3841D01*
X5854D01*
X5844Y3851D01*
X5854Y3861D01*
X5844D01*
X5834Y3872D01*
X5824Y3861D01*
X5813D01*
X5824Y3851D01*
X5813Y3841D01*
X5824D01*
X5834Y3831D01*
X4875Y4270D02*
X4885Y4280D01*
X4895D01*
X4885Y4290D01*
X4895Y4300D01*
X4885D01*
X4875Y4310D01*
X4865Y4300D01*
X4855D01*
X4865Y4290D01*
X4855Y4280D01*
X4865D01*
X4875Y4270D01*
X5290Y4370D02*
X5300Y4380D01*
X5310D01*
X5300Y4390D01*
X5310Y4400D01*
X5300D01*
X5290Y4410D01*
X5280Y4400D01*
X5270D01*
X5280Y4390D01*
X5270Y4380D01*
X5280D01*
X5290Y4370D01*
X5200Y3425D02*
X5210Y3435D01*
X5220D01*
X5210Y3445D01*
X5220Y3455D01*
X5210D01*
X5200Y3465D01*
X5190Y3455D01*
X5180D01*
X5190Y3445D01*
X5180Y3435D01*
X5190D01*
X5200Y3425D01*
X7836Y3356D02*
X7846Y3366D01*
X7857D01*
X7846Y3376D01*
X7857Y3386D01*
X7846D01*
X7836Y3397D01*
X7826Y3386D01*
X7816D01*
X7826Y3376D01*
X7816Y3366D01*
X7826D01*
X7836Y3356D01*
X6154Y3437D02*
X6164Y3447D01*
X6175D01*
X6164Y3458D01*
X6175Y3468D01*
X6164D01*
X6154Y3478D01*
X6144Y3468D01*
X6134D01*
X6144Y3458D01*
X6134Y3447D01*
X6144D01*
X6154Y3437D01*
X6156Y2889D02*
X6166Y2899D01*
X6176D01*
X6166Y2909D01*
X6176Y2919D01*
X6166D01*
X6156Y2929D01*
X6146Y2919D01*
X6135D01*
X6146Y2909D01*
X6135Y2899D01*
X6146D01*
X6156Y2889D01*
X7053Y2515D02*
X7063Y2525D01*
X7073D01*
X7063Y2535D01*
X7073Y2545D01*
X7063D01*
X7053Y2555D01*
X7042Y2545D01*
X7032D01*
X7042Y2535D01*
X7032Y2525D01*
X7042D01*
X7053Y2515D01*
X6662Y2008D02*
X6672Y2019D01*
X6683D01*
X6672Y2029D01*
X6683Y2039D01*
X6672D01*
X6662Y2049D01*
X6652Y2039D01*
X6642D01*
X6652Y2029D01*
X6642Y2019D01*
X6652D01*
X6662Y2008D01*
X5964Y4629D02*
X5974Y4639D01*
X5984D01*
X5974Y4649D01*
X5984Y4659D01*
X5974D01*
X5964Y4669D01*
X5954Y4659D01*
X5943D01*
X5954Y4649D01*
X5943Y4639D01*
X5954D01*
X5964Y4629D01*
Y4757D02*
X5974Y4767D01*
X5984D01*
X5974Y4778D01*
X5984Y4788D01*
X5974D01*
X5964Y4798D01*
X5954Y4788D01*
X5943D01*
X5954Y4778D01*
X5943Y4767D01*
X5954D01*
X5964Y4757D01*
X5297Y4270D02*
X5308Y4280D01*
X5318D01*
X5308Y4290D01*
X5318Y4300D01*
X5308D01*
X5297Y4310D01*
X5287Y4300D01*
X5277D01*
X5287Y4290D01*
X5277Y4280D01*
X5287D01*
X5297Y4270D01*
X5038D02*
X5048Y4280D01*
X5058D01*
X5048Y4290D01*
X5058Y4300D01*
X5048D01*
X5038Y4310D01*
X5027Y4300D01*
X5017D01*
X5027Y4290D01*
X5017Y4280D01*
X5027D01*
X5038Y4270D01*
X4794Y4010D02*
X4804Y4020D01*
X4814D01*
X4804Y4030D01*
X4814Y4040D01*
X4804D01*
X4794Y4050D01*
X4784Y4040D01*
X4773D01*
X4784Y4030D01*
X4773Y4020D01*
X4784D01*
X4794Y4010D01*
X7381Y3340D02*
X7391Y3350D01*
X7402D01*
X7391Y3360D01*
X7402Y3370D01*
X7391D01*
X7381Y3380D01*
X7371Y3370D01*
X7361D01*
X7371Y3360D01*
X7361Y3350D01*
X7371D01*
X7381Y3340D01*
X7446Y3057D02*
X7456Y3067D01*
X7467D01*
X7456Y3077D01*
X7467Y3088D01*
X7456D01*
X7446Y3098D01*
X7436Y3088D01*
X7426D01*
X7436Y3077D01*
X7426Y3067D01*
X7436D01*
X7446Y3057D01*
X2921Y4481D02*
X2931Y4501D01*
X2921Y4522D01*
X2941Y4511D01*
X2962Y4522D01*
X2951Y4501D01*
X2962Y4481D01*
X2941Y4491D01*
X2921Y4481D01*
X7966Y3057D02*
X7976Y3067D01*
X7987D01*
X7976Y3077D01*
X7987Y3088D01*
X7976D01*
X7966Y3098D01*
X7956Y3088D01*
X7946D01*
X7956Y3077D01*
X7946Y3067D01*
X7956D01*
X7966Y3057D01*
X7771Y2482D02*
X7781Y2492D01*
X7792D01*
X7781Y2502D01*
X7792Y2513D01*
X7781D01*
X7771Y2523D01*
X7761Y2513D01*
X7751D01*
X7761Y2502D01*
X7751Y2492D01*
X7761D01*
X7771Y2482D01*
X6857Y548D02*
X6868Y559D01*
X6878D01*
X6868Y569D01*
X6878Y579D01*
X6868D01*
X6857Y589D01*
X6847Y579D01*
X6837D01*
X6847Y569D01*
X6837Y559D01*
X6847D01*
X6857Y548D01*
X7524Y2417D02*
X7534Y2427D01*
X7544D01*
X7534Y2438D01*
X7544Y2448D01*
X7534D01*
X7524Y2458D01*
X7514Y2448D01*
X7503D01*
X7514Y2438D01*
X7503Y2427D01*
X7514D01*
X7524Y2417D01*
X5900Y2890D02*
X5910Y2900D01*
X5921D01*
X5910Y2910D01*
X5921Y2920D01*
X5910D01*
X5900Y2931D01*
X5890Y2920D01*
X5880D01*
X5890Y2910D01*
X5880Y2900D01*
X5890D01*
X5900Y2890D01*
X5704Y3506D02*
X5714Y3516D01*
X5724D01*
X5714Y3526D01*
X5724Y3536D01*
X5714D01*
X5704Y3547D01*
X5694Y3536D01*
X5683D01*
X5694Y3526D01*
X5683Y3516D01*
X5694D01*
X5704Y3506D01*
X6011Y2556D02*
X6021Y2576D01*
X6011Y2597D01*
X6031Y2587D01*
X6051Y2597D01*
X6041Y2576D01*
X6051Y2556D01*
X6031Y2566D01*
X6011Y2556D01*
X3789Y1766D02*
X3799Y1786D01*
X3789Y1807D01*
X3809Y1796D01*
X3829Y1807D01*
X3819Y1786D01*
X3829Y1766D01*
X3809Y1776D01*
X3789Y1766D01*
X3483Y3635D02*
X3493Y3656D01*
X3483Y3676D01*
X3504Y3666D01*
X3524Y3676D01*
X3514Y3656D01*
X3524Y3635D01*
X3504Y3645D01*
X3483Y3635D01*
X1664Y4141D02*
X1675Y4161D01*
X1664Y4182D01*
X1685Y4171D01*
X1705Y4182D01*
X1695Y4161D01*
X1705Y4141D01*
X1685Y4151D01*
X1664Y4141D01*
X1818Y2928D02*
X1828Y2949D01*
X1818Y2969D01*
X1839Y2959D01*
X1859Y2969D01*
X1849Y2949D01*
X1859Y2928D01*
X1839Y2939D01*
X1818Y2928D01*
X1897Y2043D02*
X1907Y2064D01*
X1897Y2084D01*
X1917Y2074D01*
X1938Y2084D01*
X1928Y2064D01*
X1938Y2043D01*
X1917Y2054D01*
X1897Y2043D01*
X4940Y3425D02*
X4950Y3435D01*
X4960D01*
X4950Y3445D01*
X4960Y3455D01*
X4950D01*
X4940Y3465D01*
X4930Y3455D01*
X4920D01*
X4930Y3445D01*
X4920Y3435D01*
X4930D01*
X4940Y3425D01*
X5590Y3425D02*
X5600Y3435D01*
X5610D01*
X5600Y3445D01*
X5610Y3455D01*
X5600D01*
X5590Y3465D01*
X5580Y3455D01*
X5570D01*
X5580Y3445D01*
X5570Y3435D01*
X5580D01*
X5590Y3425D01*
X4794Y3733D02*
X4804Y3744D01*
X4814D01*
X4804Y3754D01*
X4814Y3764D01*
X4804D01*
X4794Y3774D01*
X4784Y3764D01*
X4773D01*
X4784Y3754D01*
X4773Y3744D01*
X4784D01*
X4794Y3733D01*
X5330Y3425D02*
X5340Y3435D01*
X5350D01*
X5340Y3445D01*
X5350Y3455D01*
X5340D01*
X5330Y3465D01*
X5320Y3455D01*
X5310D01*
X5320Y3445D01*
X5310Y3435D01*
X5320D01*
X5330Y3425D01*
X5655Y3750D02*
X5665Y3760D01*
X5675D01*
X5665Y3770D01*
X5675Y3780D01*
X5665D01*
X5655Y3790D01*
X5645Y3780D01*
X5635D01*
X5645Y3770D01*
X5635Y3760D01*
X5645D01*
X5655Y3750D01*
X971Y4205D02*
X981Y4225D01*
X971Y4245D01*
X991Y4235D01*
X1012Y4245D01*
X1001Y4225D01*
X1012Y4205D01*
X991Y4215D01*
X971Y4205D01*
X2807Y4253D02*
X2817Y4274D01*
X2807Y4294D01*
X2827Y4284D01*
X2848Y4294D01*
X2838Y4274D01*
X2848Y4253D01*
X2827Y4264D01*
X2807Y4253D01*
X2831Y3690D02*
X2841Y3711D01*
X2831Y3731D01*
X2851Y3721D01*
X2872Y3731D01*
X2861Y3711D01*
X2872Y3690D01*
X2851Y3701D01*
X2831Y3690D01*
X2824Y3450D02*
X2834Y3471D01*
X2824Y3491D01*
X2844Y3481D01*
X2865Y3491D01*
X2855Y3471D01*
X2865Y3450D01*
X2844Y3461D01*
X2824Y3450D01*
X2735Y368D02*
X2745Y389D01*
X2735Y409D01*
X2755Y399D01*
X2775Y409D01*
X2765Y389D01*
X2775Y368D01*
X2755Y379D01*
X2735Y368D01*
D87*
X570Y2481D02*
G03*
X570Y2481I-20J0D01*
G01*
Y1973D02*
G03*
X570Y1973I-20J0D01*
G01*
Y1465D02*
G03*
X570Y1465I-20J0D01*
G01*
Y1211D02*
G03*
X570Y1211I-20J0D01*
G01*
M02*
