G04 Layer_Color=16711935*
%FSLAX42Y42*%
%MOMM*%
G71*
G01*
G75*
%ADD36C,0.10*%
%ADD42C,0.05*%
%ADD78R,1.50X1.50*%
%ADD79C,1.50*%
%ADD80C,1.90*%
%ADD81R,1.90X1.90*%
%ADD82R,1.90X1.90*%
%ADD83C,0.20*%
%ADD84C,0.60*%
%ADD85C,1.47*%
D36*
X3064Y4265D02*
G03*
X3064Y4265I-50J0D01*
G01*
X3056Y3477D02*
G03*
X3056Y3477I-50J0D01*
G01*
X7354Y2796D02*
G03*
X7354Y2796I-50J0D01*
G01*
X6326Y4872D02*
G03*
X6326Y4872I-50J0D01*
G01*
X570Y4035D02*
X745D01*
X570Y3733D02*
X745D01*
X570D02*
Y4035D01*
X745Y3733D02*
Y4035D01*
X6519Y1849D02*
Y2169D01*
X6349Y1849D02*
Y2169D01*
X6519D01*
X6349Y1849D02*
X6519D01*
X7865Y2270D02*
X8065D01*
X7865Y2145D02*
X8065D01*
X7865D02*
Y2270D01*
X8065Y2145D02*
Y2270D01*
X7865Y2020D02*
X8065D01*
X7865Y1895D02*
X8065D01*
X7865D02*
Y2020D01*
X8065Y1895D02*
Y2020D01*
X7855Y1644D02*
X8055D01*
X7855Y1769D02*
X8055D01*
Y1644D02*
Y1769D01*
X7855Y1644D02*
Y1769D01*
X6412Y1386D02*
X6732D01*
X6412Y1216D02*
X6732D01*
X6412D02*
Y1386D01*
X6732Y1216D02*
Y1386D01*
X3104Y4176D02*
Y4696D01*
X2694Y4176D02*
Y4696D01*
Y4176D02*
X3104D01*
X2694Y4696D02*
X3104D01*
X3096Y3387D02*
Y3907D01*
X2686Y3387D02*
Y3907D01*
Y3387D02*
X3096D01*
X2686Y3907D02*
X3096D01*
X1300Y2361D02*
Y2606D01*
X1375Y2681D01*
X1700D01*
X1380Y2281D02*
X1700D01*
X1300Y2361D02*
X1380Y2281D01*
X1700D02*
Y2681D01*
X1988Y336D02*
X2233D01*
X1912Y411D02*
X1988Y336D01*
X1912Y411D02*
Y736D01*
X2312Y416D02*
Y736D01*
X2233Y336D02*
X2312Y416D01*
X1912Y736D02*
X2312D01*
X1371Y3806D02*
X1616D01*
X1296Y3881D02*
X1371Y3806D01*
X1296Y3881D02*
Y4206D01*
X1696Y3886D02*
Y4206D01*
X1616Y3806D02*
X1696Y3886D01*
X1296Y4206D02*
X1696D01*
X1570Y2901D02*
Y3321D01*
X1730Y2901D02*
Y3321D01*
X1570Y2901D02*
X1730D01*
X1570Y3321D02*
X1730D01*
X1430Y391D02*
Y811D01*
X1270Y391D02*
Y811D01*
X1430D01*
X1270Y391D02*
X1430D01*
X7214Y2706D02*
X8004D01*
X7214Y3156D02*
X8004D01*
X7214Y2706D02*
Y3156D01*
X8004Y2706D02*
Y3156D01*
X4883Y3517D02*
Y4217D01*
X5583Y3517D02*
Y4217D01*
X4883D02*
X5583D01*
X4883Y3517D02*
X5583D01*
X3040Y164D02*
Y1364D01*
X4240Y164D02*
Y1364D01*
X3040D02*
X4240D01*
X3040Y164D02*
X4240D01*
X7074Y2909D02*
Y3229D01*
X6904Y2909D02*
Y3229D01*
X7074D01*
X6904Y2909D02*
X7074D01*
X6412Y940D02*
X6732D01*
X6412Y1110D02*
X6732D01*
Y940D02*
Y1110D01*
X6412Y940D02*
Y1110D01*
X228Y3749D02*
Y3949D01*
X348Y3749D02*
Y3949D01*
X228Y3749D02*
X348D01*
X228Y3949D02*
X348D01*
X478Y4239D02*
Y4439D01*
X598Y4239D02*
Y4439D01*
X478Y4239D02*
X598D01*
X478Y4439D02*
X598D01*
X6691Y2111D02*
X6891D01*
X6691Y2231D02*
X6891D01*
Y2111D02*
Y2231D01*
X6691Y2111D02*
Y2231D01*
X3403Y4575D02*
X3603D01*
X3403Y4695D02*
X3603D01*
Y4575D02*
Y4695D01*
X3403Y4575D02*
Y4695D01*
Y4175D02*
X3603D01*
X3403Y4295D02*
X3603D01*
Y4175D02*
Y4295D01*
X3403Y4175D02*
Y4295D01*
Y3775D02*
X3603D01*
X3403Y3895D02*
X3603D01*
Y3775D02*
Y3895D01*
X3403Y3775D02*
Y3895D01*
Y3425D02*
X3603D01*
X3403Y3545D02*
X3603D01*
Y3425D02*
Y3545D01*
X3403Y3425D02*
Y3545D01*
X1290Y3051D02*
Y3251D01*
X1410Y3051D02*
Y3251D01*
X1290Y3051D02*
X1410D01*
X1290Y3251D02*
X1410D01*
X1590Y461D02*
Y661D01*
X1710Y461D02*
Y661D01*
X1590Y461D02*
X1710D01*
X1590Y661D02*
X1710D01*
X2456Y388D02*
Y588D01*
X2581Y388D02*
Y588D01*
X2456Y388D02*
X2581D01*
X2456Y588D02*
X2581D01*
X3999Y1477D02*
X4199D01*
X3999Y1602D02*
X4199D01*
Y1477D02*
Y1602D01*
X3999Y1477D02*
Y1602D01*
Y1727D02*
X4199D01*
X3999Y1852D02*
X4199D01*
Y1727D02*
Y1852D01*
X3999Y1727D02*
Y1852D01*
X718Y4230D02*
Y4430D01*
X843Y4230D02*
Y4430D01*
X718Y4230D02*
X843D01*
X718Y4430D02*
X843D01*
X6976Y959D02*
X7176D01*
X6976Y1084D02*
X7176D01*
Y959D02*
Y1084D01*
X6976Y959D02*
Y1084D01*
X4254Y5059D02*
Y5259D01*
X4379Y5059D02*
Y5259D01*
X4254Y5059D02*
X4379D01*
X4254Y5259D02*
X4379D01*
X4612Y5059D02*
Y5259D01*
X4737Y5059D02*
Y5259D01*
X4612Y5059D02*
X4737D01*
X4612Y5259D02*
X4737D01*
X2381Y4295D02*
Y4455D01*
X2461Y4295D02*
Y4455D01*
X2381Y4295D02*
X2461D01*
X2381Y4455D02*
X2461D01*
X2203Y4205D02*
Y4365D01*
X2283Y4205D02*
Y4365D01*
X2203Y4205D02*
X2283D01*
X2203Y4365D02*
X2283D01*
X2244Y3779D02*
X2404D01*
X2244Y3699D02*
X2404D01*
X2244D02*
Y3779D01*
X2404Y3699D02*
Y3779D01*
X2244Y3616D02*
X2404D01*
X2244Y3536D02*
X2404D01*
X2244D02*
Y3616D01*
X2404Y3536D02*
Y3616D01*
X6553Y880D02*
X6693D01*
X6553Y580D02*
X6693D01*
X6553D02*
Y880D01*
X6693Y580D02*
Y880D01*
X6739Y2001D02*
X6879D01*
X6739Y1701D02*
X6879D01*
X6739D02*
Y2001D01*
X6879Y1701D02*
Y2001D01*
X7022Y785D02*
X7162D01*
X7022Y485D02*
X7162D01*
X7022D02*
Y785D01*
X7162Y485D02*
Y785D01*
X1162Y1156D02*
Y1791D01*
X1838Y1156D02*
Y1791D01*
X1162Y1156D02*
X1838D01*
X1162Y1791D02*
X1838D01*
X6186Y4462D02*
X6586D01*
X6186Y4962D02*
X6586D01*
Y4462D02*
Y4962D01*
X6186Y4462D02*
Y4962D01*
X6825Y2883D02*
Y3303D01*
X6665Y2883D02*
Y3303D01*
X6825D01*
X6665Y2883D02*
X6825D01*
X4288Y4747D02*
X4708D01*
X4288Y4907D02*
X4708D01*
Y4747D02*
Y4907D01*
X4288Y4747D02*
Y4907D01*
X657Y3834D02*
Y3934D01*
X607Y3884D02*
X707D01*
X5964Y2989D02*
Y3089D01*
X5914Y3039D02*
X6014D01*
X6384Y2009D02*
X6484D01*
X6434Y1959D02*
Y2059D01*
X7344Y1804D02*
Y1904D01*
X7294Y1854D02*
X7394D01*
X7965Y2157D02*
Y2257D01*
X7915Y2207D02*
X8015D01*
X7965Y1907D02*
Y2007D01*
X7915Y1957D02*
X8015D01*
X7955Y1656D02*
Y1756D01*
X7905Y1706D02*
X8005D01*
X6572Y1251D02*
Y1351D01*
X6522Y1301D02*
X6622D01*
X2849Y4435D02*
X2949D01*
X2899Y4385D02*
Y4485D01*
X2841Y3647D02*
X2941D01*
X2891Y3597D02*
Y3697D01*
X1500Y2431D02*
Y2531D01*
X1450Y2481D02*
X1550D01*
X2062Y536D02*
X2162D01*
X2112Y486D02*
Y586D01*
X1446Y4006D02*
X1546D01*
X1496Y3956D02*
Y4056D01*
X1600Y3111D02*
X1700D01*
X1650Y3061D02*
Y3161D01*
X1300Y601D02*
X1400D01*
X1350Y551D02*
Y651D01*
X7609Y2881D02*
Y2981D01*
X7559Y2931D02*
X7659D01*
X5183Y3867D02*
X5283D01*
X5233Y3817D02*
Y3917D01*
X3590Y764D02*
X3690D01*
X3640Y714D02*
Y814D01*
X6939Y3069D02*
X7039D01*
X6989Y3019D02*
Y3119D01*
X6572Y975D02*
Y1075D01*
X6522Y1025D02*
X6622D01*
X238Y3849D02*
X338D01*
X288Y3799D02*
Y3899D01*
X488Y4339D02*
X588D01*
X538Y4289D02*
Y4389D01*
X6791Y2121D02*
Y2221D01*
X6741Y2171D02*
X6841D01*
X3503Y4585D02*
Y4685D01*
X3453Y4635D02*
X3553D01*
X3503Y4185D02*
Y4285D01*
X3453Y4235D02*
X3553D01*
X3503Y3785D02*
Y3885D01*
X3453Y3835D02*
X3553D01*
X3503Y3435D02*
Y3535D01*
X3453Y3485D02*
X3553D01*
X1300Y3151D02*
X1400D01*
X1350Y3101D02*
Y3201D01*
X1600Y561D02*
X1700D01*
X1650Y511D02*
Y611D01*
X6325Y3361D02*
X6565D01*
X6325Y2881D02*
Y3361D01*
Y2881D02*
X6565D01*
Y3361D01*
X6355Y3121D02*
X6535D01*
X6445Y3031D02*
Y3211D01*
X6835Y2550D02*
Y2790D01*
X6355D02*
X6835D01*
X6355Y2550D02*
Y2790D01*
Y2550D02*
X6835D01*
X6595Y2580D02*
Y2760D01*
X6505Y2670D02*
X6685D01*
X2469Y488D02*
X2569D01*
X2519Y438D02*
Y538D01*
X4099Y1490D02*
Y1590D01*
X4049Y1540D02*
X4149D01*
X4099Y1740D02*
Y1840D01*
X4049Y1790D02*
X4149D01*
X730Y4330D02*
X830D01*
X780Y4280D02*
Y4380D01*
X7076Y971D02*
Y1071D01*
X7026Y1021D02*
X7126D01*
X4267Y5159D02*
X4367D01*
X4317Y5109D02*
Y5209D01*
X4624Y5159D02*
X4724D01*
X4674Y5109D02*
Y5209D01*
X2381Y4375D02*
X2461D01*
X2421Y4335D02*
Y4415D01*
X2203Y4285D02*
X2283D01*
X2243Y4245D02*
Y4325D01*
X2324Y3699D02*
Y3779D01*
X2284Y3739D02*
X2364D01*
X2324Y3536D02*
Y3616D01*
X2284Y3576D02*
X2364D01*
X6623Y680D02*
Y780D01*
X6573Y730D02*
X6673D01*
X6809Y1801D02*
Y1901D01*
X6759Y1851D02*
X6859D01*
X7093Y585D02*
Y685D01*
X7043Y635D02*
X7143D01*
X1450Y1581D02*
X1550D01*
X1500Y1531D02*
Y1631D01*
X6386Y4662D02*
Y4762D01*
X6336Y4712D02*
X6436D01*
X6695Y3092D02*
X6795D01*
X6745Y3042D02*
Y3142D01*
X4498Y4777D02*
Y4877D01*
X4448Y4827D02*
X4548D01*
D42*
X457Y4059D02*
X857D01*
X457Y3709D02*
X857D01*
X457D02*
Y4059D01*
X857Y3709D02*
Y4059D01*
X5689Y3416D02*
X6239D01*
X5689Y2661D02*
X6239D01*
Y3416D01*
X5689Y2661D02*
Y3416D01*
X6549Y1779D02*
Y2239D01*
X6319Y1779D02*
Y2239D01*
X6549D01*
X6319Y1779D02*
X6549D01*
X7069Y2231D02*
X7619D01*
X7069Y1476D02*
X7619D01*
Y2231D01*
X7069Y1476D02*
Y2231D01*
X7790Y2302D02*
X8140D01*
X7790Y2112D02*
X8140D01*
X7790D02*
Y2302D01*
X8140Y2112D02*
Y2302D01*
X7790Y2052D02*
X8140D01*
X7790Y1862D02*
X8140D01*
X7790D02*
Y2052D01*
X8140Y1862D02*
Y2052D01*
X7780Y1611D02*
X8130D01*
X7780Y1801D02*
X8130D01*
Y1611D02*
Y1801D01*
X7780Y1611D02*
Y1801D01*
X6342Y1416D02*
X6803D01*
X6342Y1186D02*
X6803D01*
X6342D02*
Y1416D01*
X6803Y1186D02*
Y1416D01*
X3264Y4151D02*
Y4721D01*
X2534Y4151D02*
Y4721D01*
Y4151D02*
X3264D01*
X2534Y4721D02*
X3264D01*
X3256Y3362D02*
Y3932D01*
X2526Y3362D02*
Y3932D01*
Y3362D02*
X3256D01*
X2526Y3932D02*
X3256D01*
X1230Y2251D02*
X1770D01*
X1230Y2711D02*
X1770D01*
Y2251D02*
Y2711D01*
X1230Y2251D02*
Y2711D01*
X2342Y266D02*
Y806D01*
X1883Y266D02*
Y806D01*
X2342D01*
X1883Y266D02*
X2342D01*
X1726Y3736D02*
Y4276D01*
X1266Y3736D02*
Y4276D01*
X1726D01*
X1266Y3736D02*
X1726D01*
X1760Y2836D02*
Y3386D01*
X1540Y2836D02*
X1760D01*
X1540D02*
Y3386D01*
X1760D01*
X1240Y326D02*
Y876D01*
X1460D01*
Y326D02*
Y876D01*
X1240Y326D02*
X1460D01*
X7189Y2536D02*
X8029D01*
X7189Y3326D02*
X8029D01*
X7189Y2536D02*
Y3326D01*
X8029Y2536D02*
Y3326D01*
X4858Y3492D02*
Y4242D01*
X5608Y3492D02*
Y4242D01*
X4858D02*
X5608D01*
X4858Y3492D02*
X5608D01*
X2965Y139D02*
Y1389D01*
X4315Y139D02*
Y1389D01*
X2965D02*
X4315D01*
X2965Y139D02*
X4315D01*
X7104Y2839D02*
Y3299D01*
X6874Y2839D02*
Y3299D01*
X7104D01*
X6874Y2839D02*
X7104D01*
X6342Y910D02*
X6803D01*
X6342Y1140D02*
X6803D01*
Y910D02*
Y1140D01*
X6342Y910D02*
Y1140D01*
X183Y3659D02*
Y4039D01*
X393Y3659D02*
Y4039D01*
X183Y3659D02*
X393D01*
X183Y4039D02*
X393D01*
X433Y4149D02*
Y4529D01*
X643Y4149D02*
Y4529D01*
X433Y4149D02*
X643D01*
X433Y4529D02*
X643D01*
X6601Y2066D02*
X6981D01*
X6601Y2276D02*
X6981D01*
Y2066D02*
Y2276D01*
X6601Y2066D02*
Y2276D01*
X3312Y4530D02*
X3692D01*
X3312Y4740D02*
X3692D01*
Y4530D02*
Y4740D01*
X3312Y4530D02*
Y4740D01*
Y4130D02*
X3692D01*
X3312Y4340D02*
X3692D01*
Y4130D02*
Y4340D01*
X3312Y4130D02*
Y4340D01*
Y3730D02*
X3692D01*
X3312Y3940D02*
X3692D01*
Y3730D02*
Y3940D01*
X3312Y3730D02*
Y3940D01*
Y3380D02*
X3692D01*
X3312Y3590D02*
X3692D01*
Y3380D02*
Y3590D01*
X3312Y3380D02*
Y3590D01*
X1245Y2961D02*
Y3341D01*
X1455Y2961D02*
Y3341D01*
X1245Y2961D02*
X1455D01*
X1245Y3341D02*
X1455D01*
X1545Y371D02*
Y751D01*
X1755Y371D02*
Y751D01*
X1545Y371D02*
X1755D01*
X1545Y751D02*
X1755D01*
X2424Y312D02*
Y662D01*
X2614Y312D02*
Y662D01*
X2424Y312D02*
X2614D01*
X2424Y662D02*
X2614D01*
X3924Y1445D02*
X4274D01*
X3924Y1635D02*
X4274D01*
Y1445D02*
Y1635D01*
X3924Y1445D02*
Y1635D01*
Y1695D02*
X4274D01*
X3924Y1885D02*
X4274D01*
Y1695D02*
Y1885D01*
X3924Y1695D02*
Y1885D01*
X685Y4155D02*
Y4505D01*
X875Y4155D02*
Y4505D01*
X685Y4155D02*
X875D01*
X685Y4505D02*
X875D01*
X6901Y926D02*
X7251D01*
X6901Y1116D02*
X7251D01*
Y926D02*
Y1116D01*
X6901Y926D02*
Y1116D01*
X4222Y4984D02*
Y5334D01*
X4412Y4984D02*
Y5334D01*
X4222Y4984D02*
X4412D01*
X4222Y5334D02*
X4412D01*
X4579Y4984D02*
Y5334D01*
X4769Y4984D02*
Y5334D01*
X4579Y4984D02*
X4769D01*
X4579Y5334D02*
X4769D01*
X2351Y4220D02*
Y4530D01*
X2491Y4220D02*
Y4530D01*
X2351Y4220D02*
X2491D01*
X2351Y4530D02*
X2491D01*
X2173Y4130D02*
Y4440D01*
X2313Y4130D02*
Y4440D01*
X2173Y4130D02*
X2313D01*
X2173Y4440D02*
X2313D01*
X2169Y3809D02*
X2479D01*
X2169Y3669D02*
X2479D01*
X2169D02*
Y3809D01*
X2479Y3669D02*
Y3809D01*
X2169Y3646D02*
X2479D01*
X2169Y3506D02*
X2479D01*
X2169D02*
Y3646D01*
X2479Y3506D02*
Y3646D01*
X6408Y905D02*
X6838D01*
X6408Y555D02*
X6838D01*
X6408D02*
Y905D01*
X6838Y555D02*
Y905D01*
X6594Y2026D02*
X7024D01*
X6594Y1676D02*
X7024D01*
X6594D02*
Y2026D01*
X7024Y1676D02*
Y2026D01*
X6878Y810D02*
X7307D01*
X6878Y460D02*
X7307D01*
X6878D02*
Y810D01*
X7307Y460D02*
Y810D01*
X1138Y994D02*
Y2169D01*
X1862Y994D02*
Y2169D01*
X1138Y994D02*
X1862D01*
X1138Y2169D02*
X1862D01*
X6011Y4438D02*
X6761D01*
X6011Y4988D02*
X6761D01*
Y4438D02*
Y4988D01*
X6011Y4438D02*
Y4988D01*
X6635Y2817D02*
Y3367D01*
X6855D01*
Y2817D02*
Y3367D01*
X6635Y2817D02*
X6855D01*
X4223Y4937D02*
X4773D01*
Y4717D02*
Y4937D01*
X4223Y4717D02*
X4773D01*
X4223D02*
Y4937D01*
D78*
X596Y3181D02*
D03*
X5481Y5200D02*
D03*
D79*
X850Y3181D02*
D03*
X4972Y5200D02*
D03*
Y4946D02*
D03*
X5481D02*
D03*
X5226Y5200D02*
D03*
Y4946D02*
D03*
X550Y2481D02*
D03*
Y1973D02*
D03*
Y1465D02*
D03*
Y1211D02*
D03*
D80*
X7053Y4436D02*
D03*
X7307Y4438D02*
D03*
X7053Y4692D02*
D03*
X7307D02*
D03*
X7308Y4940D02*
D03*
X2342Y5210D02*
D03*
Y4956D02*
D03*
X2596Y5210D02*
D03*
Y4956D02*
D03*
X2850Y5210D02*
D03*
Y4956D02*
D03*
X3104Y5210D02*
D03*
Y4956D02*
D03*
X3355Y4957D02*
D03*
D81*
X7053Y4940D02*
D03*
D82*
X3358Y5210D02*
D03*
D83*
X7975Y5108D02*
D03*
X400Y408D02*
D03*
X7975D02*
D03*
X400Y5108D02*
D03*
D84*
X5834Y4030D02*
D03*
X5395Y4290D02*
D03*
X5151Y3283D02*
D03*
X5460Y3315D02*
D03*
X5834Y3851D02*
D03*
X4875Y4290D02*
D03*
X5290Y4390D02*
D03*
X5200Y3445D02*
D03*
X7836Y3376D02*
D03*
X6154Y3458D02*
D03*
X6156Y2909D02*
D03*
X7053Y2535D02*
D03*
X6662Y2029D02*
D03*
X5964Y4649D02*
D03*
Y4778D02*
D03*
X5297Y4290D02*
D03*
X5038D02*
D03*
X4794Y4030D02*
D03*
X7381Y3360D02*
D03*
X7446Y3077D02*
D03*
X7966D02*
D03*
X7771Y2502D02*
D03*
X6857Y569D02*
D03*
X7524Y2438D02*
D03*
X5900Y2910D02*
D03*
X5704Y3526D02*
D03*
X4940Y3445D02*
D03*
X5590Y3445D02*
D03*
X4794Y3754D02*
D03*
X5330Y3445D02*
D03*
X5655Y3770D02*
D03*
D85*
X2941Y4501D02*
D03*
X6031Y2576D02*
D03*
X3809Y1786D02*
D03*
X3504Y3656D02*
D03*
X1685Y4161D02*
D03*
X1839Y2949D02*
D03*
X1917Y2064D02*
D03*
X991Y4225D02*
D03*
X2827Y4274D02*
D03*
X2851Y3711D02*
D03*
X2844Y3471D02*
D03*
X2755Y389D02*
D03*
M02*
