M48
;Layer_Color=9474304
;FILE_FORMAT=4:2
METRIC,LZ
;TYPE=PLATED
T1F00S00C0.20
T2F00S00C0.71
T3F00S00C0.80
T4F00S00C1.00
T5F00S00C3.00
%
T01
X006857Y000569
X006662Y002029
X007053Y002535
X007524Y002438
X007771Y002502
X006156Y002909
X0059Y00291
X006154Y003458
X005704Y003526
X00559Y003445
X00533
X0052
X005151Y003283
X00546Y003315
X005655Y00377
X005834Y003851
X005834Y00403
X005395Y00429
X005297
X00529Y00439
X005038Y00429
X004875
X004794Y00403
Y003754
X00494Y003445
X005964Y004649
Y004778
X007381Y00336
X007446Y003077
X007966
X007836Y003376
T02
X002755Y000389
X003809Y001786
X006031Y002576
X001917Y002064
X001839Y002949
X001685Y004161
X000991Y004225
X002827Y004274
X002941Y004501
X002851Y003711
X002844Y003471
X003504Y003656
T03
X00055Y001211
Y001465
Y001973
Y002481
T04
X000596Y003181
X00085
X002342Y004956
Y00521
X002596
Y004956
X00285
Y00521
X003104
Y004956
X003355Y004957
X003358Y00521
X004972Y0052
Y004946
X005226
X005481
Y0052
X005226
X007053Y00494
Y004692
X007307
X007308Y00494
X007307Y004438
X007053Y004436
T05
X007975Y000408
X0004
Y005108
X007975
M30
