%FSLAX42Y42*%
%MOMM*%
G71*
G01*
G75*
G04 Layer_Physical_Order=3*
G04 Layer_Color=36540*
%ADD10R,1.85X0.60*%
%ADD11C,0.30*%
G04:AMPARAMS|DCode=12|XSize=2mm|YSize=1.52mm|CornerRadius=0.61mm|HoleSize=0mm|Usage=FLASHONLY|Rotation=90.000|XOffset=0mm|YOffset=0mm|HoleType=Round|Shape=RoundedRectangle|*
%AMROUNDEDRECTD12*
21,1,2.00,0.30,0,0,90.0*
21,1,0.78,1.52,0,0,90.0*
1,1,1.22,0.15,0.39*
1,1,1.22,0.15,-0.39*
1,1,1.22,-0.15,-0.39*
1,1,1.22,-0.15,0.39*
%
%ADD12ROUNDEDRECTD12*%
%ADD13C,3.00*%
%ADD14R,1.30X1.30*%
%ADD15C,1.30*%
%ADD16C,0.60*%
%ADD17C,0.70*%
D11*
X22087Y-7004D02*
Y-6557D01*
X14406Y-13481D02*
Y-13354D01*
X13525Y-11149D02*
X13653D01*
X9822Y-1942D02*
Y-1941D01*
X11987Y-2183D02*
X12228Y-1942D01*
X9822Y-1941D02*
X9995D01*
X9818D02*
X9822D01*
X12920Y-8822D02*
X13099D01*
X12920Y-8865D02*
Y-8822D01*
X6443Y-6557D02*
Y-6338D01*
X6439Y-6557D02*
X7067Y-7184D01*
X2633Y-8840D02*
X3321D01*
Y-9314D02*
Y-8865D01*
X2633Y-8865D02*
Y-8840D01*
X2544D02*
X2629D01*
X1068Y-8865D02*
X1645D01*
X10534Y-11282D02*
Y-11172D01*
X9822Y-11282D02*
X10534D01*
X7192Y-11197D02*
X7271D01*
X7192Y-13481D02*
Y-13392D01*
X2633Y-11173D02*
Y-10966D01*
X7103Y-15764D02*
X7188D01*
X1070Y-3236D02*
X2629D01*
X19202Y-5530D02*
Y-5104D01*
X20084Y-3562D02*
X20193Y-3453D01*
X9779Y-14610D02*
X9963Y-14425D01*
X9779Y-14610D02*
Y-14603D01*
X9695Y-14694D02*
X9779Y-14610D01*
X9963Y-14425D02*
X10503D01*
X9695Y-16638D02*
Y-14694D01*
X17489Y-7198D02*
X18165Y-6522D01*
X17883Y-5339D02*
X18165Y-5620D01*
Y-6522D02*
Y-5620D01*
X4776Y-8307D02*
X4850Y-8234D01*
X4776Y-8564D02*
Y-8307D01*
Y-8564D02*
X4799Y-8587D01*
Y-12510D02*
Y-8587D01*
X12828Y-15643D02*
X13006D01*
X12801Y-15670D02*
X12828Y-15643D01*
X12801Y-15698D02*
Y-15670D01*
X12794Y-15705D02*
X12801Y-15698D01*
X6453Y-17385D02*
X6615D01*
X6429Y-17445D02*
X6590D01*
X7095Y-17951D01*
X6615Y-17385D02*
X7120Y-17891D01*
X10720Y-17811D02*
Y-17446D01*
X10580Y-17951D02*
X10720Y-17811D01*
X10043Y-18403D02*
X10353Y-18093D01*
X10555Y-17891D02*
X10598Y-17848D01*
X10450Y-17891D02*
X10555D01*
X10353Y-17988D02*
X10450Y-17891D01*
X10353Y-18093D02*
Y-17988D01*
X10475Y-17951D02*
X10580D01*
X10413Y-18013D02*
X10475Y-17951D01*
X10413Y-18118D02*
Y-18013D01*
X10118Y-18413D02*
X10413Y-18118D01*
X10118Y-18495D02*
Y-18413D01*
X10598Y-17848D02*
Y-17735D01*
X10043Y-18464D02*
Y-18403D01*
X10236Y-17702D02*
X10363Y-17829D01*
X9982Y-17702D02*
X10236D01*
X9982D02*
Y-17654D01*
X5827Y-18083D02*
X6744Y-18999D01*
X5827Y-18083D02*
Y-18013D01*
X5765Y-17951D02*
X5827Y-18013D01*
X5762Y-17951D02*
X5765D01*
X5761Y-17951D02*
X5762Y-17951D01*
X5695Y-17951D02*
X5761D01*
X5167Y-17423D02*
X5695Y-17951D01*
X4837Y-17423D02*
X5167D01*
X5774Y-18301D02*
X6741Y-19268D01*
X5619Y-18301D02*
X5774D01*
X19939Y-3562D02*
X20084D01*
X19812D02*
X19939D01*
X13599Y-18464D02*
Y-18442D01*
X13741Y-18301D02*
X13838Y-18204D01*
X13740Y-18301D02*
X13741D01*
X13599Y-18442D02*
X13740Y-18301D01*
X13778Y-18179D02*
Y-18178D01*
X13716Y-18241D02*
X13778Y-18179D01*
X13673Y-18241D02*
X13716D01*
X13778Y-18178D02*
X13838Y-18118D01*
X13483Y-18431D02*
X13673Y-18241D01*
X13858Y-18182D02*
X14099D01*
X13838Y-18203D02*
X13858Y-18182D01*
X13838Y-18204D02*
Y-18203D01*
X10947Y-12429D02*
Y-12368D01*
Y-12429D02*
X11328Y-12810D01*
X10746Y-13011D02*
Y-12551D01*
X10614Y-13143D02*
X10746Y-13011D01*
X9080Y-13143D02*
X10614D01*
X4165Y-12343D02*
Y-12327D01*
X4165Y-12326D02*
X4165Y-12327D01*
X4165Y-12326D02*
Y-10100D01*
X4191Y-10075D01*
Y-10031D01*
X4225Y-10125D02*
X4266Y-10085D01*
X4225Y-11007D02*
Y-10125D01*
Y-11007D02*
X4242Y-11024D01*
Y-13750D02*
Y-11024D01*
X4228Y-13764D02*
X4242Y-13750D01*
X4228Y-13827D02*
Y-13764D01*
Y-13827D02*
X4242Y-13841D01*
Y-14142D02*
Y-13841D01*
Y-14142D02*
X4266Y-14166D01*
X1645Y-8865D02*
X1790Y-8720D01*
X1912D01*
X2057Y-8865D01*
X2629D01*
X12224Y-928D02*
X12916D01*
X19177Y-9777D02*
Y-9770D01*
Y-11880D02*
Y-9777D01*
X19177Y-9777D02*
X19177Y-9777D01*
X17102Y-420D02*
X17465Y-783D01*
X17943D01*
X18005Y-845D01*
Y-1011D02*
Y-845D01*
X17219Y-1796D02*
X18005Y-1011D01*
X17043Y-1796D02*
X17219D01*
X16981Y-1858D02*
X17043Y-1796D01*
X16981Y-2016D02*
Y-1858D01*
X16415Y-2583D02*
X16981Y-2016D01*
X16275Y-2583D02*
X16415D01*
X15893Y-2965D02*
X16275Y-2583D01*
X15893Y-3150D02*
Y-2965D01*
Y-3150D02*
X15928Y-3186D01*
Y-13586D02*
Y-3186D01*
X15893Y-13621D02*
X15928Y-13586D01*
X15893Y-13842D02*
Y-13621D01*
Y-13842D02*
X15893Y-13842D01*
Y-14111D02*
Y-13842D01*
X15338Y-14667D02*
X15893Y-14111D01*
X15338Y-14924D02*
Y-14667D01*
X15142Y-15120D02*
X15338Y-14924D01*
X15142Y-15282D02*
Y-15120D01*
X14918Y-15506D02*
X15142Y-15282D01*
X14918Y-15868D02*
Y-15506D01*
X14613Y-16173D02*
X14918Y-15868D01*
X14466Y-16173D02*
X14613D01*
X14367Y-16272D02*
X14466Y-16173D01*
X14367Y-16320D02*
Y-16272D01*
X14220Y-16466D02*
X14367Y-16320D01*
X14220Y-16715D02*
Y-16466D01*
X13774Y-17161D02*
X14220Y-16715D01*
X13774Y-17165D02*
Y-17161D01*
X13674Y-17265D02*
X13774Y-17165D01*
X13523Y-17265D02*
X13674D01*
X13101Y-17688D02*
X13523Y-17265D01*
X13101Y-17698D02*
Y-17688D01*
X13004Y-17795D02*
X13101Y-17698D01*
X12842Y-17795D02*
X13004D01*
X12309Y-18329D02*
X12842Y-17795D01*
X12273Y-18329D02*
X12309D01*
X12174Y-18428D02*
X12273Y-18329D01*
X12174Y-18641D02*
Y-18428D01*
X12075Y-18740D02*
X12174Y-18641D01*
X14402Y-2692D02*
X15180D01*
X15748Y-3260D01*
Y-13511D02*
Y-3260D01*
X15295Y-13964D02*
X15748Y-13511D01*
X15295Y-14117D02*
Y-13964D01*
X15158Y-14254D02*
X15295Y-14117D01*
X15158Y-14850D02*
Y-14254D01*
X14962Y-15046D02*
X15158Y-14850D01*
X14962Y-15178D02*
Y-15046D01*
X14738Y-15402D02*
X14962Y-15178D01*
X14738Y-15745D02*
Y-15402D01*
X14490Y-15993D02*
X14738Y-15745D01*
X14366Y-15993D02*
X14490D01*
X13834Y-16525D02*
X14366Y-15993D01*
X13834Y-16682D02*
Y-16525D01*
X13737Y-16779D02*
X13834Y-16682D01*
X13580Y-16779D02*
X13737D01*
X13157Y-17203D02*
X13580Y-16779D01*
X13157Y-17215D02*
Y-17203D01*
X13024Y-17347D02*
X13157Y-17215D01*
X13012Y-17347D02*
X13024D01*
X12974Y-17385D02*
X13012Y-17347D01*
X12836Y-17385D02*
X12974D01*
X12738Y-17482D02*
X12836Y-17385D01*
X12738Y-17621D02*
Y-17482D01*
X12415Y-17945D02*
X12738Y-17621D01*
X12365Y-17945D02*
X12415D01*
X12311Y-17891D02*
X12365Y-17945D01*
X12140Y-17891D02*
X12311D01*
X12042Y-17988D02*
X12140Y-17891D01*
X12042Y-18080D02*
Y-17988D01*
X11702Y-18421D02*
X12042Y-18080D01*
X11702Y-18867D02*
Y-18421D01*
X11570Y-18999D02*
X11702Y-18867D01*
X9284Y-18999D02*
Y-18899D01*
X9171Y-18786D02*
X9284Y-18899D01*
X9171Y-18786D02*
Y-18714D01*
X8952Y-18495D02*
X9171Y-18714D01*
X8952Y-18495D02*
Y-18303D01*
X8577Y-17929D02*
X8952Y-18303D01*
X8577Y-17929D02*
Y-17677D01*
X8345Y-17445D02*
X8577Y-17677D01*
X7937Y-17445D02*
X8345D01*
X7713Y-17222D02*
X7937Y-17445D01*
X7713Y-17222D02*
Y-17139D01*
X7599Y-17024D02*
X7713Y-17139D01*
X7516Y-17024D02*
X7599D01*
X7188Y-16697D02*
X7516Y-17024D01*
X7188Y-16697D02*
Y-16574D01*
X9027Y-18464D02*
Y-18284D01*
X8637Y-17894D02*
X9027Y-18284D01*
X8637Y-17894D02*
Y-17652D01*
X8370Y-17385D02*
X8637Y-17652D01*
X8268Y-17385D02*
X8370D01*
X7594Y-16711D02*
X8268Y-17385D01*
X7594Y-16711D02*
Y-14673D01*
X7188Y-14266D02*
X7594Y-14673D01*
X6439Y-5035D02*
X7188D01*
X2625Y-2731D02*
X2629Y-2728D01*
X1854Y-2731D02*
X2625D01*
X6644Y-420D02*
X7188D01*
X6499Y-565D02*
X6644Y-420D01*
X6380Y-565D02*
X6499D01*
X6235Y-420D02*
X6380Y-565D01*
X5702Y-420D02*
X6235D01*
X1068Y-12467D02*
X1849D01*
X2629D01*
X3321D01*
X1068Y-10159D02*
X1849D01*
X2629D01*
X3321D01*
X1849Y-928D02*
X2629D01*
X3321D01*
X1067Y-3239D02*
X1070Y-3236D01*
X1068Y-5543D02*
X1849D01*
X2629D01*
X5010Y-10159D02*
X5702D01*
X2629Y-3236D02*
X3321D01*
X2629Y-5543D02*
X3321D01*
X1068Y-14774D02*
X1849D01*
X5010Y-928D02*
X5702D01*
X1849Y-14774D02*
X2629D01*
X5702Y-928D02*
X6439D01*
X2629Y-14774D02*
X3321D01*
X6439Y-928D02*
X7188D01*
X5010Y-3236D02*
X5702D01*
X9818Y-10159D02*
X10534D01*
X5702Y-3236D02*
X6473D01*
X6477Y-3239D01*
X5010Y-5543D02*
X5702D01*
X5010Y-12467D02*
X5702D01*
X9042Y-928D02*
X9818D01*
X5010Y-14774D02*
X5702D01*
X9818Y-928D02*
X10534D01*
X12224D01*
X9818Y-7851D02*
X10534D01*
X12916Y-928D02*
X13653D01*
X9818Y-3236D02*
X10534D01*
X9818Y-5543D02*
X10534D01*
X9818Y-12467D02*
X10534D01*
X9818Y-14774D02*
X10534D01*
X12224Y-7851D02*
X12916D01*
X12224Y-10159D02*
X12916D01*
X16334Y-928D02*
X17102D01*
X17883D01*
X12224Y-3200D02*
X12916D01*
X12224Y-5588D02*
X12916D01*
X12224Y-14774D02*
X12916D01*
X12224Y-12467D02*
X12916D01*
X17102Y-7851D02*
X17883D01*
X16334Y-3236D02*
X17102D01*
X17883D01*
X17102Y-5543D02*
X17883D01*
X17102Y-14774D02*
X17883D01*
X17102Y-12467D02*
X17883D01*
X19757Y-3236D02*
X20538D01*
X19757Y-5543D02*
X20538D01*
Y-928D02*
X21306D01*
X19757Y-7849D02*
X20538D01*
X19757Y-10159D02*
X20538D01*
X21306Y-928D02*
X22087D01*
X19757Y-12467D02*
X20538D01*
X19757Y-14774D02*
X20538D01*
X19757Y-17082D02*
X20538D01*
X17102D02*
X17883D01*
X9818D02*
X10534D01*
X5569D02*
X5702D01*
X5527Y-17039D02*
X5569Y-17082D01*
X5087Y-17039D02*
X5527D01*
X5044Y-17082D02*
X5087Y-17039D01*
X5010Y-17082D02*
X5044D01*
X2629D02*
X3321D01*
X1849D02*
X2629D01*
X1068D02*
X1849D01*
X19177Y-557D02*
X19415D01*
X19698Y-275D01*
X19816D01*
X20269Y-728D01*
Y-1040D02*
Y-728D01*
X9042Y-16788D02*
Y-16574D01*
Y-16788D02*
X9320Y-17066D01*
Y-18495D02*
Y-17066D01*
X9281Y-18535D02*
X9320Y-18495D01*
X9281Y-18740D02*
Y-18535D01*
X945Y-2853D02*
X1067Y-2731D01*
X945Y-17727D02*
Y-2853D01*
Y-17727D02*
X1072Y-17854D01*
X1285D01*
X1768Y-18337D01*
X5486D01*
X6528Y-19378D01*
X6789D01*
X6853Y-19315D01*
Y-19168D01*
X6957Y-19063D01*
Y-18999D02*
X6998D01*
X4165Y-3284D02*
Y-1090D01*
X14406Y-13354D02*
X14529Y-13231D01*
Y-11682D01*
X14406Y-11559D02*
X14529Y-11682D01*
X14406Y-11559D02*
Y-11173D01*
X13099Y-8822D02*
X13449Y-9173D01*
Y-11073D02*
Y-9173D01*
Y-11073D02*
X13525Y-11149D01*
X13653Y-11172D02*
Y-11149D01*
X7192Y-13939D02*
Y-13481D01*
X7066Y-14065D02*
X7192Y-13939D01*
X7066Y-15727D02*
Y-14065D01*
Y-15727D02*
X7103Y-15764D01*
X7188Y-15788D02*
Y-15764D01*
X7192Y-13392D02*
X7315Y-13269D01*
Y-11242D01*
X7271Y-11197D02*
X7315Y-11242D01*
X7192Y-11197D02*
Y-11173D01*
X22087Y-8862D02*
Y-8655D01*
X21966Y-8533D02*
X22087Y-8655D01*
X21966Y-8533D02*
Y-7125D01*
X22087Y-7004D01*
X7217Y-4514D02*
Y-4253D01*
Y-4514D02*
X7310Y-4607D01*
Y-5690D02*
Y-4607D01*
X7112Y-5889D02*
X7310Y-5690D01*
X6893Y-5889D02*
X7112D01*
X6443Y-6338D02*
X6893Y-5889D01*
X3321Y-9314D02*
X3444Y-9437D01*
Y-10300D02*
Y-9437D01*
X3302Y-10443D02*
X3444Y-10300D01*
X3156Y-10443D02*
X3302D01*
X2633Y-10966D02*
X3156Y-10443D01*
X2633Y-6717D02*
Y-6557D01*
Y-6717D02*
X2751Y-6834D01*
Y-7997D02*
Y-6834D01*
X2509Y-8238D02*
X2751Y-7997D01*
X2509Y-8806D02*
Y-8238D01*
Y-8806D02*
X2544Y-8840D01*
X2629Y-8865D02*
Y-8840D01*
X3321Y-8865D02*
Y-8840D01*
X7613Y-18852D02*
X7760Y-18999D01*
X7613Y-18852D02*
Y-18694D01*
X7428Y-18510D02*
X7613Y-18694D01*
X7337Y-18510D02*
X7428D01*
X7324Y-18497D02*
X7337Y-18510D01*
X7324Y-18497D02*
Y-18433D01*
X7280Y-18389D02*
X7324Y-18433D01*
X7216Y-18389D02*
X7280D01*
X6562Y-17735D02*
X7216Y-18389D01*
X6384Y-17735D02*
X6562D01*
X6322Y-17673D02*
X6384Y-17735D01*
X6322Y-17673D02*
Y-17456D01*
X5943Y-17077D02*
X6322Y-17456D01*
X5943Y-17077D02*
Y-16950D01*
X5811Y-16817D02*
X5943Y-16950D01*
X5643Y-16817D02*
X5811D01*
X5521Y-16695D02*
X5643Y-16817D01*
X5521Y-16695D02*
Y-15994D01*
X4691Y-15163D02*
X5521Y-15994D01*
X4691Y-15163D02*
Y-14081D01*
X4598Y-13989D02*
X4691Y-14081D01*
X4598Y-13989D02*
X4618Y-13970D01*
Y-13665D01*
X4598Y-13646D02*
X4618Y-13665D01*
X4598Y-13646D02*
Y-12608D01*
X4716Y-12490D01*
Y-11881D01*
X4672Y-11838D02*
X4716Y-11881D01*
X4672Y-11838D02*
Y-10339D01*
X4624Y-10291D02*
X4672Y-10339D01*
X4624Y-10291D02*
Y-10213D01*
X4626Y-10211D01*
Y-9813D01*
X4672Y-9766D01*
Y-8157D01*
X4723Y-8107D01*
Y-8044D01*
X4673Y-7995D02*
X4723Y-8044D01*
X4673Y-7995D02*
Y-7476D01*
X4951Y-7198D01*
X5557D01*
X5702Y-7343D01*
X9822Y-11282D02*
Y-11173D01*
X3321Y-662D02*
Y-420D01*
Y-662D02*
X3442Y-783D01*
Y-1052D02*
Y-783D01*
Y-1052D02*
X3834Y-1444D01*
Y-8233D02*
Y-1444D01*
X3815Y-8251D02*
X3834Y-8233D01*
X3815Y-16857D02*
Y-8251D01*
Y-16857D02*
X4071Y-17113D01*
X4139D01*
X4791Y-17765D01*
Y-17829D02*
Y-17765D01*
Y-17829D02*
X4826Y-17864D01*
X5181D01*
X5619Y-18301D01*
X19939Y-3562D02*
X20127Y-3750D01*
Y-3915D02*
Y-3750D01*
X21310Y-6270D02*
Y-6051D01*
X21308Y-6272D02*
X21310Y-6270D01*
X19710Y-6272D02*
X21308D01*
X9046Y-13109D02*
X9080Y-13143D01*
X9046Y-13109D02*
Y-12975D01*
X4025Y-16610D02*
X4837Y-17423D01*
X4025Y-16610D02*
Y-10886D01*
X4004Y-10865D02*
X4025Y-10886D01*
X4004Y-10865D02*
Y-5629D01*
X4022Y-5611D01*
Y-769D01*
X3468Y-215D02*
X4022Y-769D01*
X2916Y-215D02*
X3468D01*
X2711Y-420D02*
X2916Y-215D01*
X2629Y-420D02*
X2711D01*
X6995Y-19268D02*
X7108Y-19155D01*
Y-18953D01*
X7043Y-18889D02*
X7108Y-18953D01*
X6952Y-18889D02*
X7043D01*
X6888Y-18953D02*
X6952Y-18889D01*
X6888Y-19011D02*
Y-18953D01*
X6789Y-19109D02*
X6888Y-19011D01*
X6690Y-19109D02*
X6789D01*
X5822Y-18241D02*
X6690Y-19109D01*
X5643Y-18241D02*
X5822D01*
X5206Y-17804D02*
X5643Y-18241D01*
X4914Y-17804D02*
X5206D01*
X4914D02*
Y-17782D01*
X4185Y-17053D02*
X4914Y-17782D01*
X4096Y-17053D02*
X4185D01*
X3962Y-16919D02*
X4096Y-17053D01*
X3962Y-16919D02*
Y-15573D01*
X3965Y-15570D01*
Y-10911D01*
X3944Y-10890D02*
X3965Y-10911D01*
X3944Y-10890D02*
Y-839D01*
X3380Y-275D02*
X3944Y-839D01*
X3262Y-275D02*
X3380D01*
X2972Y-565D02*
X3262Y-275D01*
X2522Y-565D02*
X2972D01*
X2507Y-550D02*
X2522Y-565D01*
X2507Y-550D02*
Y-330D01*
X2684Y-153D01*
X3787D01*
X4054Y-420D01*
X5010D01*
X20040Y-5119D02*
Y-3851D01*
X9789Y-18740D02*
X9990Y-18539D01*
X10074D01*
X10118Y-18495D01*
X10720Y-17446D02*
X12232Y-15933D01*
X12287D01*
X12798Y-15422D01*
Y-15140D01*
X13081Y-14857D01*
Y-14705D01*
X12916Y-14540D02*
X13081Y-14705D01*
X12916Y-14540D02*
Y-14266D01*
X12224Y-14570D02*
Y-14266D01*
X12102Y-14692D02*
X12224Y-14570D01*
X12102Y-15942D02*
Y-14692D01*
X10660Y-17384D02*
X12102Y-15942D01*
X10660Y-17673D02*
Y-17384D01*
X10598Y-17735D02*
X10660Y-17673D01*
X17883Y-14266D02*
X18256D01*
X18491Y-14502D01*
Y-18058D02*
Y-14502D01*
X17982Y-18567D02*
X18491Y-18058D01*
X17876Y-18567D02*
X17982D01*
X17826Y-18616D02*
X17876Y-18567D01*
X15672Y-18616D02*
X17826D01*
X14910Y-19378D02*
X15672Y-18616D01*
X14569Y-19378D02*
X14910D01*
X14471Y-19280D02*
X14569Y-19378D01*
X14471Y-19280D02*
Y-19222D01*
X14406Y-19158D02*
X14471Y-19222D01*
X14269Y-19158D02*
X14406D01*
X14110Y-18999D02*
X14269Y-19158D01*
X17368Y-14946D02*
X17952D01*
X18067Y-14832D01*
X18656Y-18007D02*
X19103D01*
X17879Y-18784D02*
X18656Y-18007D01*
X17780Y-18784D02*
X17879D01*
X17714Y-18850D02*
X17780Y-18784D01*
X17714Y-18896D02*
Y-18850D01*
X17627Y-18896D02*
X17714D01*
X18847Y-7961D02*
X19116Y-7692D01*
X20127D01*
X5459Y-663D02*
X5702Y-420D01*
X4901Y-663D02*
X5459D01*
X4190Y-9277D02*
Y-5643D01*
Y-9277D02*
X4266Y-9353D01*
Y-10085D02*
Y-9353D01*
Y-14727D02*
Y-14166D01*
X4165Y-14828D02*
X4266Y-14727D01*
X4165Y-16326D02*
Y-14828D01*
Y-16326D02*
X4266Y-16426D01*
Y-16766D02*
Y-16426D01*
Y-16766D02*
X4847Y-17347D01*
X5424D01*
X5585Y-17508D01*
Y-17673D02*
Y-17508D01*
Y-17673D02*
X6273Y-18361D01*
X6438D01*
X6741Y-18664D01*
Y-18740D02*
Y-18664D01*
X4986Y-5059D02*
X5010Y-5035D01*
X4986Y-5186D02*
Y-5059D01*
X4446Y-5726D02*
X4986Y-5186D01*
X4446Y-7522D02*
Y-5726D01*
Y-7522D02*
X4491Y-7567D01*
Y-7940D02*
Y-7567D01*
X4411Y-8020D02*
X4491Y-7940D01*
X4411Y-8131D02*
Y-8020D01*
Y-8131D02*
X4462Y-8182D01*
Y-9173D02*
Y-8182D01*
Y-9173D02*
X4504Y-9214D01*
Y-9899D02*
Y-9214D01*
Y-9899D02*
X4506Y-9901D01*
Y-10162D02*
Y-9901D01*
X4504Y-10164D02*
X4506Y-10162D01*
X4504Y-11740D02*
Y-10164D01*
Y-11740D02*
X4506Y-11742D01*
Y-11922D02*
Y-11742D01*
X4442Y-11985D02*
X4506Y-11922D01*
X4442Y-12048D02*
Y-11985D01*
Y-12048D02*
X4462Y-12068D01*
Y-13679D02*
Y-12068D01*
Y-13679D02*
X4498Y-13715D01*
Y-13876D02*
Y-13715D01*
X4462Y-13912D02*
X4498Y-13876D01*
X4462Y-14023D02*
Y-13912D01*
Y-14023D02*
X4571Y-14131D01*
Y-14352D02*
Y-14131D01*
X4506Y-14417D02*
X4571Y-14352D01*
X4506Y-14826D02*
Y-14417D01*
X4462Y-14870D02*
X4506Y-14826D01*
X4462Y-15480D02*
Y-14870D01*
Y-15480D02*
X4495Y-15513D01*
Y-15822D02*
Y-15513D01*
Y-15822D02*
X5147Y-16474D01*
Y-16510D02*
Y-16474D01*
Y-16510D02*
X5574Y-16937D01*
X5761D01*
X5823Y-16999D01*
Y-17259D02*
Y-16999D01*
Y-17259D02*
X5829Y-17265D01*
X5840D01*
X6202Y-17628D01*
Y-17723D02*
Y-17628D01*
Y-17723D02*
X6335Y-17855D01*
X6492D01*
X7267Y-18630D01*
X7294D01*
X7359Y-18694D01*
Y-18752D02*
Y-18694D01*
Y-18752D02*
X7506Y-18899D01*
Y-18999D02*
Y-18899D01*
X7333Y-18570D02*
X7503Y-18740D01*
X7291Y-18570D02*
X7333D01*
X6517Y-17795D02*
X7291Y-18570D01*
X6359Y-17795D02*
X6517D01*
X6262Y-17698D02*
X6359Y-17795D01*
X6262Y-17698D02*
Y-17541D01*
X5883Y-17162D02*
X6262Y-17541D01*
X5883Y-17162D02*
Y-16974D01*
X5786Y-16877D02*
X5883Y-16974D01*
X5599Y-16877D02*
X5786D01*
X5207Y-16485D02*
X5599Y-16877D01*
X5207Y-16485D02*
Y-16305D01*
X4555Y-15653D02*
X5207Y-16305D01*
X4555Y-15653D02*
Y-15488D01*
X4522Y-15455D02*
X4555Y-15488D01*
X4522Y-15455D02*
Y-14895D01*
X4566Y-14851D01*
Y-14484D01*
X4631Y-14419D01*
Y-14106D01*
X4522Y-13998D02*
X4631Y-14106D01*
X4522Y-13998D02*
Y-13937D01*
X4558Y-13901D01*
Y-13690D01*
X4522Y-13655D02*
X4558Y-13690D01*
X4522Y-13655D02*
Y-12464D01*
X4654Y-12332D01*
Y-11941D01*
X4592Y-11879D02*
X4654Y-11941D01*
X4592Y-11879D02*
Y-11744D01*
X4564Y-11715D02*
X4592Y-11744D01*
X4564Y-11715D02*
Y-10189D01*
X4566Y-10187D01*
Y-9665D01*
X4564Y-9663D02*
X4566Y-9665D01*
X4564Y-9663D02*
Y-9190D01*
X4522Y-9148D02*
X4564Y-9190D01*
X4522Y-9148D02*
Y-8157D01*
X4471Y-8107D02*
X4522Y-8157D01*
X4471Y-8107D02*
Y-8044D01*
X4596Y-7920D01*
Y-7366D01*
X6318Y-5643D01*
Y-5398D01*
X6439Y-5277D01*
Y-5035D01*
X15519Y-16574D02*
X16130D01*
X16275Y-16429D01*
X17943D01*
X18431Y-16918D01*
Y-17757D02*
Y-16918D01*
X17631Y-18556D02*
X18431Y-17757D01*
X15647Y-18556D02*
X17631D01*
X14935Y-19268D02*
X15647Y-18556D01*
X14615Y-19268D02*
X14935D01*
X18285Y-14438D02*
X18420Y-14573D01*
Y-16537D02*
Y-14573D01*
X18415Y-16542D02*
X18420Y-16537D01*
X12837Y-18464D02*
X12912Y-18539D01*
X13122D01*
X13166Y-18495D01*
Y-18345D01*
X13472Y-18039D01*
Y-17988D01*
X13569Y-17891D01*
X13901D01*
X14346Y-17445D01*
X14455D01*
X14545Y-17356D01*
X14579D01*
X14978Y-16957D01*
Y-16317D01*
X15278Y-16017D01*
Y-15655D01*
X15410Y-15523D01*
X15633D01*
X15880Y-15275D01*
Y-14939D01*
X16250Y-14569D01*
X16425D01*
X16575Y-14420D01*
Y-14081D01*
X16655Y-14001D01*
Y-13746D01*
X16621Y-13712D02*
X16655Y-13746D01*
X16621Y-13712D02*
Y-12235D01*
X16741Y-12115D01*
Y-11776D01*
X16750Y-11768D01*
Y-11561D01*
X16801Y-11510D01*
Y-10001D01*
X16839Y-9964D01*
X17041Y-7577D02*
Y-7486D01*
X16981Y-7426D02*
X17041Y-7486D01*
X16981Y-7426D02*
Y-7260D01*
X17043Y-7198D01*
X17489D01*
X17883Y-5339D02*
Y-5035D01*
X18255Y-6478D02*
X19202Y-5530D01*
X9456Y-18014D02*
X9819Y-18378D01*
X9456Y-18014D02*
Y-16877D01*
X9695Y-16638D01*
X10503Y-14425D02*
X10534Y-14394D01*
Y-14266D01*
X8268Y-18999D02*
X8407Y-19139D01*
Y-19315D02*
Y-19139D01*
Y-19315D02*
X8471Y-19378D01*
X9332D01*
X9395Y-19315D01*
Y-14855D01*
X8857Y-14316D02*
X9395Y-14855D01*
X8857Y-14316D02*
Y-12757D01*
X8130Y-12030D02*
X8857Y-12757D01*
X7188Y-9947D02*
Y-9651D01*
X12700Y-1979D02*
X12749Y-1930D01*
Y-1572D01*
X12700Y-1522D02*
X12749Y-1572D01*
X11328Y-14806D02*
Y-12810D01*
X21649Y-18786D02*
X22301Y-18134D01*
X18052Y-18786D02*
X21649D01*
X18025Y-18812D02*
X18052Y-18786D01*
X18025Y-18841D02*
Y-18812D01*
X17970Y-18896D02*
X18025Y-18841D01*
X17881Y-18896D02*
X17970D01*
X22087Y-17082D02*
X22301Y-16869D01*
X22087Y-14774D02*
X22301Y-14561D01*
X22087Y-12467D02*
X22301Y-12253D01*
X22087Y-10159D02*
X22301Y-9945D01*
X22087Y-7849D02*
X22301Y-7635D01*
X22087Y-5543D02*
X22301Y-5330D01*
X22087Y-3236D02*
X22301Y-3022D01*
X22087Y-928D02*
X22301Y-1141D01*
X19757Y-928D02*
X20047D01*
X20244Y-1125D01*
X20294D01*
X20344Y-1075D01*
Y-960D01*
X20376Y-928D01*
X20538D01*
X17102Y-10159D02*
X17187Y-10244D01*
X17271D01*
X17356Y-10159D01*
X17883D01*
X1596Y-675D02*
X1849Y-928D01*
X1524Y-675D02*
X1596D01*
X1271Y-928D02*
X1524Y-675D01*
X1068Y-928D02*
X1271D01*
X1854Y-2731D02*
Y-2520D01*
X947Y-1613D02*
X1854Y-2520D01*
X947Y-1613D02*
Y-337D01*
X1191Y-93D01*
X7150D01*
X7369Y-312D01*
Y-554D02*
Y-312D01*
X7140Y-783D02*
X7369Y-554D01*
X4951Y-783D02*
X7140D01*
X4889Y-845D02*
X4951Y-783D01*
X4889Y-1214D02*
Y-845D01*
X4291Y-7489D02*
X4310Y-7470D01*
X4291Y-8181D02*
Y-7489D01*
Y-8181D02*
X4342Y-8232D01*
Y-9097D02*
Y-8232D01*
X4304Y-9135D02*
X4342Y-9097D01*
X4304Y-9185D02*
Y-9135D01*
Y-9185D02*
X4384Y-9264D01*
Y-11790D02*
Y-9264D01*
X4322Y-11852D02*
X4384Y-11790D01*
X4322Y-13709D02*
Y-11852D01*
Y-13709D02*
X4378Y-13764D01*
Y-13827D02*
Y-13764D01*
X4342Y-13862D02*
X4378Y-13827D01*
X4342Y-15530D02*
Y-13862D01*
Y-15530D02*
X4375Y-15563D01*
Y-16366D02*
Y-15563D01*
Y-16366D02*
X4493Y-16484D01*
X4527D01*
X4548Y-16506D01*
X4571D01*
X4665Y-16601D01*
Y-17072D02*
Y-16601D01*
Y-17072D02*
X4880Y-17287D01*
X5094D01*
X5222Y-17159D01*
X5406D01*
X5632Y-17385D01*
X5790D01*
X5887Y-17482D01*
Y-17748D02*
Y-17482D01*
Y-17748D02*
X6381Y-18241D01*
X6496D01*
X6995Y-18740D01*
X5010Y-3031D02*
Y-2728D01*
X4889Y-3153D02*
X5010Y-3031D01*
X4889Y-3319D02*
Y-3153D01*
Y-3319D02*
X5135Y-3565D01*
Y-4494D02*
Y-3565D01*
X4889Y-4740D02*
X5135Y-4494D01*
X4889Y-5198D02*
Y-4740D01*
X4370Y-5717D02*
X4889Y-5198D01*
X4370Y-7976D02*
Y-5717D01*
X4351Y-7995D02*
X4370Y-7976D01*
X4351Y-8156D02*
Y-7995D01*
Y-8156D02*
X4402Y-8207D01*
Y-9122D02*
Y-8207D01*
X4364Y-9160D02*
X4402Y-9122D01*
X4364Y-9160D02*
X4444Y-9239D01*
Y-11899D02*
Y-9239D01*
X4382Y-11961D02*
X4444Y-11899D01*
X4382Y-12072D02*
Y-11961D01*
Y-12072D02*
X4402Y-12093D01*
Y-13704D02*
Y-12093D01*
Y-13704D02*
X4438Y-13740D01*
Y-13851D02*
Y-13740D01*
X4402Y-13887D02*
X4438Y-13851D01*
X4402Y-15505D02*
Y-13887D01*
Y-15505D02*
X4435Y-15538D01*
Y-16308D02*
Y-15538D01*
Y-16308D02*
X4561Y-16434D01*
X4642D01*
X4889Y-16680D01*
Y-17165D02*
Y-16680D01*
Y-17165D02*
X4951Y-17227D01*
X5069D01*
X5197Y-17099D01*
X5431D01*
X5657Y-17325D01*
X5815D01*
X6142Y-17653D01*
Y-17748D02*
Y-17653D01*
Y-17748D02*
X6345Y-17951D01*
X6502D01*
X7139Y-18587D01*
Y-18886D02*
Y-18587D01*
Y-18886D02*
X7252Y-18999D01*
X7313Y-18297D02*
X7757Y-18740D01*
X7313Y-18297D02*
Y-18013D01*
X7251Y-17951D02*
X7313Y-18013D01*
X7095Y-17951D02*
X7251D01*
X6198Y-17215D02*
X6429Y-17445D01*
X6198Y-17215D02*
Y-17120D01*
X5798Y-16719D02*
X6198Y-17120D01*
X5643Y-16719D02*
X5798D01*
X5581Y-16657D02*
X5643Y-16719D01*
X5581Y-16657D02*
Y-15909D01*
X5135Y-15463D02*
X5581Y-15909D01*
X5135Y-15463D02*
Y-15200D01*
X4829Y-14893D02*
X5135Y-15200D01*
X4829Y-14893D02*
Y-13793D01*
X4750Y-13714D02*
X4829Y-13793D01*
X4750Y-13714D02*
Y-12754D01*
X4675Y-12679D02*
X4750Y-12754D01*
X4675Y-12679D02*
Y-12635D01*
X4799Y-12510D01*
X4850Y-8234D02*
Y-8053D01*
X4751Y-7954D02*
X4850Y-8053D01*
X5010Y-7499D02*
Y-7343D01*
X8011Y-18740D02*
Y-18655D01*
X7832Y-18476D02*
X8011Y-18655D01*
X7832Y-18476D02*
Y-18392D01*
X7330Y-17891D02*
X7832Y-18392D01*
X7120Y-17891D02*
X7330D01*
X6258Y-17190D02*
X6453Y-17385D01*
X6258Y-17190D02*
Y-17095D01*
X5823Y-16660D02*
X6258Y-17095D01*
X5823Y-16660D02*
X5827Y-16656D01*
Y-15706D01*
X5765Y-15643D02*
X5827Y-15706D01*
X5662Y-15643D02*
X5765D01*
X5195Y-15176D02*
X5662Y-15643D01*
X5195Y-15176D02*
Y-15167D01*
X4889Y-14861D02*
X5195Y-15167D01*
X4889Y-14861D02*
Y-13769D01*
X4889Y-13769D02*
X4889Y-13769D01*
X4889Y-13769D02*
Y-9524D01*
X4953Y-9460D01*
X6249D01*
X6439Y-9651D01*
X8522Y-18999D02*
Y-18899D01*
X8409Y-18786D02*
X8522Y-18899D01*
X8409Y-18786D02*
Y-18715D01*
X8032Y-18338D02*
X8409Y-18715D01*
X8018Y-18338D02*
X8032D01*
X7313Y-17633D02*
X8018Y-18338D01*
X7313Y-17633D02*
Y-17507D01*
X7251Y-17445D02*
X7313Y-17507D01*
X7125Y-17445D02*
X7251D01*
X6925Y-17245D02*
X7125Y-17445D01*
X6807Y-17245D02*
X6925D01*
X6461Y-16899D02*
X6807Y-17245D01*
X6306Y-16899D02*
X6461D01*
X6138Y-16732D02*
X6306Y-16899D01*
X6138Y-16732D02*
Y-16729D01*
X5947Y-16538D02*
X6138Y-16729D01*
X5947Y-16538D02*
Y-14731D01*
X5786Y-14569D02*
X5947Y-14731D01*
X5710Y-14569D02*
X5786D01*
X5521Y-14381D02*
X5710Y-14569D01*
X5521Y-14381D02*
Y-12956D01*
X5902Y-12575D01*
Y-12158D01*
X5702Y-11959D02*
X5902Y-12158D01*
X7188Y-12201D02*
Y-11959D01*
X7067Y-12322D02*
X7188Y-12201D01*
X7067Y-12556D02*
Y-12322D01*
X5581Y-14041D02*
X7067Y-12556D01*
X5581Y-14349D02*
Y-14041D01*
Y-14349D02*
X5699Y-14468D01*
Y-14474D02*
Y-14468D01*
Y-14474D02*
X5735Y-14509D01*
X5873D01*
X6096Y-14732D01*
Y-16559D02*
Y-14732D01*
Y-16559D02*
X6198Y-16662D01*
Y-16707D02*
Y-16662D01*
Y-16707D02*
X6331Y-16839D01*
X6486D01*
X6584Y-16937D01*
X6754D01*
X7202Y-17385D01*
X7276D01*
X7373Y-17482D01*
Y-17556D02*
Y-17482D01*
Y-17556D02*
X8206Y-18389D01*
X8296D01*
X8519Y-18612D01*
Y-18740D02*
Y-18612D01*
X8776Y-18999D02*
X8883Y-18892D01*
Y-18674D01*
X8747Y-18539D02*
X8883Y-18674D01*
X8741Y-18539D02*
X8747D01*
X8698Y-18495D02*
X8741Y-18539D01*
X8698Y-18495D02*
Y-18433D01*
X8702Y-18429D01*
Y-18223D01*
X8448Y-17969D02*
X8702Y-18223D01*
X8448Y-17969D02*
Y-17957D01*
X8382Y-17891D02*
X8448Y-17957D01*
X8212Y-17891D02*
X8382D01*
X7593Y-17272D02*
X8212Y-17891D01*
X7593Y-17272D02*
Y-17188D01*
X7549Y-17144D02*
X7593Y-17188D01*
X7466Y-17144D02*
X7549D01*
X7041Y-16719D02*
X7466Y-17144D01*
X6380Y-16719D02*
X7041D01*
X6318Y-16657D02*
X6380Y-16719D01*
X6318Y-16657D02*
Y-14388D01*
X6439Y-14266D01*
X8638Y-18605D02*
X8773Y-18740D01*
X8638Y-18605D02*
Y-18244D01*
X8344Y-17951D02*
X8638Y-18244D01*
X7852Y-17951D02*
X8344D01*
X7433Y-17532D02*
X7852Y-17951D01*
X7433Y-17532D02*
Y-17458D01*
X7301Y-17325D02*
X7433Y-17458D01*
X7227Y-17325D02*
X7301D01*
X6724Y-16822D02*
X7227Y-17325D01*
X6554Y-16822D02*
X6724D01*
X6511Y-16779D02*
X6554Y-16822D01*
X6355Y-16779D02*
X6511D01*
X6258Y-16682D02*
X6355Y-16779D01*
X6258Y-16682D02*
Y-14810D01*
X5898Y-14449D02*
X6258Y-14810D01*
X5842Y-14449D02*
X5898D01*
X5702Y-14310D02*
X5842Y-14449D01*
X5702Y-14310D02*
Y-14266D01*
X9027Y-18740D02*
Y-18655D01*
X8848Y-18476D02*
X9027Y-18655D01*
X8848Y-18476D02*
Y-18284D01*
X8508Y-17945D02*
X8848Y-18284D01*
X8508Y-17945D02*
X8517Y-17936D01*
Y-17895D01*
X8445Y-17824D02*
X8517Y-17895D01*
X8247Y-17824D02*
X8445D01*
X8240Y-17831D02*
X8247Y-17824D01*
X8237Y-17831D02*
X8240D01*
X7653Y-17247D02*
X8237Y-17831D01*
X7653Y-17247D02*
Y-17164D01*
X7574Y-17084D02*
X7653Y-17164D01*
X7491Y-17084D02*
X7574D01*
X7066Y-16659D02*
X7491Y-17084D01*
X6524Y-16659D02*
X7066D01*
X6439Y-16574D02*
X6524Y-16659D01*
X12916Y-16737D02*
Y-16574D01*
X12530Y-17123D02*
X12916Y-16737D01*
X12387Y-17123D02*
X12530D01*
X12283Y-17227D02*
X12387Y-17123D01*
X12163Y-17227D02*
X12283D01*
X11893Y-17498D02*
X12163Y-17227D01*
X11837Y-17498D02*
X11893D01*
X11178Y-18157D02*
X11837Y-17498D01*
X11178Y-18792D02*
Y-18157D01*
X11081Y-18889D02*
X11178Y-18792D01*
X11016Y-18889D02*
X11081D01*
X10952Y-18953D02*
X11016Y-18889D01*
X10952Y-19011D02*
Y-18953D01*
X10812Y-19150D02*
X10952Y-19011D01*
X9688Y-19150D02*
X10812D01*
X9538Y-18999D02*
X9688Y-19150D01*
X12916Y-11959D02*
X13349D01*
X14081Y-12690D01*
Y-14696D02*
Y-12690D01*
X13640Y-15137D02*
X14081Y-14696D01*
X13598Y-15137D02*
X13640D01*
X13041Y-15695D02*
X13598Y-15137D01*
X13041Y-15871D02*
Y-15695D01*
X12979Y-15933D02*
X13041Y-15871D01*
X12844Y-15933D02*
X12979D01*
X12408Y-16369D02*
X12844Y-15933D01*
X12140Y-16369D02*
X12408D01*
X11647Y-16862D02*
X12140Y-16369D01*
X11647Y-17011D02*
Y-16862D01*
X11487Y-17171D02*
X11647Y-17011D01*
X11487Y-17359D02*
Y-17171D01*
X10720Y-18126D02*
X11487Y-17359D01*
X10720Y-18204D02*
Y-18126D01*
X10603Y-18321D02*
X10720Y-18204D01*
X10447Y-18321D02*
X10603D01*
X10304Y-18464D02*
X10447Y-18321D01*
X10297Y-18464D02*
X10304D01*
X12224Y-11959D02*
X12649D01*
X12794Y-12104D01*
X12990D01*
X13995Y-13109D01*
Y-14654D02*
Y-13109D01*
X13006Y-15643D02*
X13995Y-14654D01*
X12794Y-15779D02*
Y-15705D01*
X12264Y-16309D02*
X12794Y-15779D01*
X12115Y-16309D02*
X12264D01*
X11427Y-16997D02*
X12115Y-16309D01*
X11427Y-17334D02*
Y-16997D01*
X10660Y-18101D02*
X11427Y-17334D01*
X10660Y-18179D02*
Y-18101D01*
X10598Y-18241D02*
X10660Y-18179D01*
X10442Y-18241D02*
X10598D01*
X10388Y-18295D02*
X10442Y-18241D01*
X10359Y-18295D02*
X10388D01*
X10216Y-18439D02*
X10359Y-18295D01*
X10216Y-18504D02*
Y-18439D01*
Y-18504D02*
X10407Y-18694D01*
Y-18786D02*
Y-18694D01*
X10300Y-18893D02*
X10407Y-18786D01*
X10300Y-18999D02*
Y-18893D01*
X14402Y-9955D02*
Y-9651D01*
Y-9955D02*
X14798Y-10351D01*
Y-14582D02*
Y-10351D01*
X14461Y-14919D02*
X14798Y-14582D01*
X14310Y-14919D02*
X14461D01*
X14104Y-15125D02*
X14310Y-14919D01*
X14104Y-15133D02*
Y-15125D01*
X13654Y-15583D02*
X14104Y-15133D01*
X13569Y-15583D02*
X13654D01*
X13472Y-15680D02*
X13569Y-15583D01*
X13472Y-15814D02*
Y-15680D01*
X12977Y-16309D02*
X13472Y-15814D01*
X12807Y-16309D02*
X12977D01*
X12674Y-16442D02*
X12807Y-16309D01*
X12674Y-16661D02*
Y-16442D01*
X12573Y-16762D02*
X12674Y-16661D01*
X12362Y-16762D02*
X12573D01*
X12357Y-16757D02*
X12362Y-16762D01*
X12090Y-16757D02*
X12357D01*
X11857Y-16990D02*
X12090Y-16757D01*
X11857Y-17034D02*
Y-16990D01*
X11778Y-17113D02*
X11857Y-17034D01*
X11734Y-17113D02*
X11778D01*
X11607Y-17241D02*
X11734Y-17113D01*
X11607Y-17409D02*
Y-17241D01*
X10940Y-18076D02*
X11607Y-17409D01*
X10940Y-18520D02*
Y-18076D01*
X10860Y-18599D02*
X10940Y-18520D01*
X10790Y-18599D02*
X10860D01*
X10661Y-18728D02*
X10790Y-18599D01*
X10661Y-18892D02*
Y-18728D01*
X10554Y-18999D02*
X10661Y-18892D01*
X10551Y-18740D02*
X10752Y-18539D01*
X10836D01*
X10880Y-18495D01*
Y-18051D01*
X11547Y-17384D01*
Y-17197D01*
X11691Y-17053D01*
X11753D01*
X11797Y-17009D01*
Y-16797D01*
X12164Y-16429D01*
X12460D01*
X12711Y-16178D01*
X12889D01*
X13544Y-15523D01*
X13629D01*
X14044Y-15108D01*
Y-15100D01*
X14249Y-14895D01*
Y-10551D01*
X13653Y-9955D02*
X14249Y-10551D01*
X13653Y-9955D02*
Y-9651D01*
X13653Y-7343D02*
X14995Y-8685D01*
Y-13993D02*
Y-8685D01*
X14858Y-14130D02*
X14995Y-13993D01*
X14858Y-14629D02*
Y-14130D01*
X14508Y-14979D02*
X14858Y-14629D01*
X14335Y-14979D02*
X14508D01*
X14164Y-15150D02*
X14335Y-14979D01*
X14164Y-15157D02*
Y-15150D01*
X13679Y-15643D02*
X14164Y-15157D01*
X13594Y-15643D02*
X13679D01*
X13532Y-15705D02*
X13594Y-15643D01*
X13532Y-15839D02*
Y-15705D01*
X13001Y-16369D02*
X13532Y-15839D01*
X12832Y-16369D02*
X13001D01*
X12734Y-16466D02*
X12832Y-16369D01*
X12734Y-16685D02*
Y-16466D01*
X12598Y-16822D02*
X12734Y-16685D01*
X12337Y-16822D02*
X12598D01*
X12332Y-16817D02*
X12337Y-16822D01*
X12115Y-16817D02*
X12332D01*
X11982Y-16950D02*
X12115Y-16817D01*
X11982Y-17154D02*
Y-16950D01*
X11918Y-17218D02*
X11982Y-17154D01*
X11790Y-17218D02*
X11918D01*
X11667Y-17342D02*
X11790Y-17218D01*
X11667Y-17433D02*
Y-17342D01*
X11000Y-18100D02*
X11667Y-17433D01*
X11000Y-18545D02*
Y-18100D01*
X10805Y-18740D02*
X11000Y-18545D01*
X14402Y-7415D02*
Y-7343D01*
Y-7415D02*
X15055Y-8068D01*
Y-14017D02*
Y-8068D01*
X14918Y-14154D02*
X15055Y-14017D01*
X14918Y-14654D02*
Y-14154D01*
X14533Y-15039D02*
X14918Y-14654D01*
X14360Y-15039D02*
X14533D01*
X14224Y-15175D02*
X14360Y-15039D01*
X14224Y-15182D02*
Y-15175D01*
X13778Y-15628D02*
X14224Y-15182D01*
X13778Y-15871D02*
Y-15628D01*
X13716Y-15933D02*
X13778Y-15871D01*
X13522Y-15933D02*
X13716D01*
X13026Y-16429D02*
X13522Y-15933D01*
X12857Y-16429D02*
X13026D01*
X12794Y-16491D02*
X12857Y-16429D01*
X12794Y-16710D02*
Y-16491D01*
X12622Y-16882D02*
X12794Y-16710D01*
X12312Y-16882D02*
X12622D01*
X12307Y-16877D02*
X12312Y-16882D01*
X12140Y-16877D02*
X12307D01*
X12042Y-16974D02*
X12140Y-16877D01*
X12042Y-17179D02*
Y-16974D01*
X11933Y-17288D02*
X12042Y-17179D01*
X11806Y-17288D02*
X11933D01*
X11727Y-17367D02*
X11806Y-17288D01*
X11727Y-17458D02*
Y-17367D01*
X11100Y-18085D02*
X11727Y-17458D01*
X11100Y-18464D02*
Y-18085D01*
X14402Y-5080D02*
X14657D01*
X15175Y-5598D01*
Y-14067D02*
Y-5598D01*
X15038Y-14204D02*
X15175Y-14067D01*
X15038Y-14800D02*
Y-14204D01*
X14842Y-14996D02*
X15038Y-14800D01*
X14842Y-15128D02*
Y-14996D01*
X13037Y-16933D02*
X14842Y-15128D01*
X13037Y-17165D02*
Y-16933D01*
X12975Y-17227D02*
X13037Y-17165D01*
X12680Y-17227D02*
X12975D01*
X12560Y-17347D02*
X12680Y-17227D01*
X12216Y-17347D02*
X12560D01*
X11820Y-17744D02*
X12216Y-17347D01*
X11820Y-17894D02*
Y-17744D01*
X11313Y-18402D02*
X11820Y-17894D01*
X11313Y-18464D02*
Y-18402D01*
X13653Y-5080D02*
X14197D01*
X14342Y-5225D01*
X14498D01*
X15115Y-5842D01*
Y-14042D02*
Y-5842D01*
X14978Y-14179D02*
X15115Y-14042D01*
X14978Y-14775D02*
Y-14179D01*
X14615Y-15137D02*
X14978Y-14775D01*
X14346Y-15137D02*
X14615D01*
X14284Y-15200D02*
X14346Y-15137D01*
X14284Y-15450D02*
Y-15200D01*
X13037Y-16698D02*
X14284Y-15450D01*
X13037Y-16701D02*
Y-16698D01*
X12590Y-17147D02*
X13037Y-16701D01*
X12590Y-17160D02*
Y-17147D01*
X12555Y-17195D02*
X12590Y-17160D01*
X12400Y-17195D02*
X12555D01*
X12307Y-17287D02*
X12400Y-17195D01*
X12191Y-17287D02*
X12307D01*
X11760Y-17719D02*
X12191Y-17287D01*
X11760Y-17870D02*
Y-17719D01*
X11238Y-18392D02*
X11760Y-17870D01*
X11238Y-18495D02*
Y-18392D01*
Y-18495D02*
X11423Y-18680D01*
Y-18786D02*
Y-18680D01*
X11316Y-18893D02*
X11423Y-18786D01*
X11316Y-18999D02*
Y-18893D01*
X13653Y-2692D02*
X15235Y-4274D01*
Y-14092D02*
Y-4274D01*
X15098Y-14229D02*
X15235Y-14092D01*
X15098Y-14825D02*
Y-14229D01*
X14902Y-15021D02*
X15098Y-14825D01*
X14902Y-15153D02*
Y-15021D01*
X14647Y-15408D02*
X14902Y-15153D01*
X14647Y-15751D02*
Y-15408D01*
X14465Y-15933D02*
X14647Y-15751D01*
X14341Y-15933D02*
X14465D01*
X13774Y-16501D02*
X14341Y-15933D01*
X13774Y-16657D02*
Y-16501D01*
X13712Y-16719D02*
X13774Y-16657D01*
X13594Y-16719D02*
X13712D01*
X13575Y-16700D02*
X13594Y-16719D01*
X13097Y-17178D02*
X13575Y-16700D01*
X13097Y-17190D02*
Y-17178D01*
X13000Y-17287D02*
X13097Y-17190D01*
X12988Y-17287D02*
X13000D01*
X12950Y-17325D02*
X12988Y-17287D01*
X12811Y-17325D02*
X12950D01*
X12390Y-17746D02*
X12811Y-17325D01*
X12390Y-17885D02*
Y-17746D01*
X12336Y-17831D02*
X12390Y-17885D01*
X12115Y-17831D02*
X12336D01*
X11642Y-18304D02*
X12115Y-17831D01*
X11642Y-18495D02*
Y-18304D01*
X11567Y-18570D02*
X11642Y-18495D01*
X11567Y-18740D02*
Y-18570D01*
X12224Y-420D02*
X12712D01*
X12857Y-565D01*
X14461D01*
X14545Y-481D01*
X15291D01*
X15435Y-625D01*
X15477D01*
X15773Y-921D01*
Y-3200D02*
Y-921D01*
Y-3200D02*
X15808Y-3235D01*
Y-13536D02*
Y-3235D01*
X15748Y-13596D02*
X15808Y-13536D01*
X15748Y-13867D02*
Y-13596D01*
X15553Y-14061D02*
X15748Y-13867D01*
X15435Y-14061D02*
X15553D01*
X15218Y-14279D02*
X15435Y-14061D01*
X15218Y-14874D02*
Y-14279D01*
X15022Y-15070D02*
X15218Y-14874D01*
X15022Y-15232D02*
Y-15070D01*
X14798Y-15457D02*
X15022Y-15232D01*
X14798Y-15770D02*
Y-15457D01*
X14514Y-16053D02*
X14798Y-15770D01*
X14391Y-16053D02*
X14514D01*
X13894Y-16550D02*
X14391Y-16053D01*
X13894Y-16707D02*
Y-16550D01*
X13762Y-16839D02*
X13894Y-16707D01*
X13605Y-16839D02*
X13762D01*
X13217Y-17228D02*
X13605Y-16839D01*
X13217Y-17240D02*
Y-17228D01*
X13049Y-17407D02*
X13217Y-17240D01*
X13037Y-17407D02*
X13049D01*
X12999Y-17445D02*
X13037Y-17407D01*
X12861Y-17445D02*
X12999D01*
X12798Y-17507D02*
X12861Y-17445D01*
X12798Y-17646D02*
Y-17507D01*
X12440Y-18005D02*
X12798Y-17646D01*
X12340Y-18005D02*
X12440D01*
X12286Y-17951D02*
X12340Y-18005D01*
X12164Y-17951D02*
X12286D01*
X12102Y-18013D02*
X12164Y-17951D01*
X12102Y-18182D02*
Y-18013D01*
X11821Y-18464D02*
X12102Y-18182D01*
X13653Y-420D02*
X14197D01*
X14342Y-275D01*
X14461D01*
X14606Y-420D01*
X15315D01*
X15460Y-565D01*
X15502D01*
X15833Y-896D01*
Y-3175D02*
Y-896D01*
Y-3175D02*
X15868Y-3210D01*
Y-13561D02*
Y-3210D01*
X15833Y-13596D02*
X15868Y-13561D01*
X15833Y-13917D02*
Y-13596D01*
X15798Y-13952D02*
X15833Y-13917D01*
X15747Y-13952D02*
X15798D01*
X15578Y-14121D02*
X15747Y-13952D01*
X15460Y-14121D02*
X15578D01*
X15278Y-14304D02*
X15460Y-14121D01*
X15278Y-14899D02*
Y-14304D01*
X15082Y-15095D02*
X15278Y-14899D01*
X15082Y-15257D02*
Y-15095D01*
X14858Y-15481D02*
X15082Y-15257D01*
X14858Y-15843D02*
Y-15481D01*
X14588Y-16113D02*
X14858Y-15843D01*
X14416Y-16113D02*
X14588D01*
X13954Y-16575D02*
X14416Y-16113D01*
X13954Y-16732D02*
Y-16575D01*
X13749Y-16937D02*
X13954Y-16732D01*
X13594Y-16937D02*
X13749D01*
X13277Y-17254D02*
X13594Y-16937D01*
X13277Y-17265D02*
Y-17254D01*
X13074Y-17467D02*
X13277Y-17265D01*
X13064Y-17467D02*
X13074D01*
X13041Y-17490D02*
X13064Y-17467D01*
X13041Y-17673D02*
Y-17490D01*
X12979Y-17735D02*
X13041Y-17673D01*
X12817Y-17735D02*
X12979D01*
X12284Y-18269D02*
X12817Y-17735D01*
X12163Y-18269D02*
X12284D01*
X11821Y-18612D02*
X12163Y-18269D01*
X11821Y-18740D02*
Y-18612D01*
X17883Y-639D02*
Y-420D01*
Y-639D02*
X18065Y-820D01*
Y-1055D02*
Y-820D01*
X17228Y-1892D02*
X18065Y-1055D01*
X17228Y-2038D02*
Y-1892D01*
X16295Y-2971D02*
X17228Y-2038D01*
X16225Y-2971D02*
X16295D01*
X16093Y-3103D02*
X16225Y-2971D01*
X16093Y-14038D02*
Y-3103D01*
X15823Y-14308D02*
X16093Y-14038D01*
X15782Y-14308D02*
X15823D01*
X15398Y-14692D02*
X15782Y-14308D01*
X15398Y-14949D02*
Y-14692D01*
X15202Y-15145D02*
X15398Y-14949D01*
X15202Y-15307D02*
Y-15145D01*
X14978Y-15531D02*
X15202Y-15307D01*
X14978Y-15893D02*
Y-15531D01*
X14638Y-16233D02*
X14978Y-15893D01*
X14490Y-16233D02*
X14638D01*
X14427Y-16297D02*
X14490Y-16233D01*
X14427Y-16345D02*
Y-16297D01*
X14280Y-16491D02*
X14427Y-16345D01*
X14280Y-16740D02*
Y-16491D01*
X14097Y-16923D02*
X14280Y-16740D01*
X14097Y-17016D02*
Y-16923D01*
X13788Y-17325D02*
X14097Y-17016D01*
X13548Y-17325D02*
X13788D01*
X13161Y-17713D02*
X13548Y-17325D01*
X13161Y-17723D02*
Y-17713D01*
X13028Y-17855D02*
X13161Y-17723D01*
X12867Y-17855D02*
X13028D01*
X12333Y-18389D02*
X12867Y-17855D01*
X12297Y-18389D02*
X12333D01*
X12254Y-18433D02*
X12297Y-18389D01*
X12254Y-18646D02*
Y-18433D01*
X12185Y-18715D02*
X12254Y-18646D01*
X12185Y-18892D02*
Y-18715D01*
X12078Y-18999D02*
X12185Y-18892D01*
X19757Y-642D02*
Y-420D01*
X18972Y-1470D02*
X19016Y-1426D01*
X18150Y-1470D02*
X18972D01*
X16590Y-3031D02*
X18150Y-1470D01*
X16250Y-3031D02*
X16590D01*
X16153Y-3128D02*
X16250Y-3031D01*
X16153Y-5651D02*
Y-3128D01*
Y-5651D02*
X16157Y-5655D01*
Y-6445D02*
Y-5655D01*
X16153Y-6449D02*
X16157Y-6445D01*
X16153Y-14159D02*
Y-6449D01*
X15640Y-14671D02*
X16153Y-14159D01*
X15640Y-14857D02*
Y-14671D01*
X15578Y-14919D02*
X15640Y-14857D01*
X15508Y-14919D02*
X15578D01*
X15475Y-14952D02*
X15508Y-14919D01*
X15475Y-14957D02*
Y-14952D01*
X15262Y-15170D02*
X15475Y-14957D01*
X15262Y-15332D02*
Y-15170D01*
X15038Y-15556D02*
X15262Y-15332D01*
X15038Y-15918D02*
Y-15556D01*
X14523Y-16433D02*
X15038Y-15918D01*
X14523Y-16657D02*
Y-16433D01*
X14220Y-16960D02*
X14523Y-16657D01*
X14220Y-16977D02*
Y-16960D01*
X13813Y-17385D02*
X14220Y-16977D01*
X13573Y-17385D02*
X13813D01*
X13476Y-17482D02*
X13573Y-17385D01*
X13476Y-17629D02*
Y-17482D01*
X13154Y-17951D02*
X13476Y-17629D01*
X12857Y-17951D02*
X13154D01*
X12794Y-18013D02*
X12857Y-17951D01*
X12794Y-18057D02*
Y-18013D01*
X12388Y-18464D02*
X12794Y-18057D01*
X12329Y-18464D02*
X12388D01*
X17883Y-3031D02*
Y-2728D01*
Y-3031D02*
X18005Y-3153D01*
Y-3319D02*
Y-3153D01*
X17219Y-4104D02*
X18005Y-3319D01*
X17043Y-4104D02*
X17219D01*
X16981Y-4166D02*
X17043Y-4104D01*
X16981Y-4353D02*
Y-4166D01*
X16681Y-4653D02*
X16981Y-4353D01*
X16681Y-11460D02*
Y-4653D01*
X16630Y-11511D02*
X16681Y-11460D01*
X16630Y-11718D02*
Y-11511D01*
X16621Y-11727D02*
X16630Y-11718D01*
X16621Y-12065D02*
Y-11727D01*
X16501Y-12185D02*
X16621Y-12065D01*
X16501Y-13762D02*
Y-12185D01*
X16455Y-13808D02*
X16501Y-13762D01*
X16455Y-14349D02*
Y-13808D01*
X16355Y-14449D02*
X16455Y-14349D01*
X16200Y-14449D02*
X16355D01*
X15760Y-14889D02*
X16200Y-14449D01*
X15760Y-14907D02*
Y-14889D01*
X15530Y-15137D02*
X15760Y-14907D01*
X15464Y-15137D02*
X15530D01*
X15402Y-15200D02*
X15464Y-15137D01*
X15402Y-15362D02*
Y-15200D01*
X15158Y-15606D02*
X15402Y-15362D01*
X15158Y-15968D02*
Y-15606D01*
X14643Y-16483D02*
X15158Y-15968D01*
X14643Y-17045D02*
Y-16483D01*
X14461Y-17227D02*
X14643Y-17045D01*
X14360Y-17227D02*
X14461D01*
X13852Y-17735D02*
X14360Y-17227D01*
X13555Y-17735D02*
X13852D01*
X13352Y-17938D02*
X13555Y-17735D01*
X13352Y-17953D02*
Y-17938D01*
X13004Y-18301D02*
X13352Y-17953D01*
X12808Y-18301D02*
X13004D01*
X12702Y-18408D02*
X12808Y-18301D01*
X12702Y-18465D02*
Y-18408D01*
X12427Y-18740D02*
X12702Y-18465D01*
X12329Y-18740D02*
X12427D01*
X16739Y-3091D02*
X17102Y-2728D01*
X16275Y-3091D02*
X16739D01*
X16213Y-3153D02*
X16275Y-3091D01*
X16213Y-5626D02*
Y-3153D01*
Y-5626D02*
X16217Y-5630D01*
Y-6470D02*
Y-5630D01*
X16213Y-6474D02*
X16217Y-6470D01*
X16213Y-14299D02*
Y-6474D01*
X15700Y-14812D02*
X16213Y-14299D01*
X15700Y-14882D02*
Y-14812D01*
X15603Y-14979D02*
X15700Y-14882D01*
X15537Y-14979D02*
X15603D01*
X15322Y-15195D02*
X15537Y-14979D01*
X15322Y-15357D02*
Y-15195D01*
X15098Y-15581D02*
X15322Y-15357D01*
X15098Y-15943D02*
Y-15581D01*
X14583Y-16458D02*
X15098Y-15943D01*
X14583Y-16682D02*
Y-16458D01*
X14280Y-16984D02*
X14583Y-16682D01*
X14280Y-17194D02*
Y-16984D01*
X14029Y-17445D02*
X14280Y-17194D01*
X13598Y-17445D02*
X14029D01*
X13536Y-17507D02*
X13598Y-17445D01*
X13536Y-17669D02*
Y-17507D01*
X13041Y-18164D02*
X13536Y-17669D01*
X13041Y-18179D02*
Y-18164D01*
X12979Y-18241D02*
X13041Y-18179D01*
X12784Y-18241D02*
X12979D01*
X12583Y-18442D02*
X12784Y-18241D01*
X12583Y-18464D02*
Y-18442D01*
X17102Y-5339D02*
Y-5035D01*
X16921Y-5520D02*
X17102Y-5339D01*
X16921Y-7451D02*
Y-5520D01*
Y-7451D02*
X16981Y-7511D01*
Y-7552D02*
Y-7511D01*
X16741Y-7792D02*
X16981Y-7552D01*
X16741Y-11485D02*
Y-7792D01*
X16690Y-11536D02*
X16741Y-11485D01*
X16690Y-11743D02*
Y-11536D01*
X16681Y-11752D02*
X16690Y-11743D01*
X16681Y-12090D02*
Y-11752D01*
X16561Y-12210D02*
X16681Y-12090D01*
X16561Y-13737D02*
Y-12210D01*
Y-13737D02*
X16595Y-13771D01*
Y-13976D02*
Y-13771D01*
X16515Y-14056D02*
X16595Y-13976D01*
X16515Y-14395D02*
Y-14056D01*
X16400Y-14509D02*
X16515Y-14395D01*
X16225Y-14509D02*
X16400D01*
X15820Y-14914D02*
X16225Y-14509D01*
X15820Y-15251D02*
Y-14914D01*
X15722Y-15349D02*
X15820Y-15251D01*
X15661Y-15349D02*
X15722D01*
X15582Y-15427D02*
X15661Y-15349D01*
X15421Y-15427D02*
X15582D01*
X15218Y-15630D02*
X15421Y-15427D01*
X15218Y-15992D02*
Y-15630D01*
X14918Y-16292D02*
X15218Y-15992D01*
X14918Y-16932D02*
Y-16292D01*
X14554Y-17296D02*
X14918Y-16932D01*
X14377Y-17296D02*
X14554D01*
X13877Y-17795D02*
X14377Y-17296D01*
X13580Y-17795D02*
X13877D01*
X13412Y-17963D02*
X13580Y-17795D01*
X13412Y-17978D02*
Y-17963D01*
X13001Y-18389D02*
X13412Y-17978D01*
X12805Y-18389D02*
X13001D01*
X12762Y-18433D02*
X12805Y-18389D01*
X12762Y-18495D02*
Y-18433D01*
Y-18495D02*
X12947Y-18680D01*
Y-18892D02*
Y-18680D01*
X12840Y-18999D02*
X12947Y-18892D01*
X13094Y-18999D02*
X13201Y-18892D01*
Y-18728D01*
X13299Y-18630D01*
X13390D01*
X13399Y-18639D01*
X13448D01*
X13483Y-18603D01*
Y-18431D01*
X13838Y-18118D02*
X13969D01*
X14131Y-17956D01*
X14252D01*
X14318Y-17891D01*
X14501D01*
X14762Y-17629D01*
Y-17342D01*
X15098Y-17006D01*
Y-16367D01*
X15398Y-16067D01*
Y-15705D01*
X15460Y-15643D01*
X15682D01*
X16455Y-14870D01*
Y-14709D01*
X16695Y-14469D01*
Y-14130D01*
X16775Y-14050D01*
Y-13696D01*
X16741Y-13663D02*
X16775Y-13696D01*
X16741Y-13663D02*
Y-12284D01*
X16861Y-12164D01*
Y-11826D01*
X16870Y-11818D01*
Y-11611D01*
X16921Y-11559D01*
Y-10051D01*
X16959Y-10014D01*
Y-9591D01*
X17041Y-9508D01*
Y-9197D01*
X17228Y-9010D01*
Y-8805D01*
X18010Y-8023D01*
Y-7746D01*
X17883Y-7620D02*
X18010Y-7746D01*
X17883Y-7620D02*
Y-7343D01*
X17102Y-7600D02*
Y-7343D01*
X16981Y-7722D02*
X17102Y-7600D01*
X16899Y-9566D02*
X16981Y-9483D01*
X16899Y-9989D02*
Y-9566D01*
X16861Y-10026D02*
X16899Y-9989D01*
X16861Y-11534D02*
Y-10026D01*
X16810Y-11586D02*
X16861Y-11534D01*
X16810Y-11793D02*
Y-11586D01*
X16801Y-11801D02*
X16810Y-11793D01*
X16801Y-12140D02*
Y-11801D01*
X16681Y-12260D02*
X16801Y-12140D01*
X16681Y-13687D02*
Y-12260D01*
Y-13687D02*
X16715Y-13721D01*
Y-14025D02*
Y-13721D01*
X16635Y-14106D02*
X16715Y-14025D01*
X16635Y-14444D02*
Y-14106D01*
X16422Y-14658D02*
X16635Y-14444D01*
X16393Y-14629D02*
X16422Y-14658D01*
X16275Y-14629D02*
X16393D01*
X15940Y-14964D02*
X16275Y-14629D01*
X15940Y-15300D02*
Y-14964D01*
X15658Y-15583D02*
X15940Y-15300D01*
X15435Y-15583D02*
X15658D01*
X15338Y-15680D02*
X15435Y-15583D01*
X15338Y-16042D02*
Y-15680D01*
X15038Y-16342D02*
X15338Y-16042D01*
X15038Y-16981D02*
Y-16342D01*
X14604Y-17416D02*
X15038Y-16981D01*
X14570Y-17416D02*
X14604D01*
X14527Y-17459D02*
X14570Y-17416D01*
X14527Y-17722D02*
Y-17459D01*
X14478Y-17771D02*
X14527Y-17722D01*
X14231Y-17771D02*
X14478D01*
X14051Y-17951D02*
X14231Y-17771D01*
X13594Y-17951D02*
X14051D01*
X13532Y-18013D02*
X13594Y-17951D01*
X13532Y-18216D02*
Y-18013D01*
X13420Y-18328D02*
X13532Y-18216D01*
X13420Y-18495D02*
Y-18328D01*
X13349Y-18566D02*
X13420Y-18495D01*
X13265Y-18566D02*
X13349D01*
X13091Y-18740D02*
X13265Y-18566D01*
X17883Y-9955D02*
Y-9651D01*
Y-9955D02*
X18005Y-10076D01*
Y-10346D02*
Y-10076D01*
X17766Y-10584D02*
X18005Y-10346D01*
X17766Y-10750D02*
Y-10584D01*
Y-10750D02*
X17880Y-10864D01*
Y-10926D02*
Y-10864D01*
X16990Y-11816D02*
X17880Y-10926D01*
X16990Y-11867D02*
Y-11816D01*
X16981Y-11876D02*
X16990Y-11867D01*
X16981Y-12214D02*
Y-11876D01*
X16861Y-12334D02*
X16981Y-12214D01*
X16861Y-13613D02*
Y-12334D01*
Y-13613D02*
X16895Y-13647D01*
Y-14100D02*
Y-13647D01*
X16815Y-14180D02*
X16895Y-14100D01*
X16815Y-14561D02*
Y-14180D01*
X16759Y-14617D02*
X16815Y-14561D01*
X16759Y-14803D02*
Y-14617D01*
X16519Y-15043D02*
X16759Y-14803D01*
X16519Y-15305D02*
Y-15043D01*
X16362Y-15463D02*
X16519Y-15305D01*
X16200Y-15463D02*
X16362D01*
X16033Y-15630D02*
X16200Y-15463D01*
X16033Y-15738D02*
Y-15630D01*
X15521Y-16249D02*
X16033Y-15738D01*
X15385Y-16249D02*
X15521D01*
X15218Y-16417D02*
X15385Y-16249D01*
X15218Y-17056D02*
Y-16417D01*
X14995Y-17279D02*
X15218Y-17056D01*
X14995Y-17796D02*
Y-17279D01*
X14550Y-18241D02*
X14995Y-17796D01*
X14343Y-18241D02*
X14550D01*
X14286Y-18185D02*
X14343Y-18241D01*
X14182Y-18185D02*
X14286D01*
X14124Y-18242D02*
X14182Y-18185D01*
X13904Y-18242D02*
X14124D01*
X13786Y-18361D02*
X13904Y-18242D01*
X13764Y-18361D02*
X13786D01*
X13674Y-18452D02*
X13764Y-18361D01*
X13674Y-18495D02*
Y-18452D01*
X13543Y-18625D02*
X13674Y-18495D01*
X13543Y-18628D02*
Y-18625D01*
X13461Y-18711D02*
X13543Y-18628D01*
X13374Y-18711D02*
X13461D01*
X13345Y-18740D02*
X13374Y-18711D01*
X14099Y-18182D02*
X14265Y-18016D01*
X14277D01*
X14342Y-17951D01*
X14526D01*
X14935Y-17542D01*
Y-17254D01*
X15158Y-17031D01*
Y-16392D01*
X15361Y-16189D01*
X15496D01*
X15973Y-15713D01*
Y-15539D01*
X16068Y-15444D01*
X16076D01*
X16217Y-15303D01*
Y-15200D01*
X16699Y-14717D01*
Y-14592D01*
X16755Y-14536D01*
Y-14155D01*
X16835Y-14075D01*
Y-13672D01*
X16801Y-13638D02*
X16835Y-13672D01*
X16801Y-13638D02*
Y-12309D01*
X16921Y-12189D01*
Y-11851D01*
X16930Y-11842D01*
Y-11636D01*
X16981Y-11584D01*
Y-10076D01*
X17102Y-9955D01*
Y-9651D01*
X17525Y-12317D02*
X17883Y-11959D01*
X17048Y-12317D02*
X17525D01*
X16981Y-12384D02*
X17048Y-12317D01*
X16981Y-13563D02*
Y-12384D01*
Y-13563D02*
X17015Y-13597D01*
Y-14150D02*
Y-13597D01*
X16981Y-14184D02*
X17015Y-14150D01*
X16981Y-14564D02*
Y-14184D01*
X16879Y-14666D02*
X16981Y-14564D01*
X16879Y-15200D02*
Y-14666D01*
X16496Y-15583D02*
X16879Y-15200D01*
X16250Y-15583D02*
X16496D01*
X16153Y-15680D02*
X16250Y-15583D01*
X16153Y-15807D02*
Y-15680D01*
X15591Y-16369D02*
X16153Y-15807D01*
X15435Y-16369D02*
X15591D01*
X15338Y-16466D02*
X15435Y-16369D01*
X15338Y-17106D02*
Y-16466D01*
X15122Y-17322D02*
X15338Y-17106D01*
X15122Y-17839D02*
Y-17322D01*
X14578Y-18382D02*
X15122Y-17839D01*
X13934Y-18382D02*
X14578D01*
X13868Y-18448D02*
X13934Y-18382D01*
X13868Y-18489D02*
Y-18448D01*
X13856Y-18999D02*
X13963Y-18892D01*
Y-18694D01*
X13778Y-18509D02*
X13963Y-18694D01*
X13778Y-18509D02*
Y-18433D01*
X13789Y-18421D01*
X13810D01*
X13929Y-18302D01*
X14484D01*
X14504Y-18322D01*
X14553D01*
X15062Y-17814D01*
Y-17297D01*
X15278Y-17081D01*
Y-16442D01*
X15410Y-16309D01*
X15566D01*
X16093Y-15782D01*
Y-15655D01*
X16225Y-15523D01*
X16471D01*
X16819Y-15175D01*
Y-14642D01*
X16875Y-14585D01*
Y-14205D01*
X16955Y-14125D01*
Y-13622D01*
X16921Y-13588D02*
X16955Y-13622D01*
X16921Y-13588D02*
Y-12359D01*
X17102Y-12178D01*
Y-11959D01*
X14107Y-18740D02*
X14217Y-18630D01*
X14342D01*
X14529Y-18442D01*
X14603D01*
X15214Y-17831D01*
Y-17314D01*
X15398Y-17130D01*
Y-16491D01*
X15460Y-16429D01*
X15615D01*
X16213Y-15832D01*
Y-15705D01*
X16275Y-15643D01*
X16521D01*
X16981Y-15183D01*
Y-14692D01*
X17102Y-14570D01*
Y-14266D01*
X17883Y-16574D02*
X18009Y-16699D01*
Y-17676D02*
Y-16699D01*
X17189Y-18496D02*
X18009Y-17676D01*
X14634Y-18496D02*
X17189D01*
X14628Y-18502D02*
X14634Y-18496D01*
X14598Y-18502D02*
X14628D01*
X14361Y-18740D02*
X14598Y-18502D01*
X9995Y-1941D02*
X10236Y-2183D01*
X11987D01*
X6957Y-19063D02*
Y-18999D01*
X22301Y-18134D02*
Y-16869D01*
Y-3022D02*
Y-1141D01*
Y-14561D02*
Y-12253D01*
Y-9945D01*
Y-7635D01*
Y-16869D02*
Y-14561D01*
Y-7635D02*
Y-5330D01*
Y-3022D01*
X19016Y-1315D02*
X19218Y-1113D01*
X19286D02*
X19757Y-642D01*
X19218Y-1113D02*
X19286D01*
X19016Y-1426D02*
Y-1315D01*
X19280Y-3030D02*
X19812Y-3562D01*
X19195Y-5111D02*
X19202Y-5104D01*
X19159Y-5111D02*
X19195D01*
X4190Y-5643D02*
X4267Y-5565D01*
Y-1297D01*
X4901Y-663D01*
X4310Y-7470D02*
Y-5608D01*
X4333Y-5584D01*
Y-5547D01*
X4327Y-5540D02*
X4333Y-5547D01*
X4327Y-5540D02*
Y-1776D01*
X4889Y-1214D01*
X4140Y-3309D02*
X4165Y-3284D01*
X4140Y-5535D02*
Y-3309D01*
X4751Y-7714D02*
X4795Y-7670D01*
X4838D01*
X5010Y-7499D01*
X4751Y-7954D02*
Y-7714D01*
X16839Y-9964D02*
Y-8890D01*
X16918Y-8810D01*
Y-8661D01*
X16839Y-8582D02*
X16918Y-8661D01*
X16839Y-8582D02*
Y-7779D01*
X17041Y-7577D01*
X16981Y-9483D02*
Y-7722D01*
X7390Y-10149D02*
X7391D01*
X8130Y-10889D01*
Y-12030D02*
Y-10889D01*
X7188Y-11172D02*
Y-10867D01*
X7071Y-10750D02*
X7188Y-10867D01*
Y-9947D02*
X7390Y-10149D01*
X7071Y-10750D02*
Y-10246D01*
X7067Y-10242D02*
X7071Y-10246D01*
X7067Y-10242D02*
Y-8986D01*
X7188Y-8865D01*
Y-8567D01*
X7313Y-8442D01*
Y-7710D01*
X7067Y-7464D02*
X7313Y-7710D01*
X7067Y-7464D02*
Y-7184D01*
D12*
X22087Y-1941D02*
D03*
X22091Y-1942D02*
D03*
X22087Y-1941D02*
D03*
Y-928D02*
D03*
X21306Y-1941D02*
D03*
X21310Y-1942D02*
D03*
X21306Y-1941D02*
D03*
Y-928D02*
D03*
X20538Y-1941D02*
D03*
X20542Y-1942D02*
D03*
X20538Y-1941D02*
D03*
Y-928D02*
D03*
X19757Y-1941D02*
D03*
X19761Y-1942D02*
D03*
X19757Y-1941D02*
D03*
Y-928D02*
D03*
Y-420D02*
D03*
X17883Y-1941D02*
D03*
X17888Y-1942D02*
D03*
X17883Y-1941D02*
D03*
Y-928D02*
D03*
Y-420D02*
D03*
X17102Y-1941D02*
D03*
X17107Y-1942D02*
D03*
X17102Y-1941D02*
D03*
Y-928D02*
D03*
Y-420D02*
D03*
X16334Y-1941D02*
D03*
X16338Y-1942D02*
D03*
X16334Y-1941D02*
D03*
Y-928D02*
D03*
X15519Y-1941D02*
D03*
X15523Y-1942D02*
D03*
X15519Y-1941D02*
D03*
X14402D02*
D03*
X14406Y-1942D02*
D03*
X14402Y-1941D02*
D03*
X13653D02*
D03*
X13657Y-1942D02*
D03*
X13653Y-1941D02*
D03*
Y-928D02*
D03*
Y-420D02*
D03*
X12916Y-1941D02*
D03*
X12920Y-1942D02*
D03*
X12916Y-1941D02*
D03*
Y-928D02*
D03*
X12224Y-1941D02*
D03*
X12228Y-1942D02*
D03*
X12224Y-1941D02*
D03*
Y-928D02*
D03*
Y-420D02*
D03*
X10534Y-1941D02*
D03*
X10538Y-1942D02*
D03*
X10534Y-1941D02*
D03*
Y-928D02*
D03*
X9818Y-1941D02*
D03*
X9822Y-1942D02*
D03*
X9818Y-1941D02*
D03*
Y-928D02*
D03*
X9042Y-1941D02*
D03*
X9046Y-1942D02*
D03*
X9042Y-1941D02*
D03*
Y-928D02*
D03*
X8282Y-1941D02*
D03*
X8286Y-1942D02*
D03*
X8282Y-1941D02*
D03*
X7188D02*
D03*
X7192Y-1942D02*
D03*
X7188Y-1941D02*
D03*
Y-928D02*
D03*
Y-420D02*
D03*
X6439Y-1941D02*
D03*
X6443Y-1942D02*
D03*
X6439Y-1941D02*
D03*
Y-928D02*
D03*
X5702Y-1941D02*
D03*
X5706Y-1942D02*
D03*
X5702Y-1941D02*
D03*
Y-928D02*
D03*
Y-420D02*
D03*
X5010Y-1941D02*
D03*
X5014Y-1942D02*
D03*
X5010Y-1941D02*
D03*
Y-928D02*
D03*
Y-420D02*
D03*
X3321Y-1941D02*
D03*
X3325Y-1942D02*
D03*
X3321Y-1941D02*
D03*
Y-928D02*
D03*
Y-420D02*
D03*
X2629Y-1941D02*
D03*
X2633Y-1942D02*
D03*
X2629Y-1941D02*
D03*
Y-928D02*
D03*
Y-420D02*
D03*
X1849Y-1941D02*
D03*
X1853Y-1942D02*
D03*
X1849Y-1941D02*
D03*
Y-928D02*
D03*
X1068Y-1941D02*
D03*
X1072Y-1942D02*
D03*
X1068Y-1941D02*
D03*
Y-928D02*
D03*
X9818Y-18096D02*
D03*
X9822Y-18096D02*
D03*
X9818Y-18096D02*
D03*
Y-17082D02*
D03*
X1849Y-13480D02*
D03*
X1853Y-13481D02*
D03*
X1849Y-13480D02*
D03*
Y-12467D02*
D03*
X1067Y-4253D02*
D03*
X1071Y-4253D02*
D03*
X1067Y-4253D02*
D03*
Y-3239D02*
D03*
Y-2731D02*
D03*
X1854Y-4253D02*
D03*
X1858Y-4253D02*
D03*
X1854Y-4253D02*
D03*
Y-3239D02*
D03*
Y-2731D02*
D03*
X5702Y-4249D02*
D03*
X5706Y-4250D02*
D03*
X5702Y-4249D02*
D03*
Y-3236D02*
D03*
X5010Y-4249D02*
D03*
X5014Y-4250D02*
D03*
X5010Y-4249D02*
D03*
Y-3236D02*
D03*
Y-2728D02*
D03*
X7188Y-6557D02*
D03*
X7192Y-6557D02*
D03*
X7188Y-6557D02*
D03*
Y-5035D02*
D03*
X3321Y-6557D02*
D03*
X3325Y-6557D02*
D03*
X3321Y-6557D02*
D03*
Y-5543D02*
D03*
X5702Y-6557D02*
D03*
X5706Y-6557D02*
D03*
X5702Y-6557D02*
D03*
Y-5543D02*
D03*
X5010Y-6557D02*
D03*
X5014Y-6557D02*
D03*
X5010Y-6557D02*
D03*
Y-5543D02*
D03*
Y-5035D02*
D03*
X3321Y-4249D02*
D03*
X3325Y-4250D02*
D03*
X3321Y-4249D02*
D03*
Y-3236D02*
D03*
X2629Y-4249D02*
D03*
X2633Y-4250D02*
D03*
X2629Y-4249D02*
D03*
Y-3236D02*
D03*
Y-2728D02*
D03*
X6477Y-4253D02*
D03*
X6481Y-4253D02*
D03*
X6477Y-4253D02*
D03*
Y-3239D02*
D03*
X7213Y-4253D02*
D03*
X7217Y-4253D02*
D03*
X7213Y-4253D02*
D03*
X2629Y-6557D02*
D03*
X2633Y-6557D02*
D03*
X2629Y-6557D02*
D03*
Y-5543D02*
D03*
X1849Y-6557D02*
D03*
X1853Y-6557D02*
D03*
X1849Y-6557D02*
D03*
Y-5543D02*
D03*
X1068Y-6557D02*
D03*
X1072Y-6557D02*
D03*
X1068Y-6557D02*
D03*
Y-5543D02*
D03*
X6439Y-6557D02*
D03*
X6443Y-6557D02*
D03*
X6439Y-6557D02*
D03*
Y-5035D02*
D03*
X6439Y-8865D02*
D03*
X6443Y-8865D02*
D03*
X6439Y-8865D02*
D03*
X5702D02*
D03*
X5706Y-8865D02*
D03*
X5702Y-8865D02*
D03*
Y-7343D02*
D03*
X5010Y-8865D02*
D03*
X5014Y-8865D02*
D03*
X5010Y-8865D02*
D03*
Y-7343D02*
D03*
X1849Y-8865D02*
D03*
X1853Y-8865D02*
D03*
X1849Y-8865D02*
D03*
X3321Y-11172D02*
D03*
X3325Y-11173D02*
D03*
X3321Y-11172D02*
D03*
Y-10159D02*
D03*
X6439Y-11172D02*
D03*
X6443Y-11173D02*
D03*
X6439Y-11172D02*
D03*
Y-9651D02*
D03*
X5702Y-11172D02*
D03*
X5706Y-11173D02*
D03*
X5702Y-11172D02*
D03*
Y-10159D02*
D03*
X5010Y-11172D02*
D03*
X5014Y-11173D02*
D03*
X5010Y-11172D02*
D03*
Y-10159D02*
D03*
X3321Y-8865D02*
D03*
X3325Y-8865D02*
D03*
X3321Y-8865D02*
D03*
X2629D02*
D03*
X2633Y-8865D02*
D03*
X2629Y-8865D02*
D03*
X7188D02*
D03*
X7192Y-8865D02*
D03*
X7188Y-8865D02*
D03*
X1068D02*
D03*
X1072Y-8865D02*
D03*
X1068Y-8865D02*
D03*
X2629Y-11172D02*
D03*
X2633Y-11173D02*
D03*
X2629Y-11172D02*
D03*
Y-10159D02*
D03*
X1849Y-11172D02*
D03*
X1853Y-11173D02*
D03*
X1849Y-11172D02*
D03*
Y-10159D02*
D03*
X1068Y-11172D02*
D03*
X1072Y-11173D02*
D03*
X1068Y-11172D02*
D03*
Y-10159D02*
D03*
X7188Y-11172D02*
D03*
X7192Y-11173D02*
D03*
X7188Y-11172D02*
D03*
Y-9651D02*
D03*
X3321Y-13480D02*
D03*
X3325Y-13481D02*
D03*
X3321Y-13480D02*
D03*
Y-12467D02*
D03*
X6439Y-13480D02*
D03*
X6443Y-13481D02*
D03*
X6439Y-13480D02*
D03*
X5702D02*
D03*
X5706Y-13481D02*
D03*
X5702Y-13480D02*
D03*
Y-12467D02*
D03*
Y-11959D02*
D03*
X5010Y-13480D02*
D03*
X5014Y-13481D02*
D03*
X5010Y-13480D02*
D03*
Y-12467D02*
D03*
X3321Y-15788D02*
D03*
X3325Y-15788D02*
D03*
X3321Y-15788D02*
D03*
Y-14774D02*
D03*
X6439Y-15788D02*
D03*
X6443Y-15788D02*
D03*
X6439Y-15788D02*
D03*
Y-14266D02*
D03*
X5702Y-15788D02*
D03*
X5706Y-15788D02*
D03*
X5702Y-15788D02*
D03*
Y-14774D02*
D03*
Y-14266D02*
D03*
X5010Y-15788D02*
D03*
X5014Y-15788D02*
D03*
X5010Y-15788D02*
D03*
Y-14774D02*
D03*
X2629Y-13480D02*
D03*
X2633Y-13481D02*
D03*
X2629Y-13480D02*
D03*
Y-12467D02*
D03*
X1068Y-13480D02*
D03*
X1072Y-13481D02*
D03*
X1068Y-13480D02*
D03*
Y-12467D02*
D03*
X7188Y-13480D02*
D03*
X7192Y-13481D02*
D03*
X7188Y-13480D02*
D03*
Y-11959D02*
D03*
X2629Y-15788D02*
D03*
X2633Y-15788D02*
D03*
X2629Y-15788D02*
D03*
Y-14774D02*
D03*
X1849Y-15788D02*
D03*
X1853Y-15788D02*
D03*
X1849Y-15788D02*
D03*
Y-14774D02*
D03*
X1068Y-15788D02*
D03*
X1072Y-15788D02*
D03*
X1068Y-15788D02*
D03*
Y-14774D02*
D03*
X7188Y-15788D02*
D03*
X7192Y-15788D02*
D03*
X7188Y-15788D02*
D03*
Y-14266D02*
D03*
X3321Y-18096D02*
D03*
X3325Y-18096D02*
D03*
X3321Y-18096D02*
D03*
Y-17082D02*
D03*
X6439Y-18096D02*
D03*
X6443Y-18096D02*
D03*
X6439Y-18096D02*
D03*
Y-16574D02*
D03*
X5702Y-18096D02*
D03*
X5706Y-18096D02*
D03*
X5702Y-18096D02*
D03*
Y-17082D02*
D03*
X5010Y-18096D02*
D03*
X5014Y-18096D02*
D03*
X5010Y-18096D02*
D03*
Y-17082D02*
D03*
X2629Y-18096D02*
D03*
X2633Y-18096D02*
D03*
X2629Y-18096D02*
D03*
Y-17082D02*
D03*
X1849Y-18096D02*
D03*
X1853Y-18096D02*
D03*
X1849Y-18096D02*
D03*
Y-17082D02*
D03*
X1068Y-18096D02*
D03*
X1072Y-18096D02*
D03*
X1068Y-18096D02*
D03*
Y-17082D02*
D03*
X7188Y-18096D02*
D03*
X7192Y-18096D02*
D03*
X7188Y-18096D02*
D03*
Y-16574D02*
D03*
X9042Y-18096D02*
D03*
X9046Y-18096D02*
D03*
X9042Y-18096D02*
D03*
Y-16574D02*
D03*
X8282Y-18096D02*
D03*
X8286Y-18096D02*
D03*
X8282Y-18096D02*
D03*
X12916D02*
D03*
X12920Y-18096D02*
D03*
X12916Y-18096D02*
D03*
Y-16574D02*
D03*
X12224Y-18096D02*
D03*
X12228Y-18096D02*
D03*
X12224Y-18096D02*
D03*
X14402D02*
D03*
X14406Y-18096D02*
D03*
X14402Y-18096D02*
D03*
X13653D02*
D03*
X13657Y-18096D02*
D03*
X13653Y-18096D02*
D03*
X9042Y-15788D02*
D03*
X9046Y-15788D02*
D03*
X9042Y-15788D02*
D03*
X8282D02*
D03*
X8286Y-15788D02*
D03*
X8282Y-15788D02*
D03*
X12916D02*
D03*
X12920Y-15788D02*
D03*
X12916Y-15788D02*
D03*
Y-14774D02*
D03*
Y-14266D02*
D03*
X12224Y-15788D02*
D03*
X12228Y-15788D02*
D03*
X12224Y-15788D02*
D03*
Y-14774D02*
D03*
Y-14266D02*
D03*
X10534Y-15788D02*
D03*
X10538Y-15788D02*
D03*
X10534Y-15788D02*
D03*
Y-14774D02*
D03*
Y-14266D02*
D03*
X9818Y-15788D02*
D03*
X9822Y-15788D02*
D03*
X9818Y-15788D02*
D03*
Y-14774D02*
D03*
X14402Y-15788D02*
D03*
X14406Y-15788D02*
D03*
X14402Y-15788D02*
D03*
X13653D02*
D03*
X13657Y-15788D02*
D03*
X13653Y-15788D02*
D03*
X9042Y-13480D02*
D03*
X9046Y-13481D02*
D03*
X9042Y-13480D02*
D03*
X9046Y-12975D02*
D03*
X8282Y-13480D02*
D03*
X8286Y-13481D02*
D03*
X8282Y-13480D02*
D03*
X12916D02*
D03*
X12920Y-13481D02*
D03*
X12916Y-13480D02*
D03*
Y-12467D02*
D03*
Y-11959D02*
D03*
X12224Y-13480D02*
D03*
X12228Y-13481D02*
D03*
X12224Y-13480D02*
D03*
Y-12467D02*
D03*
Y-11959D02*
D03*
X10534Y-13480D02*
D03*
X10538Y-13481D02*
D03*
X10534Y-13480D02*
D03*
Y-12467D02*
D03*
X9818Y-13480D02*
D03*
X9822Y-13481D02*
D03*
X9818Y-13480D02*
D03*
Y-12467D02*
D03*
X14402Y-13480D02*
D03*
X14406Y-13481D02*
D03*
X14402Y-13480D02*
D03*
X13653D02*
D03*
X13657Y-13481D02*
D03*
X13653Y-13480D02*
D03*
X9042Y-11172D02*
D03*
X9046Y-11173D02*
D03*
X9042Y-11172D02*
D03*
X8282D02*
D03*
X8286Y-11173D02*
D03*
X8282Y-11172D02*
D03*
X12916D02*
D03*
X12920Y-11173D02*
D03*
X12916Y-11172D02*
D03*
Y-10159D02*
D03*
X12224Y-11172D02*
D03*
X12228Y-11173D02*
D03*
X12224Y-11172D02*
D03*
Y-10159D02*
D03*
X14402Y-8865D02*
D03*
X14406Y-8865D02*
D03*
X14402Y-8865D02*
D03*
Y-7343D02*
D03*
X9042Y-8865D02*
D03*
X9046Y-8865D02*
D03*
X9042Y-8865D02*
D03*
X8282D02*
D03*
X8286Y-8865D02*
D03*
X8282Y-8865D02*
D03*
X12224D02*
D03*
X12228Y-8865D02*
D03*
X12224Y-8865D02*
D03*
Y-7851D02*
D03*
X10534Y-11172D02*
D03*
X10538Y-11173D02*
D03*
X10534Y-11172D02*
D03*
Y-10159D02*
D03*
X9818Y-11172D02*
D03*
X9822Y-11173D02*
D03*
X9818Y-11172D02*
D03*
Y-10159D02*
D03*
X14402Y-11172D02*
D03*
X14406Y-11173D02*
D03*
X14402Y-11172D02*
D03*
Y-9651D02*
D03*
X13653Y-11172D02*
D03*
X13657Y-11173D02*
D03*
X13653Y-11172D02*
D03*
Y-9651D02*
D03*
X10534Y-8865D02*
D03*
X10538Y-8865D02*
D03*
X10534Y-8865D02*
D03*
Y-7851D02*
D03*
X9818Y-8865D02*
D03*
X9822Y-8865D02*
D03*
X9818Y-8865D02*
D03*
Y-7851D02*
D03*
X13653Y-8865D02*
D03*
X13657Y-8865D02*
D03*
X13653Y-8865D02*
D03*
Y-7343D02*
D03*
X12916Y-8865D02*
D03*
X12920Y-8865D02*
D03*
X12916Y-8865D02*
D03*
Y-7851D02*
D03*
X9042Y-6557D02*
D03*
X9046Y-6557D02*
D03*
X9042Y-6557D02*
D03*
X8282D02*
D03*
X8286Y-6557D02*
D03*
X8282Y-6557D02*
D03*
X12916Y-6602D02*
D03*
X12920Y-6602D02*
D03*
X12916Y-6602D02*
D03*
Y-5588D02*
D03*
X12224Y-6602D02*
D03*
X12228Y-6602D02*
D03*
X12224Y-6602D02*
D03*
Y-5588D02*
D03*
X9042Y-4249D02*
D03*
X9046Y-4250D02*
D03*
X9042Y-4249D02*
D03*
X8282D02*
D03*
X8286Y-4250D02*
D03*
X8282Y-4249D02*
D03*
X12916Y-4214D02*
D03*
X12920Y-4214D02*
D03*
X12916Y-4214D02*
D03*
Y-3200D02*
D03*
X12224Y-4214D02*
D03*
X12228Y-4214D02*
D03*
X12224Y-4214D02*
D03*
Y-3200D02*
D03*
X10534Y-6557D02*
D03*
X10538Y-6557D02*
D03*
X10534Y-6557D02*
D03*
Y-5543D02*
D03*
X9818Y-6557D02*
D03*
X9822Y-6557D02*
D03*
X9818Y-6557D02*
D03*
Y-5543D02*
D03*
X14402Y-6602D02*
D03*
X14406Y-6602D02*
D03*
X14402Y-6602D02*
D03*
Y-5080D02*
D03*
X13653Y-6602D02*
D03*
X13657Y-6602D02*
D03*
X13653Y-6602D02*
D03*
Y-5080D02*
D03*
X10534Y-4249D02*
D03*
X10538Y-4250D02*
D03*
X10534Y-4249D02*
D03*
Y-3236D02*
D03*
X9818Y-4249D02*
D03*
X9822Y-4250D02*
D03*
X9818Y-4249D02*
D03*
Y-3236D02*
D03*
X14402Y-4214D02*
D03*
X14406Y-4214D02*
D03*
X14402Y-4214D02*
D03*
Y-2692D02*
D03*
X13653Y-4214D02*
D03*
X13657Y-4214D02*
D03*
X13653Y-4214D02*
D03*
Y-2692D02*
D03*
X16334Y-4249D02*
D03*
X16338Y-4250D02*
D03*
X16334Y-4249D02*
D03*
Y-3236D02*
D03*
X15519Y-4249D02*
D03*
X15523Y-4250D02*
D03*
X15519Y-4249D02*
D03*
X20538D02*
D03*
X20542Y-4250D02*
D03*
X20538Y-4249D02*
D03*
Y-3236D02*
D03*
X19757Y-4249D02*
D03*
X19761Y-4250D02*
D03*
X19757Y-4249D02*
D03*
Y-3236D02*
D03*
X16334Y-6557D02*
D03*
X16338Y-6557D02*
D03*
X16334Y-6557D02*
D03*
X15519D02*
D03*
X15523Y-6557D02*
D03*
X15519Y-6557D02*
D03*
X20538D02*
D03*
X20542Y-6557D02*
D03*
X20538Y-6557D02*
D03*
Y-5543D02*
D03*
X19757Y-6557D02*
D03*
X19761Y-6557D02*
D03*
X19757Y-6557D02*
D03*
Y-5543D02*
D03*
X17883Y-4249D02*
D03*
X17888Y-4250D02*
D03*
X17883Y-4249D02*
D03*
Y-3236D02*
D03*
Y-2728D02*
D03*
X17102Y-4249D02*
D03*
X17107Y-4250D02*
D03*
X17102Y-4249D02*
D03*
Y-3236D02*
D03*
Y-2728D02*
D03*
X22087Y-4249D02*
D03*
X22091Y-4250D02*
D03*
X22087Y-4249D02*
D03*
Y-3236D02*
D03*
X21306Y-4249D02*
D03*
X21310Y-4250D02*
D03*
X21306Y-4249D02*
D03*
X17883Y-6557D02*
D03*
X17888Y-6557D02*
D03*
X17883Y-6557D02*
D03*
Y-5543D02*
D03*
Y-5035D02*
D03*
X17102Y-6557D02*
D03*
X17107Y-6557D02*
D03*
X17102Y-6557D02*
D03*
Y-5543D02*
D03*
Y-5035D02*
D03*
X22087Y-6557D02*
D03*
X22091Y-6557D02*
D03*
X22087Y-6557D02*
D03*
Y-5543D02*
D03*
X21306Y-6557D02*
D03*
X21310Y-6557D02*
D03*
X21306Y-6557D02*
D03*
X21310Y-6051D02*
D03*
X16334Y-8865D02*
D03*
X16338Y-8865D02*
D03*
X16334Y-8865D02*
D03*
X15519D02*
D03*
X15523Y-8865D02*
D03*
X15519Y-8865D02*
D03*
X20538Y-8862D02*
D03*
X20542Y-8863D02*
D03*
X20538Y-8862D02*
D03*
Y-7849D02*
D03*
X19757Y-8862D02*
D03*
X19761Y-8863D02*
D03*
X19757Y-8862D02*
D03*
Y-7849D02*
D03*
X17883Y-8865D02*
D03*
X17888Y-8865D02*
D03*
X17883Y-8865D02*
D03*
Y-7851D02*
D03*
Y-7343D02*
D03*
X17102Y-8865D02*
D03*
X17107Y-8865D02*
D03*
X17102Y-8865D02*
D03*
Y-7851D02*
D03*
Y-7343D02*
D03*
X22087Y-8862D02*
D03*
X22091Y-8863D02*
D03*
X22087Y-8862D02*
D03*
Y-7849D02*
D03*
X21306Y-8862D02*
D03*
X21310Y-8863D02*
D03*
X21306Y-8862D02*
D03*
X16334Y-11172D02*
D03*
X16338Y-11173D02*
D03*
X16334Y-11172D02*
D03*
X15519D02*
D03*
X15523Y-11173D02*
D03*
X15519Y-11172D02*
D03*
X19757D02*
D03*
X19761Y-11173D02*
D03*
X19757Y-11172D02*
D03*
Y-10159D02*
D03*
X17883Y-11172D02*
D03*
X17888Y-11173D02*
D03*
X17883Y-11172D02*
D03*
Y-10159D02*
D03*
Y-9651D02*
D03*
X17102Y-11172D02*
D03*
X17107Y-11173D02*
D03*
X17102Y-11172D02*
D03*
Y-10159D02*
D03*
Y-9651D02*
D03*
X22087Y-11172D02*
D03*
X22091Y-11173D02*
D03*
X22087Y-11172D02*
D03*
Y-10159D02*
D03*
X21306Y-11172D02*
D03*
X21310Y-11173D02*
D03*
X21306Y-11172D02*
D03*
X16334Y-13480D02*
D03*
X16338Y-13481D02*
D03*
X16334Y-13480D02*
D03*
X15519D02*
D03*
X15523Y-13481D02*
D03*
X15519Y-13480D02*
D03*
X20538D02*
D03*
X20542Y-13481D02*
D03*
X20538Y-13480D02*
D03*
Y-12467D02*
D03*
X19757Y-13480D02*
D03*
X19761Y-13481D02*
D03*
X19757Y-13480D02*
D03*
Y-12467D02*
D03*
X17883Y-13480D02*
D03*
X17888Y-13481D02*
D03*
X17883Y-13480D02*
D03*
Y-12467D02*
D03*
Y-11959D02*
D03*
X17102Y-13480D02*
D03*
X17107Y-13481D02*
D03*
X17102Y-13480D02*
D03*
Y-12467D02*
D03*
Y-11959D02*
D03*
X22087Y-13480D02*
D03*
X22091Y-13481D02*
D03*
X22087Y-13480D02*
D03*
Y-12467D02*
D03*
X21306Y-13480D02*
D03*
X21310Y-13481D02*
D03*
X21306Y-13480D02*
D03*
X16334Y-15788D02*
D03*
X16338Y-15788D02*
D03*
X16334Y-15788D02*
D03*
X15519D02*
D03*
X15523Y-15788D02*
D03*
X15519Y-15788D02*
D03*
X20538D02*
D03*
X20542Y-15788D02*
D03*
X20538Y-15788D02*
D03*
Y-14774D02*
D03*
X19757Y-15788D02*
D03*
X19761Y-15788D02*
D03*
X19757Y-15788D02*
D03*
Y-14774D02*
D03*
X17883Y-15788D02*
D03*
X17888Y-15788D02*
D03*
X17883Y-15788D02*
D03*
Y-14774D02*
D03*
Y-14266D02*
D03*
X17102Y-15788D02*
D03*
X17107Y-15788D02*
D03*
X17102Y-15788D02*
D03*
Y-14774D02*
D03*
Y-14266D02*
D03*
X22087Y-15788D02*
D03*
X22091Y-15788D02*
D03*
X22087Y-15788D02*
D03*
Y-14774D02*
D03*
X21306Y-15788D02*
D03*
X21310Y-15788D02*
D03*
X21306Y-15788D02*
D03*
X16334Y-18096D02*
D03*
X16338Y-18096D02*
D03*
X16334Y-18096D02*
D03*
X15519D02*
D03*
X15523Y-18096D02*
D03*
X15519Y-18096D02*
D03*
Y-16574D02*
D03*
X20538Y-18096D02*
D03*
X20542Y-18096D02*
D03*
X20538Y-18096D02*
D03*
Y-17082D02*
D03*
X17102Y-18096D02*
D03*
X17107Y-18096D02*
D03*
X17102Y-18096D02*
D03*
Y-17082D02*
D03*
X22087Y-18096D02*
D03*
X22091Y-18096D02*
D03*
X22087Y-18096D02*
D03*
Y-17082D02*
D03*
X21306Y-18096D02*
D03*
X21310Y-18096D02*
D03*
X21306Y-18096D02*
D03*
X19757D02*
D03*
X19761Y-18096D02*
D03*
X19757Y-18096D02*
D03*
Y-17082D02*
D03*
X17883Y-18096D02*
D03*
X17888Y-18096D02*
D03*
X17883Y-18096D02*
D03*
Y-17082D02*
D03*
Y-16574D02*
D03*
X20538Y-11172D02*
D03*
X20542Y-11173D02*
D03*
X20538Y-11172D02*
D03*
Y-10159D02*
D03*
X10534Y-18096D02*
D03*
X10538Y-18096D02*
D03*
X10534Y-18096D02*
D03*
Y-17082D02*
D03*
D14*
X17627Y-18896D02*
D03*
X17881D02*
D03*
D15*
X6995Y-19268D02*
D03*
X14615D02*
D03*
X6741D02*
D03*
X14110Y-18999D02*
D03*
X13856D02*
D03*
X13094D02*
D03*
X12840D02*
D03*
X12078D02*
D03*
X11570D02*
D03*
X11316D02*
D03*
X10554D02*
D03*
X10300D02*
D03*
X9538D02*
D03*
X9284D02*
D03*
X8776D02*
D03*
X8522D02*
D03*
X8268D02*
D03*
X7760D02*
D03*
X7506D02*
D03*
X7252D02*
D03*
X6998D02*
D03*
X6744D02*
D03*
X14361Y-18740D02*
D03*
X14107D02*
D03*
X13345D02*
D03*
X13091D02*
D03*
X12329D02*
D03*
X12075D02*
D03*
X11821D02*
D03*
X11567D02*
D03*
X10805D02*
D03*
X10551D02*
D03*
X9789D02*
D03*
X9281D02*
D03*
X9027D02*
D03*
X8773D02*
D03*
X8519D02*
D03*
X8011D02*
D03*
X7757D02*
D03*
X7503D02*
D03*
X6995D02*
D03*
X6741D02*
D03*
D16*
X9779Y-14603D02*
D03*
X10363Y-17829D02*
D03*
X9982Y-17654D02*
D03*
X20218Y-3478D02*
D03*
X20193Y-3453D02*
D03*
X7721Y-836D02*
D03*
X13599Y-18464D02*
D03*
X10947Y-12368D02*
D03*
X10748Y-12550D02*
D03*
X4165Y-12343D02*
D03*
X19177Y-9777D02*
D03*
X9027Y-18464D02*
D03*
X19177Y-557D02*
D03*
X20269Y-1040D02*
D03*
X19278Y-10082D02*
D03*
X4165Y-3284D02*
D03*
X20127Y-3915D02*
D03*
X19710Y-6272D02*
D03*
X19177Y-11880D02*
D03*
X20040Y-3851D02*
D03*
Y-5119D02*
D03*
X10043Y-18464D02*
D03*
X17368Y-14946D02*
D03*
X18067Y-14832D02*
D03*
X19103Y-18007D02*
D03*
X20127Y-7692D02*
D03*
X18415Y-16542D02*
D03*
X18285Y-14438D02*
D03*
X12837Y-18464D02*
D03*
X18255Y-6478D02*
D03*
X19258Y-3008D02*
D03*
X9819Y-18378D02*
D03*
X19159Y-5111D02*
D03*
X12700Y-1979D02*
D03*
Y-1522D02*
D03*
X18847Y-7961D02*
D03*
X19278Y-10082D02*
D03*
X11328Y-14806D02*
D03*
X4165Y-1090D02*
D03*
X4191Y-10031D02*
D03*
X10297Y-18464D02*
D03*
X11100D02*
D03*
X11313D02*
D03*
X11821D02*
D03*
X12329D02*
D03*
X12583D02*
D03*
X13868Y-18489D02*
D03*
X4140Y-5535D02*
D03*
X7721Y-836D02*
D03*
M02*
