M48
;Layer_Color=9474304
;FILE_FORMAT=4:2
METRIC,LZ
;TYPE=PLATED
T1F00S00C0.30
T3F00S00C0.85
T4F00S00C3.20
;TYPE=NON_PLATED
T5F00S00C1.10
%
T01
X017907Y-018642
X018262Y-017372
X017602Y-017169
X017792Y-016775
X018415Y-016542
X019202Y-016508
X019223Y-016605
X019253Y-016986
X019304Y-017372
X019465Y-017296
X019103Y-018007
X017272Y-017524
X014859Y-017499
X014808Y-016559
X015291Y-018247
X014107Y-018464
X013868Y-018489
X013599Y-018464
X013345
X013091
X012837
X012583
X012329
X014705Y-019152
X012075Y-018464
X011821
X011567
X011313
X0111
X010805
X010541Y-018474
X010297Y-018464
X010043
X009819Y-018378
X009535Y-018464
X009245
X009027
X008773
X008519
X008265
X009982Y-017654
X010363Y-017829
X010795Y-017524
X010995Y-017486
X010744Y-017194
X011572Y-016978
X011887Y-017143
X011862Y-017423
X011709Y-016584
X011536Y-016262
X007518Y-017219
X006497Y-017296
X0048Y-017016
X004496Y-016559
X004287Y-017397
X007747Y-018413
X008001
X004148Y-017842
X003657Y-017499
X004127Y-016978
X004191Y-016457
X00389Y-015539
X00366Y-015331
X003734Y-01506
X004191Y-014696
Y-014197
X004115Y-0128
X004165Y-012343
X003581Y-012876
X00348Y-0128
X003698Y-013003
X004673Y-012901
X004775Y-012673
X004597Y-012495
X004579Y-012018
X00544Y-012089
X005461Y-012546
X004303Y-013796
X004496Y-014298
X004597Y-014933
X004775Y-01501
X004699Y-015619
X0043Y-015594
X009779Y-014603
X01082Y-014823
X010887
X010973Y-015077
X011328Y-014806
X011883Y-014878
X011653Y-014083
X011841Y-013004
X011887Y-012724
X01176Y-012444
X010947Y-012368
X010748Y-01255
X010934Y-013221
X010338Y-013003
X011125Y-015855
X017368Y-014946
X018067Y-014832
X018212Y-014984
X018344Y-015088
X018285Y-014438
X019151Y-014273
X019248Y-014671
X019304Y-014832
X019583Y-015568
X019329Y-012749
X019304Y-012571
X019253Y-012368
X018847Y-012343
X018847Y-012815
X018313Y-012825
X018339Y-012735
X01811Y-012317
X019159Y-011992
X017272Y-012978
X017805Y-010895
X018339Y-010628
X01811Y-010285
X018796Y-010107
X018872Y-010082
X019278
X019278
X019291Y-010247
X019405Y-01059
X018915Y-010458
X019177Y-009777
X018923Y-008421
X019355Y-008342
X018847Y-007961
X018328Y-008279
X018059Y-008304
X017888Y-008012
X017297Y-008435
X019177Y-01188
X012522Y-008482
X012544Y-007978
X011963Y-008253
X011912Y-008482
X01209Y-008583
X010945Y-008274
X010719Y-008355
X01049Y-008152
X010947Y-010082
X010828Y-010575
X010719Y-010793
X011293Y-01092
X011933Y-010836
X011986Y-01031
X011836Y-010107
X011813Y-009877
X011735Y-009709
X011747Y-011692
X005207Y-010717
X004699Y-01026
X004724Y-010082
X004597Y-009066
X004267
X004851Y-008533
X004775Y-008202
X004648Y-008075
X0043Y-010976
X004089Y-010844
X003683Y-010692
X003525Y-01069
X003735Y-010512
X004191Y-010031
X004165Y-00965
X004079Y-008584
X003756Y-008205
X00353Y-007847
X004115Y-007801
Y-00739
X004079Y-006309
X00353Y-00612
X003688Y-005947
X003607Y-005815
X00414Y-005535
X00447Y-00518
X004673Y-005816
X004825Y-00622
X005105Y-006221
X005181Y-00744
X004826Y-007745
X004521Y-007466
X011328Y-00772
X011303Y-007898
X011735Y-007501
X011938Y-007595
X01187Y-005947
X011841Y-005734
X011823Y-00551
X011328Y-005434
X010719Y-005688
X010807Y-005942
X010973Y-006069
X010236Y-005866
X010363Y-005307
X01049Y-004519
X010338Y-004189
X012357Y-005312
X012446Y-006247
X012428Y-006696
X016434Y-005891
X017246Y-006348
X018085Y-006069
X018364Y-005962
X018415Y-005637
X018821Y-005612
X018933Y-006202
X018735Y-006584
X018255Y-006478
X01778Y-005688
X019159Y-005111
X02004Y-005119
X019697Y-005828
X01971Y-006272
X020127Y-007692
X019278Y-007796
X019304Y-007948
X018847Y-007745
X018085Y-007771
X016764Y-007618
X020218Y-003478
X020193Y-003453
X020269Y-00104
X019272Y-00102
X019249Y-001188
X019269Y-001344
X018941Y-001395
X018821Y-001268
X018745Y-000989
X018326Y-001294
X01811Y-000735
X017297Y-000811
Y-001032
Y-001471
X018085Y-003148
X018206Y-003707
X01844Y-003643
X018872Y-003326
X019258Y-003008
X019358Y-003643
X019278Y-003732
X019964
X02004Y-003851
X020127Y-003915
X019482Y-002411
X019532Y-002233
X019177Y-000557
X015062Y-000735
X014839Y-000303
X012674Y-001014
X01242Y-001116
X012573Y-001649
X012547Y-001751
X0127Y-001979
Y-001522
X012245Y-002434
X012024Y-00274
X011938Y-003326
X011845Y-003411
X011328Y-003376
X010922Y-003411
X010693Y-003834
X011303Y-003854
X01204Y-003867
X009982Y-003605
X010033Y-003351
X010981Y-001484
X010973Y-00137
X010922Y-001268
X011356Y-001294
X011328Y-00104
X010947Y-000659
X012099Y-001133
X007721Y-000836
X007721Y-000836
X007747Y-000151
X005486Y-001573
X004595Y-001383
X004699Y-001129
X00447Y-002919
X004656Y-003437
X004877Y-003427
X004715Y-003665
X004165Y-003284
X003759Y-003402
X003607Y-003681
X003708Y-003859
Y-001522
X003695Y-001129
X003632Y-000887
X003522Y-001294
X004165Y-00109
X003607Y-000228
T03
X020538Y-018096
X020542Y-018096
Y-01759
X020538Y-017082
Y-016574
X021306
Y-017082
X02131Y-01759
Y-018096
X021306Y-018096
X022087
X022091Y-018096
Y-01759
X022087Y-017082
Y-016574
X019757
Y-017082
X019761Y-01759
Y-018096
X019757Y-018096
X017888Y-018096
X017883Y-018096
X017888Y-01759
X017883Y-017082
Y-016574
X017102
Y-017082
X017107Y-01759
Y-018096
X017102Y-018096
X016338Y-018096
X016334Y-018096
X016338Y-01759
X016334Y-017082
Y-016574
X015519
Y-017082
X015523Y-01759
Y-018096
X015519Y-018096
X014406Y-018096
X014402Y-018096
X014406Y-01759
X014402Y-017082
Y-016574
X013653
Y-017082
X013657Y-01759
Y-018096
X013653Y-018096
X01292Y-018096
X012916Y-018096
X01292Y-01759
X012916Y-017082
Y-016574
X012224
Y-017082
X012228Y-01759
Y-018096
X012224Y-018096
X010538Y-018096
X010534Y-018096
X010538Y-01759
X010534Y-017082
Y-016574
X009818
Y-017082
X009822Y-01759
Y-018096
X009818Y-018096
X009046Y-018096
X009042Y-018096
X009046Y-01759
X009042Y-017082
Y-016574
X008282
Y-017082
X008286Y-01759
Y-018096
X008282Y-018096
X007192Y-018096
X007188Y-018096
X007192Y-01759
X007188Y-017082
Y-016574
X006439
Y-017082
X006443Y-01759
Y-018096
X006439Y-018096
X005706Y-018096
X005702Y-018096
X005706Y-01759
X005702Y-017082
Y-016574
X00501
Y-017082
X005014Y-01759
Y-018096
X00501Y-018096
X003325Y-018096
X003321Y-018096
X003325Y-01759
X003321Y-017082
Y-016574
X002629
Y-017082
X002633Y-01759
Y-018096
X002629Y-018096
X001853Y-018096
X001849Y-018096
X001853Y-01759
X001849Y-017082
Y-016574
X001068
Y-017082
X001072Y-01759
Y-018096
X001068Y-018096
Y-015788
X001072Y-015788
Y-015282
X001068Y-014774
Y-014266
X001849
Y-014774
X001853Y-015282
Y-015788
X001849Y-015788
X002629
X002633Y-015788
Y-015282
X002629Y-014774
Y-014266
X003321
Y-014774
X003325Y-015282
Y-015788
X003321Y-015788
Y-01348
X003325Y-013481
Y-012975
X003321Y-012467
Y-011959
X002629
Y-012467
X002633Y-012975
Y-013481
X002629Y-01348
X001853Y-013481
X001849Y-01348
X001853Y-012975
X001849Y-012467
Y-011959
X001068
Y-012467
X001072Y-012975
Y-013481
X001068Y-01348
X00501
X005014Y-013481
Y-012975
X00501Y-012467
Y-011959
X005702
Y-012467
X005706Y-012975
Y-013481
X005702Y-01348
X006439
X006443Y-013481
Y-012975
X006439Y-012467
Y-011959
X007188
Y-012467
X007192Y-012975
Y-013481
X007188Y-01348
X007188Y-014266
Y-014774
X007192Y-015282
Y-015788
X007188Y-015788
X006443Y-015788
X006439Y-015788
X006443Y-015282
X006439Y-014774
Y-014266
X005702
Y-014774
X005706Y-015282
Y-015788
X005702Y-015788
X005014Y-015788
X00501Y-015788
X005014Y-015282
X00501Y-014774
Y-014266
X008282
Y-014774
X008286Y-015282
Y-015788
X008282Y-015788
X009042
X009046Y-015788
Y-015282
X009042Y-014774
Y-014266
X009818
Y-014774
X009822Y-015282
Y-015788
X009818Y-015788
X010534
X010538Y-015788
Y-015282
X010534Y-014774
Y-014266
Y-01348
X010538Y-013481
Y-012975
X010534Y-012467
Y-011959
X009818
Y-012467
X009822Y-012975
Y-013481
X009818Y-01348
X009046Y-013481
X009042Y-01348
X009046Y-012975
X009042Y-012467
Y-011959
X008282
Y-012467
X008286Y-012975
Y-013481
X008282Y-01348
X012224
X012228Y-013481
Y-012975
X012224Y-012467
Y-011959
X012916
Y-012467
X01292Y-012975
Y-013481
X012916Y-01348
X013653
X013657Y-013481
Y-012975
X013653Y-012467
Y-011959
X014402
Y-012467
X014406Y-012975
Y-013481
X014402Y-01348
Y-014266
Y-014774
X014406Y-015282
Y-015788
X014402Y-015788
X013657Y-015788
X013653Y-015788
X013657Y-015282
X013653Y-014774
Y-014266
X012916
Y-014774
X01292Y-015282
Y-015788
X012916Y-015788
X012228Y-015788
X012224Y-015788
X012228Y-015282
X012224Y-014774
Y-014266
X015519
Y-014774
X015523Y-015282
Y-015788
X015519Y-015788
Y-01348
X015523Y-013481
Y-012975
X015519Y-012467
Y-011959
X016334
Y-012467
X016338Y-012975
Y-013481
X016334Y-01348
X017102
X017107Y-013481
Y-012975
X017102Y-012467
Y-011959
X017883
Y-012467
X017888Y-012975
Y-013481
X017883Y-01348
Y-014266
Y-014774
X017888Y-015282
Y-015788
X017883Y-015788
X017107Y-015788
X017102Y-015788
X017107Y-015282
X017102Y-014774
Y-014266
X016334
Y-014774
X016338Y-015282
Y-015788
X016334Y-015788
X019757
X019761Y-015788
Y-015282
X019757Y-014774
Y-014266
Y-01348
X019761Y-013481
Y-012975
X019757Y-012467
Y-011959
X020538
Y-012467
X020542Y-012975
Y-013481
X020538Y-01348
X021306
X02131Y-013481
Y-012975
X021306Y-012467
Y-011959
X022087
Y-012467
X022091Y-012975
Y-013481
X022087Y-01348
Y-014266
Y-014774
X022091Y-015282
Y-015788
X022087Y-015788
X02131Y-015788
X021306Y-015788
X02131Y-015282
X021306Y-014774
Y-014266
X020538
Y-014774
X020542Y-015282
Y-015788
X020538Y-015788
Y-011172
X020542Y-011173
Y-010667
X020538Y-010159
Y-009651
X021306
Y-010159
X02131Y-010667
Y-011173
X021306Y-011172
X022087
X022091Y-011173
Y-010667
X022087Y-010159
Y-009651
Y-008862
X022091Y-008863
Y-008357
X02131
Y-008863
X021306Y-008862
X020542Y-008863
X020538Y-008862
X020542Y-008357
X019761
Y-008863
X019757Y-008862
Y-009651
Y-010159
X019761Y-010667
Y-011173
X019757Y-011172
X017888Y-011173
X017883Y-011172
X017888Y-010667
X017883Y-010159
Y-009651
X017102
Y-010159
X017107Y-010667
Y-011173
X017102Y-011172
X016338Y-011173
X016334Y-011172
X016338Y-010667
X016334Y-010159
Y-009651
Y-008865
X016338Y-008865
Y-008359
X017107
Y-008865
X017102Y-008865
X017883
X017888Y-008865
Y-008359
X015523
Y-008865
X015519Y-008865
Y-009651
Y-010159
X015523Y-010667
Y-011173
X015519Y-011172
X014406Y-011173
X014402Y-011172
X014406Y-010667
X014402Y-010159
Y-009651
X013653
Y-010159
X013657Y-010667
Y-011173
X013653Y-011172
X01292Y-011173
X012916Y-011172
X01292Y-010667
X012916Y-010159
Y-009651
X012224
Y-010159
X012228Y-010667
Y-011173
X012224Y-011172
Y-008865
X012228Y-008865
Y-008359
X01292
Y-008865
X012916Y-008865
X013653
X013657Y-008865
Y-008359
X014406
Y-008865
X014402Y-008865
X010538Y-008865
X010534Y-008865
X010538Y-008359
X009822
Y-008865
X009818Y-008865
X009046Y-008865
X009042Y-008865
X009046Y-008359
X008286
Y-008865
X008282Y-008865
X008282Y-009651
Y-010159
X008286Y-010667
Y-011173
X008282Y-011172
X009042
X009046Y-011173
Y-010667
X009042Y-010159
Y-009651
X009818
Y-010159
X009822Y-010667
Y-011173
X009818Y-011172
X010534
X010538Y-011173
Y-010667
X010534Y-010159
Y-009651
X007188
Y-010159
X007192Y-010667
Y-011173
X007188Y-011172
X006443Y-011173
X006439Y-011172
X006443Y-010667
X006439Y-010159
Y-009651
X005702
Y-010159
X005706Y-010667
Y-011173
X005702Y-011172
X005014Y-011173
X00501Y-011172
X005014Y-010667
X00501Y-010159
Y-009651
Y-008865
X005014Y-008865
Y-008359
X005706
Y-008865
X005702Y-008865
X006439
X006443Y-008865
Y-008359
X007192
Y-008865
X007188Y-008865
X003325Y-008865
X003321Y-008865
X003325Y-008359
X002633
Y-008865
X002629Y-008865
X001853Y-008865
X001849Y-008865
X001853Y-008359
X001072
Y-008865
X001068Y-008865
Y-009651
Y-010159
X001072Y-010667
Y-011173
X001068Y-011172
X001849
X001853Y-011173
Y-010667
X001849Y-010159
Y-009651
X002629
Y-010159
X002633Y-010667
Y-011173
X002629Y-011172
X003321
X003325Y-011173
Y-010667
X003321Y-010159
Y-009651
Y-007851
Y-007343
X002629
Y-007851
X001849
Y-007343
X001068
Y-007851
Y-006557
X001072Y-006557
Y-006051
X001068Y-005543
Y-005035
X001849
Y-005543
X001853Y-006051
Y-006557
X001849Y-006557
X002629
X002633Y-006557
Y-006051
X002629Y-005543
Y-005035
X003321
Y-005543
X003325Y-006051
Y-006557
X003321Y-006557
Y-004249
X003325Y-00425
X002633
X002629Y-004249
X001858Y-004253
X001854Y-004253
X001071Y-004253
X001067Y-004253
X00501Y-004249
X005014Y-00425
X005702Y-004249
X005706Y-00425
X006477Y-004253
X006481Y-004253
X007213Y-004253
X007217Y-004253
X007188Y-005035
Y-005543
X007192Y-006051
Y-006557
X007188Y-006557
X006443Y-006557
X006439Y-006557
X006443Y-006051
X006439Y-005543
Y-005035
X005702
Y-005543
X005706Y-006051
Y-006557
X005702Y-006557
X005014Y-006557
X00501Y-006557
X005014Y-006051
X00501Y-005543
Y-005035
Y-007343
Y-007851
X005702
Y-007343
X006439
Y-007851
X007188
Y-007343
X008282
Y-007851
X009042
Y-007343
X009818
Y-007851
X010534
Y-007343
Y-006557
X010538Y-006557
Y-006051
X010534Y-005543
Y-005035
X009818
Y-005543
X009822Y-006051
Y-006557
X009818Y-006557
X009046Y-006557
X009042Y-006557
X009046Y-006051
X009042Y-005543
Y-005035
X008282
Y-005543
X008286Y-006051
Y-006557
X008282Y-006557
X008282Y-004249
X008286Y-00425
X009042Y-004249
X009046Y-00425
X009818Y-004249
X009822Y-00425
X010534Y-004249
X010538Y-00425
X012224Y-004214
X012228Y-004214
X012916Y-004214
X01292Y-004214
X013653Y-004214
X013657Y-004214
X014402Y-004214
X014406Y-004214
X014402Y-00508
Y-005588
X014406Y-006096
Y-006602
X014402Y-006602
X014402Y-007343
Y-007851
X013653
Y-007343
X012916
Y-007851
X012224
Y-007343
Y-006602
X012228Y-006602
Y-006096
X012224Y-005588
Y-00508
X012916
Y-005588
X01292Y-006096
Y-006602
X012916Y-006602
X013653
X013657Y-006602
Y-006096
X013653Y-005588
Y-00508
X015519Y-005035
Y-005543
X015523Y-006051
Y-006557
X015519Y-006557
Y-007343
Y-007851
Y-004249
X015523Y-00425
X016334Y-004249
X016338Y-00425
X017102Y-004249
X017107Y-00425
X017883Y-004249
X017888Y-00425
X017883Y-005035
Y-005543
X017888Y-006051
Y-006557
X017883Y-006557
X017107Y-006557
X017102Y-006557
X017107Y-006051
X017102Y-005543
Y-005035
X016334
Y-005543
X016338Y-006051
Y-006557
X016334Y-006557
Y-007343
Y-007851
X017102
Y-007343
X017883
Y-007851
X019757Y-007849
Y-007341
Y-006557
X019761Y-006557
Y-006051
X019757Y-005543
Y-005035
Y-004249
X019761Y-00425
X020538Y-004249
X020542Y-00425
X021306Y-004249
X02131Y-00425
X022087Y-004249
X022091Y-00425
X022087Y-005035
Y-005543
X022091Y-006051
Y-006557
X022087Y-006557
X02131Y-006557
X021306Y-006557
X02131Y-006051
X021306Y-005543
Y-005035
X020538
Y-005543
X020542Y-006051
Y-006557
X020538Y-006557
Y-007341
Y-007849
X021306
Y-007341
X022087
Y-007849
X022091Y-003744
X022087Y-003236
Y-002728
X021306
Y-003236
X02131Y-003744
X020542
X020538Y-003236
Y-002728
Y-001941
X020542Y-001942
Y-001436
X020538Y-000928
Y-00042
X021306
Y-000928
X02131Y-001436
Y-001942
X021306Y-001941
X022087
X022091Y-001942
Y-001436
X022087Y-000928
Y-00042
X019757
Y-000928
X019761Y-001436
Y-001942
X019757Y-001941
X019757Y-002728
Y-003236
X019761Y-003744
X017888
X017883Y-003236
Y-002728
X017102
Y-003236
X017107Y-003744
X016338
X016334Y-003236
Y-002728
X016334Y-001941
X016338Y-001942
Y-001436
X016334Y-000928
Y-00042
X017102
Y-000928
X017107Y-001436
Y-001942
X017102Y-001941
X017883
X017888Y-001942
Y-001436
X017883Y-000928
Y-00042
X015519
Y-000928
X015523Y-001436
Y-001942
X015519Y-001941
X015519Y-002728
Y-003236
X015523Y-003744
X014406Y-003708
X014402Y-0032
Y-002692
X013653
Y-0032
X013657Y-003708
X01292
X012916Y-0032
Y-002692
X012224
Y-0032
X012228Y-003708
Y-001942
X012224Y-001941
X012228Y-001436
X012224Y-000928
Y-00042
X012916
Y-000928
X01292Y-001436
Y-001942
X012916Y-001941
X013653
X013657Y-001942
Y-001436
X013653Y-000928
Y-00042
X014402
Y-000928
X014406Y-001436
Y-001942
X014402Y-001941
X010538Y-001942
X010534Y-001941
X010538Y-001436
X010534Y-000928
Y-00042
X009818
Y-000928
X009822Y-001436
Y-001942
X009818Y-001941
X009046Y-001942
X009042Y-001941
X009046Y-001436
X009042Y-000928
Y-00042
X008282
Y-000928
X008286Y-001436
Y-001942
X008282Y-001941
X008282Y-002728
Y-003236
X008286Y-003744
X009046
X009042Y-003236
Y-002728
X009818
Y-003236
X009822Y-003744
X010538
X010534Y-003236
Y-002728
X007213Y-002731
Y-003239
X007217Y-003747
X006481
X006477Y-003239
Y-002731
X005702Y-002728
Y-003236
X005706Y-003744
X005014
X00501Y-003236
Y-002728
Y-001941
X005014Y-001942
Y-001436
X00501Y-000928
Y-00042
X005702
Y-000928
X005706Y-001436
Y-001942
X005702Y-001941
X006439
X006443Y-001942
Y-001436
X006439Y-000928
Y-00042
X007188
Y-000928
X007192Y-001436
Y-001942
X007188Y-001941
X003325Y-001942
X003321Y-001941
X003325Y-001436
X003321Y-000928
Y-00042
X002629
Y-000928
X002633Y-001436
Y-001942
X002629Y-001941
X001853Y-001942
X001849Y-001941
X001853Y-001436
X001849Y-000928
Y-00042
X001068
Y-000928
X001072Y-001436
Y-001942
X001068Y-001941
X001067Y-002731
Y-003239
X001071Y-003747
X001858
X001854Y-003239
Y-002731
X002629Y-002728
Y-003236
X002633Y-003744
X003325
X003321Y-003236
Y-002728
T04
X02299Y-01882
X015128Y-019524
X006228
X00049Y-01882
X02299Y-00082
X00049
T05
X012329Y-019268
X012583
X012837
X013091
X013345
X013599
X013853
X014107
X014361
X014615
X014618Y-018989
X014615Y-01874
X014361
X014107
X013853
X013599
X013345
X013091
X012837
X012583
X012329
X012332Y-018999
X012586
X01284
X013094
X013348
X013602
X013856
X01411
X014364
X012078
X011824
X01157
X011316
X011062
X010808
X010554
X0103
X010046
X009792
X009538
X009284
X00903
X008776
X008522
X008268
X008265Y-01874
X008519
X008773
X009027
X009281
X009535
X009789
X010043
X010297
X010551
X010805
X011059
X011313
X011567
X011821
X012075
Y-019268
X011821
X011567
X011313
X011059
X010805
X010551
X010297
X010043
X009789
X009535
X009281
X009027
X008773
X008519
X008265
X008011
X007757
X007503
X007249
X006995
X006741
X006744Y-018999
X006998
X007252
X007506
X00776
X008014
X008011Y-01874
X007757
X007503
X007249
X006995
X006741
M30
