%FSLAX42Y42*%
%MOMM*%
G71*
G01*
G75*
G04 Layer_Physical_Order=2*
G04 Layer_Color=6736896*
%ADD10R,1.85X0.60*%
%ADD11C,0.30*%
G04:AMPARAMS|DCode=12|XSize=2mm|YSize=1.52mm|CornerRadius=0.61mm|HoleSize=0mm|Usage=FLASHONLY|Rotation=90.000|XOffset=0mm|YOffset=0mm|HoleType=Round|Shape=RoundedRectangle|*
%AMROUNDEDRECTD12*
21,1,2.00,0.30,0,0,90.0*
21,1,0.78,1.52,0,0,90.0*
1,1,1.22,0.15,0.39*
1,1,1.22,0.15,-0.39*
1,1,1.22,-0.15,-0.39*
1,1,1.22,-0.15,0.39*
%
%ADD12ROUNDEDRECTD12*%
%ADD13C,3.00*%
%ADD14R,1.30X1.30*%
%ADD15C,1.30*%
%ADD16C,0.60*%
%ADD17C,0.70*%
D11*
X10534Y-2043D02*
Y-1941D01*
X12224Y-11197D02*
Y-11172D01*
Y-11197D02*
X12228D01*
X12224Y-13503D02*
Y-13480D01*
Y-13503D02*
X12228D01*
X12224Y-15788D02*
X12228D01*
X12920D01*
X12224D02*
Y-15788D01*
Y-15812D02*
X12228D01*
X12224D02*
Y-15788D01*
Y-18121D02*
Y-18096D01*
Y-18121D02*
X12228D01*
X8347Y-13566D02*
Y-13461D01*
X4120Y-11149D02*
X5010D01*
X3325Y-11173D02*
Y-11118D01*
X4089D01*
X3919Y-13481D02*
X5010D01*
X5010Y-15812D02*
Y-15788D01*
X4851Y-15812D02*
X5010D01*
X3383Y-15850D02*
X3384Y-15848D01*
X3325Y-15845D02*
X3341D01*
X3325Y-18004D02*
X3533D01*
X3325Y-18096D02*
Y-18004D01*
X8286Y-1351D02*
X8323D01*
X12916Y-445D02*
X13653D01*
X21306Y-1941D02*
X21428Y-2063D01*
X22087Y-4273D02*
Y-4249D01*
X21310Y-4273D02*
X22087D01*
X17883Y-4250D02*
X17884D01*
X17107Y-4250D02*
X17883D01*
Y-4250D01*
X22087Y-6582D02*
Y-6557D01*
X21310Y-6582D02*
X22087D01*
X22098Y-9457D02*
Y-8605D01*
X17350Y-6498D02*
X17883D01*
Y-8865D02*
X17884D01*
X17883D02*
Y-8865D01*
Y-8888D02*
Y-8865D01*
X17107Y-8888D02*
X17883D01*
X16961Y-1796D02*
X17107Y-1942D01*
X17883Y-4250D02*
Y-4249D01*
X14402Y-1941D02*
X14523Y-2063D01*
X14402Y-1941D02*
X15315D01*
X13653D02*
X14402D01*
X14402Y-4227D02*
Y-4214D01*
X14038Y-4227D02*
X14402D01*
X13657Y-4238D02*
X14028D01*
X17107Y-6483D02*
X17335D01*
X17107Y-11060D02*
X17883D01*
X17107Y-6557D02*
Y-6483D01*
X14284Y-6481D02*
X14405Y-6602D01*
X14402Y-6602D02*
X14406D01*
X14402D02*
Y-6602D01*
Y-6625D02*
Y-6602D01*
X13657Y-6625D02*
X14402D01*
X13653Y-8888D02*
Y-8865D01*
X22087Y-11172D02*
X22213Y-11047D01*
X22087Y-11173D02*
X22088D01*
X22087D02*
Y-11172D01*
Y-11197D02*
Y-11173D01*
X21310Y-11197D02*
X22087D01*
X21306Y-13480D02*
X22087D01*
Y-13585D02*
Y-13480D01*
X17883Y-11197D02*
Y-11172D01*
Y-13503D02*
Y-13480D01*
X21310Y-15812D02*
X21653D01*
X22087Y-15901D02*
Y-15788D01*
X21742Y-15901D02*
X22087D01*
X17107Y-15812D02*
X17883D01*
Y-18096D02*
X17884D01*
X17883Y-18119D02*
Y-18096D01*
X17335Y-18119D02*
X17883D01*
X17107Y-11173D02*
Y-11060D01*
Y-13503D02*
X17883D01*
X14402Y-11173D02*
Y-11172D01*
Y-11173D02*
X14406D01*
X13657Y-11197D02*
X14402D01*
Y-11173D01*
X13657Y-13481D02*
X14402D01*
X17883Y-15812D02*
Y-15788D01*
Y-18096D02*
Y-18096D01*
X17107Y-18027D02*
X17244D01*
X17107Y-18096D02*
Y-18027D01*
X10534Y-4250D02*
X10535D01*
X10534Y-4273D02*
Y-4250D01*
Y-4249D01*
X7213Y-4253D02*
Y-4253D01*
X9822Y-4273D02*
X10534D01*
X7213Y-4253D02*
X7217D01*
X7213Y-4276D02*
Y-4253D01*
X10534Y-6557D02*
Y-6557D01*
Y-6557D02*
X10535D01*
X10534Y-6582D02*
Y-6557D01*
X12920Y-8888D02*
X13653D01*
X9822Y-6582D02*
X10534D01*
X6439Y-1941D02*
X7188D01*
X3321D02*
X4711D01*
X3321Y-4250D02*
X3321D01*
X3321D02*
Y-4249D01*
Y-4260D02*
Y-4250D01*
X2629Y-1941D02*
X3321D01*
X2944Y-4260D02*
X3321D01*
X2633Y-4273D02*
X2931D01*
X1849Y-6557D02*
X2629D01*
X1072Y-6544D02*
X1849D01*
X1072Y-6557D02*
Y-6544D01*
X10444Y-18164D02*
X10534D01*
Y-18096D01*
X9822Y-18121D02*
X10330D01*
X2629Y-11197D02*
Y-11172D01*
X1853Y-11197D02*
X2629D01*
X1849Y-11173D02*
Y-11172D01*
Y-11197D02*
Y-11173D01*
X1853D01*
X1072Y-11197D02*
X1849D01*
Y-13481D02*
Y-13480D01*
Y-13481D02*
X1853D01*
X1849Y-15788D02*
X1853D01*
X1849Y-15800D02*
Y-15788D01*
X2629Y-18096D02*
Y-18096D01*
Y-18096D02*
X2633D01*
X2629Y-18119D02*
Y-18096D01*
X1849D02*
X1853D01*
X1849Y-15788D02*
Y-15788D01*
Y-18096D02*
Y-18096D01*
Y-18108D02*
Y-18096D01*
Y-18096D02*
X2629D01*
X5437Y-18315D02*
X6576Y-19455D01*
X6729D01*
X6745Y-19438D01*
X6807D01*
X7516Y-19464D02*
X7522Y-19470D01*
X6883Y-19464D02*
X7516D01*
X6876Y-19470D02*
X6883Y-19464D01*
X6807Y-19438D02*
X6839Y-19470D01*
X7625Y-19404D02*
X8792D01*
X7559Y-19470D02*
X7625Y-19404D01*
X7522Y-19470D02*
X7559D01*
X6839D02*
X6876D01*
X8792Y-19404D02*
X8883Y-19314D01*
X7541Y-19404D02*
X7613Y-19332D01*
X6858Y-19404D02*
X7541D01*
X6832Y-19378D02*
X6858Y-19404D01*
X9697Y-14649D02*
X9733D01*
X9779Y-14603D01*
X9316Y-14268D02*
X9697Y-14649D01*
X9042Y-14268D02*
X9316D01*
X6356Y-8608D02*
X6443Y-8520D01*
X4820Y-8608D02*
X6356D01*
X4796Y-8584D02*
X4820Y-8608D01*
X4079Y-8584D02*
X4796D01*
X10040Y-17702D02*
X10446D01*
X10013Y-17729D02*
X10040Y-17702D01*
X9951Y-17729D02*
X10013D01*
X9924Y-17702D02*
X9951Y-17729D01*
X9906Y-17702D02*
X9924D01*
X10631D02*
X10706D01*
X10598Y-17735D02*
X10631Y-17702D01*
X10479Y-17735D02*
X10598D01*
X10446Y-17702D02*
X10479Y-17735D01*
X10706Y-17702D02*
X10743Y-17739D01*
X9869D02*
X9906Y-17702D01*
X19256Y-14679D02*
X19380D01*
X19248Y-14671D02*
X19256Y-14679D01*
X4115Y-12800D02*
X4115Y-12800D01*
X12522Y-8482D02*
X12544Y-8460D01*
Y-7978D01*
X12065Y-8035D02*
X12486D01*
X12544Y-7978D01*
X22348Y-18334D02*
X22352Y-18337D01*
X22348Y-18334D02*
Y-17473D01*
X22329Y-17454D02*
X22348Y-17473D01*
X22276Y-18231D02*
Y-17701D01*
X22181Y-17476D02*
Y-17193D01*
Y-17476D02*
X22212Y-17507D01*
Y-17673D02*
Y-17507D01*
X22329Y-17454D02*
Y-16950D01*
X22209Y-17165D02*
Y-16999D01*
X22181Y-17193D02*
X22209Y-17165D01*
X21908Y-18781D02*
X22352Y-18337D01*
X18056Y-18781D02*
X21908D01*
X22273Y-17698D02*
X22276Y-17701D01*
X21781Y-18721D02*
X22271Y-18231D01*
X21852Y-18566D02*
X22181Y-18237D01*
X21851Y-18567D02*
X21852Y-18566D01*
X17765Y-18567D02*
X21851D01*
X12405Y-14740D02*
X12682Y-15017D01*
X18910Y-17876D02*
Y-14386D01*
X18339Y-18447D02*
X18910Y-17876D01*
X18314Y-18387D02*
X18766Y-17935D01*
X17579Y-18387D02*
X18314D01*
X9880Y-18435D02*
X9908Y-18408D01*
X9798Y-18517D02*
X9826Y-18490D01*
X8587Y-17348D02*
X9130Y-17891D01*
X9398Y-18074D02*
Y-17199D01*
Y-18074D02*
X9404Y-18080D01*
Y-18118D02*
Y-18080D01*
X9398Y-18124D02*
X9404Y-18118D01*
X9398Y-18171D02*
Y-18124D01*
X9338Y-18196D02*
Y-18099D01*
X9130Y-17891D02*
X9338Y-18099D01*
X18363Y-12735D02*
X18398Y-12770D01*
X18339Y-12735D02*
X18363D01*
X18398Y-12854D02*
Y-12770D01*
X17421Y-12825D02*
X18313D01*
X17368Y-12878D02*
X17421Y-12825D01*
X12042Y-12634D02*
X12042Y-12634D01*
Y-14374D02*
Y-12634D01*
X11895Y-12401D02*
X12102Y-12609D01*
X11895Y-12401D02*
Y-12388D01*
X11816Y-12309D02*
X11895Y-12388D01*
X11791Y-12369D02*
X11835Y-12413D01*
X11761Y-12369D02*
X11791D01*
X11388Y-11996D02*
X11761Y-12369D01*
X11803Y-12309D02*
X11816D01*
X11481Y-11987D02*
X11803Y-12309D01*
X11835Y-12426D02*
X12042Y-12634D01*
X11835Y-12426D02*
Y-12413D01*
X10947Y-12368D02*
X11059D01*
X11145Y-12282D01*
X9930Y-13221D02*
X10934D01*
X10673Y-12769D02*
Y-12519D01*
X8799Y-13723D02*
X9042Y-13480D01*
X8450Y-13723D02*
X8799D01*
X11303Y-9958D02*
Y-7898D01*
Y-9958D02*
X11328Y-9983D01*
X11448Y-9549D02*
Y-7791D01*
X20147Y-8205D02*
X20373Y-8431D01*
Y-8459D02*
Y-8431D01*
X20307Y-8525D02*
X20373Y-8459D01*
X20307Y-8888D02*
Y-8525D01*
X12436Y-6247D02*
X12446D01*
X12428Y-6254D02*
X12436Y-6247D01*
X12428Y-6696D02*
Y-6254D01*
X11378Y-3832D02*
X11481Y-3935D01*
X11378Y-3832D02*
Y-3752D01*
X11523Y-3893D02*
Y-3678D01*
Y-3893D02*
X11541Y-3910D01*
Y-4103D02*
Y-3910D01*
X11523Y-4121D02*
X11541Y-4103D01*
X11481Y-4078D02*
Y-3935D01*
X11463Y-4096D02*
X11481Y-4078D01*
X11463Y-5490D02*
Y-4096D01*
X11403Y-5465D02*
Y-5078D01*
X10660Y-4335D02*
X11403Y-5078D01*
X10660Y-4335D02*
Y-4167D01*
X20218Y-100D02*
X20538Y-420D01*
X8307Y-100D02*
X20218D01*
X12156Y-1182D02*
X12341D01*
X12130Y-1208D02*
X12156Y-1182D01*
X12067Y-1208D02*
X12130D01*
X12042Y-1182D02*
X12067Y-1208D01*
X8492Y-1182D02*
X12042D01*
X12160Y-1088D02*
X12304D01*
X12130Y-1058D02*
X12160Y-1088D01*
X12067Y-1058D02*
X12130D01*
X12037Y-1088D02*
X12067Y-1058D01*
X11376Y-1088D02*
X12037D01*
X11356Y-1294D02*
X12192D01*
X12228Y-1329D01*
X12304Y-1088D02*
X12352Y-1040D01*
X12460Y-1182D02*
X17892D01*
X12451Y-1191D02*
X12460Y-1182D01*
X12341D02*
X12350Y-1191D01*
X12352Y-1040D02*
X12509D01*
X12228Y-1436D02*
Y-1329D01*
X12509Y-1040D02*
X12585Y-1116D01*
X8280Y-1658D02*
X10459D01*
X8105Y-1328D02*
X8165Y-1268D01*
X8105Y-1544D02*
Y-1328D01*
Y-1544D02*
X8202Y-1641D01*
X8263D01*
X8280Y-1658D01*
X8227Y-1581D02*
X10466D01*
X8165Y-1519D02*
X8227Y-1581D01*
X8165Y-1519D02*
Y-1353D01*
X8165Y-1424D02*
Y-1353D01*
X8165Y-1353D02*
X8227Y-1291D01*
X8165Y-1353D02*
X8165Y-1353D01*
X8227Y-1291D02*
X8298D01*
X9042Y-547D01*
Y-420D01*
X8323Y-1351D02*
X8492Y-1182D01*
X8286Y-1436D02*
Y-1351D01*
X20448Y-10458D02*
X20542Y-10552D01*
Y-10667D02*
Y-10552D01*
X20663Y-10812D02*
Y-9828D01*
X20538Y-9703D02*
Y-9651D01*
Y-9703D02*
X20663Y-9828D01*
X21910D01*
X22087Y-9651D01*
X18264Y-10772D02*
X18320Y-10716D01*
X18264Y-11783D02*
Y-10772D01*
X10656Y-9734D02*
Y-9494D01*
X18816Y-12658D02*
X20663Y-10812D01*
X19369Y-12815D02*
X20479D01*
X19360Y-12824D02*
X19369Y-12815D01*
X18856Y-12824D02*
X19360D01*
X17696Y-18721D02*
X17749Y-18668D01*
X14932Y-18721D02*
X17696D01*
X17741Y-18507D02*
X17963D01*
X17646Y-18601D02*
X17741Y-18507D01*
X17519Y-18327D02*
X18027D01*
X17641Y-18267D02*
X18002D01*
X14907Y-18661D02*
X17671D01*
X17749Y-18668D02*
X17811D01*
X6116Y-16891D02*
X6162Y-16937D01*
X5625Y-16719D02*
X5677Y-16771D01*
X5816Y-16688D02*
X6349D01*
X6380Y-16719D01*
X7158Y-17265D02*
X7326D01*
X7381Y-17321D01*
X7812D01*
X7251Y-17445D02*
X7373Y-17567D01*
X7276Y-17385D02*
X7332Y-17441D01*
X7417D02*
X7433Y-17458D01*
X7518Y-17219D02*
Y-3783D01*
X6548Y-16817D02*
X6681Y-16950D01*
X6523Y-16877D02*
X6621Y-16974D01*
X6561Y-17084D02*
Y-16999D01*
X6477Y-2741D02*
X7518Y-3783D01*
X8001Y-18413D02*
Y-17960D01*
X8011Y-17950D01*
X7679Y-18570D02*
X8265D01*
X7965Y-18630D02*
X8459D01*
X7747Y-18413D02*
Y-18212D01*
X7672Y-18444D02*
X7737Y-18510D01*
X7633Y-18630D02*
X7802D01*
X7711Y-18850D02*
X7841D01*
X7517Y-18599D02*
X7647Y-18728D01*
X7929Y-18970D02*
X7985D01*
X7714Y-19109D02*
X7805D01*
X7457Y-18850D02*
X7512D01*
X7393Y-18786D02*
X7457Y-18850D01*
X7396Y-19045D02*
Y-18987D01*
X7460Y-19109D02*
X7499D01*
X7613Y-19222D01*
Y-19332D02*
Y-19222D01*
X7249Y-18840D02*
Y-18740D01*
X7396Y-18584D02*
X7411Y-18599D01*
X7319Y-18570D02*
X7333Y-18584D01*
X6591Y-17735D02*
X7125Y-18269D01*
X4945Y-17956D02*
X4951Y-17951D01*
X4829Y-16682D02*
X4926Y-16779D01*
X4829Y-16682D02*
Y-16466D01*
X3380Y-16429D02*
X4123Y-17173D01*
X1693Y-15746D02*
X1728Y-15711D01*
Y-15705D01*
X1234Y-15746D02*
X1693D01*
X1131Y-15643D02*
X1234Y-15746D01*
X6899Y-11962D02*
Y-10415D01*
X6621Y-12241D02*
X6899Y-11962D01*
X6681Y-12266D02*
X6959Y-11987D01*
X6741Y-12291D02*
X7019Y-12012D01*
X6439Y-9446D02*
X7019Y-10027D01*
X4665Y-9506D02*
X4889Y-9730D01*
Y-9734D02*
X4951Y-9796D01*
X5069D01*
X5215Y-9650D01*
X5618Y-9446D02*
X6439D01*
X3200Y-9734D02*
Y-9624D01*
X6443Y-10806D02*
Y-10667D01*
X6681Y-12707D02*
Y-12266D01*
X6741Y-12682D02*
Y-12291D01*
X6834Y-14415D02*
Y-12776D01*
X6548Y-14531D02*
X6714Y-14366D01*
X6573Y-14591D02*
X6774Y-14391D01*
X6550Y-14651D02*
X6598D01*
X6535Y-14666D02*
X6550Y-14651D01*
X6598D02*
X6834Y-14415D01*
X6333Y-14591D02*
X6573D01*
X6309Y-14531D02*
X6548D01*
X6312Y-14450D02*
X6333Y-14471D01*
X6523D01*
X6138Y-14617D02*
X6305Y-14450D01*
X6535Y-14666D02*
X6561Y-14692D01*
X6318Y-14857D02*
Y-14846D01*
X6561Y-14857D02*
Y-14692D01*
X6499Y-14919D02*
X6561Y-14857D01*
X6380Y-14919D02*
X6499D01*
X6318Y-14857D02*
X6380Y-14919D01*
X6398Y-14108D02*
X6439Y-14149D01*
X4191Y-13120D02*
X5461D01*
X5195Y-15335D02*
X5572Y-14957D01*
X5203Y-16053D02*
X5283Y-15974D01*
X5035Y-16053D02*
X5203D01*
X5010Y-15993D02*
X5098D01*
X4829Y-16466D02*
X4853Y-16442D01*
X8215Y-18721D02*
X8246D01*
X8265Y-18740D01*
X7672Y-18444D02*
Y-18382D01*
X7747Y-18212D02*
X7757Y-18202D01*
X6681Y-17034D02*
Y-16950D01*
X5010Y-16574D02*
Y-16500D01*
X5403Y-15773D02*
X5585Y-15591D01*
X5403Y-16023D02*
Y-15773D01*
X5283Y-15974D02*
Y-15332D01*
X5622Y-15077D02*
X6002D01*
X5647Y-15137D02*
X6027D01*
X5585Y-15200D02*
X5647Y-15137D01*
X5585Y-15591D02*
Y-15200D01*
X5840Y-14957D02*
X6138Y-14659D01*
Y-14617D01*
X6027Y-15137D02*
X6318Y-14846D01*
X6002Y-15077D02*
X6258Y-14822D01*
Y-14667D01*
X6439Y-14266D02*
Y-14149D01*
X6741Y-12682D02*
X6834Y-12776D01*
X6621Y-12732D02*
X6714Y-12825D01*
X6501Y-12697D02*
Y-12647D01*
X6561Y-12587D01*
X3176Y-7198D02*
X3321Y-7343D01*
X2027Y-8182D02*
X2489Y-8644D01*
X2705Y-9130D02*
X3200Y-9624D01*
X2755Y-9010D02*
X2811Y-9066D01*
X4267D01*
X2972Y-9193D02*
X3284Y-9506D01*
X7985Y-18970D02*
X8014Y-18999D01*
X2629Y-14266D02*
X3124Y-14762D01*
X3321Y-14992D02*
Y-14774D01*
X1790Y-11814D02*
X1951D01*
X1727Y-11877D02*
X1790Y-11814D01*
X1727Y-12116D02*
Y-11877D01*
X1610Y-12973D02*
X2433Y-13796D01*
X7188Y-16574D02*
Y-16447D01*
X5010Y-9651D02*
Y-9550D01*
X1270Y-10976D02*
X4300D01*
X3624Y-18096D02*
X5010D01*
X3533Y-18004D02*
X3624Y-18096D01*
X8883Y-19146D02*
X9030Y-18999D01*
X4079Y-6309D02*
X4092Y-6322D01*
X3989Y-12768D02*
X4262Y-12495D01*
X3989Y-12918D02*
Y-12768D01*
X4262Y-12495D02*
X4597D01*
X5357Y-7141D02*
X7112D01*
X5179Y-7319D02*
X5357Y-7141D01*
X7112D02*
X7188Y-7217D01*
X2682Y-12800D02*
X3480D01*
X3358Y-10857D02*
X3525Y-10690D01*
X7188Y-7343D02*
Y-7217D01*
X4092Y-6322D02*
X5555D01*
X9046Y-2057D02*
X9050Y-2061D01*
X9046Y-2057D02*
Y-1942D01*
Y-2065D02*
Y-2057D01*
X12228Y-13503D02*
Y-13481D01*
X20542Y-15284D02*
Y-15282D01*
X20307Y-8888D02*
X20447Y-9028D01*
X17107Y-8220D02*
X17119Y-8208D01*
X17107Y-8359D02*
Y-8220D01*
X17254Y-6028D02*
X17455Y-5828D01*
X17107Y-3745D02*
Y-3744D01*
X17653Y-3745D02*
X17886Y-3511D01*
X18011D01*
X18206Y-3707D01*
X20504Y-1243D02*
X20542Y-1281D01*
X9822Y-1329D02*
X9906Y-1245D01*
X9822Y-3745D02*
Y-3744D01*
Y-6170D02*
Y-6051D01*
X10962Y-16018D02*
X11125Y-15855D01*
X10351Y-16018D02*
X10962D01*
X1072Y-17468D02*
X1143Y-17397D01*
X2433Y-13796D02*
X4303D01*
X1072Y-12975D02*
Y-12973D01*
X5461Y-13120D02*
X5555Y-13026D01*
X6443Y-12975D02*
Y-12950D01*
X2633Y-12975D02*
Y-12849D01*
X2683Y-10857D02*
X3358D01*
X1072Y-8359D02*
Y-8253D01*
X2489Y-8644D02*
X3541D01*
X3723Y-8827D01*
X5706Y-6170D02*
Y-6051D01*
X4826Y-740D02*
X6704D01*
X5010Y-957D02*
Y-928D01*
X5080Y-631D02*
X6350D01*
X6439Y-541D01*
X3321Y-7505D02*
Y-7343D01*
Y-7505D02*
X3365Y-7550D01*
X5010Y-7343D02*
Y-7319D01*
X1849Y-14266D02*
Y-14140D01*
X2629Y-16574D02*
Y-16572D01*
X3321Y-16574D02*
Y-16572D01*
X8282Y-16690D02*
Y-16574D01*
X9042Y-14268D02*
Y-14266D01*
X14402Y-14339D02*
Y-14266D01*
X8282Y-11959D02*
Y-11822D01*
X14310Y-12167D02*
X14402Y-12076D01*
X13007Y-12167D02*
X14310D01*
X9042Y-9653D02*
Y-9651D01*
X14066Y-9869D02*
X14259Y-9676D01*
X12916Y-9790D02*
X12994Y-9869D01*
X12916Y-9790D02*
Y-9651D01*
X9042Y-7344D02*
Y-7343D01*
X10484Y-7136D02*
X10534Y-7186D01*
Y-7343D02*
Y-7186D01*
X12950Y-7184D02*
X14399D01*
X12916Y-7218D02*
X12950Y-7184D01*
X12916Y-7343D02*
Y-7218D01*
X9779Y-4845D02*
X9818Y-4884D01*
X14402Y-5081D02*
Y-5080D01*
X13017Y-4850D02*
X13904D01*
X12916Y-4951D02*
X13017Y-4850D01*
X8282Y-2728D02*
Y-2614D01*
X8449Y-2447D01*
X12916Y-2868D02*
X12992Y-2945D01*
X12916Y-2868D02*
Y-2692D01*
X13653D02*
Y-2668D01*
X9042Y-420D02*
Y-417D01*
X12916Y-445D02*
Y-420D01*
X17883Y-525D02*
Y-420D01*
X15519Y-7491D02*
X15557Y-7529D01*
X17018D02*
X17102Y-7445D01*
Y-7343D01*
X15519Y-11959D02*
Y-11822D01*
X20538Y-11853D02*
X20701Y-11690D01*
X20538Y-16574D02*
Y-16457D01*
X22011Y-16366D02*
X22087Y-16442D01*
Y-16574D02*
Y-16442D01*
X12228Y-18121D02*
Y-18096D01*
Y-15812D02*
Y-15788D01*
Y-11197D02*
Y-11173D01*
X9046Y-2065D02*
X9050Y-2061D01*
X9144Y-2155D01*
X5010Y-13481D02*
Y-13480D01*
X3736Y-13663D02*
X3919Y-13481D01*
X10744Y-1245D02*
X10898Y-1399D01*
Y-1401D02*
Y-1399D01*
X10981Y-1484D02*
X10983D01*
X12380Y-1182D02*
X12389Y-1191D01*
X12451D01*
X12359Y-1182D02*
X12380D01*
X18065Y-674D02*
X18079Y-660D01*
X18141D02*
X18155Y-674D01*
X19172Y-1243D02*
X19196Y-1267D01*
X8282Y-420D02*
Y-125D01*
X19093Y-8208D02*
X19320D01*
X3266Y-15427D02*
X3885D01*
X3924Y-15467D01*
X4279D01*
X3095Y-15614D02*
X3126Y-15583D01*
X3471D01*
X3941Y-15594D02*
X4300D01*
X4889Y-16491D02*
X4913Y-16467D01*
Y-16345D02*
X5085Y-16173D01*
X4769Y-16707D02*
Y-16442D01*
X4901Y-16839D02*
X5575D01*
X5627Y-16891D01*
X6116D01*
X4876Y-16899D02*
X5242D01*
X4709Y-16417D02*
X4733Y-16392D01*
Y-16270D01*
X5010Y-15993D01*
X4381Y-15769D02*
Y-15568D01*
X4352Y-15797D02*
X4381Y-15769D01*
X3538Y-15797D02*
X4352D01*
X3438Y-15845D02*
X3466Y-15873D01*
X3641D02*
X3770Y-16003D01*
X4661D01*
X3200Y-15871D02*
X3262Y-15933D01*
X3442D01*
X4240Y-16178D02*
X4589Y-16527D01*
Y-16781D02*
Y-16527D01*
Y-16781D02*
X4725Y-16918D01*
Y-17068D02*
X4803Y-17145D01*
Y-17164D02*
Y-17145D01*
X3475Y-16052D02*
X3661Y-16238D01*
X3921D02*
X4116Y-16433D01*
Y-16489D02*
Y-16433D01*
X4160Y-16532D02*
X4215D01*
X3450Y-16112D02*
X3931Y-16592D01*
X4605Y-17136D02*
Y-17008D01*
Y-17136D02*
X4628Y-17159D01*
X5876Y-17227D02*
X6384Y-17735D01*
X4803Y-17164D02*
X4926Y-17287D01*
X5170D02*
X5365Y-17483D01*
X5490D02*
X5585Y-17578D01*
Y-17673D02*
X5647Y-17735D01*
X5840D01*
X4743Y-17189D02*
X4901Y-17347D01*
X5145D02*
X5340Y-17543D01*
X5465D02*
X5525Y-17603D01*
Y-17698D02*
Y-17603D01*
X5622Y-17795D02*
X5815D01*
X4683Y-17214D02*
X4876Y-17407D01*
X5120D02*
X5483Y-17771D01*
X5815Y-17795D02*
X6138Y-18118D01*
Y-18253D02*
Y-18118D01*
X5840Y-17735D02*
X6198Y-18093D01*
X6903Y-18329D02*
X7015D01*
X6138Y-18253D02*
X6317Y-18432D01*
X6430Y-18630D02*
X6825D01*
X6695Y-19378D02*
X6832D01*
X1143Y-17397D02*
X4287D01*
X4422Y-17472D02*
X4841Y-17891D01*
X3357Y-17322D02*
X4318D01*
X4368Y-17202D02*
X4482Y-17316D01*
X1926Y-15487D02*
X1998Y-15559D01*
X2245Y-15099D02*
X2585Y-15439D01*
X2805D01*
X2979Y-15614D02*
X3095D01*
X2805Y-15439D02*
X2979Y-15614D01*
X3295Y-16052D02*
X3475D01*
X3245Y-16112D02*
X3450D01*
X2560Y-15499D02*
X2743D01*
X2691Y-15643D02*
X2754Y-15706D01*
X1937Y-15583D02*
X1997Y-15643D01*
X1790D02*
X1912D01*
X2698Y-16429D01*
X1067Y-7376D02*
Y-7344D01*
X1068Y-7343D01*
X947Y-9568D02*
X1009Y-9506D01*
X951Y-15365D02*
Y-15200D01*
X951Y-8442D02*
X1013Y-8504D01*
X891Y-7316D02*
X1009Y-7198D01*
X891Y-8467D02*
Y-7316D01*
X1067Y-7376D02*
X1189Y-7499D01*
X947Y-12811D02*
Y-11876D01*
X1044Y-14086D02*
Y-13660D01*
Y-11779D02*
Y-11353D01*
X947Y-11255D02*
X1044Y-11353D01*
X947Y-11876D02*
X1044Y-11779D01*
X891Y-13507D02*
X1044Y-13660D01*
X951Y-12892D02*
X1727Y-12116D01*
X951Y-13155D02*
X1193Y-13398D01*
Y-14957D02*
Y-13398D01*
X1016Y-4790D02*
X2383D01*
X1068Y-9766D02*
X1218Y-9916D01*
X831Y-15415D02*
Y-14215D01*
X984Y-14061D02*
Y-13685D01*
X831Y-13532D02*
X984Y-13685D01*
X1068Y-5181D02*
Y-5035D01*
X753Y-5053D02*
X1016Y-4790D01*
X1068Y-5181D02*
X1143Y-5256D01*
X4908D01*
X6560Y-19158D02*
X6786D01*
X4771Y-17735D02*
X5073D01*
X2754Y-15718D02*
X4238Y-17202D01*
X831Y-13532D02*
Y-11907D01*
X887Y-11280D02*
Y-8548D01*
X831Y-8492D02*
Y-5060D01*
X1000Y-4890D02*
X1704D01*
X21306Y-16631D02*
Y-16574D01*
X14505Y-19314D02*
X14569Y-19378D01*
X22181Y-16972D02*
X22209Y-16999D01*
X22241Y-17218D02*
X22269Y-17190D01*
X22301Y-16922D02*
X22329Y-16950D01*
X22181Y-18237D02*
Y-18211D01*
X22212Y-18179D01*
Y-18013D01*
X22181Y-17982D02*
X22212Y-18013D01*
X22181Y-17982D02*
Y-17705D01*
X20663Y-13564D02*
Y-13383D01*
X19757Y-14266D02*
X20072D01*
X19380Y-14679D02*
X19984Y-15284D01*
X20663Y-13383D02*
X22087Y-11959D01*
X20542Y-12975D02*
Y-12878D01*
X20578Y-12830D02*
X20601D01*
X20663Y-12892D01*
Y-12914D02*
Y-12892D01*
X17381Y-16371D02*
X17584Y-16574D01*
X19885Y-12137D02*
X20578Y-12830D01*
X20447Y-9028D02*
X21590D01*
X19353Y-10113D02*
Y-10054D01*
X14705Y-19152D02*
X14783Y-19074D01*
X14498Y-18241D02*
X14618Y-18361D01*
X15608Y-11733D02*
X17018D01*
X17102Y-9651D02*
Y-9536D01*
X19323Y-8204D02*
X19986D01*
X19630Y-7926D02*
X19698Y-7994D01*
X20855Y-7341D02*
X21306D01*
X20650Y-7136D02*
X20855Y-7341D01*
X17864Y-18721D02*
X21781D01*
X13348Y-18999D02*
Y-18893D01*
X20538Y-5339D02*
X20659Y-5460D01*
X19746Y-6202D02*
X20457D01*
X20523Y-6136D01*
X20659Y-5964D02*
Y-5460D01*
Y-5964D02*
X20663Y-5968D01*
X18782Y-7704D02*
X18815Y-7670D01*
X19673Y-7136D02*
X20650D01*
X18815Y-7670D02*
X19138D01*
X19113Y-7610D02*
X19648Y-7076D01*
X18791Y-7610D02*
X19113D01*
X18757Y-7644D02*
X18791Y-7610D01*
X18694Y-7644D02*
X18757D01*
X14209Y-18361D02*
X14427D01*
X14547Y-18481D01*
X13602Y-18999D02*
X13734Y-18867D01*
X19635Y-5460D02*
X19757Y-5339D01*
X19635Y-5559D02*
Y-5460D01*
X19068Y-6127D02*
X19635Y-5559D01*
X18626Y-14760D02*
X18689Y-14823D01*
Y-16371D02*
X18730Y-16412D01*
X18386Y-14860D02*
X18449Y-14923D01*
Y-16471D02*
Y-14923D01*
X18490Y-16573D02*
Y-16511D01*
X18449Y-16614D02*
X18490Y-16573D01*
X18337Y-17403D02*
Y-17297D01*
X18646Y-17074D02*
X18730Y-16990D01*
X18278Y-17462D02*
X18337Y-17403D01*
X17947Y-17445D02*
X17963Y-17462D01*
X18278D01*
X14304Y-18436D02*
X14417D01*
X14061Y-18630D02*
X14110D01*
X13599Y-18655D02*
X13714Y-18539D01*
X14138Y-18241D02*
X14498D01*
X20416Y-3153D02*
X20538Y-3031D01*
X17419Y-15259D02*
X17589Y-15088D01*
X16334Y-16574D02*
Y-16489D01*
X18712Y-13417D02*
Y-12759D01*
X18708Y-12622D02*
X18729Y-12643D01*
X18652Y-12961D02*
Y-12734D01*
X18669Y-12717D02*
Y-12668D01*
X18592Y-12709D02*
X18609Y-12692D01*
X18518Y-12903D02*
Y-12838D01*
X18532Y-12825D01*
Y-12700D01*
X18526Y-12694D02*
X18532Y-12700D01*
X18472Y-12800D02*
Y-12725D01*
X18466Y-12719D02*
X18472Y-12725D01*
X18626Y-14760D02*
Y-13503D01*
X18712Y-13417D01*
X18566Y-13047D02*
X18652Y-12961D01*
X18386Y-14860D02*
Y-12951D01*
X18458Y-12879D01*
X14758Y-19378D02*
X15350Y-18786D01*
X14783Y-19074D02*
Y-18870D01*
X14976Y-17933D02*
X15174Y-17735D01*
X14952Y-17873D02*
X15149Y-17675D01*
X14927Y-17813D02*
X15213Y-17526D01*
X14107Y-18464D02*
X14209Y-18361D01*
X14032Y-18433D02*
X14163Y-18301D01*
X13455Y-18786D02*
Y-18680D01*
X12583Y-18740D02*
X12596D01*
X18941Y-1395D02*
X19093Y-1243D01*
X18902Y-6127D02*
X19068D01*
X18738Y-6135D02*
Y-5886D01*
X18798Y-6160D02*
Y-5911D01*
X19635Y-5073D01*
Y-4952D01*
X19456Y-5168D02*
Y-3859D01*
X18797Y-1433D02*
X18896Y-1334D01*
X18797Y-5481D02*
X18896Y-5581D01*
Y-5643D02*
Y-5581D01*
X18678Y-5861D02*
X18896Y-5643D01*
X18678Y-6110D02*
Y-5861D01*
X17208Y-10448D02*
X18224D01*
X18721Y-10139D02*
Y-10076D01*
X18661Y-10163D02*
Y-10052D01*
X18915Y-10458D02*
X20448D01*
X18224Y-10448D02*
X18339Y-10562D01*
X18421Y-8377D02*
X18463Y-8335D01*
X18763Y-10034D02*
Y-7938D01*
X18703Y-7736D02*
X18736Y-7704D01*
X18703Y-10009D02*
Y-7736D01*
X18643Y-7694D02*
X18694Y-7644D01*
X18583Y-9959D02*
Y-6460D01*
X18523Y-6435D02*
X18798Y-6160D01*
X18481Y-10238D02*
Y-8402D01*
X18463Y-8335D02*
Y-6410D01*
X18541Y-10213D02*
X18594Y-10266D01*
X18403Y-6385D02*
X18678Y-6110D01*
X18403Y-8310D02*
Y-6385D01*
X18361Y-8352D02*
X18403Y-8310D01*
X18361Y-10499D02*
X18414Y-10552D01*
Y-10672D02*
Y-10552D01*
X18774Y-10874D02*
Y-10191D01*
X18714Y-10850D02*
Y-10216D01*
X18654Y-10825D02*
Y-10241D01*
X18370Y-10716D02*
X18414Y-10672D01*
X18646Y-12645D02*
Y-11002D01*
X18586Y-12669D02*
Y-10978D01*
X18714Y-10850D01*
X18526Y-12694D02*
Y-10953D01*
X18654Y-10825D01*
X18466Y-12719D02*
Y-10928D01*
X18594Y-10800D01*
X18363Y-10776D02*
X18394D01*
X17211Y-12878D02*
X17368D01*
X17343Y-12818D02*
X17762Y-12399D01*
X17702Y-12374D02*
Y-12359D01*
X17898Y-12164D01*
X17967D01*
X17762Y-12384D02*
X17922Y-12224D01*
X17992D02*
X18399Y-11817D01*
X17943Y-12104D02*
X18264Y-11783D01*
X17873Y-12104D02*
X17943D01*
X17293Y-12698D02*
X17642Y-12349D01*
X16981Y-16172D02*
Y-13397D01*
X16713Y-16305D02*
X16891Y-16127D01*
X16985Y-13058D02*
Y-12892D01*
X16891Y-16127D02*
Y-12901D01*
X17034Y-12758D01*
X17059Y-12818D02*
X17343D01*
X16713Y-12994D02*
X17009Y-12698D01*
X16153Y-16466D02*
X16314Y-16305D01*
X16713D01*
X16093Y-16442D02*
X16713Y-15821D01*
X16093Y-16443D02*
Y-16442D01*
X15700Y-16920D02*
X16153Y-16468D01*
X15640Y-16895D02*
X16093Y-16443D01*
X15402Y-17673D02*
X15464Y-17735D01*
X15582D01*
X15174D02*
X15294D01*
X15414Y-17855D01*
X15632D01*
X16042Y-17445D02*
X17947D01*
X15632Y-17855D02*
X16042Y-17445D01*
X15319Y-17675D02*
X15439Y-17795D01*
X16017Y-17385D02*
X17971D01*
X15402Y-17673D02*
Y-17546D01*
X15582Y-17735D02*
X15992Y-17325D01*
X15715Y-17407D02*
X15857Y-17265D01*
X15603Y-17287D02*
X15700Y-17190D01*
X15628Y-17347D02*
X16213Y-16763D01*
X15700Y-17190D02*
Y-16920D01*
X15640Y-17165D02*
Y-16895D01*
X15578Y-17227D02*
X15640Y-17165D01*
X15460Y-17227D02*
X15578D01*
X15438Y-17205D02*
X15460Y-17227D01*
X14687Y-17205D02*
X15438D01*
X15188Y-17466D02*
X15358D01*
X15417Y-17407D01*
X15715D01*
X15392Y-17347D02*
X15628D01*
X15367Y-17287D02*
X15603D01*
X13345Y-18464D02*
X13420Y-18539D01*
X13289Y-18329D02*
X13627D01*
X14280Y-18014D02*
Y-18013D01*
X14360Y-17933D02*
X14976D01*
X14335Y-17873D02*
X14952D01*
X14160Y-17963D02*
X14311Y-17813D01*
X14088Y-17951D02*
X14286Y-17753D01*
X14520Y-17406D02*
X14570D01*
X14499Y-17385D02*
X14520Y-17406D01*
X14596Y-17296D02*
X14687Y-17205D01*
X13630Y-18539D02*
X13780Y-18389D01*
X13653D02*
X13713Y-18329D01*
X13714Y-18539D02*
X13812D01*
X13837Y-18564D01*
X13853Y-18740D02*
X13908Y-18684D01*
X14007D01*
X13924Y-18624D02*
X14032Y-18517D01*
X13943Y-18437D02*
X14138Y-18241D01*
X14032Y-18517D02*
Y-18433D01*
X14007Y-18684D02*
X14061Y-18630D01*
X13793Y-18269D02*
X13856D01*
X14160Y-17965D01*
X13780Y-18389D02*
X13906D01*
X14280Y-18014D01*
X14402Y-12076D02*
Y-11959D01*
X16334Y-556D02*
Y-420D01*
X14402D02*
Y-298D01*
X14478Y-222D01*
X16093Y-674D02*
X18065D01*
X14478Y-222D02*
X15641D01*
X13653Y-928D02*
X14402D01*
X15519D01*
X16334D01*
X11253Y-3345D02*
X11277Y-3321D01*
Y-3046D01*
X10423Y-2155D02*
X10534Y-2043D01*
X8161Y-541D02*
X8282Y-420D01*
X12405Y-12556D02*
Y-12359D01*
X14028Y-14507D02*
X14196Y-14339D01*
X12916Y-14425D02*
Y-14266D01*
Y-14425D02*
X12997Y-14507D01*
X12405Y-12556D02*
X12751Y-12901D01*
Y-14405D02*
Y-12901D01*
X12596Y-18740D02*
X12766Y-18570D01*
X12950Y-18544D02*
Y-18413D01*
X13270Y-18433D02*
X13313Y-18389D01*
X13041Y-18179D02*
Y-18159D01*
X13429Y-17771D01*
X12586Y-18999D02*
Y-18893D01*
X12693Y-18786D01*
X12116Y-18422D02*
X12264D01*
X12073Y-18269D02*
X12259D01*
X12297Y-18389D02*
X12831D01*
X12183Y-18850D02*
X12332Y-18999D01*
X12219Y-18786D02*
X12283Y-18850D01*
X12400D01*
X12446Y-18896D01*
X12268Y-19150D02*
X12309Y-19109D01*
X11974Y-19150D02*
X12268D01*
X8318Y-16915D02*
Y-16727D01*
X9822Y-15490D02*
X10351Y-16018D01*
X9822Y-17692D02*
Y-17590D01*
X8161Y-14692D02*
X8282Y-14570D01*
X9535Y-18740D02*
X9645Y-18850D01*
X9597Y-19175D02*
X9726D01*
X9743Y-19158D01*
X9887D02*
X10046Y-18999D01*
X8282Y-12263D02*
Y-11959D01*
X8077Y-14248D02*
X8214Y-14110D01*
X8077Y-17177D02*
Y-14248D01*
X8370Y-17385D02*
X8467Y-17482D01*
X8285Y-17385D02*
X8370D01*
X8395Y-17325D02*
X8527Y-17458D01*
X8161Y-17176D02*
X8310Y-17325D01*
X8467Y-17725D02*
Y-17482D01*
X8318Y-16915D02*
X8587Y-17183D01*
X8227Y-17445D02*
X8345D01*
X8407Y-17749D02*
Y-17507D01*
X9648Y-18968D02*
X9679Y-18999D01*
X9648Y-18968D02*
Y-18953D01*
X9580Y-19158D02*
X9597Y-19175D01*
X9541Y-19158D02*
X9580D01*
X9425Y-18786D02*
X9528Y-18889D01*
X9394Y-19011D02*
X9541Y-19158D01*
X9394Y-19011D02*
Y-18953D01*
X9329Y-18889D02*
X9394Y-18953D01*
X9271Y-18889D02*
X9329D01*
X8995Y-18389D02*
X9058D01*
X9171Y-18789D02*
X9271Y-18889D01*
X9239Y-18626D02*
X9275D01*
X8917Y-18786D02*
Y-18694D01*
X9020Y-18889D02*
X9075D01*
X9174Y-18987D01*
Y-19045D02*
Y-18987D01*
X9238Y-19109D02*
X9277D01*
X9425Y-19256D01*
Y-19314D02*
Y-19256D01*
X10062Y-19404D02*
X10153Y-19314D01*
Y-19048D02*
X10156Y-19045D01*
X9933Y-18694D02*
X9997Y-18630D01*
X9645Y-18850D02*
X9834D01*
X10156Y-19045D02*
Y-18853D01*
X10043Y-18740D02*
X10156Y-18853D01*
X10088Y-18630D02*
X10153Y-18694D01*
Y-18752D02*
Y-18694D01*
Y-18752D02*
X10251Y-18850D01*
X9697Y-3823D02*
Y-2849D01*
X13592Y-16574D02*
X13653D01*
X10597Y-4104D02*
X10660Y-4167D01*
X11567Y-18464D02*
X11589D01*
X10534Y-2908D02*
X11378Y-3752D01*
X11388Y-5480D02*
X11403Y-5465D01*
X11508Y-5530D02*
X11523Y-5515D01*
X11448Y-5505D02*
X11463Y-5490D01*
X11388Y-7674D02*
X11403Y-7689D01*
Y-7751D02*
Y-7689D01*
X11388Y-7766D02*
X11403Y-7751D01*
X11388Y-11996D02*
Y-7766D01*
Y-7674D02*
Y-5480D01*
X11508Y-7624D02*
Y-5530D01*
X11448Y-7649D02*
Y-5505D01*
Y-7649D02*
X11463Y-7664D01*
Y-7776D02*
Y-7664D01*
X11448Y-7791D02*
X11463Y-7776D01*
X11610Y-11705D02*
X12166Y-12262D01*
X11550Y-11858D02*
X12014Y-12322D01*
X14265Y-16421D02*
Y-16193D01*
X13276Y-18269D02*
X13594Y-17951D01*
X13010Y-18438D02*
X13557Y-17891D01*
X13900D01*
X12950Y-18413D02*
X13532Y-17831D01*
X13875D02*
X14321Y-17385D01*
X13850Y-17771D02*
X14325Y-17296D01*
X12075Y-18464D02*
X12116Y-18422D01*
X11938Y-18759D02*
X12029Y-18850D01*
X11938Y-18759D02*
Y-18405D01*
X11589Y-18464D02*
X11598Y-18455D01*
X11582Y-7613D02*
X11610Y-7641D01*
X12857Y-16429D02*
X12975D01*
X12000Y-18495D02*
Y-18433D01*
X12070Y-18362D01*
X11938Y-18405D02*
X12073Y-18269D01*
X11062Y-18960D02*
X11203Y-18819D01*
X10949Y-18793D02*
Y-18694D01*
X11013Y-18630D01*
X11281Y-18389D02*
X11344D01*
X11348Y-18393D01*
X12106Y-17635D02*
Y-17507D01*
X12386Y-17227D01*
X11982Y-14399D02*
Y-13937D01*
X9818Y-7343D02*
X10330D01*
X11429Y-14805D02*
X12116Y-15492D01*
X11429Y-14805D02*
Y-14801D01*
X9822Y-13114D02*
Y-12975D01*
Y-13114D02*
X9930Y-13221D01*
X9818Y-11959D02*
Y-11822D01*
X10872Y-10051D02*
X10885Y-10039D01*
X10698Y-8520D02*
X10945Y-8274D01*
X9715Y-7562D02*
X9818Y-7459D01*
X9822Y-8488D02*
X9854Y-8520D01*
X8223Y-7198D02*
X8341D01*
X11203Y-18819D02*
Y-18694D01*
X11337Y-18630D02*
X11492Y-18476D01*
X11143Y-18670D02*
X11242Y-18570D01*
X11313D01*
X11432Y-18451D02*
Y-18408D01*
X11511Y-18329D01*
X11398Y-18740D02*
X12102Y-18036D01*
X12311Y-17795D02*
X12409Y-17698D01*
X12326Y-17951D02*
X12529Y-17748D01*
X11556Y-18389D02*
X12150Y-17795D01*
X12140Y-17891D02*
X12301D01*
X12287Y-17735D02*
X12349Y-17673D01*
X12861Y-17735D02*
X12979D01*
X12259Y-18269D02*
X12733Y-17795D01*
X13144D01*
X12386Y-17227D02*
X12975D01*
X12349Y-17520D02*
X12581Y-17287D01*
X13000D01*
X13712Y-17227D02*
X13774Y-17165D01*
X13144Y-17795D02*
X13592Y-17347D01*
X13762D01*
X13617Y-17407D02*
X13787D01*
X14280Y-16914D01*
X13774Y-17165D02*
Y-16997D01*
X13139Y-17407D02*
X13319Y-17227D01*
X13712D01*
X13000Y-17287D02*
X13448Y-16839D01*
X12975Y-17227D02*
X13423Y-16779D01*
X14220Y-16466D02*
X14265Y-16421D01*
X13737Y-17287D02*
X14160Y-16864D01*
X13762Y-16839D02*
X13894Y-16707D01*
X14280Y-16914D02*
Y-16491D01*
X14220Y-16889D02*
Y-16466D01*
X13774Y-16997D02*
X14100Y-16670D01*
Y-16460D01*
X13834Y-16682D02*
Y-16449D01*
X13929Y-16610D02*
Y-16459D01*
X13755Y-16369D02*
X13834Y-16449D01*
X13570Y-15993D02*
X13633D01*
X13532Y-15871D02*
X13594Y-15933D01*
X13658D02*
X14160Y-16436D01*
X13608Y-16053D02*
X14040Y-16485D01*
X13520Y-16113D02*
X13584D01*
X13352Y-15945D02*
Y-15882D01*
X13004Y-15077D02*
X13101Y-15175D01*
X12836Y-15077D02*
X13004D01*
X13161Y-15235D02*
X13532Y-15606D01*
X13221Y-15148D02*
X14265Y-16193D01*
X13053Y-14957D02*
X13221Y-15125D01*
X12895Y-14957D02*
X13053D01*
X13281Y-15123D02*
Y-15100D01*
X13078Y-14897D02*
X13281Y-15100D01*
X13037Y-14879D02*
X13055Y-14897D01*
X12979Y-15137D02*
X13041Y-15200D01*
X12861Y-15137D02*
X12979D01*
X12803Y-15527D02*
X12807Y-15523D01*
X12828Y-15587D02*
X12832Y-15583D01*
X12776Y-15137D02*
X12836Y-15077D01*
X12717Y-15137D02*
X12776D01*
X12807Y-15523D02*
X13028D01*
X13003Y-15583D02*
X13101Y-15681D01*
X12832Y-15583D02*
X13003D01*
X13412Y-15921D02*
Y-15737D01*
X13221Y-15751D02*
Y-15631D01*
X12782Y-15463D02*
X13053D01*
X12555Y-15492D02*
X12650Y-15587D01*
X12116Y-15492D02*
X12555D01*
X12640Y-15492D02*
X12675Y-15527D01*
X12042Y-14374D02*
X12345Y-14677D01*
X12405Y-14740D02*
Y-14652D01*
X12102Y-14349D02*
X12405Y-14652D01*
X12345Y-14765D02*
Y-14677D01*
X12102Y-14857D02*
X12164Y-14919D01*
X12102Y-14857D02*
Y-14519D01*
X12640Y-15492D02*
Y-15491D01*
X12115Y-15039D02*
X12189D01*
X12594Y-15197D02*
X12801D01*
X12316Y-14919D02*
X12594Y-15197D01*
X12140Y-14979D02*
X12291D01*
X12042Y-14882D02*
X12140Y-14979D01*
X12042Y-14882D02*
Y-14816D01*
X11982Y-14907D02*
Y-14860D01*
X11929Y-14806D02*
X11982Y-14860D01*
X11929Y-14806D02*
Y-14793D01*
X11355Y-14731D02*
X11359D01*
X9697Y-13074D02*
X11355Y-14731D01*
X11069Y-13843D02*
Y-13166D01*
X10413Y-12384D02*
X10684Y-12113D01*
X10673Y-12769D02*
X11069Y-13166D01*
X10673Y-12519D02*
X10744Y-12447D01*
X10139Y-10438D02*
X10691D01*
X10828Y-10575D01*
X11083Y-10052D02*
X11176Y-9960D01*
X10903Y-10606D02*
Y-10544D01*
X10538Y-7488D02*
X10938Y-7888D01*
X10885Y-8440D02*
X11020Y-8305D01*
X10938Y-8161D02*
X11020Y-8243D01*
X10998Y-8136D02*
Y-6145D01*
X10777Y-6244D02*
X10952Y-6069D01*
X10973D01*
X10998Y-6145D02*
X10999Y-6144D01*
X11004D01*
X11048Y-6100D01*
Y-6038D01*
X11004Y-5994D02*
X11048Y-6038D01*
X10925Y-5994D02*
X11004D01*
X10902Y-6017D02*
X10925Y-5994D01*
X10413Y-5626D02*
Y-5590D01*
X9858Y-5035D02*
X10413Y-5590D01*
X10846Y-12800D02*
Y-10942D01*
X10722Y-10868D02*
X10750D01*
X10794Y-10824D01*
Y-10715D01*
X10846Y-10942D02*
X11083Y-10704D01*
Y-10052D01*
X11023Y-10679D02*
Y-8386D01*
X10670Y-10920D02*
X10684Y-10934D01*
X13561Y-16686D02*
X13594Y-16719D01*
X13712D01*
X13774Y-16657D01*
Y-16491D01*
X13633Y-16429D02*
X13712D01*
X13101Y-15898D02*
X13633Y-16429D01*
X13101Y-15898D02*
Y-15681D01*
X11787Y-17482D02*
Y-17392D01*
X11830Y-17348D01*
X12102Y-16999D02*
X12382Y-16719D01*
X11727Y-17431D02*
Y-17367D01*
X11806Y-17288D01*
X11849D02*
X12042Y-17094D01*
Y-16974D01*
X12224Y-16793D01*
X8984Y-18241D02*
X9213D01*
X8318Y-16727D02*
X9779D01*
X9747Y-11751D02*
X9818Y-11822D01*
X8282D02*
X8353Y-11751D01*
X10441Y-18694D02*
X10505Y-18630D01*
X10587D01*
X10728Y-18489D01*
Y-18429D02*
X11727Y-17431D01*
X10355Y-18850D02*
X10441Y-18765D01*
X10251Y-18850D02*
X10355D01*
X10297Y-18740D02*
X10381D01*
X10480Y-18570D02*
X10562D01*
Y-18559D01*
X9968Y-18433D02*
X10063Y-18337D01*
X10414D01*
X9763Y-18629D02*
X9814D01*
X9968Y-18476D01*
Y-18433D01*
X9275Y-18626D02*
X9400Y-18501D01*
X9425Y-18575D02*
X9460Y-18540D01*
X9398Y-18171D02*
X9610Y-18383D01*
Y-18476D02*
Y-18383D01*
X9535Y-18464D02*
Y-18393D01*
X9213Y-18241D02*
X9400Y-18427D01*
X9550Y-18239D02*
X9670Y-18358D01*
X9550Y-18239D02*
Y-17146D01*
X9940Y-16657D02*
Y-16474D01*
X8293Y-13566D02*
X8347D01*
X8293D02*
X8450Y-13723D01*
X8241Y-13686D02*
X8407Y-13852D01*
X8214Y-14110D02*
Y-13787D01*
X8033Y-13605D02*
X8214Y-13787D01*
X8093Y-13581D02*
X8198Y-13686D01*
X8241D01*
X7973Y-17192D02*
X8227Y-17445D01*
X8534Y-14984D02*
Y-13894D01*
X8266Y-13626D02*
X8534Y-13894D01*
X8223Y-13626D02*
X8266D01*
X8161Y-13563D02*
X8223Y-13626D01*
X8635Y-12830D02*
X8861Y-12604D01*
X8093Y-13581D02*
Y-13304D01*
X7973Y-17192D02*
Y-12571D01*
X8161Y-13563D02*
Y-13321D01*
X8249Y-13233D01*
X8093Y-13304D02*
X8224Y-13173D01*
X8377D02*
X8921Y-12628D01*
X8224Y-13173D02*
X8377D01*
X8249Y-13233D02*
X8480D01*
X8861Y-12604D02*
Y-12359D01*
X9042Y-12178D02*
Y-11959D01*
X8921Y-12384D02*
X8983Y-12322D01*
X9697Y-12297D02*
X9771Y-12224D01*
X9927D01*
X9877Y-12104D02*
X9944Y-12038D01*
X9927Y-12224D02*
X10064Y-12087D01*
X9902Y-12164D02*
X10004Y-12062D01*
Y-11065D01*
X9944Y-12038D02*
Y-11090D01*
X9701Y-10750D02*
X9763Y-10812D01*
X9581Y-10800D02*
X9713Y-10932D01*
X9785D01*
X9763Y-10812D02*
X9848D01*
X9701Y-10750D02*
Y-10584D01*
X10489Y-9796D01*
X10594D01*
X9641Y-10544D02*
X10534Y-9651D01*
X4711Y-1941D02*
X4902Y-2132D01*
X6121D01*
X6312Y-1941D01*
X6439D01*
X9144Y-2155D02*
X10423D01*
X8449Y-2447D02*
X9652D01*
X13386Y-2208D02*
X13653Y-1941D01*
X17107Y-1942D02*
X17883D01*
X17883Y-1941D01*
X18797Y-5481D02*
Y-1433D01*
X10459Y-1658D02*
X11253Y-2452D01*
X3365Y-15868D02*
X3383Y-15850D01*
X3384Y-15848D02*
X3388Y-15845D01*
X4089Y-11118D02*
X4120Y-11149D01*
X5010Y-11172D02*
Y-11149D01*
X12916Y-15788D02*
X12920Y-15788D01*
X3388Y-13663D02*
X3736D01*
X3325Y-13600D02*
Y-13481D01*
Y-13600D02*
X3388Y-13663D01*
X20538Y-16457D02*
X20629Y-16366D01*
X22011D01*
X16698Y-16489D02*
X16817Y-16371D01*
X17381D01*
X17883Y-16574D02*
Y-16574D01*
X20538Y-14266D02*
Y-14147D01*
X20701Y-13983D01*
X21306Y-12248D02*
Y-11959D01*
X19758Y-12010D02*
X19885Y-12137D01*
X19757Y-11959D02*
X19758D01*
X20538D02*
Y-11853D01*
X21572Y-11690D02*
X21841Y-11959D01*
X22087D01*
X22087Y-11959D01*
X15519Y-11822D02*
X15608Y-11733D01*
X17018D02*
X17102Y-11818D01*
Y-11959D02*
Y-11818D01*
X15519Y-9651D02*
Y-9536D01*
X15588Y-9467D01*
X17034D01*
X17102Y-9536D01*
X15519Y-7491D02*
Y-7343D01*
X15557Y-7529D02*
X17018D01*
X16334Y-556D02*
X16343Y-565D01*
X17843D01*
X17883Y-525D01*
X13653Y-445D02*
Y-420D01*
X9818D02*
Y-417D01*
X12992Y-2945D02*
X14028D01*
X9652Y-2447D02*
X9818Y-2613D01*
Y-2728D02*
Y-2613D01*
X12916Y-5080D02*
Y-4951D01*
X13904Y-4850D02*
X14135Y-5081D01*
X8282Y-5038D02*
Y-5035D01*
X8585Y-5038D02*
X8778Y-4845D01*
X9779D01*
X9818Y-5035D02*
Y-4884D01*
X14399Y-7184D02*
X14402Y-7186D01*
Y-7343D02*
Y-7186D01*
X9818Y-7459D02*
Y-7343D01*
X9578Y-7136D02*
X10484D01*
X9370Y-7344D02*
X9578Y-7136D01*
X12994Y-9869D02*
X14066D01*
X14402Y-9676D02*
Y-9651D01*
X10417Y-9505D02*
X10478Y-9566D01*
X10534Y-9651D02*
Y-9566D01*
X12916Y-12076D02*
X13007Y-12167D01*
X12916Y-12076D02*
Y-11959D01*
X8353Y-11751D02*
X9747D01*
X12997Y-14507D02*
X14028D01*
X5010Y-16500D02*
X5139Y-16371D01*
X7112D01*
X7188Y-16447D01*
X1849Y-14140D02*
X1881Y-14108D01*
X6398D01*
X2629Y-11959D02*
X3321D01*
X7188Y-9651D02*
Y-9525D01*
X1849Y-7344D02*
Y-7343D01*
X1068Y-7344D02*
Y-7343D01*
X6439Y-7460D02*
Y-7343D01*
X6350Y-7550D02*
X6439Y-7460D01*
X3365Y-7550D02*
X6350D01*
X4908Y-5256D02*
X5010Y-5154D01*
Y-5035D01*
X3321D02*
Y-5035D01*
X2629Y-5035D02*
Y-5035D01*
X6439Y-541D02*
Y-420D01*
X5010Y-561D02*
X5080Y-631D01*
X5010Y-561D02*
Y-420D01*
X12224Y-17082D02*
X12916D01*
X7192Y-1436D02*
Y-1228D01*
X6704Y-740D02*
X7192Y-1228D01*
X4699Y-867D02*
X4826Y-740D01*
X4699Y-1129D02*
Y-867D01*
X6443Y-8520D02*
Y-8359D01*
X6294Y-12800D02*
X6443Y-12950D01*
X4115Y-12800D02*
X6294D01*
X3989Y-12918D02*
X4191Y-13120D01*
X5706Y-13026D02*
Y-12975D01*
X3921Y-15614D02*
X3941Y-15594D01*
X3502Y-15614D02*
X3921D01*
X3471Y-15583D02*
X3502Y-15614D01*
X1255Y-15099D02*
X2245D01*
X1072Y-15281D02*
X1255Y-15099D01*
X1072Y-15282D02*
Y-15281D01*
X9934Y-10643D02*
X10139Y-10438D01*
X9822Y-10667D02*
Y-10643D01*
X11933Y-10836D02*
X13589D01*
X13657Y-10768D01*
Y-10667D01*
X9896Y-6244D02*
X10777D01*
X9822Y-6170D02*
X9896Y-6244D01*
X11031Y-3582D02*
X11303Y-3854D01*
X10167Y-3582D02*
X11031D01*
X10005Y-3745D02*
X10167Y-3582D01*
X17246Y-6348D02*
Y-6191D01*
X17107Y-6051D02*
X17246Y-6191D01*
X18257Y-8208D02*
X18328Y-8279D01*
X17119Y-8208D02*
X18257D01*
X20179Y-7994D02*
X20542Y-8357D01*
X19698Y-7994D02*
X20179D01*
X17139Y-12950D02*
X17211Y-12878D01*
X17107Y-12975D02*
Y-12950D01*
X17589Y-15088D02*
X18344D01*
X17107Y-15282D02*
Y-15259D01*
X19758Y-4249D02*
X19759Y-4250D01*
X19757Y-4249D02*
X19758D01*
X19759Y-4250D02*
X19761D01*
X20538Y-4249D02*
X20538D01*
X20539Y-4250D01*
X20542D01*
X19757Y-6557D02*
X19758D01*
X19759Y-6557D01*
X19761D01*
X19757Y-8862D02*
X19758D01*
X19759Y-8863D01*
X19761D01*
X15520Y-1942D02*
X15523D01*
X15519Y-1941D02*
X15520Y-1942D01*
X1067Y-4253D02*
X1067Y-4253D01*
X1071D01*
X5702Y-8865D02*
X5703Y-8865D01*
X5706D01*
X5702Y-11172D02*
X5703Y-11173D01*
X5706D01*
X5703Y-15788D02*
X5706D01*
X5702Y-15788D02*
X5703Y-15788D01*
X2629Y-8865D02*
X2629Y-8865D01*
X2633D01*
X2629Y-4249D02*
X2629Y-4250D01*
X2633D01*
X6477Y-4253D02*
X6477Y-4253D01*
X6481D01*
X2629Y-15788D02*
X2629Y-15788D01*
X2633D01*
X2629Y-13480D02*
X2629Y-13481D01*
X2633D01*
X7188Y-11172D02*
X7188Y-11173D01*
X7192D01*
X7188Y-8865D02*
X7192D01*
X7188Y-8865D02*
X7188Y-8865D01*
X7188Y-15788D02*
X7188Y-15788D01*
X7192D01*
X7188Y-18096D02*
X7188Y-18096D01*
X7192D01*
X12916Y-8865D02*
X12916Y-8865D01*
X12920D01*
X14402Y-13481D02*
X14406D01*
X14402Y-15788D02*
X14402Y-15788D01*
X14406D01*
X14402Y-18096D02*
X14406D01*
X14402Y-18096D02*
X14402Y-18096D01*
X3053Y-420D02*
X3321D01*
X2895Y-577D02*
X3053Y-420D01*
X2316Y-577D02*
X2895D01*
X2159Y-420D02*
X2316Y-577D01*
X1849Y-420D02*
X2159D01*
X8282Y-9749D02*
Y-9651D01*
X6350Y-12175D02*
X6439Y-12085D01*
X1948Y-12175D02*
X6350D01*
X1849Y-12076D02*
X1948Y-12175D01*
X1849Y-12076D02*
Y-11959D01*
X17883Y-11172D02*
Y-11060D01*
X1072Y-11197D02*
Y-11173D01*
X17244Y-18027D02*
X17335Y-18119D01*
X1849Y-6557D02*
Y-6544D01*
X21310Y-6582D02*
Y-6557D01*
X1610Y-16038D02*
X1849Y-15800D01*
X1143Y-16038D02*
X1610D01*
X1072Y-15968D02*
X1143Y-16038D01*
X1072Y-15968D02*
Y-15788D01*
X21653Y-15812D02*
X21742Y-15901D01*
X21310Y-15812D02*
Y-15788D01*
X1072Y-18108D02*
Y-18096D01*
X1853Y-18119D02*
Y-18096D01*
X12920Y-8888D02*
Y-8865D01*
X6481Y-4276D02*
Y-4253D01*
X9822Y-18121D02*
Y-18096D01*
X10330Y-18121D02*
X10363Y-18154D01*
X10434D01*
X10444Y-18164D01*
X11328Y-1040D02*
X11376Y-1088D01*
X12585Y-1116D02*
X17910D01*
X18110Y-1078D02*
X18326Y-1294D01*
X5706Y-8359D02*
Y-8205D01*
X4806Y-8277D02*
X4878Y-8205D01*
X5706D01*
X3810Y-7923D02*
X4699D01*
X3680Y-8053D02*
X3810Y-7923D01*
X3680Y-8302D02*
Y-8053D01*
Y-8302D02*
X4084Y-8705D01*
X4541D01*
X4673Y-8837D01*
Y-9123D02*
Y-8837D01*
X4639Y-9157D02*
X4673Y-9123D01*
X4358Y-9157D02*
X4639D01*
X4267Y-9066D02*
X4358Y-9157D01*
X1072Y-10778D02*
Y-10667D01*
Y-10778D02*
X1270Y-10976D01*
X1072Y-8253D02*
X1143Y-8182D01*
X2027D01*
X3723Y-8827D02*
X4308D01*
X1068Y-9766D02*
Y-9651D01*
X14402Y-13480D02*
X14402Y-13481D01*
X13657D02*
Y-13481D01*
X14402D02*
Y-13480D01*
X17335Y-6483D02*
X17350Y-6498D01*
X17883Y-6557D02*
Y-6498D01*
X20538Y-5339D02*
Y-5035D01*
X18643Y-9984D02*
Y-7694D01*
X18601Y-10027D02*
X18643Y-9984D01*
X18601Y-10188D02*
Y-10027D01*
Y-10188D02*
X18654Y-10241D01*
X18446Y-12976D02*
X18518Y-12903D01*
X18446Y-14835D02*
Y-12976D01*
Y-14835D02*
X18509Y-14898D01*
X18118Y-17325D02*
X18550Y-16894D01*
X15992Y-17325D02*
X18118D01*
X15383Y-17526D02*
X15402Y-17546D01*
X15213Y-17526D02*
X15383D01*
X14311Y-17813D02*
X14927D01*
X14160Y-17965D02*
Y-17963D01*
X13210Y-18408D02*
X13289Y-18329D01*
X13210Y-18462D02*
Y-18408D01*
X12932Y-18740D02*
X13210Y-18462D01*
X12837Y-18740D02*
X12932D01*
X13353Y-2523D02*
X13497Y-2668D01*
X2633Y-10806D02*
Y-10667D01*
Y-10806D02*
X2683Y-10857D01*
X6477Y-2741D02*
Y-2731D01*
X7433Y-17879D02*
X7747Y-18192D01*
X7433Y-17879D02*
Y-17458D01*
X7417Y-17441D02*
X7433Y-17458D01*
X6947Y-17385D02*
X7276D01*
X6621Y-17059D02*
X6947Y-17385D01*
X6621Y-17059D02*
Y-16974D01*
X6187Y-16877D02*
X6523D01*
X6141Y-16831D02*
X6187Y-16877D01*
X5652Y-16831D02*
X6141D01*
X5600Y-16779D02*
X5652Y-16831D01*
X4926Y-16779D02*
X5600D01*
X4853Y-16442D02*
Y-16320D01*
X5060Y-16113D01*
X5228D01*
X5343Y-15999D01*
Y-15357D01*
X5622Y-15077D01*
X6258Y-14667D02*
X6333Y-14591D01*
X6774Y-14391D02*
Y-12800D01*
X6681Y-12707D02*
X6774Y-12800D01*
X6959Y-11987D02*
Y-10375D01*
X6090Y-9506D02*
X6959Y-10375D01*
X11313Y-18740D02*
X11398D01*
X12102Y-18036D02*
Y-18013D01*
X12164Y-17951D01*
X12326D01*
X12979Y-17735D02*
X13041Y-17673D01*
Y-17590D01*
X13344Y-17287D01*
X13737D01*
X14160Y-16864D02*
Y-16436D01*
X13594Y-15933D02*
X13658D01*
X13532Y-15871D02*
Y-15606D01*
X13161Y-15235D02*
X13532Y-15606D01*
X13161Y-15235D02*
Y-15150D01*
X13028Y-15017D02*
X13161Y-15150D01*
X12102Y-12884D02*
X12111Y-12876D01*
X11451Y-9892D02*
X11481Y-9921D01*
X11451Y-9892D02*
Y-9531D01*
X10534Y-2908D02*
Y-2728D01*
X11567Y-18464D02*
X11598Y-18432D01*
Y-18432D01*
X12140Y-17891D01*
X12301D02*
X12469Y-17723D01*
Y-17638D01*
X12699Y-17407D01*
X13139D01*
X13633Y-15993D02*
X14100Y-16460D01*
X13472Y-15896D02*
X13570Y-15993D01*
X13472Y-15896D02*
Y-15631D01*
X13101Y-15260D02*
X13472Y-15631D01*
X13101Y-15260D02*
Y-15175D01*
X9979Y-4104D02*
X10597D01*
X9697Y-3823D02*
X9979Y-4104D01*
X9697Y-2849D02*
X9818Y-2728D01*
X11735Y-11680D02*
X11747Y-11692D01*
X19961Y-7341D02*
X20538D01*
X19816Y-7196D02*
X19961Y-7341D01*
X19698Y-7196D02*
X19816D01*
X19073Y-7820D02*
X19698Y-7196D01*
X18881Y-7820D02*
X19073D01*
X18772Y-7908D02*
X18794D01*
X18763Y-7916D02*
X18772Y-7908D01*
X18721Y-10076D02*
X18763Y-10034D01*
X18721Y-10139D02*
X18774Y-10191D01*
X18646Y-11002D02*
X18774Y-10874D01*
X18646Y-12645D02*
X18669Y-12668D01*
X18652Y-12734D02*
X18669Y-12717D01*
X17807Y-17933D02*
X18337Y-17403D01*
X14280Y-18013D02*
X14360Y-17933D01*
X13420Y-18539D02*
X13630D01*
X10805Y-18464D02*
X11787Y-17482D01*
X11830Y-17348D02*
X11873D01*
X12102Y-17119D01*
Y-16999D01*
X12382Y-16719D02*
X12975D01*
X13008Y-16686D01*
X13561D01*
X13712Y-16429D02*
X13774Y-16491D01*
X11381Y-14731D02*
X11403Y-14753D01*
X9697Y-13074D02*
Y-12297D01*
X10064Y-12087D02*
Y-11027D01*
X9848Y-10812D02*
X10064Y-11027D01*
X8161Y-7260D02*
X8223Y-7198D01*
X8341D02*
X8355Y-7212D01*
X8911D01*
X9042Y-7343D01*
X14615Y-18740D02*
X14753Y-18601D01*
X17646D02*
X17741Y-18507D01*
X18877D02*
X19022Y-18362D01*
Y-17497D01*
X19757Y-16762D01*
Y-16574D01*
X18910Y-14386D02*
X19192Y-14104D01*
X17545Y-18541D02*
X17639Y-18447D01*
X14417Y-18436D02*
X14523Y-18541D01*
X14110Y-18630D02*
X14304Y-18436D01*
X19757Y-5272D02*
Y-5035D01*
X18858Y-6185D02*
Y-6171D01*
X18583Y-6460D02*
X18858Y-6185D01*
X18541Y-10002D02*
X18583Y-9959D01*
X18541Y-10213D02*
Y-10002D01*
X18594Y-10800D02*
Y-10266D01*
X18458Y-12813D02*
X18472Y-12800D01*
X18458Y-12879D02*
Y-12813D01*
X18449Y-16471D02*
X18490Y-16511D01*
X18449Y-16625D02*
X18490Y-16584D01*
X18093Y-17265D02*
X18449Y-16909D01*
X15857Y-17265D02*
X18093D01*
X14902Y-17753D02*
X15188Y-17466D01*
X14286Y-17753D02*
X14902D01*
X13594Y-17951D02*
X14088D01*
X13264Y-18269D02*
X13276D01*
X13091Y-18442D02*
X13264Y-18269D01*
X13091Y-18464D02*
Y-18442D01*
X11938Y-7908D02*
X12065Y-8035D01*
X11938Y-7908D02*
Y-7595D01*
X22091Y-8526D02*
Y-8357D01*
X11145Y-10166D02*
X11328Y-9983D01*
X17642Y-12334D02*
X17873Y-12104D01*
X17293Y-12698D02*
X17642Y-12349D01*
X17009Y-12698D02*
X17293D01*
X16713Y-15821D02*
Y-12994D01*
X14997Y-16895D02*
X15639D01*
X14325Y-17296D02*
X14596D01*
X13449Y-17771D02*
X13850D01*
X12264Y-18422D02*
X12297Y-18389D01*
X17461Y-18481D02*
X17526Y-18417D01*
X17549D01*
X17579Y-18387D01*
X14618Y-18989D02*
X14723Y-18884D01*
Y-18846D01*
X14907Y-18661D01*
X17671D02*
X17765Y-18567D01*
X22087Y-16878D02*
Y-16574D01*
X15523Y-3744D02*
Y-3630D01*
X15739Y-3415D01*
X18212D01*
X18440Y-3643D01*
X12224Y-16793D02*
Y-16574D01*
X10441Y-18765D02*
Y-18694D01*
X9997Y-18630D02*
X10088D01*
X9933Y-18752D02*
Y-18694D01*
X9834Y-18850D02*
X9933Y-18752D01*
X18229Y-5828D02*
X18364Y-5962D01*
X17107Y-6051D02*
Y-6028D01*
X10534Y-15109D02*
X10820Y-14823D01*
X9652Y-15109D02*
X10534D01*
X9502Y-15259D02*
X9652Y-15109D01*
X9046Y-15282D02*
Y-15259D01*
X10541Y-18474D02*
Y-18464D01*
X10414Y-18337D02*
X10541Y-18464D01*
X9642Y-18589D02*
X9652Y-18599D01*
X9642Y-18589D02*
Y-18508D01*
X9398Y-17199D02*
X9940Y-16657D01*
X8407Y-14942D02*
X9940Y-16474D01*
X8407Y-13142D02*
X8921Y-12628D01*
Y-12384D01*
X8983Y-12322D02*
X9160D01*
X9785Y-10932D02*
X9944Y-11090D01*
X10381Y-18740D02*
Y-18670D01*
X10480Y-18570D01*
X10562Y-18559D02*
X10626Y-18495D01*
Y-18422D01*
X10092Y-18224D02*
X10428D01*
X9670Y-18451D02*
X9714Y-18495D01*
X9670Y-17027D02*
X9759Y-16937D01*
X9883D01*
X10033Y-16788D01*
Y-16483D01*
X8534Y-14984D02*
X10033Y-16483D01*
X9549Y-12164D02*
X9902D01*
X9810Y-10872D02*
X10004Y-11065D01*
X9738Y-10872D02*
X9810D01*
X9641Y-10775D02*
X9738Y-10872D01*
X9641Y-10775D02*
Y-10544D01*
X20488Y-12824D02*
X20542Y-12878D01*
X18847Y-12815D02*
X18856Y-12824D01*
X18132Y-13120D02*
X18398Y-12854D01*
X17272Y-12978D02*
X17414Y-13120D01*
X17107Y-10550D02*
X17208Y-10448D01*
X17107Y-10667D02*
Y-10550D01*
X18847Y-8075D02*
X18976Y-8205D01*
X18847Y-8075D02*
Y-7961D01*
X20542Y-6136D02*
Y-6051D01*
X19741Y-6197D02*
X19746Y-6202D01*
X18938Y-6197D02*
X19741D01*
X18933Y-6202D02*
X18938Y-6197D01*
X20542Y-1436D02*
Y-1281D01*
X9906Y-1245D02*
X10742D01*
X9822Y-1436D02*
Y-1329D01*
Y-8488D02*
Y-8359D01*
X9854Y-8520D02*
X10698D01*
X9822Y-15490D02*
Y-15282D01*
X1072Y-17590D02*
Y-17468D01*
X2633Y-12849D02*
X2682Y-12800D01*
X7249Y-18840D02*
X7396Y-18987D01*
Y-19045D02*
X7460Y-19109D01*
X4422Y-17472D02*
Y-17341D01*
X4343Y-17262D02*
X4422Y-17341D01*
X4191Y-17262D02*
X4343D01*
X4123Y-17195D02*
X4191Y-17262D01*
X4123Y-17195D02*
Y-17173D01*
X2698Y-16429D02*
X3380D01*
X753Y-15422D02*
X974Y-15643D01*
X753Y-15422D02*
Y-5053D01*
X2383Y-4790D02*
X2629Y-5035D01*
X7393Y-19158D02*
X7503Y-19268D01*
X5137Y-17735D02*
X6560Y-19158D01*
X4482Y-17447D02*
X4771Y-17735D01*
X4482Y-17447D02*
Y-17316D01*
X4238Y-17202D02*
X4368D01*
X2754Y-15718D02*
X4238Y-17202D01*
X2754Y-15718D02*
Y-15706D01*
X1997Y-15643D02*
X2691D01*
X999Y-15583D02*
X1937D01*
X831Y-15415D02*
X999Y-15583D01*
X831Y-11907D02*
X984Y-11754D01*
Y-11377D01*
X887Y-11280D02*
X984Y-11377D01*
X831Y-8492D02*
X887Y-8548D01*
X831Y-5060D02*
X1000Y-4890D01*
X1704D02*
X1849Y-5035D01*
X951Y-8172D02*
X1189Y-7934D01*
X951Y-8442D02*
Y-8172D01*
X2730Y-9070D02*
X2853Y-9193D01*
X2972D01*
X3284Y-9506D01*
X4665D02*
X4889Y-9730D01*
Y-9734D02*
Y-9730D01*
X5215Y-9650D02*
X5414D01*
X5618Y-9446D01*
X5253Y-16173D02*
X5403Y-16023D01*
X5085Y-16173D02*
X5253D01*
X4913Y-16467D02*
Y-16345D01*
X4889Y-16657D02*
Y-16491D01*
Y-16657D02*
X4951Y-16719D01*
X5625D01*
X5677Y-16771D02*
X6166D01*
X6212Y-16817D01*
X6548D01*
X6681Y-17034D02*
X6971Y-17325D01*
X7301D01*
X7357Y-17381D01*
X7441D01*
X7870Y-19045D02*
Y-19030D01*
X7805Y-19109D02*
X7870Y-19045D01*
X7650D02*
X7714Y-19109D01*
X7650Y-19045D02*
Y-18987D01*
X7512Y-18850D02*
X7650Y-18987D01*
X7393Y-18786D02*
Y-18665D01*
X7372Y-18644D02*
X7393Y-18665D01*
X7308Y-18644D02*
X7372D01*
X7294Y-18630D02*
X7308Y-18644D01*
X6078Y-18278D02*
X6430Y-18630D01*
X6078Y-18278D02*
Y-18143D01*
X5791Y-17855D02*
X6078Y-18143D01*
X5597Y-17855D02*
X5791D01*
X5513Y-17771D02*
X5597Y-17855D01*
X5483Y-17771D02*
X5513D01*
X5120Y-17407D02*
X5483Y-17771D01*
X4190Y-16592D02*
X4605Y-17008D01*
X3931Y-16592D02*
X4190D01*
X2692Y-15559D02*
X3245Y-16112D01*
X1998Y-15559D02*
X2692D01*
X988Y-15487D02*
X1926D01*
X891Y-15390D02*
X988Y-15487D01*
X891Y-15390D02*
Y-14240D01*
X891Y-12867D02*
X947Y-12811D01*
X947Y-11255D02*
Y-9568D01*
X1009Y-9506D02*
X2484D01*
X2629Y-9651D01*
X8219Y-18510D02*
X8265Y-18464D01*
X7737Y-18510D02*
X8219D01*
X7133Y-17445D02*
X7251D01*
X7076Y-17502D02*
X7133Y-17445D01*
X6953Y-17502D02*
X7076D01*
X6899Y-17448D02*
X6953Y-17502D01*
X6561Y-17084D02*
X6899Y-17423D01*
X6499Y-16937D02*
X6561Y-16999D01*
X6162Y-16937D02*
X6499D01*
X4769Y-16707D02*
X4901Y-16839D01*
X4769Y-16442D02*
X4793Y-16417D01*
Y-16295D01*
X5035Y-16053D01*
X5283Y-15332D02*
X5597Y-15017D01*
X5977D01*
X6198Y-14797D01*
Y-14642D01*
X6309Y-14531D01*
X6714Y-14366D02*
Y-12825D01*
X5702Y-9651D02*
X6136D01*
X8155Y-18850D02*
X8265Y-18740D01*
X7647Y-18786D02*
X7711Y-18850D01*
X7647Y-18786D02*
Y-18728D01*
X7411Y-18599D02*
X7517D01*
X7333Y-18584D02*
X7396D01*
X6602Y-18432D02*
X6741Y-18570D01*
X6317Y-18432D02*
X6602D01*
X4901Y-17347D02*
X5145D01*
X4215Y-16532D02*
X4665Y-16983D01*
X2743Y-15499D02*
X3295Y-16052D01*
X2489Y-15427D02*
X2560Y-15499D01*
X1013Y-15427D02*
X2489D01*
X951Y-15365D02*
X1013Y-15427D01*
X951Y-15200D02*
X1193Y-14957D01*
X951Y-13155D02*
Y-12892D01*
X1951Y-11814D02*
X2096Y-11959D01*
X2629D01*
X8413Y-18570D02*
X8519Y-18464D01*
X7378Y-18269D02*
X7679Y-18570D01*
X7125Y-18269D02*
X7378D01*
X6384Y-17735D02*
X6591D01*
X5643Y-17227D02*
X5876D01*
X5581Y-17165D02*
X5643Y-17227D01*
X5581Y-17165D02*
Y-17011D01*
X4709Y-16732D02*
X4876Y-16899D01*
X5098Y-15993D02*
X5195Y-15896D01*
Y-15335D01*
X6545Y-14450D02*
X6654Y-14341D01*
Y-12850D01*
X6561Y-12757D02*
X6654Y-12850D01*
X6439Y-12263D02*
X6561Y-12384D01*
X8607Y-18630D02*
X8773Y-18464D01*
X6198Y-18228D02*
Y-18093D01*
X5585Y-17673D02*
Y-17578D01*
X5365Y-17483D02*
X5490D01*
X4945Y-17287D02*
X5170D01*
X3686Y-16178D02*
X4240D01*
X3442Y-15933D02*
X3686Y-16178D01*
X3200Y-15682D02*
X3238Y-15643D01*
X3383D01*
X3538Y-15797D01*
X3124Y-15286D02*
X3266Y-15427D01*
X3124Y-15286D02*
Y-14762D01*
X8883Y-19314D02*
Y-19146D01*
X4362Y-17741D02*
X4572Y-17951D01*
X4318Y-17322D02*
X4362Y-17366D01*
X2898Y-16864D02*
X3357Y-17322D01*
X2898Y-16864D02*
Y-16844D01*
X2629Y-16574D02*
X2898Y-16844D01*
X9170Y-18389D02*
X9245Y-18464D01*
X6612Y-16719D02*
X7158Y-17265D01*
X5702Y-16574D02*
X5816Y-16688D01*
X9818Y-16687D02*
Y-16574D01*
X9338Y-18196D02*
X9535Y-18393D01*
X8587Y-17348D02*
Y-17183D01*
X8282Y-16690D02*
X8318Y-16727D01*
X12224Y-16574D02*
X12369Y-16429D01*
X13508D02*
X13653Y-16574D01*
X8282Y-14570D02*
Y-14266D01*
X8161Y-17176D02*
Y-14692D01*
Y-17176D02*
X8310Y-17325D01*
X9105Y-17951D02*
X9278Y-18124D01*
Y-18221D02*
Y-18124D01*
Y-18221D02*
X9460Y-18402D01*
Y-18540D02*
Y-18402D01*
X9425Y-18786D02*
Y-18575D01*
X9528Y-18889D02*
X9583D01*
X9693Y-18999D02*
X9792D01*
X8227Y-12830D02*
X8390D01*
X8033Y-13023D02*
X8227Y-12830D01*
X8467Y-17725D02*
X8984Y-18241D01*
X9400Y-18501D02*
Y-18427D01*
X9171Y-18694D02*
X9239Y-18626D01*
X9171Y-18789D02*
Y-18694D01*
Y-18789D02*
X9271Y-18889D01*
X7973Y-12571D02*
X8282Y-12263D01*
X8345Y-17445D02*
X8407Y-17507D01*
Y-17749D02*
X8986Y-18329D01*
X9216D01*
X9320Y-18433D01*
Y-18495D02*
Y-18433D01*
X9276Y-18539D02*
X9320Y-18495D01*
X8917Y-18786D02*
X9020Y-18889D01*
X9174Y-19045D02*
X9238Y-19109D01*
X9425Y-19314D02*
X9515Y-19404D01*
X10062D01*
X10153Y-19314D02*
Y-19048D01*
X10808Y-18999D02*
X10949Y-18858D01*
X11013Y-18630D02*
X11040D01*
X11281Y-18389D01*
X11352D02*
X12106Y-17635D01*
X13423Y-16779D02*
X13737D01*
X13834Y-16682D01*
X13657Y-16369D02*
X13755D01*
X13161Y-15873D02*
X13657Y-16369D01*
X13161Y-15873D02*
Y-15656D01*
X13028Y-15523D02*
X13161Y-15656D01*
X12675Y-15527D02*
X12803D01*
X12189Y-15039D02*
X12640Y-15491D01*
X11982Y-14907D02*
X12115Y-15039D01*
X11009Y-13874D02*
X11929Y-14793D01*
X11009Y-13874D02*
Y-13190D01*
X10413Y-12594D02*
X11009Y-13190D01*
X10413Y-12594D02*
Y-12384D01*
X10794Y-10715D02*
X10903Y-10606D01*
X10885Y-10526D02*
X10903Y-10544D01*
X10885Y-10526D02*
Y-10126D01*
X10872Y-10113D02*
X10885Y-10126D01*
X10872Y-10113D02*
Y-10051D01*
X10885Y-10039D02*
Y-8440D01*
X11020Y-8305D02*
Y-8243D01*
X10938Y-8161D02*
Y-7888D01*
X10475Y-7488D02*
X10538D01*
X10330Y-7343D02*
X10475Y-7488D01*
X11062Y-18999D02*
Y-18960D01*
X11203Y-18694D02*
X11267Y-18630D01*
X11337D01*
X11492Y-18476D02*
Y-18433D01*
X11535Y-18389D01*
X11556D01*
X12150Y-17795D02*
X12311D01*
X12409Y-17698D02*
Y-17613D01*
X12675Y-17347D01*
X13114D01*
X13562Y-16899D01*
X13787D01*
X14040Y-16646D01*
Y-16485D01*
X13545Y-16053D02*
X13608D01*
X13412Y-15921D02*
X13545Y-16053D01*
X13041Y-15366D02*
X13412Y-15737D01*
X13041Y-15366D02*
Y-15200D01*
X12801Y-15197D02*
X12861Y-15137D01*
X12164Y-14919D02*
X12316D01*
X11982Y-14399D02*
X12102Y-14519D01*
X10846Y-12800D02*
X11982Y-13937D01*
X10534Y-5339D02*
Y-5035D01*
X11059Y-18740D02*
X11143D01*
Y-18670D01*
X11313Y-18570D02*
X11432Y-18451D01*
X11511Y-18329D02*
X11532D01*
X12125Y-17735D01*
X12287D01*
X12349Y-17673D02*
Y-17520D01*
X13448Y-16839D02*
X13762D01*
X13894Y-16707D02*
Y-16645D01*
X13929Y-16610D01*
X13584Y-16113D02*
X13929Y-16459D01*
X13352Y-15945D02*
X13520Y-16113D01*
X13221Y-15751D02*
X13352Y-15882D01*
X13053Y-15463D02*
X13221Y-15631D01*
X12778Y-15467D02*
X12782Y-15463D01*
X12291Y-14979D02*
X12778Y-15467D01*
X11069Y-13843D02*
X12042Y-14816D01*
X10671Y-12768D02*
Y-12496D01*
X10744Y-12424D01*
Y-10959D01*
X11023Y-10679D01*
Y-8386D02*
X11080Y-8329D01*
Y-8218D01*
X10413Y-5626D02*
X10475Y-5688D01*
X9818Y-5035D02*
X9858D01*
X11610Y-11705D02*
X12166Y-12262D01*
X12307D01*
X12751Y-14405D02*
X13037Y-14692D01*
Y-14879D02*
Y-14692D01*
X13055Y-14897D02*
X13078D01*
X13281Y-15123D02*
X14325Y-16168D01*
Y-16446D02*
Y-16168D01*
X14280Y-16491D02*
X14325Y-16446D01*
X13074Y-17951D02*
X13617Y-17407D01*
X12857Y-17951D02*
X13074D01*
X12478Y-18329D02*
X12857Y-17951D01*
X12273Y-18329D02*
X12478D01*
X12239Y-18362D02*
X12273Y-18329D01*
X12070Y-18362D02*
X12239D01*
X12219Y-18786D02*
Y-18714D01*
X12400Y-18850D02*
X12446Y-18896D01*
X12377Y-19109D02*
X12446Y-19040D01*
X22010Y-660D02*
X22087Y-582D01*
Y-420D01*
X20538D02*
Y-318D01*
X8282Y-125D02*
X8307Y-100D01*
X12029Y-18850D02*
X12183D01*
X13762Y-17347D02*
X14220Y-16889D01*
X13221Y-15148D02*
Y-15125D01*
X12420Y-14483D02*
Y-12656D01*
X12345Y-12580D02*
X12420Y-12656D01*
X12345Y-12580D02*
Y-12384D01*
X12283Y-12322D02*
X12345Y-12384D01*
X12014Y-12322D02*
X12283D01*
X11253Y-3430D02*
X11275D01*
X8165Y-1268D02*
Y-1015D01*
X8161Y-1011D02*
X8165Y-1015D01*
X8161Y-1011D02*
Y-541D01*
X20538Y-3031D02*
Y-2728D01*
X20416Y-4171D02*
Y-3153D01*
X19635Y-4952D02*
X20416Y-4171D01*
X18523Y-8359D02*
Y-6435D01*
X18481Y-8402D02*
X18523Y-8359D01*
X18481Y-10238D02*
X18534Y-10291D01*
Y-10775D02*
Y-10291D01*
X18399Y-10910D02*
X18534Y-10775D01*
X18399Y-11817D02*
Y-10910D01*
X17922Y-12224D02*
X17992D01*
X17762Y-12399D02*
Y-12384D01*
X16985Y-12892D02*
X17059Y-12818D01*
X16941Y-16213D02*
X16981Y-16172D01*
X16890Y-16213D02*
X16941D01*
X16738Y-16365D02*
X16890Y-16213D01*
X16339Y-16365D02*
X16738D01*
X16213Y-16491D02*
X16339Y-16365D01*
X16213Y-16763D02*
Y-16491D01*
X15333Y-17406D02*
X15392Y-17347D01*
X14655Y-17406D02*
X15333D01*
X14595Y-17466D02*
X14655Y-17406D01*
X14496Y-17466D02*
X14595D01*
X14474Y-17445D02*
X14496Y-17466D01*
X14345Y-17445D02*
X14474D01*
X13900Y-17891D02*
X14345Y-17445D01*
X13010Y-18569D02*
Y-18438D01*
X12949Y-18630D02*
X13010Y-18569D01*
X12791Y-18630D02*
X12949D01*
X12693Y-18728D02*
X12791Y-18630D01*
X12693Y-18786D02*
Y-18728D01*
X12583Y-18740D02*
X12753Y-18570D01*
X12924D02*
X12950Y-18544D01*
X13532Y-17831D02*
X13875D01*
X14321Y-17385D02*
X14499D01*
X14570Y-17406D02*
X14630Y-17346D01*
X15308D01*
X15367Y-17287D01*
X16153Y-16468D02*
Y-16466D01*
X17034Y-12758D02*
X17318D01*
X17702Y-12374D01*
X17967Y-12164D02*
X18339Y-11793D01*
Y-10800D01*
X18363Y-10776D01*
X18394D02*
X18407Y-10763D01*
X18474Y-10697D01*
Y-10527D01*
X18421Y-10475D02*
X18474Y-10527D01*
X18421Y-10475D02*
Y-8377D01*
X18463Y-6410D02*
X18738Y-6135D01*
Y-5886D02*
X19456Y-5168D01*
Y-3859D02*
X19635Y-3680D01*
Y-3153D01*
X19757Y-3031D01*
Y-2728D01*
X19138Y-7670D02*
X19673Y-7136D01*
X18782Y-7704D02*
X18815Y-7670D01*
X18661Y-10052D02*
X18703Y-10009D01*
X18661Y-10163D02*
X18714Y-10216D01*
X18586Y-12669D02*
X18592Y-12675D01*
X18578Y-12863D02*
X18592Y-12849D01*
X18578Y-12928D02*
Y-12863D01*
X18506Y-13000D02*
X18578Y-12928D01*
X17988Y-17402D02*
X18126D01*
X17971Y-17385D02*
X17988Y-17402D01*
X15607Y-17795D02*
X16017Y-17385D01*
X15439Y-17795D02*
X15607D01*
X15149Y-17675D02*
X15319D01*
X14220Y-17988D02*
X14335Y-17873D01*
X14220Y-17990D02*
Y-17988D01*
X13881Y-18329D02*
X14220Y-17990D01*
X13713Y-18329D02*
X13881D01*
X13313Y-18389D02*
X13653D01*
X13270Y-18495D02*
Y-18433D01*
Y-18495D02*
X13455Y-18680D01*
X13348Y-18893D02*
X13455Y-18786D01*
X13734Y-18867D02*
Y-18689D01*
X13798Y-18624D01*
X13924D01*
X14163Y-18301D02*
X14452D01*
X14572Y-18421D01*
X17425D02*
X17519Y-18327D01*
X18772Y-13442D02*
X18790Y-13461D01*
X18772Y-13442D02*
Y-12784D01*
X18816Y-12739D01*
Y-12658D01*
X19353Y-10054D02*
X19757Y-9651D01*
X19309Y-10157D02*
X19353Y-10113D01*
X19251Y-10157D02*
X19309D01*
X19025Y-10383D02*
X19251Y-10157D01*
X18884Y-10383D02*
X19025D01*
X18840Y-10427D02*
X18884Y-10383D01*
X18840Y-10893D02*
Y-10427D01*
X18708Y-11025D02*
X18840Y-10893D01*
X18708Y-12622D02*
Y-11025D01*
X18729Y-12742D02*
Y-12643D01*
X18712Y-12759D02*
X18729Y-12742D01*
X18712Y-16394D02*
X18730Y-16412D01*
Y-16990D02*
Y-16412D01*
X18646Y-17624D02*
Y-17074D01*
X18006Y-18263D02*
X18646Y-17624D01*
X17592Y-18263D02*
X18006D01*
X17588Y-18267D02*
X17592Y-18263D01*
X17459Y-18267D02*
X17588D01*
X17429Y-18297D02*
X17459Y-18267D01*
X17304Y-18297D02*
X17429D01*
X17239Y-18361D02*
X17304Y-18297D01*
X14618Y-18361D02*
X17239D01*
X13943Y-18521D02*
Y-18437D01*
X13899Y-18564D02*
X13943Y-18521D01*
X13599Y-18655D02*
X13689Y-18564D01*
X14783Y-18870D02*
X14932Y-18721D01*
X22273Y-17698D02*
Y-17482D01*
X22241Y-17451D02*
X22273Y-17482D01*
X22241Y-17451D02*
Y-17218D01*
X22269Y-17190D02*
Y-16974D01*
X22241Y-16947D02*
X22269Y-16974D01*
X20072Y-14266D02*
X20599Y-13740D01*
X14569Y-19378D02*
X14758D01*
X14505Y-19314D02*
Y-19140D01*
X14364Y-18999D02*
X14505Y-19140D01*
X13653Y-11172D02*
X13654Y-11173D01*
X13657D01*
Y-11197D02*
Y-11173D01*
X13654Y-18096D02*
X13657D01*
X13653Y-18096D02*
X13654Y-18096D01*
X13653Y-15788D02*
X13654Y-15788D01*
X13657D01*
X13653Y-13480D02*
X13654Y-13481D01*
X13657D01*
Y-6625D02*
Y-6602D01*
X13653Y-6602D02*
X13654Y-6602D01*
X13657D01*
X13653Y-8865D02*
X13654Y-8865D01*
X13657D01*
X7188Y-13480D02*
X7188Y-13481D01*
X7192D01*
X9818Y-11172D02*
X9819Y-11173D01*
X9822D01*
X10534Y-11172D02*
X10535Y-11173D01*
X10538D01*
X10535Y-18096D02*
X10538D01*
X10534Y-18096D02*
X10535Y-18096D01*
X9818Y-18096D02*
X9819Y-18096D01*
X9822D01*
X9818Y-13480D02*
X9819Y-13481D01*
X9822D01*
X10534Y-13480D02*
X10535Y-13481D01*
X10538D01*
X9818Y-15788D02*
X9819Y-15788D01*
X9822D01*
X10534Y-15788D02*
X10535Y-15788D01*
X10538D01*
X9818Y-4249D02*
X9819Y-4250D01*
X9822D01*
Y-4273D02*
Y-4250D01*
X10534Y-4249D02*
X10535Y-4250D01*
Y-8865D02*
X10538D01*
X10534Y-8865D02*
X10535Y-8865D01*
X9819D02*
X9822D01*
X9818Y-8865D02*
X9819Y-8865D01*
X10534Y-6557D02*
X10535Y-6557D01*
X9822Y-6582D02*
Y-6557D01*
X9818Y-6557D02*
X9819Y-6557D01*
X9822D01*
X17102Y-18096D02*
X17103Y-18096D01*
X17107D01*
X17883Y-18096D02*
X17884Y-18096D01*
X17888D01*
X17107Y-11197D02*
Y-11173D01*
X17883Y-11172D02*
X17884Y-11173D01*
X17888D01*
X17103D02*
X17107D01*
X17102Y-11172D02*
X17103Y-11173D01*
X17102Y-13480D02*
X17103Y-13481D01*
X17107D01*
Y-13503D02*
Y-13481D01*
X17883Y-13480D02*
X17884Y-13481D01*
X17888D01*
X17102Y-15788D02*
X17103Y-15788D01*
X17107D01*
Y-15812D02*
Y-15788D01*
X17883Y-15788D02*
X17884Y-15788D01*
X17888D01*
X17883Y-4249D02*
X17884Y-4250D01*
X17888D01*
X17107Y-4250D02*
Y-4250D01*
X17102Y-4249D02*
X17103Y-4250D01*
X17107D01*
X17883Y-6557D02*
X17884Y-6557D01*
X17888D01*
X17102Y-6557D02*
X17103Y-6557D01*
X17107D01*
X17102Y-8865D02*
X17103Y-8865D01*
X17107D01*
Y-8888D02*
Y-8865D01*
X17883Y-8865D02*
X17884Y-8865D01*
X17888D01*
X21306Y-18096D02*
X21307Y-18096D01*
X21310D01*
X22087Y-18096D02*
X22088Y-18096D01*
X22091D01*
X21306Y-11172D02*
X21307Y-11173D01*
X21310D01*
Y-11197D02*
Y-11173D01*
X22087Y-11172D02*
X22088Y-11173D01*
X22091D01*
X21307Y-15788D02*
X21310D01*
X21306Y-15788D02*
X21307Y-15788D01*
X22087Y-15788D02*
X22088Y-15788D01*
X22091D01*
X21310Y-13585D02*
Y-13481D01*
X21306Y-13480D02*
X21307Y-13481D01*
X21310D01*
X1068Y-18096D02*
X1069Y-18096D01*
X1072D01*
X1068Y-13480D02*
X1069Y-13481D01*
X1072D01*
X1069Y-15788D02*
X1072D01*
X1068Y-15788D02*
X1069Y-15788D01*
X21310Y-4273D02*
Y-4250D01*
X21306Y-4249D02*
X21307Y-4250D01*
X21310D01*
X21307Y-6557D02*
X21310D01*
X21306Y-6557D02*
X21307Y-6557D01*
X21307Y-8863D02*
X21310D01*
X21306Y-8862D02*
X21307Y-8863D01*
X22087Y-8862D02*
X22088Y-8863D01*
X22091D01*
X6439Y-6557D02*
X6440Y-6557D01*
X6443D01*
X3321Y-1941D02*
X3321Y-1942D01*
X3325D01*
X6439Y-1941D02*
X6440Y-1942D01*
X6443D01*
X7188Y-1941D02*
X7188Y-1942D01*
X7192D01*
X12224Y-1941D02*
X12224Y-1942D01*
X12228D01*
X13653Y-1941D02*
X13654Y-1942D01*
X13657D01*
X17103D02*
X17107D01*
X17102Y-1941D02*
X17103Y-1942D01*
X17883Y-1941D02*
X17884Y-1942D01*
X17888D01*
X20538D02*
X20542D01*
X20538Y-1941D02*
X20538Y-1942D01*
X13657Y-4238D02*
Y-4214D01*
X14028Y-4238D02*
X14038Y-4227D01*
X14402Y-4214D02*
X14402Y-4214D01*
X14406D01*
X13653Y-4214D02*
X13654Y-4214D01*
X13657D01*
X2633Y-4273D02*
Y-4250D01*
X2931Y-4273D02*
X2944Y-4260D01*
X3321Y-4249D02*
X3321Y-4250D01*
X1068Y-11172D02*
X1069Y-11173D01*
X1072D01*
X1853Y-11197D02*
Y-11173D01*
X2629Y-11172D02*
X2629Y-11173D01*
X2633D01*
X1069Y-8865D02*
X1072D01*
X1068Y-8865D02*
X1069Y-8865D01*
X3321Y-8865D02*
X3321Y-8865D01*
X3325D01*
X1069Y-6557D02*
X1072D01*
X1068Y-6557D02*
X1069Y-6557D01*
X6440Y-18096D02*
X6443D01*
X6439Y-18096D02*
X6440Y-18096D01*
X8282Y-18096D02*
X8282Y-18096D01*
X8286D01*
X8282Y-15788D02*
X8282Y-15788D01*
X8286D01*
X8282Y-13480D02*
X8282Y-13481D01*
X8286D01*
X8282Y-11172D02*
X8282Y-11173D01*
X8286D01*
X8282Y-6557D02*
X8286D01*
X8282Y-6557D02*
X8282Y-6557D01*
X8282Y-1941D02*
X8282Y-1942D01*
X8286D01*
X3321Y-6557D02*
X3321Y-6557D01*
X3325D01*
X1069Y-1942D02*
X1072D01*
X1068Y-1941D02*
X1069Y-1942D01*
X15520Y-4250D02*
X15523D01*
X15519Y-4249D02*
X15520Y-4250D01*
X15519Y-8865D02*
X15520Y-8865D01*
X15523D01*
X15520Y-6557D02*
X15523D01*
X15519Y-6557D02*
X15520Y-6557D01*
X15519Y-11172D02*
X15520Y-11173D01*
X15523D01*
X15519Y-13480D02*
X15520Y-13481D01*
X15523D01*
X15519Y-18096D02*
X15520Y-18096D01*
X15523D01*
X15519Y-15788D02*
X15520Y-15788D01*
X15523D01*
X3325Y-15828D02*
X3341Y-15845D01*
X3365Y-15868D01*
X3388Y-15845D02*
X3438D01*
X3384Y-15848D02*
X3384Y-15848D01*
X3466Y-15873D02*
X3641D01*
X4661Y-16003D02*
X4851Y-15812D01*
X3341Y-15845D02*
X3388D01*
X3325D02*
Y-15828D01*
Y-15788D01*
X2629Y-11282D02*
Y-11197D01*
X3321Y-4250D02*
X3325D01*
X10535Y-6557D02*
X10538D01*
X10535Y-4250D02*
X10538D01*
X14753Y-18601D02*
X14882D01*
X17646D01*
X17646D01*
X17741Y-18507D02*
X17741D01*
X17963D02*
X18877D01*
X22181Y-17705D02*
X22212Y-17673D01*
X22087Y-16878D02*
X22181Y-16972D01*
X16334Y-16489D02*
X16698D01*
X17584Y-16574D02*
X17883D01*
X18052Y-18786D02*
X18056Y-18781D01*
X15350Y-18786D02*
X18052D01*
X17811Y-18668D02*
X17864Y-18721D01*
X14547Y-18481D02*
X17461D01*
X18766Y-17935D02*
Y-17764D01*
X18850Y-14270D02*
X19075Y-14044D01*
X19758Y-12010D02*
Y-11959D01*
X14523Y-18541D02*
X17545D01*
X17639Y-18447D02*
X18339D01*
X13599Y-18740D02*
Y-18655D01*
Y-18655D01*
X13689Y-18564D02*
X13837D01*
X13899D01*
X18002Y-18267D02*
X18006Y-18263D01*
X18712Y-16394D02*
Y-13417D01*
X14572Y-18421D02*
X17425D01*
X18592Y-12849D02*
Y-12709D01*
Y-12675D01*
Y-12675D01*
Y-12675D02*
X18609Y-12692D01*
X18586Y-12669D02*
X18592Y-12675D01*
X18736Y-7704D02*
X18782D01*
X18782D01*
X14976Y-17933D02*
X17807D01*
X18763Y-7938D02*
Y-7916D01*
Y-7938D02*
X18794Y-7908D01*
X18881Y-7820D01*
X18449Y-16909D02*
Y-16625D01*
Y-16614D01*
X18490Y-16584D02*
Y-16573D01*
X18858Y-6171D02*
X18902Y-6127D01*
X19757Y-5339D02*
Y-5272D01*
X13627Y-18329D02*
X13687Y-18269D01*
X13793D01*
X18694Y-7644D02*
X19262Y-7076D01*
X19648D01*
X19669D01*
X19722D01*
X20601Y-6196D01*
X20663Y-6134D01*
X20659Y-5460D02*
X20663Y-5464D01*
Y-6134D02*
Y-5968D01*
Y-5464D01*
X12753Y-18570D02*
X12766D01*
X12924D01*
X16981Y-13397D02*
X16985Y-13393D01*
Y-13058D01*
X11253Y-3022D02*
X11277Y-3046D01*
X11253Y-3408D02*
X11275Y-3430D01*
X11253D02*
Y-3408D01*
Y-3345D01*
Y-3022D01*
Y-2452D01*
X11508Y-7624D02*
X11550Y-7666D01*
X11275Y-3430D02*
X11523Y-3678D01*
X11550Y-11858D02*
Y-7666D01*
X11523Y-5515D02*
Y-4121D01*
X12420Y-14483D02*
X12895Y-14957D01*
X12831Y-18389D02*
X13041Y-18179D01*
X13449Y-17771D01*
X13429D02*
X13449D01*
X14687Y-17205D02*
X14997Y-16895D01*
X15639D02*
X16093Y-16442D01*
X18079Y-660D02*
X18141D01*
X15641Y-222D02*
X16093Y-674D01*
X17642Y-12349D02*
Y-12349D01*
Y-12334D01*
X18320Y-10716D02*
X18370D01*
X18403Y-6385D02*
Y-6135D01*
X18678Y-5861D01*
X21996Y-674D02*
X22010Y-660D01*
X11824Y-18999D02*
X11974Y-19150D01*
X11610Y-11705D02*
Y-7641D01*
Y-2724D01*
X12309Y-19109D02*
X12377D01*
X12000Y-18495D02*
X12219Y-18714D01*
X12166Y-12262D02*
X12166D01*
X10466Y-1581D02*
X11610Y-2724D01*
X12446Y-19040D02*
Y-18896D01*
Y-18896D01*
X12307Y-12262D02*
X12405Y-12359D01*
X12751Y-12705D01*
Y-12901D02*
Y-12705D01*
X13497Y-2668D02*
X13653D01*
X11598Y-18455D02*
Y-18432D01*
X12345Y-14765D02*
X12657Y-15077D01*
X12717Y-15137D01*
X11481Y-11987D02*
Y-9921D01*
X12529Y-17748D02*
X12541Y-17735D01*
X12861D01*
X12682Y-15017D02*
X13028D01*
X12102Y-14349D02*
Y-12884D01*
Y-12609D01*
X13161Y-15235D02*
Y-15235D01*
X14135Y-5081D02*
X14402D01*
X10744Y-12447D02*
Y-12424D01*
X10671Y-12768D02*
X10673Y-12769D01*
X10998Y-8136D02*
X11048Y-8186D01*
X11080Y-8218D01*
X8282Y-5038D02*
X8585D01*
X10475Y-5688D02*
X10511D01*
X10511D01*
X11176Y-9960D02*
Y-6081D01*
Y-5981D01*
X10534Y-5339D02*
X10656Y-5460D01*
X11176Y-5981D01*
X10684Y-12113D02*
Y-10934D01*
Y-10907D01*
X10670Y-10920D02*
X10684Y-10907D01*
X10722Y-10868D01*
X10949Y-18858D02*
Y-18793D01*
X11348Y-18393D02*
X11352Y-18389D01*
X11344D02*
X11352D01*
X10594Y-9796D02*
X10656Y-9734D01*
X8161Y-7426D02*
Y-7260D01*
X9042Y-7344D02*
X9370D01*
X12650Y-15587D02*
X12828D01*
X11359Y-14731D02*
X11403Y-14775D01*
X11429Y-14801D01*
X11359Y-14731D02*
X11381D01*
X11403Y-14780D02*
X11429Y-14805D01*
X11403Y-14780D02*
Y-14775D01*
Y-14753D01*
X14259Y-9676D02*
X14402D01*
X8407Y-14942D02*
Y-13852D01*
X9160Y-12322D02*
X9378Y-12104D01*
X9877D01*
X9652Y-18599D02*
X9733D01*
X9610Y-18476D02*
X9642Y-18508D01*
X9733Y-18599D02*
X9763Y-18629D01*
X10541Y-18464D02*
X10551D01*
X9714Y-18495D02*
X9736Y-18517D01*
X9798D01*
X9550Y-17146D02*
X9670Y-17027D01*
Y-18451D02*
Y-18358D01*
X8480Y-13233D02*
X8534Y-13179D01*
X9549Y-12164D01*
X9826Y-18490D02*
X9880Y-18435D01*
X9908Y-18408D02*
X10092Y-18224D01*
X10428D02*
X10626Y-18422D01*
X10478Y-9566D02*
X10534D01*
X8917Y-18694D02*
X8981Y-18630D01*
X9072Y-18539D01*
X9241D01*
X9276D01*
X8033Y-17134D02*
X8077Y-17177D01*
X8285Y-17385D01*
X8033Y-17134D02*
Y-13605D01*
Y-13023D01*
X9171Y-18789D02*
Y-18789D01*
X8390Y-12830D02*
X8635D01*
X8861Y-12359D02*
X9042Y-12178D01*
X9580Y-19158D02*
X9743D01*
X9887D01*
X14196Y-14339D02*
X14402D01*
X8310Y-17325D02*
X8310D01*
X8395D01*
X9020Y-17951D02*
X9105D01*
X8527Y-17458D02*
X9020Y-17951D01*
X9679Y-18999D02*
X9693D01*
X9583Y-18889D02*
X9648Y-18953D01*
X9693Y-18999D01*
X10728Y-18489D02*
Y-18429D01*
X11806Y-17288D02*
X11849D01*
X13592Y-16574D02*
Y-16566D01*
X12369Y-16429D02*
X12857D01*
X12975D02*
X13508D01*
X9779Y-16727D02*
X9818Y-16687D01*
X6380Y-16719D02*
X6499D01*
X6612D01*
X7812Y-17321D02*
X8880Y-18389D01*
X8995D01*
X9058D02*
X9170D01*
X2629Y-16572D02*
X3321D01*
X5073Y-17951D02*
X5437Y-18315D01*
X4362Y-17741D02*
Y-17366D01*
X4572Y-17951D02*
X4951D01*
X5073D01*
X3200Y-15871D02*
Y-15692D01*
Y-15682D01*
X4725Y-17068D02*
Y-17068D01*
Y-16918D01*
Y-17068D02*
X4803Y-17145D01*
X3885Y-15427D02*
X4240D01*
X4279Y-15467D01*
X4381Y-15568D01*
X7802Y-18630D02*
X7965D01*
X8459D02*
X8607D01*
X7332Y-18329D02*
X7542Y-18539D01*
X7633Y-18630D01*
X4926Y-17287D02*
X4945D01*
X6299Y-18329D02*
X6903D01*
X7015D02*
X7332D01*
X6198Y-18228D02*
X6299Y-18329D01*
X4709Y-16732D02*
Y-16417D01*
X5469Y-16899D02*
X5536Y-16966D01*
X5581Y-17011D01*
X5242Y-16899D02*
X5469D01*
X1849Y-12104D02*
Y-12076D01*
X5572Y-14957D02*
X5798D01*
X5840D01*
X8265Y-18570D02*
X8413D01*
X6439Y-12263D02*
Y-12085D01*
Y-11959D01*
X6523Y-14471D02*
X6545Y-14450D01*
X6305D02*
X6312D01*
X6545D01*
X6654Y-12850D02*
Y-12850D01*
X6501Y-12697D02*
X6561Y-12757D01*
X6654Y-12850D01*
X6561Y-12757D02*
Y-12757D01*
Y-12587D02*
Y-12384D01*
X4116Y-16489D02*
X4160Y-16532D01*
X3661Y-16238D02*
X3865D01*
X3921D01*
X6741Y-18570D02*
X6747D01*
X7235D01*
X7319D01*
X7841Y-18850D02*
X8141D01*
X8155D01*
X8141D02*
X8215Y-18776D01*
Y-18721D01*
X5340Y-17543D02*
X5369D01*
X5465D01*
X5525Y-17698D02*
X5622Y-17795D01*
X4665Y-17112D02*
X4743Y-17189D01*
X4665Y-17112D02*
Y-17093D01*
Y-16983D01*
X6136Y-9651D02*
X6621Y-10136D01*
X6899Y-10415D01*
X7373Y-17998D02*
X7433Y-18058D01*
X7672Y-18296D01*
X7373Y-17998D02*
Y-17904D01*
Y-17567D01*
X7672Y-18382D02*
Y-18296D01*
X6621Y-12732D02*
Y-12241D01*
X6899Y-17448D02*
Y-17423D01*
X891Y-14240D02*
X891Y-14240D01*
X1044Y-14086D01*
X891Y-13507D02*
Y-12867D01*
X4628Y-17159D02*
X4683Y-17214D01*
X4876Y-17407D01*
X7870Y-19030D02*
X7900Y-18999D01*
X7929Y-18970D01*
X5120Y-17407D02*
X5120D01*
X4876D02*
X4876D01*
X5120D01*
X6825Y-18630D02*
X7210D01*
X7294D01*
X4889Y-9730D02*
Y-9730D01*
X1189Y-7934D02*
Y-7499D01*
Y-7464D01*
X1068Y-7343D02*
X1069Y-7344D01*
X1189Y-7464D01*
X1068Y-7344D02*
X1069D01*
X1849D01*
X3284Y-9506D02*
X3284D01*
X4665D01*
X7441Y-17381D02*
X8001Y-17940D01*
X8011Y-17950D01*
X8001Y-17960D02*
Y-17940D01*
X7019Y-12012D02*
Y-10027D01*
X5010Y-7319D02*
X5179D01*
X3200Y-9734D02*
X3262Y-9796D01*
X1009Y-7198D02*
X1908D01*
X2570D01*
X3176D01*
X7332Y-17441D02*
X7417D01*
X7417D01*
X7747Y-18192D02*
X7757Y-18202D01*
X7747Y-18212D02*
Y-18192D01*
X831Y-14215D02*
X831Y-14215D01*
X984Y-14061D01*
X5073Y-17735D02*
X5137D01*
X6786Y-19158D02*
X7393D01*
X2754Y-15718D02*
Y-15718D01*
X1728Y-15705D02*
X1790Y-15643D01*
X974D02*
X1131D01*
X2629Y-5035D02*
X3321D01*
X5208Y-17891D02*
X6695Y-19378D01*
X4841Y-17891D02*
X5208D01*
X3321Y-14992D02*
X3660Y-15331D01*
X11145Y-11068D02*
X11293Y-10920D01*
X11145Y-12282D02*
Y-11068D01*
Y-10166D01*
X11328Y-7720D02*
Y-5434D01*
X5555Y-6322D02*
X5568Y-6309D01*
X5706Y-6170D01*
X4089Y-10844D02*
X6405D01*
X6443Y-10806D01*
X5555Y-13026D02*
X5706D01*
X1072Y-12973D02*
X1610D01*
X9822Y-17692D02*
X9869Y-17739D01*
X10743D02*
X10995Y-17486D01*
X9046Y-15259D02*
X9502D01*
X9822Y-10643D02*
X9934D01*
X9822Y-3745D02*
X10005D01*
X10742Y-1245D02*
X10744D01*
X10742D02*
X10898Y-1401D01*
X10981Y-1484D01*
X18110Y-1090D02*
Y-1078D01*
Y-735D01*
X12350Y-1191D02*
X12359Y-1182D01*
X17892D02*
X18181Y-1471D01*
X18183Y-1474D01*
X19093Y-1243D02*
X19172D01*
X17107Y-3745D02*
X17653D01*
X17107Y-6028D02*
X17254D01*
X17455Y-5828D02*
X18166D01*
X18229D01*
X20523Y-6136D02*
X20542D01*
X19090Y-8205D02*
X19093Y-8208D01*
X19322Y-8205D02*
X19987D01*
X18976D02*
X19090D01*
X19322D01*
X19987D02*
X20147D01*
X19320Y-8208D02*
X19322Y-8205D01*
X19323Y-8204D01*
X19986D02*
X19987Y-8205D01*
X18339Y-10641D02*
Y-10628D01*
Y-10562D01*
X17414Y-13120D02*
X17828D01*
X18132D01*
X17107Y-12950D02*
X17139D01*
X19360Y-12824D02*
X20488D01*
X20479Y-12815D02*
X20488Y-12824D01*
X17107Y-15259D02*
X17419D01*
X19984Y-15284D02*
X20542D01*
X11735Y-11680D02*
Y-9709D01*
X17910Y-1116D02*
X18164Y-1370D01*
X18364D01*
X18745Y-989D01*
X19308Y-1243D02*
X20504D01*
X19172D02*
X19189D01*
X19300D02*
X19308D01*
X19189D02*
X19209Y-1263D01*
X19280D01*
X19300Y-1243D01*
X19196Y-1267D02*
X19233D01*
X19236Y-1264D01*
X19287D01*
X19308Y-1243D01*
X18183Y-1474D02*
X18616D01*
X18181Y-1471D02*
X18339D01*
X18616Y-1474D02*
X18821Y-1268D01*
X18896Y-661D02*
X18897Y-660D01*
X18896Y-1334D02*
Y-674D01*
Y-661D01*
X18897Y-660D02*
X22010D01*
X18155Y-674D02*
X18896D01*
X18897D02*
X21996D01*
X13628Y-3793D02*
X13657D01*
Y-3708D01*
X12040Y-3867D02*
X13555D01*
X13628Y-3793D01*
X13653Y-4214D02*
Y-3917D01*
X13778Y-3791D01*
Y-3517D01*
X14028Y-2945D02*
X14188Y-2785D01*
X14402D01*
Y-2692D01*
X13778Y-3517D02*
X14458Y-2837D01*
X14461D01*
X14523Y-2775D01*
Y-2063D01*
X15460Y-1796D02*
X15578D01*
X15578Y-1796D01*
X15315Y-1941D02*
X15460Y-1796D01*
X15578Y-1796D02*
X16961D01*
X12731Y-1904D02*
X12775Y-1948D01*
Y-2005D02*
Y-1948D01*
Y-2005D02*
X12978Y-2208D01*
X13386D01*
X12495Y-1942D02*
X12517Y-1919D01*
X12654D01*
X12669Y-1904D01*
X12731D01*
X12228Y-1942D02*
X12495D01*
X12224Y-2692D02*
Y-2555D01*
X12024Y-2740D02*
Y-2655D01*
X12224Y-2555D02*
X12255Y-2523D01*
X13353D01*
X12024Y-2655D02*
X12245Y-2434D01*
X12700Y-1979D01*
X5959Y-3747D02*
X6481D01*
X5791Y-3580D02*
X5959Y-3747D01*
X4798Y-3580D02*
X5791D01*
X4656Y-3437D02*
X4798Y-3580D01*
X10691Y-5953D02*
Y-5868D01*
Y-5953D02*
X10754Y-6017D01*
X10511Y-5688D02*
X10691Y-5868D01*
X10511Y-5688D02*
X10691Y-5868D01*
X10754Y-6017D02*
X10902D01*
X2570Y-9010D02*
X2755D01*
X1013Y-8504D02*
X1794D01*
X1794Y-8504D01*
X891Y-8467D02*
X953Y-8529D01*
Y-8529D02*
Y-8529D01*
Y-8529D02*
X988Y-8564D01*
X1888D01*
X2454Y-9130D01*
X1913Y-8504D02*
X2479Y-9070D01*
X1794Y-8504D02*
X1913D01*
X2479Y-9070D02*
X2730D01*
X2454Y-9130D02*
X2705D01*
X2017Y-8523D02*
X2083D01*
X1853Y-8359D02*
X2017Y-8523D01*
X2083D02*
X2570Y-9010D01*
X4671Y-8205D02*
X4744Y-8277D01*
X4806D01*
X4806Y-8277D01*
X3756Y-8205D02*
X4671D01*
X4546Y-9066D02*
X4597D01*
X4308Y-8827D02*
X4546Y-9066D01*
X4699Y-7923D02*
X4826Y-7796D01*
Y-7745D01*
X8282Y-7462D02*
Y-7343D01*
Y-7462D02*
X8382Y-7562D01*
X9715D01*
X8784Y-8050D02*
X9211D01*
X8161Y-7426D02*
X8161Y-7426D01*
X8784Y-8050D01*
X9211D02*
X10656Y-9494D01*
X18361Y-10499D02*
Y-8352D01*
X19304Y-7948D02*
X19307D01*
X19329Y-7926D01*
X19630D01*
X9042Y-9653D02*
X9103D01*
Y-9626D01*
X9224Y-9505D01*
X10417D01*
X8282Y-9651D02*
X8838D01*
X8983Y-9796D01*
X9101D01*
X9246Y-9651D01*
X9818D01*
X9581Y-9888D02*
X9818Y-9651D01*
X9581Y-10800D02*
Y-9888D01*
X4926Y-9856D02*
X5156D01*
X5643Y-9506D02*
X6090D01*
X5156Y-9856D02*
X5302Y-9710D01*
X5395Y-9716D02*
X5432D01*
X5302Y-9710D02*
X5389D01*
X5395Y-9716D01*
X5432D02*
X5643Y-9506D01*
X5180Y-9380D02*
X7043D01*
X5010Y-9550D02*
X5180Y-9380D01*
X7043D02*
X7188Y-9525D01*
X5583Y-9651D02*
X5702D01*
X5457Y-9776D02*
X5583Y-9651D01*
X5370Y-9776D02*
X5457D01*
X5364Y-9770D02*
X5370Y-9776D01*
X5327Y-9770D02*
X5364D01*
X5181Y-9916D02*
X5327Y-9770D01*
X1218Y-9916D02*
X5181D01*
X4866Y-9796D02*
X4926Y-9856D01*
X3262Y-9796D02*
X4866D01*
X14402Y-4876D02*
X14523Y-4997D01*
Y-5775D02*
Y-4997D01*
X14284Y-6013D02*
X14523Y-5775D01*
X14284Y-6481D02*
Y-6013D01*
X14402Y-6602D02*
X14405D01*
X14402Y-4876D02*
Y-4227D01*
X21306Y-4249D02*
Y-3944D01*
X21185Y-3823D02*
X21306Y-3944D01*
X21185Y-3823D02*
Y-3053D01*
X21428Y-2811D01*
Y-2063D01*
X22087Y-4831D02*
X22209Y-4952D01*
Y-5730D02*
Y-4952D01*
X21970Y-5968D02*
X22209Y-5730D01*
X21970Y-6196D02*
Y-5968D01*
Y-6196D02*
X22087Y-6314D01*
Y-6557D02*
Y-6314D01*
Y-4831D02*
Y-4273D01*
X21966Y-7258D02*
X22087Y-7137D01*
X21966Y-8080D02*
Y-7258D01*
X21590Y-9028D02*
X22091Y-8526D01*
X21966Y-8080D02*
X22098Y-8212D01*
X22150D01*
X22213Y-8274D01*
Y-8490D02*
Y-8274D01*
X22098Y-8605D02*
X22213Y-8490D01*
X22098Y-9457D02*
X22213Y-9572D01*
Y-11047D02*
Y-9572D01*
X20701Y-11690D02*
X21572D01*
X22087Y-11755D02*
X22209Y-11876D01*
Y-12141D02*
Y-11876D01*
X21966Y-12384D02*
X22209Y-12141D01*
X21966Y-13116D02*
Y-12384D01*
Y-13116D02*
X22087Y-13237D01*
Y-13480D02*
Y-13237D01*
X22241Y-16947D02*
Y-14619D01*
X22087Y-14466D02*
X22241Y-14619D01*
X22087Y-14466D02*
Y-14266D01*
Y-14100D01*
X20701Y-13983D02*
X21971D01*
X22087Y-14100D01*
X20599Y-13740D02*
X22072D01*
X22301Y-13968D01*
Y-16922D02*
Y-13968D01*
X22087Y-7137D02*
Y-6582D01*
Y-11755D02*
Y-11197D01*
X20122Y-14104D02*
X20632Y-13595D01*
X19192Y-14104D02*
X20122D01*
X20632Y-13595D02*
X20663Y-13564D01*
X19676Y-14044D02*
X20663Y-13058D01*
X19075Y-14044D02*
X19676D01*
X20663Y-13058D02*
Y-12914D01*
Y-12914D01*
X20663D02*
X20663Y-12914D01*
X20663Y-12892D02*
X21306Y-12248D01*
X18766Y-17764D02*
X18850Y-17680D01*
X18337Y-17297D02*
X18670Y-16965D01*
X18126Y-17402D02*
X18610Y-16918D01*
X18689Y-16371D02*
Y-14823D01*
X18566Y-14785D02*
X18629Y-14848D01*
X18566Y-14785D02*
Y-13047D01*
X18506Y-14810D02*
X18569Y-14873D01*
X18506Y-14810D02*
Y-13000D01*
X18850Y-17680D02*
Y-14270D01*
X18550Y-16894D02*
Y-16486D01*
X18509Y-16446D02*
X18550Y-16486D01*
X18509Y-16446D02*
Y-14898D01*
X18610Y-16918D02*
Y-16462D01*
X18569Y-16421D02*
X18610Y-16462D01*
X18569Y-16421D02*
Y-14873D01*
X18670Y-16965D02*
Y-16437D01*
X18629Y-16396D02*
X18670Y-16437D01*
X18629Y-16396D02*
Y-14848D01*
X18027Y-18327D02*
X18790Y-17564D01*
Y-13461D01*
D12*
X22087Y-1941D02*
D03*
X22091Y-1942D02*
D03*
X22087Y-1941D02*
D03*
Y-420D02*
D03*
X21306Y-1941D02*
D03*
X21310Y-1942D02*
D03*
X21306Y-1941D02*
D03*
X20538D02*
D03*
X20542Y-1942D02*
D03*
X20538Y-1941D02*
D03*
X20542Y-1436D02*
D03*
X20538Y-420D02*
D03*
X19757Y-1941D02*
D03*
X19761Y-1942D02*
D03*
X19757Y-1941D02*
D03*
X17883D02*
D03*
X17888Y-1942D02*
D03*
X17883Y-1941D02*
D03*
Y-420D02*
D03*
X17102Y-1941D02*
D03*
X17107Y-1942D02*
D03*
X17102Y-1941D02*
D03*
X16334D02*
D03*
X16338Y-1942D02*
D03*
X16334Y-1941D02*
D03*
Y-928D02*
D03*
Y-420D02*
D03*
X15519Y-1941D02*
D03*
X15523Y-1942D02*
D03*
X15519Y-1941D02*
D03*
Y-928D02*
D03*
X14402Y-1941D02*
D03*
X14406Y-1942D02*
D03*
X14402Y-1941D02*
D03*
Y-928D02*
D03*
Y-420D02*
D03*
X13653Y-1941D02*
D03*
X13657Y-1942D02*
D03*
X13653Y-1941D02*
D03*
Y-928D02*
D03*
Y-420D02*
D03*
X12916Y-1941D02*
D03*
X12920Y-1942D02*
D03*
X12916Y-1941D02*
D03*
Y-420D02*
D03*
X12224Y-1941D02*
D03*
X12228Y-1942D02*
D03*
X12224Y-1941D02*
D03*
X12228Y-1436D02*
D03*
X10534Y-1941D02*
D03*
X10538Y-1942D02*
D03*
X10534Y-1941D02*
D03*
X9818D02*
D03*
X9822Y-1942D02*
D03*
X9818Y-1941D02*
D03*
X9822Y-1436D02*
D03*
X9818Y-420D02*
D03*
X9042Y-1941D02*
D03*
X9046Y-1942D02*
D03*
X9042Y-1941D02*
D03*
Y-420D02*
D03*
X8282Y-1941D02*
D03*
X8286Y-1942D02*
D03*
X8282Y-1941D02*
D03*
X8286Y-1436D02*
D03*
X8282Y-420D02*
D03*
X7188Y-1941D02*
D03*
X7192Y-1942D02*
D03*
X7188Y-1941D02*
D03*
X7192Y-1436D02*
D03*
X6439Y-1941D02*
D03*
X6443Y-1942D02*
D03*
X6439Y-1941D02*
D03*
Y-420D02*
D03*
X5702Y-1941D02*
D03*
X5706Y-1942D02*
D03*
X5702Y-1941D02*
D03*
X5010D02*
D03*
X5014Y-1942D02*
D03*
X5010Y-1941D02*
D03*
Y-928D02*
D03*
Y-420D02*
D03*
X3321Y-1941D02*
D03*
X3325Y-1942D02*
D03*
X3321Y-1941D02*
D03*
Y-420D02*
D03*
X2629Y-1941D02*
D03*
X2633Y-1942D02*
D03*
X2629Y-1941D02*
D03*
X1849D02*
D03*
X1853Y-1942D02*
D03*
X1849Y-1941D02*
D03*
Y-420D02*
D03*
X1068Y-1941D02*
D03*
X1072Y-1942D02*
D03*
X1068Y-1941D02*
D03*
X9818Y-18096D02*
D03*
X9822Y-18096D02*
D03*
X9818Y-18096D02*
D03*
X9822Y-17590D02*
D03*
X9818Y-16574D02*
D03*
X1849Y-13480D02*
D03*
X1853Y-13481D02*
D03*
X1849Y-13480D02*
D03*
Y-11959D02*
D03*
X1067Y-4253D02*
D03*
X1071Y-4253D02*
D03*
X1067Y-4253D02*
D03*
X1854D02*
D03*
X1858Y-4253D02*
D03*
X1854Y-4253D02*
D03*
X5702Y-4249D02*
D03*
X5706Y-4250D02*
D03*
X5702Y-4249D02*
D03*
X5010D02*
D03*
X5014Y-4250D02*
D03*
X5010Y-4249D02*
D03*
X7188Y-6557D02*
D03*
X7192Y-6557D02*
D03*
X7188Y-6557D02*
D03*
X3321D02*
D03*
X3325Y-6557D02*
D03*
X3321Y-6557D02*
D03*
Y-5035D02*
D03*
X5702Y-6557D02*
D03*
X5706Y-6557D02*
D03*
X5702Y-6557D02*
D03*
X5706Y-6051D02*
D03*
X5010Y-6557D02*
D03*
X5014Y-6557D02*
D03*
X5010Y-6557D02*
D03*
Y-5035D02*
D03*
X3321Y-4249D02*
D03*
X3325Y-4250D02*
D03*
X3321Y-4249D02*
D03*
X2629D02*
D03*
X2633Y-4250D02*
D03*
X2629Y-4249D02*
D03*
X6477Y-4253D02*
D03*
X6481Y-4253D02*
D03*
X6477Y-4253D02*
D03*
X6481Y-3747D02*
D03*
X6477Y-2731D02*
D03*
X7213Y-4253D02*
D03*
X7217Y-4253D02*
D03*
X7213Y-4253D02*
D03*
X2629Y-6557D02*
D03*
X2633Y-6557D02*
D03*
X2629Y-6557D02*
D03*
Y-5035D02*
D03*
X1849Y-6557D02*
D03*
X1853Y-6557D02*
D03*
X1849Y-6557D02*
D03*
Y-5035D02*
D03*
X1068Y-6557D02*
D03*
X1072Y-6557D02*
D03*
X1068Y-6557D02*
D03*
Y-5035D02*
D03*
X6439Y-6557D02*
D03*
X6443Y-6557D02*
D03*
X6439Y-6557D02*
D03*
X6439Y-8865D02*
D03*
X6443Y-8865D02*
D03*
X6439Y-8865D02*
D03*
X6443Y-8359D02*
D03*
X6439Y-7343D02*
D03*
X5702Y-8865D02*
D03*
X5706Y-8865D02*
D03*
X5702Y-8865D02*
D03*
X5706Y-8359D02*
D03*
X5010Y-8865D02*
D03*
X5014Y-8865D02*
D03*
X5010Y-8865D02*
D03*
Y-7343D02*
D03*
X1849Y-8865D02*
D03*
X1853Y-8865D02*
D03*
X1849Y-8865D02*
D03*
X1853Y-8359D02*
D03*
X1849Y-7343D02*
D03*
X3321Y-11172D02*
D03*
X3325Y-11173D02*
D03*
X3321Y-11172D02*
D03*
X6439D02*
D03*
X6443Y-11173D02*
D03*
X6439Y-11172D02*
D03*
X6443Y-10667D02*
D03*
X5702Y-11172D02*
D03*
X5706Y-11173D02*
D03*
X5702Y-11172D02*
D03*
Y-9651D02*
D03*
X5010Y-11172D02*
D03*
X5014Y-11173D02*
D03*
X5010Y-11172D02*
D03*
Y-9651D02*
D03*
X3321Y-8865D02*
D03*
X3325Y-8865D02*
D03*
X3321Y-8865D02*
D03*
Y-7343D02*
D03*
X2629Y-8865D02*
D03*
X2633Y-8865D02*
D03*
X2629Y-8865D02*
D03*
X7188D02*
D03*
X7192Y-8865D02*
D03*
X7188Y-8865D02*
D03*
Y-7343D02*
D03*
X1068Y-8865D02*
D03*
X1072Y-8865D02*
D03*
X1068Y-8865D02*
D03*
X1072Y-8359D02*
D03*
X1068Y-7343D02*
D03*
X2629Y-11172D02*
D03*
X2633Y-11173D02*
D03*
X2629Y-11172D02*
D03*
X2633Y-10667D02*
D03*
X2629Y-9651D02*
D03*
X1849Y-11172D02*
D03*
X1853Y-11173D02*
D03*
X1849Y-11172D02*
D03*
X1068D02*
D03*
X1072Y-11173D02*
D03*
X1068Y-11172D02*
D03*
X1072Y-10667D02*
D03*
X1068Y-9651D02*
D03*
X7188Y-11172D02*
D03*
X7192Y-11173D02*
D03*
X7188Y-11172D02*
D03*
Y-9651D02*
D03*
X3321Y-13480D02*
D03*
X3325Y-13481D02*
D03*
X3321Y-13480D02*
D03*
Y-11959D02*
D03*
X6439Y-13480D02*
D03*
X6443Y-13481D02*
D03*
X6439Y-13480D02*
D03*
X6443Y-12975D02*
D03*
X6439Y-11959D02*
D03*
X5702Y-13480D02*
D03*
X5706Y-13481D02*
D03*
X5702Y-13480D02*
D03*
X5706Y-12975D02*
D03*
X5010Y-13480D02*
D03*
X5014Y-13481D02*
D03*
X5010Y-13480D02*
D03*
X3321Y-15788D02*
D03*
X3325Y-15788D02*
D03*
X3321Y-15788D02*
D03*
Y-14774D02*
D03*
X6439Y-15788D02*
D03*
X6443Y-15788D02*
D03*
X6439Y-15788D02*
D03*
Y-14266D02*
D03*
X5702Y-15788D02*
D03*
X5706Y-15788D02*
D03*
X5702Y-15788D02*
D03*
X5010D02*
D03*
X5014Y-15788D02*
D03*
X5010Y-15788D02*
D03*
X2629Y-13480D02*
D03*
X2633Y-13481D02*
D03*
X2629Y-13480D02*
D03*
X2633Y-12975D02*
D03*
X2629Y-11959D02*
D03*
X1068Y-13480D02*
D03*
X1072Y-13481D02*
D03*
X1068Y-13480D02*
D03*
X1072Y-12975D02*
D03*
X7188Y-13480D02*
D03*
X7192Y-13481D02*
D03*
X7188Y-13480D02*
D03*
X2629Y-15788D02*
D03*
X2633Y-15788D02*
D03*
X2629Y-15788D02*
D03*
Y-14266D02*
D03*
X1849Y-15788D02*
D03*
X1853Y-15788D02*
D03*
X1849Y-15788D02*
D03*
Y-14266D02*
D03*
X1068Y-15788D02*
D03*
X1072Y-15788D02*
D03*
X1068Y-15788D02*
D03*
X1072Y-15282D02*
D03*
X7188Y-15788D02*
D03*
X7192Y-15788D02*
D03*
X7188Y-15788D02*
D03*
X3321Y-18096D02*
D03*
X3325Y-18096D02*
D03*
X3321Y-18096D02*
D03*
Y-16574D02*
D03*
X6439Y-18096D02*
D03*
X6443Y-18096D02*
D03*
X6439Y-18096D02*
D03*
X5702D02*
D03*
X5706Y-18096D02*
D03*
X5702Y-18096D02*
D03*
Y-16574D02*
D03*
X5010Y-18096D02*
D03*
X5014Y-18096D02*
D03*
X5010Y-18096D02*
D03*
Y-16574D02*
D03*
X2629Y-18096D02*
D03*
X2633Y-18096D02*
D03*
X2629Y-18096D02*
D03*
Y-16574D02*
D03*
X1849Y-18096D02*
D03*
X1853Y-18096D02*
D03*
X1849Y-18096D02*
D03*
X1068D02*
D03*
X1072Y-18096D02*
D03*
X1068Y-18096D02*
D03*
X1072Y-17590D02*
D03*
X7188Y-18096D02*
D03*
X7192Y-18096D02*
D03*
X7188Y-18096D02*
D03*
Y-16574D02*
D03*
X9042Y-18096D02*
D03*
X9046Y-18096D02*
D03*
X9042Y-18096D02*
D03*
X8282D02*
D03*
X8286Y-18096D02*
D03*
X8282Y-18096D02*
D03*
Y-16574D02*
D03*
X12916Y-18096D02*
D03*
X12920Y-18096D02*
D03*
X12916Y-18096D02*
D03*
Y-17082D02*
D03*
X12224Y-18096D02*
D03*
X12228Y-18096D02*
D03*
X12224Y-18096D02*
D03*
Y-17082D02*
D03*
Y-16574D02*
D03*
X14402Y-18096D02*
D03*
X14406Y-18096D02*
D03*
X14402Y-18096D02*
D03*
X13653D02*
D03*
X13657Y-18096D02*
D03*
X13653Y-18096D02*
D03*
Y-16574D02*
D03*
X9042Y-15788D02*
D03*
X9046Y-15788D02*
D03*
X9042Y-15788D02*
D03*
X9046Y-15282D02*
D03*
X9042Y-14266D02*
D03*
X8282Y-15788D02*
D03*
X8286Y-15788D02*
D03*
X8282Y-15788D02*
D03*
Y-14266D02*
D03*
X12916Y-15788D02*
D03*
X12920Y-15788D02*
D03*
X12916Y-15788D02*
D03*
Y-14266D02*
D03*
X12224Y-15788D02*
D03*
X12228Y-15788D02*
D03*
X12224Y-15788D02*
D03*
X10534D02*
D03*
X10538Y-15788D02*
D03*
X10534Y-15788D02*
D03*
X9818D02*
D03*
X9822Y-15788D02*
D03*
X9818Y-15788D02*
D03*
X9822Y-15282D02*
D03*
X14402Y-15788D02*
D03*
X14406Y-15788D02*
D03*
X14402Y-15788D02*
D03*
Y-14266D02*
D03*
X13653Y-15788D02*
D03*
X13657Y-15788D02*
D03*
X13653Y-15788D02*
D03*
X9042Y-13480D02*
D03*
X9046Y-13481D02*
D03*
X9042Y-13480D02*
D03*
Y-11959D02*
D03*
X8282Y-13480D02*
D03*
X8286Y-13481D02*
D03*
X8282Y-13480D02*
D03*
Y-11959D02*
D03*
X12916Y-13480D02*
D03*
X12920Y-13481D02*
D03*
X12916Y-13480D02*
D03*
Y-11959D02*
D03*
X12224Y-13480D02*
D03*
X12228Y-13481D02*
D03*
X12224Y-13480D02*
D03*
X10534D02*
D03*
X10538Y-13481D02*
D03*
X10534Y-13480D02*
D03*
X9818D02*
D03*
X9822Y-13481D02*
D03*
X9818Y-13480D02*
D03*
X9822Y-12975D02*
D03*
X9818Y-11959D02*
D03*
X14402Y-13480D02*
D03*
X14406Y-13481D02*
D03*
X14402Y-13480D02*
D03*
Y-11959D02*
D03*
X13653Y-13480D02*
D03*
X13657Y-13481D02*
D03*
X13653Y-13480D02*
D03*
X9042Y-11172D02*
D03*
X9046Y-11173D02*
D03*
X9042Y-11172D02*
D03*
Y-9651D02*
D03*
X8282Y-11172D02*
D03*
X8286Y-11173D02*
D03*
X8282Y-11172D02*
D03*
Y-9651D02*
D03*
X12916Y-11172D02*
D03*
X12920Y-11173D02*
D03*
X12916Y-11172D02*
D03*
Y-9651D02*
D03*
X12224Y-11172D02*
D03*
X12228Y-11173D02*
D03*
X12224Y-11172D02*
D03*
X14402Y-8865D02*
D03*
X14406Y-8865D02*
D03*
X14402Y-8865D02*
D03*
Y-7343D02*
D03*
X9042Y-8865D02*
D03*
X9046Y-8865D02*
D03*
X9042Y-8865D02*
D03*
Y-7343D02*
D03*
X8282Y-8865D02*
D03*
X8286Y-8865D02*
D03*
X8282Y-8865D02*
D03*
Y-7343D02*
D03*
X12224Y-8865D02*
D03*
X12228Y-8865D02*
D03*
X12224Y-8865D02*
D03*
X10534Y-11172D02*
D03*
X10538Y-11173D02*
D03*
X10534Y-11172D02*
D03*
Y-9651D02*
D03*
X9818Y-11172D02*
D03*
X9822Y-11173D02*
D03*
X9818Y-11172D02*
D03*
X9822Y-10667D02*
D03*
X9818Y-9651D02*
D03*
X14402Y-11172D02*
D03*
X14406Y-11173D02*
D03*
X14402Y-11172D02*
D03*
Y-9651D02*
D03*
X13653Y-11172D02*
D03*
X13657Y-11173D02*
D03*
X13653Y-11172D02*
D03*
X13657Y-10667D02*
D03*
X10534Y-8865D02*
D03*
X10538Y-8865D02*
D03*
X10534Y-8865D02*
D03*
Y-7343D02*
D03*
X9818Y-8865D02*
D03*
X9822Y-8865D02*
D03*
X9818Y-8865D02*
D03*
X9822Y-8359D02*
D03*
X9818Y-7343D02*
D03*
X13653Y-8865D02*
D03*
X13657Y-8865D02*
D03*
X13653Y-8865D02*
D03*
X12916D02*
D03*
X12920Y-8865D02*
D03*
X12916Y-8865D02*
D03*
Y-7343D02*
D03*
X9042Y-6557D02*
D03*
X9046Y-6557D02*
D03*
X9042Y-6557D02*
D03*
X8282D02*
D03*
X8286Y-6557D02*
D03*
X8282Y-6557D02*
D03*
Y-5035D02*
D03*
X12916Y-6602D02*
D03*
X12920Y-6602D02*
D03*
X12916Y-6602D02*
D03*
Y-5080D02*
D03*
X12224Y-6602D02*
D03*
X12228Y-6602D02*
D03*
X12224Y-6602D02*
D03*
X9042Y-4249D02*
D03*
X9046Y-4250D02*
D03*
X9042Y-4249D02*
D03*
X8282D02*
D03*
X8286Y-4250D02*
D03*
X8282Y-4249D02*
D03*
Y-2728D02*
D03*
X12916Y-4214D02*
D03*
X12920Y-4214D02*
D03*
X12916Y-4214D02*
D03*
Y-2692D02*
D03*
X12224Y-4214D02*
D03*
X12228Y-4214D02*
D03*
X12224Y-4214D02*
D03*
Y-2692D02*
D03*
X10534Y-6557D02*
D03*
X10538Y-6557D02*
D03*
X10534Y-6557D02*
D03*
Y-5035D02*
D03*
X9818Y-6557D02*
D03*
X9822Y-6557D02*
D03*
X9818Y-6557D02*
D03*
X9822Y-6051D02*
D03*
X9818Y-5035D02*
D03*
X14402Y-6602D02*
D03*
X14406Y-6602D02*
D03*
X14402Y-6602D02*
D03*
Y-5080D02*
D03*
X13653Y-6602D02*
D03*
X13657Y-6602D02*
D03*
X13653Y-6602D02*
D03*
X10534Y-4249D02*
D03*
X10538Y-4250D02*
D03*
X10534Y-4249D02*
D03*
Y-2728D02*
D03*
X9818Y-4249D02*
D03*
X9822Y-4250D02*
D03*
X9818Y-4249D02*
D03*
X9822Y-3744D02*
D03*
X9818Y-2728D02*
D03*
X14402Y-4214D02*
D03*
X14406Y-4214D02*
D03*
X14402Y-4214D02*
D03*
Y-2692D02*
D03*
X13653Y-4214D02*
D03*
X13657Y-4214D02*
D03*
X13653Y-4214D02*
D03*
X13657Y-3708D02*
D03*
X13653Y-2692D02*
D03*
X16334Y-4249D02*
D03*
X16338Y-4250D02*
D03*
X16334Y-4249D02*
D03*
X15519D02*
D03*
X15523Y-4250D02*
D03*
X15519Y-4249D02*
D03*
X15523Y-3744D02*
D03*
X20538Y-4249D02*
D03*
X20542Y-4250D02*
D03*
X20538Y-4249D02*
D03*
Y-2728D02*
D03*
X19757Y-4249D02*
D03*
X19761Y-4250D02*
D03*
X19757Y-4249D02*
D03*
Y-2728D02*
D03*
X16334Y-6557D02*
D03*
X16338Y-6557D02*
D03*
X16334Y-6557D02*
D03*
X15519D02*
D03*
X15523Y-6557D02*
D03*
X15519Y-6557D02*
D03*
X20538D02*
D03*
X20542Y-6557D02*
D03*
X20538Y-6557D02*
D03*
X20542Y-6051D02*
D03*
X20538Y-5035D02*
D03*
X19757Y-6557D02*
D03*
X19761Y-6557D02*
D03*
X19757Y-6557D02*
D03*
Y-5035D02*
D03*
X17883Y-4249D02*
D03*
X17888Y-4250D02*
D03*
X17883Y-4249D02*
D03*
X17102D02*
D03*
X17107Y-4250D02*
D03*
X17102Y-4249D02*
D03*
X17107Y-3744D02*
D03*
X22087Y-4249D02*
D03*
X22091Y-4250D02*
D03*
X22087Y-4249D02*
D03*
X21306D02*
D03*
X21310Y-4250D02*
D03*
X21306Y-4249D02*
D03*
X17883Y-6557D02*
D03*
X17888Y-6557D02*
D03*
X17883Y-6557D02*
D03*
X17102D02*
D03*
X17107Y-6557D02*
D03*
X17102Y-6557D02*
D03*
X17107Y-6051D02*
D03*
X22087Y-6557D02*
D03*
X22091Y-6557D02*
D03*
X22087Y-6557D02*
D03*
X21306D02*
D03*
X21310Y-6557D02*
D03*
X21306Y-6557D02*
D03*
X16334Y-8865D02*
D03*
X16338Y-8865D02*
D03*
X16334Y-8865D02*
D03*
X15519D02*
D03*
X15523Y-8865D02*
D03*
X15519Y-8865D02*
D03*
Y-7343D02*
D03*
X20538Y-8862D02*
D03*
X20542Y-8863D02*
D03*
X20538Y-8862D02*
D03*
X20542Y-8357D02*
D03*
X20538Y-7341D02*
D03*
X19757Y-8862D02*
D03*
X19761Y-8863D02*
D03*
X19757Y-8862D02*
D03*
X17883Y-8865D02*
D03*
X17888Y-8865D02*
D03*
X17883Y-8865D02*
D03*
X17102D02*
D03*
X17107Y-8865D02*
D03*
X17102Y-8865D02*
D03*
X17107Y-8359D02*
D03*
X17102Y-7343D02*
D03*
X22087Y-8862D02*
D03*
X22091Y-8863D02*
D03*
X22087Y-8862D02*
D03*
X22091Y-8357D02*
D03*
X21306Y-8862D02*
D03*
X21310Y-8863D02*
D03*
X21306Y-8862D02*
D03*
Y-7341D02*
D03*
X16334Y-11172D02*
D03*
X16338Y-11173D02*
D03*
X16334Y-11172D02*
D03*
X15519D02*
D03*
X15523Y-11173D02*
D03*
X15519Y-11172D02*
D03*
Y-9651D02*
D03*
X19757Y-11172D02*
D03*
X19761Y-11173D02*
D03*
X19757Y-11172D02*
D03*
Y-9651D02*
D03*
X17883Y-11172D02*
D03*
X17888Y-11173D02*
D03*
X17883Y-11172D02*
D03*
X17102D02*
D03*
X17107Y-11173D02*
D03*
X17102Y-11172D02*
D03*
X17107Y-10667D02*
D03*
X17102Y-9651D02*
D03*
X22087Y-11172D02*
D03*
X22091Y-11173D02*
D03*
X22087Y-11172D02*
D03*
Y-9651D02*
D03*
X21306Y-11172D02*
D03*
X21310Y-11173D02*
D03*
X21306Y-11172D02*
D03*
X16334Y-13480D02*
D03*
X16338Y-13481D02*
D03*
X16334Y-13480D02*
D03*
X15519D02*
D03*
X15523Y-13481D02*
D03*
X15519Y-13480D02*
D03*
Y-11959D02*
D03*
X20538Y-13480D02*
D03*
X20542Y-13481D02*
D03*
X20538Y-13480D02*
D03*
X20542Y-12975D02*
D03*
X20538Y-11959D02*
D03*
X19757Y-13480D02*
D03*
X19761Y-13481D02*
D03*
X19757Y-13480D02*
D03*
Y-11959D02*
D03*
X17883Y-13480D02*
D03*
X17888Y-13481D02*
D03*
X17883Y-13480D02*
D03*
X17102D02*
D03*
X17107Y-13481D02*
D03*
X17102Y-13480D02*
D03*
X17107Y-12975D02*
D03*
X17102Y-11959D02*
D03*
X22087Y-13480D02*
D03*
X22091Y-13481D02*
D03*
X22087Y-13480D02*
D03*
Y-11959D02*
D03*
X21306Y-13480D02*
D03*
X21310Y-13481D02*
D03*
X21306Y-13480D02*
D03*
Y-11959D02*
D03*
X16334Y-15788D02*
D03*
X16338Y-15788D02*
D03*
X16334Y-15788D02*
D03*
X15519D02*
D03*
X15523Y-15788D02*
D03*
X15519Y-15788D02*
D03*
X20538D02*
D03*
X20542Y-15788D02*
D03*
X20538Y-15788D02*
D03*
X20542Y-15282D02*
D03*
X20538Y-14266D02*
D03*
X19757Y-15788D02*
D03*
X19761Y-15788D02*
D03*
X19757Y-15788D02*
D03*
Y-14266D02*
D03*
X17883Y-15788D02*
D03*
X17888Y-15788D02*
D03*
X17883Y-15788D02*
D03*
X17102D02*
D03*
X17107Y-15788D02*
D03*
X17102Y-15788D02*
D03*
X17107Y-15282D02*
D03*
X22087Y-15788D02*
D03*
X22091Y-15788D02*
D03*
X22087Y-15788D02*
D03*
Y-14266D02*
D03*
X21306Y-15788D02*
D03*
X21310Y-15788D02*
D03*
X21306Y-15788D02*
D03*
X16334Y-18096D02*
D03*
X16338Y-18096D02*
D03*
X16334Y-18096D02*
D03*
Y-16574D02*
D03*
X15519Y-18096D02*
D03*
X15523Y-18096D02*
D03*
X15519Y-18096D02*
D03*
X20538D02*
D03*
X20542Y-18096D02*
D03*
X20538Y-18096D02*
D03*
Y-16574D02*
D03*
X17102Y-18096D02*
D03*
X17107Y-18096D02*
D03*
X17102Y-18096D02*
D03*
X22087D02*
D03*
X22091Y-18096D02*
D03*
X22087Y-18096D02*
D03*
Y-16574D02*
D03*
X21306Y-18096D02*
D03*
X21310Y-18096D02*
D03*
X21306Y-18096D02*
D03*
Y-16574D02*
D03*
X19757Y-18096D02*
D03*
X19761Y-18096D02*
D03*
X19757Y-18096D02*
D03*
Y-16574D02*
D03*
X17883Y-18096D02*
D03*
X17888Y-18096D02*
D03*
X17883Y-18096D02*
D03*
Y-16574D02*
D03*
X20538Y-11172D02*
D03*
X20542Y-11173D02*
D03*
X20538Y-11172D02*
D03*
X20542Y-10667D02*
D03*
X20538Y-9651D02*
D03*
X10534Y-18096D02*
D03*
X10538Y-18096D02*
D03*
X10534Y-18096D02*
D03*
D15*
X7503Y-19268D02*
D03*
X14364Y-18999D02*
D03*
X13602D02*
D03*
X13348D02*
D03*
X12586D02*
D03*
X12332D02*
D03*
X11824D02*
D03*
X11062D02*
D03*
X10808D02*
D03*
X10046D02*
D03*
X9792D02*
D03*
X9030D02*
D03*
X8014D02*
D03*
X14618Y-18989D02*
D03*
X13853Y-18740D02*
D03*
X13599D02*
D03*
X12837D02*
D03*
X12583D02*
D03*
X11313D02*
D03*
X11059D02*
D03*
X10297D02*
D03*
X10043D02*
D03*
X9535D02*
D03*
X8265D02*
D03*
X7249D02*
D03*
X14615D02*
D03*
D16*
X9779Y-14603D02*
D03*
X19248Y-14671D02*
D03*
X4115Y-12800D02*
D03*
X12522Y-8482D02*
D03*
X12544Y-7978D02*
D03*
X20218Y-3478D02*
D03*
X20193Y-3453D02*
D03*
X7721Y-836D02*
D03*
X18339Y-12735D02*
D03*
X18313Y-12825D02*
D03*
X10947Y-12368D02*
D03*
X11303Y-7898D02*
D03*
X12446Y-6247D02*
D03*
X12428Y-6696D02*
D03*
X4699Y-1129D02*
D03*
X4079Y-8584D02*
D03*
X4267Y-9066D02*
D03*
X4597Y-12495D02*
D03*
X4303Y-13796D02*
D03*
X4300Y-15594D02*
D03*
X10934Y-13221D02*
D03*
X10828Y-10575D02*
D03*
X11933Y-10836D02*
D03*
X10973Y-6069D02*
D03*
X11303Y-3854D02*
D03*
X12040Y-3867D02*
D03*
X18206Y-3707D02*
D03*
X17246Y-6348D02*
D03*
X18328Y-8279D02*
D03*
X18344Y-15088D02*
D03*
X18745Y-989D02*
D03*
X18326Y-1294D02*
D03*
X18110Y-735D02*
D03*
X18821Y-1268D02*
D03*
X19278Y-10082D02*
D03*
X3756Y-8205D02*
D03*
X4300Y-10976D02*
D03*
X4597Y-9066D02*
D03*
X3660Y-15331D02*
D03*
X12024Y-2740D02*
D03*
X11735Y-9709D02*
D03*
X3525Y-10690D02*
D03*
X7518Y-17219D02*
D03*
X11293Y-10920D02*
D03*
X7747Y-18413D02*
D03*
X11567Y-18464D02*
D03*
X10995Y-17486D02*
D03*
X11747Y-11692D02*
D03*
X13345Y-18464D02*
D03*
X10805D02*
D03*
X11328Y-7720D02*
D03*
X13091Y-18464D02*
D03*
X12245Y-2434D02*
D03*
X11938Y-7595D02*
D03*
X12075Y-18464D02*
D03*
X14107D02*
D03*
X18440Y-3643D02*
D03*
X4079Y-6309D02*
D03*
X18364Y-5962D02*
D03*
X10820Y-14823D02*
D03*
X10541Y-18474D02*
D03*
X12700Y-1979D02*
D03*
X18847Y-12815D02*
D03*
X17272Y-12978D02*
D03*
X18915Y-10458D02*
D03*
X18339Y-10628D02*
D03*
X18847Y-7961D02*
D03*
X18933Y-6202D02*
D03*
X18941Y-1395D02*
D03*
X11356Y-1294D02*
D03*
X10945Y-8274D02*
D03*
X11125Y-15855D02*
D03*
X4287Y-17397D02*
D03*
X3480Y-12800D02*
D03*
X4089Y-10844D02*
D03*
X4656Y-3437D02*
D03*
X19278Y-10082D02*
D03*
X11328Y-5434D02*
D03*
Y-1040D02*
D03*
X8001Y-18413D02*
D03*
X8265Y-18464D02*
D03*
X8519D02*
D03*
X8773D02*
D03*
X9245D02*
D03*
X9535D02*
D03*
X14705Y-19152D02*
D03*
X7721Y-836D02*
D03*
X4826Y-7745D02*
D03*
X19304Y-7948D02*
D03*
D17*
X10981Y-1484D02*
D03*
M02*
