%FSLAX42Y42*%
%MOMM*%
G71*
G01*
G75*
G04 Layer_Physical_Order=1*
G04 Layer_Color=255*
%ADD10R,1.85X0.60*%
%ADD11C,0.30*%
G04:AMPARAMS|DCode=12|XSize=2mm|YSize=1.52mm|CornerRadius=0.61mm|HoleSize=0mm|Usage=FLASHONLY|Rotation=90.000|XOffset=0mm|YOffset=0mm|HoleType=Round|Shape=RoundedRectangle|*
%AMROUNDEDRECTD12*
21,1,2.00,0.30,0,0,90.0*
21,1,0.78,1.52,0,0,90.0*
1,1,1.22,0.15,0.39*
1,1,1.22,0.15,-0.39*
1,1,1.22,-0.15,-0.39*
1,1,1.22,-0.15,0.39*
%
%ADD12ROUNDEDRECTD12*%
%ADD13C,3.00*%
%ADD14R,1.30X1.30*%
%ADD15C,1.30*%
%ADD16C,0.60*%
%ADD17C,0.70*%
D10*
X4441Y-1637D02*
D03*
Y-1510D02*
D03*
Y-1383D02*
D03*
Y-1256D02*
D03*
Y-1129D02*
D03*
Y-1002D02*
D03*
Y-875D02*
D03*
Y-748D02*
D03*
X3941Y-1637D02*
D03*
Y-1510D02*
D03*
Y-1383D02*
D03*
Y-1256D02*
D03*
Y-1129D02*
D03*
Y-1002D02*
D03*
Y-875D02*
D03*
Y-748D02*
D03*
X11654Y-13048D02*
D03*
Y-12921D02*
D03*
Y-12794D02*
D03*
Y-12667D02*
D03*
Y-12540D02*
D03*
Y-12413D02*
D03*
Y-12286D02*
D03*
Y-12159D02*
D03*
X11154Y-13048D02*
D03*
Y-12921D02*
D03*
Y-12794D02*
D03*
Y-12667D02*
D03*
Y-12540D02*
D03*
Y-12413D02*
D03*
Y-12286D02*
D03*
Y-12159D02*
D03*
X4441Y-6201D02*
D03*
Y-6074D02*
D03*
Y-5947D02*
D03*
Y-5820D02*
D03*
Y-5693D02*
D03*
Y-5566D02*
D03*
Y-5439D02*
D03*
Y-5312D02*
D03*
X3941Y-6201D02*
D03*
Y-6074D02*
D03*
Y-5947D02*
D03*
Y-5820D02*
D03*
Y-5693D02*
D03*
Y-5566D02*
D03*
Y-5439D02*
D03*
Y-5312D02*
D03*
X4441Y-8484D02*
D03*
Y-8357D02*
D03*
Y-8230D02*
D03*
Y-8103D02*
D03*
Y-7976D02*
D03*
Y-7849D02*
D03*
Y-7722D02*
D03*
Y-7595D02*
D03*
X3941Y-8484D02*
D03*
Y-8357D02*
D03*
Y-8230D02*
D03*
Y-8103D02*
D03*
Y-7976D02*
D03*
Y-7849D02*
D03*
Y-7722D02*
D03*
Y-7595D02*
D03*
X4441Y-10766D02*
D03*
Y-10639D02*
D03*
Y-10512D02*
D03*
Y-10385D02*
D03*
Y-10258D02*
D03*
Y-10131D02*
D03*
Y-10004D02*
D03*
Y-9877D02*
D03*
X3941Y-10766D02*
D03*
Y-10639D02*
D03*
Y-10512D02*
D03*
Y-10385D02*
D03*
Y-10258D02*
D03*
Y-10131D02*
D03*
Y-10004D02*
D03*
Y-9877D02*
D03*
X4441Y-13048D02*
D03*
Y-12921D02*
D03*
Y-12794D02*
D03*
Y-12667D02*
D03*
Y-12540D02*
D03*
Y-12413D02*
D03*
Y-12286D02*
D03*
Y-12159D02*
D03*
X3941Y-13048D02*
D03*
Y-12921D02*
D03*
Y-12794D02*
D03*
Y-12667D02*
D03*
Y-12540D02*
D03*
Y-12413D02*
D03*
Y-12286D02*
D03*
Y-12159D02*
D03*
X4441Y-15331D02*
D03*
Y-15204D02*
D03*
Y-15077D02*
D03*
Y-14950D02*
D03*
Y-14823D02*
D03*
Y-14696D02*
D03*
Y-14569D02*
D03*
Y-14442D02*
D03*
X3941Y-15331D02*
D03*
Y-15204D02*
D03*
Y-15077D02*
D03*
Y-14950D02*
D03*
Y-14823D02*
D03*
Y-14696D02*
D03*
Y-14569D02*
D03*
Y-14442D02*
D03*
X4441Y-17613D02*
D03*
Y-17486D02*
D03*
Y-17359D02*
D03*
Y-17232D02*
D03*
Y-17105D02*
D03*
Y-16978D02*
D03*
Y-16851D02*
D03*
Y-16724D02*
D03*
X3941Y-17613D02*
D03*
Y-17486D02*
D03*
Y-17359D02*
D03*
Y-17232D02*
D03*
Y-17105D02*
D03*
Y-16978D02*
D03*
Y-16851D02*
D03*
Y-16724D02*
D03*
X11654Y-17613D02*
D03*
Y-17486D02*
D03*
Y-17359D02*
D03*
Y-17232D02*
D03*
Y-17105D02*
D03*
Y-16978D02*
D03*
Y-16851D02*
D03*
Y-16724D02*
D03*
X11154Y-17613D02*
D03*
Y-17486D02*
D03*
Y-17359D02*
D03*
Y-17232D02*
D03*
Y-17105D02*
D03*
Y-16978D02*
D03*
Y-16851D02*
D03*
Y-16724D02*
D03*
X11654Y-15331D02*
D03*
Y-15204D02*
D03*
Y-15077D02*
D03*
Y-14950D02*
D03*
Y-14823D02*
D03*
Y-14696D02*
D03*
Y-14569D02*
D03*
Y-14442D02*
D03*
X11154Y-15331D02*
D03*
Y-15204D02*
D03*
Y-15077D02*
D03*
Y-14950D02*
D03*
Y-14823D02*
D03*
Y-14696D02*
D03*
Y-14569D02*
D03*
Y-14442D02*
D03*
X11654Y-10766D02*
D03*
Y-10639D02*
D03*
Y-10512D02*
D03*
Y-10385D02*
D03*
Y-10258D02*
D03*
Y-10131D02*
D03*
Y-10004D02*
D03*
Y-9877D02*
D03*
X11154Y-10766D02*
D03*
Y-10639D02*
D03*
Y-10512D02*
D03*
Y-10385D02*
D03*
Y-10258D02*
D03*
Y-10131D02*
D03*
Y-10004D02*
D03*
Y-9877D02*
D03*
X11654Y-8484D02*
D03*
Y-8357D02*
D03*
Y-8230D02*
D03*
Y-8103D02*
D03*
Y-7976D02*
D03*
Y-7849D02*
D03*
Y-7722D02*
D03*
Y-7595D02*
D03*
X11154Y-8484D02*
D03*
Y-8357D02*
D03*
Y-8230D02*
D03*
Y-8103D02*
D03*
Y-7976D02*
D03*
Y-7849D02*
D03*
Y-7722D02*
D03*
Y-7595D02*
D03*
X11654Y-6201D02*
D03*
Y-6074D02*
D03*
Y-5947D02*
D03*
Y-5820D02*
D03*
Y-5693D02*
D03*
Y-5566D02*
D03*
Y-5439D02*
D03*
Y-5312D02*
D03*
X11154Y-6201D02*
D03*
Y-6074D02*
D03*
Y-5947D02*
D03*
Y-5820D02*
D03*
Y-5693D02*
D03*
Y-5566D02*
D03*
Y-5439D02*
D03*
Y-5312D02*
D03*
X11654Y-3919D02*
D03*
Y-3792D02*
D03*
Y-3665D02*
D03*
Y-3538D02*
D03*
Y-3411D02*
D03*
Y-3284D02*
D03*
Y-3157D02*
D03*
Y-3030D02*
D03*
X11154Y-3919D02*
D03*
Y-3792D02*
D03*
Y-3665D02*
D03*
Y-3538D02*
D03*
Y-3411D02*
D03*
Y-3284D02*
D03*
Y-3157D02*
D03*
Y-3030D02*
D03*
X11654Y-1611D02*
D03*
Y-1484D02*
D03*
Y-1357D02*
D03*
Y-1230D02*
D03*
Y-1103D02*
D03*
Y-976D02*
D03*
Y-849D02*
D03*
Y-722D02*
D03*
X11154Y-1611D02*
D03*
Y-1484D02*
D03*
Y-1357D02*
D03*
Y-1230D02*
D03*
Y-1103D02*
D03*
Y-976D02*
D03*
Y-849D02*
D03*
Y-722D02*
D03*
X19097Y-1611D02*
D03*
Y-1484D02*
D03*
Y-1357D02*
D03*
Y-1230D02*
D03*
Y-1103D02*
D03*
Y-976D02*
D03*
Y-849D02*
D03*
Y-722D02*
D03*
X18597Y-1611D02*
D03*
Y-1484D02*
D03*
Y-1357D02*
D03*
Y-1230D02*
D03*
Y-1103D02*
D03*
Y-976D02*
D03*
Y-849D02*
D03*
Y-722D02*
D03*
X19097Y-3897D02*
D03*
Y-3770D02*
D03*
Y-3643D02*
D03*
Y-3516D02*
D03*
Y-3389D02*
D03*
Y-3262D02*
D03*
Y-3135D02*
D03*
Y-3008D02*
D03*
X18597Y-3897D02*
D03*
Y-3770D02*
D03*
Y-3643D02*
D03*
Y-3516D02*
D03*
Y-3389D02*
D03*
Y-3262D02*
D03*
Y-3135D02*
D03*
Y-3008D02*
D03*
X19097Y-6183D02*
D03*
Y-6056D02*
D03*
Y-5929D02*
D03*
Y-5802D02*
D03*
Y-5675D02*
D03*
Y-5548D02*
D03*
Y-5421D02*
D03*
Y-5294D02*
D03*
X18597Y-6183D02*
D03*
Y-6056D02*
D03*
Y-5929D02*
D03*
Y-5802D02*
D03*
Y-5675D02*
D03*
Y-5548D02*
D03*
Y-5421D02*
D03*
Y-5294D02*
D03*
X19097Y-8469D02*
D03*
Y-8342D02*
D03*
Y-8215D02*
D03*
Y-8088D02*
D03*
Y-7961D02*
D03*
Y-7834D02*
D03*
Y-7707D02*
D03*
Y-7580D02*
D03*
X18597Y-8469D02*
D03*
Y-8342D02*
D03*
Y-8215D02*
D03*
Y-8088D02*
D03*
Y-7961D02*
D03*
Y-7834D02*
D03*
Y-7707D02*
D03*
Y-7580D02*
D03*
X19097Y-10755D02*
D03*
Y-10628D02*
D03*
Y-10501D02*
D03*
Y-10374D02*
D03*
Y-10247D02*
D03*
Y-10120D02*
D03*
Y-9993D02*
D03*
Y-9866D02*
D03*
X18597Y-10755D02*
D03*
Y-10628D02*
D03*
Y-10501D02*
D03*
Y-10374D02*
D03*
Y-10247D02*
D03*
Y-10120D02*
D03*
Y-9993D02*
D03*
Y-9866D02*
D03*
X19097Y-13041D02*
D03*
Y-12914D02*
D03*
Y-12787D02*
D03*
Y-12660D02*
D03*
Y-12533D02*
D03*
Y-12406D02*
D03*
Y-12279D02*
D03*
Y-12152D02*
D03*
X18597Y-13041D02*
D03*
Y-12914D02*
D03*
Y-12787D02*
D03*
Y-12660D02*
D03*
Y-12533D02*
D03*
Y-12406D02*
D03*
Y-12279D02*
D03*
Y-12152D02*
D03*
X19097Y-15327D02*
D03*
Y-15200D02*
D03*
Y-15073D02*
D03*
Y-14946D02*
D03*
Y-14819D02*
D03*
Y-14692D02*
D03*
Y-14565D02*
D03*
Y-14438D02*
D03*
X18597Y-15327D02*
D03*
Y-15200D02*
D03*
Y-15073D02*
D03*
Y-14946D02*
D03*
Y-14819D02*
D03*
Y-14692D02*
D03*
Y-14565D02*
D03*
Y-14438D02*
D03*
X18597Y-16724D02*
D03*
Y-16851D02*
D03*
Y-16978D02*
D03*
Y-17105D02*
D03*
Y-17232D02*
D03*
Y-17359D02*
D03*
Y-17486D02*
D03*
Y-17613D02*
D03*
X19097Y-16724D02*
D03*
Y-16851D02*
D03*
Y-16978D02*
D03*
Y-17105D02*
D03*
Y-17232D02*
D03*
Y-17359D02*
D03*
Y-17486D02*
D03*
Y-17613D02*
D03*
X3941Y-3030D02*
D03*
Y-3157D02*
D03*
Y-3284D02*
D03*
Y-3411D02*
D03*
Y-3538D02*
D03*
Y-3665D02*
D03*
Y-3792D02*
D03*
Y-3919D02*
D03*
X4441Y-3030D02*
D03*
Y-3157D02*
D03*
Y-3284D02*
D03*
Y-3411D02*
D03*
Y-3538D02*
D03*
Y-3665D02*
D03*
Y-3792D02*
D03*
Y-3919D02*
D03*
D11*
X22087Y-1941D02*
X22403Y-2257D01*
X19759Y-1944D02*
X19761Y-1942D01*
X19759Y-1944D02*
X19902Y-2087D01*
X20538Y-4249D02*
X21102D01*
X19757D02*
X20538D01*
X16334Y-1942D02*
X16338D01*
X16334D02*
Y-1941D01*
X15519D02*
X16334D01*
X16334Y-4250D02*
X16338D01*
X16334D02*
Y-4249D01*
X15519D02*
X16334D01*
X20538Y-6557D02*
X21102D01*
X19757D02*
X20538D01*
Y-8862D02*
X21102D01*
X19757D02*
X20538D01*
X16334Y-6557D02*
Y-6557D01*
Y-6557D02*
X16338D01*
X16334Y-8865D02*
X16338D01*
X15519Y-8865D02*
X16334D01*
Y-8865D02*
Y-8865D01*
X15519Y-11172D02*
X16334D01*
X12916Y-1967D02*
Y-1941D01*
X12918Y-1944D02*
X12920Y-1945D01*
X12916Y-1967D02*
X12920D01*
X10534D02*
X10538D01*
X10534D02*
Y-1941D01*
X9042Y-2493D02*
Y-1941D01*
X15519Y-6582D02*
Y-6557D01*
Y-6582D02*
X15523D01*
X14402Y-8865D02*
X14935D01*
X15519D02*
X15519Y-8865D01*
X15523D01*
X12916Y-4214D02*
X13449D01*
X12916Y-6602D02*
X13449D01*
X9042Y-4250D02*
Y-4249D01*
Y-4250D02*
X9046D01*
X9042Y-6557D02*
X9046D01*
X9042D02*
Y-6557D01*
Y-8865D02*
Y-8865D01*
Y-8865D02*
X9046D01*
X20538Y-11172D02*
X21102D01*
X19757D02*
X20538D01*
Y-13481D02*
X20542D01*
X20538D02*
Y-13480D01*
X19757D02*
X20538D01*
X16334Y-13481D02*
X16338D01*
X16334Y-11173D02*
X16338D01*
X16334D02*
Y-11172D01*
X15519Y-13480D02*
X16334D01*
Y-13481D02*
Y-13480D01*
X20538Y-15812D02*
Y-15788D01*
X19757D02*
X20538D01*
Y-15812D02*
X20542D01*
X19761Y-18096D02*
X20538D01*
X21102D01*
X19761D02*
Y-18004D01*
X19757Y-18096D02*
X19761D01*
X16334Y-15788D02*
X16338D01*
X16334D02*
Y-15788D01*
X15519D02*
X16334D01*
Y-18096D02*
X16338D01*
X16334D02*
Y-18096D01*
X12916Y-11172D02*
X13449D01*
X12916Y-13480D02*
X13380D01*
X9042Y-11173D02*
Y-11172D01*
Y-11173D02*
X9046D01*
X9042Y-13481D02*
Y-13480D01*
Y-13481D02*
X9046D01*
X12920Y-15788D02*
Y-15788D01*
X13249D01*
X15519Y-18096D02*
Y-18096D01*
Y-18096D02*
X15523D01*
X12916Y-18096D02*
X13449D01*
X9046Y-18096D02*
Y-17981D01*
X9042Y-18096D02*
Y-18096D01*
Y-18096D02*
X9046D01*
X8282Y-1967D02*
Y-1941D01*
Y-1967D02*
X8286D01*
Y-4249D02*
X8702D01*
X8282D02*
X8286D01*
X8282Y-4273D02*
Y-4249D01*
X7747Y-155D02*
X14691D01*
X7726D02*
X7747D01*
X5702Y-1941D02*
X6235D01*
X8286Y-4250D02*
Y-4249D01*
X8282Y-4273D02*
X8286D01*
X8282Y-6557D02*
X9042D01*
X8282Y-8865D02*
X9042D01*
X7188Y-6557D02*
X7899D01*
X5703Y-4250D02*
X5851Y-4398D01*
X5580Y-6818D02*
X5841Y-6557D01*
X6439Y-8865D02*
X6984D01*
X5706D02*
X6439D01*
X1849Y-1942D02*
Y-1941D01*
Y-1942D02*
X1853D01*
X5014Y-4250D02*
X5703D01*
X1854Y-4278D02*
Y-4253D01*
X1068Y-2529D02*
Y-1941D01*
X1071Y-4253D02*
X1854D01*
X1071Y-4253D02*
Y-4253D01*
X5014Y-6557D02*
X5706D01*
Y-8865D02*
Y-8865D01*
X5010Y-8865D02*
X5014Y-8865D01*
X5014Y-8865D02*
Y-8865D01*
X5010Y-8865D02*
Y-8865D01*
Y-8865D02*
X5014D01*
X3321Y-6582D02*
X3325D01*
X1854Y-4278D02*
X1858D01*
X3321Y-6582D02*
Y-6557D01*
X8282Y-11172D02*
X9042D01*
X8282Y-13481D02*
X8286D01*
X8282D02*
Y-13480D01*
X6439Y-11172D02*
X6984D01*
X5706D02*
X6439D01*
X5706Y-13481D02*
X6443D01*
X8286Y-15788D02*
X9042D01*
X8286Y-15788D02*
Y-15788D01*
X8282Y-15788D02*
X8286D01*
X8282D02*
Y-15788D01*
Y-18096D02*
X9042D01*
X6443Y-15788D02*
X6984D01*
X6439D02*
X6443D01*
Y-15788D02*
Y-15788D01*
X5706D02*
X6439D01*
X5706Y-18096D02*
X6443D01*
X5706Y-11173D02*
Y-11172D01*
X5702Y-11197D02*
X5706D01*
X5702D02*
Y-11172D01*
X5014Y-13481D02*
X5706D01*
X5706Y-15788D02*
Y-15788D01*
X5702Y-15812D02*
X5706D01*
X5702D02*
Y-15788D01*
X5702Y-18096D02*
X5706D01*
X5702D02*
Y-18096D01*
X5010Y-18096D02*
Y-18096D01*
Y-18096D02*
X5014D01*
X3321D02*
Y-18096D01*
Y-18096D02*
X3325D01*
X17883Y-2068D02*
Y-1941D01*
Y-4296D02*
Y-4249D01*
X17825Y-4296D02*
X17883D01*
X17782Y-4344D02*
X17883D01*
X17888Y-8865D02*
Y-8732D01*
X17883Y-9257D02*
Y-8865D01*
X13657Y-8865D02*
Y-8657D01*
X21306Y-11197D02*
Y-11172D01*
X22087Y-14000D02*
Y-13480D01*
X21306Y-13503D02*
Y-13480D01*
X21183Y-11197D02*
X21306D01*
X17883D02*
Y-11172D01*
X17780Y-11197D02*
X17883D01*
X21183Y-13503D02*
X21306D01*
X17888Y-13481D02*
Y-13334D01*
X21183Y-15774D02*
X21306D01*
X17883Y-18274D02*
Y-18096D01*
X17102Y-14038D02*
Y-13480D01*
X17018Y-15812D02*
X17102D01*
Y-15788D01*
X6477Y-4253D02*
X7213D01*
X9739Y-4273D02*
X9822D01*
X10534Y-6950D02*
Y-6557D01*
X9822Y-6557D02*
Y-6351D01*
X9818Y-8865D02*
X10261D01*
X7188Y-2553D02*
Y-1941D01*
X2633Y-4250D02*
Y-4042D01*
X2629Y-4273D02*
Y-4249D01*
Y-4273D02*
X2633D01*
X2629Y-6582D02*
Y-6557D01*
X2540Y-6582D02*
X2629D01*
X9822Y-11173D02*
Y-10999D01*
Y-11197D02*
X9906D01*
X10534Y-13615D02*
Y-13480D01*
X9822Y-13503D02*
X9906D01*
X9818Y-13703D02*
Y-13480D01*
X10534Y-15918D02*
Y-15788D01*
X10447Y-18177D02*
X10534D01*
Y-18096D01*
X9652Y-15812D02*
X9818D01*
Y-15788D01*
X7188Y-18141D02*
Y-18096D01*
X7099Y-18141D02*
X7188D01*
X2629Y-11703D02*
Y-11172D01*
X2540Y-13493D02*
X2629D01*
Y-13480D01*
X1068Y-11174D02*
Y-11172D01*
Y-11174D02*
X1072D01*
X2629Y-15788D02*
X2633D01*
X2629Y-15812D02*
Y-15788D01*
Y-15788D01*
X1853Y-15787D02*
X1961D01*
X1853Y-15788D02*
Y-15787D01*
X2540Y-15812D02*
X2629D01*
X7188Y-16140D02*
Y-15788D01*
X17828Y-6196D02*
X18597D01*
X17811Y-5613D02*
X17812Y-5614D01*
X5010Y-8865D02*
X5010D01*
X5010Y-8865D02*
X5010Y-8865D01*
X17798Y-19260D02*
X18025D01*
X17737Y-19199D02*
X17798Y-19260D01*
X18025D02*
X18135Y-19150D01*
X17881D02*
Y-19117D01*
X17770Y-19005D02*
X17881Y-19117D01*
X17770Y-19005D02*
Y-18807D01*
X18024Y-18784D02*
X18135Y-18896D01*
X17907Y-18784D02*
X18024D01*
X17831Y-18708D02*
X17907Y-18784D01*
X4379Y-16724D02*
Y-16676D01*
X4468Y-14442D02*
Y-14298D01*
X4440Y-12159D02*
Y-12086D01*
Y-7595D02*
Y-7534D01*
X11709Y-16724D02*
Y-16584D01*
X11653Y-14442D02*
Y-14083D01*
X17272Y-17524D02*
X17627Y-17169D01*
X11747Y-12159D02*
Y-11692D01*
X11735Y-9877D02*
Y-9709D01*
X19151Y-14438D02*
Y-14273D01*
X19095Y-12152D02*
Y-11962D01*
X19159Y-12152D02*
Y-11992D01*
X11735Y-7595D02*
Y-7501D01*
X12700Y-1522D02*
Y-1014D01*
X19159Y-5294D02*
Y-5111D01*
X9652Y-13869D02*
X9818Y-13703D01*
X9652Y-15812D02*
Y-13869D01*
X18074Y-6069D02*
X18085D01*
X5116Y-10769D02*
X5168Y-10717D01*
X5207D01*
X5070Y-9091D02*
X5342Y-9364D01*
X5046Y-10932D02*
X5234D01*
X5080Y-10004D02*
X5282Y-10206D01*
X4826Y-10872D02*
X5209D01*
X5282Y-10799D02*
Y-10206D01*
X5209Y-10872D02*
X5282Y-10799D01*
X5342Y-10824D02*
Y-9364D01*
X5234Y-10932D02*
X5342Y-10824D01*
X4828Y-8533D02*
X4851D01*
X4777Y-8482D02*
X4828Y-8533D01*
X6487Y-17296D02*
X6497D01*
X5938Y-17844D02*
X6487Y-17296D01*
X10454Y-17795D02*
X10583D01*
X10354Y-17695D02*
Y-17059D01*
Y-17695D02*
X10454Y-17795D01*
X10417Y-17673D02*
Y-17470D01*
X10479Y-17735D02*
X10660D01*
X10417Y-17673D02*
X10479Y-17735D01*
X10417Y-17470D02*
X10534Y-17353D01*
X10660Y-17735D02*
X10660Y-17735D01*
X10583Y-17795D02*
X10735Y-17947D01*
Y-18104D02*
Y-17947D01*
X19248Y-14685D02*
Y-14671D01*
X19240Y-14692D02*
X19248Y-14685D01*
X19097Y-14692D02*
X19240D01*
X10795Y-17538D02*
Y-17524D01*
Y-17538D02*
X10795Y-17538D01*
X3941Y-12794D02*
X3946Y-12800D01*
X4115D01*
X3632Y-887D02*
X3928D01*
X20193Y-3453D02*
X20218Y-3478D01*
X5014Y-18096D02*
X5014Y-18096D01*
X5702D01*
X7747Y-155D02*
Y-151D01*
X7721Y-836D02*
X7721Y-836D01*
X10236Y-5866D02*
Y-5840D01*
X10297Y-5779D01*
Y-5492D01*
X10363Y-5426D01*
Y-5307D01*
X17602Y-17169D02*
X17627D01*
X14808Y-17448D02*
Y-16559D01*
Y-17448D02*
X14859Y-17499D01*
X11572Y-16978D02*
X11654D01*
X11534D02*
X11572D01*
X11624Y-17008D02*
X11654Y-16978D01*
X11602Y-17008D02*
X11624D01*
X11572Y-16978D02*
X11602Y-17008D01*
X18597Y-14692D02*
X18649Y-14640D01*
X18708D01*
X18779Y-14569D01*
X18932D01*
X18770Y-12292D02*
X18948Y-12114D01*
X18656Y-12406D02*
X18770Y-12292D01*
X18821Y-12343D01*
X18847D01*
X19253Y-12368D02*
Y-12368D01*
X18339Y-12735D02*
X18350D01*
X18385Y-12770D01*
X18398D01*
X18313Y-12825D02*
X18326D01*
X11678Y-12540D02*
X11730Y-12592D01*
X11765D01*
X11887Y-12714D01*
Y-12724D02*
Y-12714D01*
X11881Y-12824D02*
X12077D01*
X11812Y-12755D02*
X11881Y-12824D01*
X11767Y-12794D02*
X11841Y-12868D01*
Y-13004D02*
Y-12868D01*
X11654Y-12794D02*
X11767D01*
X11812Y-12755D02*
Y-12735D01*
X11744Y-12667D02*
X11812Y-12735D01*
X11479Y-12933D02*
Y-12361D01*
X11685Y-12444D02*
X11760D01*
X11743Y-12286D02*
X12349Y-12892D01*
X11654Y-12667D02*
X11744D01*
X11654Y-12413D02*
X11685Y-12444D01*
X11654Y-12413D02*
X11740D01*
X10947Y-12368D02*
X10968D01*
X11014Y-12413D01*
X10241Y-13088D02*
Y-12994D01*
X10375Y-13016D02*
X10479Y-13120D01*
X10241Y-12994D02*
X10306Y-12928D01*
X10339D02*
X10534Y-12732D01*
X10306Y-12928D02*
X10339D01*
X10338Y-13003D02*
X10363D01*
X10375Y-13016D01*
X10754Y-13048D02*
X11154D01*
X10622Y-13180D02*
X10754Y-13048D01*
X10598Y-13120D02*
X10923Y-12794D01*
X10479Y-13120D02*
X10598D01*
X10332Y-13180D02*
X10622D01*
X5461Y-12546D02*
Y-12419D01*
X5440Y-12398D02*
X5461Y-12419D01*
X5440Y-12398D02*
Y-12089D01*
X3581Y-12876D02*
X3607Y-12901D01*
X4064Y-12419D02*
X4115Y-12470D01*
X4165Y-12419D01*
Y-12343D01*
X11453Y-10624D02*
Y-7942D01*
X11229Y-7849D02*
X11303Y-7923D01*
X11334Y-7823D02*
X11453Y-7942D01*
X11314Y-7823D02*
X11334D01*
X11213Y-7722D02*
X11314Y-7823D01*
X11303Y-7922D02*
Y-7898D01*
X14935Y-8865D02*
X15519D01*
X18558Y-5637D02*
X18597Y-5675D01*
X18415Y-5637D02*
X18558D01*
X10033Y-3554D02*
Y-3351D01*
X9982Y-3605D02*
X10033Y-3554D01*
X10490Y-4519D02*
Y-4479D01*
X10338Y-4327D02*
X10490Y-4479D01*
X10338Y-4327D02*
Y-4189D01*
X1067Y-4253D02*
X1068Y-4251D01*
Y-4011D01*
X949Y-3892D02*
X1068Y-4011D01*
X949Y-3892D02*
Y-3664D01*
X1188Y-3426D01*
Y-2648D01*
X1068Y-2529D02*
X1188Y-2648D01*
X885Y-17188D02*
Y-314D01*
Y-17188D02*
X1648Y-17951D01*
X885Y-314D02*
X984Y-215D01*
X22403Y-4240D02*
Y-2257D01*
X17297Y-1471D02*
Y-1032D01*
X12573Y-1649D02*
X12596D01*
X12622Y-1676D01*
X12473Y-1676D02*
X12547Y-1751D01*
X12091Y-1676D02*
X12473D01*
X12421Y-1846D02*
X12558D01*
X14691Y-155D02*
X14839Y-303D01*
X14956Y-215D02*
X17967D01*
X14980Y-275D02*
X17943D01*
X14486Y-215D02*
X14649Y-378D01*
X14318Y-215D02*
X14486D01*
X14461Y-275D02*
X14624Y-438D01*
X14342Y-275D02*
X14461D01*
X14222Y-395D02*
X14342Y-275D01*
X14198Y-335D02*
X14318Y-215D01*
X13857Y-335D02*
X14198D01*
X12307Y-215D02*
X12427Y-335D01*
X11467Y-215D02*
X12307D01*
X12832D02*
X13000D01*
X12712Y-335D02*
X12832Y-215D01*
X12427Y-335D02*
X12712D01*
X12785Y-777D02*
X13168Y-395D01*
X12785Y-1704D02*
Y-777D01*
X11654Y-1103D02*
X11989D01*
X12018Y-1133D01*
X12099D01*
X12420Y-1116D02*
Y-921D01*
X12283Y-783D02*
X12420Y-921D01*
X11818Y-1230D02*
X12056Y-1468D01*
X11821Y-1357D02*
X11996Y-1532D01*
X19097Y-9857D02*
X19177Y-9777D01*
X19097Y-9866D02*
Y-9857D01*
X11813Y-10131D02*
X11836Y-10107D01*
X11654Y-10131D02*
X11813D01*
X19902Y-2087D02*
X21942D01*
X22087Y-1941D01*
X19757Y-4249D02*
X19761Y-4250D01*
X19757Y-15575D02*
X19944Y-15388D01*
X19757Y-15788D02*
Y-15575D01*
X19761Y-13603D02*
Y-13481D01*
Y-13603D02*
X19944Y-13786D01*
Y-15388D02*
Y-13786D01*
X22286Y-4240D02*
X22403D01*
X21247Y-6412D02*
X22212D01*
X22352Y-6551D01*
X21102Y-6557D02*
X21247Y-6412D01*
X22352Y-6551D02*
X22403D01*
X20538Y-4249D02*
X20542Y-4250D01*
X21247Y-8717D02*
X22231D01*
X20538Y-8862D02*
X20542Y-8863D01*
X22231Y-8717D02*
X22403Y-8888D01*
X21102Y-8862D02*
X21247Y-8717D01*
X22256Y-11027D02*
X22403Y-11174D01*
X22150Y-4104D02*
X22286Y-4240D01*
X21247Y-11027D02*
X22256D01*
X20538Y-11172D02*
X20542Y-11173D01*
X21102Y-11172D02*
X21247Y-11027D01*
X21102Y-4249D02*
X21247Y-4104D01*
X21102Y-18096D02*
X21247Y-17951D01*
X22382Y-15614D02*
X22403Y-15594D01*
X22382Y-17951D02*
Y-15614D01*
X21247Y-17951D02*
X22382D01*
X21247Y-4104D02*
X22150D01*
X19757Y-6557D02*
X19761Y-6557D01*
X20538Y-6557D02*
X20542Y-6557D01*
X19757Y-8862D02*
X19761Y-8863D01*
X20542Y-15812D02*
Y-15788D01*
X19757Y-11172D02*
X19761Y-11173D01*
X19761Y-16190D02*
Y-15788D01*
Y-16190D02*
X19880Y-16310D01*
Y-17161D02*
Y-16310D01*
Y-17161D02*
X19944Y-17225D01*
Y-17821D02*
Y-17225D01*
X19761Y-18004D02*
X19944Y-17821D01*
X19757Y-18096D02*
X19761Y-18096D01*
X17737Y-19199D02*
Y-19066D01*
X17578Y-19040D02*
X17711D01*
X17517Y-18979D02*
X17578Y-19040D01*
X17431Y-18760D02*
X17517Y-18846D01*
X15561Y-18760D02*
X17431D01*
X15169Y-18368D02*
X15561Y-18760D01*
X13594Y-17951D02*
X14752D01*
X12916Y-18096D02*
X12920Y-18096D01*
X13449Y-18096D02*
X13594Y-17951D01*
X17711Y-19040D02*
X17737Y-19066D01*
X17517Y-18979D02*
Y-18846D01*
X12228Y-18096D02*
X12915D01*
X12916Y-18096D01*
X12915Y-15788D02*
X12916Y-15788D01*
X12228Y-15788D02*
X12915D01*
X12228Y-13481D02*
X12915D01*
X12916Y-13480D01*
X14944Y-15788D02*
X15519D01*
X15336Y-13663D02*
X15519Y-13480D01*
X14935Y-13663D02*
X15336D01*
X13563D02*
X14935D01*
X13380Y-13480D02*
X13563Y-13663D01*
X14402Y-8865D02*
X14406Y-8865D01*
X14935Y-11318D02*
X15374D01*
X15519Y-11172D01*
X13594Y-11318D02*
X14935D01*
X13449Y-11172D02*
X13594Y-11318D01*
X14935Y-6602D02*
X15474D01*
X15519Y-6557D01*
X14935Y-4069D02*
X15339D01*
X15519Y-4249D01*
X13594Y-4069D02*
X14935D01*
X13449Y-4214D02*
X13594Y-4069D01*
X12916Y-4214D02*
X12920Y-4214D01*
X13594Y-6457D02*
X14464D01*
X13449Y-6602D02*
X13594Y-6457D01*
X14609Y-6602D02*
X14935D01*
X14464Y-6457D02*
X14609Y-6602D01*
X12916D02*
X12920Y-6602D01*
X12918Y-1944D02*
X12920Y-1942D01*
X15176Y-1941D02*
X15519D01*
X12920Y-1945D02*
Y-1942D01*
X13182Y-2208D02*
X14935D01*
X12920Y-1945D02*
X13182Y-2208D01*
X12920Y-1967D02*
Y-1945D01*
X7899Y-1941D02*
X8282D01*
X7899Y-4249D02*
X8282D01*
X14732Y-16000D02*
X14935Y-15797D01*
X7717Y-155D02*
X7721Y-159D01*
X7396Y-1941D02*
X7899D01*
X6380Y-1796D02*
X7251D01*
X6235Y-1941D02*
X6380Y-1796D01*
X7251D02*
X7396Y-1941D01*
X7417Y-4249D02*
X7899D01*
X12228Y-6602D02*
X12915D01*
X12916Y-6602D01*
X12228Y-11173D02*
X12915D01*
X12916Y-11172D01*
X15519Y-18096D02*
X15523Y-18096D01*
X14149Y-9117D02*
X14402Y-8865D01*
X12228Y-9102D02*
Y-8865D01*
Y-9102D02*
X12243Y-9117D01*
X14149D01*
X12916Y-13480D02*
X12920Y-13481D01*
X12916Y-11172D02*
X12920Y-11173D01*
X12228Y-4214D02*
X12915D01*
X12916Y-4214D01*
X15519Y-6557D02*
X15523Y-6557D01*
Y-6582D02*
Y-6557D01*
X15519Y-8865D02*
X15523Y-8865D01*
X1858Y-4278D02*
Y-4253D01*
X1067Y-4253D02*
X1071Y-4253D01*
X10538Y-1967D02*
Y-1942D01*
X3325Y-6582D02*
Y-6557D01*
X5014Y-1942D02*
X5014Y-1941D01*
X5702D01*
X5706Y-1942D01*
X9042Y-1941D02*
X9046Y-1942D01*
X8286Y-1967D02*
Y-1942D01*
X5702Y-8865D02*
X5706Y-8865D01*
X5014Y-11173D02*
X5014Y-11172D01*
X5702D01*
X8282Y-4249D02*
X8286Y-4250D01*
X5702Y-11172D02*
X5706Y-11173D01*
Y-11197D02*
Y-11173D01*
X6439Y-11172D02*
X6443Y-11173D01*
X5014Y-15788D02*
X5702D01*
X5014Y-15788D02*
X5014Y-15788D01*
X5702D02*
X5706Y-15788D01*
Y-15812D02*
Y-15788D01*
X8282Y-13480D02*
X8286Y-13481D01*
X8282Y-15788D02*
X8286Y-15788D01*
X9046Y-15985D02*
Y-15788D01*
X8920Y-16111D02*
X9046Y-15985D01*
X8920Y-17856D02*
Y-16111D01*
Y-17856D02*
X9046Y-17981D01*
X4441Y-7281D02*
Y-6201D01*
X4000Y-7722D02*
X4441Y-7281D01*
X3941Y-7722D02*
X4000D01*
X3841Y-8583D02*
X3941Y-8484D01*
X2653Y-8583D02*
X3841D01*
X2511Y-8442D02*
X2653Y-8583D01*
X2511Y-8442D02*
Y-8276D01*
X2574Y-8214D01*
X2604D01*
X2967Y-7851D01*
X3321D01*
X3321Y-1637D02*
X3941D01*
X3204Y-1519D02*
X3321Y-1637D01*
X3271Y-6201D02*
X3941D01*
X3204Y-6134D02*
X3271Y-6201D01*
X3204Y-6134D02*
Y-5968D01*
X3321Y-5851D01*
Y-5543D01*
X10618Y-8484D02*
X11154D01*
X10598Y-8504D02*
X10618Y-8484D01*
X10479Y-8504D02*
X10598D01*
X10417Y-8442D02*
X10479Y-8504D01*
X10417Y-8442D02*
Y-8185D01*
X10415Y-8183D02*
X10417Y-8185D01*
X10415Y-8183D02*
Y-8121D01*
X10459Y-8077D01*
X10489D01*
X10534Y-8031D01*
Y-7851D01*
X10672Y-3919D02*
X11154D01*
X10642Y-3889D02*
X10672Y-3919D01*
X10479Y-3889D02*
X10642D01*
X10417Y-3827D02*
X10479Y-3889D01*
X10417Y-3827D02*
Y-3627D01*
X10534Y-3510D01*
Y-3236D01*
X17982Y-8469D02*
X18597D01*
X17947Y-8504D02*
X17982Y-8469D01*
X17828Y-8504D02*
X17947D01*
X17729Y-8405D02*
X17828Y-8504D01*
X17729Y-8405D02*
Y-8006D01*
X17883Y-7851D01*
X18046Y-3897D02*
X18597D01*
X18038Y-3889D02*
X18046Y-3897D01*
X17828Y-3889D02*
X18038D01*
X17766Y-3827D02*
X17828Y-3889D01*
X17766Y-3827D02*
Y-3353D01*
X17883Y-3236D01*
X18003Y-10755D02*
X18597D01*
X17947Y-10812D02*
X18003Y-10755D01*
X17828Y-10812D02*
X17947D01*
X17766Y-10750D02*
X17828Y-10812D01*
X17766Y-10750D02*
Y-10276D01*
X17883Y-10159D01*
X18097Y-15327D02*
X18597D01*
X17997Y-15427D02*
X18097Y-15327D01*
X17828Y-15427D02*
X17997D01*
X17766Y-15365D02*
X17828Y-15427D01*
X17766Y-15365D02*
Y-15189D01*
X17883Y-15072D01*
Y-14774D01*
X18025Y-13041D02*
X18597D01*
X17947Y-13120D02*
X18025Y-13041D01*
X17828Y-13120D02*
X17947D01*
X17766Y-13058D02*
X17828Y-13120D01*
X17766Y-13058D02*
Y-12584D01*
X17883Y-12467D01*
X18069Y-17613D02*
X18597D01*
X17947Y-17735D02*
X18069Y-17613D01*
X17828Y-17735D02*
X17947D01*
X17729Y-17636D02*
X17828Y-17735D01*
X17729Y-17636D02*
Y-17237D01*
X17883Y-17082D01*
X17907Y-18642D02*
X18794Y-17755D01*
Y-17117D01*
X18708Y-17030D02*
X18794Y-17117D01*
X18597Y-17030D02*
X18708D01*
X18597D02*
Y-16978D01*
X19296Y-7707D02*
X19557Y-7968D01*
X19661D01*
X19942Y-8249D01*
Y-8464D02*
Y-8249D01*
X19353Y-9053D02*
X19942Y-8464D01*
X19353Y-9795D02*
Y-9053D01*
X19208Y-9941D02*
X19353Y-9795D01*
X19149Y-9941D02*
X19208D01*
X19097Y-9993D02*
X19149Y-9941D01*
X11654Y-10004D02*
X11860D01*
X12287Y-10431D01*
Y-10522D02*
Y-10431D01*
Y-10522D02*
X12349Y-10584D01*
Y-10750D02*
Y-10584D01*
X11785Y-11313D02*
X12349Y-10750D01*
X11785Y-11428D02*
Y-11313D01*
X11481Y-11733D02*
X11785Y-11428D01*
X11481Y-12172D02*
Y-11733D01*
Y-12172D02*
X11543Y-12234D01*
X11602D01*
X11654Y-12286D01*
X11154Y-7595D02*
Y-6555D01*
X10880Y-6281D02*
X11154Y-6555D01*
X10479Y-6281D02*
X10880D01*
X10357Y-6159D02*
X10479Y-6281D01*
X10357Y-6159D02*
Y-5516D01*
X10561Y-5312D01*
X11154D01*
X10707Y-275D02*
X11154Y-722D01*
X4951Y-275D02*
X10707D01*
X4891Y-335D02*
X4951Y-275D01*
X4353Y-335D02*
X4891D01*
X3941Y-748D02*
X4353Y-335D01*
X4441Y-1129D02*
X4699D01*
X4441Y-1256D02*
X4834D01*
X5014Y-1436D01*
X3932Y-3402D02*
X3941Y-3411D01*
X3759Y-3402D02*
X3932D01*
X3531Y-3538D02*
X3941D01*
X3325Y-3744D02*
X3531Y-3538D01*
X3623Y-3665D02*
X3941D01*
X3607Y-3681D02*
X3623Y-3665D01*
X3775Y-3792D02*
X3941D01*
X3708Y-3859D02*
X3775Y-3792D01*
X4441Y-3538D02*
X4808D01*
X5014Y-3744D01*
X3622Y-5693D02*
X3941D01*
X3325Y-5991D02*
X3622Y-5693D01*
X3325Y-6051D02*
Y-5991D01*
X3895Y-6120D02*
X3941Y-6074D01*
X3530Y-6120D02*
X3895D01*
X4079Y-8584D02*
Y-8012D01*
X4043Y-7976D02*
X4079Y-8012D01*
X3941Y-7976D02*
X4043D01*
X3530Y-7847D02*
X3659Y-7976D01*
X3941D01*
X3581Y-8103D02*
X3941D01*
X3325Y-8359D02*
X3581Y-8103D01*
X3594Y-8357D02*
X3941D01*
X3446Y-8504D02*
X3594Y-8357D01*
X2778Y-8504D02*
X3446D01*
X2633Y-8359D02*
X2778Y-8504D01*
X4267Y-8175D02*
X4339Y-8103D01*
X3734Y-10258D02*
X3941D01*
X3325Y-10667D02*
X3734Y-10258D01*
X4441Y-12413D02*
X4503D01*
X4597Y-12507D02*
Y-12495D01*
X4743Y-12641D02*
X4775Y-12673D01*
X4597Y-12641D02*
X4743D01*
X4597D02*
Y-12638D01*
X4552Y-12592D02*
X4597Y-12638D01*
X4493Y-12592D02*
X4552D01*
X4441Y-12540D02*
X4493Y-12592D01*
X4346Y-12540D02*
X4441D01*
X4303Y-12584D02*
X4346Y-12540D01*
X4303Y-13796D02*
Y-12584D01*
X4787Y-12748D02*
X5014Y-12975D01*
X4619Y-12748D02*
X4787D01*
X4539Y-12667D02*
X4619Y-12748D01*
X4441Y-12667D02*
X4539D01*
X4347Y-14823D02*
X4441D01*
X4300Y-14870D02*
X4347Y-14823D01*
X4300Y-15594D02*
Y-14870D01*
X3767Y-17105D02*
X3941D01*
X3538Y-16877D02*
X3767Y-17105D01*
X2596Y-16877D02*
X3538D01*
X2507Y-16965D02*
X2596Y-16877D01*
X2507Y-17707D02*
Y-16965D01*
Y-17707D02*
X2540Y-17740D01*
X2804D01*
X2956Y-17588D01*
X3325Y-17590D02*
Y-17588D01*
X3797Y-17359D02*
X3941D01*
X3657Y-17499D02*
X3797Y-17359D01*
X3941Y-17486D02*
X4000D01*
X4078Y-17565D01*
Y-17662D02*
Y-17565D01*
X3860Y-17880D02*
X4078Y-17662D01*
X2143Y-17880D02*
X3860D01*
X1853Y-17590D02*
X2143Y-17880D01*
X4441Y-17232D02*
X4656D01*
X5014Y-17590D01*
X11064Y-17232D02*
X11154D01*
X11042Y-17254D02*
X11064Y-17232D01*
X10875Y-17254D02*
X11042D01*
X10538Y-17590D02*
X10875Y-17254D01*
X10951Y-17359D02*
X11154D01*
X10795Y-17515D02*
X10951Y-17359D01*
X11654Y-17232D02*
X11869D01*
X12228Y-17590D01*
X10871Y-14950D02*
X11154D01*
X10538Y-15282D02*
X10871Y-14950D01*
X11898Y-14953D02*
X12228Y-15282D01*
X11658Y-14953D02*
X11898D01*
X11654Y-14950D02*
X11658Y-14953D01*
X10846Y-12667D02*
X11154D01*
X10538Y-12975D02*
X10846Y-12667D01*
X11154Y-12921D02*
X11213D01*
X11292Y-13000D01*
Y-13038D02*
Y-13000D01*
Y-13038D02*
X11303Y-13048D01*
Y-13130D02*
Y-13048D01*
X11211Y-13221D02*
X11303Y-13130D01*
X10934Y-13221D02*
X11211D01*
X10820Y-10385D02*
X11154D01*
X10538Y-10667D02*
X10820Y-10385D01*
X11142Y-10500D02*
X11154Y-10512D01*
X10797Y-10500D02*
X11142D01*
X10753Y-10544D02*
X10797Y-10500D01*
X10753Y-10759D02*
Y-10544D01*
X10719Y-10793D02*
X10753Y-10759D01*
X11003Y-10639D02*
X11154D01*
X10939Y-10575D02*
X11003Y-10639D01*
X10828Y-10575D02*
X10939D01*
X11654Y-10512D02*
X11829D01*
X11933Y-10615D01*
Y-10836D02*
Y-10615D01*
X11070Y-8230D02*
X11154D01*
X11038Y-8261D02*
X11070Y-8230D01*
X10976Y-8199D02*
X11038Y-8261D01*
X10914Y-8199D02*
X10976D01*
X10840Y-8272D02*
X10914Y-8199D01*
X10802Y-8272D02*
X10840D01*
X10719Y-8355D02*
X10802Y-8272D01*
X10770Y-5820D02*
X11154D01*
X10538Y-6051D02*
X10770Y-5820D01*
X10978Y-6074D02*
X11154D01*
X10973Y-6069D02*
X10978Y-6074D01*
X10744Y-3538D02*
X11154D01*
X10538Y-3744D02*
X10744Y-3538D01*
X11154Y-3792D02*
X11241D01*
X11303Y-3854D01*
X11654Y-3538D02*
X12057D01*
X12228Y-3708D01*
X11839Y-3665D02*
X12040Y-3867D01*
X11654Y-3665D02*
X11839D01*
X10998Y-1103D02*
X11154D01*
X10927Y-1175D02*
X10998Y-1103D01*
X10800Y-1175D02*
X10927D01*
X10538Y-1436D02*
X10800Y-1175D01*
X18115Y-3516D02*
X18597D01*
X17888Y-3744D02*
X18115Y-3516D01*
X18397Y-3770D02*
X18597D01*
X18333Y-3707D02*
X18397Y-3770D01*
X18206Y-3707D02*
X18333D01*
X18137Y-5802D02*
X18597D01*
X17888Y-6051D02*
X18137Y-5802D01*
X19097D02*
X19511D01*
X19761Y-6051D01*
X19097Y-5929D02*
X19367D01*
X19710Y-6272D01*
X18159Y-8088D02*
X18597D01*
X18585Y-8204D02*
X18597Y-8215D01*
X18392Y-8342D02*
X18597D01*
X18328Y-8279D02*
X18392Y-8342D01*
X19097Y-8088D02*
X19492D01*
X19761Y-8357D01*
X18180Y-10374D02*
X18597D01*
X17888Y-10667D02*
X18180Y-10374D01*
X19097D02*
X19468D01*
X19761Y-10667D01*
X19097Y-10501D02*
X19316D01*
X19405Y-10590D01*
X18202Y-12660D02*
X18597D01*
X17888Y-12975D02*
X18202Y-12660D01*
X18415Y-12914D02*
X18597D01*
X18326Y-12825D02*
X18415Y-12914D01*
X19097Y-12660D02*
X19446D01*
X19761Y-12975D01*
X19097Y-12787D02*
X19135Y-12749D01*
X19329D01*
X18455Y-15200D02*
X18597D01*
X18344Y-15088D02*
X18455Y-15200D01*
X19097Y-14946D02*
X19424D01*
X19761Y-15282D01*
X19097Y-15073D02*
X19189D01*
X19583Y-15467D01*
Y-15568D02*
Y-15467D01*
X18246Y-17232D02*
X18597D01*
X17888Y-17590D02*
X18246Y-17232D01*
X18584Y-17372D02*
X18597Y-17359D01*
X18262Y-17372D02*
X18584D01*
X19097Y-17359D02*
X19109Y-17372D01*
X19304D01*
X4441Y-5209D02*
X4470Y-5180D01*
X4441Y-5312D02*
Y-5209D01*
X19097Y-722D02*
Y-637D01*
X19177Y-557D01*
X10915Y-8028D02*
X11102D01*
X10973Y-15077D02*
X11154D01*
X13657Y-8657D02*
X13779Y-8535D01*
Y-6927D01*
X13657Y-6805D02*
X13779Y-6927D01*
X13657Y-6805D02*
Y-6602D01*
X17843Y-8688D02*
X17888Y-8732D01*
X17653Y-8688D02*
X17843D01*
X17498Y-8533D02*
X17653Y-8688D01*
X17498Y-8533D02*
Y-7134D01*
X17888Y-6744D01*
Y-6557D01*
X17950Y-7580D02*
X18597D01*
X17669Y-7862D02*
X17950Y-7580D01*
X17669Y-8430D02*
Y-7862D01*
Y-8430D02*
X17832Y-8593D01*
X17917D01*
X18313Y-8989D01*
Y-9583D02*
Y-8989D01*
Y-9583D02*
X18597Y-9866D01*
X10411Y-7073D02*
X10534Y-6950D01*
X10411Y-7567D02*
Y-7073D01*
X10266Y-7712D02*
X10411Y-7567D01*
X10266Y-8710D02*
Y-7712D01*
X16980Y-15774D02*
X17018Y-15812D01*
X16980Y-15774D02*
Y-14161D01*
X17102Y-14038D01*
X2390Y-15662D02*
X2540Y-15812D01*
X2390Y-15662D02*
Y-13991D01*
X2629Y-13752D01*
X2451Y-15175D02*
X3184Y-14442D01*
X2451Y-15390D02*
Y-15175D01*
Y-15390D02*
X3785Y-16724D01*
X3941D01*
X21183Y-13949D02*
X21306Y-13826D01*
X21183Y-15774D02*
Y-13949D01*
X21306Y-15788D02*
Y-15774D01*
X9822Y-9302D02*
Y-8865D01*
Y-9302D02*
X9944Y-9424D01*
Y-10877D02*
Y-9424D01*
X9822Y-10999D02*
X9944Y-10877D01*
X9906Y-13503D02*
X9944Y-13465D01*
Y-11235D01*
X9906Y-11197D02*
X9944Y-11235D01*
X9822Y-11197D02*
Y-11173D01*
Y-6351D02*
X9944Y-6229D01*
Y-4596D01*
X9822Y-4474D02*
X9944Y-4596D01*
X17645Y-9495D02*
X17883Y-9257D01*
X17645Y-11062D02*
Y-9495D01*
Y-11062D02*
X17780Y-11197D01*
X17972Y-9866D02*
X18597D01*
X17706Y-10132D02*
X17972Y-9866D01*
X17706Y-10902D02*
Y-10132D01*
Y-10902D02*
X17774Y-10970D01*
X17986D01*
X18339Y-11322D01*
Y-11894D02*
Y-11322D01*
Y-11894D02*
X18597Y-12152D01*
X17843Y-13290D02*
X17888Y-13334D01*
X17780Y-13290D02*
X17843D01*
X17645Y-13155D02*
X17780Y-13290D01*
X17645Y-13155D02*
Y-11594D01*
X17888Y-11352D01*
Y-11173D01*
X17994Y-12152D02*
X18597D01*
X17706Y-12440D02*
X17994Y-12152D01*
X17706Y-13082D02*
Y-12440D01*
Y-13082D02*
X17804Y-13180D01*
X17888D01*
X18364Y-13655D01*
Y-14206D02*
Y-13655D01*
Y-14206D02*
X18597Y-14438D01*
X9822Y-2343D02*
Y-1942D01*
Y-2343D02*
X9941Y-2462D01*
Y-3328D02*
Y-2462D01*
X9700Y-3569D02*
X9941Y-3328D01*
X9700Y-4234D02*
Y-3569D01*
Y-4234D02*
X9739Y-4273D01*
X9822D02*
Y-4250D01*
X10782Y-17613D02*
X11154D01*
X10660Y-17735D02*
X10782Y-17613D01*
X10534Y-17353D02*
Y-17082D01*
X2507Y-11824D02*
X2629Y-11703D01*
X2507Y-13460D02*
Y-11824D01*
Y-13460D02*
X2540Y-13493D01*
X17645Y-2548D02*
X17883Y-2310D01*
X17645Y-3887D02*
Y-2548D01*
Y-3887D02*
X17883Y-4125D01*
Y-4249D02*
Y-4125D01*
X17645Y-2307D02*
X17883Y-2068D01*
X17645Y-4116D02*
X17825Y-4296D01*
X17107Y-16135D02*
Y-15788D01*
Y-16135D02*
X17226Y-16254D01*
Y-17232D02*
Y-16254D01*
X16985Y-17473D02*
X17226Y-17232D01*
X16985Y-18190D02*
Y-17473D01*
Y-18190D02*
X17107Y-18312D01*
Y-18096D01*
X2507Y-6549D02*
X2540Y-6582D01*
X2507Y-6549D02*
Y-4641D01*
X2629Y-4519D01*
X21183Y-13503D02*
Y-11197D01*
X2633Y-4042D02*
X2756Y-3919D01*
Y-2289D01*
X2633Y-2166D02*
X2756Y-2289D01*
X2633Y-2166D02*
Y-1942D01*
X11654Y-5312D02*
X12357D01*
X11154Y-849D02*
X11266D01*
X11446Y-1029D01*
Y-3246D02*
Y-1029D01*
Y-3246D02*
X11463Y-3263D01*
Y-3607D02*
Y-3263D01*
Y-3607D02*
X11517Y-3661D01*
Y-3841D02*
Y-3661D01*
Y-3841D02*
X11595Y-3919D01*
X11654D01*
X18732Y-976D02*
X18745Y-989D01*
X18597Y-976D02*
X18732D01*
X18597Y-3008D02*
X18796Y-2809D01*
Y-1349D01*
X18746Y-1299D02*
X18796Y-1349D01*
X18746Y-1299D02*
Y-1094D01*
X18798Y-1042D01*
X18820D01*
Y-835D01*
X18707Y-722D02*
X18820Y-835D01*
X18597Y-722D02*
X18707D01*
X18370Y-1357D02*
X18597D01*
X18326Y-1313D02*
X18370Y-1357D01*
X18326Y-1313D02*
Y-1294D01*
X18910Y-1230D02*
X19097D01*
X18872Y-1268D02*
X18910Y-1230D01*
X18821Y-1268D02*
X18872D01*
X5706Y-1436D02*
Y-1315D01*
X5497Y-1107D02*
X5706Y-1315D01*
X4985Y-1107D02*
X5497D01*
X4579Y-701D02*
X4985Y-1107D01*
X4579Y-701D02*
Y-700D01*
X4552Y-673D02*
X4579Y-700D01*
X4330Y-673D02*
X4552D01*
X4301Y-701D02*
X4330Y-673D01*
X4301Y-988D02*
Y-701D01*
Y-988D02*
X4315Y-1002D01*
X4441D01*
X19097Y-3516D02*
X19254D01*
X19266Y-3528D01*
X19545D01*
X19761Y-3744D01*
X18808Y-3262D02*
X18872Y-3326D01*
X19278Y-4875D02*
Y-3732D01*
X18794Y-5359D02*
X19278Y-4875D01*
X18794Y-5585D02*
Y-5359D01*
Y-5585D02*
X18821Y-5612D01*
X19510Y-8028D02*
X19636D01*
X18872Y-10082D02*
Y-9450D01*
X19278Y-10082D02*
X19718Y-10522D01*
X19820D01*
X18948Y-12114D02*
Y-11684D01*
X19812Y-6356D02*
X19883Y-6285D01*
X19568Y-6356D02*
X19812D01*
X19380Y-6544D02*
X19568Y-6356D01*
X19380Y-7567D02*
Y-6544D01*
X19240Y-7707D02*
X19380Y-7567D01*
X11827Y-14823D02*
X11883Y-14878D01*
X11654Y-14823D02*
X11827D01*
X11516Y-16282D02*
X11536Y-16262D01*
X11516Y-16960D02*
Y-16282D01*
Y-16960D02*
X11534Y-16978D01*
X4441Y-10385D02*
X4732D01*
X5014Y-10667D01*
X4579Y-7722D02*
X4994Y-8136D01*
X5070D01*
X5136Y-8202D01*
Y-8456D02*
Y-8202D01*
X5044Y-8548D02*
X5136Y-8456D01*
X5000Y-8548D02*
X5044D01*
X4826Y-8722D02*
X5000Y-8548D01*
X4826Y-9877D02*
Y-8722D01*
X4699Y-10004D02*
X4826Y-9877D01*
X5010Y-14774D02*
Y-14751D01*
X4887Y-14627D02*
X5010Y-14751D01*
X4887Y-14627D02*
Y-13397D01*
X5197Y-13087D01*
Y-11629D01*
X4887Y-11319D02*
X5197Y-11629D01*
X4887Y-11319D02*
Y-11092D01*
X5046Y-10932D01*
X5014Y-9091D02*
X5070D01*
X4887Y-8964D02*
X5014Y-9091D01*
X4887Y-8964D02*
Y-8746D01*
X4955Y-8677D01*
X5103D01*
X5197Y-8583D01*
Y-8090D01*
X5010Y-7903D02*
X5197Y-8090D01*
X5010Y-7903D02*
Y-7851D01*
X4441Y-7849D02*
X4531D01*
X5014Y-8331D01*
Y-8359D02*
Y-8331D01*
X3756Y-8205D02*
X3780Y-8230D01*
X3941D01*
X4267Y-8139D02*
X4303Y-8103D01*
X19621Y-3389D02*
X19964Y-3732D01*
X19097Y-3389D02*
X19621D01*
X11798Y-17359D02*
X11862Y-17423D01*
X11654Y-17359D02*
X11798D01*
X4566Y-12794D02*
X4673Y-12901D01*
X4441Y-12794D02*
X4566D01*
X4300Y-10976D02*
Y-10298D01*
X4340Y-10258D01*
X4597Y-9066D02*
Y-8380D01*
X4441Y-8230D02*
X4748D01*
X3424Y-12159D02*
X3941D01*
X3140Y-12443D02*
X3424Y-12159D01*
X3140Y-13079D02*
Y-12443D01*
Y-13079D02*
X3749Y-13688D01*
Y-14308D02*
Y-13688D01*
Y-14308D02*
X3883Y-14442D01*
X19226Y-16851D02*
X19882Y-17507D01*
Y-17673D02*
Y-17507D01*
X19519Y-18036D02*
X19882Y-17673D01*
X19419Y-18036D02*
X19519D01*
X18414Y-19040D02*
X19419Y-18036D01*
X18025Y-19066D02*
X18052Y-19040D01*
X18025Y-19095D02*
Y-19066D01*
X17970Y-19150D02*
X18025Y-19095D01*
X17881Y-19150D02*
X17970D01*
X3660Y-15331D02*
X3941D01*
Y-3284D02*
X4165D01*
X4076Y-1002D02*
X4165Y-1090D01*
X11154Y-3157D02*
X11237D01*
X11403Y-3323D01*
Y-3729D02*
Y-3323D01*
Y-3729D02*
X11455Y-3781D01*
Y-3804D02*
Y-3781D01*
Y-3804D02*
X11455Y-3805D01*
Y-5646D02*
Y-3805D01*
Y-5646D02*
X11469Y-5661D01*
Y-6075D02*
Y-5661D01*
Y-6075D02*
X11595Y-6201D01*
X11654D01*
X3941Y-10131D02*
X4066D01*
X4165Y-10031D01*
X12920Y-15282D02*
Y-15064D01*
X12872Y-15017D02*
X12920Y-15064D01*
X12171Y-15017D02*
X12872D01*
X11850Y-14696D02*
X12171Y-15017D01*
X11654Y-14696D02*
X11850D01*
X1072Y-11174D02*
Y-11173D01*
X2633Y-4273D02*
Y-4250D01*
X11654Y-16724D02*
X11709D01*
X3837Y-10639D02*
X3941D01*
X3784Y-10692D02*
X3837Y-10639D01*
X3683Y-10692D02*
X3784D01*
X3895Y-10812D02*
X3941Y-10766D01*
X3266Y-10812D02*
X3895D01*
X3204Y-10750D02*
X3266Y-10812D01*
X3204Y-10750D02*
Y-10276D01*
X3321Y-10159D01*
X19097Y-8215D02*
X19228D01*
X19355Y-8342D01*
X18948Y-11684D02*
X19882Y-10750D01*
Y-10584D01*
X19636Y-8028D02*
X19882Y-8274D01*
X18758Y-7834D02*
X18847Y-7745D01*
X18597Y-7834D02*
X18758D01*
X19097Y-16614D02*
X19202Y-16508D01*
X11654Y-3030D02*
X11735D01*
X12024Y-2740D01*
X10862Y-3665D02*
X11154D01*
X10693Y-3834D02*
X10862Y-3665D01*
X4441Y-1383D02*
X4595D01*
X9822Y-13615D02*
X10534D01*
X10538Y-15918D02*
Y-15788D01*
X9822Y-15918D02*
Y-15788D01*
X1961Y-15787D02*
X1986Y-15812D01*
X3941Y-12286D02*
X4000D01*
X4441Y-11846D01*
Y-10766D01*
X11706Y-10310D02*
X11986D01*
X11654Y-10258D02*
X11706Y-10310D01*
X18986Y-7580D02*
X19097D01*
X18923Y-7644D02*
X18986Y-7580D01*
X18923Y-7790D02*
Y-7644D01*
X18891Y-7821D02*
X18923Y-7790D01*
X18874Y-7821D02*
X18891D01*
X18770Y-7926D02*
X18874Y-7821D01*
X18770Y-8268D02*
Y-7926D01*
Y-8268D02*
X18923Y-8421D01*
X18085Y-7771D02*
X18275Y-7961D01*
X18597D01*
X18558Y-10285D02*
X18597Y-10247D01*
X18110Y-10285D02*
X18558D01*
X18734Y-10830D02*
Y-10580D01*
X18692Y-10872D02*
X18734Y-10830D01*
X17782Y-10872D02*
X17805Y-10895D01*
X18597Y-10501D02*
X18656D01*
X18734Y-10580D01*
X3807Y-12794D02*
X3941D01*
X3700Y-12901D02*
X3807Y-12794D01*
X3607Y-12901D02*
X3700D01*
X11017Y-10180D02*
Y-10152D01*
X10947Y-10082D02*
X11017Y-10152D01*
X11095Y-10258D02*
X11154D01*
X11017Y-10180D02*
X11095Y-10258D01*
X18326Y-3389D02*
X18597D01*
X18085Y-3148D02*
X18326Y-3389D01*
X11862Y-8431D02*
X11912Y-8482D01*
X11862Y-8431D02*
Y-8378D01*
X11765Y-8282D02*
X11862Y-8378D01*
X11754Y-8282D02*
X11765D01*
X11702Y-8230D02*
X11754Y-8282D01*
X11654Y-8230D02*
X11702D01*
X3780Y-12921D02*
X3941D01*
X3698Y-13003D02*
X3780Y-12921D01*
X3735Y-10512D02*
X3941D01*
X3525Y-10690D02*
Y-10591D01*
X3731Y-10385D01*
X3941D01*
X19240Y-5421D02*
X19380Y-5281D01*
Y-4326D01*
X19716Y-3990D01*
X20560D01*
X20665Y-3884D01*
Y-3122D01*
X20114Y-2571D02*
X20665Y-3122D01*
X19558Y-2571D02*
X20114D01*
X19397Y-2732D02*
X19558Y-2571D01*
X19397Y-3100D02*
Y-2732D01*
X19097Y-3262D02*
X19463D01*
X19737Y-2988D01*
X20048D01*
X20542Y-3482D01*
Y-3744D02*
Y-3482D01*
X19097Y-849D02*
X19127Y-879D01*
X19408D02*
X19882Y-1353D01*
Y-1519D02*
Y-1353D01*
X19397Y-2004D02*
X19882Y-1519D01*
X19361Y-3135D02*
X19397Y-3100D01*
X19097Y-3135D02*
X19361D01*
X19097Y-3008D02*
X19258D01*
X18123Y-17105D02*
X18597D01*
X17907Y-16889D02*
X18123Y-17105D01*
X19095Y-12152D02*
X19097D01*
X19095Y-11962D02*
X19177Y-11880D01*
X4148Y-17842D02*
Y-17428D01*
X4078Y-17359D02*
X4148Y-17428D01*
X3941Y-17359D02*
X4078D01*
X10922Y-3411D02*
X11154D01*
X10484Y-6201D02*
X11154D01*
X10417Y-6134D02*
X10484Y-6201D01*
X10417Y-6134D02*
Y-5661D01*
X10534Y-5543D01*
X11149Y-5942D02*
X11154Y-5947D01*
X3734Y-15060D02*
X3924D01*
X3941Y-15077D01*
X4711Y-9798D02*
Y-8548D01*
X4633Y-9877D02*
X4711Y-9798D01*
X4441Y-9877D02*
X4633D01*
X11653Y-14442D02*
X11654D01*
X19097Y-16978D02*
X19245D01*
X19253Y-16986D01*
X11154Y-10131D02*
X11270D01*
X11293Y-10154D01*
Y-10920D02*
Y-10154D01*
X11154Y-10004D02*
X11280D01*
X11379Y-10103D01*
Y-12261D02*
Y-10103D01*
Y-12261D02*
X11479Y-12361D01*
Y-12933D02*
X11543Y-12996D01*
X11602D01*
X11654Y-13048D01*
X11154Y-7722D02*
X11213D01*
X11453Y-10624D02*
X11595Y-10766D01*
X11654D01*
X19097Y-3643D02*
X19358D01*
X19113Y-16605D02*
X19223D01*
X19097Y-14438D02*
X19151D01*
X19097Y-12152D02*
X19159D01*
X4379Y-16676D02*
X4496Y-16559D01*
X4379Y-16724D02*
X4441D01*
Y-14442D02*
X4468D01*
X11654Y-12540D02*
X11678D01*
X12077Y-12824D02*
X12228Y-12975D01*
X10257Y-16458D02*
X10534Y-16181D01*
X10257Y-17909D02*
Y-16458D01*
Y-17909D02*
X10447Y-18098D01*
Y-18177D02*
Y-18098D01*
X10995Y-17486D02*
X11154D01*
X11654Y-12159D02*
X11747D01*
X11654Y-7595D02*
X11735D01*
X11154Y-14569D02*
X11266D01*
X11421Y-14724D01*
Y-17438D02*
Y-14724D01*
Y-17438D02*
X11543Y-17561D01*
X11654D01*
Y-17613D02*
Y-17561D01*
X11154Y-7849D02*
X11229D01*
X11328Y-7720D02*
Y-5680D01*
X11214Y-5566D02*
X11328Y-5680D01*
X11154Y-5566D02*
X11214D01*
X18503Y-14946D02*
X18597D01*
X18447Y-14890D02*
X18503Y-14946D01*
X18200Y-14890D02*
X18447D01*
X18137Y-14953D02*
X18200Y-14890D01*
X18137Y-15033D02*
Y-14953D01*
X17888Y-15282D02*
X18137Y-15033D01*
X18474Y-15010D02*
X18537Y-15073D01*
X18212Y-14984D02*
X18237Y-15010D01*
X18537Y-15073D02*
X18597D01*
X18237Y-15010D02*
X18474D01*
X18067Y-14832D02*
X18079Y-14819D01*
X18597D01*
X17831Y-18326D02*
X17883Y-18274D01*
X17831Y-18708D02*
Y-18326D01*
X19097Y-17613D02*
X19103D01*
X11654Y-9877D02*
X11735D01*
X15523Y-6051D02*
X15683Y-5891D01*
X16434D01*
X11654Y-16851D02*
X11706Y-16903D01*
X11765D01*
X12349Y-17486D01*
Y-17673D02*
Y-17486D01*
X11721Y-18301D02*
X12349Y-17673D01*
X4926Y-18301D02*
X11721D01*
X4212Y-17587D02*
X4926Y-18301D01*
X4212Y-17587D02*
Y-17321D01*
X4216Y-17317D01*
Y-17017D01*
X4330Y-16903D01*
X4389D01*
X4441Y-16851D01*
X18292Y-14692D02*
X18597D01*
X17800Y-14569D02*
X18170D01*
X17704Y-14665D02*
X17800Y-14569D01*
X17704Y-16145D02*
Y-14665D01*
X18537Y-16978D02*
X18597D01*
X11154Y-14696D02*
X11217D01*
X11354Y-16577D02*
Y-14832D01*
X11293Y-16638D02*
X11354Y-16577D01*
X11293Y-16934D02*
Y-16638D01*
X11248Y-16978D02*
X11293Y-16934D01*
X11154Y-16978D02*
X11248D01*
X4441Y-5947D02*
X4552D01*
X4825Y-6220D01*
X4441Y-5820D02*
X4552D01*
X4953Y-6221D01*
X5105D01*
X4606Y-5439D02*
X5180Y-6014D01*
Y-6274D02*
Y-6014D01*
X5143Y-6311D02*
X5180Y-6274D01*
X4994Y-6311D02*
X5143D01*
X4673Y-6632D02*
X4994Y-6311D01*
X4673Y-7548D02*
Y-6632D01*
X4500Y-7722D02*
X4673Y-7548D01*
X4067Y-7849D02*
X4115Y-7801D01*
Y-7377D02*
X4155Y-7336D01*
Y-5658D01*
X4064Y-5566D02*
X4155Y-5658D01*
X18440Y-3643D02*
X18597D01*
X3941Y-5947D02*
X4046D01*
X4079Y-5980D01*
Y-6309D02*
Y-5980D01*
X18285Y-14438D02*
X18597D01*
X18415Y-16542D02*
X18534Y-16662D01*
Y-16724D02*
X18597D01*
X13657Y-15410D02*
Y-15282D01*
X13621Y-15447D02*
X13657Y-15410D01*
X12163Y-15447D02*
X13621D01*
X11793Y-15077D02*
X12163Y-15447D01*
X11654Y-15077D02*
X11793D01*
X13932Y-16851D02*
X15232Y-18152D01*
X15303D01*
X15672Y-18520D01*
X17292D01*
X17528Y-18756D01*
X17719D01*
X17770Y-18807D01*
X14732Y-16000D02*
X14935Y-16203D01*
Y-17512D02*
X15519Y-18096D01*
X13249Y-15788D02*
X13462Y-16000D01*
X14935Y-17512D02*
Y-16203D01*
X18735Y-6584D02*
Y-5709D01*
X18701Y-5675D02*
X18735Y-5709D01*
X18597Y-5675D02*
X18701D01*
X18256Y-5887D02*
X18397D01*
X18439Y-5929D01*
X18597D01*
X18448Y-6056D02*
X18597D01*
X18364Y-5972D02*
X18448Y-6056D01*
X18364Y-5972D02*
Y-5962D01*
X18196Y-8202D02*
X18572D01*
X10561Y-16851D02*
X11154D01*
X10354Y-17059D02*
X10561Y-16851D01*
X10598Y-18241D02*
X10735Y-18104D01*
X4951Y-18241D02*
X10598D01*
X4889Y-18179D02*
X4951Y-18241D01*
X4889Y-18179D02*
Y-18061D01*
X4679Y-17851D02*
X4889Y-18061D01*
X4640Y-17851D02*
X4679D01*
X4640D02*
Y-17813D01*
X4441Y-17613D02*
X4640Y-17813D01*
X7066Y-16262D02*
X7188Y-16140D01*
X7066Y-18108D02*
Y-16262D01*
Y-18108D02*
X7099Y-18141D01*
X11654Y-5820D02*
X11952D01*
X12228Y-6096D01*
X11654Y-5566D02*
X11767D01*
X11823Y-5510D01*
X11801Y-5693D02*
X11841Y-5734D01*
X11654Y-5693D02*
X11801D01*
X4697Y-10258D02*
X4699Y-10260D01*
X17888Y-6051D02*
Y-5801D01*
X17603Y-6169D02*
X17883Y-6449D01*
X17603Y-5520D02*
X17645Y-5477D01*
Y-5256D01*
X17681Y-5220D01*
Y-4641D01*
X17883Y-4439D01*
X17603Y-6144D02*
X17883Y-6424D01*
X17603Y-4524D02*
X17782Y-4344D01*
X17907Y-3008D02*
X18597D01*
X17706Y-3209D02*
X17907Y-3008D01*
X17706Y-3851D02*
Y-3209D01*
Y-3851D02*
X18313Y-4458D01*
Y-4910D02*
Y-4458D01*
X17706Y-6159D02*
X18313Y-6766D01*
Y-7297D02*
Y-6766D01*
Y-7297D02*
X18597Y-7580D01*
Y-6196D02*
Y-6183D01*
X17766Y-6134D02*
X17828Y-6196D01*
X17766Y-6134D02*
Y-5847D01*
X17723Y-5804D02*
X17766Y-5847D01*
X17663Y-5907D02*
X17706Y-5950D01*
Y-6159D02*
Y-5950D01*
X11654Y-5947D02*
X11870D01*
X19097Y-5294D02*
X19159D01*
X4440Y-12086D02*
X4508Y-12018D01*
X4440Y-12159D02*
X4441D01*
X4468Y-14298D02*
X4496D01*
X4440Y-7595D02*
X4441D01*
X4440Y-7534D02*
X4508Y-7466D01*
X4521D01*
X4936Y-1167D02*
X5308D01*
X4517Y-748D02*
X4936Y-1167D01*
X5486Y-1573D02*
Y-1344D01*
X4441Y-2949D02*
X4470Y-2919D01*
X4441Y-3030D02*
Y-2949D01*
Y-748D02*
X4517D01*
X5308Y-1167D02*
X5486Y-1344D01*
X11654Y-722D02*
X12064D01*
X12085Y-743D01*
X12120D01*
X12140Y-723D01*
X12485D02*
X12725Y-963D01*
X19551Y-17381D02*
X19761Y-17590D01*
X19444Y-17381D02*
X19551D01*
X19295Y-17232D02*
X19444Y-17381D01*
X19097Y-17232D02*
X19295D01*
X19274Y-17105D02*
X19465Y-17296D01*
X19097Y-17105D02*
X19274D01*
X18597Y-17486D02*
X18689D01*
X18734Y-17531D01*
Y-17689D02*
Y-17531D01*
X18607Y-17816D02*
X18734Y-17689D01*
X17640Y-17816D02*
X18607D01*
X17437Y-17613D02*
X17640Y-17816D01*
X17107Y-17613D02*
Y-17590D01*
X19109Y-14832D02*
X19304D01*
X19097Y-14819D02*
X19109Y-14832D01*
X19135Y-12571D02*
X19304D01*
X19097Y-12533D02*
X19135Y-12571D01*
X18847Y-12815D02*
Y-12482D01*
X18923Y-12406D01*
X19097D01*
X18415Y-12787D02*
X18597D01*
X18398Y-12770D02*
X18415Y-12787D01*
X18110Y-12343D02*
Y-12317D01*
Y-12343D02*
X18300Y-12533D01*
X18597D01*
X19097Y-10247D02*
X19291D01*
X18986Y-10120D02*
X19097D01*
X18915Y-10191D02*
X18986Y-10120D01*
X18915Y-10458D02*
Y-10191D01*
X18339Y-10628D02*
X18597D01*
X18847Y-7961D02*
X18892Y-8006D01*
X18997D01*
X19042Y-7961D01*
X19097D01*
X17888Y-8359D02*
Y-8012D01*
X16338Y-8359D02*
Y-8113D01*
X16455Y-7996D01*
Y-7927D01*
X16764Y-7618D01*
X19097Y-5675D02*
X19545D01*
X18933Y-6202D02*
Y-5599D01*
X18984Y-5548D01*
X19097D01*
X18941Y-1395D02*
X18979Y-1357D01*
X19097D01*
X19234Y-1309D02*
X19269Y-1344D01*
X19234Y-1309D02*
Y-1309D01*
X19149Y-1155D02*
X19208D01*
X19097Y-1103D02*
X19149Y-1155D01*
X19353Y-1029D02*
X19761Y-1436D01*
X19353Y-1029D02*
Y-983D01*
X18597Y-1484D02*
X18656D01*
X18736Y-1564D01*
Y-1658D02*
Y-1564D01*
X18597Y-1796D02*
X18736Y-1658D01*
X17393Y-1796D02*
X18597D01*
X17107Y-1509D02*
X17393Y-1796D01*
X17107Y-1509D02*
Y-1436D01*
X18390Y-1230D02*
X18597D01*
X17943Y-783D02*
X18390Y-1230D01*
X17824Y-783D02*
X17943D01*
X17762Y-845D02*
X17824Y-783D01*
X17762Y-1011D02*
Y-845D01*
Y-1011D02*
X17796Y-1044D01*
Y-1242D02*
Y-1044D01*
Y-1242D02*
X17904Y-1351D01*
X17949D01*
Y-1375D02*
Y-1351D01*
X17888Y-1436D02*
X17949Y-1375D01*
X18351Y-1103D02*
X18597D01*
X17971Y-723D02*
X18351Y-1103D01*
X17051Y-723D02*
X17971D01*
X16338Y-1436D02*
X17051Y-723D01*
X11654Y-1357D02*
X11821D01*
X11996Y-1666D02*
X12066Y-1736D01*
X12311D01*
X12558Y-1846D02*
X12622Y-1782D01*
Y-1676D01*
X11996Y-1666D02*
Y-1532D01*
X12311Y-1736D02*
X12421Y-1846D01*
X12056Y-1641D02*
X12091Y-1676D01*
X12056Y-1641D02*
Y-1468D01*
X11654Y-1230D02*
X11818D01*
X12164Y-783D02*
X12283D01*
X11971Y-976D02*
X12164Y-783D01*
X11654Y-976D02*
X11971D01*
X10981Y-1484D02*
X11154D01*
X10973Y-1370D02*
X10985Y-1357D01*
X11154D01*
X10922Y-1268D02*
X11116D01*
X11154Y-1230D01*
X11293D01*
X11356Y-1294D01*
X11654Y-3411D02*
X11845D01*
X11896Y-3284D02*
X11938Y-3326D01*
X11654Y-3284D02*
X11896D01*
X10719Y-5688D02*
X11149D01*
X11154Y-5693D01*
X11792Y-8223D02*
Y-8181D01*
X11713Y-8103D02*
X11792Y-8181D01*
X11654Y-8103D02*
X11713D01*
X11792Y-8082D02*
X11963Y-8253D01*
X11792Y-8082D02*
Y-8054D01*
X11713Y-7976D02*
X11792Y-8054D01*
X11654Y-7976D02*
X11713D01*
X11654Y-7849D02*
X11713D01*
X12038Y-8173D01*
Y-8232D02*
Y-8173D01*
Y-8232D02*
X12165Y-8359D01*
X12228D01*
X10945Y-8274D02*
X11028Y-8357D01*
X11154D01*
X11077Y-8103D02*
X11154D01*
X11032Y-8148D02*
X11077Y-8103D01*
X11010Y-8148D02*
X11032D01*
X11001Y-8139D02*
X11010Y-8148D01*
X10889Y-8139D02*
X11001D01*
X10816Y-8212D02*
X10889Y-8139D01*
X10686Y-8212D02*
X10816D01*
X10538Y-8359D02*
X10686Y-8212D01*
X11102Y-8028D02*
X11154Y-7976D01*
X10791Y-8152D02*
X10915Y-8028D01*
X10490Y-8152D02*
X10791D01*
X11654Y-10385D02*
X11946D01*
X12228Y-10667D01*
X10923Y-12794D02*
X11154D01*
X11145Y-12550D02*
X11154Y-12540D01*
Y-15204D02*
X11268D01*
X11292Y-15227D01*
Y-15689D02*
Y-15227D01*
X11125Y-15855D02*
X11292Y-15689D01*
X11692Y-17143D02*
X11887D01*
X11654Y-17105D02*
X11692Y-17143D01*
X10744Y-17194D02*
X11006D01*
X11043Y-17157D01*
X11102D01*
X11154Y-17105D01*
X4441Y-17359D02*
X4696D01*
X4887Y-17550D01*
Y-17778D02*
Y-17550D01*
Y-17778D02*
X4953Y-17844D01*
X5938D01*
X4287Y-17397D02*
X4303Y-17382D01*
Y-17105D01*
X4441D01*
X4762Y-16978D02*
X4800Y-17016D01*
X4441Y-16978D02*
X4762D01*
X3721Y-17232D02*
X3941D01*
X3426Y-16937D02*
X3721Y-17232D01*
X3262Y-16937D02*
X3426D01*
X2633Y-17566D02*
X3262Y-16937D01*
X2633Y-17590D02*
Y-17566D01*
X4699Y-15619D02*
Y-15276D01*
X4552Y-15129D02*
X4699Y-15276D01*
X4493Y-15129D02*
X4552D01*
X4441Y-15077D02*
X4493Y-15129D01*
X4836Y-15282D02*
X5014D01*
X4503Y-14950D02*
X4836Y-15282D01*
X4441Y-14950D02*
X4503D01*
X4441Y-14823D02*
X4537D01*
X4597Y-14883D01*
Y-14933D02*
Y-14883D01*
X4775Y-15010D02*
Y-14968D01*
X4503Y-14696D02*
X4775Y-14968D01*
X4441Y-14696D02*
X4503D01*
X3941Y-15204D02*
X3993Y-15256D01*
X4052D01*
X4078Y-15282D01*
Y-15379D02*
Y-15282D01*
X3919Y-15539D02*
X4078Y-15379D01*
X3890Y-15539D02*
X3919D01*
X2965Y-14950D02*
X3941D01*
X2633Y-15282D02*
X2965Y-14950D01*
X3941Y-14823D02*
X4000D01*
X4078Y-14901D01*
Y-15197D02*
Y-14901D01*
Y-15197D02*
X4149Y-15268D01*
Y-15441D02*
Y-15268D01*
X3976Y-15614D02*
X4149Y-15441D01*
X3656Y-15614D02*
X3976D01*
X3325Y-15282D02*
X3656Y-15614D01*
X3779Y-12667D02*
X3941D01*
X3647Y-12800D02*
X3779Y-12667D01*
X3480Y-12800D02*
X3647D01*
X3325Y-12975D02*
X3405Y-12895D01*
X3325Y-12975D02*
Y-12849D01*
X5073Y-10812D02*
X5116Y-10769D01*
X4826Y-10812D02*
X5073D01*
X4578Y-10564D02*
X4826Y-10812D01*
X4493Y-10564D02*
X4578D01*
X4441Y-10512D02*
X4493Y-10564D01*
X4675Y-10131D02*
X4724Y-10082D01*
X4441Y-10131D02*
X4675D01*
X3941Y-10512D02*
X4042D01*
X4089Y-10560D01*
Y-10844D02*
Y-10560D01*
X4441Y-7976D02*
X4574D01*
X4648Y-8050D01*
Y-8075D02*
Y-8050D01*
X4441Y-5693D02*
X4577D01*
X4673Y-5789D01*
Y-5816D02*
Y-5789D01*
X4441Y-5566D02*
X4493Y-5618D01*
X4587D01*
X4748Y-5780D01*
Y-5874D02*
Y-5780D01*
Y-5874D02*
X4926Y-6051D01*
X5014D01*
X3688Y-5947D02*
X3941D01*
X3607Y-5820D02*
Y-5815D01*
X4441Y-3665D02*
X4715D01*
X4629Y-3411D02*
X4656Y-3437D01*
X4441Y-3411D02*
X4629D01*
X4877Y-3427D02*
Y-3402D01*
X4851Y-3376D02*
X4877Y-3402D01*
X4851Y-3376D02*
Y-3366D01*
X4769Y-3284D02*
X4851Y-3366D01*
X4441Y-3284D02*
X4769D01*
X3708Y-1522D02*
X3928D01*
X3941Y-1510D01*
X3522Y-1294D02*
X3611Y-1383D01*
X3941D01*
X3904Y-1219D02*
X3941Y-1256D01*
X3428Y-1219D02*
X3904D01*
X3695Y-1129D02*
X3941D01*
X3115Y-10161D02*
X3399Y-9877D01*
X3115Y-10767D02*
Y-10161D01*
Y-10767D02*
X3219Y-10872D01*
X3326D01*
X3784Y-11331D01*
Y-12003D02*
Y-11331D01*
Y-12003D02*
X3941Y-12159D01*
X3882Y-7595D02*
X3941D01*
X3770Y-7706D02*
X3882Y-7595D01*
X2997Y-7706D02*
X3770D01*
X2429Y-8274D02*
X2997Y-7706D01*
X2429Y-8444D02*
Y-8274D01*
Y-8444D02*
X2704Y-8720D01*
X3383D01*
X3485Y-8821D01*
X3583D01*
X3803Y-9042D01*
Y-9758D02*
Y-9042D01*
Y-9758D02*
X3922Y-9877D01*
X3348Y-5312D02*
X3941D01*
X3144Y-5516D02*
X3348Y-5312D01*
X3144Y-6159D02*
Y-5516D01*
Y-6159D02*
X3246Y-6261D01*
X3331D01*
X3810Y-6740D01*
Y-7563D02*
Y-6740D01*
Y-7563D02*
X3842Y-7595D01*
X3322Y-3030D02*
X3941D01*
X3144Y-3209D02*
X3322Y-3030D01*
X3144Y-3851D02*
Y-3209D01*
Y-3851D02*
X3241Y-3949D01*
X3326D01*
X3708Y-4331D01*
Y-5080D02*
Y-4331D01*
Y-5080D02*
X3941Y-5312D01*
X3297Y-748D02*
X3941D01*
X3140Y-904D02*
X3297Y-748D01*
X3140Y-2229D02*
Y-904D01*
Y-2229D02*
X3941Y-3030D01*
X11095Y-722D02*
X11154D01*
X11035Y-783D02*
X11095Y-722D01*
X10475Y-783D02*
X11035D01*
X10328Y-930D02*
X10475Y-783D01*
X10328Y-1573D02*
Y-930D01*
Y-1573D02*
X10427Y-1671D01*
X10588D01*
X11154Y-2237D01*
Y-3030D02*
Y-2237D01*
X10922Y-5080D02*
X11154Y-5312D01*
X10922Y-5080D02*
Y-4331D01*
X10539Y-3949D02*
X10922Y-4331D01*
X10454Y-3949D02*
X10539D01*
X10357Y-3851D02*
X10454Y-3949D01*
X10357Y-3851D02*
Y-3209D01*
X10536Y-3030D01*
X11154D01*
X18597Y-722D02*
Y-455D01*
X18524Y-383D02*
X18597Y-455D01*
X18136Y-383D02*
X18524D01*
X17967Y-215D02*
X18136Y-383D01*
X14914Y-257D02*
X14956Y-215D01*
X14914Y-334D02*
Y-257D01*
X14870Y-378D02*
X14914Y-334D01*
X14649Y-378D02*
X14870D01*
X13737Y-215D02*
X13857Y-335D01*
X13569Y-215D02*
X13737D01*
X13449Y-335D02*
X13569Y-215D01*
X13120Y-335D02*
X13449D01*
X13000Y-215D02*
X13120Y-335D01*
X11154Y-528D02*
X11467Y-215D01*
X11154Y-722D02*
Y-528D01*
X10587Y-7595D02*
X11154D01*
X10328Y-7853D02*
X10587Y-7595D01*
X10328Y-8438D02*
Y-7853D01*
Y-8438D02*
X10454Y-8564D01*
X10539D01*
X10896Y-8921D01*
Y-9619D02*
Y-8921D01*
Y-9619D02*
X11154Y-9877D01*
X10991D02*
X11154D01*
X10854Y-10014D02*
X10991Y-9877D01*
X10475Y-10014D02*
X10854D01*
X10319Y-10170D02*
X10475Y-10014D01*
X10319Y-11324D02*
Y-10170D01*
Y-11324D02*
X11154Y-12159D01*
X10638D02*
X11154D01*
X10181Y-12616D02*
X10638Y-12159D01*
X10181Y-13113D02*
Y-12616D01*
Y-13113D02*
X10307Y-13240D01*
X10599D01*
X10898Y-13538D01*
Y-14185D02*
Y-13538D01*
Y-14185D02*
X11154Y-14442D01*
X10663D02*
X11154D01*
X10357Y-14748D02*
X10663Y-14442D01*
X10357Y-15390D02*
Y-14748D01*
Y-15390D02*
X10922Y-15955D01*
Y-16492D02*
Y-15955D01*
Y-16492D02*
X11154Y-16724D01*
X4504Y-14569D02*
X5135Y-15200D01*
Y-15365D02*
Y-15200D01*
X4648Y-15853D02*
X5135Y-15365D01*
X4648Y-16703D02*
Y-15853D01*
X4500Y-16851D02*
X4648Y-16703D01*
X4441Y-16851D02*
X4500D01*
X4441Y-12286D02*
X4530D01*
X5135Y-12892D01*
Y-13058D02*
Y-12892D01*
X4648Y-13545D02*
X5135Y-13058D01*
X4648Y-14421D02*
Y-13545D01*
X4500Y-14569D02*
X4648Y-14421D01*
X4500Y-14569D02*
X4504D01*
X11654Y-12286D02*
X11743D01*
X12349Y-13058D02*
Y-12892D01*
X11836Y-13570D02*
X12349Y-13058D01*
X11836Y-14489D02*
Y-13570D01*
X11756Y-14569D02*
X11836Y-14489D01*
X11654Y-14569D02*
X11756D01*
X11867Y-16851D02*
X12006Y-16711D01*
Y-15693D01*
X12123Y-15576D01*
X13634D01*
X13779Y-15431D01*
Y-15134D01*
X13213Y-14568D02*
X13779Y-15134D01*
X11821Y-14568D02*
X13213D01*
X11820Y-14569D02*
X11821Y-14568D01*
X11756Y-14569D02*
X11820D01*
X19248Y-14565D02*
X19882Y-15200D01*
Y-15365D02*
Y-15200D01*
X19658Y-15589D02*
X19882Y-15365D01*
X19658Y-15600D02*
Y-15589D01*
X19304Y-15954D02*
X19658Y-15600D01*
X19304Y-16703D02*
Y-15954D01*
X19156Y-16851D02*
X19304Y-16703D01*
X19097Y-16851D02*
X19156D01*
X4656Y-11042D02*
X4826Y-10872D01*
X4656Y-12202D02*
Y-11042D01*
X4572Y-12286D02*
X4656Y-12202D01*
X4530Y-12286D02*
X4572D01*
X11794Y-7722D02*
X12349Y-8276D01*
Y-8442D02*
Y-8276D01*
X11836Y-8955D02*
X12349Y-8442D01*
X11836Y-9193D02*
Y-8955D01*
X11517Y-9512D02*
X11836Y-9193D01*
X11517Y-9940D02*
Y-9512D01*
Y-9940D02*
X11581Y-10004D01*
X11654D01*
Y-5439D02*
X11658D01*
X11664Y-5434D01*
X11895D01*
X11996Y-5535D01*
Y-5767D02*
Y-5535D01*
Y-5767D02*
X12121Y-5891D01*
X12260D01*
X12349Y-5980D01*
Y-6361D02*
Y-5980D01*
X12311Y-6399D02*
X12349Y-6361D01*
X12072Y-6399D02*
X12311D01*
X12014Y-6457D02*
X12072Y-6399D01*
X12014Y-7645D02*
Y-6457D01*
X11938Y-7722D02*
X12014Y-7645D01*
X11794Y-7722D02*
X11938D01*
X11654D02*
X11794D01*
X19296Y-12279D02*
X19557Y-12540D01*
X19615D01*
X19942Y-12867D01*
Y-13082D02*
Y-12867D01*
X19364Y-13661D02*
X19942Y-13082D01*
X19364Y-14357D02*
Y-13661D01*
X19156Y-14565D02*
X19364Y-14357D01*
X19097Y-14565D02*
X19156D01*
X4441Y-5439D02*
X4500D01*
X4648Y-5291D01*
Y-4314D01*
X5135Y-3827D01*
Y-3565D01*
X4779Y-3209D02*
X5135Y-3565D01*
X4493Y-3209D02*
X4779D01*
X4441Y-3157D02*
X4493Y-3209D01*
X19097Y-12279D02*
X19156D01*
X19364Y-12071D01*
Y-11353D01*
X19942Y-10775D01*
Y-10559D01*
X19390Y-10007D02*
X19942Y-10559D01*
X19187Y-10007D02*
X19390D01*
X11654Y-3157D02*
X11880D01*
X12349Y-3626D01*
Y-3791D02*
Y-3626D01*
X11836Y-4304D02*
X12349Y-3791D01*
X11836Y-4494D02*
Y-4304D01*
X11517Y-4813D02*
X11836Y-4494D01*
X11517Y-5361D02*
Y-4813D01*
Y-5361D02*
X11595Y-5439D01*
X11654D01*
X4441Y-875D02*
X4559D01*
X4975Y-1291D01*
X5073D01*
X5135Y-1353D01*
Y-1519D02*
Y-1353D01*
X4648Y-2006D02*
X5135Y-1519D01*
X4648Y-3009D02*
Y-2006D01*
X4552Y-3105D02*
X4648Y-3009D01*
X4493Y-3105D02*
X4552D01*
X4441Y-3157D02*
X4493Y-3105D01*
X11595Y-3157D02*
X11654D01*
X11506Y-3068D02*
X11595Y-3157D01*
X11506Y-3068D02*
Y-938D01*
X11543Y-901D01*
X11602D01*
X11654Y-849D01*
X3593Y-215D02*
X3607Y-228D01*
X984Y-215D02*
X3593D01*
X1648Y-17951D02*
X1912D01*
X2811Y-18850D01*
X16718D01*
X17018Y-19150D01*
X17119D01*
X18597Y-3262D02*
X18656D01*
X19272Y-2646D01*
X19820Y-10522D02*
X19882Y-10584D01*
X18872Y-9450D02*
X19882Y-8440D01*
Y-8274D01*
X19278Y-7796D02*
X19510Y-8028D01*
X18597Y-5548D02*
X18758D01*
X18783Y-10120D02*
X18796Y-10107D01*
X18597Y-10120D02*
X18783D01*
X17704Y-16145D02*
X18537Y-16978D01*
X18170Y-14569D02*
X18292Y-14692D01*
X18932Y-14569D02*
Y-13889D01*
X19702Y-13120D01*
X19820D01*
X19882Y-13058D01*
Y-12892D01*
X19820Y-12830D02*
X19882Y-12892D01*
X19715Y-12830D02*
X19820D01*
X19253Y-12368D02*
X19715Y-12830D01*
X11154Y-3284D02*
X11272D01*
X11328Y-3340D01*
Y-3762D02*
X11382Y-3816D01*
Y-3929D02*
Y-3816D01*
X11328Y-3983D02*
X11382Y-3929D01*
X11328Y-5434D02*
Y-3983D01*
X4696Y-659D02*
X10947D01*
X4649Y-613D02*
X4696Y-659D01*
X4305Y-613D02*
X4649D01*
X4178Y-739D02*
X4305Y-613D01*
X4178Y-900D02*
Y-739D01*
X4076Y-1002D02*
X4178Y-900D01*
X3941Y-1002D02*
X4076D01*
X11328Y-3376D02*
Y-3340D01*
X11265Y-976D02*
X11328Y-1040D01*
X11154Y-976D02*
X11265D01*
X4115Y-7849D02*
X4154Y-7888D01*
Y-9639D02*
X4165Y-9650D01*
X3941Y-12413D02*
X3946Y-12419D01*
X3941Y-16978D02*
X4127D01*
X4191Y-16457D02*
X4209Y-16439D01*
Y-14714D01*
X4191Y-14696D02*
X4209Y-14714D01*
X3941Y-14696D02*
X3950Y-14705D01*
X3941Y-14696D02*
X4191D01*
Y-14197D02*
Y-12546D01*
X4058Y-12419D02*
Y-12413D01*
X3941D02*
X3946D01*
X3321Y-17268D02*
Y-17082D01*
Y-17268D02*
X3666Y-17613D01*
X3941D01*
X18329Y-1611D02*
X18597D01*
X17883Y-1166D02*
X18329Y-1611D01*
X17883Y-1166D02*
Y-928D01*
X10756Y-15331D02*
X11154D01*
X10660Y-15427D02*
X10756Y-15331D01*
X10479Y-15427D02*
X10660D01*
X10417Y-15365D02*
X10479Y-15427D01*
X10417Y-15365D02*
Y-15164D01*
X10534Y-15047D01*
Y-14774D01*
X10496Y-1611D02*
X11154D01*
X10452Y-1567D02*
X10496Y-1611D01*
X10452Y-1567D02*
Y-1553D01*
X10417Y-1519D02*
X10452Y-1553D01*
X10417Y-1519D02*
Y-1045D01*
X10534Y-928D01*
X10241Y-13088D02*
X10332Y-13180D01*
X10534Y-12732D02*
Y-12467D01*
X10932Y-10766D02*
X11154D01*
X10743Y-10955D02*
X10932Y-10766D01*
X10516Y-10955D02*
X10743D01*
X10379Y-10818D02*
X10516Y-10955D01*
X10379Y-10818D02*
Y-10574D01*
X10534Y-10419D01*
Y-10159D01*
X3926Y-3934D02*
X3941Y-3919D01*
X3428Y-3934D02*
X3926D01*
X3382Y-3889D02*
X3428Y-3934D01*
X3266Y-3889D02*
X3382D01*
X3204Y-3827D02*
X3266Y-3889D01*
X3204Y-3827D02*
Y-3661D01*
X3321Y-3543D01*
Y-3236D01*
X3200Y-12587D02*
X3321Y-12467D01*
X3200Y-13054D02*
Y-12587D01*
Y-13054D02*
X3266Y-13120D01*
X3869D01*
X3941Y-13048D01*
X18597Y-16851D02*
X18656D01*
X19097Y-16410D01*
Y-15327D01*
X18597Y-14565D02*
X18656D01*
X18761Y-14460D01*
Y-13486D01*
X19097Y-13151D01*
Y-13041D01*
X18597Y-12279D02*
X18656D01*
X18888Y-12047D01*
Y-11353D01*
X19097Y-11144D01*
Y-10755D01*
X11595Y-8484D02*
X11654D01*
X11517Y-8405D02*
X11595Y-8484D01*
X11517Y-8405D02*
Y-7802D01*
X11395Y-7681D02*
Y-5621D01*
X11213Y-5439D02*
X11395Y-5621D01*
X11154Y-5439D02*
X11213D01*
X11395Y-7681D02*
X11517Y-7802D01*
X11154Y-12286D02*
X11213D01*
X11292Y-12365D01*
Y-12861D02*
Y-12365D01*
Y-12861D02*
X11352Y-12921D01*
Y-12993D02*
Y-12921D01*
Y-12993D02*
X11363Y-13004D01*
Y-14520D02*
Y-13004D01*
Y-14520D02*
X11517Y-14674D01*
Y-15252D02*
Y-14674D01*
Y-15252D02*
X11595Y-15331D01*
X11654D01*
X3941Y-16851D02*
X4000D01*
X4441Y-16410D01*
Y-15331D01*
X3941Y-14569D02*
X4000D01*
X4441Y-14128D01*
Y-13048D01*
X3941Y-10004D02*
X4000D01*
X4441Y-9563D01*
Y-8484D01*
X3941Y-5439D02*
X4000D01*
X4441Y-4998D01*
Y-3919D01*
X3941Y-3157D02*
X4000D01*
X4441Y-2716D01*
Y-1637D01*
X18597Y-5421D02*
X18656D01*
X18734Y-5343D01*
Y-5334D01*
X19097Y-4972D01*
Y-3897D01*
X18597Y-3135D02*
X18656D01*
X19097Y-2694D01*
Y-1611D01*
X11654D02*
X11856D01*
X12041Y-1796D01*
X12286D01*
X12396Y-1906D01*
X12583D01*
X12785Y-1704D01*
X13168Y-395D02*
X13474D01*
X13594Y-275D01*
X13712D01*
X13832Y-395D01*
X14222D01*
X14624Y-438D02*
X14895D01*
X14974Y-359D01*
Y-281D01*
X14980Y-275D01*
X17943D02*
X18111Y-443D01*
X18132D01*
X18537Y-849D01*
X18597D01*
Y-7707D02*
X18656D01*
X19097Y-7266D01*
Y-6183D01*
X18597Y-9993D02*
X18656D01*
X18812Y-9837D01*
Y-9168D01*
X19097Y-8884D01*
Y-8469D01*
X4866Y-275D02*
X4986Y-155D01*
X3666Y-275D02*
X4866D01*
X3638Y-303D02*
X3666Y-275D01*
X3575Y-303D02*
X3638D01*
X3547Y-275D02*
X3575Y-303D01*
X1009Y-275D02*
X3547D01*
X947Y-337D02*
X1009Y-275D01*
X947Y-1515D02*
Y-337D01*
Y-1515D02*
X1068Y-1636D01*
Y-1941D02*
Y-1636D01*
X6984Y-15788D02*
X7899Y-14873D01*
Y-15788D02*
X8282D01*
X7747Y-13335D02*
X7899Y-13183D01*
X7129Y-13335D02*
X7747D01*
X6983Y-13481D02*
X7129Y-13335D01*
X6443Y-13481D02*
X6983D01*
X7899Y-13480D02*
X8282D01*
X14935Y-862D02*
X15062Y-735D01*
X8702Y-2833D02*
X9042Y-2493D01*
X7899Y-11172D02*
X8282D01*
X7899Y-8865D02*
X8282D01*
X7899Y-6557D02*
X8282D01*
X7414Y-10742D02*
X7772D01*
X6984Y-11172D02*
X7414Y-10742D01*
X7772D02*
X7899Y-10615D01*
X8702Y-4249D02*
X9042D01*
X5580Y-8710D02*
Y-6818D01*
X5014Y-8865D02*
X5425D01*
X5014Y-8865D02*
X5014Y-8865D01*
X5706Y-6557D02*
X5841D01*
X5426Y-8865D02*
X5702D01*
X13462Y-16000D02*
X14732D01*
X7646Y-8202D02*
X7772D01*
X6439Y-8865D02*
X6443Y-8865D01*
X7772Y-8202D02*
X7899Y-8075D01*
X6984Y-8865D02*
X7646Y-8202D01*
X7188Y-6557D02*
X7192Y-6557D01*
X7721Y-159D02*
X7726Y-155D01*
X5425Y-8865D02*
X5426Y-8865D01*
X5580Y-8710D01*
X7899Y-8865D02*
Y-8075D01*
Y-14873D02*
Y-13480D01*
Y-10615D02*
Y-8865D01*
Y-13183D02*
Y-11172D01*
Y-15788D02*
Y-14873D01*
Y-13480D02*
Y-13183D01*
Y-11172D02*
Y-10615D01*
Y-6043D02*
Y-4249D01*
Y-8075D02*
Y-6557D01*
Y-6049D02*
X7902Y-6046D01*
X7899Y-6043D02*
X7902Y-6046D01*
X8702Y-4249D02*
Y-2833D01*
X4986Y-155D02*
X7717D01*
X7726D01*
X7899Y-4249D02*
Y-1941D01*
X14935Y-4069D02*
Y-2208D01*
Y-11318D02*
Y-8865D01*
Y-6602D02*
Y-4069D01*
Y-15797D02*
Y-13663D01*
Y-2208D02*
Y-2183D01*
Y-862D01*
X15169Y-18368D02*
X15169Y-18368D01*
X15291Y-18247D01*
X14752Y-17951D02*
X15169Y-18368D01*
X15561Y-18760D01*
X14935Y-15797D02*
X14944Y-15788D01*
X14935Y-8865D02*
Y-6602D01*
Y-13663D02*
Y-11318D01*
X22403Y-15594D02*
Y-11174D01*
Y-8888D01*
Y-6551D01*
Y-4240D01*
X14935Y-2183D02*
X15176Y-1941D01*
X1986Y-15812D02*
X2540D01*
X2629Y-13752D02*
Y-13493D01*
X9822Y-15918D02*
X10534D01*
X10538D01*
X10534Y-16181D02*
Y-15918D01*
X9822Y-13615D02*
Y-13503D01*
Y-13481D01*
X2629Y-4519D02*
Y-4273D01*
X9822Y-4474D02*
Y-4273D01*
X21306Y-13826D02*
Y-13503D01*
X17603Y-6169D02*
Y-6144D01*
Y-5520D02*
Y-4524D01*
X17645Y-4116D02*
Y-3887D01*
Y-2548D02*
Y-2307D01*
X17883Y-6557D02*
Y-6449D01*
Y-6424D01*
Y-4344D02*
Y-4296D01*
Y-4439D02*
Y-4344D01*
Y-2310D02*
Y-2068D01*
X19103Y-18007D02*
Y-17613D01*
X3946Y-12419D02*
X4058D01*
X3950Y-14705D02*
X4191D01*
X3946Y-12419D02*
Y-12413D01*
X4058D02*
X4064Y-12419D01*
X4115Y-12470D02*
X4191Y-12546D01*
X4058Y-12419D02*
X4064D01*
X11014Y-12413D02*
X11154D01*
X11217Y-14696D02*
X11328Y-14806D01*
X11354Y-14832D01*
X3941Y-7849D02*
X4067D01*
X4115D01*
X4154Y-9639D02*
Y-7888D01*
X3941Y-5566D02*
X4064D01*
X4160D01*
X11328Y-3762D02*
Y-3376D01*
X18597Y-12406D02*
X18656D01*
X18758Y-5548D02*
X18794Y-5585D01*
X18656Y-3262D02*
X18808D01*
X4441Y-14569D02*
X4500D01*
X4441Y-10004D02*
X4699D01*
X5080D01*
X11654Y-16851D02*
X11867D01*
X13932D01*
X4441Y-7722D02*
X4500D01*
X4579D01*
X4500Y-5439D02*
X4606D01*
X19156Y-16851D02*
X19226D01*
X19156Y-14565D02*
X19248D01*
X19156Y-12279D02*
X19296D01*
X19097Y-7707D02*
X19240D01*
X19296D01*
X19097Y-5421D02*
X19240D01*
X19397Y-2732D02*
Y-2004D01*
X3184Y-14442D02*
X3883D01*
X3941D01*
X3399Y-9877D02*
X3922D01*
X3941D01*
X3842Y-7595D02*
X3882D01*
X18534Y-16724D02*
Y-16662D01*
X17663Y-5560D02*
X17957Y-5266D01*
X3607Y-5820D02*
X3941D01*
X4267Y-9066D02*
Y-8175D01*
Y-8139D01*
X4303Y-8103D02*
X4339D01*
X4441D01*
X4597Y-8380D02*
X4748Y-8230D01*
X4775Y-8202D01*
X4340Y-10258D02*
X4441D01*
X4697D01*
X3325Y-12849D02*
X3341Y-12832D01*
X3448Y-12725D01*
X3633Y-12540D01*
X3341Y-12832D02*
X3405Y-12895D01*
X3633Y-12540D02*
X3759D01*
X3941D01*
X4503Y-12413D02*
X4597Y-12507D01*
X2956Y-17588D02*
X3325D01*
X10820Y-14823D02*
X10887D01*
X11154D01*
X10748Y-12550D02*
X11145D01*
X18573Y-8204D02*
X18585D01*
X18572Y-8202D02*
X18573Y-8204D01*
X17782Y-10872D02*
X18692D01*
X17792Y-16775D02*
X17907Y-16889D01*
X17107Y-17613D02*
X17437D01*
X4508Y-12018D02*
X4579D01*
X19097Y-16724D02*
Y-16621D01*
Y-16614D01*
Y-16621D02*
X19113Y-16605D01*
X11735Y-9877D02*
X11813D01*
X11735Y-7595D02*
X11938D01*
X12140Y-723D02*
X12485D01*
X12674Y-1014D02*
X12725Y-963D01*
X17297Y-1032D02*
Y-811D01*
X3204Y-1519D02*
Y-1341D01*
X3321Y-1224D01*
Y-928D01*
X3325Y-1321D02*
X3428Y-1219D01*
X3325Y-1436D02*
Y-1321D01*
X19127Y-879D02*
X19408D01*
X19247Y-939D02*
X19309D01*
X19353Y-983D01*
X19097Y-976D02*
X19210D01*
X19247Y-939D01*
X19097Y-1230D02*
X19156D01*
X19234Y-1309D01*
X19272Y-1105D02*
Y-1020D01*
Y-1105D02*
X19280Y-1113D01*
X19208Y-1155D02*
X19240Y-1188D01*
X19249D01*
X19353Y-1373D02*
Y-1186D01*
X19280Y-1113D02*
X19280D01*
X19353Y-1186D01*
X19272Y-2646D02*
Y-1455D01*
X19353Y-1373D01*
X19482Y-2284D02*
X19532Y-2233D01*
X19482Y-2411D02*
Y-2284D01*
X7276Y-4398D02*
X7339Y-4336D01*
Y-4328D01*
X7417Y-4249D01*
X7092Y-2648D02*
X7188Y-2553D01*
X7092Y-4132D02*
Y-2648D01*
Y-4132D02*
X7213Y-4253D01*
X5702Y-4249D02*
X5703Y-4250D01*
X5851Y-4398D02*
X7276D01*
X7747Y-6201D02*
X7899Y-6049D01*
X5841Y-6557D02*
X6197Y-6201D01*
X7899Y-6049D02*
Y-6046D01*
X7902D01*
X7899D02*
Y-6043D01*
X7721Y-836D02*
X7899Y-1014D01*
X8282Y-1941D02*
X8286Y-1942D01*
X7899Y-1941D02*
Y-1014D01*
X8286Y-4273D02*
Y-4250D01*
X9046Y-2489D02*
Y-1942D01*
X9042Y-2493D02*
X9046Y-2489D01*
X8702Y-6043D02*
Y-4249D01*
X8544Y-6201D02*
X8702Y-6043D01*
X8057Y-6201D02*
X8544D01*
X7902Y-6046D02*
X8057Y-6201D01*
X6197D02*
X7747D01*
X7899Y-6557D02*
Y-6049D01*
X17959Y-5305D02*
X18003Y-5349D01*
X18065D01*
X18003Y-5199D02*
X18024D01*
X18313Y-4910D01*
X17957Y-5266D02*
Y-5245D01*
X18003Y-5199D01*
X18119Y-5294D02*
X18597D01*
X17957Y-5266D02*
X17959Y-5268D01*
Y-5305D02*
Y-5268D01*
X18065Y-5349D02*
X18119Y-5294D01*
X18074Y-6069D02*
X18256Y-5887D01*
X19883Y-6285D02*
Y-5906D01*
X19240Y-5421D02*
X19398D01*
X19883Y-5906D01*
X19545Y-5675D02*
X19697Y-5828D01*
X17780Y-5693D02*
X17888Y-5801D01*
X17780Y-5693D02*
Y-5688D01*
X17723Y-5804D02*
Y-5737D01*
X17705Y-5719D02*
X17723Y-5737D01*
X17705Y-5719D02*
Y-5657D01*
X17749Y-5613D01*
X17811D01*
X17812Y-5614D02*
Y-5614D01*
X17883Y-5543D01*
X17645Y-5744D02*
X17663Y-5762D01*
X17645Y-5744D02*
Y-5632D01*
X17663Y-5614D01*
Y-5560D01*
X17585Y-5769D02*
X17603Y-5787D01*
X17585Y-5769D02*
Y-5607D01*
X17603Y-5589D01*
X17663Y-5907D02*
Y-5762D01*
X17603Y-6144D02*
Y-5787D01*
Y-5589D02*
Y-5520D01*
X17812Y-5614D02*
X17812D01*
X10807Y-5942D02*
X11149D01*
X4115Y-7390D02*
Y-7377D01*
X4441Y-8103D02*
X4519D01*
X4877Y-7745D02*
X5181Y-7440D01*
X4826Y-7745D02*
X4877D01*
X4711Y-8548D02*
X4777Y-8482D01*
X10261Y-8865D02*
Y-8716D01*
X10266Y-8710D01*
X10261Y-8865D02*
X10534D01*
X11792Y-8223D02*
X12090Y-8521D01*
Y-8583D02*
Y-8521D01*
X17888Y-8359D02*
X18159Y-8088D01*
X18095Y-8304D02*
X18196Y-8202D01*
X18059Y-8304D02*
X18095D01*
X17234Y-8435D02*
X17297D01*
X17166Y-8504D02*
X17234Y-8435D01*
X15668Y-8504D02*
X17166D01*
X15523Y-8359D02*
X15668Y-8504D01*
X19296Y-7948D02*
X19304D01*
X19182Y-7834D02*
X19296Y-7948D01*
X19097Y-7834D02*
X19182D01*
X22087Y-15788D02*
Y-15483D01*
X21970Y-15365D02*
X22087Y-15483D01*
X21970Y-15365D02*
Y-15096D01*
X22209Y-14857D01*
Y-14592D01*
X21966Y-14349D02*
X22209Y-14592D01*
X21966Y-14349D02*
Y-14121D01*
X22087Y-14000D01*
X18052Y-19040D02*
X18414D01*
X18703Y-19150D02*
X19757Y-18096D01*
X18135Y-19150D02*
X18703D01*
D12*
X22087Y-1941D02*
D03*
X22091Y-1942D02*
D03*
X22087Y-1941D02*
D03*
X22091Y-1436D02*
D03*
X22087Y-928D02*
D03*
Y-420D02*
D03*
X21306Y-1941D02*
D03*
X21310Y-1942D02*
D03*
X21306Y-1941D02*
D03*
X21310Y-1436D02*
D03*
X21306Y-928D02*
D03*
Y-420D02*
D03*
X20538Y-1941D02*
D03*
X20542Y-1942D02*
D03*
X20538Y-1941D02*
D03*
X20542Y-1436D02*
D03*
X20538Y-928D02*
D03*
Y-420D02*
D03*
X19757Y-1941D02*
D03*
X19761Y-1942D02*
D03*
X19757Y-1941D02*
D03*
X19761Y-1436D02*
D03*
X19757Y-928D02*
D03*
Y-420D02*
D03*
X17883Y-1941D02*
D03*
X17888Y-1942D02*
D03*
X17883Y-1941D02*
D03*
X17888Y-1436D02*
D03*
X17883Y-928D02*
D03*
Y-420D02*
D03*
X17102Y-1941D02*
D03*
X17107Y-1942D02*
D03*
X17102Y-1941D02*
D03*
X17107Y-1436D02*
D03*
X17102Y-928D02*
D03*
Y-420D02*
D03*
X16334Y-1941D02*
D03*
X16338Y-1942D02*
D03*
X16334Y-1941D02*
D03*
X16338Y-1436D02*
D03*
X16334Y-928D02*
D03*
Y-420D02*
D03*
X15519Y-1941D02*
D03*
X15523Y-1942D02*
D03*
X15519Y-1941D02*
D03*
X15523Y-1436D02*
D03*
X15519Y-928D02*
D03*
Y-420D02*
D03*
X14402Y-1941D02*
D03*
X14406Y-1942D02*
D03*
X14402Y-1941D02*
D03*
X14406Y-1436D02*
D03*
X14402Y-928D02*
D03*
Y-420D02*
D03*
X13653Y-1941D02*
D03*
X13657Y-1942D02*
D03*
X13653Y-1941D02*
D03*
X13657Y-1436D02*
D03*
X13653Y-928D02*
D03*
Y-420D02*
D03*
X12916Y-1941D02*
D03*
X12920Y-1942D02*
D03*
X12916Y-1941D02*
D03*
X12920Y-1436D02*
D03*
X12916Y-928D02*
D03*
Y-420D02*
D03*
X12224Y-1941D02*
D03*
X12228Y-1942D02*
D03*
X12224Y-1941D02*
D03*
X12228Y-1436D02*
D03*
X12224Y-928D02*
D03*
Y-420D02*
D03*
X10534Y-1941D02*
D03*
X10538Y-1942D02*
D03*
X10534Y-1941D02*
D03*
X10538Y-1436D02*
D03*
X10534Y-928D02*
D03*
Y-420D02*
D03*
X9818Y-1941D02*
D03*
X9822Y-1942D02*
D03*
X9818Y-1941D02*
D03*
X9822Y-1436D02*
D03*
X9818Y-928D02*
D03*
Y-420D02*
D03*
X9042Y-1941D02*
D03*
X9046Y-1942D02*
D03*
X9042Y-1941D02*
D03*
X9046Y-1436D02*
D03*
X9042Y-928D02*
D03*
Y-420D02*
D03*
X8282Y-1941D02*
D03*
X8286Y-1942D02*
D03*
X8282Y-1941D02*
D03*
X8286Y-1436D02*
D03*
X8282Y-928D02*
D03*
Y-420D02*
D03*
X7188Y-1941D02*
D03*
X7192Y-1942D02*
D03*
X7188Y-1941D02*
D03*
X7192Y-1436D02*
D03*
X7188Y-928D02*
D03*
Y-420D02*
D03*
X6439Y-1941D02*
D03*
X6443Y-1942D02*
D03*
X6439Y-1941D02*
D03*
X6443Y-1436D02*
D03*
X6439Y-928D02*
D03*
Y-420D02*
D03*
X5702Y-1941D02*
D03*
X5706Y-1942D02*
D03*
X5702Y-1941D02*
D03*
X5706Y-1436D02*
D03*
X5702Y-928D02*
D03*
Y-420D02*
D03*
X5010Y-1941D02*
D03*
X5014Y-1942D02*
D03*
X5010Y-1941D02*
D03*
X5014Y-1436D02*
D03*
X5010Y-928D02*
D03*
Y-420D02*
D03*
X3321Y-1941D02*
D03*
X3325Y-1942D02*
D03*
X3321Y-1941D02*
D03*
X3325Y-1436D02*
D03*
X3321Y-928D02*
D03*
Y-420D02*
D03*
X2629Y-1941D02*
D03*
X2633Y-1942D02*
D03*
X2629Y-1941D02*
D03*
X2633Y-1436D02*
D03*
X2629Y-928D02*
D03*
Y-420D02*
D03*
X1849Y-1941D02*
D03*
X1853Y-1942D02*
D03*
X1849Y-1941D02*
D03*
X1853Y-1436D02*
D03*
X1849Y-928D02*
D03*
Y-420D02*
D03*
X1068Y-1941D02*
D03*
X1072Y-1942D02*
D03*
X1068Y-1941D02*
D03*
X1072Y-1436D02*
D03*
X1068Y-928D02*
D03*
Y-420D02*
D03*
X9818Y-18096D02*
D03*
X9822Y-18096D02*
D03*
X9818Y-18096D02*
D03*
X9822Y-17590D02*
D03*
X9818Y-17082D02*
D03*
Y-16574D02*
D03*
X1849Y-13480D02*
D03*
X1853Y-13481D02*
D03*
X1849Y-13480D02*
D03*
X1853Y-12975D02*
D03*
X1849Y-12467D02*
D03*
Y-11959D02*
D03*
X1067Y-4253D02*
D03*
X1071Y-4253D02*
D03*
X1067Y-4253D02*
D03*
X1071Y-3747D02*
D03*
X1067Y-3239D02*
D03*
Y-2731D02*
D03*
X1854Y-4253D02*
D03*
X1858Y-4253D02*
D03*
X1854Y-4253D02*
D03*
X1858Y-3747D02*
D03*
X1854Y-3239D02*
D03*
Y-2731D02*
D03*
X5702Y-4249D02*
D03*
X5706Y-4250D02*
D03*
X5702Y-4249D02*
D03*
X5706Y-3744D02*
D03*
X5702Y-3236D02*
D03*
Y-2728D02*
D03*
X5010Y-4249D02*
D03*
X5014Y-4250D02*
D03*
X5010Y-4249D02*
D03*
X5014Y-3744D02*
D03*
X5010Y-3236D02*
D03*
Y-2728D02*
D03*
X7188Y-6557D02*
D03*
X7192Y-6557D02*
D03*
X7188Y-6557D02*
D03*
X7192Y-6051D02*
D03*
X7188Y-5543D02*
D03*
Y-5035D02*
D03*
X3321Y-6557D02*
D03*
X3325Y-6557D02*
D03*
X3321Y-6557D02*
D03*
X3325Y-6051D02*
D03*
X3321Y-5543D02*
D03*
Y-5035D02*
D03*
X5702Y-6557D02*
D03*
X5706Y-6557D02*
D03*
X5702Y-6557D02*
D03*
X5706Y-6051D02*
D03*
X5702Y-5543D02*
D03*
Y-5035D02*
D03*
X5010Y-6557D02*
D03*
X5014Y-6557D02*
D03*
X5010Y-6557D02*
D03*
X5014Y-6051D02*
D03*
X5010Y-5543D02*
D03*
Y-5035D02*
D03*
X3321Y-4249D02*
D03*
X3325Y-4250D02*
D03*
X3321Y-4249D02*
D03*
X3325Y-3744D02*
D03*
X3321Y-3236D02*
D03*
Y-2728D02*
D03*
X2629Y-4249D02*
D03*
X2633Y-4250D02*
D03*
X2629Y-4249D02*
D03*
X2633Y-3744D02*
D03*
X2629Y-3236D02*
D03*
Y-2728D02*
D03*
X6477Y-4253D02*
D03*
X6481Y-4253D02*
D03*
X6477Y-4253D02*
D03*
X6481Y-3747D02*
D03*
X6477Y-3239D02*
D03*
Y-2731D02*
D03*
X7213Y-4253D02*
D03*
X7217Y-4253D02*
D03*
X7213Y-4253D02*
D03*
X7217Y-3747D02*
D03*
X7213Y-3239D02*
D03*
Y-2731D02*
D03*
X2629Y-6557D02*
D03*
X2633Y-6557D02*
D03*
X2629Y-6557D02*
D03*
X2633Y-6051D02*
D03*
X2629Y-5543D02*
D03*
Y-5035D02*
D03*
X1849Y-6557D02*
D03*
X1853Y-6557D02*
D03*
X1849Y-6557D02*
D03*
X1853Y-6051D02*
D03*
X1849Y-5543D02*
D03*
Y-5035D02*
D03*
X1068Y-6557D02*
D03*
X1072Y-6557D02*
D03*
X1068Y-6557D02*
D03*
X1072Y-6051D02*
D03*
X1068Y-5543D02*
D03*
Y-5035D02*
D03*
X6439Y-6557D02*
D03*
X6443Y-6557D02*
D03*
X6439Y-6557D02*
D03*
X6443Y-6051D02*
D03*
X6439Y-5543D02*
D03*
Y-5035D02*
D03*
X6439Y-8865D02*
D03*
X6443Y-8865D02*
D03*
X6439Y-8865D02*
D03*
X6443Y-8359D02*
D03*
X6439Y-7851D02*
D03*
Y-7343D02*
D03*
X5702Y-8865D02*
D03*
X5706Y-8865D02*
D03*
X5702Y-8865D02*
D03*
X5706Y-8359D02*
D03*
X5702Y-7851D02*
D03*
Y-7343D02*
D03*
X5010Y-8865D02*
D03*
X5014Y-8865D02*
D03*
X5010Y-8865D02*
D03*
X5014Y-8359D02*
D03*
X5010Y-7851D02*
D03*
Y-7343D02*
D03*
X1849Y-8865D02*
D03*
X1853Y-8865D02*
D03*
X1849Y-8865D02*
D03*
X1853Y-8359D02*
D03*
X1849Y-7851D02*
D03*
Y-7343D02*
D03*
X3321Y-11172D02*
D03*
X3325Y-11173D02*
D03*
X3321Y-11172D02*
D03*
X3325Y-10667D02*
D03*
X3321Y-10159D02*
D03*
Y-9651D02*
D03*
X6439Y-11172D02*
D03*
X6443Y-11173D02*
D03*
X6439Y-11172D02*
D03*
X6443Y-10667D02*
D03*
X6439Y-10159D02*
D03*
Y-9651D02*
D03*
X5702Y-11172D02*
D03*
X5706Y-11173D02*
D03*
X5702Y-11172D02*
D03*
X5706Y-10667D02*
D03*
X5702Y-10159D02*
D03*
Y-9651D02*
D03*
X5010Y-11172D02*
D03*
X5014Y-11173D02*
D03*
X5010Y-11172D02*
D03*
X5014Y-10667D02*
D03*
X5010Y-10159D02*
D03*
Y-9651D02*
D03*
X3321Y-8865D02*
D03*
X3325Y-8865D02*
D03*
X3321Y-8865D02*
D03*
X3325Y-8359D02*
D03*
X3321Y-7851D02*
D03*
Y-7343D02*
D03*
X2629Y-8865D02*
D03*
X2633Y-8865D02*
D03*
X2629Y-8865D02*
D03*
X2633Y-8359D02*
D03*
X2629Y-7851D02*
D03*
Y-7343D02*
D03*
X7188Y-8865D02*
D03*
X7192Y-8865D02*
D03*
X7188Y-8865D02*
D03*
X7192Y-8359D02*
D03*
X7188Y-7851D02*
D03*
Y-7343D02*
D03*
X1068Y-8865D02*
D03*
X1072Y-8865D02*
D03*
X1068Y-8865D02*
D03*
X1072Y-8359D02*
D03*
X1068Y-7851D02*
D03*
Y-7343D02*
D03*
X2629Y-11172D02*
D03*
X2633Y-11173D02*
D03*
X2629Y-11172D02*
D03*
X2633Y-10667D02*
D03*
X2629Y-10159D02*
D03*
Y-9651D02*
D03*
X1849Y-11172D02*
D03*
X1853Y-11173D02*
D03*
X1849Y-11172D02*
D03*
X1853Y-10667D02*
D03*
X1849Y-10159D02*
D03*
Y-9651D02*
D03*
X1068Y-11172D02*
D03*
X1072Y-11173D02*
D03*
X1068Y-11172D02*
D03*
X1072Y-10667D02*
D03*
X1068Y-10159D02*
D03*
Y-9651D02*
D03*
X7188Y-11172D02*
D03*
X7192Y-11173D02*
D03*
X7188Y-11172D02*
D03*
X7192Y-10667D02*
D03*
X7188Y-10159D02*
D03*
Y-9651D02*
D03*
X3321Y-13480D02*
D03*
X3325Y-13481D02*
D03*
X3321Y-13480D02*
D03*
X3325Y-12975D02*
D03*
X3321Y-12467D02*
D03*
Y-11959D02*
D03*
X6439Y-13480D02*
D03*
X6443Y-13481D02*
D03*
X6439Y-13480D02*
D03*
X6443Y-12975D02*
D03*
X6439Y-12467D02*
D03*
Y-11959D02*
D03*
X5702Y-13480D02*
D03*
X5706Y-13481D02*
D03*
X5702Y-13480D02*
D03*
X5706Y-12975D02*
D03*
X5702Y-12467D02*
D03*
Y-11959D02*
D03*
X5010Y-13480D02*
D03*
X5014Y-13481D02*
D03*
X5010Y-13480D02*
D03*
X5014Y-12975D02*
D03*
X5010Y-12467D02*
D03*
Y-11959D02*
D03*
X3321Y-15788D02*
D03*
X3325Y-15788D02*
D03*
X3321Y-15788D02*
D03*
X3325Y-15282D02*
D03*
X3321Y-14774D02*
D03*
Y-14266D02*
D03*
X6439Y-15788D02*
D03*
X6443Y-15788D02*
D03*
X6439Y-15788D02*
D03*
X6443Y-15282D02*
D03*
X6439Y-14774D02*
D03*
Y-14266D02*
D03*
X5702Y-15788D02*
D03*
X5706Y-15788D02*
D03*
X5702Y-15788D02*
D03*
X5706Y-15282D02*
D03*
X5702Y-14774D02*
D03*
Y-14266D02*
D03*
X5010Y-15788D02*
D03*
X5014Y-15788D02*
D03*
X5010Y-15788D02*
D03*
X5014Y-15282D02*
D03*
X5010Y-14774D02*
D03*
Y-14266D02*
D03*
X2629Y-13480D02*
D03*
X2633Y-13481D02*
D03*
X2629Y-13480D02*
D03*
X2633Y-12975D02*
D03*
X2629Y-12467D02*
D03*
Y-11959D02*
D03*
X1068Y-13480D02*
D03*
X1072Y-13481D02*
D03*
X1068Y-13480D02*
D03*
X1072Y-12975D02*
D03*
X1068Y-12467D02*
D03*
Y-11959D02*
D03*
X7188Y-13480D02*
D03*
X7192Y-13481D02*
D03*
X7188Y-13480D02*
D03*
X7192Y-12975D02*
D03*
X7188Y-12467D02*
D03*
Y-11959D02*
D03*
X2629Y-15788D02*
D03*
X2633Y-15788D02*
D03*
X2629Y-15788D02*
D03*
X2633Y-15282D02*
D03*
X2629Y-14774D02*
D03*
Y-14266D02*
D03*
X1849Y-15788D02*
D03*
X1853Y-15788D02*
D03*
X1849Y-15788D02*
D03*
X1853Y-15282D02*
D03*
X1849Y-14774D02*
D03*
Y-14266D02*
D03*
X1068Y-15788D02*
D03*
X1072Y-15788D02*
D03*
X1068Y-15788D02*
D03*
X1072Y-15282D02*
D03*
X1068Y-14774D02*
D03*
Y-14266D02*
D03*
X7188Y-15788D02*
D03*
X7192Y-15788D02*
D03*
X7188Y-15788D02*
D03*
X7192Y-15282D02*
D03*
X7188Y-14774D02*
D03*
Y-14266D02*
D03*
X3321Y-18096D02*
D03*
X3325Y-18096D02*
D03*
X3321Y-18096D02*
D03*
X3325Y-17590D02*
D03*
X3321Y-17082D02*
D03*
Y-16574D02*
D03*
X6439Y-18096D02*
D03*
X6443Y-18096D02*
D03*
X6439Y-18096D02*
D03*
X6443Y-17590D02*
D03*
X6439Y-17082D02*
D03*
Y-16574D02*
D03*
X5702Y-18096D02*
D03*
X5706Y-18096D02*
D03*
X5702Y-18096D02*
D03*
X5706Y-17590D02*
D03*
X5702Y-17082D02*
D03*
Y-16574D02*
D03*
X5010Y-18096D02*
D03*
X5014Y-18096D02*
D03*
X5010Y-18096D02*
D03*
X5014Y-17590D02*
D03*
X5010Y-17082D02*
D03*
Y-16574D02*
D03*
X2629Y-18096D02*
D03*
X2633Y-18096D02*
D03*
X2629Y-18096D02*
D03*
X2633Y-17590D02*
D03*
X2629Y-17082D02*
D03*
Y-16574D02*
D03*
X1849Y-18096D02*
D03*
X1853Y-18096D02*
D03*
X1849Y-18096D02*
D03*
X1853Y-17590D02*
D03*
X1849Y-17082D02*
D03*
Y-16574D02*
D03*
X1068Y-18096D02*
D03*
X1072Y-18096D02*
D03*
X1068Y-18096D02*
D03*
X1072Y-17590D02*
D03*
X1068Y-17082D02*
D03*
Y-16574D02*
D03*
X7188Y-18096D02*
D03*
X7192Y-18096D02*
D03*
X7188Y-18096D02*
D03*
X7192Y-17590D02*
D03*
X7188Y-17082D02*
D03*
Y-16574D02*
D03*
X9042Y-18096D02*
D03*
X9046Y-18096D02*
D03*
X9042Y-18096D02*
D03*
X9046Y-17590D02*
D03*
X9042Y-17082D02*
D03*
Y-16574D02*
D03*
X8282Y-18096D02*
D03*
X8286Y-18096D02*
D03*
X8282Y-18096D02*
D03*
X8286Y-17590D02*
D03*
X8282Y-17082D02*
D03*
Y-16574D02*
D03*
X12916Y-18096D02*
D03*
X12920Y-18096D02*
D03*
X12916Y-18096D02*
D03*
X12920Y-17590D02*
D03*
X12916Y-17082D02*
D03*
Y-16574D02*
D03*
X12224Y-18096D02*
D03*
X12228Y-18096D02*
D03*
X12224Y-18096D02*
D03*
X12228Y-17590D02*
D03*
X12224Y-17082D02*
D03*
Y-16574D02*
D03*
X14402Y-18096D02*
D03*
X14406Y-18096D02*
D03*
X14402Y-18096D02*
D03*
X14406Y-17590D02*
D03*
X14402Y-17082D02*
D03*
Y-16574D02*
D03*
X13653Y-18096D02*
D03*
X13657Y-18096D02*
D03*
X13653Y-18096D02*
D03*
X13657Y-17590D02*
D03*
X13653Y-17082D02*
D03*
Y-16574D02*
D03*
X9042Y-15788D02*
D03*
X9046Y-15788D02*
D03*
X9042Y-15788D02*
D03*
X9046Y-15282D02*
D03*
X9042Y-14774D02*
D03*
Y-14266D02*
D03*
X8282Y-15788D02*
D03*
X8286Y-15788D02*
D03*
X8282Y-15788D02*
D03*
X8286Y-15282D02*
D03*
X8282Y-14774D02*
D03*
Y-14266D02*
D03*
X12916Y-15788D02*
D03*
X12920Y-15788D02*
D03*
X12916Y-15788D02*
D03*
X12920Y-15282D02*
D03*
X12916Y-14774D02*
D03*
Y-14266D02*
D03*
X12224Y-15788D02*
D03*
X12228Y-15788D02*
D03*
X12224Y-15788D02*
D03*
X12228Y-15282D02*
D03*
X12224Y-14774D02*
D03*
Y-14266D02*
D03*
X10534Y-15788D02*
D03*
X10538Y-15788D02*
D03*
X10534Y-15788D02*
D03*
X10538Y-15282D02*
D03*
X10534Y-14774D02*
D03*
Y-14266D02*
D03*
X9818Y-15788D02*
D03*
X9822Y-15788D02*
D03*
X9818Y-15788D02*
D03*
X9822Y-15282D02*
D03*
X9818Y-14774D02*
D03*
Y-14266D02*
D03*
X14402Y-15788D02*
D03*
X14406Y-15788D02*
D03*
X14402Y-15788D02*
D03*
X14406Y-15282D02*
D03*
X14402Y-14774D02*
D03*
Y-14266D02*
D03*
X13653Y-15788D02*
D03*
X13657Y-15788D02*
D03*
X13653Y-15788D02*
D03*
X13657Y-15282D02*
D03*
X13653Y-14774D02*
D03*
Y-14266D02*
D03*
X9042Y-13480D02*
D03*
X9046Y-13481D02*
D03*
X9042Y-13480D02*
D03*
X9046Y-12975D02*
D03*
X9042Y-12467D02*
D03*
Y-11959D02*
D03*
X8282Y-13480D02*
D03*
X8286Y-13481D02*
D03*
X8282Y-13480D02*
D03*
X8286Y-12975D02*
D03*
X8282Y-12467D02*
D03*
Y-11959D02*
D03*
X12916Y-13480D02*
D03*
X12920Y-13481D02*
D03*
X12916Y-13480D02*
D03*
X12920Y-12975D02*
D03*
X12916Y-12467D02*
D03*
Y-11959D02*
D03*
X12224Y-13480D02*
D03*
X12228Y-13481D02*
D03*
X12224Y-13480D02*
D03*
X12228Y-12975D02*
D03*
X12224Y-12467D02*
D03*
Y-11959D02*
D03*
X10534Y-13480D02*
D03*
X10538Y-13481D02*
D03*
X10534Y-13480D02*
D03*
X10538Y-12975D02*
D03*
X10534Y-12467D02*
D03*
Y-11959D02*
D03*
X9818Y-13480D02*
D03*
X9822Y-13481D02*
D03*
X9818Y-13480D02*
D03*
X9822Y-12975D02*
D03*
X9818Y-12467D02*
D03*
Y-11959D02*
D03*
X14402Y-13480D02*
D03*
X14406Y-13481D02*
D03*
X14402Y-13480D02*
D03*
X14406Y-12975D02*
D03*
X14402Y-12467D02*
D03*
Y-11959D02*
D03*
X13653Y-13480D02*
D03*
X13657Y-13481D02*
D03*
X13653Y-13480D02*
D03*
X13657Y-12975D02*
D03*
X13653Y-12467D02*
D03*
Y-11959D02*
D03*
X9042Y-11172D02*
D03*
X9046Y-11173D02*
D03*
X9042Y-11172D02*
D03*
X9046Y-10667D02*
D03*
X9042Y-10159D02*
D03*
Y-9651D02*
D03*
X8282Y-11172D02*
D03*
X8286Y-11173D02*
D03*
X8282Y-11172D02*
D03*
X8286Y-10667D02*
D03*
X8282Y-10159D02*
D03*
Y-9651D02*
D03*
X12916Y-11172D02*
D03*
X12920Y-11173D02*
D03*
X12916Y-11172D02*
D03*
X12920Y-10667D02*
D03*
X12916Y-10159D02*
D03*
Y-9651D02*
D03*
X12224Y-11172D02*
D03*
X12228Y-11173D02*
D03*
X12224Y-11172D02*
D03*
X12228Y-10667D02*
D03*
X12224Y-10159D02*
D03*
Y-9651D02*
D03*
X14402Y-8865D02*
D03*
X14406Y-8865D02*
D03*
X14402Y-8865D02*
D03*
X14406Y-8359D02*
D03*
X14402Y-7851D02*
D03*
Y-7343D02*
D03*
X9042Y-8865D02*
D03*
X9046Y-8865D02*
D03*
X9042Y-8865D02*
D03*
X9046Y-8359D02*
D03*
X9042Y-7851D02*
D03*
Y-7343D02*
D03*
X8282Y-8865D02*
D03*
X8286Y-8865D02*
D03*
X8282Y-8865D02*
D03*
X8286Y-8359D02*
D03*
X8282Y-7851D02*
D03*
Y-7343D02*
D03*
X12224Y-8865D02*
D03*
X12228Y-8865D02*
D03*
X12224Y-8865D02*
D03*
X12228Y-8359D02*
D03*
X12224Y-7851D02*
D03*
Y-7343D02*
D03*
X10534Y-11172D02*
D03*
X10538Y-11173D02*
D03*
X10534Y-11172D02*
D03*
X10538Y-10667D02*
D03*
X10534Y-10159D02*
D03*
Y-9651D02*
D03*
X9818Y-11172D02*
D03*
X9822Y-11173D02*
D03*
X9818Y-11172D02*
D03*
X9822Y-10667D02*
D03*
X9818Y-10159D02*
D03*
Y-9651D02*
D03*
X14402Y-11172D02*
D03*
X14406Y-11173D02*
D03*
X14402Y-11172D02*
D03*
X14406Y-10667D02*
D03*
X14402Y-10159D02*
D03*
Y-9651D02*
D03*
X13653Y-11172D02*
D03*
X13657Y-11173D02*
D03*
X13653Y-11172D02*
D03*
X13657Y-10667D02*
D03*
X13653Y-10159D02*
D03*
Y-9651D02*
D03*
X10534Y-8865D02*
D03*
X10538Y-8865D02*
D03*
X10534Y-8865D02*
D03*
X10538Y-8359D02*
D03*
X10534Y-7851D02*
D03*
Y-7343D02*
D03*
X9818Y-8865D02*
D03*
X9822Y-8865D02*
D03*
X9818Y-8865D02*
D03*
X9822Y-8359D02*
D03*
X9818Y-7851D02*
D03*
Y-7343D02*
D03*
X13653Y-8865D02*
D03*
X13657Y-8865D02*
D03*
X13653Y-8865D02*
D03*
X13657Y-8359D02*
D03*
X13653Y-7851D02*
D03*
Y-7343D02*
D03*
X12916Y-8865D02*
D03*
X12920Y-8865D02*
D03*
X12916Y-8865D02*
D03*
X12920Y-8359D02*
D03*
X12916Y-7851D02*
D03*
Y-7343D02*
D03*
X9042Y-6557D02*
D03*
X9046Y-6557D02*
D03*
X9042Y-6557D02*
D03*
X9046Y-6051D02*
D03*
X9042Y-5543D02*
D03*
Y-5035D02*
D03*
X8282Y-6557D02*
D03*
X8286Y-6557D02*
D03*
X8282Y-6557D02*
D03*
X8286Y-6051D02*
D03*
X8282Y-5543D02*
D03*
Y-5035D02*
D03*
X12916Y-6602D02*
D03*
X12920Y-6602D02*
D03*
X12916Y-6602D02*
D03*
X12920Y-6096D02*
D03*
X12916Y-5588D02*
D03*
Y-5080D02*
D03*
X12224Y-6602D02*
D03*
X12228Y-6602D02*
D03*
X12224Y-6602D02*
D03*
X12228Y-6096D02*
D03*
X12224Y-5588D02*
D03*
Y-5080D02*
D03*
X9042Y-4249D02*
D03*
X9046Y-4250D02*
D03*
X9042Y-4249D02*
D03*
X9046Y-3744D02*
D03*
X9042Y-3236D02*
D03*
Y-2728D02*
D03*
X8282Y-4249D02*
D03*
X8286Y-4250D02*
D03*
X8282Y-4249D02*
D03*
X8286Y-3744D02*
D03*
X8282Y-3236D02*
D03*
Y-2728D02*
D03*
X12916Y-4214D02*
D03*
X12920Y-4214D02*
D03*
X12916Y-4214D02*
D03*
X12920Y-3708D02*
D03*
X12916Y-3200D02*
D03*
Y-2692D02*
D03*
X12224Y-4214D02*
D03*
X12228Y-4214D02*
D03*
X12224Y-4214D02*
D03*
X12228Y-3708D02*
D03*
X12224Y-3200D02*
D03*
Y-2692D02*
D03*
X10534Y-6557D02*
D03*
X10538Y-6557D02*
D03*
X10534Y-6557D02*
D03*
X10538Y-6051D02*
D03*
X10534Y-5543D02*
D03*
Y-5035D02*
D03*
X9818Y-6557D02*
D03*
X9822Y-6557D02*
D03*
X9818Y-6557D02*
D03*
X9822Y-6051D02*
D03*
X9818Y-5543D02*
D03*
Y-5035D02*
D03*
X14402Y-6602D02*
D03*
X14406Y-6602D02*
D03*
X14402Y-6602D02*
D03*
X14406Y-6096D02*
D03*
X14402Y-5588D02*
D03*
Y-5080D02*
D03*
X13653Y-6602D02*
D03*
X13657Y-6602D02*
D03*
X13653Y-6602D02*
D03*
X13657Y-6096D02*
D03*
X13653Y-5588D02*
D03*
Y-5080D02*
D03*
X10534Y-4249D02*
D03*
X10538Y-4250D02*
D03*
X10534Y-4249D02*
D03*
X10538Y-3744D02*
D03*
X10534Y-3236D02*
D03*
Y-2728D02*
D03*
X9818Y-4249D02*
D03*
X9822Y-4250D02*
D03*
X9818Y-4249D02*
D03*
X9822Y-3744D02*
D03*
X9818Y-3236D02*
D03*
Y-2728D02*
D03*
X14402Y-4214D02*
D03*
X14406Y-4214D02*
D03*
X14402Y-4214D02*
D03*
X14406Y-3708D02*
D03*
X14402Y-3200D02*
D03*
Y-2692D02*
D03*
X13653Y-4214D02*
D03*
X13657Y-4214D02*
D03*
X13653Y-4214D02*
D03*
X13657Y-3708D02*
D03*
X13653Y-3200D02*
D03*
Y-2692D02*
D03*
X16334Y-4249D02*
D03*
X16338Y-4250D02*
D03*
X16334Y-4249D02*
D03*
X16338Y-3744D02*
D03*
X16334Y-3236D02*
D03*
Y-2728D02*
D03*
X15519Y-4249D02*
D03*
X15523Y-4250D02*
D03*
X15519Y-4249D02*
D03*
X15523Y-3744D02*
D03*
X15519Y-3236D02*
D03*
Y-2728D02*
D03*
X20538Y-4249D02*
D03*
X20542Y-4250D02*
D03*
X20538Y-4249D02*
D03*
X20542Y-3744D02*
D03*
X20538Y-3236D02*
D03*
Y-2728D02*
D03*
X19757Y-4249D02*
D03*
X19761Y-4250D02*
D03*
X19757Y-4249D02*
D03*
X19761Y-3744D02*
D03*
X19757Y-3236D02*
D03*
Y-2728D02*
D03*
X16334Y-6557D02*
D03*
X16338Y-6557D02*
D03*
X16334Y-6557D02*
D03*
X16338Y-6051D02*
D03*
X16334Y-5543D02*
D03*
Y-5035D02*
D03*
X15519Y-6557D02*
D03*
X15523Y-6557D02*
D03*
X15519Y-6557D02*
D03*
X15523Y-6051D02*
D03*
X15519Y-5543D02*
D03*
Y-5035D02*
D03*
X20538Y-6557D02*
D03*
X20542Y-6557D02*
D03*
X20538Y-6557D02*
D03*
X20542Y-6051D02*
D03*
X20538Y-5543D02*
D03*
Y-5035D02*
D03*
X19757Y-6557D02*
D03*
X19761Y-6557D02*
D03*
X19757Y-6557D02*
D03*
X19761Y-6051D02*
D03*
X19757Y-5543D02*
D03*
Y-5035D02*
D03*
X17883Y-4249D02*
D03*
X17888Y-4250D02*
D03*
X17883Y-4249D02*
D03*
X17888Y-3744D02*
D03*
X17883Y-3236D02*
D03*
Y-2728D02*
D03*
X17102Y-4249D02*
D03*
X17107Y-4250D02*
D03*
X17102Y-4249D02*
D03*
X17107Y-3744D02*
D03*
X17102Y-3236D02*
D03*
Y-2728D02*
D03*
X22087Y-4249D02*
D03*
X22091Y-4250D02*
D03*
X22087Y-4249D02*
D03*
X22091Y-3744D02*
D03*
X22087Y-3236D02*
D03*
Y-2728D02*
D03*
X21306Y-4249D02*
D03*
X21310Y-4250D02*
D03*
X21306Y-4249D02*
D03*
X21310Y-3744D02*
D03*
X21306Y-3236D02*
D03*
Y-2728D02*
D03*
X17883Y-6557D02*
D03*
X17888Y-6557D02*
D03*
X17883Y-6557D02*
D03*
X17888Y-6051D02*
D03*
X17883Y-5543D02*
D03*
Y-5035D02*
D03*
X17102Y-6557D02*
D03*
X17107Y-6557D02*
D03*
X17102Y-6557D02*
D03*
X17107Y-6051D02*
D03*
X17102Y-5543D02*
D03*
Y-5035D02*
D03*
X22087Y-6557D02*
D03*
X22091Y-6557D02*
D03*
X22087Y-6557D02*
D03*
X22091Y-6051D02*
D03*
X22087Y-5543D02*
D03*
Y-5035D02*
D03*
X21306Y-6557D02*
D03*
X21310Y-6557D02*
D03*
X21306Y-6557D02*
D03*
X21310Y-6051D02*
D03*
X21306Y-5543D02*
D03*
Y-5035D02*
D03*
X16334Y-8865D02*
D03*
X16338Y-8865D02*
D03*
X16334Y-8865D02*
D03*
X16338Y-8359D02*
D03*
X16334Y-7851D02*
D03*
Y-7343D02*
D03*
X15519Y-8865D02*
D03*
X15523Y-8865D02*
D03*
X15519Y-8865D02*
D03*
X15523Y-8359D02*
D03*
X15519Y-7851D02*
D03*
Y-7343D02*
D03*
X20538Y-8862D02*
D03*
X20542Y-8863D02*
D03*
X20538Y-8862D02*
D03*
X20542Y-8357D02*
D03*
X20538Y-7849D02*
D03*
Y-7341D02*
D03*
X19757Y-8862D02*
D03*
X19761Y-8863D02*
D03*
X19757Y-8862D02*
D03*
X19761Y-8357D02*
D03*
X19757Y-7849D02*
D03*
Y-7341D02*
D03*
X17883Y-8865D02*
D03*
X17888Y-8865D02*
D03*
X17883Y-8865D02*
D03*
X17888Y-8359D02*
D03*
X17883Y-7851D02*
D03*
Y-7343D02*
D03*
X17102Y-8865D02*
D03*
X17107Y-8865D02*
D03*
X17102Y-8865D02*
D03*
X17107Y-8359D02*
D03*
X17102Y-7851D02*
D03*
Y-7343D02*
D03*
X22087Y-8862D02*
D03*
X22091Y-8863D02*
D03*
X22087Y-8862D02*
D03*
X22091Y-8357D02*
D03*
X22087Y-7849D02*
D03*
Y-7341D02*
D03*
X21306Y-8862D02*
D03*
X21310Y-8863D02*
D03*
X21306Y-8862D02*
D03*
X21310Y-8357D02*
D03*
X21306Y-7849D02*
D03*
Y-7341D02*
D03*
X16334Y-11172D02*
D03*
X16338Y-11173D02*
D03*
X16334Y-11172D02*
D03*
X16338Y-10667D02*
D03*
X16334Y-10159D02*
D03*
Y-9651D02*
D03*
X15519Y-11172D02*
D03*
X15523Y-11173D02*
D03*
X15519Y-11172D02*
D03*
X15523Y-10667D02*
D03*
X15519Y-10159D02*
D03*
Y-9651D02*
D03*
X19757Y-11172D02*
D03*
X19761Y-11173D02*
D03*
X19757Y-11172D02*
D03*
X19761Y-10667D02*
D03*
X19757Y-10159D02*
D03*
Y-9651D02*
D03*
X17883Y-11172D02*
D03*
X17888Y-11173D02*
D03*
X17883Y-11172D02*
D03*
X17888Y-10667D02*
D03*
X17883Y-10159D02*
D03*
Y-9651D02*
D03*
X17102Y-11172D02*
D03*
X17107Y-11173D02*
D03*
X17102Y-11172D02*
D03*
X17107Y-10667D02*
D03*
X17102Y-10159D02*
D03*
Y-9651D02*
D03*
X22087Y-11172D02*
D03*
X22091Y-11173D02*
D03*
X22087Y-11172D02*
D03*
X22091Y-10667D02*
D03*
X22087Y-10159D02*
D03*
Y-9651D02*
D03*
X21306Y-11172D02*
D03*
X21310Y-11173D02*
D03*
X21306Y-11172D02*
D03*
X21310Y-10667D02*
D03*
X21306Y-10159D02*
D03*
Y-9651D02*
D03*
X16334Y-13480D02*
D03*
X16338Y-13481D02*
D03*
X16334Y-13480D02*
D03*
X16338Y-12975D02*
D03*
X16334Y-12467D02*
D03*
Y-11959D02*
D03*
X15519Y-13480D02*
D03*
X15523Y-13481D02*
D03*
X15519Y-13480D02*
D03*
X15523Y-12975D02*
D03*
X15519Y-12467D02*
D03*
Y-11959D02*
D03*
X20538Y-13480D02*
D03*
X20542Y-13481D02*
D03*
X20538Y-13480D02*
D03*
X20542Y-12975D02*
D03*
X20538Y-12467D02*
D03*
Y-11959D02*
D03*
X19757Y-13480D02*
D03*
X19761Y-13481D02*
D03*
X19757Y-13480D02*
D03*
X19761Y-12975D02*
D03*
X19757Y-12467D02*
D03*
Y-11959D02*
D03*
X17883Y-13480D02*
D03*
X17888Y-13481D02*
D03*
X17883Y-13480D02*
D03*
X17888Y-12975D02*
D03*
X17883Y-12467D02*
D03*
Y-11959D02*
D03*
X17102Y-13480D02*
D03*
X17107Y-13481D02*
D03*
X17102Y-13480D02*
D03*
X17107Y-12975D02*
D03*
X17102Y-12467D02*
D03*
Y-11959D02*
D03*
X22087Y-13480D02*
D03*
X22091Y-13481D02*
D03*
X22087Y-13480D02*
D03*
X22091Y-12975D02*
D03*
X22087Y-12467D02*
D03*
Y-11959D02*
D03*
X21306Y-13480D02*
D03*
X21310Y-13481D02*
D03*
X21306Y-13480D02*
D03*
X21310Y-12975D02*
D03*
X21306Y-12467D02*
D03*
Y-11959D02*
D03*
X16334Y-15788D02*
D03*
X16338Y-15788D02*
D03*
X16334Y-15788D02*
D03*
X16338Y-15282D02*
D03*
X16334Y-14774D02*
D03*
Y-14266D02*
D03*
X15519Y-15788D02*
D03*
X15523Y-15788D02*
D03*
X15519Y-15788D02*
D03*
X15523Y-15282D02*
D03*
X15519Y-14774D02*
D03*
Y-14266D02*
D03*
X20538Y-15788D02*
D03*
X20542Y-15788D02*
D03*
X20538Y-15788D02*
D03*
X20542Y-15282D02*
D03*
X20538Y-14774D02*
D03*
Y-14266D02*
D03*
X19757Y-15788D02*
D03*
X19761Y-15788D02*
D03*
X19757Y-15788D02*
D03*
X19761Y-15282D02*
D03*
X19757Y-14774D02*
D03*
Y-14266D02*
D03*
X17883Y-15788D02*
D03*
X17888Y-15788D02*
D03*
X17883Y-15788D02*
D03*
X17888Y-15282D02*
D03*
X17883Y-14774D02*
D03*
Y-14266D02*
D03*
X17102Y-15788D02*
D03*
X17107Y-15788D02*
D03*
X17102Y-15788D02*
D03*
X17107Y-15282D02*
D03*
X17102Y-14774D02*
D03*
Y-14266D02*
D03*
X22087Y-15788D02*
D03*
X22091Y-15788D02*
D03*
X22087Y-15788D02*
D03*
X22091Y-15282D02*
D03*
X22087Y-14774D02*
D03*
Y-14266D02*
D03*
X21306Y-15788D02*
D03*
X21310Y-15788D02*
D03*
X21306Y-15788D02*
D03*
X21310Y-15282D02*
D03*
X21306Y-14774D02*
D03*
Y-14266D02*
D03*
X16334Y-18096D02*
D03*
X16338Y-18096D02*
D03*
X16334Y-18096D02*
D03*
X16338Y-17590D02*
D03*
X16334Y-17082D02*
D03*
Y-16574D02*
D03*
X15519Y-18096D02*
D03*
X15523Y-18096D02*
D03*
X15519Y-18096D02*
D03*
X15523Y-17590D02*
D03*
X15519Y-17082D02*
D03*
Y-16574D02*
D03*
X20538Y-18096D02*
D03*
X20542Y-18096D02*
D03*
X20538Y-18096D02*
D03*
X20542Y-17590D02*
D03*
X20538Y-17082D02*
D03*
Y-16574D02*
D03*
X17102Y-18096D02*
D03*
X17107Y-18096D02*
D03*
X17102Y-18096D02*
D03*
X17107Y-17590D02*
D03*
X17102Y-17082D02*
D03*
Y-16574D02*
D03*
X22087Y-18096D02*
D03*
X22091Y-18096D02*
D03*
X22087Y-18096D02*
D03*
X22091Y-17590D02*
D03*
X22087Y-17082D02*
D03*
Y-16574D02*
D03*
X21306Y-18096D02*
D03*
X21310Y-18096D02*
D03*
X21306Y-18096D02*
D03*
X21310Y-17590D02*
D03*
X21306Y-17082D02*
D03*
Y-16574D02*
D03*
X19757Y-18096D02*
D03*
X19761Y-18096D02*
D03*
X19757Y-18096D02*
D03*
X19761Y-17590D02*
D03*
X19757Y-17082D02*
D03*
Y-16574D02*
D03*
X17883Y-18096D02*
D03*
X17888Y-18096D02*
D03*
X17883Y-18096D02*
D03*
X17888Y-17590D02*
D03*
X17883Y-17082D02*
D03*
Y-16574D02*
D03*
X20538Y-11172D02*
D03*
X20542Y-11173D02*
D03*
X20538Y-11172D02*
D03*
X20542Y-10667D02*
D03*
X20538Y-10159D02*
D03*
Y-9651D02*
D03*
X10534Y-18096D02*
D03*
X10538Y-18096D02*
D03*
X10534Y-18096D02*
D03*
X10538Y-17590D02*
D03*
X10534Y-17082D02*
D03*
Y-16574D02*
D03*
D13*
X490Y-820D02*
D03*
X22990D02*
D03*
Y-18820D02*
D03*
X490D02*
D03*
X15128Y-19524D02*
D03*
X6228D02*
D03*
D14*
X17119Y-18896D02*
D03*
X17373D02*
D03*
X17627D02*
D03*
X17881D02*
D03*
X18135D02*
D03*
Y-19150D02*
D03*
X17627D02*
D03*
X17119D02*
D03*
X17373D02*
D03*
X17881D02*
D03*
D15*
X14361Y-19268D02*
D03*
X14107D02*
D03*
X13853D02*
D03*
X13599D02*
D03*
X13345D02*
D03*
X13091D02*
D03*
X12837D02*
D03*
X12583D02*
D03*
X12329D02*
D03*
X12075D02*
D03*
X11821D02*
D03*
X11567D02*
D03*
X11313D02*
D03*
X11059D02*
D03*
X10805D02*
D03*
X10551D02*
D03*
X10297D02*
D03*
X10043D02*
D03*
X9789D02*
D03*
X9535D02*
D03*
X9281D02*
D03*
X9027D02*
D03*
X8773D02*
D03*
X8519D02*
D03*
X8265D02*
D03*
X8011D02*
D03*
X7757D02*
D03*
X7503D02*
D03*
X7249D02*
D03*
X6995D02*
D03*
X14615D02*
D03*
X6741D02*
D03*
X14364Y-18999D02*
D03*
X14110D02*
D03*
X13856D02*
D03*
X13602D02*
D03*
X13348D02*
D03*
X13094D02*
D03*
X12840D02*
D03*
X12586D02*
D03*
X12332D02*
D03*
X12078D02*
D03*
X11824D02*
D03*
X11570D02*
D03*
X11316D02*
D03*
X11062D02*
D03*
X10808D02*
D03*
X10554D02*
D03*
X10300D02*
D03*
X10046D02*
D03*
X9792D02*
D03*
X9538D02*
D03*
X9284D02*
D03*
X9030D02*
D03*
X8776D02*
D03*
X8522D02*
D03*
X8268D02*
D03*
X8014D02*
D03*
X7760D02*
D03*
X7506D02*
D03*
X7252D02*
D03*
X6998D02*
D03*
X14618Y-18989D02*
D03*
X6744Y-18999D02*
D03*
X14361Y-18740D02*
D03*
X14107D02*
D03*
X13853D02*
D03*
X13599D02*
D03*
X13345D02*
D03*
X13091D02*
D03*
X12837D02*
D03*
X12583D02*
D03*
X12329D02*
D03*
X12075D02*
D03*
X11821D02*
D03*
X11567D02*
D03*
X11313D02*
D03*
X11059D02*
D03*
X10805D02*
D03*
X10551D02*
D03*
X10297D02*
D03*
X10043D02*
D03*
X9789D02*
D03*
X9535D02*
D03*
X9281D02*
D03*
X9027D02*
D03*
X8773D02*
D03*
X8519D02*
D03*
X8265D02*
D03*
X8011D02*
D03*
X7757D02*
D03*
X7503D02*
D03*
X7249D02*
D03*
X6995D02*
D03*
X14615D02*
D03*
X6741D02*
D03*
D16*
X9779Y-14603D02*
D03*
X5207Y-10717D02*
D03*
X4851Y-8533D02*
D03*
X6497Y-17296D02*
D03*
X10363Y-17829D02*
D03*
X9982Y-17654D02*
D03*
X19248Y-14671D02*
D03*
X10795Y-17524D02*
D03*
X4115Y-12800D02*
D03*
X3632Y-887D02*
D03*
X12522Y-8482D02*
D03*
X12544Y-7978D02*
D03*
X20218Y-3478D02*
D03*
X20193Y-3453D02*
D03*
X7747Y-151D02*
D03*
X7721Y-836D02*
D03*
X10236Y-5866D02*
D03*
X10363Y-5307D02*
D03*
X17602Y-17169D02*
D03*
X17272Y-17524D02*
D03*
X14808Y-16559D02*
D03*
X14859Y-17499D02*
D03*
X11572Y-16978D02*
D03*
X13599Y-18464D02*
D03*
X18847Y-12343D02*
D03*
X19253Y-12368D02*
D03*
X18339Y-12735D02*
D03*
X18313Y-12825D02*
D03*
X11887Y-12724D02*
D03*
X11760Y-12444D02*
D03*
X10947Y-12368D02*
D03*
X10338Y-13003D02*
D03*
X10748Y-12550D02*
D03*
X5461Y-12546D02*
D03*
X5440Y-12089D02*
D03*
X3581Y-12876D02*
D03*
X4165Y-12343D02*
D03*
X11303Y-7898D02*
D03*
X18415Y-5637D02*
D03*
X12446Y-6247D02*
D03*
X12428Y-6696D02*
D03*
X10033Y-3351D02*
D03*
X9982Y-3605D02*
D03*
X10490Y-4519D02*
D03*
X10338Y-4189D02*
D03*
X17297Y-1471D02*
D03*
X12573Y-1649D02*
D03*
X12547Y-1751D02*
D03*
X12099Y-1133D02*
D03*
X12420Y-1116D02*
D03*
X19177Y-9777D02*
D03*
X15291Y-18247D02*
D03*
X9027Y-18464D02*
D03*
X17907Y-18642D02*
D03*
X4699Y-1129D02*
D03*
X3759Y-3402D02*
D03*
X3607Y-3681D02*
D03*
X3708Y-3859D02*
D03*
X3530Y-6120D02*
D03*
X4079Y-8584D02*
D03*
X3530Y-7847D02*
D03*
X4267Y-9066D02*
D03*
X4597Y-12495D02*
D03*
X4775Y-12673D02*
D03*
X4303Y-13796D02*
D03*
X4300Y-15594D02*
D03*
X3657Y-17499D02*
D03*
X10934Y-13221D02*
D03*
X10719Y-10793D02*
D03*
X10828Y-10575D02*
D03*
X11933Y-10836D02*
D03*
X10719Y-8355D02*
D03*
X10973Y-6069D02*
D03*
X11303Y-3854D02*
D03*
X12040Y-3867D02*
D03*
X18206Y-3707D02*
D03*
X17246Y-6348D02*
D03*
X18328Y-8279D02*
D03*
X19405Y-10590D02*
D03*
X19329Y-12749D02*
D03*
X18344Y-15088D02*
D03*
X19583Y-15568D02*
D03*
X18262Y-17372D02*
D03*
X19304D02*
D03*
X4470Y-5180D02*
D03*
X19177Y-557D02*
D03*
X20269Y-1040D02*
D03*
X10490Y-8152D02*
D03*
X10973Y-15077D02*
D03*
X12357Y-5312D02*
D03*
X18745Y-989D02*
D03*
X17297Y-1032D02*
D03*
X18326Y-1294D02*
D03*
X18110Y-735D02*
D03*
X18821Y-1268D02*
D03*
X18872Y-3326D02*
D03*
X19278Y-3732D02*
D03*
X18821Y-5612D02*
D03*
X19278Y-10082D02*
D03*
X11883Y-14878D02*
D03*
X11536Y-16262D02*
D03*
X3756Y-8205D02*
D03*
X5181Y-7440D02*
D03*
X19964Y-3732D02*
D03*
X11862Y-17423D02*
D03*
X4673Y-12901D02*
D03*
X4300Y-10976D02*
D03*
X4699Y-10260D02*
D03*
X4597Y-9066D02*
D03*
X4775Y-8202D02*
D03*
X3660Y-15331D02*
D03*
X4165Y-3284D02*
D03*
Y-9650D02*
D03*
X11709Y-16584D02*
D03*
X3683Y-10692D02*
D03*
X19355Y-8342D02*
D03*
X18872Y-10082D02*
D03*
X19278Y-7796D02*
D03*
X18847Y-7745D02*
D03*
X19202Y-16508D02*
D03*
X12024Y-2740D02*
D03*
X10693Y-3834D02*
D03*
X4595Y-1383D02*
D03*
X11986Y-10310D02*
D03*
X18923Y-8421D02*
D03*
X18085Y-7771D02*
D03*
X18110Y-10285D02*
D03*
X17805Y-10895D02*
D03*
X11735Y-9709D02*
D03*
X10947Y-10082D02*
D03*
X18085Y-3148D02*
D03*
X11912Y-8482D02*
D03*
X3698Y-13003D02*
D03*
X3735Y-10512D02*
D03*
X3525Y-10690D02*
D03*
X7518Y-17219D02*
D03*
X20127Y-3915D02*
D03*
X19710Y-6272D02*
D03*
X17792Y-16775D02*
D03*
X19177Y-11880D02*
D03*
X4148Y-17842D02*
D03*
X10922Y-3411D02*
D03*
X3734Y-15060D02*
D03*
X11653Y-14083D02*
D03*
X19253Y-16986D02*
D03*
X11293Y-10920D02*
D03*
X19358Y-3643D02*
D03*
X7747Y-18413D02*
D03*
X20040Y-3851D02*
D03*
Y-5119D02*
D03*
X19223Y-16605D02*
D03*
X19151Y-14273D02*
D03*
X19159Y-11992D02*
D03*
X4496Y-16559D02*
D03*
Y-14298D02*
D03*
X11567Y-18464D02*
D03*
X11841Y-13004D02*
D03*
X10995Y-17486D02*
D03*
X10043Y-18464D02*
D03*
X11747Y-11692D02*
D03*
X13345Y-18464D02*
D03*
X10805D02*
D03*
X11328Y-7720D02*
D03*
X13091Y-18464D02*
D03*
X18212Y-14984D02*
D03*
X17368Y-14946D02*
D03*
X18067Y-14832D02*
D03*
X19103Y-18007D02*
D03*
X12245Y-2434D02*
D03*
X11938Y-7595D02*
D03*
X20127Y-7692D02*
D03*
X16434Y-5891D02*
D03*
X18415Y-16542D02*
D03*
X12075Y-18464D02*
D03*
X14107D02*
D03*
X4825Y-6220D02*
D03*
X5105Y-6221D02*
D03*
X4115Y-7801D02*
D03*
X18440Y-3643D02*
D03*
X4079Y-6309D02*
D03*
X18285Y-14438D02*
D03*
X18735Y-6584D02*
D03*
X12837Y-18464D02*
D03*
X18255Y-6478D02*
D03*
X19258Y-3008D02*
D03*
X18364Y-5962D02*
D03*
X11823Y-5510D02*
D03*
X11841Y-5734D02*
D03*
X10820Y-14823D02*
D03*
X9819Y-18378D02*
D03*
X10541Y-18474D02*
D03*
X11870Y-5947D02*
D03*
X19159Y-5111D02*
D03*
X17297Y-811D02*
D03*
X4579Y-12018D02*
D03*
X4521Y-7466D02*
D03*
X4470Y-2919D02*
D03*
X5486Y-1573D02*
D03*
X12700Y-1979D02*
D03*
X12674Y-1014D02*
D03*
X12700Y-1522D02*
D03*
X11813Y-9877D02*
D03*
X11735Y-7501D02*
D03*
X19465Y-17296D02*
D03*
X19304Y-14832D02*
D03*
Y-12571D02*
D03*
X18847Y-12815D02*
D03*
X17272Y-12978D02*
D03*
X18110Y-12317D02*
D03*
X19291Y-10247D02*
D03*
X18915Y-10458D02*
D03*
X18339Y-10628D02*
D03*
X18847Y-7961D02*
D03*
X17888Y-8012D02*
D03*
X16764Y-7618D02*
D03*
X18933Y-6202D02*
D03*
X18941Y-1395D02*
D03*
X10973Y-1370D02*
D03*
X10922Y-1268D02*
D03*
X11356Y-1294D02*
D03*
X11845Y-3411D02*
D03*
X11938Y-3326D02*
D03*
X10719Y-5688D02*
D03*
X11963Y-8253D02*
D03*
X10945Y-8274D02*
D03*
X11125Y-15855D02*
D03*
X10887Y-14823D02*
D03*
X11887Y-17143D02*
D03*
X10744Y-17194D02*
D03*
X4287Y-17397D02*
D03*
X4800Y-17016D02*
D03*
X4699Y-15619D02*
D03*
X4597Y-14933D02*
D03*
X4775Y-15010D02*
D03*
X3890Y-15539D02*
D03*
X3480Y-12800D02*
D03*
X4724Y-10082D02*
D03*
X4089Y-10844D02*
D03*
X4648Y-8075D02*
D03*
X4673Y-5816D02*
D03*
X3688Y-5947D02*
D03*
X3607Y-5815D02*
D03*
X4715Y-3665D02*
D03*
X4656Y-3437D02*
D03*
X4877Y-3427D02*
D03*
X3708Y-1522D02*
D03*
X3695Y-1129D02*
D03*
X3607Y-228D02*
D03*
X19278Y-10082D02*
D03*
X18796Y-10107D02*
D03*
X11328Y-14806D02*
D03*
X4165Y-1090D02*
D03*
X11328Y-5434D02*
D03*
Y-3376D02*
D03*
X10947Y-659D02*
D03*
X11328Y-1040D02*
D03*
X4127Y-16978D02*
D03*
X4191Y-16457D02*
D03*
Y-14696D02*
D03*
Y-10031D02*
D03*
Y-14197D02*
D03*
X8001Y-18413D02*
D03*
X8265Y-18464D02*
D03*
X8519D02*
D03*
X8773D02*
D03*
X9245D02*
D03*
X9535D02*
D03*
X10297D02*
D03*
X11100D02*
D03*
X11313D02*
D03*
X11821D02*
D03*
X12329D02*
D03*
X12583D02*
D03*
X13868Y-18489D02*
D03*
X14705Y-19152D02*
D03*
X15062Y-735D02*
D03*
X14839Y-303D02*
D03*
X3522Y-1294D02*
D03*
X19272Y-1020D02*
D03*
X19249Y-1188D02*
D03*
X19532Y-2233D02*
D03*
X19482Y-2411D02*
D03*
X4140Y-5535D02*
D03*
X7721Y-836D02*
D03*
X19697Y-5828D02*
D03*
X17780Y-5688D02*
D03*
X10807Y-5942D02*
D03*
X4115Y-7390D02*
D03*
X4826Y-7745D02*
D03*
X18059Y-8304D02*
D03*
X17297Y-8435D02*
D03*
X19304Y-7948D02*
D03*
D17*
X18085Y-6069D02*
D03*
X11836Y-10107D02*
D03*
X10981Y-1484D02*
D03*
X19269Y-1344D02*
D03*
X12090Y-8583D02*
D03*
M02*
