%FSLAX42Y42*%
%MOMM*%
G71*
G01*
G75*
G04 Layer_Color=8388736*
%ADD10R,1.85X0.60*%
%ADD11C,0.30*%
G04:AMPARAMS|DCode=12|XSize=2mm|YSize=1.52mm|CornerRadius=0.61mm|HoleSize=0mm|Usage=FLASHONLY|Rotation=90.000|XOffset=0mm|YOffset=0mm|HoleType=Round|Shape=RoundedRectangle|*
%AMROUNDEDRECTD12*
21,1,2.00,0.30,0,0,90.0*
21,1,0.78,1.52,0,0,90.0*
1,1,1.22,0.15,0.39*
1,1,1.22,0.15,-0.39*
1,1,1.22,-0.15,-0.39*
1,1,1.22,-0.15,0.39*
%
%ADD12ROUNDEDRECTD12*%
%ADD13C,3.00*%
%ADD14R,1.30X1.30*%
%ADD15C,1.30*%
%ADD16C,0.60*%
%ADD17C,0.70*%
%ADD18R,1.40X0.90*%
%ADD19C,0.60*%
%ADD20C,0.25*%
%ADD21C,0.25*%
%ADD22C,0.20*%
%ADD23R,1.85X0.60*%
G04:AMPARAMS|DCode=24|XSize=2mm|YSize=1.53mm|CornerRadius=0.61mm|HoleSize=0mm|Usage=FLASHONLY|Rotation=90.000|XOffset=0mm|YOffset=0mm|HoleType=Round|Shape=RoundedRectangle|*
%AMROUNDEDRECTD24*
21,1,2.00,0.30,0,0,90.0*
21,1,0.78,1.53,0,0,90.0*
1,1,1.22,0.15,0.39*
1,1,1.22,0.15,-0.39*
1,1,1.22,-0.15,-0.39*
1,1,1.22,-0.15,0.39*
%
%ADD24ROUNDEDRECTD24*%
%ADD25C,3.00*%
%ADD26R,1.30X1.30*%
%ADD27C,1.30*%
%ADD28C,0.60*%
%ADD29C,0.70*%
D23*
X4441Y-1637D02*
D03*
Y-1510D02*
D03*
Y-1383D02*
D03*
Y-1256D02*
D03*
Y-1129D02*
D03*
Y-1002D02*
D03*
Y-875D02*
D03*
Y-748D02*
D03*
X3941Y-1637D02*
D03*
Y-1510D02*
D03*
Y-1383D02*
D03*
Y-1256D02*
D03*
Y-1129D02*
D03*
Y-1002D02*
D03*
Y-875D02*
D03*
Y-748D02*
D03*
X11654Y-13048D02*
D03*
Y-12921D02*
D03*
Y-12794D02*
D03*
Y-12667D02*
D03*
Y-12540D02*
D03*
Y-12413D02*
D03*
Y-12286D02*
D03*
Y-12159D02*
D03*
X11154Y-13048D02*
D03*
Y-12921D02*
D03*
Y-12794D02*
D03*
Y-12667D02*
D03*
Y-12540D02*
D03*
Y-12413D02*
D03*
Y-12286D02*
D03*
Y-12159D02*
D03*
X4441Y-6201D02*
D03*
Y-6074D02*
D03*
Y-5947D02*
D03*
Y-5820D02*
D03*
Y-5693D02*
D03*
Y-5566D02*
D03*
Y-5439D02*
D03*
Y-5312D02*
D03*
X3941Y-6201D02*
D03*
Y-6074D02*
D03*
Y-5947D02*
D03*
Y-5820D02*
D03*
Y-5693D02*
D03*
Y-5566D02*
D03*
Y-5439D02*
D03*
Y-5312D02*
D03*
X4441Y-8484D02*
D03*
Y-8357D02*
D03*
Y-8230D02*
D03*
Y-8103D02*
D03*
Y-7976D02*
D03*
Y-7849D02*
D03*
Y-7722D02*
D03*
Y-7595D02*
D03*
X3941Y-8484D02*
D03*
Y-8357D02*
D03*
Y-8230D02*
D03*
Y-8103D02*
D03*
Y-7976D02*
D03*
Y-7849D02*
D03*
Y-7722D02*
D03*
Y-7595D02*
D03*
X4441Y-10766D02*
D03*
Y-10639D02*
D03*
Y-10512D02*
D03*
Y-10385D02*
D03*
Y-10258D02*
D03*
Y-10131D02*
D03*
Y-10004D02*
D03*
Y-9877D02*
D03*
X3941Y-10766D02*
D03*
Y-10639D02*
D03*
Y-10512D02*
D03*
Y-10385D02*
D03*
Y-10258D02*
D03*
Y-10131D02*
D03*
Y-10004D02*
D03*
Y-9877D02*
D03*
X4441Y-13048D02*
D03*
Y-12921D02*
D03*
Y-12794D02*
D03*
Y-12667D02*
D03*
Y-12540D02*
D03*
Y-12413D02*
D03*
Y-12286D02*
D03*
Y-12159D02*
D03*
X3941Y-13048D02*
D03*
Y-12921D02*
D03*
Y-12794D02*
D03*
Y-12667D02*
D03*
Y-12540D02*
D03*
Y-12413D02*
D03*
Y-12286D02*
D03*
Y-12159D02*
D03*
X4441Y-15331D02*
D03*
Y-15204D02*
D03*
Y-15077D02*
D03*
Y-14950D02*
D03*
Y-14823D02*
D03*
Y-14696D02*
D03*
Y-14569D02*
D03*
Y-14442D02*
D03*
X3941Y-15331D02*
D03*
Y-15204D02*
D03*
Y-15077D02*
D03*
Y-14950D02*
D03*
Y-14823D02*
D03*
Y-14696D02*
D03*
Y-14569D02*
D03*
Y-14442D02*
D03*
X4441Y-17613D02*
D03*
Y-17486D02*
D03*
Y-17359D02*
D03*
Y-17232D02*
D03*
Y-17105D02*
D03*
Y-16978D02*
D03*
Y-16851D02*
D03*
Y-16724D02*
D03*
X3941Y-17613D02*
D03*
Y-17486D02*
D03*
Y-17359D02*
D03*
Y-17232D02*
D03*
Y-17105D02*
D03*
Y-16978D02*
D03*
Y-16851D02*
D03*
Y-16724D02*
D03*
X11654Y-17613D02*
D03*
Y-17486D02*
D03*
Y-17359D02*
D03*
Y-17232D02*
D03*
Y-17105D02*
D03*
Y-16978D02*
D03*
Y-16851D02*
D03*
Y-16724D02*
D03*
X11154Y-17613D02*
D03*
Y-17486D02*
D03*
Y-17359D02*
D03*
Y-17232D02*
D03*
Y-17105D02*
D03*
Y-16978D02*
D03*
Y-16851D02*
D03*
Y-16724D02*
D03*
X11654Y-15331D02*
D03*
Y-15204D02*
D03*
Y-15077D02*
D03*
Y-14950D02*
D03*
Y-14823D02*
D03*
Y-14696D02*
D03*
Y-14569D02*
D03*
Y-14442D02*
D03*
X11154Y-15331D02*
D03*
Y-15204D02*
D03*
Y-15077D02*
D03*
Y-14950D02*
D03*
Y-14823D02*
D03*
Y-14696D02*
D03*
Y-14569D02*
D03*
Y-14442D02*
D03*
X11654Y-10766D02*
D03*
Y-10639D02*
D03*
Y-10512D02*
D03*
Y-10385D02*
D03*
Y-10258D02*
D03*
Y-10131D02*
D03*
Y-10004D02*
D03*
Y-9877D02*
D03*
X11154Y-10766D02*
D03*
Y-10639D02*
D03*
Y-10512D02*
D03*
Y-10385D02*
D03*
Y-10258D02*
D03*
Y-10131D02*
D03*
Y-10004D02*
D03*
Y-9877D02*
D03*
X11654Y-8484D02*
D03*
Y-8357D02*
D03*
Y-8230D02*
D03*
Y-8103D02*
D03*
Y-7976D02*
D03*
Y-7849D02*
D03*
Y-7722D02*
D03*
Y-7595D02*
D03*
X11154Y-8484D02*
D03*
Y-8357D02*
D03*
Y-8230D02*
D03*
Y-8103D02*
D03*
Y-7976D02*
D03*
Y-7849D02*
D03*
Y-7722D02*
D03*
Y-7595D02*
D03*
X11654Y-6201D02*
D03*
Y-6074D02*
D03*
Y-5947D02*
D03*
Y-5820D02*
D03*
Y-5693D02*
D03*
Y-5566D02*
D03*
Y-5439D02*
D03*
Y-5312D02*
D03*
X11154Y-6201D02*
D03*
Y-6074D02*
D03*
Y-5947D02*
D03*
Y-5820D02*
D03*
Y-5693D02*
D03*
Y-5566D02*
D03*
Y-5439D02*
D03*
Y-5312D02*
D03*
X11654Y-3919D02*
D03*
Y-3792D02*
D03*
Y-3665D02*
D03*
Y-3538D02*
D03*
Y-3411D02*
D03*
Y-3284D02*
D03*
Y-3157D02*
D03*
Y-3030D02*
D03*
X11154Y-3919D02*
D03*
Y-3792D02*
D03*
Y-3665D02*
D03*
Y-3538D02*
D03*
Y-3411D02*
D03*
Y-3284D02*
D03*
Y-3157D02*
D03*
Y-3030D02*
D03*
X11654Y-1611D02*
D03*
Y-1484D02*
D03*
Y-1357D02*
D03*
Y-1230D02*
D03*
Y-1103D02*
D03*
Y-976D02*
D03*
Y-849D02*
D03*
Y-722D02*
D03*
X11154Y-1611D02*
D03*
Y-1484D02*
D03*
Y-1357D02*
D03*
Y-1230D02*
D03*
Y-1103D02*
D03*
Y-976D02*
D03*
Y-849D02*
D03*
Y-722D02*
D03*
X19097Y-1611D02*
D03*
Y-1484D02*
D03*
Y-1357D02*
D03*
Y-1230D02*
D03*
Y-1103D02*
D03*
Y-976D02*
D03*
Y-849D02*
D03*
Y-722D02*
D03*
X18597Y-1611D02*
D03*
Y-1484D02*
D03*
Y-1357D02*
D03*
Y-1230D02*
D03*
Y-1103D02*
D03*
Y-976D02*
D03*
Y-849D02*
D03*
Y-722D02*
D03*
X19097Y-3897D02*
D03*
Y-3770D02*
D03*
Y-3643D02*
D03*
Y-3516D02*
D03*
Y-3389D02*
D03*
Y-3262D02*
D03*
Y-3135D02*
D03*
Y-3008D02*
D03*
X18597Y-3897D02*
D03*
Y-3770D02*
D03*
Y-3643D02*
D03*
Y-3516D02*
D03*
Y-3389D02*
D03*
Y-3262D02*
D03*
Y-3135D02*
D03*
Y-3008D02*
D03*
X19097Y-6183D02*
D03*
Y-6056D02*
D03*
Y-5929D02*
D03*
Y-5802D02*
D03*
Y-5675D02*
D03*
Y-5548D02*
D03*
Y-5421D02*
D03*
Y-5294D02*
D03*
X18597Y-6183D02*
D03*
Y-6056D02*
D03*
Y-5929D02*
D03*
Y-5802D02*
D03*
Y-5675D02*
D03*
Y-5548D02*
D03*
Y-5421D02*
D03*
Y-5294D02*
D03*
X19097Y-8469D02*
D03*
Y-8342D02*
D03*
Y-8215D02*
D03*
Y-8088D02*
D03*
Y-7961D02*
D03*
Y-7834D02*
D03*
Y-7707D02*
D03*
Y-7580D02*
D03*
X18597Y-8469D02*
D03*
Y-8342D02*
D03*
Y-8215D02*
D03*
Y-8088D02*
D03*
Y-7961D02*
D03*
Y-7834D02*
D03*
Y-7707D02*
D03*
Y-7580D02*
D03*
X19097Y-10755D02*
D03*
Y-10628D02*
D03*
Y-10501D02*
D03*
Y-10374D02*
D03*
Y-10247D02*
D03*
Y-10120D02*
D03*
Y-9993D02*
D03*
Y-9866D02*
D03*
X18597Y-10755D02*
D03*
Y-10628D02*
D03*
Y-10501D02*
D03*
Y-10374D02*
D03*
Y-10247D02*
D03*
Y-10120D02*
D03*
Y-9993D02*
D03*
Y-9866D02*
D03*
X19097Y-13041D02*
D03*
Y-12914D02*
D03*
Y-12787D02*
D03*
Y-12660D02*
D03*
Y-12533D02*
D03*
Y-12406D02*
D03*
Y-12279D02*
D03*
Y-12152D02*
D03*
X18597Y-13041D02*
D03*
Y-12914D02*
D03*
Y-12787D02*
D03*
Y-12660D02*
D03*
Y-12533D02*
D03*
Y-12406D02*
D03*
Y-12279D02*
D03*
Y-12152D02*
D03*
X19097Y-15327D02*
D03*
Y-15200D02*
D03*
Y-15073D02*
D03*
Y-14946D02*
D03*
Y-14819D02*
D03*
Y-14692D02*
D03*
Y-14565D02*
D03*
Y-14438D02*
D03*
X18597Y-15327D02*
D03*
Y-15200D02*
D03*
Y-15073D02*
D03*
Y-14946D02*
D03*
Y-14819D02*
D03*
Y-14692D02*
D03*
Y-14565D02*
D03*
Y-14438D02*
D03*
X18597Y-16724D02*
D03*
Y-16851D02*
D03*
Y-16978D02*
D03*
Y-17105D02*
D03*
Y-17232D02*
D03*
Y-17359D02*
D03*
Y-17486D02*
D03*
Y-17613D02*
D03*
X19097Y-16724D02*
D03*
Y-16851D02*
D03*
Y-16978D02*
D03*
Y-17105D02*
D03*
Y-17232D02*
D03*
Y-17359D02*
D03*
Y-17486D02*
D03*
Y-17613D02*
D03*
X3941Y-3030D02*
D03*
Y-3157D02*
D03*
Y-3284D02*
D03*
Y-3411D02*
D03*
Y-3538D02*
D03*
Y-3665D02*
D03*
Y-3792D02*
D03*
Y-3919D02*
D03*
X4441Y-3030D02*
D03*
Y-3157D02*
D03*
Y-3284D02*
D03*
Y-3411D02*
D03*
Y-3538D02*
D03*
Y-3665D02*
D03*
Y-3792D02*
D03*
Y-3919D02*
D03*
D24*
X22087Y-1941D02*
D03*
X22091Y-1942D02*
D03*
X22087Y-1941D02*
D03*
X22091Y-1436D02*
D03*
X22087Y-928D02*
D03*
Y-420D02*
D03*
X21306Y-1941D02*
D03*
X21310Y-1942D02*
D03*
X21306Y-1941D02*
D03*
X21310Y-1436D02*
D03*
X21306Y-928D02*
D03*
Y-420D02*
D03*
X20538Y-1941D02*
D03*
X20542Y-1942D02*
D03*
X20538Y-1941D02*
D03*
X20542Y-1436D02*
D03*
X20538Y-928D02*
D03*
Y-420D02*
D03*
X19757Y-1941D02*
D03*
X19761Y-1942D02*
D03*
X19757Y-1941D02*
D03*
X19761Y-1436D02*
D03*
X19757Y-928D02*
D03*
Y-420D02*
D03*
X17883Y-1941D02*
D03*
X17888Y-1942D02*
D03*
X17883Y-1941D02*
D03*
X17888Y-1436D02*
D03*
X17883Y-928D02*
D03*
Y-420D02*
D03*
X17102Y-1941D02*
D03*
X17107Y-1942D02*
D03*
X17102Y-1941D02*
D03*
X17107Y-1436D02*
D03*
X17102Y-928D02*
D03*
Y-420D02*
D03*
X16334Y-1941D02*
D03*
X16338Y-1942D02*
D03*
X16334Y-1941D02*
D03*
X16338Y-1436D02*
D03*
X16334Y-928D02*
D03*
Y-420D02*
D03*
X15519Y-1941D02*
D03*
X15523Y-1942D02*
D03*
X15519Y-1941D02*
D03*
X15523Y-1436D02*
D03*
X15519Y-928D02*
D03*
Y-420D02*
D03*
X14402Y-1941D02*
D03*
X14406Y-1942D02*
D03*
X14402Y-1941D02*
D03*
X14406Y-1436D02*
D03*
X14402Y-928D02*
D03*
Y-420D02*
D03*
X13653Y-1941D02*
D03*
X13657Y-1942D02*
D03*
X13653Y-1941D02*
D03*
X13657Y-1436D02*
D03*
X13653Y-928D02*
D03*
Y-420D02*
D03*
X12916Y-1941D02*
D03*
X12920Y-1942D02*
D03*
X12916Y-1941D02*
D03*
X12920Y-1436D02*
D03*
X12916Y-928D02*
D03*
Y-420D02*
D03*
X12224Y-1941D02*
D03*
X12228Y-1942D02*
D03*
X12224Y-1941D02*
D03*
X12228Y-1436D02*
D03*
X12224Y-928D02*
D03*
Y-420D02*
D03*
X10534Y-1941D02*
D03*
X10538Y-1942D02*
D03*
X10534Y-1941D02*
D03*
X10538Y-1436D02*
D03*
X10534Y-928D02*
D03*
Y-420D02*
D03*
X9818Y-1941D02*
D03*
X9822Y-1942D02*
D03*
X9818Y-1941D02*
D03*
X9822Y-1436D02*
D03*
X9818Y-928D02*
D03*
Y-420D02*
D03*
X9042Y-1941D02*
D03*
X9046Y-1942D02*
D03*
X9042Y-1941D02*
D03*
X9046Y-1436D02*
D03*
X9042Y-928D02*
D03*
Y-420D02*
D03*
X8282Y-1941D02*
D03*
X8286Y-1942D02*
D03*
X8282Y-1941D02*
D03*
X8286Y-1436D02*
D03*
X8282Y-928D02*
D03*
Y-420D02*
D03*
X7188Y-1941D02*
D03*
X7192Y-1942D02*
D03*
X7188Y-1941D02*
D03*
X7192Y-1436D02*
D03*
X7188Y-928D02*
D03*
Y-420D02*
D03*
X6439Y-1941D02*
D03*
X6443Y-1942D02*
D03*
X6439Y-1941D02*
D03*
X6443Y-1436D02*
D03*
X6439Y-928D02*
D03*
Y-420D02*
D03*
X5702Y-1941D02*
D03*
X5706Y-1942D02*
D03*
X5702Y-1941D02*
D03*
X5706Y-1436D02*
D03*
X5702Y-928D02*
D03*
Y-420D02*
D03*
X5010Y-1941D02*
D03*
X5014Y-1942D02*
D03*
X5010Y-1941D02*
D03*
X5014Y-1436D02*
D03*
X5010Y-928D02*
D03*
Y-420D02*
D03*
X3321Y-1941D02*
D03*
X3325Y-1942D02*
D03*
X3321Y-1941D02*
D03*
X3325Y-1436D02*
D03*
X3321Y-928D02*
D03*
Y-420D02*
D03*
X2629Y-1941D02*
D03*
X2633Y-1942D02*
D03*
X2629Y-1941D02*
D03*
X2633Y-1436D02*
D03*
X2629Y-928D02*
D03*
Y-420D02*
D03*
X1849Y-1941D02*
D03*
X1853Y-1942D02*
D03*
X1849Y-1941D02*
D03*
X1853Y-1436D02*
D03*
X1849Y-928D02*
D03*
Y-420D02*
D03*
X1068Y-1941D02*
D03*
X1072Y-1942D02*
D03*
X1068Y-1941D02*
D03*
X1072Y-1436D02*
D03*
X1068Y-928D02*
D03*
Y-420D02*
D03*
X9818Y-18096D02*
D03*
X9822Y-18096D02*
D03*
X9818Y-18096D02*
D03*
X9822Y-17590D02*
D03*
X9818Y-17082D02*
D03*
Y-16574D02*
D03*
X1849Y-13480D02*
D03*
X1853Y-13481D02*
D03*
X1849Y-13480D02*
D03*
X1853Y-12975D02*
D03*
X1849Y-12467D02*
D03*
Y-11959D02*
D03*
X1067Y-4253D02*
D03*
X1071Y-4253D02*
D03*
X1067Y-4253D02*
D03*
X1071Y-3747D02*
D03*
X1067Y-3239D02*
D03*
Y-2731D02*
D03*
X1854Y-4253D02*
D03*
X1858Y-4253D02*
D03*
X1854Y-4253D02*
D03*
X1858Y-3747D02*
D03*
X1854Y-3239D02*
D03*
Y-2731D02*
D03*
X5702Y-4249D02*
D03*
X5706Y-4250D02*
D03*
X5702Y-4249D02*
D03*
X5706Y-3744D02*
D03*
X5702Y-3236D02*
D03*
Y-2728D02*
D03*
X5010Y-4249D02*
D03*
X5014Y-4250D02*
D03*
X5010Y-4249D02*
D03*
X5014Y-3744D02*
D03*
X5010Y-3236D02*
D03*
Y-2728D02*
D03*
X7188Y-6557D02*
D03*
X7192Y-6557D02*
D03*
X7188Y-6557D02*
D03*
X7192Y-6051D02*
D03*
X7188Y-5543D02*
D03*
Y-5035D02*
D03*
X3321Y-6557D02*
D03*
X3325Y-6557D02*
D03*
X3321Y-6557D02*
D03*
X3325Y-6051D02*
D03*
X3321Y-5543D02*
D03*
Y-5035D02*
D03*
X5702Y-6557D02*
D03*
X5706Y-6557D02*
D03*
X5702Y-6557D02*
D03*
X5706Y-6051D02*
D03*
X5702Y-5543D02*
D03*
Y-5035D02*
D03*
X5010Y-6557D02*
D03*
X5014Y-6557D02*
D03*
X5010Y-6557D02*
D03*
X5014Y-6051D02*
D03*
X5010Y-5543D02*
D03*
Y-5035D02*
D03*
X3321Y-4249D02*
D03*
X3325Y-4250D02*
D03*
X3321Y-4249D02*
D03*
X3325Y-3744D02*
D03*
X3321Y-3236D02*
D03*
Y-2728D02*
D03*
X2629Y-4249D02*
D03*
X2633Y-4250D02*
D03*
X2629Y-4249D02*
D03*
X2633Y-3744D02*
D03*
X2629Y-3236D02*
D03*
Y-2728D02*
D03*
X6477Y-4253D02*
D03*
X6481Y-4253D02*
D03*
X6477Y-4253D02*
D03*
X6481Y-3747D02*
D03*
X6477Y-3239D02*
D03*
Y-2731D02*
D03*
X7213Y-4253D02*
D03*
X7217Y-4253D02*
D03*
X7213Y-4253D02*
D03*
X7217Y-3747D02*
D03*
X7213Y-3239D02*
D03*
Y-2731D02*
D03*
X2629Y-6557D02*
D03*
X2633Y-6557D02*
D03*
X2629Y-6557D02*
D03*
X2633Y-6051D02*
D03*
X2629Y-5543D02*
D03*
Y-5035D02*
D03*
X1849Y-6557D02*
D03*
X1853Y-6557D02*
D03*
X1849Y-6557D02*
D03*
X1853Y-6051D02*
D03*
X1849Y-5543D02*
D03*
Y-5035D02*
D03*
X1068Y-6557D02*
D03*
X1072Y-6557D02*
D03*
X1068Y-6557D02*
D03*
X1072Y-6051D02*
D03*
X1068Y-5543D02*
D03*
Y-5035D02*
D03*
X6439Y-6557D02*
D03*
X6443Y-6557D02*
D03*
X6439Y-6557D02*
D03*
X6443Y-6051D02*
D03*
X6439Y-5543D02*
D03*
Y-5035D02*
D03*
X6439Y-8865D02*
D03*
X6443Y-8865D02*
D03*
X6439Y-8865D02*
D03*
X6443Y-8359D02*
D03*
X6439Y-7851D02*
D03*
Y-7343D02*
D03*
X5702Y-8865D02*
D03*
X5706Y-8865D02*
D03*
X5702Y-8865D02*
D03*
X5706Y-8359D02*
D03*
X5702Y-7851D02*
D03*
Y-7343D02*
D03*
X5010Y-8865D02*
D03*
X5014Y-8865D02*
D03*
X5010Y-8865D02*
D03*
X5014Y-8359D02*
D03*
X5010Y-7851D02*
D03*
Y-7343D02*
D03*
X1849Y-8865D02*
D03*
X1853Y-8865D02*
D03*
X1849Y-8865D02*
D03*
X1853Y-8359D02*
D03*
X1849Y-7851D02*
D03*
Y-7343D02*
D03*
X3321Y-11172D02*
D03*
X3325Y-11173D02*
D03*
X3321Y-11172D02*
D03*
X3325Y-10667D02*
D03*
X3321Y-10159D02*
D03*
Y-9651D02*
D03*
X6439Y-11172D02*
D03*
X6443Y-11173D02*
D03*
X6439Y-11172D02*
D03*
X6443Y-10667D02*
D03*
X6439Y-10159D02*
D03*
Y-9651D02*
D03*
X5702Y-11172D02*
D03*
X5706Y-11173D02*
D03*
X5702Y-11172D02*
D03*
X5706Y-10667D02*
D03*
X5702Y-10159D02*
D03*
Y-9651D02*
D03*
X5010Y-11172D02*
D03*
X5014Y-11173D02*
D03*
X5010Y-11172D02*
D03*
X5014Y-10667D02*
D03*
X5010Y-10159D02*
D03*
Y-9651D02*
D03*
X3321Y-8865D02*
D03*
X3325Y-8865D02*
D03*
X3321Y-8865D02*
D03*
X3325Y-8359D02*
D03*
X3321Y-7851D02*
D03*
Y-7343D02*
D03*
X2629Y-8865D02*
D03*
X2633Y-8865D02*
D03*
X2629Y-8865D02*
D03*
X2633Y-8359D02*
D03*
X2629Y-7851D02*
D03*
Y-7343D02*
D03*
X7188Y-8865D02*
D03*
X7192Y-8865D02*
D03*
X7188Y-8865D02*
D03*
X7192Y-8359D02*
D03*
X7188Y-7851D02*
D03*
Y-7343D02*
D03*
X1068Y-8865D02*
D03*
X1072Y-8865D02*
D03*
X1068Y-8865D02*
D03*
X1072Y-8359D02*
D03*
X1068Y-7851D02*
D03*
Y-7343D02*
D03*
X2629Y-11172D02*
D03*
X2633Y-11173D02*
D03*
X2629Y-11172D02*
D03*
X2633Y-10667D02*
D03*
X2629Y-10159D02*
D03*
Y-9651D02*
D03*
X1849Y-11172D02*
D03*
X1853Y-11173D02*
D03*
X1849Y-11172D02*
D03*
X1853Y-10667D02*
D03*
X1849Y-10159D02*
D03*
Y-9651D02*
D03*
X1068Y-11172D02*
D03*
X1072Y-11173D02*
D03*
X1068Y-11172D02*
D03*
X1072Y-10667D02*
D03*
X1068Y-10159D02*
D03*
Y-9651D02*
D03*
X7188Y-11172D02*
D03*
X7192Y-11173D02*
D03*
X7188Y-11172D02*
D03*
X7192Y-10667D02*
D03*
X7188Y-10159D02*
D03*
Y-9651D02*
D03*
X3321Y-13480D02*
D03*
X3325Y-13481D02*
D03*
X3321Y-13480D02*
D03*
X3325Y-12975D02*
D03*
X3321Y-12467D02*
D03*
Y-11959D02*
D03*
X6439Y-13480D02*
D03*
X6443Y-13481D02*
D03*
X6439Y-13480D02*
D03*
X6443Y-12975D02*
D03*
X6439Y-12467D02*
D03*
Y-11959D02*
D03*
X5702Y-13480D02*
D03*
X5706Y-13481D02*
D03*
X5702Y-13480D02*
D03*
X5706Y-12975D02*
D03*
X5702Y-12467D02*
D03*
Y-11959D02*
D03*
X5010Y-13480D02*
D03*
X5014Y-13481D02*
D03*
X5010Y-13480D02*
D03*
X5014Y-12975D02*
D03*
X5010Y-12467D02*
D03*
Y-11959D02*
D03*
X3321Y-15788D02*
D03*
X3325Y-15788D02*
D03*
X3321Y-15788D02*
D03*
X3325Y-15282D02*
D03*
X3321Y-14774D02*
D03*
Y-14266D02*
D03*
X6439Y-15788D02*
D03*
X6443Y-15788D02*
D03*
X6439Y-15788D02*
D03*
X6443Y-15282D02*
D03*
X6439Y-14774D02*
D03*
Y-14266D02*
D03*
X5702Y-15788D02*
D03*
X5706Y-15788D02*
D03*
X5702Y-15788D02*
D03*
X5706Y-15282D02*
D03*
X5702Y-14774D02*
D03*
Y-14266D02*
D03*
X5010Y-15788D02*
D03*
X5014Y-15788D02*
D03*
X5010Y-15788D02*
D03*
X5014Y-15282D02*
D03*
X5010Y-14774D02*
D03*
Y-14266D02*
D03*
X2629Y-13480D02*
D03*
X2633Y-13481D02*
D03*
X2629Y-13480D02*
D03*
X2633Y-12975D02*
D03*
X2629Y-12467D02*
D03*
Y-11959D02*
D03*
X1068Y-13480D02*
D03*
X1072Y-13481D02*
D03*
X1068Y-13480D02*
D03*
X1072Y-12975D02*
D03*
X1068Y-12467D02*
D03*
Y-11959D02*
D03*
X7188Y-13480D02*
D03*
X7192Y-13481D02*
D03*
X7188Y-13480D02*
D03*
X7192Y-12975D02*
D03*
X7188Y-12467D02*
D03*
Y-11959D02*
D03*
X2629Y-15788D02*
D03*
X2633Y-15788D02*
D03*
X2629Y-15788D02*
D03*
X2633Y-15282D02*
D03*
X2629Y-14774D02*
D03*
Y-14266D02*
D03*
X1849Y-15788D02*
D03*
X1853Y-15788D02*
D03*
X1849Y-15788D02*
D03*
X1853Y-15282D02*
D03*
X1849Y-14774D02*
D03*
Y-14266D02*
D03*
X1068Y-15788D02*
D03*
X1072Y-15788D02*
D03*
X1068Y-15788D02*
D03*
X1072Y-15282D02*
D03*
X1068Y-14774D02*
D03*
Y-14266D02*
D03*
X7188Y-15788D02*
D03*
X7192Y-15788D02*
D03*
X7188Y-15788D02*
D03*
X7192Y-15282D02*
D03*
X7188Y-14774D02*
D03*
Y-14266D02*
D03*
X3321Y-18096D02*
D03*
X3325Y-18096D02*
D03*
X3321Y-18096D02*
D03*
X3325Y-17590D02*
D03*
X3321Y-17082D02*
D03*
Y-16574D02*
D03*
X6439Y-18096D02*
D03*
X6443Y-18096D02*
D03*
X6439Y-18096D02*
D03*
X6443Y-17590D02*
D03*
X6439Y-17082D02*
D03*
Y-16574D02*
D03*
X5702Y-18096D02*
D03*
X5706Y-18096D02*
D03*
X5702Y-18096D02*
D03*
X5706Y-17590D02*
D03*
X5702Y-17082D02*
D03*
Y-16574D02*
D03*
X5010Y-18096D02*
D03*
X5014Y-18096D02*
D03*
X5010Y-18096D02*
D03*
X5014Y-17590D02*
D03*
X5010Y-17082D02*
D03*
Y-16574D02*
D03*
X2629Y-18096D02*
D03*
X2633Y-18096D02*
D03*
X2629Y-18096D02*
D03*
X2633Y-17590D02*
D03*
X2629Y-17082D02*
D03*
Y-16574D02*
D03*
X1849Y-18096D02*
D03*
X1853Y-18096D02*
D03*
X1849Y-18096D02*
D03*
X1853Y-17590D02*
D03*
X1849Y-17082D02*
D03*
Y-16574D02*
D03*
X1068Y-18096D02*
D03*
X1072Y-18096D02*
D03*
X1068Y-18096D02*
D03*
X1072Y-17590D02*
D03*
X1068Y-17082D02*
D03*
Y-16574D02*
D03*
X7188Y-18096D02*
D03*
X7192Y-18096D02*
D03*
X7188Y-18096D02*
D03*
X7192Y-17590D02*
D03*
X7188Y-17082D02*
D03*
Y-16574D02*
D03*
X9042Y-18096D02*
D03*
X9046Y-18096D02*
D03*
X9042Y-18096D02*
D03*
X9046Y-17590D02*
D03*
X9042Y-17082D02*
D03*
Y-16574D02*
D03*
X8282Y-18096D02*
D03*
X8286Y-18096D02*
D03*
X8282Y-18096D02*
D03*
X8286Y-17590D02*
D03*
X8282Y-17082D02*
D03*
Y-16574D02*
D03*
X12916Y-18096D02*
D03*
X12920Y-18096D02*
D03*
X12916Y-18096D02*
D03*
X12920Y-17590D02*
D03*
X12916Y-17082D02*
D03*
Y-16574D02*
D03*
X12224Y-18096D02*
D03*
X12228Y-18096D02*
D03*
X12224Y-18096D02*
D03*
X12228Y-17590D02*
D03*
X12224Y-17082D02*
D03*
Y-16574D02*
D03*
X14402Y-18096D02*
D03*
X14406Y-18096D02*
D03*
X14402Y-18096D02*
D03*
X14406Y-17590D02*
D03*
X14402Y-17082D02*
D03*
Y-16574D02*
D03*
X13653Y-18096D02*
D03*
X13657Y-18096D02*
D03*
X13653Y-18096D02*
D03*
X13657Y-17590D02*
D03*
X13653Y-17082D02*
D03*
Y-16574D02*
D03*
X9042Y-15788D02*
D03*
X9046Y-15788D02*
D03*
X9042Y-15788D02*
D03*
X9046Y-15282D02*
D03*
X9042Y-14774D02*
D03*
Y-14266D02*
D03*
X8282Y-15788D02*
D03*
X8286Y-15788D02*
D03*
X8282Y-15788D02*
D03*
X8286Y-15282D02*
D03*
X8282Y-14774D02*
D03*
Y-14266D02*
D03*
X12916Y-15788D02*
D03*
X12920Y-15788D02*
D03*
X12916Y-15788D02*
D03*
X12920Y-15282D02*
D03*
X12916Y-14774D02*
D03*
Y-14266D02*
D03*
X12224Y-15788D02*
D03*
X12228Y-15788D02*
D03*
X12224Y-15788D02*
D03*
X12228Y-15282D02*
D03*
X12224Y-14774D02*
D03*
Y-14266D02*
D03*
X10534Y-15788D02*
D03*
X10538Y-15788D02*
D03*
X10534Y-15788D02*
D03*
X10538Y-15282D02*
D03*
X10534Y-14774D02*
D03*
Y-14266D02*
D03*
X9818Y-15788D02*
D03*
X9822Y-15788D02*
D03*
X9818Y-15788D02*
D03*
X9822Y-15282D02*
D03*
X9818Y-14774D02*
D03*
Y-14266D02*
D03*
X14402Y-15788D02*
D03*
X14406Y-15788D02*
D03*
X14402Y-15788D02*
D03*
X14406Y-15282D02*
D03*
X14402Y-14774D02*
D03*
Y-14266D02*
D03*
X13653Y-15788D02*
D03*
X13657Y-15788D02*
D03*
X13653Y-15788D02*
D03*
X13657Y-15282D02*
D03*
X13653Y-14774D02*
D03*
Y-14266D02*
D03*
X9042Y-13480D02*
D03*
X9046Y-13481D02*
D03*
X9042Y-13480D02*
D03*
X9046Y-12975D02*
D03*
X9042Y-12467D02*
D03*
Y-11959D02*
D03*
X8282Y-13480D02*
D03*
X8286Y-13481D02*
D03*
X8282Y-13480D02*
D03*
X8286Y-12975D02*
D03*
X8282Y-12467D02*
D03*
Y-11959D02*
D03*
X12916Y-13480D02*
D03*
X12920Y-13481D02*
D03*
X12916Y-13480D02*
D03*
X12920Y-12975D02*
D03*
X12916Y-12467D02*
D03*
Y-11959D02*
D03*
X12224Y-13480D02*
D03*
X12228Y-13481D02*
D03*
X12224Y-13480D02*
D03*
X12228Y-12975D02*
D03*
X12224Y-12467D02*
D03*
Y-11959D02*
D03*
X10534Y-13480D02*
D03*
X10538Y-13481D02*
D03*
X10534Y-13480D02*
D03*
X10538Y-12975D02*
D03*
X10534Y-12467D02*
D03*
Y-11959D02*
D03*
X9818Y-13480D02*
D03*
X9822Y-13481D02*
D03*
X9818Y-13480D02*
D03*
X9822Y-12975D02*
D03*
X9818Y-12467D02*
D03*
Y-11959D02*
D03*
X14402Y-13480D02*
D03*
X14406Y-13481D02*
D03*
X14402Y-13480D02*
D03*
X14406Y-12975D02*
D03*
X14402Y-12467D02*
D03*
Y-11959D02*
D03*
X13653Y-13480D02*
D03*
X13657Y-13481D02*
D03*
X13653Y-13480D02*
D03*
X13657Y-12975D02*
D03*
X13653Y-12467D02*
D03*
Y-11959D02*
D03*
X9042Y-11172D02*
D03*
X9046Y-11173D02*
D03*
X9042Y-11172D02*
D03*
X9046Y-10667D02*
D03*
X9042Y-10159D02*
D03*
Y-9651D02*
D03*
X8282Y-11172D02*
D03*
X8286Y-11173D02*
D03*
X8282Y-11172D02*
D03*
X8286Y-10667D02*
D03*
X8282Y-10159D02*
D03*
Y-9651D02*
D03*
X12916Y-11172D02*
D03*
X12920Y-11173D02*
D03*
X12916Y-11172D02*
D03*
X12920Y-10667D02*
D03*
X12916Y-10159D02*
D03*
Y-9651D02*
D03*
X12224Y-11172D02*
D03*
X12228Y-11173D02*
D03*
X12224Y-11172D02*
D03*
X12228Y-10667D02*
D03*
X12224Y-10159D02*
D03*
Y-9651D02*
D03*
X14402Y-8865D02*
D03*
X14406Y-8865D02*
D03*
X14402Y-8865D02*
D03*
X14406Y-8359D02*
D03*
X14402Y-7851D02*
D03*
Y-7343D02*
D03*
X9042Y-8865D02*
D03*
X9046Y-8865D02*
D03*
X9042Y-8865D02*
D03*
X9046Y-8359D02*
D03*
X9042Y-7851D02*
D03*
Y-7343D02*
D03*
X8282Y-8865D02*
D03*
X8286Y-8865D02*
D03*
X8282Y-8865D02*
D03*
X8286Y-8359D02*
D03*
X8282Y-7851D02*
D03*
Y-7343D02*
D03*
X12224Y-8865D02*
D03*
X12228Y-8865D02*
D03*
X12224Y-8865D02*
D03*
X12228Y-8359D02*
D03*
X12224Y-7851D02*
D03*
Y-7343D02*
D03*
X10534Y-11172D02*
D03*
X10538Y-11173D02*
D03*
X10534Y-11172D02*
D03*
X10538Y-10667D02*
D03*
X10534Y-10159D02*
D03*
Y-9651D02*
D03*
X9818Y-11172D02*
D03*
X9822Y-11173D02*
D03*
X9818Y-11172D02*
D03*
X9822Y-10667D02*
D03*
X9818Y-10159D02*
D03*
Y-9651D02*
D03*
X14402Y-11172D02*
D03*
X14406Y-11173D02*
D03*
X14402Y-11172D02*
D03*
X14406Y-10667D02*
D03*
X14402Y-10159D02*
D03*
Y-9651D02*
D03*
X13653Y-11172D02*
D03*
X13657Y-11173D02*
D03*
X13653Y-11172D02*
D03*
X13657Y-10667D02*
D03*
X13653Y-10159D02*
D03*
Y-9651D02*
D03*
X10534Y-8865D02*
D03*
X10538Y-8865D02*
D03*
X10534Y-8865D02*
D03*
X10538Y-8359D02*
D03*
X10534Y-7851D02*
D03*
Y-7343D02*
D03*
X9818Y-8865D02*
D03*
X9822Y-8865D02*
D03*
X9818Y-8865D02*
D03*
X9822Y-8359D02*
D03*
X9818Y-7851D02*
D03*
Y-7343D02*
D03*
X13653Y-8865D02*
D03*
X13657Y-8865D02*
D03*
X13653Y-8865D02*
D03*
X13657Y-8359D02*
D03*
X13653Y-7851D02*
D03*
Y-7343D02*
D03*
X12916Y-8865D02*
D03*
X12920Y-8865D02*
D03*
X12916Y-8865D02*
D03*
X12920Y-8359D02*
D03*
X12916Y-7851D02*
D03*
Y-7343D02*
D03*
X9042Y-6557D02*
D03*
X9046Y-6557D02*
D03*
X9042Y-6557D02*
D03*
X9046Y-6051D02*
D03*
X9042Y-5543D02*
D03*
Y-5035D02*
D03*
X8282Y-6557D02*
D03*
X8286Y-6557D02*
D03*
X8282Y-6557D02*
D03*
X8286Y-6051D02*
D03*
X8282Y-5543D02*
D03*
Y-5035D02*
D03*
X12916Y-6602D02*
D03*
X12920Y-6602D02*
D03*
X12916Y-6602D02*
D03*
X12920Y-6096D02*
D03*
X12916Y-5588D02*
D03*
Y-5080D02*
D03*
X12224Y-6602D02*
D03*
X12228Y-6602D02*
D03*
X12224Y-6602D02*
D03*
X12228Y-6096D02*
D03*
X12224Y-5588D02*
D03*
Y-5080D02*
D03*
X9042Y-4249D02*
D03*
X9046Y-4250D02*
D03*
X9042Y-4249D02*
D03*
X9046Y-3744D02*
D03*
X9042Y-3236D02*
D03*
Y-2728D02*
D03*
X8282Y-4249D02*
D03*
X8286Y-4250D02*
D03*
X8282Y-4249D02*
D03*
X8286Y-3744D02*
D03*
X8282Y-3236D02*
D03*
Y-2728D02*
D03*
X12916Y-4214D02*
D03*
X12920Y-4214D02*
D03*
X12916Y-4214D02*
D03*
X12920Y-3708D02*
D03*
X12916Y-3200D02*
D03*
Y-2692D02*
D03*
X12224Y-4214D02*
D03*
X12228Y-4214D02*
D03*
X12224Y-4214D02*
D03*
X12228Y-3708D02*
D03*
X12224Y-3200D02*
D03*
Y-2692D02*
D03*
X10534Y-6557D02*
D03*
X10538Y-6557D02*
D03*
X10534Y-6557D02*
D03*
X10538Y-6051D02*
D03*
X10534Y-5543D02*
D03*
Y-5035D02*
D03*
X9818Y-6557D02*
D03*
X9822Y-6557D02*
D03*
X9818Y-6557D02*
D03*
X9822Y-6051D02*
D03*
X9818Y-5543D02*
D03*
Y-5035D02*
D03*
X14402Y-6602D02*
D03*
X14406Y-6602D02*
D03*
X14402Y-6602D02*
D03*
X14406Y-6096D02*
D03*
X14402Y-5588D02*
D03*
Y-5080D02*
D03*
X13653Y-6602D02*
D03*
X13657Y-6602D02*
D03*
X13653Y-6602D02*
D03*
X13657Y-6096D02*
D03*
X13653Y-5588D02*
D03*
Y-5080D02*
D03*
X10534Y-4249D02*
D03*
X10538Y-4250D02*
D03*
X10534Y-4249D02*
D03*
X10538Y-3744D02*
D03*
X10534Y-3236D02*
D03*
Y-2728D02*
D03*
X9818Y-4249D02*
D03*
X9822Y-4250D02*
D03*
X9818Y-4249D02*
D03*
X9822Y-3744D02*
D03*
X9818Y-3236D02*
D03*
Y-2728D02*
D03*
X14402Y-4214D02*
D03*
X14406Y-4214D02*
D03*
X14402Y-4214D02*
D03*
X14406Y-3708D02*
D03*
X14402Y-3200D02*
D03*
Y-2692D02*
D03*
X13653Y-4214D02*
D03*
X13657Y-4214D02*
D03*
X13653Y-4214D02*
D03*
X13657Y-3708D02*
D03*
X13653Y-3200D02*
D03*
Y-2692D02*
D03*
X16334Y-4249D02*
D03*
X16338Y-4250D02*
D03*
X16334Y-4249D02*
D03*
X16338Y-3744D02*
D03*
X16334Y-3236D02*
D03*
Y-2728D02*
D03*
X15519Y-4249D02*
D03*
X15523Y-4250D02*
D03*
X15519Y-4249D02*
D03*
X15523Y-3744D02*
D03*
X15519Y-3236D02*
D03*
Y-2728D02*
D03*
X20538Y-4249D02*
D03*
X20542Y-4250D02*
D03*
X20538Y-4249D02*
D03*
X20542Y-3744D02*
D03*
X20538Y-3236D02*
D03*
Y-2728D02*
D03*
X19757Y-4249D02*
D03*
X19761Y-4250D02*
D03*
X19757Y-4249D02*
D03*
X19761Y-3744D02*
D03*
X19757Y-3236D02*
D03*
Y-2728D02*
D03*
X16334Y-6557D02*
D03*
X16338Y-6557D02*
D03*
X16334Y-6557D02*
D03*
X16338Y-6051D02*
D03*
X16334Y-5543D02*
D03*
Y-5035D02*
D03*
X15519Y-6557D02*
D03*
X15523Y-6557D02*
D03*
X15519Y-6557D02*
D03*
X15523Y-6051D02*
D03*
X15519Y-5543D02*
D03*
Y-5035D02*
D03*
X20538Y-6557D02*
D03*
X20542Y-6557D02*
D03*
X20538Y-6557D02*
D03*
X20542Y-6051D02*
D03*
X20538Y-5543D02*
D03*
Y-5035D02*
D03*
X19757Y-6557D02*
D03*
X19761Y-6557D02*
D03*
X19757Y-6557D02*
D03*
X19761Y-6051D02*
D03*
X19757Y-5543D02*
D03*
Y-5035D02*
D03*
X17883Y-4249D02*
D03*
X17888Y-4250D02*
D03*
X17883Y-4249D02*
D03*
X17888Y-3744D02*
D03*
X17883Y-3236D02*
D03*
Y-2728D02*
D03*
X17102Y-4249D02*
D03*
X17107Y-4250D02*
D03*
X17102Y-4249D02*
D03*
X17107Y-3744D02*
D03*
X17102Y-3236D02*
D03*
Y-2728D02*
D03*
X22087Y-4249D02*
D03*
X22091Y-4250D02*
D03*
X22087Y-4249D02*
D03*
X22091Y-3744D02*
D03*
X22087Y-3236D02*
D03*
Y-2728D02*
D03*
X21306Y-4249D02*
D03*
X21310Y-4250D02*
D03*
X21306Y-4249D02*
D03*
X21310Y-3744D02*
D03*
X21306Y-3236D02*
D03*
Y-2728D02*
D03*
X17883Y-6557D02*
D03*
X17888Y-6557D02*
D03*
X17883Y-6557D02*
D03*
X17888Y-6051D02*
D03*
X17883Y-5543D02*
D03*
Y-5035D02*
D03*
X17102Y-6557D02*
D03*
X17107Y-6557D02*
D03*
X17102Y-6557D02*
D03*
X17107Y-6051D02*
D03*
X17102Y-5543D02*
D03*
Y-5035D02*
D03*
X22087Y-6557D02*
D03*
X22091Y-6557D02*
D03*
X22087Y-6557D02*
D03*
X22091Y-6051D02*
D03*
X22087Y-5543D02*
D03*
Y-5035D02*
D03*
X21306Y-6557D02*
D03*
X21310Y-6557D02*
D03*
X21306Y-6557D02*
D03*
X21310Y-6051D02*
D03*
X21306Y-5543D02*
D03*
Y-5035D02*
D03*
X16334Y-8865D02*
D03*
X16338Y-8865D02*
D03*
X16334Y-8865D02*
D03*
X16338Y-8359D02*
D03*
X16334Y-7851D02*
D03*
Y-7343D02*
D03*
X15519Y-8865D02*
D03*
X15523Y-8865D02*
D03*
X15519Y-8865D02*
D03*
X15523Y-8359D02*
D03*
X15519Y-7851D02*
D03*
Y-7343D02*
D03*
X20538Y-8862D02*
D03*
X20542Y-8863D02*
D03*
X20538Y-8862D02*
D03*
X20542Y-8357D02*
D03*
X20538Y-7849D02*
D03*
Y-7341D02*
D03*
X19757Y-8862D02*
D03*
X19761Y-8863D02*
D03*
X19757Y-8862D02*
D03*
X19761Y-8357D02*
D03*
X19757Y-7849D02*
D03*
Y-7341D02*
D03*
X17883Y-8865D02*
D03*
X17888Y-8865D02*
D03*
X17883Y-8865D02*
D03*
X17888Y-8359D02*
D03*
X17883Y-7851D02*
D03*
Y-7343D02*
D03*
X17102Y-8865D02*
D03*
X17107Y-8865D02*
D03*
X17102Y-8865D02*
D03*
X17107Y-8359D02*
D03*
X17102Y-7851D02*
D03*
Y-7343D02*
D03*
X22087Y-8862D02*
D03*
X22091Y-8863D02*
D03*
X22087Y-8862D02*
D03*
X22091Y-8357D02*
D03*
X22087Y-7849D02*
D03*
Y-7341D02*
D03*
X21306Y-8862D02*
D03*
X21310Y-8863D02*
D03*
X21306Y-8862D02*
D03*
X21310Y-8357D02*
D03*
X21306Y-7849D02*
D03*
Y-7341D02*
D03*
X16334Y-11172D02*
D03*
X16338Y-11173D02*
D03*
X16334Y-11172D02*
D03*
X16338Y-10667D02*
D03*
X16334Y-10159D02*
D03*
Y-9651D02*
D03*
X15519Y-11172D02*
D03*
X15523Y-11173D02*
D03*
X15519Y-11172D02*
D03*
X15523Y-10667D02*
D03*
X15519Y-10159D02*
D03*
Y-9651D02*
D03*
X19757Y-11172D02*
D03*
X19761Y-11173D02*
D03*
X19757Y-11172D02*
D03*
X19761Y-10667D02*
D03*
X19757Y-10159D02*
D03*
Y-9651D02*
D03*
X17883Y-11172D02*
D03*
X17888Y-11173D02*
D03*
X17883Y-11172D02*
D03*
X17888Y-10667D02*
D03*
X17883Y-10159D02*
D03*
Y-9651D02*
D03*
X17102Y-11172D02*
D03*
X17107Y-11173D02*
D03*
X17102Y-11172D02*
D03*
X17107Y-10667D02*
D03*
X17102Y-10159D02*
D03*
Y-9651D02*
D03*
X22087Y-11172D02*
D03*
X22091Y-11173D02*
D03*
X22087Y-11172D02*
D03*
X22091Y-10667D02*
D03*
X22087Y-10159D02*
D03*
Y-9651D02*
D03*
X21306Y-11172D02*
D03*
X21310Y-11173D02*
D03*
X21306Y-11172D02*
D03*
X21310Y-10667D02*
D03*
X21306Y-10159D02*
D03*
Y-9651D02*
D03*
X16334Y-13480D02*
D03*
X16338Y-13481D02*
D03*
X16334Y-13480D02*
D03*
X16338Y-12975D02*
D03*
X16334Y-12467D02*
D03*
Y-11959D02*
D03*
X15519Y-13480D02*
D03*
X15523Y-13481D02*
D03*
X15519Y-13480D02*
D03*
X15523Y-12975D02*
D03*
X15519Y-12467D02*
D03*
Y-11959D02*
D03*
X20538Y-13480D02*
D03*
X20542Y-13481D02*
D03*
X20538Y-13480D02*
D03*
X20542Y-12975D02*
D03*
X20538Y-12467D02*
D03*
Y-11959D02*
D03*
X19757Y-13480D02*
D03*
X19761Y-13481D02*
D03*
X19757Y-13480D02*
D03*
X19761Y-12975D02*
D03*
X19757Y-12467D02*
D03*
Y-11959D02*
D03*
X17883Y-13480D02*
D03*
X17888Y-13481D02*
D03*
X17883Y-13480D02*
D03*
X17888Y-12975D02*
D03*
X17883Y-12467D02*
D03*
Y-11959D02*
D03*
X17102Y-13480D02*
D03*
X17107Y-13481D02*
D03*
X17102Y-13480D02*
D03*
X17107Y-12975D02*
D03*
X17102Y-12467D02*
D03*
Y-11959D02*
D03*
X22087Y-13480D02*
D03*
X22091Y-13481D02*
D03*
X22087Y-13480D02*
D03*
X22091Y-12975D02*
D03*
X22087Y-12467D02*
D03*
Y-11959D02*
D03*
X21306Y-13480D02*
D03*
X21310Y-13481D02*
D03*
X21306Y-13480D02*
D03*
X21310Y-12975D02*
D03*
X21306Y-12467D02*
D03*
Y-11959D02*
D03*
X16334Y-15788D02*
D03*
X16338Y-15788D02*
D03*
X16334Y-15788D02*
D03*
X16338Y-15282D02*
D03*
X16334Y-14774D02*
D03*
Y-14266D02*
D03*
X15519Y-15788D02*
D03*
X15523Y-15788D02*
D03*
X15519Y-15788D02*
D03*
X15523Y-15282D02*
D03*
X15519Y-14774D02*
D03*
Y-14266D02*
D03*
X20538Y-15788D02*
D03*
X20542Y-15788D02*
D03*
X20538Y-15788D02*
D03*
X20542Y-15282D02*
D03*
X20538Y-14774D02*
D03*
Y-14266D02*
D03*
X19757Y-15788D02*
D03*
X19761Y-15788D02*
D03*
X19757Y-15788D02*
D03*
X19761Y-15282D02*
D03*
X19757Y-14774D02*
D03*
Y-14266D02*
D03*
X17883Y-15788D02*
D03*
X17888Y-15788D02*
D03*
X17883Y-15788D02*
D03*
X17888Y-15282D02*
D03*
X17883Y-14774D02*
D03*
Y-14266D02*
D03*
X17102Y-15788D02*
D03*
X17107Y-15788D02*
D03*
X17102Y-15788D02*
D03*
X17107Y-15282D02*
D03*
X17102Y-14774D02*
D03*
Y-14266D02*
D03*
X22087Y-15788D02*
D03*
X22091Y-15788D02*
D03*
X22087Y-15788D02*
D03*
X22091Y-15282D02*
D03*
X22087Y-14774D02*
D03*
Y-14266D02*
D03*
X21306Y-15788D02*
D03*
X21310Y-15788D02*
D03*
X21306Y-15788D02*
D03*
X21310Y-15282D02*
D03*
X21306Y-14774D02*
D03*
Y-14266D02*
D03*
X16334Y-18096D02*
D03*
X16338Y-18096D02*
D03*
X16334Y-18096D02*
D03*
X16338Y-17590D02*
D03*
X16334Y-17082D02*
D03*
Y-16574D02*
D03*
X15519Y-18096D02*
D03*
X15523Y-18096D02*
D03*
X15519Y-18096D02*
D03*
X15523Y-17590D02*
D03*
X15519Y-17082D02*
D03*
Y-16574D02*
D03*
X20538Y-18096D02*
D03*
X20542Y-18096D02*
D03*
X20538Y-18096D02*
D03*
X20542Y-17590D02*
D03*
X20538Y-17082D02*
D03*
Y-16574D02*
D03*
X17102Y-18096D02*
D03*
X17107Y-18096D02*
D03*
X17102Y-18096D02*
D03*
X17107Y-17590D02*
D03*
X17102Y-17082D02*
D03*
Y-16574D02*
D03*
X22087Y-18096D02*
D03*
X22091Y-18096D02*
D03*
X22087Y-18096D02*
D03*
X22091Y-17590D02*
D03*
X22087Y-17082D02*
D03*
Y-16574D02*
D03*
X21306Y-18096D02*
D03*
X21310Y-18096D02*
D03*
X21306Y-18096D02*
D03*
X21310Y-17590D02*
D03*
X21306Y-17082D02*
D03*
Y-16574D02*
D03*
X19757Y-18096D02*
D03*
X19761Y-18096D02*
D03*
X19757Y-18096D02*
D03*
X19761Y-17590D02*
D03*
X19757Y-17082D02*
D03*
Y-16574D02*
D03*
X17883Y-18096D02*
D03*
X17888Y-18096D02*
D03*
X17883Y-18096D02*
D03*
X17888Y-17590D02*
D03*
X17883Y-17082D02*
D03*
Y-16574D02*
D03*
X20538Y-11172D02*
D03*
X20542Y-11173D02*
D03*
X20538Y-11172D02*
D03*
X20542Y-10667D02*
D03*
X20538Y-10159D02*
D03*
Y-9651D02*
D03*
X10534Y-18096D02*
D03*
X10538Y-18096D02*
D03*
X10534Y-18096D02*
D03*
X10538Y-17590D02*
D03*
X10534Y-17082D02*
D03*
Y-16574D02*
D03*
D25*
X490Y-820D02*
D03*
X22990D02*
D03*
Y-18820D02*
D03*
X490D02*
D03*
X15128Y-19524D02*
D03*
X6228D02*
D03*
D26*
X17119Y-18896D02*
D03*
X17373D02*
D03*
X17627D02*
D03*
X17881D02*
D03*
X18135D02*
D03*
Y-19150D02*
D03*
X17627D02*
D03*
X17119D02*
D03*
X17373D02*
D03*
X17881D02*
D03*
D27*
X14361Y-19268D02*
D03*
X14107D02*
D03*
X13853D02*
D03*
X13599D02*
D03*
X13345D02*
D03*
X13091D02*
D03*
X12837D02*
D03*
X12583D02*
D03*
X12329D02*
D03*
X12075D02*
D03*
X11821D02*
D03*
X11567D02*
D03*
X11313D02*
D03*
X11059D02*
D03*
X10805D02*
D03*
X10551D02*
D03*
X10297D02*
D03*
X10043D02*
D03*
X9789D02*
D03*
X9535D02*
D03*
X9281D02*
D03*
X9027D02*
D03*
X8773D02*
D03*
X8519D02*
D03*
X8265D02*
D03*
X8011D02*
D03*
X7757D02*
D03*
X7503D02*
D03*
X7249D02*
D03*
X6995D02*
D03*
X14615D02*
D03*
X6741D02*
D03*
X14364Y-18999D02*
D03*
X14110D02*
D03*
X13856D02*
D03*
X13602D02*
D03*
X13348D02*
D03*
X13094D02*
D03*
X12840D02*
D03*
X12586D02*
D03*
X12332D02*
D03*
X12078D02*
D03*
X11824D02*
D03*
X11570D02*
D03*
X11316D02*
D03*
X11062D02*
D03*
X10808D02*
D03*
X10554D02*
D03*
X10300D02*
D03*
X10046D02*
D03*
X9792D02*
D03*
X9538D02*
D03*
X9284D02*
D03*
X9030D02*
D03*
X8776D02*
D03*
X8522D02*
D03*
X8268D02*
D03*
X8014D02*
D03*
X7760D02*
D03*
X7506D02*
D03*
X7252D02*
D03*
X6998D02*
D03*
X14618Y-18989D02*
D03*
X6744Y-18999D02*
D03*
X14361Y-18740D02*
D03*
X14107D02*
D03*
X13853D02*
D03*
X13599D02*
D03*
X13345D02*
D03*
X13091D02*
D03*
X12837D02*
D03*
X12583D02*
D03*
X12329D02*
D03*
X12075D02*
D03*
X11821D02*
D03*
X11567D02*
D03*
X11313D02*
D03*
X11059D02*
D03*
X10805D02*
D03*
X10551D02*
D03*
X10297D02*
D03*
X10043D02*
D03*
X9789D02*
D03*
X9535D02*
D03*
X9281D02*
D03*
X9027D02*
D03*
X8773D02*
D03*
X8519D02*
D03*
X8265D02*
D03*
X8011D02*
D03*
X7757D02*
D03*
X7503D02*
D03*
X7249D02*
D03*
X6995D02*
D03*
X14615D02*
D03*
X6741D02*
D03*
D28*
X9779Y-14603D02*
D03*
X5207Y-10717D02*
D03*
X4851Y-8533D02*
D03*
X6497Y-17296D02*
D03*
X10363Y-17829D02*
D03*
X9982Y-17654D02*
D03*
X19248Y-14671D02*
D03*
X10795Y-17524D02*
D03*
X4115Y-12800D02*
D03*
X3632Y-887D02*
D03*
X12522Y-8482D02*
D03*
X12544Y-7978D02*
D03*
X20218Y-3478D02*
D03*
X20193Y-3453D02*
D03*
X7747Y-151D02*
D03*
X7721Y-836D02*
D03*
X10236Y-5866D02*
D03*
X10363Y-5307D02*
D03*
X17602Y-17169D02*
D03*
X17272Y-17524D02*
D03*
X14808Y-16559D02*
D03*
X14859Y-17499D02*
D03*
X11572Y-16978D02*
D03*
X13599Y-18464D02*
D03*
X18847Y-12343D02*
D03*
X19253Y-12368D02*
D03*
X18339Y-12735D02*
D03*
X18313Y-12825D02*
D03*
X11887Y-12724D02*
D03*
X11760Y-12444D02*
D03*
X10947Y-12368D02*
D03*
X10338Y-13003D02*
D03*
X10748Y-12550D02*
D03*
X5461Y-12546D02*
D03*
X5440Y-12089D02*
D03*
X3581Y-12876D02*
D03*
X4165Y-12343D02*
D03*
X11303Y-7898D02*
D03*
X18415Y-5637D02*
D03*
X12446Y-6247D02*
D03*
X12428Y-6696D02*
D03*
X10033Y-3351D02*
D03*
X9982Y-3605D02*
D03*
X10490Y-4519D02*
D03*
X10338Y-4189D02*
D03*
X17297Y-1471D02*
D03*
X12573Y-1649D02*
D03*
X12547Y-1751D02*
D03*
X12099Y-1133D02*
D03*
X12420Y-1116D02*
D03*
X19177Y-9777D02*
D03*
X15291Y-18247D02*
D03*
X9027Y-18464D02*
D03*
X17907Y-18642D02*
D03*
X4699Y-1129D02*
D03*
X3759Y-3402D02*
D03*
X3607Y-3681D02*
D03*
X3708Y-3859D02*
D03*
X3530Y-6120D02*
D03*
X4079Y-8584D02*
D03*
X3530Y-7847D02*
D03*
X4267Y-9066D02*
D03*
X4597Y-12495D02*
D03*
X4775Y-12673D02*
D03*
X4303Y-13796D02*
D03*
X4300Y-15594D02*
D03*
X3657Y-17499D02*
D03*
X10934Y-13221D02*
D03*
X10719Y-10793D02*
D03*
X10828Y-10575D02*
D03*
X11933Y-10836D02*
D03*
X10719Y-8355D02*
D03*
X10973Y-6069D02*
D03*
X11303Y-3854D02*
D03*
X12040Y-3867D02*
D03*
X18206Y-3707D02*
D03*
X17246Y-6348D02*
D03*
X18328Y-8279D02*
D03*
X19405Y-10590D02*
D03*
X19329Y-12749D02*
D03*
X18344Y-15088D02*
D03*
X19583Y-15568D02*
D03*
X18262Y-17372D02*
D03*
X19304D02*
D03*
X4470Y-5180D02*
D03*
X19177Y-557D02*
D03*
X20269Y-1040D02*
D03*
X10490Y-8152D02*
D03*
X10973Y-15077D02*
D03*
X12357Y-5312D02*
D03*
X18745Y-989D02*
D03*
X17297Y-1032D02*
D03*
X18326Y-1294D02*
D03*
X18110Y-735D02*
D03*
X18821Y-1268D02*
D03*
X18872Y-3326D02*
D03*
X19278Y-3732D02*
D03*
X18821Y-5612D02*
D03*
X19278Y-10082D02*
D03*
X11883Y-14878D02*
D03*
X11536Y-16262D02*
D03*
X3756Y-8205D02*
D03*
X5181Y-7440D02*
D03*
X19964Y-3732D02*
D03*
X11862Y-17423D02*
D03*
X4673Y-12901D02*
D03*
X4300Y-10976D02*
D03*
X4699Y-10260D02*
D03*
X4597Y-9066D02*
D03*
X4775Y-8202D02*
D03*
X3660Y-15331D02*
D03*
X4165Y-3284D02*
D03*
Y-9650D02*
D03*
X11709Y-16584D02*
D03*
X3683Y-10692D02*
D03*
X19355Y-8342D02*
D03*
X18872Y-10082D02*
D03*
X19278Y-7796D02*
D03*
X18847Y-7745D02*
D03*
X19202Y-16508D02*
D03*
X12024Y-2740D02*
D03*
X10693Y-3834D02*
D03*
X4595Y-1383D02*
D03*
X11986Y-10310D02*
D03*
X18923Y-8421D02*
D03*
X18085Y-7771D02*
D03*
X18110Y-10285D02*
D03*
X17805Y-10895D02*
D03*
X11735Y-9709D02*
D03*
X10947Y-10082D02*
D03*
X18085Y-3148D02*
D03*
X11912Y-8482D02*
D03*
X3698Y-13003D02*
D03*
X3735Y-10512D02*
D03*
X3525Y-10690D02*
D03*
X7518Y-17219D02*
D03*
X20127Y-3915D02*
D03*
X19710Y-6272D02*
D03*
X17792Y-16775D02*
D03*
X19177Y-11880D02*
D03*
X4148Y-17842D02*
D03*
X10922Y-3411D02*
D03*
X3734Y-15060D02*
D03*
X11653Y-14083D02*
D03*
X19253Y-16986D02*
D03*
X11293Y-10920D02*
D03*
X19358Y-3643D02*
D03*
X7747Y-18413D02*
D03*
X20040Y-3851D02*
D03*
Y-5119D02*
D03*
X19223Y-16605D02*
D03*
X19151Y-14273D02*
D03*
X19159Y-11992D02*
D03*
X4496Y-16559D02*
D03*
Y-14298D02*
D03*
X11567Y-18464D02*
D03*
X11841Y-13004D02*
D03*
X10995Y-17486D02*
D03*
X10043Y-18464D02*
D03*
X11747Y-11692D02*
D03*
X13345Y-18464D02*
D03*
X10805D02*
D03*
X11328Y-7720D02*
D03*
X13091Y-18464D02*
D03*
X18212Y-14984D02*
D03*
X17368Y-14946D02*
D03*
X18067Y-14832D02*
D03*
X19103Y-18007D02*
D03*
X12245Y-2434D02*
D03*
X11938Y-7595D02*
D03*
X20127Y-7692D02*
D03*
X16434Y-5891D02*
D03*
X18415Y-16542D02*
D03*
X12075Y-18464D02*
D03*
X14107D02*
D03*
X4825Y-6220D02*
D03*
X5105Y-6221D02*
D03*
X4115Y-7801D02*
D03*
X18440Y-3643D02*
D03*
X4079Y-6309D02*
D03*
X18285Y-14438D02*
D03*
X18735Y-6584D02*
D03*
X12837Y-18464D02*
D03*
X18255Y-6478D02*
D03*
X19258Y-3008D02*
D03*
X18364Y-5962D02*
D03*
X11823Y-5510D02*
D03*
X11841Y-5734D02*
D03*
X10820Y-14823D02*
D03*
X9819Y-18378D02*
D03*
X10541Y-18474D02*
D03*
X11870Y-5947D02*
D03*
X19159Y-5111D02*
D03*
X17297Y-811D02*
D03*
X4579Y-12018D02*
D03*
X4521Y-7466D02*
D03*
X4470Y-2919D02*
D03*
X5486Y-1573D02*
D03*
X12700Y-1979D02*
D03*
X12674Y-1014D02*
D03*
X12700Y-1522D02*
D03*
X11813Y-9877D02*
D03*
X11735Y-7501D02*
D03*
X19465Y-17296D02*
D03*
X19304Y-14832D02*
D03*
Y-12571D02*
D03*
X18847Y-12815D02*
D03*
X17272Y-12978D02*
D03*
X18110Y-12317D02*
D03*
X19291Y-10247D02*
D03*
X18915Y-10458D02*
D03*
X18339Y-10628D02*
D03*
X18847Y-7961D02*
D03*
X17888Y-8012D02*
D03*
X16764Y-7618D02*
D03*
X18933Y-6202D02*
D03*
X18941Y-1395D02*
D03*
X10973Y-1370D02*
D03*
X10922Y-1268D02*
D03*
X11356Y-1294D02*
D03*
X11845Y-3411D02*
D03*
X11938Y-3326D02*
D03*
X10719Y-5688D02*
D03*
X11963Y-8253D02*
D03*
X10945Y-8274D02*
D03*
X11125Y-15855D02*
D03*
X10887Y-14823D02*
D03*
X11887Y-17143D02*
D03*
X10744Y-17194D02*
D03*
X4287Y-17397D02*
D03*
X4800Y-17016D02*
D03*
X4699Y-15619D02*
D03*
X4597Y-14933D02*
D03*
X4775Y-15010D02*
D03*
X3890Y-15539D02*
D03*
X3480Y-12800D02*
D03*
X4724Y-10082D02*
D03*
X4089Y-10844D02*
D03*
X4648Y-8075D02*
D03*
X4673Y-5816D02*
D03*
X3688Y-5947D02*
D03*
X3607Y-5815D02*
D03*
X4715Y-3665D02*
D03*
X4656Y-3437D02*
D03*
X4877Y-3427D02*
D03*
X3708Y-1522D02*
D03*
X3695Y-1129D02*
D03*
X3607Y-228D02*
D03*
X19278Y-10082D02*
D03*
X18796Y-10107D02*
D03*
X11328Y-14806D02*
D03*
X4165Y-1090D02*
D03*
X11328Y-5434D02*
D03*
Y-3376D02*
D03*
X10947Y-659D02*
D03*
X11328Y-1040D02*
D03*
X4127Y-16978D02*
D03*
X4191Y-16457D02*
D03*
Y-14696D02*
D03*
Y-10031D02*
D03*
Y-14197D02*
D03*
X8001Y-18413D02*
D03*
X8265Y-18464D02*
D03*
X8519D02*
D03*
X8773D02*
D03*
X9245D02*
D03*
X9535D02*
D03*
X10297D02*
D03*
X11100D02*
D03*
X11313D02*
D03*
X11821D02*
D03*
X12329D02*
D03*
X12583D02*
D03*
X13868Y-18489D02*
D03*
X14705Y-19152D02*
D03*
X15062Y-735D02*
D03*
X14839Y-303D02*
D03*
X3522Y-1294D02*
D03*
X19272Y-1020D02*
D03*
X19249Y-1188D02*
D03*
X19532Y-2233D02*
D03*
X19482Y-2411D02*
D03*
X4140Y-5535D02*
D03*
X7721Y-836D02*
D03*
X19697Y-5828D02*
D03*
X17780Y-5688D02*
D03*
X10807Y-5942D02*
D03*
X4115Y-7390D02*
D03*
X4826Y-7745D02*
D03*
X18059Y-8304D02*
D03*
X17297Y-8435D02*
D03*
X19304Y-7948D02*
D03*
D29*
X18085Y-6069D02*
D03*
X11836Y-10107D02*
D03*
X10981Y-1484D02*
D03*
X19269Y-1344D02*
D03*
X12090Y-8583D02*
D03*
M02*
